<svg id="Group_41163" data-name="Group 41163" xmlns="http://www.w3.org/2000/svg" xmlns:xlink="http://www.w3.org/1999/xlink" width="596.63" height="390.652" viewBox="0 0 596.63 390.652">
  <defs>
    <clipPath id="clip-path">
      <rect id="Rectangle_7481" data-name="Rectangle 7481" width="596.63" height="390.652" fill="none"/>
    </clipPath>
    <clipPath id="clip-path-3">
      <rect id="Rectangle_7459" data-name="Rectangle 7459" width="66.718" height="4.521" transform="translate(263.899 177.285)" fill="none"/>
    </clipPath>
    <clipPath id="clip-path-4">
      <rect id="Rectangle_7460" data-name="Rectangle 7460" width="66.718" height="4.521" transform="translate(159.081 177.285)" fill="none"/>
    </clipPath>
    <clipPath id="clip-path-5">
      <rect id="Rectangle_7461" data-name="Rectangle 7461" width="66.718" height="4.521" transform="translate(363.923 177.285)" fill="none"/>
    </clipPath>
    <clipPath id="clip-path-6">
      <rect id="Rectangle_7462" data-name="Rectangle 7462" width="596.63" height="77.325" transform="translate(0 313.327)" fill="none"/>
    </clipPath>
    <clipPath id="clip-path-7">
      <rect id="Rectangle_7464" data-name="Rectangle 7464" width="86.649" height="21.997" transform="translate(235.464 313.245)" fill="none"/>
    </clipPath>
    <clipPath id="clip-path-8">
      <rect id="Rectangle_7465" data-name="Rectangle 7465" width="98.581" height="5.672" transform="translate(129.954 324.173)" fill="none"/>
    </clipPath>
    <clipPath id="clip-path-9">
      <path id="Path_85408" data-name="Path 85408" d="M213.185,320.421a7.357,7.357,0,0,0,.542,5.111c-.237.107-.058,1.083.37,1.29.506.244,4.159.184,4.9-.395a.79.79,0,0,0-.024-.656s.914.347,3.512-.144a13.206,13.206,0,0,0,5-1.883c.306-.194.094-.887-.251-.776,0,0-.222-1.8-1.731-1.7a11.348,11.348,0,0,1-6.891-2.015,5.655,5.655,0,0,0-2.055-.893c-.052,0-.105,0-.158,0a3.49,3.49,0,0,0-3.218,2.07" fill="none"/>
    </clipPath>
    <clipPath id="clip-path-11">
      <path id="Path_85417" data-name="Path 85417" d="M137.873,311.5a7.358,7.358,0,0,0-3.989,3.241c-.22-.141-.94.542-.88,1.014.071.557,2.113,3.586,3,3.893a.789.789,0,0,0,.537-.378s.207.955,2.035,2.867a13.237,13.237,0,0,0,4.307,3.167c.329.151.795-.4.513-.633,0,0,1.39-1.17.487-2.382a11.347,11.347,0,0,1-2.068-6.875,5.68,5.68,0,0,0-.371-2.21,3.65,3.65,0,0,0-2.974-1.771,2.722,2.722,0,0,0-.6.067" fill="none"/>
    </clipPath>
    <clipPath id="clip-path-13">
      <rect id="Rectangle_7468" data-name="Rectangle 7468" width="2.904" height="0.97" transform="translate(189.955 158.113)" fill="none"/>
    </clipPath>
    <clipPath id="clip-path-14">
      <rect id="Rectangle_7469" data-name="Rectangle 7469" width="7.616" height="55.388" transform="translate(190.202 178.291)" fill="none"/>
    </clipPath>
    <clipPath id="clip-path-15">
      <rect id="Rectangle_7470" data-name="Rectangle 7470" width="43.2" height="35.341" transform="translate(499.31 163.373)" fill="none"/>
    </clipPath>
    <clipPath id="clip-path-16">
      <rect id="Rectangle_7471" data-name="Rectangle 7471" width="98.581" height="5.672" transform="translate(360.499 323.182)" fill="none"/>
    </clipPath>
    <clipPath id="clip-path-17">
      <path id="Path_85447" data-name="Path 85447" d="M413.919,318.187s-.084,4.619-3.519,6.821c-1.86,1.192-.769,3.367-.769,3.367.888.444,6.823-1.245,7.858-2.708.856-1.211,1.7-4.942,1.7-4.942l1.658,2.134a3.176,3.176,0,0,0,2.058-1.422s-1.318-3.723-1.656-4.223a28.094,28.094,0,0,0-2.388-2.3,3.352,3.352,0,0,0-1.77-.516,3.21,3.21,0,0,0-3.177,3.788" fill="none"/>
    </clipPath>
    <clipPath id="clip-path-19">
      <rect id="Rectangle_7473" data-name="Rectangle 7473" width="28.531" height="60.646" transform="translate(396.557 203.34)" fill="none"/>
    </clipPath>
    <clipPath id="clip-path-20">
      <path id="Path_85453" data-name="Path 85453" d="M426.7,318.961s-.434,3.489-5.358,6.014c-1.967,1.008-.744,3.373-.744,3.373.89.437,6.191-.79,7.679-1.79a10.784,10.784,0,0,0,2.453-3.35l.791,2.584a3.164,3.164,0,0,0,2.428-.6s.093-3.947-.046-4.535a28.048,28.048,0,0,0-1.416-3,3.269,3.269,0,0,0-2.62-1.322,3.179,3.179,0,0,0-3.167,2.622" fill="none"/>
    </clipPath>
    <clipPath id="clip-path-22">
      <rect id="Rectangle_7475" data-name="Rectangle 7475" width="19.943" height="61.653" transform="translate(415.062 203.188)" fill="none"/>
    </clipPath>
    <clipPath id="clip-path-23">
      <rect id="Rectangle_7476" data-name="Rectangle 7476" width="4.4" height="0.864" transform="translate(411.386 153.973)" fill="none"/>
    </clipPath>
    <clipPath id="clip-path-24">
      <rect id="Rectangle_7477" data-name="Rectangle 7477" width="2.905" height="0.97" transform="translate(410.438 151.802)" fill="none"/>
    </clipPath>
    <clipPath id="clip-path-25">
      <rect id="Rectangle_7478" data-name="Rectangle 7478" width="91.912" height="67.842" transform="translate(290.705 89.597)" fill="none"/>
    </clipPath>
  </defs>
  <g id="Group_41162" data-name="Group 41162" clip-path="url(#clip-path)">
    <g id="Group_41118" data-name="Group 41118">
      <g id="Group_41117" data-name="Group 41117" clip-path="url(#clip-path)">
        <path id="Path_85231" data-name="Path 85231" d="M97.3,229.279a1.332,1.332,0,0,1,.492.25,1.267,1.267,0,0,1,.357.424.441.441,0,0,1-.219.573.434.434,0,0,1-.271.032,1.378,1.378,0,0,1-.487-.249,1.3,1.3,0,0,1-.352-.418.443.443,0,0,1,.206-.576.425.425,0,0,1,.274-.036" fill="#fff"/>
        <path id="Path_85232" data-name="Path 85232" d="M98.9,230.568a1.387,1.387,0,0,1,.829.7.439.439,0,0,1-.233.566.426.426,0,0,1-.271.026,1.363,1.363,0,0,1-.821-.691.439.439,0,0,1,.221-.568.426.426,0,0,1,.275-.03" fill="#fff"/>
        <path id="Path_85233" data-name="Path 85233" d="M100.464,231.9a1.292,1.292,0,0,1,.478.275,1.306,1.306,0,0,1,.332.441.439.439,0,0,1-.517.58,1.312,1.312,0,0,1-.473-.274,1.346,1.346,0,0,1-.332-.436.438.438,0,0,1,.236-.563.433.433,0,0,1,.276-.023" fill="#fff"/>
        <path id="Path_85234" data-name="Path 85234" d="M103.165,234.352a1.36,1.36,0,0,1,.783.746.437.437,0,0,1-.265.55.424.424,0,0,1-.274.01,1.405,1.405,0,0,1-.777-.74.439.439,0,0,1,.258-.554.421.421,0,0,1,.275-.012" fill="#fff"/>
        <path id="Path_85235" data-name="Path 85235" d="M105.031,236.155a.549.549,0,0,1,.309.152.538.538,0,0,1,.153.31.511.511,0,0,1-.454.546.524.524,0,0,1-.1,0,.538.538,0,0,1-.459-.458.512.512,0,0,1,.448-.55.479.479,0,0,1,.1,0" fill="#fff"/>
        <path id="Path_85236" data-name="Path 85236" d="M106.557,237.735a.538.538,0,0,1,.451.475.511.511,0,0,1-.471.533.523.523,0,0,1-.1,0,.538.538,0,0,1-.3-.159.544.544,0,0,1-.143-.309.512.512,0,0,1,.461-.539.556.556,0,0,1,.1,0" fill="#fff"/>
        <path id="Path_85237" data-name="Path 85237" d="M79.4,223.944a8.491,8.491,0,0,1,4.523-1.184,13.1,13.1,0,0,1,4.543,1.04,28.99,28.99,0,0,1,4.063,2.139,41.694,41.694,0,0,1,3.713,2.649.389.389,0,0,1-.467.622c-1.222-.867-2.466-1.7-3.741-2.464a27.92,27.92,0,0,0-3.945-2.023,12.144,12.144,0,0,0-4.184-1.017,8.14,8.14,0,0,0-4.1.9.417.417,0,0,1-.523-.16.356.356,0,0,1,.122-.506" fill="#fff"/>
        <path id="Path_85238" data-name="Path 85238" d="M78.952,225.11c-.047.165-.168.238-.247.361a.861.861,0,0,1-.365.242.475.475,0,0,1-.57-.289.428.428,0,0,1-.012-.227,1.09,1.09,0,0,1,.248-.437.844.844,0,0,1,.441-.241.444.444,0,0,1,.518.371.46.46,0,0,1-.013.22" fill="#fff"/>
        <path id="Path_85239" data-name="Path 85239" d="M77.859,226.322a.873.873,0,0,1-.15.417,1.289,1.289,0,0,1-.307.321.461.461,0,0,1-.615-.149.446.446,0,0,1-.068-.22.814.814,0,0,1,.141-.474,1.089,1.089,0,0,1,.362-.341.438.438,0,0,1,.59.226.475.475,0,0,1,.047.22" fill="#fff"/>
        <path id="Path_85240" data-name="Path 85240" d="M77.056,227.765c-.063.3-.149.578-.237.859l-.218.862c-.144.577-.265,1.159-.425,1.746a.4.4,0,0,1-.483.267.374.374,0,0,1-.288-.363,8.155,8.155,0,0,1,.228-1.889l.288-.918a8.7,8.7,0,0,1,.42-.87.385.385,0,0,1,.545-.118.4.4,0,0,1,.17.424" fill="#fff"/>
        <path id="Path_85241" data-name="Path 85241" d="M76.047,232.761a.387.387,0,0,1-.02.54.552.552,0,0,1-.766-.006l-.011-.011a.416.416,0,0,1-.1-.283.423.423,0,0,1,.119-.276.55.55,0,0,1,.764.023Z" fill="#fff"/>
        <path id="Path_85242" data-name="Path 85242" d="M76.052,234.58a.389.389,0,0,1,.02.542.554.554,0,0,1-.765.046l-.012-.011a.413.413,0,0,1-.12-.274.421.421,0,0,1,.1-.282.55.55,0,0,1,.763-.033Z" fill="#fff"/>
        <path id="Path_85243" data-name="Path 85243" d="M502.487,254.114a1.529,1.529,0,0,1-.017.593,1.445,1.445,0,0,1-.242.542.424.424,0,0,1-.613.061.44.44,0,0,1-.142-.244,1.537,1.537,0,0,1,.025-.58,1.474,1.474,0,0,1,.229-.534.425.425,0,0,1,.76.162" fill="#fff"/>
        <path id="Path_85244" data-name="Path 85244" d="M501.973,256.262a1.543,1.543,0,0,1-.045.59,1.466,1.466,0,0,1-.264.53.424.424,0,0,1-.615.036.441.441,0,0,1-.132-.25,1.551,1.551,0,0,1,.05-.58,1.494,1.494,0,0,1,.253-.524.43.43,0,0,1,.615-.051.444.444,0,0,1,.138.249" fill="#fff"/>
        <path id="Path_85245" data-name="Path 85245" d="M501.37,258.382a1.552,1.552,0,0,1-.065.588,1.489,1.489,0,0,1-.281.519.426.426,0,0,1-.616.016.443.443,0,0,1-.124-.254,1.608,1.608,0,0,1,.342-1.1.428.428,0,0,1,.615-.028.438.438,0,0,1,.129.254" fill="#fff"/>
        <path id="Path_85246" data-name="Path 85246" d="M500.136,262.09a1.514,1.514,0,0,1-.1.582,1.463,1.463,0,0,1-.3.505.425.425,0,0,1-.616-.013.442.442,0,0,1-.112-.26,1.537,1.537,0,0,1,.1-.576,1.514,1.514,0,0,1,.3-.5.427.427,0,0,1,.616,0,.44.44,0,0,1,.115.26" fill="#fff"/>
        <path id="Path_85247" data-name="Path 85247" d="M499.153,264.689a.612.612,0,0,1-.027.366.594.594,0,0,1-.232.283.49.49,0,0,1-.684-.2.532.532,0,0,1-.037-.093.6.6,0,0,1,.257-.644.489.489,0,0,1,.684.19.5.5,0,0,1,.039.1" fill="#fff"/>
        <path id="Path_85248" data-name="Path 85248" d="M498.24,266.856a.613.613,0,0,1-.038.365.6.6,0,0,1-.242.278.488.488,0,0,1-.676-.221.558.558,0,0,1-.034-.094.6.6,0,0,1,.038-.36.6.6,0,0,1,.237-.274.49.49,0,0,1,.679.209.6.6,0,0,1,.036.1" fill="#fff"/>
        <path id="Path_85249" data-name="Path 85249" d="M491.378,244.973a17.82,17.82,0,0,1,4.492-2.039,6.472,6.472,0,0,1,5.04.373,4.161,4.161,0,0,1,1.672,2.063,8.868,8.868,0,0,1,.518,2.5,19.918,19.918,0,0,1-.441,4.908.389.389,0,1,1-.766-.135,21.925,21.925,0,0,0,.263-4.706c-.123-1.507-.564-3.093-1.766-3.776a5.534,5.534,0,0,0-4.281-.308,19.187,19.187,0,0,0-4.343,1.8.4.4,0,0,1-.538-.146.4.4,0,0,1,.15-.528" fill="#fff"/>
        <path id="Path_85250" data-name="Path 85250" d="M490.767,246.142a1.1,1.1,0,0,1-.348.35,1.161,1.161,0,0,1-.462.172.443.443,0,0,1-.481-.421.461.461,0,0,1,.051-.227,1.057,1.057,0,0,1,.352-.363,1.126,1.126,0,0,1,.476-.17.435.435,0,0,1,.468.432.471.471,0,0,1-.056.227" fill="#fff"/>
        <path id="Path_85251" data-name="Path 85251" d="M489.238,247.15a1.081,1.081,0,0,1-.332.366,1.137,1.137,0,0,1-.455.193.441.441,0,0,1-.5-.4.461.461,0,0,1,.041-.23,1.056,1.056,0,0,1,.335-.376,1.13,1.13,0,0,1,.466-.193.437.437,0,0,1,.488.41.468.468,0,0,1-.045.229" fill="#fff"/>
        <path id="Path_85252" data-name="Path 85252" d="M487.753,248.226c-.466.466-.976.871-1.474,1.293-.516.4-1.017.817-1.573,1.174a.4.4,0,0,1-.552-.109.4.4,0,0,1,.044-.479,13.34,13.34,0,0,1,1.453-1.36,12.9,12.9,0,0,1,1.634-1.14.392.392,0,0,1,.544.147.406.406,0,0,1-.076.474" fill="#fff"/>
        <path id="Path_85253" data-name="Path 85253" d="M483.462,251.8a.446.446,0,0,1-.431.395.527.527,0,0,1-.529-.554v-.016a.457.457,0,0,1,.143-.282.466.466,0,0,1,.293-.118.525.525,0,0,1,.524.556Z" fill="#fff"/>
        <path id="Path_85254" data-name="Path 85254" d="M482.045,253.155a.451.451,0,0,1-.132.282.445.445,0,0,1-.283.126.527.527,0,0,1-.55-.534v-.016a.462.462,0,0,1,.135-.287.469.469,0,0,1,.289-.129.526.526,0,0,1,.542.539Z" fill="#fff"/>
        <path id="Path_85256" data-name="Path 85256" d="M53.266,174.486a2.056,2.056,0,0,1,.152-.76,2.578,2.578,0,0,1,.384-.672.383.383,0,0,1,.636-.021.585.585,0,0,1,.082.32,2.4,2.4,0,0,1-.169.725,3.4,3.4,0,0,1-.348.657c-.189.237-.475.274-.634.071a.541.541,0,0,1-.1-.32" fill="#fff"/>
        <path id="Path_85257" data-name="Path 85257" d="M54.367,171.8a2.3,2.3,0,0,1,.255-.729,2.189,2.189,0,0,1,.461-.619c.244-.2.528-.171.64.061a.529.529,0,0,1,.035.324,2.9,2.9,0,0,1-.256.7,2.768,2.768,0,0,1-.437.6c-.214.212-.5.213-.634-.01a.555.555,0,0,1-.064-.332" fill="#fff"/>
        <path id="Path_85258" data-name="Path 85258" d="M55.8,169.284a2.574,2.574,0,0,1,.33-.7,2.372,2.372,0,0,1,.535-.557c.259-.177.536-.115.624.129a.545.545,0,0,1,0,.33,2.566,2.566,0,0,1-.341.663,2.416,2.416,0,0,1-.5.555c-.247.181-.534.145-.636-.09a.525.525,0,0,1-.017-.332" fill="#fff"/>
        <path id="Path_85259" data-name="Path 85259" d="M58.97,165.255a2.354,2.354,0,0,1,.452-.623,2.161,2.161,0,0,1,.619-.456c.286-.128.55-.02.594.235a.542.542,0,0,1-.055.324,2.9,2.9,0,0,1-.45.6,2.662,2.662,0,0,1-.594.454c-.271.139-.544.052-.6-.2a.551.551,0,0,1,.039-.333" fill="#fff"/>
        <path id="Path_85260" data-name="Path 85260" d="M61.62,162.751a.925.925,0,0,1,.283-.378.98.98,0,0,1,.426-.205.419.419,0,0,1,.514.495.8.8,0,0,1-.03.114.954.954,0,0,1-.278.367,1.021,1.021,0,0,1-.414.2.419.419,0,0,1-.529-.476.631.631,0,0,1,.028-.118" fill="#fff"/>
        <path id="Path_85261" data-name="Path 85261" d="M64.085,160.9a.991.991,0,0,1,.773-.506.418.418,0,0,1,.451.554.7.7,0,0,1-.042.107.962.962,0,0,1-.314.331.981.981,0,0,1-.43.156.42.42,0,0,1-.479-.528.624.624,0,0,1,.041-.114" fill="#fff"/>
        <path id="Path_85262" data-name="Path 85262" d="M59.781,199.836c-.73-.773-1.337-1.651-2.009-2.477-.574-.894-1.165-1.782-1.7-2.7-.472-.952-.977-1.89-1.421-2.855l-1.172-2.964a24.557,24.557,0,0,1-1.262-6.272,19.524,19.524,0,0,1,.644-6.36c.079-.286.31-.464.515-.4a.477.477,0,0,1,.239.586,20.238,20.238,0,0,0-.454,6.112,23.6,23.6,0,0,0,1.261,6.011l1.119,2.9c.424.942.908,1.857,1.359,2.788.509.9,1.065,1.769,1.6,2.655.63.816,1.191,1.691,1.872,2.469a.456.456,0,0,1,.045.639.484.484,0,0,1-.632-.129" fill="#fff"/>
        <path id="Path_85263" data-name="Path 85263" d="M61.277,200.451a2.037,2.037,0,0,1,.505.377,1.723,1.723,0,0,1,.386.5c.125.284.013.555-.26.6a.564.564,0,0,1-.273-.031,1.87,1.87,0,0,1-.553-.354,1.664,1.664,0,0,1-.364-.546c-.11-.305.026-.565.3-.589a.558.558,0,0,1,.264.048" fill="#fff"/>
        <path id="Path_85264" data-name="Path 85264" d="M63,202.082a2.371,2.371,0,0,1,.54.325,1.729,1.729,0,0,1,.427.464c.15.273.062.554-.205.619a.579.579,0,0,1-.274-.006,1.883,1.883,0,0,1-.58-.307,1.48,1.48,0,0,1-.416-.506c-.137-.294-.025-.565.241-.613a.557.557,0,0,1,.267.024" fill="#fff"/>
        <path id="Path_85265" data-name="Path 85265" d="M64.858,203.553l2.185,1.268,2.2,1.235a.442.442,0,0,1,.232.593.471.471,0,0,1-.546.117,13.453,13.453,0,0,1-2.384-1.079,15.465,15.465,0,0,1-2.141-1.5c-.218-.205-.261-.489-.1-.635a.469.469,0,0,1,.551,0" fill="#fff"/>
        <path id="Path_85266" data-name="Path 85266" d="M71.238,206.843a.7.7,0,0,1,.392.008.693.693,0,0,1,.326.217.449.449,0,0,1-.206.739l-.017.006a.746.746,0,0,1-.4-.012.738.738,0,0,1-.339-.221.448.448,0,0,1,.228-.73Z" fill="#fff"/>
        <path id="Path_85267" data-name="Path 85267" d="M73.678,207.486a.712.712,0,0,1,.385-.035.668.668,0,0,1,.346.167.448.448,0,0,1-.092.761l-.017.008a.755.755,0,0,1-.41.046.724.724,0,0,1-.365-.185.448.448,0,0,1,.133-.753Z" fill="#fff"/>
        <path id="Path_85269" data-name="Path 85269" d="M500.67,224.718c-24.48,0-66.518-9.394-107.171-18.479-40.011-8.94-77.8-17.386-101.123-17.752-.593-.009-1.207-.014-1.818-.014-19.178,0-47.42,4.593-77.32,9.456-34.48,5.608-73.56,11.964-103.886,11.965-29.865,0-46.8-6.007-51.761-18.364-7.67-19.091,3.645-25.9,19.306-35.336,12.564-7.567,26.8-16.143,28.574-32.921,1.25-11.854.134-21.464-.763-29.185-1.673-14.407-2.514-21.639,11.385-30.183,5.988-3.682,13.434-5.253,24.9-5.253,4.37,0,8.827.216,13.545.443,4.775.231,9.714.469,14.621.469,11.967,0,27.334-1.293,40.047-11.375,2.474-1.962,4.839-3.875,7.142-5.738,22.16-17.923,38.17-30.873,91.562-37.376a70.07,70.07,0,0,1,8.452-.514c33.912,0,62.734,24.556,85.893,44.287,13.825,11.777,24.743,21.08,34.71,23.681A66.716,66.716,0,0,0,453.838,74.4c6.081,0,12.36-.521,18.433-1.024,6.046-.5,11.757-.976,17.247-.976,12.752,0,20.532,2.684,26.011,8.974,7.528,8.642-4,26.186-14.179,41.665-11.121,16.918-21.625,32.9-14.205,44.252,4.289,6.564,10.339,12.009,16.189,17.273,12.278,11.05,21.977,19.777,15,35.583C517.039,223.1,510.763,224.718,500.67,224.718Z" fill="none" stroke="#fff" stroke-width="0.973"/>
        <path id="Path_85270" data-name="Path 85270" d="M462.293,274.186H149.525a3.855,3.855,0,0,1-3.855-3.855V101.076a3.855,3.855,0,0,1,3.855-3.855H462.293a3.855,3.855,0,0,1,3.855,3.855V270.331a3.855,3.855,0,0,1-3.855,3.855" fill="#764582"/>
        <path id="Path_85271" data-name="Path 85271" d="M456.688,267.506H143.92a3.855,3.855,0,0,1-3.855-3.855V94.4a3.855,3.855,0,0,1,3.855-3.855H456.688a3.855,3.855,0,0,1,3.855,3.855V263.651a3.855,3.855,0,0,1-3.855,3.855" fill="#9d68aa"/>
        <path id="Path_85272" data-name="Path 85272" d="M452.815,260.827H136.584a2.123,2.123,0,0,1-2.123-2.124V85.986a2.123,2.123,0,0,1,2.123-2.124H452.815a2.124,2.124,0,0,1,2.124,2.124V258.7a2.124,2.124,0,0,1-2.124,2.124" fill="#fff"/>
        <path id="Rectangle_7455" data-name="Rectangle 7455" d="M2.124,0H318.355a2.123,2.123,0,0,1,2.123,2.123V174.841a2.124,2.124,0,0,1-2.124,2.124H2.124A2.124,2.124,0,0,1,0,174.841V2.124A2.124,2.124,0,0,1,2.124,0Z" transform="translate(134.461 83.862)" fill="none" stroke="#764582" stroke-width="0.974"/>
        <path id="Path_85273" data-name="Path 85273" d="M152.324,99.029h20.5V97.823h-20.5Zm-4.823.6h2.411V97.221H147.5Zm4.823,6.028h20.5v-1.206h-20.5Zm-4.823.6h2.411v-2.411H147.5Zm4.823,6.028h20.5v-1.206h-20.5Zm-4.823.6h2.411v-2.411H147.5Z" fill="#764582" fill-rule="evenodd"/>
        <path id="Path_85274" data-name="Path 85274" d="M223.408,211.8H162.613A15.112,15.112,0,0,1,147.5,196.687V138.676a15.112,15.112,0,0,1,15.112-15.112h60.795a15.112,15.112,0,0,1,15.112,15.112v58.011A15.112,15.112,0,0,1,223.408,211.8" fill="#fff" fill-rule="evenodd"/>
        <rect id="Rectangle_7456" data-name="Rectangle 7456" width="91.019" height="88.235" rx="15.112" transform="translate(147.501 123.564)" fill="none" stroke="#764582" stroke-width="1.024"/>
        <path id="Path_85275" data-name="Path 85275" d="M325.647,211.8h-60.8a15.112,15.112,0,0,1-15.112-15.112V138.676a15.112,15.112,0,0,1,15.112-15.112h60.8a15.113,15.113,0,0,1,15.112,15.112v58.011A15.113,15.113,0,0,1,325.647,211.8" fill="#fff" fill-rule="evenodd"/>
        <rect id="Rectangle_7457" data-name="Rectangle 7457" width="91.019" height="88.235" rx="15.112" transform="translate(249.74 123.564)" fill="none" stroke="#764582" stroke-width="1.024"/>
        <path id="Path_85276" data-name="Path 85276" d="M427.885,211.8h-60.8a15.112,15.112,0,0,1-15.112-15.112V138.676a15.112,15.112,0,0,1,15.112-15.112h60.8A15.112,15.112,0,0,1,443,138.676v58.011A15.112,15.112,0,0,1,427.885,211.8" fill="#fff" fill-rule="evenodd"/>
        <rect id="Rectangle_7458" data-name="Rectangle 7458" width="91.019" height="88.235" rx="15.112" transform="translate(351.978 123.564)" fill="none" stroke="#764582" stroke-width="1.024"/>
        <path id="Path_85277" data-name="Path 85277" d="M420.724,106.244l-1.53-10.192a.568.568,0,0,0-.562-.487l-2.741-.018.007-1.265,2.743.017a1.828,1.828,0,0,1,1.8,1.565L420.616,97l17.288.109-1.776,8.039Zm.082-7.98.995,6.635,13.294-.948,1.236-5.589Z" fill="#764582"/>
        <path id="Path_85278" data-name="Path 85278" d="M436.362,108.642l-14.941-.086a1.1,1.1,0,0,1-1.077-1.273l.294-1.813,1.249.2-.263,1.619,14.744.085Z" fill="#764582"/>
        <path id="Path_85279" data-name="Path 85279" d="M425.234,111.143a1.706,1.706,0,1,1-1.7-1.716A1.705,1.705,0,0,1,425.234,111.143Z" fill="none" stroke="#764582" stroke-width="1.265"/>
        <path id="Path_85280" data-name="Path 85280" d="M434.184,111.2a1.706,1.706,0,1,1-1.695-1.717A1.705,1.705,0,0,1,434.184,111.2Z" fill="none" stroke="#764582" stroke-width="1.265"/>
        <line id="Line_568" data-name="Line 568" x2="91.457" transform="translate(249.302 217.903)" fill="#fff"/>
        <line id="Line_569" data-name="Line 569" x2="91.457" transform="translate(249.302 217.903)" fill="none" stroke="#764582" stroke-linecap="round" stroke-linejoin="round" stroke-width="1.024"/>
        <g id="Group_41101" data-name="Group 41101" opacity="0.7" style="mix-blend-mode: multiply;isolation: isolate">
          <g id="Group_41100" data-name="Group 41100">
            <g id="Group_41099" data-name="Group 41099" clip-path="url(#clip-path-3)">
              <path id="Path_85281" data-name="Path 85281" d="M330.617,179.545c0,1.248-14.936,2.26-33.359,2.26s-33.359-1.012-33.359-2.26,14.935-2.26,33.359-2.26,33.359,1.012,33.359,2.26" fill="#a1abad"/>
            </g>
          </g>
        </g>
        <path id="Path_85282" data-name="Path 85282" d="M270.7,155.967s.667-1.687,6.508.529c3.168,1.2,7.3,4.106,15.331.6,0,0,2.448,8.123-7.791,7.413a17.041,17.041,0,0,1-14.048-8.545" fill="#dd4026"/>
        <path id="Path_85283" data-name="Path 85283" d="M327.653,169.04l2.371.625c1.347.715,1.276,4.3.165,5.408,0,0-9.578,5.6-37.622,6.073-16.131-.311-26.913-3.069-27.411-4.165a14.451,14.451,0,0,1-.444-5.278l3.041-3.544Z" fill="#e2e2e2"/>
        <path id="Path_85284" data-name="Path 85284" d="M270.7,155.967s-3.161,3.033-3.535,5.531c-.539,3.59-1.145,5.37-.758,9,0,0,9.1,3.546,24.249,3.722a156.291,156.291,0,0,0,26.061-1.765c6.681-1.191,13.3-2.786,13.3-2.786-1.929-6.755-7.766-4.247-16.084-6.88-5.658-1.791-19.13-12.91-19.13-12.91s-3.122,2.317-3.291,3.508c-.107.752,1.379,2.707,1.379,2.707s-.375,6.385-6.747,6.808c-6.2.413-15.448-6.931-15.448-6.931" fill="#fd6141"/>
        <path id="Path_85285" data-name="Path 85285" d="M292.9,156.09a21.224,21.224,0,0,1,4.372.41c2.692.942,10.483,7.159,16.32,7.9" fill="none" stroke="#efe9da" stroke-linecap="round" stroke-width="1.157"/>
        <path id="Path_85286" data-name="Path 85286" d="M302.541,155.853l-2.6,4.2c-.357.5-1.915-.624-1.559-1.12l2.411-4.436c.52-.673,2.27.681,1.75,1.353" fill="#e2e2e2"/>
        <path id="Path_85287" data-name="Path 85287" d="M306.327,158.088l-2.736,4.457c-.333.749-2.082-.029-1.749-.778l2.735-5.033c.52-.672,2.27.681,1.75,1.354" fill="#e2e2e2"/>
        <path id="Path_85288" data-name="Path 85288" d="M310.114,160.323l-2.769,4.479c-.3.633-2.011-.167-1.716-.8l2.735-5.032c.52-.673,2.27.68,1.75,1.353" fill="#e2e2e2"/>
        <path id="Path_85289" data-name="Path 85289" d="M294.634,158.176a1,1,0,0,1,1.983.082l-.786,7.467c0,1.077-1.133,1.077-1.133,0Z" fill="#e2e2e2"/>
        <path id="Path_85290" data-name="Path 85290" d="M287.73,174.281a8.22,8.22,0,0,1,4.107-4.837c3.581-1.689,12.09,1.5,16.8-1.111a49.663,49.663,0,0,0,4.954-3.936" fill="none" stroke="#efe9da" stroke-linecap="round" stroke-width="1.157"/>
        <path id="Path_85291" data-name="Path 85291" d="M268,159.529s5.048,2.262,7.4,5.244c1.057,1.343,2.531,8.567,2.531,8.567" fill="none" stroke="#efe9da" stroke-linecap="round" stroke-width="1.157"/>
        <g id="Group_41104" data-name="Group 41104" opacity="0.7" style="mix-blend-mode: multiply;isolation: isolate">
          <g id="Group_41103" data-name="Group 41103">
            <g id="Group_41102" data-name="Group 41102" clip-path="url(#clip-path-4)">
              <path id="Path_85292" data-name="Path 85292" d="M225.8,179.545c0,1.248-14.935,2.26-33.359,2.26s-33.359-1.012-33.359-2.26,14.935-2.26,33.359-2.26,33.359,1.012,33.359,2.26" fill="#a1abad"/>
            </g>
          </g>
        </g>
        <path id="Path_85293" data-name="Path 85293" d="M165.885,155.967s.667-1.687,6.508.529c3.168,1.2,7.3,4.106,15.331.6,0,0,2.448,8.123-7.791,7.413a17.039,17.039,0,0,1-14.048-8.545" fill="#dd4026"/>
        <path id="Path_85294" data-name="Path 85294" d="M222.835,169.04l2.371.625c1.347.715,1.276,4.3.165,5.408,0,0-9.578,5.6-37.622,6.073-16.132-.311-26.913-3.069-27.411-4.165a14.451,14.451,0,0,1-.444-5.278l3.041-3.544Z" fill="#e2e2e2"/>
        <path id="Path_85295" data-name="Path 85295" d="M165.885,155.967S162.724,159,162.35,161.5c-.539,3.59-1.145,5.37-.758,9,0,0,9.1,3.546,24.249,3.722a156.29,156.29,0,0,0,26.061-1.765c6.681-1.191,13.3-2.786,13.3-2.786-1.929-6.755-7.766-4.247-16.084-6.88-5.658-1.791-19.13-12.91-19.13-12.91s-3.122,2.317-3.291,3.508c-.107.752,1.379,2.707,1.379,2.707s-.375,6.385-6.747,6.808c-6.2.413-15.448-6.931-15.448-6.931" fill="#ffd25a"/>
        <path id="Path_85296" data-name="Path 85296" d="M188.08,156.09a21.224,21.224,0,0,1,4.372.41c2.692.942,10.483,7.159,16.319,7.9" fill="none" stroke="#efe9da" stroke-width="1.157"/>
        <path id="Path_85297" data-name="Path 85297" d="M197.723,155.853l-2.6,4.2c-.357.5-1.916-.624-1.559-1.12l2.411-4.436c.52-.673,2.27.681,1.75,1.353" fill="#e2e2e2"/>
        <path id="Path_85298" data-name="Path 85298" d="M201.509,158.088l-2.736,4.457c-.333.749-2.082-.029-1.749-.778l2.735-5.033c.52-.672,2.27.681,1.75,1.354" fill="#e2e2e2"/>
        <path id="Path_85299" data-name="Path 85299" d="M205.3,160.323l-2.769,4.479c-.295.633-2.011-.167-1.716-.8l2.735-5.032c.52-.673,2.27.68,1.75,1.353" fill="#e2e2e2"/>
        <path id="Path_85300" data-name="Path 85300" d="M189.816,158.176a1,1,0,0,1,1.983.082l-.787,7.467c0,1.077-1.132,1.077-1.132,0Z" fill="#e2e2e2"/>
        <path id="Path_85301" data-name="Path 85301" d="M182.912,174.281a8.221,8.221,0,0,1,4.107-4.837c3.581-1.689,12.09,1.5,16.8-1.111a49.663,49.663,0,0,0,4.954-3.936" fill="none" stroke="#efe9da" stroke-width="1.157"/>
        <path id="Path_85302" data-name="Path 85302" d="M163.178,159.529s5.048,2.262,7.4,5.244c1.057,1.343,2.531,8.567,2.531,8.567" fill="none" stroke="#efe9da" stroke-width="1.157"/>
        <g id="Group_41107" data-name="Group 41107" opacity="0.7" style="mix-blend-mode: multiply;isolation: isolate">
          <g id="Group_41106" data-name="Group 41106">
            <g id="Group_41105" data-name="Group 41105" clip-path="url(#clip-path-5)">
              <path id="Path_85303" data-name="Path 85303" d="M430.641,179.545c0,1.248-14.935,2.26-33.359,2.26s-33.359-1.012-33.359-2.26,14.935-2.26,33.359-2.26,33.359,1.012,33.359,2.26" fill="#a1abad"/>
            </g>
          </g>
        </g>
        <path id="Path_85304" data-name="Path 85304" d="M370.727,155.967s.667-1.687,6.508.529c3.168,1.2,7.3,4.106,15.331.6,0,0,2.448,8.123-7.791,7.413a17.039,17.039,0,0,1-14.048-8.545" fill="#3c8460"/>
        <path id="Path_85305" data-name="Path 85305" d="M427.678,169.04l2.371.625c1.347.715,1.276,4.3.165,5.408,0,0-9.578,5.6-37.622,6.073-16.132-.311-26.913-3.069-27.411-4.165a14.452,14.452,0,0,1-.444-5.278l3.041-3.544Z" fill="#e2e2e2"/>
        <path id="Path_85306" data-name="Path 85306" d="M370.727,155.967s-3.161,3.033-3.535,5.531c-.539,3.59-1.146,5.37-.758,9,0,0,9.1,3.546,24.249,3.722a156.29,156.29,0,0,0,26.061-1.765c6.681-1.191,13.3-2.786,13.3-2.786-1.929-6.755-7.766-4.247-16.084-6.88-5.658-1.791-19.13-12.91-19.13-12.91s-3.122,2.317-3.291,3.508c-.107.752,1.378,2.707,1.378,2.707s-.374,6.385-6.746,6.808c-6.2.413-15.448-6.931-15.448-6.931" fill="#71bf9d"/>
        <path id="Path_85307" data-name="Path 85307" d="M392.922,156.09a21.224,21.224,0,0,1,4.372.41c2.692.942,10.483,7.159,16.32,7.9" fill="none" stroke="#efe9da" stroke-width="1.157"/>
        <path id="Path_85308" data-name="Path 85308" d="M402.565,155.853l-2.6,4.2c-.357.5-1.915-.624-1.559-1.12l2.411-4.436c.52-.673,2.27.681,1.75,1.353" fill="#e2e2e2"/>
        <path id="Path_85309" data-name="Path 85309" d="M406.352,158.088l-2.737,4.457c-.332.749-2.082-.029-1.749-.778l2.736-5.033c.519-.672,2.269.681,1.75,1.354" fill="#e2e2e2"/>
        <path id="Path_85310" data-name="Path 85310" d="M410.138,160.323l-2.769,4.479c-.295.633-2.011-.167-1.716-.8l2.735-5.032c.52-.673,2.27.68,1.75,1.353" fill="#e2e2e2"/>
        <path id="Path_85311" data-name="Path 85311" d="M394.658,158.176a1,1,0,0,1,1.984.082l-.787,7.467c0,1.077-1.132,1.077-1.132,0Z" fill="#e2e2e2"/>
        <path id="Path_85312" data-name="Path 85312" d="M387.754,174.281a8.22,8.22,0,0,1,4.107-4.837c3.581-1.689,12.09,1.5,16.8-1.111a49.664,49.664,0,0,0,4.954-3.936" fill="none" stroke="#efe9da" stroke-width="1.157"/>
        <path id="Path_85313" data-name="Path 85313" d="M368.02,159.529s5.047,2.262,7.4,5.244c1.057,1.343,2.531,8.567,2.531,8.567" fill="none" stroke="#efe9da" stroke-width="1.157"/>
        <path id="Path_85314" data-name="Path 85314" d="M259.59,139.8v.1c0,.518-.128.74-.426.74H256.27c-.3,0-.426-.222-.426-.74v-.1c0-.518.128-.74.426-.74h2.894c.3,0,.426.222.426.74" fill="#764582"/>
        <path id="Path_85315" data-name="Path 85315" d="M266.306,135.792c0,2.057-1.136,2.487-2.129,2.487s-2.129-.43-2.129-2.487,1.136-2.486,2.129-2.486,2.129.429,2.129,2.486m-2.81,0c0,.578.128,1.273.681,1.273s.668-.7.668-1.273-.115-1.213-.668-1.213-.681.636-.681,1.213m6.769-2.19a.6.6,0,0,1-.071.207l-5.066,9.59a.665.665,0,0,1-.625.414h-.624c-.2,0-.3-.088-.3-.192a.565.565,0,0,1,.071-.222l5.066-9.59a.665.665,0,0,1,.625-.414h.624c.2,0,.3.089.3.207m1.533,7.814c0,2.057-1.136,2.486-2.129,2.486s-2.129-.429-2.129-2.486,1.136-2.487,2.129-2.487,2.129.43,2.129,2.487m-2.81,0c0,.577.128,1.273.681,1.273s.667-.7.667-1.273-.114-1.213-.667-1.213-.681.636-.681,1.213" fill="#764582"/>
        <path id="Path_85316" data-name="Path 85316" d="M320.281,188.169v.976c1.391.025,3.855.586,3.855,1.391,0,.366-.537,1.293-.781,1.293a8.232,8.232,0,0,0-3.074-.927v5.685c2.172.781,4.66,1.66,4.66,5.027,0,2.782-1.805,4.539-4.66,4.782v1.22c0,.269-.146.391-.488.391s-.488-.122-.488-.391v-1.195c-2.757-.073-4.831-1.122-4.831-1.781,0-.391.585-1.318.854-1.318a8.776,8.776,0,0,0,3.977,1.342v-6.295c-2.147-.83-4.514-1.684-4.514-4.832,0-2.391,1.757-4.05,4.514-4.343v-1.025c0-.268.146-.39.488-.39s.488.122.488.39m-3.27,5.466c0,1.391,1,2.05,2.294,2.586v-5.246a2.523,2.523,0,0,0-2.294,2.66m3.27,10.956a2.9,2.9,0,0,0,2.44-2.977c0-1.537-1.1-2.269-2.44-2.855Z" fill="#fd6141"/>
        <path id="Path_85317" data-name="Path 85317" d="M309.293,207.21H270.274a3.933,3.933,0,0,1-3.933-3.934v-.583a3.933,3.933,0,0,1,3.933-3.933h39.019a3.934,3.934,0,0,1,3.934,3.933v.583a3.934,3.934,0,0,1-3.934,3.934" fill="#fd6141"/>
        <g id="Group_41110" data-name="Group 41110" opacity="0.2">
          <g id="Group_41109" data-name="Group 41109">
            <g id="Group_41108" data-name="Group 41108" clip-path="url(#clip-path-6)">
              <path id="Path_85318" data-name="Path 85318" d="M594.294,390.652H2.337A2.332,2.332,0,0,1,.881,386.5l88.654-70.817a10.963,10.963,0,0,1,6.831-2.355h403.9a10.963,10.963,0,0,1,6.831,2.355L595.749,386.5a2.331,2.331,0,0,1-1.455,4.153" fill="#764582"/>
            </g>
          </g>
        </g>
        <path id="Path_85319" data-name="Path 85319" d="M592.026,361.7H4.6l91.087-72.76a10.639,10.639,0,0,1,6.629-2.285H494.31a10.637,10.637,0,0,1,6.629,2.285Z" fill="#e4bce8"/>
        <path id="Path_85320" data-name="Path 85320" d="M533.8,355.189H62.834l66.306-62.031H467.489Z" fill="#9d68aa"/>
        <path id="Path_85321" data-name="Path 85321" d="M528.02,355.189H68.61l64.68-59.369H463.34Z" fill="#fff"/>
        <path id="Path_85322" data-name="Path 85322" d="M577.709,381.216H18.92A14.316,14.316,0,0,1,4.6,366.9v-5.2H592.025v5.2a14.316,14.316,0,0,1-14.316,14.316" fill="#9d68aa"/>
        <line id="Line_570" data-name="Line 570" x2="587.422" transform="translate(4.604 369.287)" fill="none" stroke="#fff" stroke-width="0.973"/>
        <path id="Path_85323" data-name="Path 85323" d="M202,374.994H121.649a4.778,4.778,0,0,1-4.778-4.777v-.708a4.778,4.778,0,0,1,4.778-4.777H202a4.777,4.777,0,0,1,4.777,4.777v.708A4.777,4.777,0,0,1,202,374.994" fill="#764582"/>
        <path id="Path_85324" data-name="Path 85324" d="M202.537,374.994H121.111a4.24,4.24,0,0,1-4.24-4.24v-.629a4.24,4.24,0,0,1,4.24-4.24h81.426a4.24,4.24,0,0,1,4.241,4.24v.629a4.241,4.241,0,0,1-4.241,4.24" fill="#e4bce8"/>
        <path id="Path_85325" data-name="Path 85325" d="M490.338,304.554l33.384,29.517H541.6v-2.35L490.338,302.2Z" fill="#9d68aa"/>
        <path id="Path_85326" data-name="Path 85326" d="M490.338,302.2l33.384,29.517H541.6l-37.1-29.517Z" fill="#fdeeff"/>
        <path id="Path_85327" data-name="Path 85327" d="M96.7,316.3c0,3.377-6.288,6.114-14.045,6.114S68.61,319.672,68.61,316.3s6.288-6.114,14.044-6.114S96.7,312.918,96.7,316.3" fill="#fff"/>
        <path id="Path_85328" data-name="Path 85328" d="M92.49,315.841c0,2.114-4.4,3.828-9.836,3.828s-9.835-1.714-9.835-3.828,4.4-3.828,9.835-3.828,9.836,1.714,9.836,3.828" fill="#764582"/>
        <path id="Path_85329" data-name="Path 85329" d="M83.82,314.975c0,.729-1.518,1.319-3.39,1.319s-3.391-.59-3.391-1.319,1.518-1.32,3.391-1.32,3.39.591,3.39,1.32" fill="#fff"/>
        <path id="Path_85330" data-name="Path 85330" d="M475.711,68.392H152.131A13.382,13.382,0,0,1,138.749,55.01V53.027a13.382,13.382,0,0,1,13.382-13.382h323.58a13.382,13.382,0,0,1,13.382,13.382V55.01a13.382,13.382,0,0,1-13.382,13.382" fill="#e4bce8"/>
        <path id="Path_85331" data-name="Path 85331" d="M100.484,54.019A14.374,14.374,0,1,1,86.11,39.645a14.374,14.374,0,0,1,14.374,14.374" fill="#e4bce8"/>
        <path id="Path_85332" data-name="Path 85332" d="M133.99,54.019a14.374,14.374,0,1,1-14.374-14.374A14.374,14.374,0,0,1,133.99,54.019" fill="#e4bce8"/>
        <path id="Path_85333" data-name="Path 85333" d="M509.019,38.923l4.749,10.153,11.124,1.38L516.7,58.11l2.125,11.006-9.81-5.423-9.81,5.423,2.125-11.006-8.188-7.654,11.124-1.38Z" fill="#e4bce8"/>
        <path id="Path_85334" data-name="Path 85334" d="M475.711,63.42H152.131a13.382,13.382,0,0,1-13.382-13.382V48.055a13.382,13.382,0,0,1,13.382-13.382h323.58a13.382,13.382,0,0,1,13.382,13.382v1.983A13.382,13.382,0,0,1,475.711,63.42" fill="#fff"/>
        <rect id="Rectangle_7463" data-name="Rectangle 7463" width="350.344" height="28.747" rx="13.382" transform="translate(138.749 34.673)" fill="none" stroke="#764582" stroke-width="0.974"/>
        <path id="Path_85335" data-name="Path 85335" d="M223.31,43.752v.534c1.272.047,2.5.518,2.5,1.005,0,.36-.424,1.177-.723,1.177A5.478,5.478,0,0,0,223.31,46v2.858c1.351.549,2.983,1.177,2.983,3.266a3.1,3.1,0,0,1-2.983,3.328v.722c0,.283-.126.393-.376.393-.3,0-.425-.11-.425-.393v-.706c-2.025-.063-3.265-.8-3.265-1.288,0-.408.549-1.209.816-1.209a6.418,6.418,0,0,0,2.449.786V50.629c-1.381-.518-3.046-1.115-3.046-3.282,0-1.868,1.367-2.857,3.046-3.046v-.549c0-.283.126-.393.393-.393.282,0,.408.11.408.393m-1.852,3.485c0,.613.439.974,1.051,1.272V46.076a1.162,1.162,0,0,0-1.051,1.161m1.852,6.391a1.326,1.326,0,0,0,1.005-1.319,1.473,1.473,0,0,0-1.005-1.319Z" fill="#a1abad"/>
        <path id="Path_85336" data-name="Path 85336" d="M231.114,51.132v.125c0,.472-.126.66-.409.66h-3.124c-.282,0-.408-.188-.408-.66v-.125c0-.471.126-.675.408-.675h3.124c.283,0,.409.2.409.675" fill="#a1abad"/>
        <path id="Path_85337" data-name="Path 85337" d="M237.018,46.861c0,2.151-1.24,2.606-2.293,2.606s-2.276-.455-2.276-2.606,1.209-2.606,2.276-2.606,2.293.455,2.293,2.606m-3.172,0c0,.66.126,1.476.879,1.476s.895-.816.895-1.476-.109-1.444-.895-1.444c-.753,0-.879.785-.879,1.444m7.521-2.355a.439.439,0,0,1-.078.189l-5.7,10.331a.687.687,0,0,1-.66.393h-.47c-.22,0-.346-.079-.346-.189a.488.488,0,0,1,.079-.2l5.684-10.331a.712.712,0,0,1,.674-.378h.472c.219,0,.345.079.345.189m1.649,8.353c0,2.167-1.24,2.607-2.293,2.607s-2.276-.44-2.276-2.607c0-2.151,1.209-2.606,2.276-2.606s2.293.455,2.293,2.606m-3.172,0c0,.66.126,1.476.879,1.476s.895-.816.895-1.476c0-.643-.109-1.444-.895-1.444-.753,0-.879.8-.879,1.444" fill="#a1abad"/>
        <path id="Path_85338" data-name="Path 85338" d="M209.169,56.564h-28.2a6.6,6.6,0,1,1,0-13.2h28.2a6.6,6.6,0,0,1,0,13.2" fill="#a1abad"/>
        <path id="Path_85339" data-name="Path 85339" d="M100.484,49.046A14.374,14.374,0,1,1,86.11,34.673a14.374,14.374,0,0,1,14.374,14.373" fill="#fff"/>
        <path id="Path_85340" data-name="Path 85340" d="M100.484,49.046A14.374,14.374,0,1,1,86.11,34.673,14.374,14.374,0,0,1,100.484,49.046Z" fill="none" stroke="#764582" stroke-width="0.974"/>
        <path id="Path_85341" data-name="Path 85341" d="M133.99,49.046a14.374,14.374,0,1,1-14.374-14.373A14.374,14.374,0,0,1,133.99,49.046" fill="#fff"/>
        <path id="Path_85342" data-name="Path 85342" d="M133.99,49.046a14.374,14.374,0,1,1-14.374-14.373A14.374,14.374,0,0,1,133.99,49.046Z" fill="none" stroke="#764582" stroke-width="0.974"/>
        <path id="Path_85343" data-name="Path 85343" d="M509.019,33.95,513.768,44.1l11.124,1.38L516.7,53.137l2.125,11.006-9.81-5.423-9.81,5.423,2.125-11.006-8.188-7.654L504.27,44.1Z" fill="#ffcc5a"/>
        <path id="Path_85344" data-name="Path 85344" d="M509.019,33.95,513.768,44.1l11.124,1.38L516.7,53.137l2.125,11.006-9.81-5.423-9.81,5.423,2.125-11.006-8.188-7.654L504.27,44.1Z" fill="none" stroke="#764582" stroke-width="0.974"/>
        <path id="Path_85345" data-name="Path 85345" d="M87.89,40.287l-9.1,9.009,9.1,9.183,1.733-1.732L82.259,49.3l7.364-7.276Z" fill="#764582"/>
        <path id="Path_85346" data-name="Path 85346" d="M118.314,58.479l9.1-9.009-9.1-9.183-1.733,1.732,7.364,7.451-7.364,7.276Z" fill="#764582"/>
        <path id="Path_85347" data-name="Path 85347" d="M168.286,57.3l-5.8-5.729a7.383,7.383,0,0,0,1.242-4.112,7.6,7.6,0,0,0-12.916-5.327,7.408,7.408,0,0,0-2.194,5.279,7.6,7.6,0,0,0,7.579,7.5h.031a7.588,7.588,0,0,0,4.154-1.247l5.793,5.726Zm-6.81-9.842a5.176,5.176,0,0,1-1.534,3.689,5.324,5.324,0,0,1-3.72,1.523H156.2a5.334,5.334,0,0,1-5.322-5.257,5.18,5.18,0,0,1,1.534-3.69,5.334,5.334,0,0,1,9.064,3.735" fill="#764582"/>
        <path id="Path_85348" data-name="Path 85348" d="M469.626,49.383l-3.259,3.277a1,1,0,0,0,0,1.4.984.984,0,0,0,1.4,0l3.259-3.277,3.259,3.277a.984.984,0,0,0,1.4,0,1,1,0,0,0,0-1.4l-3.259-3.277,3.259-3.278a1,1,0,0,0,0-1.4.984.984,0,0,0-1.4,0l-3.259,3.277L467.764,44.7a.984.984,0,0,0-1.4,0,1,1,0,0,0,0,1.4Zm1.4,10.593a10.594,10.594,0,1,1,10.536-10.593,10.565,10.565,0,0,1-10.536,10.593" fill="#9d68aa" fill-rule="evenodd"/>
        <path id="Path_85349" data-name="Path 85349" d="M107.251,115.93a19.446,19.446,0,1,0-38.892,0c0,4.465-1.34,7.385,19.446,44.7,20.871-37.485,19.428-42.4,19.446-44.7" fill="#fd6141"/>
        <path id="Path_85350" data-name="Path 85350" d="M87.8,124.984a8.592,8.592,0,1,1,8.592-8.592,8.592,8.592,0,0,1-8.592,8.592" fill="#fff"/>
        <g id="Group_41113" data-name="Group 41113" opacity="0.2">
          <g id="Group_41112" data-name="Group 41112">
            <g id="Group_41111" data-name="Group 41111" clip-path="url(#clip-path-7)">
              <path id="Path_85351" data-name="Path 85351" d="M243.891,315.456,236,329.122c-1.6,2.775.583,6.12,4,6.12h77.584c3.086,0,5.268-2.778,4.3-5.474L316.964,316.1a4.511,4.511,0,0,0-4.3-2.857H247.889a4.6,4.6,0,0,0-4,2.211" fill="#764582"/>
            </g>
          </g>
        </g>
        <path id="Path_85352" data-name="Path 85352" d="M259.776,311.658a6.892,6.892,0,1,1-6.891-6.892,6.891,6.891,0,0,1,6.891,6.892" fill="#764582"/>
        <path id="Path_85353" data-name="Path 85353" d="M257.029,311.658a4.144,4.144,0,1,1-4.144-4.144,4.144,4.144,0,0,1,4.144,4.144" fill="#3e2344"/>
        <path id="Path_85354" data-name="Path 85354" d="M250.16,310.9l2.363-6.232a.861.861,0,0,1,.8-.555h8.218a.86.86,0,0,1,.631,1.444l-7.4,7.987a2.322,2.322,0,0,1-2.425.629l-.74-.242a2.323,2.323,0,0,1-1.45-3.031" fill="#ffdcae"/>
        <path id="Path_85355" data-name="Path 85355" d="M254.472,311.658a1.587,1.587,0,1,1-1.587-1.587,1.588,1.588,0,0,1,1.587,1.587" fill="#764582"/>
        <path id="Path_85356" data-name="Path 85356" d="M299.694,311.658a6.891,6.891,0,1,0,6.891-6.892,6.891,6.891,0,0,0-6.891,6.892" fill="#764582"/>
        <path id="Path_85357" data-name="Path 85357" d="M302.441,311.658a4.144,4.144,0,1,0,4.144-4.144,4.144,4.144,0,0,0-4.144,4.144" fill="#3e2344"/>
        <path id="Path_85358" data-name="Path 85358" d="M309.31,310.9l-2.363-6.232a.861.861,0,0,0-.8-.555h-8.218a.86.86,0,0,0-.631,1.444l7.4,7.987a2.322,2.322,0,0,0,2.425.629l.74-.242a2.323,2.323,0,0,0,1.45-3.031" fill="#ffdcae"/>
        <path id="Path_85359" data-name="Path 85359" d="M305,311.658a1.587,1.587,0,1,0,1.587-1.587A1.588,1.588,0,0,0,305,311.658" fill="#764582"/>
        <path id="Path_85360" data-name="Path 85360" d="M234.86,247.631a1.019,1.019,0,0,1-.938-.616c-2.336-5.407-6.227-14.219-6.925-15.322-1.044-.759-8.909-3.56-16.034-5.872a1.021,1.021,0,0,1,0-1.942l12.659-4.1a1.036,1.036,0,0,1,.584-.014c1.21.33,11.9,3.289,14.194,5.426,1.825,1.7,7.21,12.926,8.271,15.159a1.021,1.021,0,0,1-1.845.876c-2.391-5.035-6.628-13.434-7.816-14.539-1.422-1.322-8.629-3.65-13.049-4.871l-9.388,3.042c6.538,2.17,13.3,4.594,14.023,5.561.849,1.13,6.146,13.35,7.2,15.788a1.021,1.021,0,0,1-.936,1.426" fill="#fd6141"/>
        <path id="Path_85361" data-name="Path 85361" d="M232.093,242.46l11.524-7.156,88.865,4.349,2.038,5.571Z" fill="#fff"/>
        <path id="Path_85362" data-name="Path 85362" d="M232.093,242.46l11.524-7.156,88.865,4.349,2.038,5.571Z" fill="none" stroke="#fd6141" stroke-linecap="round" stroke-linejoin="round" stroke-width="1.854"/>
        <path id="Path_85363" data-name="Path 85363" d="M231.252,242.642,244.7,287a3.073,3.073,0,0,0,3.035,2.18l74.388-2.3a3.073,3.073,0,0,0,2.892-2.349l9.505-39.3Z" fill="#fd6141"/>
        <path id="Path_85364" data-name="Path 85364" d="M251.254,261.2c4.806,10,15.439,12.017,25.562,11.515,21.733-1.077,40.722-9.563,53.45-27.592l-79.131-1.978c-1.169-.017-1.744,7.575-1.8,8.56a19.369,19.369,0,0,0,1.921,9.5" fill="#ff8976"/>
        <path id="Path_85365" data-name="Path 85365" d="M321.943,311.464a28.947,28.947,0,0,0-4.134-9.108c-.7-.954-1.856-2.049-4.556-2.049h-61.6c-.97,0-2.707-.16-3.443-1.237-.69-1.011-.295-2.606.158-3.767a70.233,70.233,0,0,1,3.453-7.628l-2.407.2a55.6,55.6,0,0,0-2.949,6.684c-.918,2.354-.9,4.259.059,5.661s2.725,2.127,5.129,2.127h3.3v1.382a1.552,1.552,0,0,0,1.552,1.552h1.179a1.552,1.552,0,0,0,1.553-1.552v-1.382h40.729v1.382a1.552,1.552,0,0,0,1.552,1.552h1.18a1.552,1.552,0,0,0,1.552-1.552v-1.382h9c1.859,0,2.477.629,2.911,1.218a27.1,27.1,0,0,1,3.8,8.392,1.9,1.9,0,0,1-.148,1.637,3.417,3.417,0,0,1-2.385.827c-14.273.32-45.056.145-61.594.05-4.916-.029-8.64-.05-10.414-.05-2.507,0-4.374-.718-5.255-2.021-.849-1.255-.825-3.1.069-5.327,1.97-4.906,7.757-19.519,7.757-19.519l-1.9-.751s-5.785,14.606-7.752,19.51c-1.464,3.648-.736,5.947.134,7.231,1.273,1.882,3.74,2.919,6.946,2.919,1.164,0,3.179.01,5.807.024v1.336a1.552,1.552,0,0,0,1.553,1.552h1.179a1.552,1.552,0,0,0,1.552-1.552v-1l.3-.309c9.425.055,23.472.135,36.465.135,3.527,0,6.973-.006,10.23-.02v1.2a1.552,1.552,0,0,0,1.553,1.552h1.179a1.552,1.552,0,0,0,1.552-1.552v-1.22c4.079-.029,7.732-.074,10.679-.14a5.144,5.144,0,0,0,3.963-1.631,3.8,3.8,0,0,0,.5-3.37" fill="#fd6141"/>
        <path id="Path_85366" data-name="Path 85366" d="M331.542,244.394l-9.219,38.021a2.409,2.409,0,0,1-2.261,1.836l-34.735,1.074q4.041-4.365,8.018-8.789c.2-.218.258-.488.137-.614s-.4-.058-.618.165q-4.29,4.428-8.506,8.925l-.006.005a1.176,1.176,0,0,0-.218.345l-30.665.949q4.291-4.632,8.516-9.325c.2-.229.275-.507.154-.633s-.411-.05-.636.183q-4.488,4.643-8.9,9.352l-.005.006a1.228,1.228,0,0,0-.27.452l-2.772.086a2.41,2.41,0,0,1-2.373-1.7l-6.121-20.183q2.373-2.573,4.678-5.21a.33.33,0,0,0-.482-.449q-2.283,2.295-4.5,4.65l-6.575-21.68-.977.3,13,42.871a3.429,3.429,0,0,0,3.276,2.429h.106l70.51-2.181a3.433,3.433,0,0,0,3.222-2.616l9.219-38.021Z" fill="#fff"/>
        <path id="Path_85367" data-name="Path 85367" d="M246.544,258.488a4.2,4.2,0,0,0,.715-.618,4.14,4.14,0,0,0,.567-.758.375.375,0,0,0-.528-.493,4.4,4.4,0,0,0-1.284,1.376.371.371,0,0,0,.017.372.374.374,0,0,0,.513.121" fill="#fff"/>
        <path id="Path_85368" data-name="Path 85368" d="M248.439,256.455a.384.384,0,0,0,.249-.118.379.379,0,0,0,.1-.256v-.01a.512.512,0,0,0-.529-.483.383.383,0,0,0-.249.117.393.393,0,0,0-.1.257v.013a.51.51,0,0,0,.528.48" fill="#fff"/>
        <path id="Path_85369" data-name="Path 85369" d="M256.939,247.321q3.111-3.165,6.15-6.4l0,0a.464.464,0,0,0-.68-.63q-3.014,3.258-5.954,6.582a.33.33,0,0,0,.482.449" fill="#fff"/>
        <path id="Path_85370" data-name="Path 85370" d="M255.869,248.515a.373.373,0,0,0,.349-.374v-.013a.511.511,0,0,0-.529-.48.371.371,0,0,0-.349.374v.01a.511.511,0,0,0,.528.483" fill="#fff"/>
        <path id="Path_85371" data-name="Path 85371" d="M254.74,249.726a.373.373,0,0,0,.349-.374v-.013a.511.511,0,0,0-.529-.48.371.371,0,0,0-.349.374v.01a.511.511,0,0,0,.528.483" fill="#fff"/>
        <path id="Path_85372" data-name="Path 85372" d="M253.612,250.937a.384.384,0,0,0,.249-.118.379.379,0,0,0,.1-.256v-.013a.511.511,0,0,0-.529-.48.371.371,0,0,0-.349.374v.01a.511.511,0,0,0,.528.483" fill="#fff"/>
        <path id="Path_85373" data-name="Path 85373" d="M249.738,255.091a21.094,21.094,0,0,0,2.829-3.034.365.365,0,0,0-.529-.493,21.233,21.233,0,0,0-2.829,3.034.365.365,0,0,0,.529.493" fill="#fff"/>
        <path id="Path_85374" data-name="Path 85374" d="M262.783,275.478c.081.205.375.19.656-.034a13.484,13.484,0,0,0,1.236-1.176,13.218,13.218,0,0,0,1.087-1.315.616.616,0,0,0,.128-.526c-.081-.205-.376-.191-.657.033a14.228,14.228,0,0,0-2.322,2.491.609.609,0,0,0-.128.527" fill="#fff"/>
        <path id="Path_85375" data-name="Path 85375" d="M266.871,271.763a1.1,1.1,0,0,0,.632-.678l0-.014c.091-.391-.147-.606-.533-.479a1.105,1.105,0,0,0-.632.678l0,.018c-.091.39.148.6.533.475" fill="#fff"/>
        <path id="Path_85376" data-name="Path 85376" d="M282.27,255.232q5.562-5.8,11.056-11.66l0-.005c.311-.334.409-.745.221-.919s-.593-.043-.9.292q-5.466,5.888-10.86,11.843c-.207.23-.278.511-.155.637s.412.046.638-.188" fill="#fff"/>
        <path id="Path_85377" data-name="Path 85377" d="M280.314,257.376a1.1,1.1,0,0,0,.631-.678l.006-.018c.089-.39-.15-.6-.534-.475a1.1,1.1,0,0,0-.633.678l0,.014c-.092.391.146.606.533.479" fill="#fff"/>
        <path id="Path_85378" data-name="Path 85378" d="M278.27,259.568a1.1,1.1,0,0,0,.631-.678l.005-.018c.09-.39-.148-.6-.533-.475a1.071,1.071,0,0,0-.391.269,1.06,1.06,0,0,0-.242.409l0,.014c-.092.391.146.606.533.479" fill="#fff"/>
        <path id="Path_85379" data-name="Path 85379" d="M276.226,261.76a1.1,1.1,0,0,0,.632-.678l.005-.018c.09-.39-.149-.6-.534-.475a1.105,1.105,0,0,0-.632.678l0,.014c-.092.391.146.606.532.479" fill="#fff"/>
        <path id="Path_85380" data-name="Path 85380" d="M269.211,269.283c.916-.857,1.773-1.77,2.636-2.677.844-.924,1.694-1.843,2.486-2.816.183-.225.253-.488.154-.631-.117-.168-.423-.106-.683.138-.915.858-1.773,1.77-2.635,2.677-.845.924-1.7,1.843-2.487,2.816-.183.225-.253.488-.153.631.116.167.422.106.682-.138" fill="#fff"/>
        <path id="Path_85381" data-name="Path 85381" d="M294.735,275.064a12.974,12.974,0,0,0,2.217-2.378.583.583,0,0,0,.114-.511c-.084-.2-.372-.194-.642.018a12.176,12.176,0,0,0-1.184,1.119,12.428,12.428,0,0,0-1.034,1.259.587.587,0,0,0-.114.511c.085.2.373.194.643-.018" fill="#fff"/>
        <path id="Path_85382" data-name="Path 85382" d="M298.012,271.55a.974.974,0,0,0,.375-.254.989.989,0,0,0,.228-.393l0-.014c.081-.38-.157-.594-.532-.479a.97.97,0,0,0-.376.254.99.99,0,0,0-.228.393l0,.017c-.079.379.159.592.534.476" fill="#fff"/>
        <path id="Path_85383" data-name="Path 85383" d="M312.714,255.765q5.316-5.53,10.561-11.129l0,0c.3-.32.384-.719.2-.893s-.581-.055-.877.265q-5.218,5.622-10.365,11.312c-.2.219-.261.492-.137.618s.4.054.619-.169" fill="#fff"/>
        <path id="Path_85384" data-name="Path 85384" d="M310.847,257.813a.981.981,0,0,0,.377-.254,1,1,0,0,0,.227-.393l0-.018c.079-.378-.159-.591-.533-.475a1.015,1.015,0,0,0-.6.647l0,.014c-.081.379.157.594.532.479" fill="#fff"/>
        <path id="Path_85385" data-name="Path 85385" d="M308.9,259.906a.982.982,0,0,0,.377-.254,1,1,0,0,0,.227-.393l0-.018c.079-.378-.159-.591-.533-.475a1.015,1.015,0,0,0-.6.647l0,.014c-.081.379.157.594.532.479" fill="#fff"/>
        <path id="Path_85386" data-name="Path 85386" d="M306.944,262a.97.97,0,0,0,.376-.254.99.99,0,0,0,.228-.393l0-.018c.079-.378-.159-.591-.533-.475a1.015,1.015,0,0,0-.6.647l0,.014c-.081.379.157.594.532.479" fill="#fff"/>
        <path id="Path_85387" data-name="Path 85387" d="M300.247,269.182c.877-.816,1.7-1.687,2.52-2.553.806-.882,1.617-1.76,2.371-2.692a.556.556,0,0,0,.136-.612c-.118-.166-.416-.113-.665.119-.877.817-1.7,1.687-2.52,2.553-.806.882-1.618,1.76-2.371,2.692a.558.558,0,0,0-.136.612c.118.166.416.113.665-.119" fill="#fff"/>
        <path id="Path_85388" data-name="Path 85388" d="M258.264,314.487l3.623-12.82h38.406l2.093,12.82Z" fill="#ff8976"/>
        <path id="Path_85389" data-name="Path 85389" d="M256.377,327.145a8.1,8.1,0,1,1-8.1-8.1,8.1,8.1,0,0,1,8.1,8.1" fill="#764582"/>
        <path id="Path_85390" data-name="Path 85390" d="M253.149,327.145a4.868,4.868,0,1,1-4.869-4.869,4.869,4.869,0,0,1,4.869,4.869" fill="#3e2344"/>
        <path id="Path_85391" data-name="Path 85391" d="M245.079,326.259l2.776-7.323a1.011,1.011,0,0,1,.945-.652h9.656a1.01,1.01,0,0,1,.74,1.7l-8.694,9.384a2.728,2.728,0,0,1-2.85.739l-.869-.284a2.729,2.729,0,0,1-1.7-3.561" fill="#ffdcae"/>
        <path id="Path_85392" data-name="Path 85392" d="M250.145,327.145a1.865,1.865,0,1,1-1.866-1.865,1.866,1.866,0,0,1,1.866,1.865" fill="#764582"/>
        <path id="Path_85393" data-name="Path 85393" d="M302.042,327.145a8.1,8.1,0,1,0,8.1-8.1,8.1,8.1,0,0,0-8.1,8.1" fill="#764582"/>
        <path id="Path_85394" data-name="Path 85394" d="M305.27,327.145a4.869,4.869,0,1,0,4.869-4.869,4.869,4.869,0,0,0-4.869,4.869" fill="#3e2344"/>
        <path id="Path_85395" data-name="Path 85395" d="M313.34,326.259l-2.776-7.323a1.011,1.011,0,0,0-.945-.652h-9.656a1.01,1.01,0,0,0-.741,1.7l8.7,9.384a2.728,2.728,0,0,0,2.85.739l.869-.284a2.729,2.729,0,0,0,1.7-3.561" fill="#ffdcae"/>
        <path id="Path_85396" data-name="Path 85396" d="M308.274,327.145a1.865,1.865,0,1,0,1.865-1.865,1.865,1.865,0,0,0-1.865,1.865" fill="#764582"/>
        <path id="Path_85397" data-name="Path 85397" d="M349.744,241.613a18.321,18.321,0,1,1-18.321-18.321,18.322,18.322,0,0,1,18.321,18.321" fill="#ffd25a"/>
        <path id="Path_85398" data-name="Path 85398" d="M334.824,231.854v16.162h3.071c.6,0,.862.43.862,1.435v.488c0,1-.259,1.435-.862,1.435H326.758c-.6,0-.861-.431-.861-1.435v-.488c0-1.005.258-1.435.861-1.435h3.817v-12.89l-3.9.574c-.747,0-.919-1.607-.919-2.411a.787.787,0,0,1,.746-.8l7.148-1.32c.46,0,1.177.344,1.177.689" fill="#764582"/>
        <path id="Path_85399" data-name="Path 85399" d="M258.023,227.819v14.432l34.082.888v-16.8Z" fill="#ffbe57"/>
        <path id="Path_85400" data-name="Path 85400" d="M292.105,226.341v16.8l16.243.52V229.278Z" fill="#f99441"/>
        <path id="Path_85401" data-name="Path 85401" d="M257.029,225.088l35.869-1.463v4.691l-35.869,1.492Z" fill="#ffd25a"/>
        <path id="Path_85402" data-name="Path 85402" d="M292.9,228.316l16.631,2.849v-4.448L292.9,223.625Z" fill="#ffbe57"/>
        <g id="Group_41116" data-name="Group 41116" opacity="0.2">
          <g id="Group_41115" data-name="Group 41115">
            <g id="Group_41114" data-name="Group 41114" clip-path="url(#clip-path-8)">
              <path id="Path_85403" data-name="Path 85403" d="M228.535,327.009c0,1.566-22.068,2.836-49.29,2.836s-49.291-1.27-49.291-2.836,22.068-2.836,49.291-2.836,49.29,1.27,49.29,2.836" fill="#764582"/>
            </g>
          </g>
        </g>
        <path id="Path_85404" data-name="Path 85404" d="M203.046,294.47c.8,7.923,7.455,19.515,10.04,25.981.761,1.9,4.366.84,3.959-1.17-1.388-6.847-2.341-20.715-2.975-27.788-.747-8.328-11.782-4.564-11.024,2.977" fill="#ffb072"/>
        <path id="Path_85405" data-name="Path 85405" d="M213.185,320.421a7.361,7.361,0,0,0,.542,5.11c-.237.107-.058,1.084.371,1.291.5.244,4.158.184,4.9-.395a.788.788,0,0,0-.025-.656s.915.347,3.514-.144a13.214,13.214,0,0,0,5-1.883c.307-.194.094-.887-.25-.776,0,0-.223-1.8-1.732-1.706a11.343,11.343,0,0,1-6.89-2.014,5.689,5.689,0,0,0-2.056-.894,3.5,3.5,0,0,0-3.376,2.067" fill="#ed0c37"/>
      </g>
    </g>
    <g id="Group_41120" data-name="Group 41120">
      <g id="Group_41119" data-name="Group 41119" clip-path="url(#clip-path-9)">
        <path id="Path_85406" data-name="Path 85406" d="M213.727,325.532a29.117,29.117,0,0,0,5.257-.082s5.922-.1,8.254-2.481a2.774,2.774,0,0,1,4.349.155l-9.693,7.719-6.332-.495-2.827-2.387s-.234-2.57.992-2.429" fill="#ffaec1"/>
        <path id="Path_85407" data-name="Path 85407" d="M212.719,320.594a2.451,2.451,0,0,0,2.593,1.111c1.743-.369,1.92-1.44,1.525-3.3s-5.949-.633-4.118,2.193" fill="#ffb072"/>
      </g>
    </g>
    <g id="Group_41122" data-name="Group 41122">
      <g id="Group_41121" data-name="Group 41121" clip-path="url(#clip-path)">
        <path id="Path_85409" data-name="Path 85409" d="M177.127,237.771s11.388,20.487,15.151,28.86,8.522,29.051,8.522,29.051,9.365,1.97,14.271-2.424c0,0-1.572-21.816-4.244-31.615S198,227.794,198,227.794c-4.078-8.634-24.951,1.342-20.873,9.977" fill="#552f5e"/>
        <path id="Path_85410" data-name="Path 85410" d="M186.444,253.8a38.634,38.634,0,0,1,3.217-7.773c2.007-3.514,6.855-6.271,7.387-5.843.915.736-6.318,6.107-7.718,9.985,0,0,8.051-5.857,8.61-5.084.524.721-8.329,5.552-11.5,8.715" fill="#3e2344"/>
        <path id="Path_85411" data-name="Path 85411" d="M185.243,187.272c1.88,8.66,4.8,20.2,11.223,25.831s20.381,8.759,21.045,8.759c1.554.358,3.219-7.844,1.987-8.792s-12.208-5.38-14.156-7.26c-3.483-3.359-2-23.817-5.943-28.28s-16.347-.351-14.156,9.742" fill="#dd4026"/>
        <path id="Path_85412" data-name="Path 85412" d="M220.322,214.548s4.892,4.065,5.183,5.172a5.336,5.336,0,0,1-.228,3.394c-.4.463-3.389,1.96-4.531,1.176a20.049,20.049,0,0,1-2.715-2.572l.541-2s-.369,1.371-3.332-.488,2.267-7.491,5.082-4.682" fill="#f29353"/>
        <path id="Path_85413" data-name="Path 85413" d="M152.148,288.589c-5.9,5.347-11.27,17.59-14.936,23.51-1.08,1.744,1.918,4.011,3.293,2.49,4.684-5.184,15.273-14.189,20.586-18.9,6.256-5.547-3.327-12.188-8.943-7.1" fill="#ffb072"/>
        <path id="Path_85414" data-name="Path 85414" d="M137.872,311.5a7.358,7.358,0,0,0-3.989,3.241c-.219-.141-.939.541-.879,1.013.07.557,2.112,3.587,3,3.893a.789.789,0,0,0,.537-.378s.207.956,2.035,2.867a13.211,13.211,0,0,0,4.306,3.167c.33.151.795-.4.514-.633,0,0,1.39-1.17.486-2.382a11.344,11.344,0,0,1-2.067-6.874,5.706,5.706,0,0,0-.372-2.211,3.5,3.5,0,0,0-3.573-1.7" fill="#ed0c37"/>
      </g>
    </g>
    <g id="Group_41124" data-name="Group 41124">
      <g id="Group_41123" data-name="Group 41123" clip-path="url(#clip-path-11)">
        <path id="Path_85415" data-name="Path 85415" d="M133.884,314.743a29.093,29.093,0,0,0,2.935,4.362s3.315,4.909,6.579,5.568a2.774,2.774,0,0,1,2.241,3.73l-11.755-3.919-3.036-5.577.458-3.672s2.028-1.6,2.578-.492" fill="#ffaec1"/>
        <path id="Path_85416" data-name="Path 85416" d="M137.474,311.206a2.45,2.45,0,0,0,.482,2.779c1.26,1.26,2.254.825,3.6-.522s-2.712-5.333-4.083-2.257" fill="#ffb072"/>
      </g>
    </g>
    <g id="Group_41138" data-name="Group 41138">
      <g id="Group_41137" data-name="Group 41137" clip-path="url(#clip-path)">
        <path id="Path_85418" data-name="Path 85418" d="M165.066,230.085s1.578,30.041-1.794,37.908-12.133,20.674-12.133,20.674a13.484,13.484,0,0,0,11.287,8.524s13.4-9.435,18.652-23.725,9.662-30.017,7.534-41.669c-1.2-6.545-21.854-11.284-23.546-1.712" fill="#764582"/>
        <path id="Path_85419" data-name="Path 85419" d="M168.981,229.809s.191,25.015-.977,34.693c-1.133,9.394-15.569,26.68-15.569,26.68" fill="none" stroke="#fff" stroke-width="0.499"/>
        <path id="Path_85420" data-name="Path 85420" d="M198.7,178.215c2.313,4.6-1.815,22.082-1.815,29.717a124.333,124.333,0,0,0,1.94,20.509,2.437,2.437,0,0,1-1.146,2.659,30.047,30.047,0,0,1-11.261,3.487c-11.308,1.088-16.77-.893-19.339-1.867a3.133,3.133,0,0,1-2-3.4c.569-3.818,2.181-13.158.8-21.75-1.806-11.243-4.75-26.536.524-31.256s15.153-7.658,15.153-7.658,14.282,3.876,17.14,9.562" fill="#fff"/>
        <path id="Path_85421" data-name="Path 85421" d="M183.942,163.867s-2.536-.423-6.015-4.745c-2.28-2.834-5.452-15.652,4.6-17.592s13.015,4.856,13.474,9.3-4.528,8.106-6.786,9.709-5.276,3.328-5.276,3.328" fill="#3e2344"/>
        <path id="Path_85422" data-name="Path 85422" d="M181.492,158.7a29.6,29.6,0,0,1-1.452,6.912,11.082,11.082,0,0,1-3.823,5.247c-1.447,1.287,5.777,8.96,12.208,10.906,0,0,4.665-5.682,2.526-8.849s-3.833-3.446-3.067-7.675c.667-3.686,1.066-5.73,1.066-5.73Z" fill="#ffb072"/>
        <path id="Path_85423" data-name="Path 85423" d="M181.492,158.7s-.324,2.87.833,4.1,3.227,4.2,7.949,3.856c6.306-.461,3.857-10.469,3.857-10.469a22.2,22.2,0,0,0,0-7.012c-.659-3.163-6.9-4.819-11.987-3.271,0,0-1.46,1.39-.9,7.6a1.9,1.9,0,0,0-2.413-.325c-1.12.61-1.238,2.055-.858,3.416.456,1.632,2.159,3.039,3.52,2.1" fill="#ffb072" fill-rule="evenodd"/>
        <path id="Path_85424" data-name="Path 85424" d="M180.966,158.1l-.555-1.477.947-.393s-.615-2.761-2.154-1.743c-1.265.836.182,4.174,1.762,3.613" fill="#e57e55"/>
        <path id="Path_85425" data-name="Path 85425" d="M181.636,155.9a39.38,39.38,0,0,0-.527,5.614c.093,1.732,1.8,7.124,9.7,6.643,7.843-.478,5.034-8.978,3.705-9.561a2.337,2.337,0,0,1-.782,1.875,2.091,2.091,0,0,0-2.529-1.089c-1.123-.635-2.411-.24-3.766.567l-.976.684a4.985,4.985,0,0,1-4.013-4.628Z" fill="#3e2344"/>
        <path id="Path_85426" data-name="Path 85426" d="M188.428,160.783s4.146,0,4.245.282-.493.845-2.123.845a2.22,2.22,0,0,1-2.122-1.127" fill="#fff"/>
        <path id="Path_85427" data-name="Path 85427" d="M188.312,160.708c.179-.1.216-.047.406-.052,1.007.05,2.191.064,3.193.163.378.042,1.187.078.686.616a3.394,3.394,0,0,1-2.261.556,2.435,2.435,0,0,1-2.014-1.112.17.17,0,0,1-.01-.171m.231.151c.047-.027.009-.154.016-.12a1.058,1.058,0,0,0,.052.1c.761,1.248,2.8,1.236,3.892.5.373-.368-.28-.306-.606-.367-1.049-.077-2.272-.086-3.325-.058-.034-.022-.15.059-.029-.058" fill="#e57e55"/>
        <path id="Path_85428" data-name="Path 85428" d="M188.969,155.662c-.029.35-.489.375-1.049.328s-1.01-.148-.981-.5.508-.6,1.068-.549.991.369.962.719" fill="#3e2344"/>
        <path id="Path_85429" data-name="Path 85429" d="M185.257,153.99a19.6,19.6,0,0,1,2.107-.5,12.7,12.7,0,0,0,2.6.126,2.748,2.748,0,0,0,.29-.834,20.9,20.9,0,0,0-3.171-.119,3.624,3.624,0,0,0-1.829,1.327" fill="#3e2344"/>
        <path id="Path_85430" data-name="Path 85430" d="M194.107,156.092c-.029.35-.489.375-1.049.328s-1.01-.148-.981-.5.508-.6,1.068-.549.991.369.962.719" fill="#3e2344"/>
        <path id="Path_85431" data-name="Path 85431" d="M194.822,154.79c0,.054-.692-.834-1.04-.9s-2.02.076-2.1-.132a3.823,3.823,0,0,1-.079-.865,14.137,14.137,0,0,1,2.582.38,2.424,2.424,0,0,1,.641,1.516" fill="#3e2344"/>
        <g id="Group_41127" data-name="Group 41127" opacity="0.5">
          <g id="Group_41126" data-name="Group 41126">
            <g id="Group_41125" data-name="Group 41125" clip-path="url(#clip-path-13)">
              <path id="Path_85432" data-name="Path 85432" d="M191.221,159.083s-1.3-.043-1.266-.4,2.742-.745,2.891-.49-1.043.726-1.625.888" fill="#e57e55"/>
            </g>
          </g>
        </g>
        <path id="Path_85433" data-name="Path 85433" d="M191.445,153.694a6.535,6.535,0,0,0-.185,2.208c.2.585,1.384,1.9,1.41,2.182s-1.348.959-1.448,1,1.956-.275,1.9-.913-1.59-2.242-1.645-2.555-.028-1.921-.028-1.921" fill="#e57e55"/>
        <path id="Path_85434" data-name="Path 85434" d="M182.2,156.38c.4-.272,1.064-2.616.361-4.871a2.809,2.809,0,0,1,2.087-3.637c1.286-.14,5.456,1.043,7.105.841,3.615-.444,6.415-1.511,6.41-2.179s-2.652.025-2.652.025,4.03-1.027,3.665-4.4a16.526,16.526,0,0,1-5.736-.705c-2.706-.927-9.184-2-12.63.556-2.255,1.674-3.856,7.132-.869,9.907,1.361,1.265,1.488,4.983,2.259,4.462" fill="#3e2344"/>
        <g id="Group_41130" data-name="Group 41130" opacity="0.7" style="mix-blend-mode: multiply;isolation: isolate">
          <g id="Group_41129" data-name="Group 41129">
            <g id="Group_41128" data-name="Group 41128" clip-path="url(#clip-path-14)">
              <path id="Path_85435" data-name="Path 85435" d="M191.6,178.291s-1.722,34.208-1.343,37.428-.247,15.582,7.562,17.96c0,0-3.49-17.845-3-28.566s-3.223-26.822-3.223-26.822" fill="#a1abad" fill-rule="evenodd"/>
            </g>
          </g>
        </g>
        <path id="Path_85436" data-name="Path 85436" d="M189.1,170.548a87.267,87.267,0,0,1,3.173,24.677c-.187,13.964-.754,42.609,9.581,41.944,0,0-4.356-17.6-4.09-23.99s3.726-29.888,2.455-33.914c-1.842-5.831-11.119-8.717-11.119-8.717" fill="#fd6141"/>
        <path id="Path_85437" data-name="Path 85437" d="M177.244,170.044s6.968,10.9,9.2,29.382c1.064,8.809-.13,22.769-1.459,31.683-1.531,10.262-21.619,10.245-22.908,7.555s4.465-19.736,2.672-29.421-2.853-25.5-.711-30.7,13.205-8.5,13.205-8.5" fill="#fd6141"/>
        <path id="Path_85438" data-name="Path 85438" d="M167.167,188.561s3.419,16.488,2.982,25.216-3.217,26.361-3.217,26.361" fill="none" stroke="#fff" stroke-linecap="round" stroke-linejoin="round" stroke-width="0.499"/>
        <path id="Path_85439" data-name="Path 85439" d="M164.76,179.869a16.384,16.384,0,0,0-.909,4.312c1.883,14.381,9.972,30.5,22.4,36.284.41-4.671.657-9.6.589-14.028-8.323-8.29-14.688-19.067-19.56-29.689a8.425,8.425,0,0,0-2.515,3.121" fill="#dd4026"/>
        <path id="Path_85440" data-name="Path 85440" d="M213.416,217.419s6.193,1.449,6.948,2.309,2.022,3.8,1.872,4.4-3.426,1.886-4.8,1.7a10.58,10.58,0,0,1-2.865-.964c.205-.73.149-1.386-.611-1.622-.8-.25-1.658.184-3.059.814-3.19,1.436-1.262-7.883,2.512-6.629" fill="#ffb072"/>
        <path id="Path_85441" data-name="Path 85441" d="M163.758,187.445c1.665,9.228,13.467,22.994,18.518,27.327,4.427,3.8,26.288,10.245,27.252,10.3,2.24.476,5.09-7.587,3.35-8.628s-21.225-10.008-23.336-12.353S179.694,180.9,174.2,176.141s-12.32.887-10.44,11.3" fill="#ff8976"/>
        <path id="Path_85442" data-name="Path 85442" d="M519.4,172.6c8.959-12.913,18.2-10.111,21.6-4.668s.945,13.527-6.126,20.212c-5.073,5.083-15.229,8.625-23.386,10.566-5.707-6.143-12.187-14.728-13.584-21.772-2.17-9.485.28-17.57,6.126-20.212s15.089.16,15.372,15.874" fill="#fd6141" fill-rule="evenodd"/>
        <g id="Group_41133" data-name="Group 41133" opacity="0.5">
          <g id="Group_41132" data-name="Group 41132">
            <g id="Group_41131" data-name="Group 41131" clip-path="url(#clip-path-15)">
              <path id="Path_85443" data-name="Path 85443" d="M541,167.936c-2.9-4.648-10.064-7.361-17.674-.016,6.481-5.11,15.772-5.207,16.585,4.139.853,9.814-7.013,16.521-16.071,14.807-11.888-2.249-8.965-12.218-14.613-17.1-4.417-3.715-9.655,1.9-9.889,6.5a27.414,27.414,0,0,0,.468,6.161c2.678,5.679,7.4,11.668,11.682,16.281,8.157-1.942,18.313-5.484,23.386-10.567,7.072-6.684,9.522-14.769,6.126-20.212" fill="#dd4026" fill-rule="evenodd"/>
            </g>
          </g>
        </g>
        <g id="Group_41136" data-name="Group 41136" opacity="0.2">
          <g id="Group_41135" data-name="Group 41135">
            <g id="Group_41134" data-name="Group 41134" clip-path="url(#clip-path-16)">
              <path id="Path_85444" data-name="Path 85444" d="M459.08,326.018c0,1.566-22.068,2.836-49.29,2.836s-49.291-1.27-49.291-2.836,22.068-2.836,49.291-2.836,49.29,1.27,49.29,2.836" fill="#764582"/>
            </g>
          </g>
        </g>
        <path id="Path_85445" data-name="Path 85445" d="M418.866,314.916a28.1,28.1,0,0,1,2.388,2.3c.339.5,1.656,4.222,1.656,4.222a3.17,3.17,0,0,1-2.058,1.422l-1.658-2.134s-.849,3.731-1.7,4.942c-1.035,1.464-6.971,3.153-7.858,2.709,0,0-1.091-2.175.769-3.368,3.435-2.2,3.519-6.821,3.519-6.821a3.233,3.233,0,0,1,4.947-3.271" fill="#fd6141"/>
      </g>
    </g>
    <g id="Group_41140" data-name="Group 41140">
      <g id="Group_41139" data-name="Group 41139" clip-path="url(#clip-path-17)">
        <path id="Path_85446" data-name="Path 85446" d="M408.932,328.047c.1-.055,7.6-1.063,8.48-3.273.693-1.729,1.152-4.645,1.554-4.986s2.288-2.574,2.288-2.574l3,5.219-11.277,9.49Z" fill="#dd4026"/>
      </g>
    </g>
    <g id="Group_41145" data-name="Group 41145">
      <g id="Group_41144" data-name="Group 41144" clip-path="url(#clip-path)">
        <path id="Path_85448" data-name="Path 85448" d="M412.526,323.065l1.022.218a3.478,3.478,0,0,0,.66-1.893l-1-.35a.352.352,0,0,0-.446.211l-.5,1.35a.352.352,0,0,0,.258.464" fill="#f7b614"/>
        <path id="Path_85449" data-name="Path 85449" d="M405.7,211.59c-.025-.358-9.507,41.867-9.167,53.22.211,7.073,13.434,39.623,17.381,53.376.756,2.639,4.861-.457,4.539-3.2-1.547-13.167-1.45-20.093-7.262-48.706-.905-4.456,15.086-44.4,13.821-53.754s-14.317-14.45-19.312-.94" fill="#ffb072"/>
        <g id="Group_41143" data-name="Group 41143" opacity="0.5" style="mix-blend-mode: multiply;isolation: isolate">
          <g id="Group_41142" data-name="Group 41142">
            <g id="Group_41141" data-name="Group 41141" clip-path="url(#clip-path-19)">
              <path id="Path_85450" data-name="Path 85450" d="M425.017,212.53c-1.265-9.357-14.317-14.45-19.312-.94-.023-.34-8.606,37.857-9.148,51.35,4.264-3.236,9.933-1.531,14.836,1.046,1.887-9.742,14.765-43.021,13.624-51.456" fill="#ffbe57"/>
            </g>
          </g>
        </g>
        <path id="Path_85451" data-name="Path 85451" d="M432.491,317.662a28.137,28.137,0,0,1,1.415,3c.139.589.047,4.536.047,4.536a3.171,3.171,0,0,1-2.429.6l-.791-2.584a10.785,10.785,0,0,1-2.453,3.351c-1.487,1-6.788,2.227-7.678,1.79,0,0-1.223-2.365.743-3.373,4.924-2.526,5.359-6.015,5.359-6.015a3.234,3.234,0,0,1,5.787-1.3" fill="#fd6141"/>
      </g>
    </g>
    <g id="Group_41147" data-name="Group 41147">
      <g id="Group_41146" data-name="Group 41146" clip-path="url(#clip-path-20)">
        <path id="Path_85452" data-name="Path 85452" d="M420,328.112c.118-.014,6.174-.591,7.631-1.753s2.729-3.932,3.225-4.108,3.054-1.593,3.054-1.593l.946,5.943-13.914,4.862Z" fill="#dd4026"/>
      </g>
    </g>
    <g id="Group_41161" data-name="Group 41161">
      <g id="Group_41160" data-name="Group 41160" clip-path="url(#clip-path)">
        <path id="Path_85454" data-name="Path 85454" d="M423.91,323.388l.879.567a3.469,3.469,0,0,0,1.289-1.535l-.809-.682a.351.351,0,0,0-.491.039l-.943,1.086a.351.351,0,0,0,.075.525" fill="#f7b614"/>
        <path id="Path_85455" data-name="Path 85455" d="M415.068,214.314c-.074,3.675.49,42.878,3.886,53.609,2.115,6.686,6.556,38.782,8.061,49.748.549,4,4.89,4,5.2.179,1.172-14.2,5.763-33.953.551-51.307-1.3-4.335,4.733-49.091.994-57.615s-18.422-8.2-18.7,5.386" fill="#ffb072"/>
        <g id="Group_41150" data-name="Group 41150" opacity="0.5" style="mix-blend-mode: multiply;isolation: isolate">
          <g id="Group_41149" data-name="Group 41149">
            <g id="Group_41148" data-name="Group 41148" clip-path="url(#clip-path-22)">
              <path id="Path_85456" data-name="Path 85456" d="M432.587,263.638c.12-11.072,4.5-47.149,1.178-54.711-3.739-8.524-18.421-8.2-18.7,5.386-.069,3.383.406,36.857,3.131,50.528,4.24-2.395,9.6-2.594,14.387-1.2" fill="#ffbe57"/>
            </g>
          </g>
        </g>
        <path id="Path_85457" data-name="Path 85457" d="M406.126,207l-.421,3.853s-6.895,17.48-9.866,45.854c7.354-2.041,21.243,4.755,41.843,1.863,0,0,8.148-36.336-6.027-52.5s-24.783-7.625-25.529.93" fill="#fd6141"/>
        <path id="Path_85458" data-name="Path 85458" d="M406.151,210.7s-.549,5.44,8.866,6.4,18.751-5.84,18.516-7.84-27.382,1.44-27.382,1.44" fill="#dd4026"/>
        <path id="Path_85459" data-name="Path 85459" d="M429.389,208.007s10.78,17.935,4.148,49.939" fill="none" stroke="#fff" stroke-linecap="round" stroke-width="0.499"/>
        <path id="Path_85460" data-name="Path 85460" d="M367.808,196.736a35.8,35.8,0,0,0-4.655-.055,23.489,23.489,0,0,0-2.689,1.179c-1.078.542-.027,1.316.791,1.245a13.933,13.933,0,0,1,2.066-.236,3.816,3.816,0,0,1,.7.179,16.517,16.517,0,0,1-3.567,2.136c-.766.295-1.46.5-2.569.854-.495.159-.414.812.15.917a6.8,6.8,0,0,0,2.972-.376c.477-.181.959-.38,1.4-.585a10.373,10.373,0,0,1-1.523.875c-.728.331-1.46.466-2.523.857-.488.18-.356.748.213.829a5.688,5.688,0,0,0,.807.042c-.2.259-.059.664.392.723a5.479,5.479,0,0,0,1.205-.1.472.472,0,0,0,.428.275c3.974.012,6.345-2.157,8.522-2.663,3.468-3.5.469-5.6-2.121-6.1" fill="#ffb072"/>
        <path id="Path_85461" data-name="Path 85461" d="M414.036,168.417c-2.7-1.532-7.311-2.036-10.944,3.139s-5.235,17.353-9.088,21.473c-2.3,2.456-23.153,3.167-24.637,3.911-.966.485-.389,5.126-.073,5.987.663,1.8,23.242,2.767,29.385.346s21.156-31.566,15.357-34.856" fill="#552f5e"/>
        <path id="Path_85462" data-name="Path 85462" d="M405.3,145.365c.166-1.888.156-5.028,2.407-7.752s11.026-5.454,15.624-2.27c5.653,3.915,3.807,7.58,10.855,10.423s4.916,6,2.9,9.217-1.306,3.753,1.953,7.129,7.58,11.787,0,16.584-23.995,1.658-30.571-4.679,1.185-10.51-.641-14.287-3.968-2.945-3.968-6.958c0-3.076,1.183-4.5,1.439-7.407" fill="#3e2344"/>
        <path id="Path_85463" data-name="Path 85463" d="M419.526,163.924s-14.952,2.493-15.451,7.056c-.209,1.912,2.4,5.768,1.724,7.727-.983,2.863-2.55,4.524.34,11.322,2.336,5.494-1.674,16.867-1.552,18.221.455,5.061,8.48,5.987,11.772,5.908,4.693-.113,18.189-3.132,18.189-6.089,0-2.563-6.25-8.071-6.856-12.465s10.828-22,8.559-25.836c-4.394-7.424-16.725-5.844-16.725-5.844" fill="#764582"/>
        <path id="Path_85464" data-name="Path 85464" d="M433.871,211.068a35.815,35.815,0,0,0-4.448,1.371,23.417,23.417,0,0,0-2.2,1.945c-.861.845.377,1.261,1.133.943a13.952,13.952,0,0,1,1.9-.856,3.8,3.8,0,0,1,.723-.044,16.456,16.456,0,0,1-2.742,3.124c-.64.516-1.238.921-2.185,1.6-.423.3-.146.9.423.827a6.793,6.793,0,0,0,2.714-1.267c.4-.318.8-.655,1.154-.984a10.44,10.44,0,0,1-1.183,1.3c-.591.538-1.248.891-2.14,1.588-.409.32-.11.821.456.724a5.734,5.734,0,0,0,.782-.207c-.112.308.147.651.594.568a5.351,5.351,0,0,0,1.117-.461.505.505,0,0,0,.492.131c2.355-.54,6.386-3.922,7.3-5.142,2.231-4.393-1.266-5.477-3.884-5.157" fill="#ffb072"/>
        <path id="Path_85465" data-name="Path 85465" d="M430.606,166.091c-2.416,1.951-4.575,6.055-1.092,11.333s13.4,10.767,15.823,15.862c1.443,3.038-11.957,16.069-11.983,17.729s2.522,5.707,3.5,6.18c1.728.838,20.553-17.434,20.553-24.036s-21.611-31.256-26.8-27.068" fill="#764582"/>
        <path id="Path_85466" data-name="Path 85466" d="M421.806,152.391a29.6,29.6,0,0,0,1.452,6.912,11.089,11.089,0,0,0,3.823,5.247c1.447,1.287-5.777,8.96-12.208,10.906,0,0-4.665-5.682-2.526-8.849s3.833-3.446,3.067-7.675c-.667-3.686-1.066-5.73-1.066-5.73Z" fill="#ffb072"/>
        <path id="Path_85467" data-name="Path 85467" d="M411.869,154.357c0,1.816-.746,3.294-1.663,3.294s-1.663-1.478-1.663-3.294a4.463,4.463,0,0,1,.851-2.857c.156-.2-.043-.355-.2-.154a4.69,4.69,0,0,0-.9,3.011c0,1.987.841,3.543,1.913,3.543s1.912-1.556,1.912-3.543a4.815,4.815,0,0,0-.534-2.477c-.041.047-.144.13-.189.18a5.075,5.075,0,0,1,.474,2.3" fill="#fff"/>
        <path id="Path_85468" data-name="Path 85468" d="M421.806,152.391s-1.042,7.9-8.463,7.338c-3.725-.28-5.631-7.927-4.176-9.849a22.2,22.2,0,0,1,0-7.013c.659-3.162,6.9-4.819,11.987-3.271,0,0,1.46,1.39.9,7.6a1.9,1.9,0,0,1,2.413-.324c1.12.609,1.238,2.054.858,3.415-.456,1.632-2.159,3.039-3.52,2.1" fill="#ffb072" fill-rule="evenodd"/>
        <path id="Path_85469" data-name="Path 85469" d="M422.332,151.791l.555-1.477-.947-.393s.615-2.761,2.154-1.743c1.265.836-.182,4.174-1.762,3.613" fill="#e57e55"/>
        <path id="Path_85470" data-name="Path 85470" d="M424.7,154.357c0,1.816-.746,3.294-1.663,3.294s-1.663-1.478-1.663-3.294a4.463,4.463,0,0,1,.851-2.857c.156-.2-.043-.355-.2-.154a4.69,4.69,0,0,0-.9,3.011c0,1.987.841,3.543,1.913,3.543s1.912-1.556,1.912-3.543a4.815,4.815,0,0,0-.534-2.477c-.041.047-.144.13-.189.18a5.088,5.088,0,0,1,.474,2.3" fill="#fff"/>
        <path id="Path_85471" data-name="Path 85471" d="M411.386,154.8s.5-1.232,4.4-.829c-.443,2.061-4.088,3.076-4.4.829" fill="#fd6141"/>
        <g id="Group_41153" data-name="Group 41153" style="mix-blend-mode: multiply;isolation: isolate">
          <g id="Group_41152" data-name="Group 41152">
            <g id="Group_41151" data-name="Group 41151" clip-path="url(#clip-path-23)">
              <path id="Path_85472" data-name="Path 85472" d="M411.386,154.8a13.115,13.115,0,0,0,4.4-.829" fill="#e57e55"/>
              <path id="Path_85473" data-name="Path 85473" d="M411.386,154.8a34.636,34.636,0,0,0,4.4-.829,7.887,7.887,0,0,1-4.4.829" fill="#e57e55"/>
            </g>
          </g>
        </g>
        <path id="Path_85474" data-name="Path 85474" d="M409.191,149.78c.029.35.489.375,1.049.328s1.01-.148.981-.5-.508-.6-1.068-.549-.991.369-.962.719" fill="#3e2344"/>
        <path id="Path_85475" data-name="Path 85475" d="M408.027,148.321c-.017.051,1.3-1.123,1.654-1.1s1.668.508,1.8.326a2.808,2.808,0,0,0,.258-.581,10.335,10.335,0,0,0-2.24-.226,4.044,4.044,0,0,0-1.471,1.585" fill="#3e2344"/>
        <path id="Path_85476" data-name="Path 85476" d="M414.328,149.35c.029.35.489.375,1.049.328s1.01-.148.981-.5-.508-.6-1.068-.549-.991.369-.962.719" fill="#3e2344"/>
        <path id="Path_85477" data-name="Path 85477" d="M417.657,147.12a9.18,9.18,0,0,0-2.185-.568c-.44.113-1.856.828-2.044.681a2.316,2.316,0,0,1-.4-.513,15.687,15.687,0,0,1,2.573-.681,4.01,4.01,0,0,1,2.055,1.081" fill="#3e2344"/>
        <g id="Group_41156" data-name="Group 41156" opacity="0.5">
          <g id="Group_41155" data-name="Group 41155">
            <g id="Group_41154" data-name="Group 41154" clip-path="url(#clip-path-24)">
              <path id="Path_85478" data-name="Path 85478" d="M412.076,152.772s1.3-.043,1.266-.4-2.742-.745-2.891-.489,1.043.725,1.625.887" fill="#e57e55"/>
            </g>
          </g>
        </g>
        <path id="Path_85479" data-name="Path 85479" d="M411.853,147.383a6.534,6.534,0,0,1,.185,2.208c-.2.585-1.384,1.9-1.41,2.181s1.348.96,1.449,1-1.957-.275-1.9-.913,1.589-2.242,1.644-2.555.028-1.921.028-1.921" fill="#e57e55"/>
        <path id="Path_85480" data-name="Path 85480" d="M419.526,140.166c-6.183.654-8.927,6.475-13.456,6.479-2.8-4.87,5.763-17.233,15.869-7.636,4.634,4.4.455,7.774.455,7.774l-1.032,3.557s.09-2.671-.86-3.695a5.818,5.818,0,0,1-.976-6.479" fill="#3e2344"/>
        <g id="Group_41159" data-name="Group 41159" opacity="0.3">
          <g id="Group_41158" data-name="Group 41158">
            <g id="Group_41157" data-name="Group 41157" clip-path="url(#clip-path-25)">
              <path id="Path_85481" data-name="Path 85481" d="M379.069,107.384,315.527,91.745l-8.036-1.977a5.833,5.833,0,0,0-7.058,4.27l-6.312,25.647-.359,1.461-2.887,11.729a5.833,5.833,0,0,0,4.27,7.058l70.439,17.336a5.833,5.833,0,0,0,7.058-4.27l.843-3.425,2.4-9.765,3.5-14.238,3.089-12.548a4.661,4.661,0,0,0-3.412-5.639" fill="#764582"/>
            </g>
          </g>
        </g>
        <path id="Path_85482" data-name="Path 85482" d="M364.448,154.947l-70.439-17.336a5.833,5.833,0,0,1-4.27-7.058L299.3,91.716a5.833,5.833,0,0,1,7.058-4.27l70.439,17.336a5.832,5.832,0,0,1,4.27,7.058l-9.558,38.837a5.833,5.833,0,0,1-7.058,4.27" fill="#ffbe57"/>
        <path id="Path_85483" data-name="Path 85483" d="M304.134,101.438c-2.4,6.392-1.6,15.18,4.794,18.376,22.892,13.638,47.268,12.429,69.328,3.435l3.088-12.548a4.66,4.66,0,0,0-3.412-5.639L314.391,89.424c-4.76,2.7-8.185,7.351-10.257,12.014" fill="#ffd25a"/>
        <rect id="Rectangle_7479" data-name="Rectangle 7479" width="10.056" height="84.207" transform="matrix(0.239, -0.971, 0.971, 0.239, 290.582, 127.128)" fill="#764582"/>
        <path id="Path_85484" data-name="Path 85484" d="M328.44,103.878,303.732,97.8a2.34,2.34,0,0,1-1.713-2.832l.082-.337a2.34,2.34,0,0,1,2.832-1.713L329.642,99a2.34,2.34,0,0,1,1.713,2.832l-.083.337a2.34,2.34,0,0,1-2.832,1.713" fill="#764582"/>
        <path id="Path_85485" data-name="Path 85485" d="M350.1,114.388,301.394,102.4a1.17,1.17,0,0,1-.857-1.416l.041-.169a1.172,1.172,0,0,1,1.416-.857L350.7,111.947a1.171,1.171,0,0,1,.857,1.416l-.042.168a1.17,1.17,0,0,1-1.416.857" fill="#764582"/>
        <path id="Path_85486" data-name="Path 85486" d="M340.12,123.652l-1.588-.391a1.644,1.644,0,0,1-1.2-1.991l.058-.237a1.645,1.645,0,0,1,1.991-1.2l1.588.39a1.646,1.646,0,0,1,1.2,1.992l-.058.236a1.645,1.645,0,0,1-1.991,1.205" fill="#fff"/>
        <path id="Path_85487" data-name="Path 85487" d="M346.208,125.15l-1.588-.391a1.645,1.645,0,0,1-1.2-1.991l.058-.237a1.645,1.645,0,0,1,1.991-1.2l1.588.39a1.647,1.647,0,0,1,1.2,1.992l-.059.236a1.645,1.645,0,0,1-1.991,1.205" fill="#fff"/>
        <path id="Path_85488" data-name="Path 85488" d="M352.3,126.649l-1.589-.391a1.647,1.647,0,0,1-1.2-1.991l.059-.237a1.645,1.645,0,0,1,1.99-1.205l1.588.391a1.646,1.646,0,0,1,1.205,1.992l-.058.236a1.646,1.646,0,0,1-1.991,1.205" fill="#fff"/>
        <path id="Path_85489" data-name="Path 85489" d="M366.685,108.636a5.478,5.478,0,1,0-1.8,7.328,5.46,5.46,0,0,1,1.8-7.328" fill="#fd6141"/>
        <path id="Path_85490" data-name="Path 85490" d="M370.942,107.928a5.455,5.455,0,0,0-4.257.708,5.463,5.463,0,0,1-1.8,7.328,5.476,5.476,0,1,0,6.061-8.036" fill="#fd6141"/>
      </g>
    </g>
  </g>
</svg>
