<svg xmlns="http://www.w3.org/2000/svg" xmlns:xlink="http://www.w3.org/1999/xlink" width="556.958" height="349.192" viewBox="0 0 556.958 349.192">
  <defs>
    <clipPath id="clip-path">
      <rect id="Rectangle_4774" data-name="Rectangle 4774" width="36.911" height="146.334" fill="#728338"/>
    </clipPath>
    <clipPath id="clip-path-2">
      <rect id="Rectangle_4775" data-name="Rectangle 4775" width="76.317" height="137.822" fill="#728338"/>
    </clipPath>
    <clipPath id="clip-path-3">
      <rect id="Rectangle_4776" data-name="Rectangle 4776" width="67.956" height="23.912" fill="#728338"/>
    </clipPath>
    <clipPath id="clip-path-4">
      <rect id="Rectangle_4777" data-name="Rectangle 4777" width="27.01" height="23.912" fill="#728338"/>
    </clipPath>
    <clipPath id="clip-path-5">
      <rect id="Rectangle_4778" data-name="Rectangle 4778" width="35.156" height="14.015" fill="#728338"/>
    </clipPath>
    <clipPath id="clip-path-6">
      <rect id="Rectangle_4779" data-name="Rectangle 4779" width="35.286" height="13.103" fill="none"/>
    </clipPath>
    <clipPath id="clip-path-7">
      <rect id="Rectangle_4798" data-name="Rectangle 4798" width="36.895" height="18.672" fill="none"/>
    </clipPath>
    <clipPath id="clip-path-10">
      <rect id="Rectangle_4805" data-name="Rectangle 4805" width="173.706" height="128.293" fill="#6c63f8"/>
    </clipPath>
    <clipPath id="clip-path-11">
      <rect id="Rectangle_4809" data-name="Rectangle 4809" width="48.166" height="85.747" fill="none"/>
    </clipPath>
    <clipPath id="clip-path-12">
      <rect id="Rectangle_4810" data-name="Rectangle 4810" width="66.032" height="65.556" fill="none"/>
    </clipPath>
  </defs>
  <g id="Group_37097" data-name="Group 37097" transform="translate(-3204.436 9302)">
    <rect id="Rectangle_4772" data-name="Rectangle 4772" width="88.416" height="88.416" transform="translate(3654.678 -9201.725)" fill="#ebebeb"/>
    <path id="Path_38456" data-name="Path 38456" d="M588.861,136.786a2.983,2.983,0,0,1,3.005,3.006v1.538a25.426,25.426,0,0,1,10.834,3.844,3.743,3.743,0,0,1,2.1,3.356,3.85,3.85,0,0,1-3.915,3.844,4.042,4.042,0,0,1-2.1-.629,25.385,25.385,0,0,0-7.2-3.075v13.421c10.626,2.656,15.17,6.921,15.17,14.4,0,7.69-6.012,12.792-14.89,13.63v4.195a2.983,2.983,0,0,1-3.005,3.006,3.044,3.044,0,0,1-3.076-3.006v-4.334a30.24,30.24,0,0,1-14.331-5.453,3.842,3.842,0,0,1-1.887-3.355,3.845,3.845,0,0,1,6.152-3.075,24.752,24.752,0,0,0,10.345,4.683V169.011c-10.206-2.657-14.959-6.5-14.959-14.4,0-7.48,5.941-12.653,14.679-13.351v-1.468a3.044,3.044,0,0,1,3.076-3.006m-2.8,23.837V148.25c-4.474.419-6.71,2.8-6.71,5.871,0,2.936,1.328,4.754,6.71,6.5m5.522,9.716v12.722c4.474-.489,6.921-2.726,6.921-6.081,0-3.076-1.538-4.963-6.921-6.641" transform="translate(3111.494 -9324.32)" fill="#fff"/>
    <rect id="Rectangle_4773" data-name="Rectangle 4773" width="88.416" height="88.416" transform="translate(3231.374 -9298.059)" fill="#ebebeb"/>
    <path id="Path_38457" data-name="Path 38457" d="M106.538,53.74H53.076V46.158h53.462Z" transform="translate(3195.775 -9309.532)" fill="#fff"/>
    <path id="Path_38458" data-name="Path 38458" d="M56.636,53.3l.1,1.607L58.41,81.426h43.958l1.665-26.519.1-1.607ZM72.9,75.568a1.443,1.443,0,0,1-1.439,1.456h-.226a1.2,1.2,0,0,1-1.2-1.205V59.384a1.2,1.2,0,0,1,1.2-1.188h.46A1.186,1.186,0,0,1,72.9,59.384Zm8.9,0a1.443,1.443,0,0,1-1.439,1.456h-.226a1.2,1.2,0,0,1-1.2-1.205V59.384a1.2,1.2,0,0,1,1.2-1.188h.46a1.186,1.186,0,0,1,1.205,1.188Zm8.912,0a1.448,1.448,0,0,1-1.439,1.456h-.234a1.2,1.2,0,0,1-1.2-1.205V59.384a1.2,1.2,0,0,1,1.2-1.188h.46a1.193,1.193,0,0,1,1.213,1.188Z" transform="translate(3195.194 -9310.698)" fill="#fff"/>
    <path id="Path_38459" data-name="Path 38459" d="M89.6,48.563a5.686,5.686,0,1,1-5.686-5.686A5.686,5.686,0,0,1,89.6,48.563" transform="translate(3191.671 -9308.997)" fill="#fff"/>
    <path id="Path_38460" data-name="Path 38460" d="M97.567,45.7h-2.51V30.676H68.9V45.7h-2.51V28.166H97.567Z" transform="translate(3193.602 -9306.597)" fill="#fff"/>
    <path id="Path_38461" data-name="Path 38461" d="M12.752,402.421c174.341-.512,369.912-.516,544.254,0-174.342.516-369.913.512-544.254,0" transform="translate(3202.355 -9367.604)" fill="#263238"/>
    <path id="Path_38462" data-name="Path 38462" d="M12.754,373.957H156.412L135.455,227.631H33.7Z" transform="translate(3202.355 -9339.145)" fill="#97a85e"/>
    <path id="Path_38463" data-name="Path 38463" d="M33.7,227.627,49.663,373.961H12.752Z" transform="translate(3202.355 -9339.144)" fill="#ffc727"/>
    <g id="Group_37051" data-name="Group 37051" transform="translate(3215.107 -9111.517)">
      <g id="Group_37050" data-name="Group 37050" transform="translate(0 0)">
        <g id="Group_37049" data-name="Group 37049" clip-path="url(#clip-path)">
          <path id="Path_38464" data-name="Path 38464" d="M33.7,227.627,49.663,373.961H12.752Z" transform="translate(-12.752 -227.627)" fill="#728338"/>
        </g>
      </g>
    </g>
    <path id="Path_38465" data-name="Path 38465" d="M116.5,231.127l4.49-.95c-.027-.122-2.628-12.417-5.411-24.826-3.008-13.413-16.2-19.585-27.221-17.807-8.253,1.334-17.4,7.772-16.02,21.526,1.474,14.725,2.59,21.66,2.637,21.949l4.529-.736c-.011-.069-1.141-7.11-2.6-21.67-1.059-10.571,5.6-15.474,12.187-16.539,8.912-1.441,19.594,3.505,22.011,14.28,2.777,12.381,5.373,24.649,5.4,24.772" transform="translate(3192.655 -9332.555)" fill="#263238"/>
    <path id="Path_38466" data-name="Path 38466" d="M48.022,398.87c-2.955-2.1-6.011-4.026-9.068-5.951q-4.607-2.849-9.313-5.527l-.433-.245-.391.292c-2.431,1.818-4.858,3.643-7.213,5.565-2.377,1.89-4.73,3.818-7,5.848,2.613-1.572,5.149-3.248,7.659-4.959,2.532-1.68,4.994-3.458,7.451-5.242l-.823.046q4.673,2.736,9.444,5.3c3.2,1.684,6.392,3.367,9.69,4.875" transform="translate(3202.053 -9365.175)" fill="#fff"/>
    <path id="Path_38467" data-name="Path 38467" d="M32.124,366.359c.633-9.331,1.1-18.667,1.538-28s.75-18.68,1.131-28.019c.258-9.343.582-18.685.777-28.03l.263-14.019c.033-4.675.116-9.349.1-14.025-.332,4.665-.565,9.333-.851,14l-.69,14.005c-.44,9.338-.751,18.68-1.129,28.018-.254,9.344-.583,18.685-.775,28.031s-.365,18.692-.367,28.044" transform="translate(3199.194 -9343.49)" fill="#fff"/>
    <path id="Path_38468" data-name="Path 38468" d="M120.534,237.928a6.1,6.1,0,1,0,6.1-6.1,6.1,6.1,0,0,0-6.1,6.1" transform="translate(3184.767 -9339.83)" fill="#263238"/>
    <path id="Path_38469" data-name="Path 38469" d="M71.5,237.928a6.1,6.1,0,1,0,6.1-6.1,6.1,6.1,0,0,0-6.1,6.1" transform="translate(3192.769 -9339.83)" fill="#263238"/>
    <path id="Path_38470" data-name="Path 38470" d="M644.854,230.671c1.166-3.911-.607-9.21-10.028-11.808-14.315-3.946-24.608,10.873-25.841,12.741,1.32-2.152,13.8-21.689,28.259-17.778,11.435,3.093,10.795,11.919,7.611,16.846" transform="translate(3105.062 -9336.808)" fill="#455a64"/>
    <path id="Path_38471" data-name="Path 38471" d="M644.831,232.663a7.747,7.747,0,0,1-3.759,3.285c-5.032,1.551-16.455,2.507-31.248-1.865-.329-.1-.654-.2-.983-.3l.12-.19c.025-.031.044-.071.073-.109a.676.676,0,0,0,.119.018c15.551,2.257,26.383.6,30.827-1,1.745-.632,3.139-2.755,3.314-5.238a7.436,7.436,0,0,0-.09-1.747,7.434,7.434,0,0,1,1.627,7.147" transform="translate(3105.086 -9338.799)" fill="#37474f"/>
    <path id="Path_38472" data-name="Path 38472" d="M635.213,207.11c-1.924-4.538-7.138-8.782-16.344-6.007-13.988,4.221-11.269,24.75-10.875,27.3-.533-2.883-4.967-29.328,9.108-33.666,11.131-3.428,17.022,5.681,18.11,12.372" transform="translate(3105.4 -9333.655)" fill="#455a64"/>
    <path id="Path_38473" data-name="Path 38473" d="M635.419,208.467c.36,2.265.173,4.257-.547,5.389-2.791,4.395-10.982,11.831-25.649,15.9-.326.09-.654.172-.981.263,0,0-.015-.089-.042-.256,0-.045-.019-.1-.025-.151a.542.542,0,0,0,.108-.048c13.726-6.6,20.949-14.392,23.246-18.5.9-1.617.447-4.511-1.213-7.072a11.6,11.6,0,0,0-1.334-1.68,11.058,11.058,0,0,1,6.437,6.159" transform="translate(3105.194 -9335.013)" fill="#37474f"/>
    <path id="Path_38474" data-name="Path 38474" d="M564.112,230.671c-1.166-3.911.608-9.21,10.029-11.808,14.315-3.946,24.608,10.873,25.841,12.741-1.32-2.152-13.8-21.689-28.259-17.778-11.436,3.093-10.8,11.919-7.611,16.846" transform="translate(3112.712 -9336.808)" fill="#455a64"/>
    <path id="Path_38475" data-name="Path 38475" d="M564.441,232.663a7.744,7.744,0,0,0,3.759,3.285c5.032,1.551,16.455,2.507,31.248-1.865.329-.1.654-.2.983-.3l-.12-.19c-.025-.031-.044-.071-.073-.109a.678.678,0,0,1-.119.018c-15.552,2.257-26.383.6-30.827-1-1.745-.632-3.139-2.755-3.314-5.238a7.433,7.433,0,0,1,.09-1.747,7.435,7.435,0,0,0-1.627,7.147" transform="translate(3112.383 -9338.799)" fill="#37474f"/>
    <path id="Path_38476" data-name="Path 38476" d="M574.484,207.11c1.924-4.538,7.137-8.782,16.345-6.007,13.987,4.221,11.269,24.75,10.874,27.3.532-2.883,4.966-29.328-9.11-33.666-11.132-3.428-17.021,5.681-18.11,12.372" transform="translate(3110.692 -9333.655)" fill="#455a64"/>
    <path id="Path_38477" data-name="Path 38477" d="M574.449,208.467c-.36,2.264-.174,4.257.547,5.389,2.791,4.395,10.982,11.831,25.649,15.9.326.09.654.172.98.263,0,0,.016-.089.044-.256,0-.045.018-.1.023-.151a.58.58,0,0,1-.107-.048c-13.726-6.6-20.949-14.392-23.246-18.5-.9-1.617-.448-4.511,1.213-7.072a11.618,11.618,0,0,1,1.335-1.68,11.058,11.058,0,0,0-6.438,6.159" transform="translate(3110.727 -9335.013)" fill="#37474f"/>
    <path id="Path_38478" data-name="Path 38478" d="M629.637,375.62H553.319l2.8-135.468,65.9-2.355Z" transform="translate(3114.146 -9340.804)" fill="#ffc727"/>
    <g id="Group_37054" data-name="Group 37054" transform="translate(3667.465 -9103.005)">
      <g id="Group_37053" data-name="Group 37053" transform="translate(0 0)">
        <g id="Group_37052" data-name="Group 37052" clip-path="url(#clip-path-2)">
          <path id="Path_38479" data-name="Path 38479" d="M629.637,375.62H553.319l2.8-135.468,65.9-2.355Z" transform="translate(-553.319 -237.798)" fill="#728338"/>
        </g>
      </g>
    </g>
    <path id="Path_38480" data-name="Path 38480" d="M658.29,375.62H636.607L633.287,237.8l22.364,4.173Z" transform="translate(3101.097 -9340.804)" fill="#97a85e"/>
    <path id="Path_38481" data-name="Path 38481" d="M552.08,237.055v18.858l67.956-2.331V232Z" transform="translate(3114.348 -9339.857)" fill="#ffc727"/>
    <g id="Group_37057" data-name="Group 37057" transform="translate(3666.428 -9107.856)">
      <g id="Group_37056" data-name="Group 37056" transform="translate(0 0)">
        <g id="Group_37055" data-name="Group 37055" clip-path="url(#clip-path-3)">
          <path id="Path_38482" data-name="Path 38482" d="M552.08,237.055v18.858l67.956-2.331V232Z" transform="translate(-552.08 -232.001)" fill="#728338"/>
        </g>
      </g>
    </g>
    <path id="Path_38483" data-name="Path 38483" d="M658.842,255.913l-25.556-2.331V232l27.011,5.054Z" transform="translate(3101.097 -9339.857)" fill="#ffc727"/>
    <g id="Group_37060" data-name="Group 37060" transform="translate(3734.384 -9107.856)">
      <g id="Group_37059" data-name="Group 37059" transform="translate(0 0)">
        <g id="Group_37058" data-name="Group 37058" clip-path="url(#clip-path-4)">
          <path id="Path_38484" data-name="Path 38484" d="M658.842,255.913l-25.556-2.331V232l27.011,5.054Z" transform="translate(-633.287 -232.001)" fill="#728338"/>
        </g>
      </g>
    </g>
    <path id="Path_38485" data-name="Path 38485" d="M582.712,235.542l.879,139.526h18.016l-1.571-140.659Z" transform="translate(3109.349 -9340.251)" fill="#455a64"/>
    <path id="Path_38486" data-name="Path 38486" d="M646.152,234.408l6.774,1.268V375.068h-5.665Z" transform="translate(3098.997 -9340.251)" fill="#455a64"/>
    <path id="Path_38487" data-name="Path 38487" d="M587.313,269.427a9.7,9.7,0,0,1-1.549,4.81c-.048-.324-.116-.659-.2-.994s-.177-.689-.291-1.041a19.709,19.709,0,0,0-3.755-6.473c-.18-.213-.359-.426-.552-.644-.048-.056-.1-.106-.151-.161v-.008c-.09-.1-.188-.192-.269-.293-15.178-19.236-29.632,11.928-29.936,12.646a.022.022,0,0,0-.006.013s-.832-31.08,15.74-31.941c12.983-.679,21.725,14.48,20.966,24.086" transform="translate(3114.589 -9342.031)" fill="#97a85e"/>
    <path id="Path_38488" data-name="Path 38488" d="M585.765,278.06a6.306,6.306,0,0,1-1.358,1.433c-7.913,6.059-32.215,1.889-33.725,1.629l-.073-.017c22.847,2.2,29.115-6.112,30.21-12.359.055.056.1.105.151.161.193.219.372.432.552.645a20.142,20.142,0,0,1,3.755,6.472c.115.352.209.7.29,1.041s.15.67.2.994" transform="translate(3114.588 -9345.854)" fill="#ffc727"/>
    <g id="Group_37063" data-name="Group 37063" transform="translate(3665.197 -9077.107)">
      <g id="Group_37062" data-name="Group 37062" transform="translate(0 0)">
        <g id="Group_37061" data-name="Group 37061" clip-path="url(#clip-path-5)">
          <path id="Path_38489" data-name="Path 38489" d="M585.765,278.06a6.306,6.306,0,0,1-1.358,1.433c-7.913,6.059-32.215,1.889-33.725,1.629l-.073-.017c22.847,2.2,29.115-6.112,30.21-12.359.055.056.1.105.151.161.193.219.372.432.552.645a20.142,20.142,0,0,1,3.755,6.472c.115.352.209.7.29,1.041s.15.67.2.994" transform="translate(-550.609 -268.746)" fill="#728338"/>
        </g>
      </g>
    </g>
    <path id="Path_38490" data-name="Path 38490" d="M506.006,273.28a9.694,9.694,0,0,0,2,4.641c.017-.327.053-.667.1-1.008s.11-.7.19-1.064a19.712,19.712,0,0,1,3.122-6.8c.158-.229.317-.459.488-.695.043-.06.086-.115.135-.176v-.007c.08-.108.169-.209.239-.317,13.277-20.594,30.632,9.052,31,9.738a.018.018,0,0,1,.007.013s-2.131-31.018-18.709-30.3c-12.989.561-20.249,16.483-18.577,25.973" transform="translate(3121.905 -9342.353)" fill="#ffc727"/>
    <path id="Path_38491" data-name="Path 38491" d="M508.442,281.993a6.318,6.318,0,0,0,1.489,1.3c8.454,5.277,32.249-1.187,33.727-1.59l.07-.023c-22.533,4.365-29.564-3.312-31.249-9.427-.049.06-.093.115-.136.175-.171.237-.33.465-.488.695a20.134,20.134,0,0,0-3.121,6.8c-.08.362-.141.717-.19,1.064s-.085.682-.1,1.008" transform="translate(3121.469 -9346.426)" fill="#ffc727"/>
    <g id="Group_37066" data-name="Group 37066" transform="translate(3629.911 -9074.175)" opacity="0.2">
      <g id="Group_37065" data-name="Group 37065" transform="translate(0 0)">
        <g id="Group_37064" data-name="Group 37064" clip-path="url(#clip-path-6)">
          <path id="Path_38492" data-name="Path 38492" d="M508.442,281.993a6.318,6.318,0,0,0,1.489,1.3c8.454,5.277,32.249-1.187,33.727-1.59l.07-.023c-22.533,4.365-29.564-3.312-31.249-9.427-.049.06-.093.115-.136.175-.171.237-.33.465-.488.695a20.134,20.134,0,0,0-3.121,6.8c-.08.362-.141.717-.19,1.064s-.085.682-.1,1.008" transform="translate(-508.442 -272.25)"/>
        </g>
      </g>
    </g>
    <path id="Path_38493" data-name="Path 38493" d="M577.573,384.4H500.405l2.216-91.676,75.418-1.122Z" transform="translate(3122.78 -9349.583)" fill="#455a64"/>
    <path id="Path_38494" data-name="Path 38494" d="M619.935,384.4H592.311l-1.591-92.8,27.417,2.293Z" transform="translate(3108.042 -9349.583)" fill="#37474f"/>
    <path id="Path_38495" data-name="Path 38495" d="M499.773,286.794v19.462l76.106-2.309V281.674Z" transform="translate(3122.883 -9347.964)" fill="#37474f"/>
    <path id="Path_38496" data-name="Path 38496" d="M620.306,306.353l-29.586-2.406V281.674l31.269,5.217Z" transform="translate(3108.042 -9347.964)" fill="#263238"/>
    <path id="Path_38497" data-name="Path 38497" d="M554.719,383.108H536.23l-1.862-97.979,21.833-1.448Z" transform="translate(3117.238 -9348.29)" fill="#ffc727"/>
    <path id="Path_38498" data-name="Path 38498" d="M608.248,383.174h6.289l-.557-97.619-8.79-1.466Z" transform="translate(3105.681 -9348.357)" fill="#97a85e"/>
    <path id="Path_38499" data-name="Path 38499" d="M493.918,348.443H101.176a10.789,10.789,0,0,1-10.789-10.789V82.035a10.79,10.79,0,0,1,10.789-10.79H493.918a10.789,10.789,0,0,1,10.789,10.79V337.653a10.789,10.789,0,0,1-10.789,10.789" transform="translate(3189.687 -9313.626)" fill="#263238"/>
    <rect id="Rectangle_4780" data-name="Rectangle 4780" width="356.575" height="253.485" transform="translate(3309.073 -9230.685)" fill="#fff"/>
    <path id="Path_38500" data-name="Path 38500" d="M111.185,261.154h-2.216a1.047,1.047,0,0,1-1.047-1.046V201.874a1.047,1.047,0,0,1,1.047-1.046h2.216a1.046,1.046,0,0,1,1.046,1.046v58.233a1.046,1.046,0,0,1-1.046,1.046" transform="translate(3186.825 -9334.771)" fill="#455a64"/>
    <path id="Path_38501" data-name="Path 38501" d="M574.167,235.351a7.8,7.8,0,1,1-7.8-7.8,7.8,7.8,0,0,1,7.8,7.8" transform="translate(3113.29 -9339.132)" fill="#455a64"/>
    <rect id="Rectangle_4781" data-name="Rectangle 4781" width="356.575" height="253.485" transform="translate(3309.073 -9230.685)" fill="#fff"/>
    <rect id="Rectangle_4782" data-name="Rectangle 4782" width="356.575" height="8.709" transform="translate(3309.073 -9230.687)" fill="#455a64"/>
    <path id="Path_38502" data-name="Path 38502" d="M132.559,90.075a1.785,1.785,0,1,1-1.785-1.785,1.785,1.785,0,0,1,1.785,1.785" transform="translate(3183.388 -9316.407)" fill="#c7c7c7"/>
    <path id="Path_38503" data-name="Path 38503" d="M141.268,90.075a1.785,1.785,0,1,1-1.785-1.785,1.785,1.785,0,0,1,1.785,1.785" transform="translate(3181.967 -9316.407)" fill="#fff"/>
    <path id="Path_38504" data-name="Path 38504" d="M149.977,90.075a1.785,1.785,0,1,1-1.786-1.785,1.786,1.786,0,0,1,1.786,1.785" transform="translate(3180.545 -9316.407)" fill="#ffc727"/>
    <rect id="Rectangle_4783" data-name="Rectangle 4783" width="94.017" height="121.241" transform="translate(3548.768 -9145.309)" fill="#fff"/>
    <path id="Path_38505" data-name="Path 38505" d="M505.452,308.446c-.076.021-94.034.076-94.107.091-.023-.021-.1-121.286-.118-121.332V187h.208c.1-.022,94.038.105,94.136.09.113.068-.2,121.272-.119,121.361m0,0L505.333,187.2c.809.236-94.107.169-93.9.208l.208-.208-.117,121.241c-.618-.12,94.085-.013,93.926,0" transform="translate(3137.332 -9332.514)" fill="#c7c7c7"/>
    <rect id="Rectangle_4784" data-name="Rectangle 4784" width="88.321" height="88.32" transform="translate(3551.615 -9142.84)" fill="#ebebeb"/>
    <path id="Path_38506" data-name="Path 38506" d="M481.621,199.71v4.048l-17.351-.008v.008H446.911V199.71Z" transform="translate(3131.509 -9334.588)" fill="#455a64"/>
    <path id="Path_38507" data-name="Path 38507" d="M482.364,207.489h5.043v5.7c-4.956-.26-5.043-5.7-5.043-5.7" transform="translate(3125.724 -9335.858)" fill="#455a64"/>
    <path id="Path_38508" data-name="Path 38508" d="M481.621,216v57.372H468.207L464.27,220.3l-3.945,53.072H446.911V216c2.241-.387,7.591-2,7.591-8.514h8.316c0,4.466-.126,8.4,1.444,8.419h.008c1.571-.016,1.444-3.953,1.444-8.419h8.316c0,6.517,5.35,8.127,7.591,8.514" transform="translate(3131.509 -9335.858)" fill="#455a64"/>
    <path id="Path_38509" data-name="Path 38509" d="M446.911,213.194v-5.7h5.042s-.086,5.444-5.042,5.7" transform="translate(3131.509 -9335.858)" fill="#455a64"/>
    <path id="Path_38510" data-name="Path 38510" d="M510.5,202.589c-4.447-2.817-4.281-6.226-3.066-6.944,1.52-.884,2.68.69,3.066,2.209.387-1.519,1.546-3.093,3.038-2.209,1.215.718,1.381,4.127-3.038,6.944" transform="translate(3121.753 -9333.884)" fill="#ffc727"/>
    <rect id="Rectangle_4785" data-name="Rectangle 4785" width="32.651" height="8.696" transform="translate(3607.285 -9037.59)" fill="#fff"/>
    <path id="Path_38511" data-name="Path 38511" d="M514.014,324.625c-8.138.067-24.513.16-32.651.179h-.179v-.18l-.03-8.7v-.21h.21c.1,0,32.65.12,32.738.123v.086Zm0,0-.086-8.7.086.085-32.651.123.208-.208-.029,8.7-.179-.179,16.278.064Z" transform="translate(3125.922 -9353.52)" fill="#c7c7c7"/>
    <line id="Line_316" data-name="Line 316" x2="41.702" transform="translate(3551.616 -9049.495)" fill="#fff"/>
    <path id="Path_38512" data-name="Path 38512" d="M414.879,301.661c13.865-.562,27.834-.562,41.7,0-13.869.562-27.836.562-41.7,0" transform="translate(3136.736 -9351.156)" fill="#c7c7c7"/>
    <line id="Line_317" data-name="Line 317" x2="59.883" transform="translate(3551.616 -9044.683)" fill="#fff"/>
    <path id="Path_38513" data-name="Path 38513" d="M414.879,307.455c19.318-.274,40.565-.276,59.883,0-19.317.276-40.565.274-59.883,0" transform="translate(3136.736 -9352.137)" fill="#c7c7c7"/>
    <rect id="Rectangle_4786" data-name="Rectangle 4786" width="94.017" height="121.241" transform="translate(3331.685 -9145.309)" fill="#fff"/>
    <path id="Path_38514" data-name="Path 38514" d="M246.038,308.446c-.076.021-94.033.076-94.107.091-.023-.021-.1-121.286-.118-121.332V187h.208c.1-.022,94.038.105,94.136.09.113.068-.2,121.272-.119,121.361m0,0L245.919,187.2c.809.236-94.107.169-93.9.208l.208-.208-.117,121.241c-.618-.12,94.085-.013,93.926,0" transform="translate(3179.663 -9332.514)" fill="#c7c7c7"/>
    <rect id="Rectangle_4787" data-name="Rectangle 4787" width="88.321" height="88.32" transform="translate(3334.532 -9142.84)" fill="#ebebeb"/>
    <path id="Path_38515" data-name="Path 38515" d="M227.136,264.149H180.18l.141-1.942.1-1.431.127-1.7.1-1.444.127-1.686.1-1.444.128-1.7.1-1.432,2.9-39.851h7.717a11.928,11.928,0,0,0,23.855,0H223.3l2.9,39.851.1,1.432.128,1.7.1,1.444.128,1.686.1,1.444.128,1.7.1,1.431Z" transform="translate(3175.034 -9336.517)" fill="#455a64"/>
    <path id="Path_38516" data-name="Path 38516" d="M181.958,211.521l-14.374,17.833,12.328,10.284Z" transform="translate(3177.09 -9336.517)" fill="#263238"/>
    <path id="Path_38517" data-name="Path 38517" d="M231.712,211.521l14.374,17.833-12.328,10.284Z" transform="translate(3166.625 -9336.517)" fill="#263238"/>
    <path id="Path_38518" data-name="Path 38518" d="M251.089,202.589c-4.447-2.817-4.281-6.226-3.065-6.944,1.519-.884,2.679.69,3.065,2.209.387-1.519,1.546-3.093,3.038-2.209,1.215.718,1.381,4.127-3.038,6.944" transform="translate(3164.084 -9333.884)" fill="#ffc727"/>
    <rect id="Rectangle_4788" data-name="Rectangle 4788" width="32.651" height="8.696" transform="translate(3390.202 -9037.59)" fill="#fff"/>
    <path id="Path_38519" data-name="Path 38519" d="M254.6,324.625c-8.138.067-24.513.16-32.651.179h-.179v-.18l-.03-8.7v-.21h.21c.1,0,32.65.12,32.738.123v.086Zm0,0-.086-8.7.086.085-32.651.123.208-.208-.029,8.7-.179-.179,16.278.064Z" transform="translate(3168.253 -9353.52)" fill="#c7c7c7"/>
    <line id="Line_318" data-name="Line 318" x2="41.702" transform="translate(3334.533 -9049.495)" fill="#fff"/>
    <path id="Path_38520" data-name="Path 38520" d="M155.465,301.661c13.866-.562,27.834-.562,41.7,0-13.869.562-27.836.562-41.7,0" transform="translate(3179.067 -9351.156)" fill="#c7c7c7"/>
    <line id="Line_319" data-name="Line 319" x2="59.883" transform="translate(3334.533 -9044.683)" fill="#fff"/>
    <path id="Path_38521" data-name="Path 38521" d="M155.465,307.455c19.317-.274,40.565-.276,59.883,0-19.317.276-40.565.274-59.883,0" transform="translate(3179.067 -9352.137)" fill="#c7c7c7"/>
    <rect id="Rectangle_4789" data-name="Rectangle 4789" width="94.017" height="121.241" transform="translate(3440.226 -9145.309)" fill="#fff"/>
    <path id="Path_38522" data-name="Path 38522" d="M375.745,308.446c-.076.021-94.033.076-94.107.091-.023-.021-.1-121.286-.118-121.332V187h.208c.1-.022,94.038.105,94.136.09.113.068-.2,121.272-.119,121.361m0,0L375.626,187.2c.81.236-94.107.169-93.9.208l.208-.208-.118,121.241c-.618-.12,94.085-.013,93.926,0" transform="translate(3158.498 -9332.514)" fill="#c7c7c7"/>
    <rect id="Rectangle_4790" data-name="Rectangle 4790" width="32.651" height="8.696" transform="translate(3498.743 -9037.59)" fill="#fff"/>
    <path id="Path_38523" data-name="Path 38523" d="M384.307,324.625c-8.138.067-24.513.16-32.651.179h-.179v-.18l-.03-8.7v-.21h.209c.1,0,32.65.12,32.738.123v.086Zm0,0-.086-8.7.086.085-32.651.123.208-.208-.029,8.7-.179-.179,16.278.064Z" transform="translate(3147.087 -9353.52)" fill="#c7c7c7"/>
    <line id="Line_320" data-name="Line 320" x2="41.702" transform="translate(3443.074 -9049.495)" fill="#fff"/>
    <path id="Path_38524" data-name="Path 38524" d="M285.172,301.661c13.865-.562,27.833-.562,41.7,0-13.87.562-27.836.562-41.7,0" transform="translate(3157.902 -9351.156)" fill="#c7c7c7"/>
    <line id="Line_321" data-name="Line 321" x2="59.883" transform="translate(3443.074 -9044.683)" fill="#fff"/>
    <path id="Path_38525" data-name="Path 38525" d="M285.172,307.455c19.318-.274,40.565-.276,59.883,0-19.317.276-40.565.274-59.883,0" transform="translate(3157.902 -9352.137)" fill="#c7c7c7"/>
    <rect id="Rectangle_4791" data-name="Rectangle 4791" width="88.321" height="88.32" transform="translate(3443.073 -9142.84)" fill="#ebebeb"/>
    <path id="Path_38526" data-name="Path 38526" d="M380.8,202.589c-4.447-2.817-4.281-6.226-3.066-6.944,1.52-.884,2.679.69,3.066,2.209.387-1.519,1.546-3.093,3.038-2.209,1.215.718,1.381,4.127-3.038,6.944" transform="translate(3142.918 -9333.884)" fill="#ffc727"/>
    <rect id="Rectangle_4792" data-name="Rectangle 4792" width="208.161" height="11.694" transform="translate(3383.154 -9180.012)" fill="#fff"/>
    <rect id="Rectangle_4793" data-name="Rectangle 4793" width="208.399" height="11.932" transform="translate(3383.035 -9180.132)" fill="#fff"/>
    <path id="Path_38527" data-name="Path 38527" d="M421.784,157.521c-.2-.195-208.8.567-208.593,0l-.013-11.933c-.2-.575,208.428.148,208.623,0l-.018,11.933m0,0-.018-11.932c.136-.147-209.259.577-208.177,0l-.011,11.931c-1.324-.546,208.55.18,208.205,0" transform="translate(3169.649 -9325.72)" fill="#c7c7c7"/>
    <path id="Path_38528" data-name="Path 38528" d="M456.83,155.313l-.864.655-1.6-2.115-.586-.773a1.409,1.409,0,0,0,.78-.766l.623.82Z" transform="translate(3130.389 -9326.854)" fill="#c7c7c7"/>
    <path id="Path_38529" data-name="Path 38529" d="M454.567,149.768a2.359,2.359,0,1,0-.764,3.519,2.3,2.3,0,0,0,.326-.211,2.357,2.357,0,0,0,.438-3.308m-1.014,2.556a1.343,1.343,0,0,1-.336.19,1.41,1.41,0,1,1,.336-.19" transform="translate(3130.95 -9326.288)" fill="#c7c7c7"/>
    <rect id="Rectangle_4794" data-name="Rectangle 4794" width="0.628" height="7.097" transform="translate(3385.599 -9177.714)" fill="#c7c7c7"/>
    <rect id="Rectangle_4795" data-name="Rectangle 4795" width="9.596" height="1.459" transform="translate(3334.533 -9179.001)" fill="#c7c7c7"/>
    <rect id="Rectangle_4796" data-name="Rectangle 4796" width="9.596" height="1.459" transform="translate(3334.533 -9170.789)" fill="#c7c7c7"/>
    <rect id="Rectangle_4797" data-name="Rectangle 4797" width="9.596" height="1.459" transform="translate(3334.533 -9174.856)" fill="#c7c7c7"/>
    <path id="Path_38530" data-name="Path 38530" d="M512.707,154.575h-9.059a.4.4,0,0,1-.376-.273l-2.587-7.913h-2.111a.4.4,0,0,1,0-.792h2.4a.4.4,0,0,1,.377.273l2.587,7.913h8.772a.4.4,0,1,1,0,.792" transform="translate(3123.144 -9325.759)" fill="#ffc727"/>
    <path id="Path_38531" data-name="Path 38531" d="M514.242,159.431a1.272,1.272,0,1,1,1.272-1.272,1.273,1.273,0,0,1-1.272,1.272m0-1.752a.481.481,0,1,0,.48.48.481.481,0,0,0-.48-.48" transform="translate(3120.73 -9327.602)" fill="#ffc727"/>
    <path id="Path_38532" data-name="Path 38532" d="M505.3,159.431a1.272,1.272,0,1,1,1.272-1.272,1.273,1.273,0,0,1-1.272,1.272m0-1.752a.481.481,0,1,0,.48.48.481.481,0,0,0-.48-.48" transform="translate(3122.189 -9327.602)" fill="#ffc727"/>
    <path id="Path_38533" data-name="Path 38533" d="M515.687,147.3l-2.016,6.325h-8.554L503.1,147.3l6.678.006Z" transform="translate(3122.34 -9326.035)" fill="#ffc727"/>
    <path id="Path_38534" data-name="Path 38534" d="M519.429,146.526a2.545,2.545,0,1,1-2.546-2.545,2.545,2.545,0,0,1,2.546,2.545" transform="translate(3120.506 -9325.495)" fill="#455a64"/>
    <path id="Path_38535" data-name="Path 38535" d="M517.755,146.512a.877.877,0,0,1,.262.628.891.891,0,0,1-1.521.631.2.2,0,0,1,.288-.287.475.475,0,0,0,.34.141.492.492,0,0,0,.345-.141.478.478,0,0,0,.144-.344.465.465,0,0,0-.144-.341.482.482,0,0,0-.341-.144.174.174,0,0,1-.147-.064l0,0a.2.2,0,0,1-.008-.287l.366-.373h-.581a.2.2,0,0,1,0-.405h1.058a.2.2,0,0,1,.205.2.219.219,0,0,1-.025.1.27.27,0,0,1-.036.05l-.452.466a.816.816,0,0,1,.251.176" transform="translate(3120.164 -9325.746)" fill="#fff"/>
    <path id="Path_38536" data-name="Path 38536" d="M531,98.783H51.362L88.386,70.614H492.473Z" transform="translate(3196.055 -9313.522)" fill="#97a85e"/>
    <path id="Path_38537" data-name="Path 38537" d="M163.031,70.613,132.347,98.787h-36.9l33.5-28.174Z" transform="translate(3188.86 -9313.522)" fill="#ebebeb"/>
    <path id="Path_38538" data-name="Path 38538" d="M242.712,70.613,220.525,98.787H183.631L210,70.613Z" transform="translate(3174.471 -9313.522)" fill="#ebebeb"/>
    <path id="Path_38539" data-name="Path 38539" d="M312.53,70.613,308.7,98.787H271.81l11.767-28.174Z" transform="translate(3160.082 -9313.522)" fill="#ebebeb"/>
    <path id="Path_38540" data-name="Path 38540" d="M530.136,98.787,498.294,70.613h34.077l34.66,28.174Z" transform="translate(3123.125 -9313.522)" fill="#ebebeb"/>
    <path id="Path_38541" data-name="Path 38541" d="M444.329,98.787,424.648,70.613h30.025l26.551,28.174Z" transform="translate(3135.142 -9313.522)" fill="#ebebeb"/>
    <path id="Path_38542" data-name="Path 38542" d="M358.933,98.787l-5.411-28.174H382.49l13.337,28.174Z" transform="translate(3146.748 -9313.522)" fill="#ebebeb"/>
    <path id="Path_38543" data-name="Path 38543" d="M69.81,122.953h0a18.448,18.448,0,0,1-18.448-18.448v-.224h36.9v.224A18.448,18.448,0,0,1,69.81,122.953" transform="translate(3196.055 -9319.017)" fill="#ffc727"/>
    <g id="Group_37069" data-name="Group 37069" transform="translate(3247.417 -9214.735)" opacity="0.1">
      <g id="Group_37068" data-name="Group 37068" transform="translate(0 0)">
        <g id="Group_37067" data-name="Group 37067" clip-path="url(#clip-path-7)">
          <path id="Path_38544" data-name="Path 38544" d="M69.81,122.953h0a18.448,18.448,0,0,1-18.448-18.448v-.224h36.9v.224A18.448,18.448,0,0,1,69.81,122.953" transform="translate(-51.363 -104.281)"/>
        </g>
      </g>
    </g>
    <path id="Path_38545" data-name="Path 38545" d="M113.9,122.953h0a18.448,18.448,0,0,1-18.448-18.448v-.224h36.9v.224A18.448,18.448,0,0,1,113.9,122.953" transform="translate(3188.86 -9319.017)" fill="#dbdbdb"/>
    <path id="Path_38546" data-name="Path 38546" d="M157.989,122.953h0a18.448,18.448,0,0,1-18.448-18.448v-.224h36.9v.224a18.448,18.448,0,0,1-18.448,18.448" transform="translate(3181.666 -9319.017)" fill="#859649"/>
    <path id="Path_38548" data-name="Path 38548" d="M202.078,122.953h0a18.448,18.448,0,0,1-18.448-18.448v-.224h36.9v.224a18.448,18.448,0,0,1-18.448,18.448" transform="translate(3174.471 -9319.017)" fill="#dbdbdb"/>
    <path id="Path_38549" data-name="Path 38549" d="M246.168,122.953h0a18.448,18.448,0,0,1-18.448-18.448v-.224h36.9v.224a18.448,18.448,0,0,1-18.448,18.448" transform="translate(3167.277 -9319.017)" fill="#859649"/>
    <path id="Path_38551" data-name="Path 38551" d="M290.257,122.953h0a18.448,18.448,0,0,1-18.448-18.448v-.224h36.9v.224a18.448,18.448,0,0,1-18.448,18.448" transform="translate(3160.082 -9319.017)" fill="#dbdbdb"/>
    <path id="Path_38552" data-name="Path 38552" d="M334.347,122.953h0A18.448,18.448,0,0,1,315.9,104.505v-.224h36.9v.224a18.448,18.448,0,0,1-18.447,18.448" transform="translate(3152.888 -9319.017)" fill="#859649"/>
    <path id="Path_38554" data-name="Path 38554" d="M378.436,122.953h0a18.448,18.448,0,0,1-18.448-18.448v-.224h36.9v.224a18.448,18.448,0,0,1-18.448,18.448" transform="translate(3145.693 -9319.017)" fill="#dbdbdb"/>
    <path id="Path_38555" data-name="Path 38555" d="M422.525,122.953h0a18.448,18.448,0,0,1-18.448-18.448v-.224h36.9v.224a18.448,18.448,0,0,1-18.448,18.448" transform="translate(3138.499 -9319.017)" fill="#859649"/>
    <path id="Path_38557" data-name="Path 38557" d="M466.615,122.953h0a18.448,18.448,0,0,1-18.448-18.448v-.224h36.9v.224a18.448,18.448,0,0,1-18.448,18.448" transform="translate(3131.304 -9319.017)" fill="#dbdbdb"/>
    <path id="Path_38558" data-name="Path 38558" d="M510.7,122.953h0a18.448,18.448,0,0,1-18.448-18.448v-.224h36.9v.224A18.448,18.448,0,0,1,510.7,122.953" transform="translate(3124.11 -9319.017)" fill="#ffc727"/>
    <g id="Group_37084" data-name="Group 37084" transform="translate(3616.366 -9214.735)" opacity="0.1">
      <g id="Group_37083" data-name="Group 37083" transform="translate(0 0)">
        <g id="Group_37082" data-name="Group 37082" clip-path="url(#clip-path-7)">
          <path id="Path_38559" data-name="Path 38559" d="M510.7,122.953h0a18.448,18.448,0,0,1-18.448-18.448v-.224h36.9v.224A18.448,18.448,0,0,1,510.7,122.953" transform="translate(-492.256 -104.281)"/>
        </g>
      </g>
    </g>
    <path id="Path_38560" data-name="Path 38560" d="M554.793,122.953h0a18.448,18.448,0,0,1-18.448-18.448v-.224h36.9v.224a18.448,18.448,0,0,1-18.448,18.448" transform="translate(3116.916 -9319.017)" fill="#dbdbdb"/>
    <path id="Path_38561" data-name="Path 38561" d="M598.883,122.953h0a18.448,18.448,0,0,1-18.448-18.448v-.224h36.9v.224a18.448,18.448,0,0,1-18.448,18.448" transform="translate(3109.721 -9319.017)" fill="#ffc727"/>
    <g id="Group_37087" data-name="Group 37087" transform="translate(3690.156 -9214.735)" opacity="0.1">
      <g id="Group_37086" data-name="Group 37086" transform="translate(0 0)">
        <g id="Group_37085" data-name="Group 37085" clip-path="url(#clip-path-7)">
          <path id="Path_38562" data-name="Path 38562" d="M598.883,122.953h0a18.448,18.448,0,0,1-18.448-18.448v-.224h36.9v.224a18.448,18.448,0,0,1-18.448,18.448" transform="translate(-580.435 -104.281)"/>
        </g>
      </g>
    </g>
    <path id="Path_38563" data-name="Path 38563" d="M621.594,117.173l.066.12a.147.147,0,0,1-.066-.054c-.027-.022-.079-.044-.105-.065Z" transform="translate(3103.022 -9321.12)" fill="#ffc727"/>
    <path id="Path_38564" data-name="Path 38564" d="M356.995,264.149H310.038l.141-1.942.1-1.431.128-1.7.1-1.444.127-1.686.1-1.444.128-1.7.1-1.432,2.9-39.851h7.717a11.928,11.928,0,0,0,23.855,0h7.717l2.9,39.851.1,1.432.128,1.7.1,1.444.128,1.686.1,1.444.128,1.7.1,1.431Z" transform="translate(3153.844 -9336.517)" fill="#455a64"/>
    <path id="Path_38565" data-name="Path 38565" d="M311.816,211.521l-14.374,17.833,12.328,10.284Z" transform="translate(3155.9 -9336.517)" fill="#263238"/>
    <path id="Path_38566" data-name="Path 38566" d="M361.57,211.521l14.374,17.833-12.328,10.284Z" transform="translate(3145.435 -9336.517)" fill="#263238"/>
    <path id="Path_38567" data-name="Path 38567" d="M133.823,176.248a70.388,70.388,0,0,1,18.437-.972c8.249.8,15.837,5.581,16.566,10.44.378,2.51-1.19,4.633-4.416,5.979-10.159,4.236-29.959-13.915-30.8-14.69l-.63-.583Zm18.351-.09a69.325,69.325,0,0,0-17.3.794c3.566,3.149,20.549,17.531,29.191,13.927,2.856-1.191,4.2-2.931,3.882-5.03a7.073,7.073,0,0,0-1.962-3.572c-2.666-2.887-7.756-5.534-13.815-6.12" transform="translate(3182.736 -9330.561)" fill="#263238"/>
    <path id="Path_38568" data-name="Path 38568" d="M34.3,74.714a2.845,2.845,0,0,1,3.935-.9l79.751,50.059a2.9,2.9,0,0,1,1.318,2.148l2.807,27.892.045.4.06.726.03.323,1.064,10.555a2.834,2.834,0,0,1-1.852,2.97l-10.076,3.668-.906.326-26.693,9.716a2.843,2.843,0,0,1-2.51-.261L1.54,132.268a2.857,2.857,0,0,1-.907-3.951Z" transform="translate(3204.405 -9313.973)" fill="#fff"/>
    <path id="Path_38569" data-name="Path 38569" d="M11.11,111.8l-5.79,9.271-2.9,4.635L.977,128.02A3.661,3.661,0,0,0,.406,129.2,2.687,2.687,0,0,0,.989,131.6a4.257,4.257,0,0,0,1.046.789l2.318,1.448,4.636,2.894,9.272,5.789,37.088,23.156,18.544,11.578,4.636,2.895,2.318,1.447.58.362a2.513,2.513,0,0,0,.529.259,2.426,2.426,0,0,0,1.151.11,2.618,2.618,0,0,0,.572-.155l.642-.235,1.283-.471,2.566-.941,5.132-1.88,20.564-7.423,5.14-1.857c.838-.31,1.754-.617,2.529-.929a2.485,2.485,0,0,0,1.377-1.835,2.437,2.437,0,0,0,.019-.595l-.064-.673-.133-1.36-.268-2.72-.535-5.441-2.124-21.757-.534-5.439L119,125.91a2.714,2.714,0,0,0-1.411-1.977l-9.243-5.834L71.378,94.762,52.892,83.093l-9.244-5.834-4.622-2.917c-.389-.234-.759-.509-1.168-.7a2.838,2.838,0,0,0-3.587,1.074ZM36.533,73.371a2.851,2.851,0,0,1,1.334.249c.414.194.783.465,1.175.7l4.636,2.894L52.951,83,71.5,94.576l37.091,23.151,9.274,5.788a3.222,3.222,0,0,1,1.648,2.32l.285,2.73.561,5.436,2.234,21.747.562,5.435.281,2.717.141,1.358.069.688a3.1,3.1,0,0,1-.022.767,3.206,3.206,0,0,1-1.764,2.381c-.911.375-1.726.645-2.594.972l-5.131,1.882-20.524,7.526-5.139,1.859-2.57.928-1.285.464-.642.232a3.544,3.544,0,0,1-.746.195A3.264,3.264,0,0,1,81.682,183a3.452,3.452,0,0,1-.694-.342l-.577-.365-2.31-1.459-4.622-2.918L55,166.242,18.025,142.9l-9.242-5.836-4.622-2.918-2.31-1.459a4.58,4.58,0,0,1-1.118-.859,3.02,3.02,0,0,1-.644-2.708,3.959,3.959,0,0,1,.617-1.267l1.459-2.31,2.918-4.621,5.838-9.242,23.35-36.966a2.835,2.835,0,0,1,2.262-1.341" transform="translate(3204.436 -9313.972)" fill="#ebebeb"/>
    <path id="Path_38570" data-name="Path 38570" d="M133.508,173.207a3.766,3.766,0,0,0-.749-.66c-.016-.022-.053-.028-.079-.054l-.01-.006a3.78,3.78,0,1,0-4.016,6.406l.074.038a3.371,3.371,0,0,0,.629.3,2.206,2.206,0,0,0,.389.124,3.779,3.779,0,0,0,3.762-6.151" transform="translate(3183.731 -9330.053)" fill="#fff"/>
    <path id="Path_38571" data-name="Path 38571" d="M133.833,177.915a4.028,4.028,0,0,1-2.013,1.654,3.91,3.91,0,0,1-2.7.035l.028.011-.394-.177-.374-.179-.006,0-.024-.014a4.056,4.056,0,0,1-1.848-2.631,4,4,0,0,1,.644-3.094,3.956,3.956,0,0,1,2.57-1.639,4.1,4.1,0,0,1,2.885.582h0l.011.005,0,0c.019.023.052.026.079.057l0,0a3.767,3.767,0,0,1,.743.669,4.033,4.033,0,0,1,.4,4.722m-1.157-5.373,0,0c-.015-.018-.053-.026-.078-.052l0,0-.011-.006h0a3.567,3.567,0,0,0-4.964,1.331,3.612,3.612,0,0,0-.31,2.611,3.563,3.563,0,0,0,1.5,2.089l-.029-.017.327.166.309.162.028.011a3.6,3.6,0,0,0,2.192.146,3.563,3.563,0,0,0,2.672-3.518,3.625,3.625,0,0,0-.874-2.271,3.763,3.763,0,0,0-.756-.651" transform="translate(3183.807 -9330.038)" fill="#ebebeb"/>
    <path id="Path_38572" data-name="Path 38572" d="M37.237,81.488l-29.572,47.1a2.841,2.841,0,0,0,.971,3.883l73.352,46.051a2.919,2.919,0,0,0,2.489.31l33.967-11.517a2.68,2.68,0,0,0,1.813-2.883l-.992-8.055-.107-.859-3.294-26.678a2.923,2.923,0,0,0-1.356-2.11L41.154,80.68a2.836,2.836,0,0,0-3.917.808m3.649-.379,73.353,46.051a2.428,2.428,0,0,1,1.123,1.744l3.294,26.685.109.884.991,8.023a2.176,2.176,0,0,1-.314,1.437,2.22,2.22,0,0,1-1.16.909L84.316,178.358a2.447,2.447,0,0,1-2.061-.262L8.9,132.044a2.331,2.331,0,0,1-.815-3.187l29.579-47.1a2.325,2.325,0,0,1,3.22-.647" transform="translate(3203.252 -9315.091)" fill="#263238"/>
    <path id="Path_38573" data-name="Path 38573" d="M29.041,121.068A1.913,1.913,0,0,1,31.4,122.16a9.432,9.432,0,0,0,4.022,5.484A8.519,8.519,0,0,0,40,128.836a4.166,4.166,0,0,0,2.973-1.166,1.85,1.85,0,0,0,.47-1.015A2.633,2.633,0,0,0,43.2,125.3a11.7,11.7,0,0,0-3.045-3.744l-.032-.018-.03-.018a17.239,17.239,0,0,1-2.962-3.32,5.909,5.909,0,0,1-1.033-3.771,4.985,4.985,0,0,1,1.187-2.589,8.015,8.015,0,0,1,5.8-2.505,11.758,11.758,0,0,1,6.423,1.607,11.428,11.428,0,0,1,4.71,6.013,1.683,1.683,0,0,1-1.192,2.172,1.884,1.884,0,0,1-2.452-.857c-.78-1.79-1.566-3.5-3.41-4.541a7.487,7.487,0,0,0-4.172-1.118,3.682,3.682,0,0,0-2.612,1.048,1.441,1.441,0,0,0-.4.89,2.323,2.323,0,0,0,.2,1.155,10.332,10.332,0,0,0,2.777,3.421l.062.036a16.79,16.79,0,0,1,3.216,3.595,6.339,6.339,0,0,1,1.085,3.967,5.018,5.018,0,0,1-1.279,2.746,8.528,8.528,0,0,1-6.118,2.691,12.722,12.722,0,0,1-6.88-1.75,12.34,12.34,0,0,1-5.43-7.267,1.781,1.781,0,0,1,1.427-2.076" transform="translate(3199.939 -9319.84)" fill="#ffc727"/>
    <path id="Path_38574" data-name="Path 38574" d="M50.9,139.914a2.435,2.435,0,0,1-2.449.06,2.259,2.259,0,0,1-.533-.438,1.767,1.767,0,0,1,.72-2.574L69.4,124.639a2.424,2.424,0,0,1,2.48-.042,1.633,1.633,0,0,1,.8,1.968L65.6,146.92a2.381,2.381,0,0,1-2.7,1.411,2.491,2.491,0,0,1-.674-.27,1.59,1.59,0,0,1-.738-1.932l1.54-4.464L55.47,137.23ZM64.34,137.86l2.576-7.436-7.559,4.51Z" transform="translate(3196.668 -9322.279)" fill="#ffc727"/>
    <path id="Path_38575" data-name="Path 38575" d="M72.733,151.018,86.656,134.68a2.415,2.415,0,0,1,3.011-.521,1.591,1.591,0,0,1,.393,2.52L77.447,151.5l8.387,4.924a1.629,1.629,0,0,1,.425,2.539,2.52,2.52,0,0,1-3.06.534l-10.028-5.889a.035.035,0,0,0-.013-.049.035.035,0,0,1-.049.013,1.62,1.62,0,0,1-.376-2.551" transform="translate(3192.642 -9323.841)" fill="#ffc727"/>
    <path id="Path_38576" data-name="Path 38576" d="M92.375,162.792l13.94-16.371a2.453,2.453,0,0,1,3.012-.52l.031.018.031.018,10.028,5.889a1.627,1.627,0,0,1,.424,2.537,2.511,2.511,0,0,1-3.029.551l-8.387-4.925-4.365,5.1,7.242,4.253a1.592,1.592,0,0,1,.394,2.52,2.416,2.416,0,0,1-3.012.521l-7.211-4.234-4.366,5.095,8.387,4.925a1.643,1.643,0,0,1,.405,2.57,2.517,2.517,0,0,1-3.01.521L92.83,165.348l-.031-.018a1.627,1.627,0,0,1-.424-2.537" transform="translate(3189.432 -9325.759)" fill="#ffc727"/>
    <path id="Path_38577" data-name="Path 38577" d="M132.981,176.6l.628.588c.1.1.507.471,1.155,1.042a.975.975,0,0,1,.121.1.909.909,0,0,1,.12.105,101.394,101.394,0,0,0,8.485,6.617c.11.079.219.146.329.226s.2.139.3.213a2.73,2.73,0,0,0,.647-.669l-.293-.2-.31-.218a104.9,104.9,0,0,1-8.814-6.843.455.455,0,0,0-.085-.079c-.03-.033-.067-.059-.09-.085-.11-.092-.213-.177-.3-.262.126-.02.259-.046.4-.072a3.29,3.29,0,0,0,.1-.9c0-.013,0-.013-.006-.019-.971.162-1.532.271-1.551.277Z" transform="translate(3182.736 -9330.744)" fill="#263238"/>
    <path id="Path_38578" data-name="Path 38578" d="M630.284,30.74l-13.1,89.7a9.173,9.173,0,0,1-10.4,7.756l-142.27-20.784A9.174,9.174,0,0,1,456.766,97l13.1-89.7A8.538,8.538,0,0,1,479.553.09L623.071,21.058a8.537,8.537,0,0,1,7.213,9.682" transform="translate(3129.917 -9302)" fill="#ffc727"/>
    <g id="Group_37090" data-name="Group 37090" transform="translate(3586.586 -9302)">
      <g id="Group_37089" data-name="Group 37089" transform="translate(0)">
        <g id="Group_37088" data-name="Group 37088" clip-path="url(#clip-path-10)">
          <path id="Path_38579" data-name="Path 38579" d="M617.179,120.439a9.173,9.173,0,0,1-10.4,7.756l-142.27-20.784A9.174,9.174,0,0,1,456.766,97l13.1-89.7A8.538,8.538,0,0,1,479.553.09L623.071,21.058a8.537,8.537,0,0,1,7.213,9.682" transform="translate(-456.669 0)" fill="#6c63f8"/>
        </g>
      </g>
    </g>
    <path id="Path_38580" data-name="Path 38580" d="M510.432,44.185,487.279,40.8a3.516,3.516,0,0,1-2.972-3.987l2.023-13.851a3.517,3.517,0,0,1,3.987-2.972l23.153,3.382a3.516,3.516,0,0,1,2.971,3.988l-2.023,13.851a3.516,3.516,0,0,1-3.987,2.971" transform="translate(3125.413 -9305.256)" fill="#ffc727"/>
    <path id="Path_38581" data-name="Path 38581" d="M478.73,66.584l-1.341.544a.309.309,0,0,1-.157.028.305.305,0,0,1-.24-.188.29.29,0,0,1,.172-.395L479,65.795a.32.32,0,0,1,.4.173.368.368,0,0,1,0,.23l-1.172,8.023a.3.3,0,0,1-.343.256.308.308,0,0,1-.256-.344Z" transform="translate(3126.604 -9312.733)" fill="#f8f8f8"/>
    <path id="Path_38582" data-name="Path 38582" d="M481.048,74.427l4.618-3.085a2.29,2.29,0,0,0,.992-1.562,2.278,2.278,0,0,0-1.92-2.562,2.3,2.3,0,0,0-1.606.351l-.481.326a.3.3,0,0,1-.348-.5l.483-.337a2.958,2.958,0,0,1,2.042-.454,2.9,2.9,0,0,1,2.429,3.26,2.9,2.9,0,0,1-1.246,1.985L482.057,74.5l4.131.6a.309.309,0,0,1-.09.612L481.232,75l-.049-.008a.285.285,0,0,1-.213-.12.331.331,0,0,1,.079-.447" transform="translate(3125.96 -9312.863)" fill="#f8f8f8"/>
    <path id="Path_38583" data-name="Path 38583" d="M496.338,68.8l-2.6,1.992A2.986,2.986,0,0,1,494.5,76a3,3,0,0,1-2.224.567,2.944,2.944,0,0,1-1.956-1.177.312.312,0,0,1,.5-.374,2.38,2.38,0,0,0,1.549.915,2.4,2.4,0,0,0,1.758-.432,2.365,2.365,0,0,0,.93-1.559,2.368,2.368,0,0,0-1.994-2.675.326.326,0,0,1-.23-.161l-.013,0a.318.318,0,0,1,.065-.449l2.5-1.917-3.345-.488a.315.315,0,0,1,.091-.624l4.08.6a.313.313,0,0,1,.267.357.254.254,0,0,1-.058.133.278.278,0,0,1-.077.09" transform="translate(3124.437 -9313.034)" fill="#f8f8f8"/>
    <path id="Path_38584" data-name="Path 38584" d="M504.19,76.6l-4.73-.691-.013,0-.025,0a.267.267,0,0,1-.177-.09.29.29,0,0,1,.024-.429l5.973-5.551.014-.01a.291.291,0,0,1,.43.024.384.384,0,0,1,.077.164.22.22,0,0,0,.006.052l-.006.038-.875,5.99.587.085a.3.3,0,1,1-.088.6l-.587-.086-.219,1.5a.309.309,0,0,1-.611-.09Zm.088-.6.747-5.116L500.147,75.4Z" transform="translate(3122.983 -9313.38)" fill="#f8f8f8"/>
    <path id="Path_38585" data-name="Path 38585" d="M518.076,79.453a.3.3,0,0,1,.063-.437.32.32,0,0,1,.449.065,2.365,2.365,0,0,0,1.549.915A2.367,2.367,0,0,0,522.811,78a2.354,2.354,0,0,0-3.74-2.228.3.3,0,0,1-.436-.064.2.2,0,0,1-.061-.111l0-.013a.046.046,0,0,1-.007-.039.236.236,0,0,1,0-.1c0-.012.018-.035.021-.059l.938-3.458a.266.266,0,0,1,.157-.206.288.288,0,0,1,.211-.046l4.069.594a.312.312,0,0,1,.266.358.3.3,0,0,1-.357.266l-3.806-.556-.691,2.551a2.967,2.967,0,0,1,1.543-.182,2.97,2.97,0,0,1,2.513,3.387,2.96,2.96,0,0,1-1.167,1.971,3.065,3.065,0,0,1-2.223.555,2.983,2.983,0,0,1-1.97-1.167" transform="translate(3119.907 -9313.695)" fill="#f8f8f8"/>
    <path id="Path_38586" data-name="Path 38586" d="M528.79,75.006a3.579,3.579,0,0,1,3.334-1.449.306.306,0,0,1,.27.332.331.331,0,0,1-.347.281,2.987,2.987,0,0,0-2.777,1.213,5.769,5.769,0,0,0-.879,1.656,2.9,2.9,0,1,1-1.016,1.89,4.5,4.5,0,0,1,.059-.577,7.282,7.282,0,0,1,1.356-3.346m-.8,3.962a.637.637,0,0,0,0,.166.187.187,0,0,1-.026.086,2.353,2.353,0,1,0,.032-.3Z" transform="translate(3118.382 -9313.999)" fill="#f8f8f8"/>
    <path id="Path_38587" data-name="Path 38587" d="M537.646,82.723,542,75.533l-4.218-.616a.3.3,0,0,1,.087-.6l4.618.675a.333.333,0,0,1,.185.038.346.346,0,0,1,.136.211.322.322,0,0,1,.011.1.255.255,0,0,1-.075.156l-4.556,7.542a.316.316,0,0,1-.3.147.232.232,0,0,1-.12-.044.334.334,0,0,1-.116-.425" transform="translate(3116.724 -9314.127)" fill="#f8f8f8"/>
    <path id="Path_38588" data-name="Path 38588" d="M548.707,75.935a1.833,1.833,0,0,1,.594,3.438,2.856,2.856,0,1,1-2.159-.315,1.864,1.864,0,0,1-.509-1.577,1.822,1.822,0,0,1,2.074-1.546m-1.188,8.136a2.258,2.258,0,1,0-1.907-2.561,2.248,2.248,0,0,0,1.907,2.561m.744-5.092a1.257,1.257,0,0,0,1.4-1.056,1.23,1.23,0,0,0-2.433-.356,1.246,1.246,0,0,0,1.03,1.412" transform="translate(3115.506 -9314.388)" fill="#f8f8f8"/>
    <path id="Path_38589" data-name="Path 38589" d="M567.335,78.643a2.9,2.9,0,0,1,2.5,2.965c.009.027.007.039.016.066-.022.239-.046.49-.085.752a7.309,7.309,0,0,1-1.345,3.36,3.649,3.649,0,0,1-3.334,1.45l-.013,0a.3.3,0,0,1-.27-.333.321.321,0,0,1,.347-.28,2.99,2.99,0,0,0,2.777-1.213,5.554,5.554,0,0,0,.88-1.656,2.929,2.929,0,0,1-4.773-2.66,2.912,2.912,0,0,1,3.3-2.449m1.865,3.2a2.3,2.3,0,1,0-2.616,1.937,2.288,2.288,0,0,0,2.616-1.937" transform="translate(3112.403 -9314.827)" fill="#f8f8f8"/>
    <path id="Path_38590" data-name="Path 38590" d="M573.317,83.991a5.629,5.629,0,0,1,1.283-2.936,2.5,2.5,0,0,1,4.367.638,5.742,5.742,0,0,1,.4,3.182,5.656,5.656,0,0,1-1.294,2.921,2.491,2.491,0,0,1-4.367-.638,5.549,5.549,0,0,1-.392-3.167m.612.09a5.008,5.008,0,0,0,.341,2.815,1.877,1.877,0,0,0,3.344.489,5.326,5.326,0,0,0,.792-5.416,1.878,1.878,0,0,0-3.345-.489,5.011,5.011,0,0,0-1.131,2.6" transform="translate(3110.894 -9315.061)" fill="#f8f8f8"/>
    <path id="Path_38591" data-name="Path 38591" d="M585.653,82.2l-1.341.544a.309.309,0,0,1-.157.027.306.306,0,0,1-.24-.187.292.292,0,0,1,.172-.4l1.834-.777a.32.32,0,0,1,.4.172.368.368,0,0,1,0,.23l-1.172,8.024a.3.3,0,0,1-.343.255.307.307,0,0,1-.256-.343Z" transform="translate(3109.157 -9315.282)" fill="#f8f8f8"/>
    <path id="Path_38592" data-name="Path 38592" d="M587.971,90.048l4.618-3.085a2.287,2.287,0,0,0,.992-1.562,2.275,2.275,0,0,0-1.919-2.562,2.3,2.3,0,0,0-1.607.351l-.481.326a.3.3,0,0,1-.348-.5l.483-.337a2.958,2.958,0,0,1,2.042-.454,2.9,2.9,0,0,1,2.429,3.261,2.9,2.9,0,0,1-1.245,1.985l-3.956,2.647,4.13.6a.31.31,0,0,1,.254.356.306.306,0,0,1-.343.255l-4.867-.711-.049-.007a.282.282,0,0,1-.212-.121.331.331,0,0,1,.078-.448" transform="translate(3108.512 -9315.413)" fill="#f8f8f8"/>
    <path id="Path_38593" data-name="Path 38593" d="M612.2,85.723l-2.6,1.99a2.961,2.961,0,0,1,1.936,3.24,2.947,2.947,0,0,1-1.18,1.969,3,3,0,0,1-2.224.567,2.941,2.941,0,0,1-1.956-1.178.312.312,0,0,1,.5-.372,2.369,2.369,0,0,0,1.55.914,2.4,2.4,0,0,0,1.757-.431,2.361,2.361,0,0,0,.929-1.559,2.369,2.369,0,0,0-1.993-2.675.325.325,0,0,1-.231-.161l-.012,0a.318.318,0,0,1,.065-.449l2.5-1.916-3.344-.489a.315.315,0,0,1,.091-.624l4.08.6a.312.312,0,0,1,.267.357.258.258,0,0,1-.058.131.3.3,0,0,1-.077.091" transform="translate(3105.531 -9315.796)" fill="#f8f8f8"/>
    <path id="Path_38594" data-name="Path 38594" d="M620.054,93.53l-4.73-.691-.013,0-.025,0a.259.259,0,0,1-.177-.09.29.29,0,0,1,.025-.429l5.972-5.551.014-.011a.293.293,0,0,1,.43.024.414.414,0,0,1,.078.165c0,.025.006.039.005.052l-.006.038-.875,5.99.587.085a.3.3,0,1,1-.088.6l-.587-.086-.219,1.5a.309.309,0,0,1-.612-.089Zm.087-.6.748-5.116-4.879,4.512Z" transform="translate(3104.076 -9316.143)" fill="#f8f8f8"/>
    <path id="Path_38595" data-name="Path 38595" d="M625,95.073a.3.3,0,0,1,.064-.437.32.32,0,0,1,.449.065,2.367,2.367,0,0,0,1.549.915,2.367,2.367,0,0,0,2.674-1.992,2.354,2.354,0,0,0-3.74-2.228.3.3,0,0,1-.436-.064.2.2,0,0,1-.061-.11l0-.013a.046.046,0,0,1-.007-.039.25.25,0,0,1,0-.1.5.5,0,0,0,.022-.06l.938-3.457a.27.27,0,0,1,.157-.208.292.292,0,0,1,.211-.045l4.069.595a.311.311,0,0,1,.266.357.306.306,0,0,1-.357.267l-3.806-.556-.691,2.55a2.976,2.976,0,0,1,1.543-.182,2.97,2.97,0,0,1,2.513,3.387,2.958,2.958,0,0,1-1.167,1.971,3.064,3.064,0,0,1-2.223.555A2.986,2.986,0,0,1,625,95.073" transform="translate(3102.459 -9316.245)" fill="#f8f8f8"/>
    <path id="Path_38596" data-name="Path 38596" d="M635.713,90.627a3.581,3.581,0,0,1,3.334-1.45.307.307,0,0,1,.27.333.331.331,0,0,1-.347.28A2.987,2.987,0,0,0,636.194,91a5.751,5.751,0,0,0-.88,1.655,2.9,2.9,0,1,1-1.016,1.89,4.508,4.508,0,0,1,.059-.577,7.276,7.276,0,0,1,1.356-3.346m-.8,3.962a.6.6,0,0,0,0,.165.193.193,0,0,1-.026.087,2.354,2.354,0,1,0,.032-.3Z" transform="translate(3100.935 -9316.548)" fill="#f8f8f8"/>
    <rect id="Rectangle_4806" data-name="Rectangle 4806" width="3.784" height="76.986" transform="matrix(0.145, -0.989, 0.989, 0.145, 3602.558, -9219.412)" fill="#37474f"/>
    <rect id="Rectangle_4807" data-name="Rectangle 4807" width="3.784" height="54.503" transform="matrix(0.145, -0.989, 0.989, 0.145, 3601.343, -9211.098)" fill="#37474f"/>
    <rect id="Rectangle_4808" data-name="Rectangle 4808" width="3.784" height="38.396" transform="matrix(0.145, -0.989, 0.989, 0.145, 3677.529, -9272.411)" fill="#37474f"/>
    <path id="Path_38597" data-name="Path 38597" d="M641.563,58.452l-.6-.819c-.115-.156-.231-.31-.347-.465A9.824,9.824,0,0,0,642.654,43.4c.151-.107.307-.214.459-.326.272-.2.543-.4.813-.6a.094.094,0,0,0,.016-.02l.017,0c.012.02.023.04.035.059.223.34.455.674.665,1.022A11.245,11.245,0,0,1,646.2,48.73c.016.469-.01.94-.023,1.41,0,.16-.152,1.182-.159,1.213-.07.311-.131.624-.212.932a10.813,10.813,0,0,1-.983,2.449,11.417,11.417,0,0,1-1.059,1.6,10.949,10.949,0,0,1-1.392,1.468c-.258.225-.527.436-.791.654l-.017,0" transform="translate(3099.901 -9308.928)" fill="#fff"/>
    <path id="Path_38598" data-name="Path 38598" d="M639.71,45.706,641,44.744a8.035,8.035,0,0,1,1.623,4.934,8.138,8.138,0,0,1-3.316,6.565c-.326-.44-.64-.868-.96-1.3a6.6,6.6,0,0,0,1.367-9.236" transform="translate(3100.271 -9309.302)" fill="#fff"/>
    <path id="Path_38599" data-name="Path 38599" d="M637,54.022l-.955-1.29a3.374,3.374,0,0,0,.7-4.732l1.287-.954A4.955,4.955,0,0,1,637,54.022" transform="translate(3100.646 -9309.678)" fill="#fff"/>
    <path id="Path_38600" data-name="Path 38600" d="M479.359,289.77a2.636,2.636,0,0,0,1.377,2.371,19.7,19.7,0,0,0,2.257,1.182,78.254,78.254,0,0,1,.04-8.063c.1-3.1.419-6.13.8-9.193,0-.046.076-.039.074.008-.161,3.1-.213,6.223-.291,9.326-.069,2.717.077,5.467-.009,8.185.8.331,1.62.621,2.444.881q-.069-1.421-.106-2.847c-.077-2.859.1-5.681.179-8.534a.048.048,0,1,1,.1,0c-.034,2.776.173,5.583.28,8.358q.06,1.605.146,3.21c.566.165,1.129.321,1.685.464.372.1.743.187,1.115.265-.03-1.874.047-3.765.066-5.6.034-2.971.254-5.926.334-8.9a.075.075,0,1,1,.15,0c-.061,2.955.075,5.927.083,8.883,0,1.9.093,3.847.086,5.775a44.8,44.8,0,0,0,15.135.316,67.648,67.648,0,0,0,8.626-1.82c.684-.188,2.43-.725,4.151-1.28-.008-.9.008-1.792-.011-2.659-.042-1.976.033-3.969-.064-5.941a.039.039,0,1,1,.078,0c.162,1.979.441,3.938.541,5.926.038.8.1,1.621.131,2.453.615-.2,1.207-.4,1.726-.582-.305-3.728-.172-7.525-.259-11.246a.061.061,0,1,1,.122,0c.256,3.647.735,7.34.793,11.015a6.258,6.258,0,0,0,1.138-.483c.841-.7-.161-15.441-.315-18.882-.285-6.413-1.833-32.513-3.922-38.613A18.966,18.966,0,0,0,506.806,221.7c-2.579-1.013-5.55-.667-8.273-.6-13.222.321-17.216,9.763-17.966,26.175-.29,6.343-.669,31.069-.978,37.417-.08,1.686-.249,3.4-.231,5.083" transform="translate(3126.215 -9338.061)" fill="#263238"/>
    <path id="Path_38601" data-name="Path 38601" d="M611.695,401.289c-.572-2.192-35.364-54.872-37.9-56.007-.289-.146-18.062,10.857-18.062,10.857-.761.89-32.628-8.013-32.628-8.013l-2.827,38.952,58.931,2.531s7.649,5.183,14.674,9.458c.013,0,.018.01.025.005a87.805,87.805,0,0,0,9.267,5.254c2.895.944,9.105-.855,8.519-3.038" transform="translate(3119.537 -9358.343)" fill="#eb9481"/>
    <path id="Path_38602" data-name="Path 38602" d="M608.527,404.327a85.721,85.721,0,0,1-9.265-5.255c-.009.008-.018,0-.028,0-7.022-4.273-14.671-9.463-14.671-9.463l-13.116-.56-18.378-34.4c4.449,1.086,7.775,1.781,8.019,1.495,0,0,17.766-11,18.058-10.852,2.535,1.132,37.325,53.81,37.9,56s-5.623,3.987-8.518,3.039" transform="translate(3114.187 -9358.344)" fill="#fff"/>
    <path id="Path_38603" data-name="Path 38603" d="M618.952,401.377c-.606-2.249-35.572-54.91-38.175-56.076-.985-.448-9.629,4.154-18.129,10.837l22.584,33.925S607.21,403.578,610.2,404.55s9.357-.924,8.751-3.172" transform="translate(3112.623 -9358.341)" fill="#6c63f8"/>
    <path id="Path_38604" data-name="Path 38604" d="M619.962,402.672c-6.078-8.684-29.774-44.282-35.122-53.328-.044-.074.005-.105.055-.037,6.213,8.475,29.619,44.265,35.212,53.269.118.19-.017.279-.145.1" transform="translate(3109.005 -9358.994)" fill="#263238"/>
    <path id="Path_38605" data-name="Path 38605" d="M614.22,411.259a8.512,8.512,0,0,1-1.351-6.712,8.244,8.244,0,0,1,3.4-5.1c.053-.034.119.063.07.106a9.837,9.837,0,0,0-2.013,11.635.066.066,0,0,1-.11.073" transform="translate(3104.462 -9367.18)" fill="#263238"/>
    <path id="Path_38606" data-name="Path 38606" d="M592.305,398.942c-2.395-3.5-3.868-8.425-2.436-12.54.055-.159.281-.078.3.063a58.557,58.557,0,0,0,2.614,12.249.267.267,0,0,1-.475.228" transform="translate(3108.273 -9365.038)" fill="#263238"/>
    <path id="Path_38607" data-name="Path 38607" d="M595.74,401.357c-2.395-3.5-3.868-8.425-2.436-12.54.055-.159.281-.078.3.063a58.627,58.627,0,0,0,2.615,12.249.267.267,0,0,1-.475.228" transform="translate(3107.713 -9365.433)" fill="#263238"/>
    <path id="Path_38608" data-name="Path 38608" d="M599.175,403.773c-2.4-3.5-3.868-8.425-2.436-12.54.055-.16.281-.078.3.063a58.587,58.587,0,0,0,2.614,12.249.267.267,0,0,1-.475.228" transform="translate(3107.152 -9365.827)" fill="#263238"/>
    <path id="Path_38609" data-name="Path 38609" d="M602.61,406.189c-2.395-3.5-3.868-8.425-2.436-12.54.055-.159.281-.078.3.063a58.587,58.587,0,0,0,2.614,12.249.267.267,0,0,1-.475.228" transform="translate(3106.592 -9366.222)" fill="#263238"/>
    <path id="Path_38610" data-name="Path 38610" d="M576.483,357.589c-2.621-3.972,3.548-8.051,6.173-4.073s-3.548,8.051-6.173,4.073" transform="translate(3110.469 -9359.421)" fill="#263238"/>
    <path id="Path_38611" data-name="Path 38611" d="M589.183,406.727c1.194-3.541.813-7.474.884-11.145a.518.518,0,0,0-.707-.446.112.112,0,0,0-.174-.043,22.25,22.25,0,0,0-6.9,9.209c-.807,2.126-.761,5.341,1.91,6.145,2.526.761,4.295-1.654,4.992-3.72m-2.818,2.107c-4.078,2.2-3.428-3.228-2.77-4.771a23.953,23.953,0,0,1,1.526-2.873,66.821,66.821,0,0,1,3.914-5.468c-.145,1.8-.134,3.6-.213,5.4-.093,2.151-.209,6.494-2.458,7.707" transform="translate(3109.494 -9366.467)" fill="#263238"/>
    <path id="Path_38612" data-name="Path 38612" d="M577.753,381.745c-2.122,1.808-.874,4.772.719,6.394a22.259,22.259,0,0,0,10.021,5.663.111.111,0,0,0,.142-.11A.518.518,0,0,0,589.1,393c-1.538-3.334-2.77-7.089-5.285-9.851-1.469-1.613-4.058-3.114-6.066-1.4m7.985,6.677c.8,1.622,1.508,3.272,2.364,4.864a66.578,66.578,0,0,1-5.779-3.436,23.82,23.82,0,0,1-2.552-2.018c-1.222-1.149-4-5.859.621-5.481,2.546.208,4.4,4.14,5.346,6.072" transform="translate(3110.342 -9364.17)" fill="#263238"/>
    <path id="Path_38613" data-name="Path 38613" d="M515.379,334.416s-49.557-22.658-71.655-22.378c-26.293.333-46.7,31.561-14.452,54.039,28.51,19.869,118.329,18.349,118.329,18.349L526.58,346.748a191.661,191.661,0,0,0-57.308-10.592l45.346,9.176Z" transform="translate(3137.087 -9352.918)" fill="#455a64"/>
    <path id="Path_38614" data-name="Path 38614" d="M522.3,346.052c-3.885-.984-7.844-1.645-11.787-2.354-3.976-.714-7.969-1.346-11.964-1.941a239.744,239.744,0,0,0-24.057-2.418c-.755-.035-1.51-.054-2.264-.075-.156-.064-.326-.1-.488-.154-.38-.118-.757-.238-1.142-.338-.716-.186-1.441-.339-2.164-.5-1.506-.331-3.023-.59-4.518-.971-.091-.023-.136.114-.044.14,1.5.436,2.967.972,4.469,1.4.433.124.866.247,1.3.364-2.959-.035-5.918,0-8.879.081-.093,0-.1.146-.009.146,4.019.022,8.057.252,12.063.577,3.979.324,7.953.667,11.916,1.151,8.015.978,16.008,2.216,23.967,3.57,4.465.759,8.938,1.607,13.443,2.086.436.047.595-.659.156-.77" transform="translate(3129.262 -9357.041)" fill="#263238"/>
    <path id="Path_38615" data-name="Path 38615" d="M559.308,389.2c-1.291-2.394-2.36-4.93-3.525-7.388s-2.337-4.932-3.51-7.4c-2.34-4.915-10.807-21.484-11.673-22.662-.054-.074-.182,0-.156.083.367,1.264,5.613,12.212,6.826,14.655,2.424,4.888,4.993,9.691,7.52,14.526.721,1.381,1.472,2.745,2.206,4.12s1.519,2.727,2.183,4.132c.04.085.175.014.13-.069" transform="translate(3116.247 -9359.394)" fill="#263238"/>
    <path id="Path_38616" data-name="Path 38616" d="M423.2,401.557c.644-2.172,37.177-53.661,39.748-54.711.293-.136,17.689,11.454,17.689,11.454.731.915,32.878-6.919,32.878-6.919l1.525,39.024-58.982.562s-7.817,4.926-14.982,8.962c-.013,0-.018.009-.025,0a87.811,87.811,0,0,1-9.438,4.942c-2.925.847-9.072-1.159-8.413-3.321" transform="translate(3135.386 -9358.598)" fill="#eb9481"/>
    <path id="Path_38617" data-name="Path 38617" d="M431.612,404.878a85.992,85.992,0,0,0,9.435-4.943c.01.009.019,0,.028,0,7.16-4.037,14.979-8.968,14.979-8.968l13.127-.122L488.7,357.072c-4.483.937-7.83,1.52-8.065,1.226,0,0-17.388-11.59-17.685-11.449-2.572,1.048-39.1,52.535-39.748,54.707s5.485,4.173,8.411,3.322" transform="translate(3135.386 -9358.598)" fill="#fff"/>
    <path id="Path_38619" data-name="Path 38619" d="M425.848,403.012c6.365-8.476,31.236-43.264,36.883-52.126.046-.072,0-.105-.054-.039-6.492,8.263-31.081,43.251-36.971,52.064-.125.186.008.28.141.1" transform="translate(3134.978 -9359.246)" fill="#263238"/>
    <path id="Path_38620" data-name="Path 38620" d="M437.813,411.762a8.515,8.515,0,0,0,1.574-6.664,8.243,8.243,0,0,0-3.231-5.213c-.053-.034-.121.059-.074.1a9.838,9.838,0,0,1,1.623,11.7.066.066,0,0,0,.108.077" transform="translate(3133.279 -9367.252)" fill="#263238"/>
    <path id="Path_38621" data-name="Path 38621" d="M460.086,400.2c2.51-3.419,4.147-8.291,2.854-12.451-.05-.162-.279-.088-.3.053a58.655,58.655,0,0,1-3.023,12.155.267.267,0,0,0,.468.244" transform="translate(3129.438 -9365.259)" fill="#263238"/>
    <path id="Path_38622" data-name="Path 38622" d="M456.572,402.5c2.51-3.419,4.147-8.291,2.854-12.452-.05-.161-.279-.087-.3.054a58.606,58.606,0,0,1-3.023,12.155.267.267,0,0,0,.468.244" transform="translate(3130.012 -9365.633)" fill="#263238"/>
    <path id="Path_38623" data-name="Path 38623" d="M453.058,404.8c2.51-3.418,4.147-8.291,2.854-12.451-.05-.162-.279-.088-.3.053a58.553,58.553,0,0,1-3.023,12.155.267.267,0,0,0,.468.244" transform="translate(3130.585 -9366.009)" fill="#263238"/>
    <path id="Path_38624" data-name="Path 38624" d="M449.544,407.1c2.51-3.418,4.147-8.291,2.854-12.451-.05-.162-.279-.088-.3.053a58.654,58.654,0,0,1-3.023,12.155.267.267,0,0,0,.468.243" transform="translate(3131.159 -9366.384)" fill="#263238"/>
    <path id="Path_38625" data-name="Path 38625" d="M476.566,359.378c2.751-3.882-3.277-8.166-6.033-4.277s3.277,8.166,6.033,4.277" transform="translate(3127.769 -9359.695)" fill="#263238"/>
    <path id="Path_38626" data-name="Path 38626" d="M466.93,411.928c2.7-.714,2.85-3.926,2.114-6.077a22.256,22.256,0,0,0-6.592-9.435.111.111,0,0,0-.176.038.517.517,0,0,0-.721.422c-.053,3.671-.565,7.59.51,11.167.628,2.09,2.315,4.561,4.864,3.885m-4.317-9.47c-.018-1.806.053-3.6-.032-5.408a66.575,66.575,0,0,1,3.729,5.595,24.078,24.078,0,0,1,1.43,2.922c.605,1.564,1.074,7.012-2.928,4.676-2.207-1.288-2.177-5.633-2.2-7.786" transform="translate(3129.147 -9366.683)" fill="#263238"/>
    <path id="Path_38627" data-name="Path 38627" d="M467.338,384.684c-2.607,2.677-3.962,6.389-5.611,9.669a.518.518,0,0,0,.445.708.111.111,0,0,0,.138.114,22.256,22.256,0,0,0,10.205-5.324c1.646-1.568,2.992-4.489.931-6.367-1.95-1.777-4.587-.363-6.109,1.2M470.79,384c4.628-.224,1.7,4.392.438,5.5a23.987,23.987,0,0,1-2.618,1.932,66.585,66.585,0,0,1-5.891,3.24c.909-1.562,1.675-3.187,2.525-4.782,1.013-1.9,2.995-5.767,5.546-5.89" transform="translate(3129.1 -9364.442)" fill="#263238"/>
    <path id="Path_38628" data-name="Path 38628" d="M524.224,335.4s49.849-15.4,76.521-12.408c26.131,2.929,37.08,35.592,11.747,53.517-27.663,19.573-132.381,13.542-132.381,13.542l22.067-40.176s35.58-8.641,68.09-8.547l-45.626,7.656Z" transform="translate(3126.092 -9354.644)" fill="#455a64"/>
    <path id="Path_38629" data-name="Path 38629" d="M504.721,355.555a.861.861,0,0,0,.043-.2l.035-.166c.028-.129.059-.257.09-.385a7.977,7.977,0,0,1,.246-.781c.093-.258.2-.51.3-.762a5.749,5.749,0,0,1,.414-.71c.014-.024.04-.029.06-.045a.245.245,0,0,1,.041-.03.208.208,0,0,1,.057-.026.316.316,0,0,1,.059-.026c3.915-.854,30.559-5.507,34.524-6.084,4-.581,8.01-1.079,12.023-1.54a239.659,239.659,0,0,1,24.124-1.613c.756-.011,1.51,0,2.265,0,.157-.058.329-.092.492-.137.384-.1.765-.212,1.153-.3.722-.162,1.452-.291,2.18-.426,1.516-.279,3.04-.488,4.547-.818.092-.02.132.118.04.141-1.514.385-3,.872-4.514,1.252-.437.11-.874.218-1.313.321,2.959.064,5.915.2,8.87.377.093.005.1.149.005.146-4.018-.112-8.06-.018-12.075.174-3.987.19-7.971.4-11.948.752-8.044.71-16.073,1.68-24.073,2.767-4.489.61-31.652,5.432-36.17,5.761a.415.415,0,0,1-.056-.007,2.718,2.718,0,0,1-.115.313c-.116.249-.233.5-.361.741s-.242.468-.382.694c-.07.112-.14.224-.212.335l-.108.167a.858.858,0,0,0-.112.174.073.073,0,1,1-.135-.056" transform="translate(3122.078 -9357.726)" fill="#263238"/>
    <path id="Path_38630" data-name="Path 38630" d="M490.058,392.849c1.37-2.35,2.524-4.849,3.769-7.267s2.5-4.851,3.755-7.274c2.5-4.834,11.518-21.112,12.423-22.26.057-.072.181,0,.154.089-.41,1.25-6.018,12.017-7.311,14.419-2.587,4.8-5.315,9.519-8,14.266-.768,1.356-1.564,2.7-2.343,4.044s-1.609,2.674-2.32,4.057c-.043.084-.174.008-.126-.074" transform="translate(3124.47 -9360.095)" fill="#263238"/>
    <path id="Path_38631" data-name="Path 38631" d="M500.394,278.121c-7.245,12.1-18.621,34.1-21.488,35.994-10.387,6.847-27.221,20.319-30.345,23.664-4.02,4.3,17.3,23.446,20.268,20.7,2.127-1.968,25.657-20.454,32.124-32.044,4.192-7.512,7.39-30.649,8.773-44.515,1.229-12.315-4.468-11.921-9.332-3.8" transform="translate(3131.322 -9346.435)" fill="#eb9481"/>
    <path id="Path_38632" data-name="Path 38632" d="M466.707,367.049a86.773,86.773,0,0,1-9.306,7.979c-2.669,1.782-10.487,6.707-12.741,3.965-1.539-1.869,2.717-5.306,5.673-7.8,1.557-1.316,3.173-3.895,2.279-4.88-1.562-1.723-5.54,1.765-8.018,4.492-4.791,5.273-10.669,13.894-15.2,12.051-1.71-.7-.787-3.247.88-5.987-2.994,3.528-6.373,6.714-8.3,6.014a2.07,2.07,0,0,1-1.285-2.536,2.744,2.744,0,0,1-3.028.464c-1.617-.886-1.62-2.951-.9-5.3a1.521,1.521,0,0,1-1.333-.375c-3.816-3.108,5.494-18.45,9.613-20.916a118.215,118.215,0,0,1,26.107-11.061c6.449,2.482,15.572,23.876,15.565,23.889" transform="translate(3136.794 -9357.996)" fill="#eb9481"/>
    <path id="Path_38633" data-name="Path 38633" d="M446.625,364.587a23.341,23.341,0,0,0-7.674,6.133c-2.627,3.245-4.018,6.51-5.986,9.977a.082.082,0,0,0,.141.083c.939-1.648,4.978-8.011,6.067-9.51a22.219,22.219,0,0,1,7.48-6.633c.033-.017,0-.065-.028-.049" transform="translate(3133.787 -9361.492)" fill="#263238"/>
    <path id="Path_38634" data-name="Path 38634" d="M440.617,358.868a55.646,55.646,0,0,0-9.053,6.744c-2.933,2.891-4.749,6.664-6.555,10.314q-1.627,3.287-3.105,6.644c-.041.094.094.179.14.083q2.724-5.631,5.784-11.094a29.383,29.383,0,0,1,7.422-8.782c1.733-1.375,3.567-2.615,5.4-3.852.035-.023,0-.079-.032-.057" transform="translate(3135.591 -9360.559)" fill="#263238"/>
    <path id="Path_38635" data-name="Path 38635" d="M434.6,354.451c-3.128,1.747-5.861,3.259-8.255,5.992A50.167,50.167,0,0,0,419.78,371.1c-.972,2.032-1.874,4.093-2.745,6.168-.036.085.11.149.148.064a116.47,116.47,0,0,1,7.005-13.342,23.182,23.182,0,0,1,4.53-5.52,41.831,41.831,0,0,1,5.9-3.995.012.012,0,0,0-.013-.021" transform="translate(3136.385 -9359.839)" fill="#263238"/>
    <path id="Path_38636" data-name="Path 38636" d="M453.167,331.459l22.457,25.668s20.892-21.215,27.164-30.44c2.618-3.853,7.9-33.234,8.656-42.885.926-11.786-3.7-17.272-10.253-7.047-5.671,8.855-20.737,34.949-21.639,35.593s-26.385,19.11-26.385,19.11" transform="translate(3130.489 -9346.284)" fill="#6c63f8"/>
    <path id="Path_38637" data-name="Path 38637" d="M461.909,341.534c9.029,8.422,17.254,18.65,18.813,20.331.074.08-.062.19-.132.105-1.444-1.729-12.1-12.393-18.826-20.32-.078-.092.058-.2.145-.116" transform="translate(3129.089 -9357.727)" fill="#263238"/>
    <g id="Group_37093" data-name="Group 37093" transform="translate(3593.881 -9074.907)" opacity="0.1">
      <g id="Group_37092" data-name="Group 37092" transform="translate(0 0)">
        <g id="Group_37091" data-name="Group 37091" clip-path="url(#clip-path-11)">
          <path id="Path_38638" data-name="Path 38638" d="M513.435,283.8c-.757,9.655-6.032,39.034-8.655,42.881-6.268,9.227-27.162,30.441-27.162,30.441l-12.231-13.975,42.842-71.528c3.691-1.46,5.868,3.751,5.206,12.181" transform="translate(-465.387 -271.376)"/>
        </g>
      </g>
    </g>
    <path id="Path_38639" data-name="Path 38639" d="M563.77,326.568l-63.358,8.113.906-20.651s-5.655-3.892-3.592-12.716c1.351-5.773,8.808-19.777,12.711-25.692,9.509-14.409,17.926-7.889,21.346-4.834,13.057,11.666,31.987,55.78,31.987,55.78" transform="translate(3123.291 -9345.511)" fill="#6c63f8"/>
    <g id="Group_37096" data-name="Group 37096" transform="translate(3620.565 -9077.96)" opacity="0.1">
      <g id="Group_37095" data-name="Group 37095" transform="translate(0 0)">
        <g id="Group_37094" data-name="Group 37094" clip-path="url(#clip-path-12)">
          <path id="Path_38640" data-name="Path 38640" d="M516.639,268.985l10.368-1.256c.414.186.821.383,1.2.6l-12.7,1.533a13.94,13.94,0,0,1,1.13-.873m-6.4,7.12,23.8-2.879c-.209-.236-.415-.452-.621-.669l-22.628,2.726-.35.517c-.064.1-.126.2-.2.3m-3.6,6.028,31.467-3.8c-.158-.236-.325-.459-.49-.684l-30.526,3.689c-.153.265-.3.528-.45.793m-3.221,5.994,38.185-4.615c-.146-.228-.295-.465-.441-.694l-37.326,4.511c-.143.263-.284.536-.418.8m-2.882,5.95,44.254-5.349c-.138-.24-.275-.469-.411-.7l-43.485,5.251c-.121.27-.244.539-.357.8m-2.362,5.889,49.6-5.992c-.127-.232-.265-.472-.392-.7l-48.946,5.908c-.1.274-.192.537-.267.787m-.882,5.706,53.312-6.444c-.116-.233-.243-.464-.372-.706l-52.954,6.4c0,.256,0,.512.013.754m1.074,4.714a7.439,7.439,0,0,0,.361.708l54.594-6.59c-.116-.233-.233-.465-.361-.707Zm2.859,6.008,54.713-6.613c-.116-.233-.223-.468-.341-.7l-54.332,6.57Zm-.242,5.633,57.494-6.946c-.107-.235-.224-.468-.342-.711l-57.122,6.9Zm-.253,5.625,60.2-7.274c-.105-.227-.212-.462-.32-.707l-59.842,7.236Zm-.242,5.633,62.821-7.595c-.091-.208-.2-.443-.31-.707l-62.482,7.551Z" transform="translate(-497.274 -267.728)"/>
        </g>
      </g>
    </g>
    <path id="Path_38641" data-name="Path 38641" d="M520.505,321.224a56.485,56.485,0,0,0-8.322.783c-1.365.251-2.708.563-4.051.9-.67.171-1.341.318-2.017.463a8.9,8.9,0,0,1-2.148.253.05.05,0,0,0-.005.1,15.176,15.176,0,0,0,2.044.1,14.6,14.6,0,0,0,1.972-.232c1.386-.241,2.761-.546,4.144-.8,2.791-.515,5.58-1.029,8.4-1.341.13-.015.113-.235-.018-.231" transform="translate(3122.207 -9354.417)" fill="#263238"/>
    <path id="Path_38642" data-name="Path 38642" d="M529.031,324.557a61.175,61.175,0,0,0-6.852-.807c-1.15-.065-2.295-.064-3.446-.033-.55.015-1.1.04-1.648.072-.6.035-1.205.151-1.808.177-.063,0-.069.1-.005.1.57-.008,1.144.079,1.715.105s1.146.048,1.718.073c1.147.052,2.293.115,3.44.156,2.3.081,4.583.185,6.876.345.124.009.126-.168.01-.188" transform="translate(3120.362 -9354.821)" fill="#263238"/>
    <path id="Path_38643" data-name="Path 38643" d="M522.6,265.872c.238,1.185-1.709,10.466-6.709,12.466-1.63.649-5.567-8.088-5.567-8.088l-.438-.578-6.126-8.1,7.5-11.627,1.121-1.6s1.53,2.328,3.406,5.244c.088.136.176.27.268.416.11.162.216.314.312.47.286.432.576.874.856,1.321.213.339.424.668.636,1.033s.43.714.652,1.074a65.361,65.361,0,0,1,4.089,7.969" transform="translate(3122.232 -9342.525)" fill="#eb9481"/>
    <path id="Path_38644" data-name="Path 38644" d="M515.79,253.589a20.376,20.376,0,0,1-5.9,16.082l-6.126-8.1,7.5-11.626,1.121-1.6s1.53,2.327,3.406,5.244" transform="translate(3122.232 -9342.525)" fill="#263238"/>
    <path id="Path_38645" data-name="Path 38645" d="M484.363,244.388c.613,17.818,11.353,19.463,15.2,19.326,3.488-.124,15.347-.988,16.579-18.773s-7.246-23.133-15.237-23.272-17.15,4.9-16.537,22.719" transform="translate(3125.403 -9338.171)" fill="#eb9481"/>
    <path id="Path_38646" data-name="Path 38646" d="M488.174,248.157a11.842,11.842,0,0,0,1.118-.515,1.992,1.992,0,0,0,1.04-.743.634.634,0,0,0-.173-.755,1.573,1.573,0,0,0-1.593-.014,2.311,2.311,0,0,0-1.233,1.118.677.677,0,0,0,.841.909" transform="translate(3124.925 -9342.129)" fill="#263238"/>
    <path id="Path_38647" data-name="Path 38647" d="M501.673,246.283a11.847,11.847,0,0,1-1.231-.034,1.988,1.988,0,0,1-1.249-.274.635.635,0,0,1-.138-.762,1.575,1.575,0,0,1,1.459-.639,2.309,2.309,0,0,1,1.573.544.677.677,0,0,1-.415,1.166" transform="translate(3123.012 -9341.909)" fill="#263238"/>
    <path id="Path_38648" data-name="Path 38648" d="M491.743,253.451c-.018-.044-.083.074-.073.122.255,1.187.347,2.591-.661,3.183-.031.018-.017.078.023.065,1.284-.425,1.143-2.287.711-3.371" transform="translate(3124.316 -9343.356)" fill="#263238"/>
    <path id="Path_38649" data-name="Path 38649" d="M490.1,252.193c-1.947.2-1.4,4.084.407,3.895,1.776-.186,1.226-4.065-.407-3.895" transform="translate(3124.661 -9343.151)" fill="#263238"/>
    <path id="Path_38650" data-name="Path 38650" d="M489.016,252.631c-.277.249-.527.666-.89.742-.421.088-.794-.288-1.122-.651-.034-.039-.06,0-.054.05.085.745.44,1.482,1.172,1.524.668.038,1.055-.667,1.127-1.43.013-.142-.121-.336-.233-.235" transform="translate(3124.976 -9343.22)" fill="#263238"/>
    <path id="Path_38651" data-name="Path 38651" d="M500.016,252.161c0-.047.1.04.111.09.167,1.2.561,2.552,1.711,2.764.036.006.043.067,0,.068-1.353.041-1.858-1.756-1.823-2.922" transform="translate(3122.844 -9343.146)" fill="#263238"/>
    <path id="Path_38652" data-name="Path 38652" d="M500.869,250.444c1.9-.476,2.712,3.357.952,3.8-1.731.434-2.545-3.4-.952-3.8" transform="translate(3122.844 -9342.861)" fill="#263238"/>
    <path id="Path_38653" data-name="Path 38653" d="M502.024,250.428c.346.139.724.444,1.09.392.426-.061.648-.541.832-1,.019-.048.056-.022.068.029.176.728.1,1.542-.579,1.833-.614.264-1.22-.264-1.549-.957-.061-.129,0-.356.138-.3" transform="translate(3122.542 -9342.762)" fill="#263238"/>
    <path id="Path_38654" data-name="Path 38654" d="M501.943,263.047c-.2.355-.367.812-.78.971a3.217,3.217,0,0,1-1.338.074.042.042,0,0,0-.033.074,1.635,1.635,0,0,0,1.664.2,1.293,1.293,0,0,0,.614-1.3c0-.073-.1-.071-.127-.02" transform="translate(3122.883 -9344.918)" fill="#263238"/>
    <path id="Path_38655" data-name="Path 38655" d="M494.795,257.046s.166,1.823.358,2.657c.018.078.228.067.515.018.014,0,.023.005.033-.006a4.066,4.066,0,0,0,3.5-2.372c.038-.094-.087-.156-.151-.086a6.11,6.11,0,0,1-3.376,1.874c-.112-.217-.179-3.131-.314-3.11a7.553,7.553,0,0,0-1.792.867c-.454-3.786-.3-7.614-.807-11.378a.116.116,0,0,0-.229,0,61.735,61.735,0,0,0,.347,12.293c.041.49,1.612-.533,1.912-.752" transform="translate(3124.096 -9342.046)" fill="#263238"/>
    <path id="Path_38656" data-name="Path 38656" d="M496.351,261.6a4.957,4.957,0,0,0,2.2,1.21,2.226,2.226,0,0,0,1.349-.126c.927-.406.812-1.3.515-2.028a5.339,5.339,0,0,0-.615-1.094,6.413,6.413,0,0,1-3.445,2.038" transform="translate(3123.442 -9344.356)" fill="#263238"/>
    <path id="Path_38657" data-name="Path 38657" d="M498.974,263.028a2.225,2.225,0,0,0,1.349-.126c.927-.406.812-1.3.515-2.028a2.3,2.3,0,0,0-1.864,2.154" transform="translate(3123.014 -9344.569)" fill="#ff9bbc"/>
    <path id="Path_38658" data-name="Path 38658" d="M515.672,246.369c-3.3.941-5.342-6.628-5.342-6.628s-14.7-.226-17.706-11.7a19.965,19.965,0,0,1-8.3,12.331s-1.464-12.864,8.291-16.906c0,0,11.876-6.513,20.484,2.382s4.784,19.893,2.572,20.525" transform="translate(3125.417 -9338.089)" fill="#263238"/>
    <path id="Path_38659" data-name="Path 38659" d="M494.039,228.358a12.836,12.836,0,0,0,1.458,5.226,13.373,13.373,0,0,0,3.428,4.295,11.5,11.5,0,0,0,1.115.819l.569.394c.2.115.405.22.61.325.412.206.816.429,1.233.618.429.161.863.314,1.3.461.217.072.43.155.649.218l.669.146,1.334.29c.9.108,1.808.169,2.705.217-.878-.233-1.762-.372-2.622-.61l-1.274-.395-.635-.2c-.206-.079-.406-.177-.609-.264-.4-.181-.807-.356-1.214-.522-.392-.2-.767-.429-1.151-.641l-.572-.321-.534-.382a11.07,11.07,0,0,1-1.045-.789,15.345,15.345,0,0,1-3.4-3.969,15.947,15.947,0,0,1-1.185-2.371,15.452,15.452,0,0,1-.822-2.551" transform="translate(3123.819 -9339.263)" fill="#263238"/>
    <path id="Path_38660" data-name="Path 38660" d="M521.626,254.564a3.7,3.7,0,0,1-.772.361,2.735,2.735,0,0,1-.823.177,2.463,2.463,0,0,1-1.071-.139,2.916,2.916,0,0,1-.757-.387,3.439,3.439,0,0,1-.849-.86l.1-4.863s2.809-6.183,5.541-5.28,1.349,9.367-1.365,10.992" transform="translate(3120.014 -9341.73)" fill="#eb9481"/>
    <path id="Path_38661" data-name="Path 38661" d="M522.828,246.472c.046-.013.068.051.03.075-1.889,1.208-2.611,3.3-3,5.409a1.663,1.663,0,0,1,2.364-.9c.06.028.025.121-.034.12a1.853,1.853,0,0,0-1.888,1.01,8.968,8.968,0,0,0-.659,1.8c-.061.2-.409.164-.379-.059,0-.016.006-.033.008-.05-.538-2.6.807-6.619,3.555-7.4" transform="translate(3119.72 -9342.219)" fill="#263238"/>
    <path id="Path_38662" data-name="Path 38662" d="M525.21,280.546c-1.167,14.053-2.6,37.413-4.741,40.1-7.744,9.736-19.555,27.774-21.484,31.924-2.483,5.341,23.732,16.905,25.7,13.373,1.41-2.531,18.026-27.417,20.569-40.443,1.648-8.444-4.838-31.066-8.912-44.392-3.941-12.891-10.378-9.616-11.131-.564" transform="translate(3123.039 -9346.478)" fill="#eb9481"/>
    <path id="Path_38663" data-name="Path 38663" d="M491.9,366.916c-7.1,5.441-8.083,7.928-16.511,9.339-5.531.926-7.312,4.855-1.772,6.678,9.061,2.981,19.691-2.116,22.868-4.945Z" transform="translate(3127.702 -9361.873)" fill="#eb9481"/>
    <path id="Path_38664" data-name="Path 38664" d="M516.162,354.049s-10.922,3.208-19.059,8.257c-5.626,3.493-17.019,12.455-16.575,32.217.105,4.687,3.579,11.29,6.187,3.573,1.853-5.482,1.371-9.519,3.029-12.511,0,0,5.416,7.876,10.107,7.587a86.444,86.444,0,0,0,12.206-1.628,18.045,18.045,0,0,0-.1-2.311,21.634,21.634,0,0,0,9.738-9.991Z" transform="translate(3126.026 -9359.773)" fill="#eb9481"/>
    <path id="Path_38665" data-name="Path 38665" d="M494.02,368.924c-1.018,3.319-3.057,10.387-2.714,16.75.381,7.068,3.019,20.579,8.234,20.244,3.823-.245,3.269-5.493,3.269-5.493s2.268,5.355,5.673,4.377c3.1-.89,2.432-4.924,2.432-4.924s1.934,3.012,4.757,1.578c3.4-1.725-1.214-7.754.717-12.473.433-1.059-22.368-20.06-22.368-20.06" transform="translate(3124.271 -9362.201)" fill="#eb9481"/>
    <path id="Path_38666" data-name="Path 38666" d="M500.136,386.965a28.19,28.19,0,0,0,3.97,16.336c.08.121.214.126.165,0a69.447,69.447,0,0,1-4.068-16.339c-.005-.038-.062-.033-.067,0" transform="translate(3122.841 -9365.14)" fill="#263238"/>
    <path id="Path_38667" data-name="Path 38667" d="M508.7,386.753c-.094,2.868,1.187,10.767,4.937,16.069.085.119.219.115.165-.009a74.489,74.489,0,0,1-5.036-16.068c-.007-.038-.065-.029-.066.008" transform="translate(3121.428 -9365.104)" fill="#263238"/>
    <path id="Path_38668" data-name="Path 38668" d="M489.734,391.682c-1.421,2.652-1.731,4.983-2.237,7.905a39.67,39.67,0,0,1-.933,4.3c-.373,1.285-.905,3.193-2.494,3.387A2.369,2.369,0,0,1,482.017,406a11.565,11.565,0,0,1-1.225-3.435c-.008-.046-.087-.034-.08.013a16.483,16.483,0,0,0,.865,3.289A3.845,3.845,0,0,0,483,407.631c1.431.815,2.9-.375,3.519-1.628a12.587,12.587,0,0,0,.812-2.39c.206-.78.373-1.57.521-2.362.3-1.628.512-3.272.8-4.9a37.351,37.351,0,0,1,1.187-4.628c.017-.059-.071-.09-.1-.037" transform="translate(3125.994 -9365.91)" fill="#263238"/>
    <path id="Path_38669" data-name="Path 38669" d="M494.483,403.114a90.123,90.123,0,0,1-2.9-11.428.041.041,0,0,0-.082,0,47.033,47.033,0,0,0,2.136,11.525,15.8,15.8,0,0,0,3.074,5.548c2.147,2.118,3.959,1.095,4.583.671a3.912,3.912,0,0,0,1.5-2.122,7.883,7.883,0,0,0,.076-3.192c-.008-.051-.086-.051-.082,0,.112,1.578-.272,3.638-1.576,4.654a2.741,2.741,0,0,1-2.026.622,3.543,3.543,0,0,1-2.068-1.362,16.482,16.482,0,0,1-2.641-4.921" transform="translate(3124.233 -9365.908)" fill="#263238"/>
    <path id="Path_38670" data-name="Path 38670" d="M501.009,345.287,530.334,362.7s13.261-26.659,16.354-37.377c1.291-4.475-5.761-33.525-8.517-42.806-3.044-10.254-9.562-17.99-13.008-3.454-2.427,10.233-4.359,38.963-5.017,39.856s-19.136,26.367-19.136,26.367" transform="translate(3122.681 -9346.229)" fill="#6c63f8"/>
    <path id="Path_38671" data-name="Path 38671" d="M547.348,345.247c2.075-5.364,4.906-11.592,6.424-17.081.5-3.545-.329-7.228-.859-10.761-1.241-7.2-2.915-14.345-4.577-21.468l-1.682-7.132c1.453,4.667,2.746,9.382,3.946,14.121s2.253,9.517,3.131,14.337c.534,3.652,1.326,7.348.754,11.065-1.761,5.886-4.52,11.392-7.138,16.918" transform="translate(3115.233 -9349.127)" fill="#263238"/>
    <path id="Path_38672" data-name="Path 38672" d="M548.271,294.738c-.229-1.644-.061-3.336-.264-4.972a7.631,7.631,0,0,1,.264,4.972" transform="translate(3115.012 -9349.283)" fill="#263238"/>
    <path id="Path_38673" data-name="Path 38673" d="M509.026,355.114c11.063,5.484,21.872,12.927,23.847,14.091.094.055,0,.2-.1.139-1.879-1.243-15.142-8.409-23.857-14.078-.1-.065,0-.2.105-.152" transform="translate(3121.397 -9359.945)" fill="#263238"/>
    <path id="Path_38674" data-name="Path 38674" d="M509.97,337.772c3.566-5.407,7.241-10.731,10.979-16.017a3.338,3.338,0,0,0,.431-1.375c.288-1.581.489-3.182.692-4.78.823-6.174,1.572-13.046,2.352-19.264l.839-6.42c-.11,2.156-.282,4.308-.428,6.462-.505,6.273-1.153,13.121-1.936,19.331-.37,2.062-.426,4.377-1.212,6.318-3.828,5.305-7.716,10.566-11.717,15.745" transform="translate(3121.219 -9349.309)" fill="#263238"/>
    <path id="Path_38675" data-name="Path 38675" d="M526.885,291.016c.309,1.766.259,3.605.6,5.358a8.442,8.442,0,0,1-.6-5.358" transform="translate(3118.486 -9349.487)" fill="#263238"/>
    <rect id="Rectangle_4811" data-name="Rectangle 4811" width="75.886" height="3.399" transform="matrix(1, -0.007, 0.007, 1, 3563.717, -8956.412)" fill="#c7c7c7"/>
    <path id="Path_38676" data-name="Path 38676" d="M429.34,412.91l.024,3.4,51.582-.369-2.624-3.38Z" transform="translate(3134.376 -9369.321)" fill="#a6a6a6"/>
    <path id="Path_38677" data-name="Path 38677" d="M463.652,407.565l-66.416.475-9.946-46.789,66.417-.475Z" transform="translate(3141.238 -9360.871)" fill="#a6a6a6"/>
    <path id="Path_38678" data-name="Path 38678" d="M459.943,407.592l-66.416.476-9.946-46.79L450,360.8Z" transform="translate(3141.844 -9360.876)" fill="#c7c7c7"/>
    <path id="Path_38679" data-name="Path 38679" d="M422.037,386.35a4.673,4.673,0,0,0,3.343,4.7c1.9.382,3.483-1.1,3.536-3.317a4.671,4.671,0,0,0-3.342-4.7c-1.9-.382-3.483,1.1-3.536,3.317" transform="translate(3135.568 -9364.493)" fill="#fff"/>
    <rect id="Rectangle_4812" data-name="Rectangle 4812" width="556.958" height="349.192" transform="translate(3204.436 -9302)" fill="none"/>
    <rect id="Rectangle_4813" data-name="Rectangle 4813" width="556.958" height="349.192" transform="translate(3204.436 -9302)" fill="none"/>
  </g>
</svg>
