<svg xmlns="http://www.w3.org/2000/svg" xmlns:xlink="http://www.w3.org/1999/xlink" width="51" height="53" viewBox="0 0 51 53">
  <defs>
    <clipPath id="clip-path">
      <rect id="Rectangle_7282" data-name="Rectangle 7282" width="34.308" height="34.374" fill="none"/>
    </clipPath>
  </defs>
  <g id="Group_40813" data-name="Group 40813" transform="translate(-177 -3141)">
    <circle id="Ellipse_606" data-name="Ellipse 606" cx="21.5" cy="21.5" r="21.5" transform="translate(185 3141)" fill="#e58a8a"/>
    <g id="Group_40781" data-name="Group 40781" transform="translate(177 3159.625)">
      <g id="Group_40780" data-name="Group 40780" clip-path="url(#clip-path)">
        <path id="Path_84459" data-name="Path 84459" d="M1.609,0A10.713,10.713,0,0,1,4.464,2.185,13.708,13.708,0,0,1,6.589,4.9,4.986,4.986,0,0,0,8.4,6.5a7.445,7.445,0,0,0,3.948,1.09q7.722-.008,15.445,0a6.648,6.648,0,0,1,6.385,5.316,6.529,6.529,0,0,1-.074,2.891c-.6,2.382-1.183,4.769-1.8,7.147A7.981,7.981,0,0,1,24.56,29q-5.193.032-10.386,0A8.032,8.032,0,0,1,6.191,22.16a8.22,8.22,0,0,1-.089-1.3c-.008-2.651.008-5.3-.007-7.954A12.1,12.1,0,0,0,.66,2.51a1.808,1.808,0,0,1-.66-.9V1.074A1.584,1.584,0,0,1,1.072,0ZM8.467,9.581c0,.025,0,.067.008.109.1,1.1.272,2.2.29,3.3.043,2.618.011,5.236.015,7.855a5.357,5.357,0,0,0,5.445,5.47q5.093.013,10.187,0a5.355,5.355,0,0,0,5.349-4.21c.46-1.842.931-3.682,1.384-5.526a13.421,13.421,0,0,0,.464-2.192,3.913,3.913,0,0,0-3.859-4.113c-5.1-.01-10.209,0-15.314-.012a12.453,12.453,0,0,1-2.062-.191c-.642-.11-1.266-.322-1.907-.492"/>
        <path id="Path_84460" data-name="Path 84460" d="M114.471,349.856c-.072-.026-.142-.055-.215-.077a1.674,1.674,0,1,1,2.1-1.992,1.673,1.673,0,0,1-.959,1.927l-.328.143Z" transform="translate(-102.943 -315.482)"/>
        <path id="Path_84461" data-name="Path 84461" d="M263.446,349.857c-.072-.026-.143-.055-.215-.077a1.674,1.674,0,1,1,2.1-1.994,1.674,1.674,0,0,1-.957,1.928l-.328.143Z" transform="translate(-238.581 -315.482)"/>
        <path id="Path_84462" data-name="Path 84462" d="M136.816,147.429c-2.456,0-4.912,0-7.368,0a1.331,1.331,0,0,1-1.341-1.767,1.305,1.305,0,0,1,1.2-.912c.122-.008.245,0,.368,0q7.234,0,14.467,0a1.344,1.344,0,1,1,.072,2.683c-1.63.005-3.26,0-4.889,0h-2.512" transform="translate(-116.575 -131.786)"/>
      </g>
    </g>
  </g>
</svg>
