<svg xmlns="http://www.w3.org/2000/svg" xmlns:xlink="http://www.w3.org/1999/xlink" width="56" height="51.41" viewBox="0 0 56 51.41">
  <defs>
    <clipPath id="clip-path">
      <rect id="Rectangle_7283" data-name="Rectangle 7283" width="46.126" height="36.819" fill="none"/>
    </clipPath>
  </defs>
  <g id="Group_40814" data-name="Group 40814" transform="translate(-721 -3151)">
    <circle id="Ellipse_614" data-name="Ellipse 614" cx="21.5" cy="21.5" r="21.5" transform="translate(734 3151)" fill="#cca7fb"/>
    <g id="Group_40783" data-name="Group 40783" transform="translate(721 3165.591)">
      <g id="Group_40782" data-name="Group 40782" clip-path="url(#clip-path)">
        <path id="Path_84463" data-name="Path 84463" d="M46.127,28.308c-.341.409-.659.841-1.029,1.223q-1.283,1.327-2.613,2.61a1.006,1.006,0,0,0-.332.826c.021.8.011,1.591.006,2.387a1.354,1.354,0,1,1-2.7.01c-.005-.841.016-1.682-.013-2.522a1.01,1.01,0,0,0-.258-.616c-1.035-1.066-2.095-2.109-3.144-3.162a1.387,1.387,0,0,1,0-2.23c1.059-1.065,2.127-2.119,3.177-3.193a.857.857,0,0,0,.231-.538c.013-3.543.01-7.087.009-10.63,0-.088-.011-.176-.021-.315-.177.06-.329.11-.48.164-.8.287-1.6.587-2.414.858a.483.483,0,0,0-.385.548c.013,2.673-.009,5.345.019,8.018a2.141,2.141,0,0,1-.728,1.709,12.8,12.8,0,0,1-5.189,2.777,29.165,29.165,0,0,1-9.988.949,22.32,22.32,0,0,1-6.985-1.4,11.522,11.522,0,0,1-3.784-2.3,2.261,2.261,0,0,1-.763-1.79c.031-2.672.006-5.345.02-8.018a.539.539,0,0,0-.422-.609c-2.423-.881-4.837-1.784-7.254-2.68A1.368,1.368,0,0,1,1.07,7.717Q11.574,3.911,22.078.1a1.95,1.95,0,0,1,1.4.06Q32.647,3.494,41.823,6.81c.845.306,1.692.608,2.534.923a1.361,1.361,0,0,1-.015,2.644c-.618.229-1.238.456-1.863.666a.4.4,0,0,0-.325.445c.01,3.889,0,7.778.017,11.666a.8.8,0,0,0,.231.494c.945.966,1.914,1.909,2.856,2.877.318.327.581.708.87,1.064ZM5.3,9.062c.212.081.323.125.435.167Q13.869,12.242,22,15.262a1.082,1.082,0,0,0,.812.007Q30.8,12.375,38.8,9.5l1.222-.443c-.2-.083-.288-.127-.384-.162q-8.306-3.007-16.618-6a1.231,1.231,0,0,0-.766.034Q16.033,5.159,9.822,7.42L5.3,9.062m6.178,5.182c-.01.123-.021.194-.021.265,0,2.267-.008,4.533.011,6.8a.849.849,0,0,0,.284.552,7.759,7.759,0,0,0,2.8,1.493,26.688,26.688,0,0,0,14.171.475,11.291,11.291,0,0,0,4.411-1.947.76.76,0,0,0,.339-.676c-.014-2.147-.007-4.293-.008-6.44,0-.132-.014-.265-.024-.451-.191.067-.344.119-.5.174C29.7,15.659,26.455,16.82,23.218,18a2.226,2.226,0,0,1-1.651-.013c-2.535-.963-5.083-1.892-7.627-2.834l-2.465-.91m29.37,11.807-1.913,1.913,1.884,1.878,1.913-1.9-1.884-1.891" transform="translate(-0.001 -0.001)"/>
      </g>
    </g>
  </g>
</svg>
