<svg xmlns="http://www.w3.org/2000/svg" xmlns:xlink="http://www.w3.org/1999/xlink" width="49.917" height="47.205" viewBox="0 0 49.917 47.205">
  <defs>
    <clipPath id="clip-path">
      <rect id="Rectangle_7285" data-name="Rectangle 7285" width="35.917" height="35.929" fill="none"/>
    </clipPath>
  </defs>
  <g id="Group_40816" data-name="Group 40816" transform="translate(-170.083 -3546)">
    <circle id="Ellipse_617" data-name="Ellipse 617" cx="21.5" cy="21.5" r="21.5" transform="translate(177 3546)" fill="#79d075"/>
    <g id="Group_40787" data-name="Group 40787" transform="translate(170.083 3557.276)">
      <g id="Group_40786" data-name="Group 40786" clip-path="url(#clip-path)">
        <path id="Path_84465" data-name="Path 84465" d="M9.471,35.929c-.109-.035-.218-.072-.328-.1a2.694,2.694,0,0,1,.732-5.285c1.356-.018,2.712,0,4.068,0h.406V26.948h-.381q-1.964,0-3.928,0A.927.927,0,0,1,8.981,25.9q0-1.964,0-3.928v-.4H5.412c-.006.119-.017.242-.018.365,0,1.368.017,2.736-.006,4.1a2.7,2.7,0,1,1-2.111-2.611l.31.067c0-.772,0-1.529,0-2.286,0-.152,0-.3,0-.456a.9.9,0,0,1,.981-.985c1.286-.009,2.572,0,3.857,0h.535v-3.6H8.57c-1.3,0-2.6,0-3.893,0-.76,0-1.088-.331-1.089-1.09,0-.875,0-1.749,0-2.65a2.694,2.694,0,1,1,1.8-2.574c.023,1.368.006,2.736.007,4.1v.4H8.98v-.39q0-1.964,0-3.928a.926.926,0,0,1,1.054-1.052q1.964,0,3.928,0h.393V5.417c-.126-.006-.249-.017-.372-.017-1.356,0-2.712.015-4.068-.006A2.591,2.591,0,0,1,7.449,3.84a2.56,2.56,0,0,1,.319-2.8,2.683,2.683,0,0,1,4.727,2.252c-.02.09-.039.181-.066.3h2.537c.9,0,1.193.291,1.193,1.2q0,1.894,0,3.788v.389h3.6v-.4c0-1.3,0-2.6,0-3.893,0-.758.332-1.083,1.094-1.085.864,0,1.728,0,2.54,0a8.138,8.138,0,0,1,.012-1.387A2.669,2.669,0,0,1,26.34.02a2.695,2.695,0,0,1-.273,5.373c-1.367.025-2.735.006-4.1.007h-.4V8.987h.361q1.981,0,3.963,0a.927.927,0,0,1,1.048,1.059c0,1.426,0,2.852,0,4.306h3.586c0-.121,0-.244,0-.367,0-1.368-.021-2.736.007-4.1a2.7,2.7,0,0,1,4.5-1.995,3.048,3.048,0,0,1,.89,1.591v.842c-.038.108-.078.215-.113.323a2.542,2.542,0,0,1-2,1.852,7.981,7.981,0,0,1-1.47.015c0,.819,0,1.683,0,2.547,0,.783-.324,1.108-1.105,1.11q-1.946,0-3.893,0h-.369v3.6h.405c1.321,0,2.642,0,3.963,0a.9.9,0,0,1,1,1c.007.783,0,1.567,0,2.35V23.5a2.7,2.7,0,0,1,3.543,2.067c.006.02.029.035.044.052v.842a3.059,3.059,0,0,1-.865,1.566,2.7,2.7,0,0,1-4.52-1.965c-.029-1.366-.007-2.734-.008-4.1,0-.124-.01-.249-.016-.377h-3.57v.406q0,1.945,0,3.891a.935.935,0,0,1-1.071,1.071q-1.963,0-3.925,0h-.4V30.52c.135.007.216.015.3.015,1.4,0,2.8-.014,4.205.006a2.693,2.693,0,0,1,.558,5.325,1.14,1.14,0,0,0-.158.064h-.842c-.074-.027-.148-.058-.223-.081a2.613,2.613,0,0,1-1.98-2.138,7.922,7.922,0,0,1-.013-1.368c-.792,0-1.656,0-2.52,0-.784,0-1.108-.322-1.11-1.1q0-1.947,0-3.894v-.4h-3.6v.43c0,1.321.005,2.643,0,3.964a.9.9,0,0,1-1,1c-.783.007-1.566,0-2.35,0h-.372A2.736,2.736,0,0,1,10.965,35.7c-.21.093-.434.155-.652.232ZM25.115,10.814H10.81V25.128H25.115Zm-14.342-8.1a.9.9,0,1,0-.9.881.884.884,0,0,0,.9-.881M2.681,8.989a.9.9,0,1,0,.9.873.889.889,0,0,0-.9-.873m23.362-5.4a.889.889,0,1,0-.9-.878.893.893,0,0,0,.9.878m8.068,6.277a.889.889,0,1,0-.862.912.891.891,0,0,0,.862-.912M3.584,26.05a.888.888,0,1,0-.88.9.889.889,0,0,0,.88-.9m30.527-.007a.888.888,0,1,0-.872.9.885.885,0,0,0,.872-.9M10.773,33.226a.9.9,0,1,0-.878.9.891.891,0,0,0,.878-.9m15.269-.88a.888.888,0,1,0,.894.882.889.889,0,0,0-.894-.882" transform="translate(0 0)"/>
        <path id="Path_84466" data-name="Path 84466" d="M189.577,184.323q0,2.121,0,4.242c0,.774-.338,1.114-1.109,1.114q-4.277,0-8.553,0c-.792,0-1.122-.335-1.123-1.135q0-4.26,0-8.52c0-.8.331-1.131,1.126-1.131q4.277,0,8.553,0c.769,0,1.1.34,1.105,1.117q0,2.156,0,4.313m-8.966,3.528h7.141v-7.124h-7.141Z" transform="translate(-166.225 -166.319)"/>
      </g>
    </g>
  </g>
</svg>
