<svg xmlns="http://www.w3.org/2000/svg" xmlns:xlink="http://www.w3.org/1999/xlink" width="43" height="50.958" viewBox="0 0 43 50.958">
  <defs>
    <clipPath id="clip-path">
      <rect id="Rectangle_7287" data-name="Rectangle 7287" width="37" height="37.005" fill="none"/>
    </clipPath>
  </defs>
  <g id="Group_40818" data-name="Group 40818" transform="translate(-1279 -3542)">
    <circle id="Ellipse_619" data-name="Ellipse 619" cx="21.5" cy="21.5" r="21.5" transform="translate(1279 3542)" fill="#d09575"/>
    <g id="Group_40791" data-name="Group 40791" transform="translate(1285 3555.953)">
      <g id="Group_40790" data-name="Group 40790" clip-path="url(#clip-path)">
        <path id="Path_84468" data-name="Path 84468" d="M12.141,37.005H11.2c-1.652-.3-2.49-1.707-3.726-2.773a13.517,13.517,0,0,1-1,1.107,3.2,3.2,0,0,1-2.927.757,3.41,3.41,0,0,1-1.781-5.688c.3-.325.652-.6,1.032-.945-.668-.651-1.282-1.209-1.85-1.811a3.41,3.41,0,0,1,.914-5.4c.092-.048.182-.1.271-.148a3.547,3.547,0,0,1-.138-3.257A3.4,3.4,0,0,1,7.36,17.8c1.111,1.032,2.159,2.132,3.228,3.208a1.045,1.045,0,0,1,.163.3L21.275,10.787a4.483,4.483,0,0,1-.4-.322c-1.039-1.038-2.11-2.048-3.1-3.132a3.176,3.176,0,0,1-.568-3.63,3.181,3.181,0,0,1,3.1-2.025,9.8,9.8,0,0,1,1.81.341c0,.07.03.058.038.039a3.442,3.442,0,0,1,5.779-.844c.468.515.98.989,1.564,1.574A14.314,14.314,0,0,1,30.483,1.7a3.415,3.415,0,0,1,4.785,4.863c-.311.343-.644.666-1,1.036.3.283.57.539.841.794A5.264,5.264,0,0,1,37,11.2v.94a1.16,1.16,0,0,0-.06.168,3.377,3.377,0,0,1-1.962,2.515.488.488,0,0,0-.1.087,3.575,3.575,0,0,1,.429,2.243,3.427,3.427,0,0,1-5.832,1.908c-1.025-1-2.031-2.022-3.038-3.041a1.211,1.211,0,0,1-.182-.323L15.736,26.219a2.392,2.392,0,0,1,.287.219c1.065,1.064,2.16,2.1,3.178,3.207a3.4,3.4,0,0,1-2.516,5.681,10.054,10.054,0,0,1-1.837-.349,6.252,6.252,0,0,1-.482.737,2.735,2.735,0,0,1-.739.678,14.878,14.878,0,0,1-1.486.613m8.1-33.178a1.206,1.206,0,0,0-1.095.865,1.3,1.3,0,0,0,.419,1.4q4.96,4.95,9.911,9.909c.511.511,1.02,1.023,1.533,1.532a1.214,1.214,0,0,0,1.222.353,1.25,1.25,0,0,0,.534-2.145q-2.48-2.5-4.978-4.983-3.231-3.231-6.46-6.464a1.407,1.407,0,0,0-1.087-.466M5.072,19.079a1.259,1.259,0,0,0-.822,2.2q5.735,5.733,11.468,11.468A1.258,1.258,0,1,0,17.5,30.978c-.523-.532-1.054-1.058-1.582-1.585Q11,24.476,6.084,19.557a1.377,1.377,0,0,0-1.012-.478m19.443-4.9-1.672-1.7L12.493,22.835l1.684,1.684L24.516,14.178M3.5,24.052a1.259,1.259,0,0,0-.894,2.211q4.06,4.059,8.119,8.118a1.263,1.263,0,0,0,1.861.089,1.276,1.276,0,0,0-.081-1.862c-.618-.625-1.242-1.243-1.863-1.865q-3.1-3.1-6.2-6.206a1.318,1.318,0,0,0-.94-.485M25.345,2.086a1.462,1.462,0,0,0-1.2.857,1.223,1.223,0,0,0,.292,1.394q4.109,4.112,8.222,8.22a1.251,1.251,0,0,0,1.808.03,1.234,1.234,0,0,0-.016-1.782Q30.335,6.672,26.2,2.563a3.638,3.638,0,0,0-.852-.477M5.99,32.8,4.211,31.018c-.275.276-.58.564-.865.87A1.252,1.252,0,0,0,5.1,33.672c.311-.283.6-.588.889-.869M32.774,6.012c.308-.314.623-.611.911-.933a1.247,1.247,0,0,0,.03-1.623,1.194,1.194,0,0,0-1.59-.276,12.077,12.077,0,0,0-1.139,1.038l1.789,1.795" transform="translate(0 0)"/>
      </g>
    </g>
  </g>
</svg>
