<svg xmlns="http://www.w3.org/2000/svg" xmlns:xlink="http://www.w3.org/1999/xlink" width="53" height="50.139" viewBox="0 0 53 50.139">
  <defs>
    <clipPath id="clip-path">
      <rect id="Rectangle_7286" data-name="Rectangle 7286" width="41.169" height="33.639" fill="none"/>
    </clipPath>
  </defs>
  <g id="Group_40817" data-name="Group 40817" transform="translate(-729 -3546)">
    <circle id="Ellipse_618" data-name="Ellipse 618" cx="21.5" cy="21.5" r="21.5" transform="translate(739 3546)" fill="#d0c675"/>
    <g id="Group_40789" data-name="Group 40789" transform="translate(729 3562.5)">
      <g id="Group_40788" data-name="Group 40788" clip-path="url(#clip-path)">
        <path id="Path_84467" data-name="Path 84467" d="M41.17,17.135a1.506,1.506,0,0,1-1.62.894c-.855-.042-1.715-.02-2.572,0a.769.769,0,0,0-.482.2q-7.427,7.41-14.84,14.835a1.279,1.279,0,0,1-2.133.008Q12.092,25.635,4.656,18.205a.712.712,0,0,0-.451-.178c-.951-.016-1.9-.006-2.854-.009a1.213,1.213,0,1,1-.013-2.411c.477,0,.954,0,1.478,0A10.822,10.822,0,0,1,6.4,1.853a10.914,10.914,0,0,1,14.2,1.78A10.752,10.752,0,0,1,28.27.01a10.42,10.42,0,0,1,6.62,1.94,10.535,10.535,0,0,1,4.26,6.182,10.794,10.794,0,0,1-.8,7.474c.434,0,.82.027,1.2-.006a1.468,1.468,0,0,1,1.621.89ZM20.483,18.281c.112-.186.189-.308.26-.433q1.8-3.135,3.593-6.271a1.228,1.228,0,0,1,2.278-.064c.8,1.265,1.611,2.529,2.4,3.8a.551.551,0,0,0,.544.3q2.813-.018,5.627,0a.558.558,0,0,0,.546-.3A8.355,8.355,0,0,0,24.292,3.7a23.447,23.447,0,0,0-2.8,2.458,1.221,1.221,0,0,1-1.82-.006c-.441-.431-.866-.877-1.31-1.3A8.221,8.221,0,0,0,11.35,2.489,8.378,8.378,0,0,0,5.458,15.35a.51.51,0,0,0,.485.263c1.273-.012,2.546-.015,3.818,0a.477.477,0,0,0,.526-.353c.947-2.286,1.912-4.565,2.866-6.848a1.219,1.219,0,0,1,2.288-.083c.37.742.749,1.481,1.124,2.221l3.918,7.729M20.567,30.6,33.15,18.02h-.359c-1.38,0-2.761,0-4.141,0a1.283,1.283,0,0,1-1.173-.639c-.5-.794-1-1.585-1.5-2.376-.134-.212-.274-.421-.432-.662-.1.169-.178.293-.25.42l-3.672,6.413c-.02.035-.043.068-.061.1a1.224,1.224,0,0,1-1.18.754,1.256,1.256,0,0,1-1.107-.8q-2.269-4.5-4.554-8.989c-.089-.176-.181-.35-.3-.575-.078.17-.136.288-.187.409q-1.049,2.5-2.1,5a1.277,1.277,0,0,1-1.411.947c-.8,0-1.608,0-2.412,0-.111,0-.222.015-.3.021L20.567,30.6" transform="translate(0 0)"/>
      </g>
    </g>
  </g>
</svg>
