<svg xmlns="http://www.w3.org/2000/svg" xmlns:xlink="http://www.w3.org/1999/xlink" width="62" height="55.032" viewBox="0 0 62 55.032">
  <defs>
    <clipPath id="clip-path">
      <rect id="Rectangle_7284" data-name="Rectangle 7284" width="40.599" height="40.583" fill="none"/>
    </clipPath>
  </defs>
  <g id="Group_40815" data-name="Group 40815" transform="translate(-1293 -3151)">
    <circle id="Ellipse_615" data-name="Ellipse 615" cx="21.5" cy="21.5" r="21.5" transform="translate(1312 3151)" fill="#77cbf7"/>
    <g id="Group_40785" data-name="Group 40785" transform="translate(1293 3165.449)">
      <g id="Group_40784" data-name="Group 40784" clip-path="url(#clip-path)">
        <path id="Path_84464" data-name="Path 84464" d="M33.519.524a25.823,25.823,0,0,0-7.112,5.105c-.8.807-1.543,1.663-2.324,2.51-.106-.047-.213-.093-.32-.141Q15.872,4.413,7.984.818a.5.5,0,0,0-.672.136C5.658,2.626,3.99,4.285,2.328,5.949c-.09.09-.175.187-.285.306l8.607,6.459,2.162,1.62,3.539,2.657c-.106.127-.18.219-.257.308-1.968,2.246-3.942,4.487-5.9,6.742a.531.531,0,0,1-.668.184c-1.721-.55-3.451-1.072-5.173-1.622a.516.516,0,0,0-.614.163c-.585.61-1.189,1.2-1.79,1.8C1.3,25.2.65,25.834,0,26.469v.079q1.268,1.249,2.535,2.5c.582.575,1.163,1.151,1.748,1.73-.948,1.918-.848,3.7.8,5.149,1.418,1.25,3.034,1.253,4.786.335a3.846,3.846,0,0,0,.332.44q1.915,1.946,3.84,3.882h.079c.082-.1.157-.206.248-.3,1.148-1.151,2.293-2.3,3.452-3.444a.523.523,0,0,0,.16-.615c-.548-1.722-1.073-3.451-1.619-5.173a.511.511,0,0,1,.173-.638c2.087-1.809,4.16-3.633,6.237-5.452.272-.239.546-.476.833-.725l2.624,3.5,1.607,2.142,6.506,8.668c1.8-1.8,3.55-3.556,5.316-5.3a.474.474,0,0,0,.114-.641q-2.637-5.757-5.25-11.525c-.692-1.523-1.383-3.046-2.081-4.586.251-.221.486-.432.726-.637A27.331,27.331,0,0,0,40,7.218,5.116,5.116,0,0,0,40.595,5.1,4.872,4.872,0,0,0,33.519.524M10.392,9.546l.019-.028c-.663-.445-1.3-.918-1.945-1.383A.563.563,0,0,1,8.332,8L5.64,5.98c.806-.8,1.559-1.556,2.328-2.3a.416.416,0,0,1,.367-.074c.925.4,1.84.824,2.723,1.225h0L14.1,6.228q4.1,1.845,8.194,3.716c.045.02.086.048.164.092L17.931,15.2,10.392,9.546M3.381,26.464c.393-.382.776-.763,1.172-1.131a.335.335,0,0,1,.27-.078c1.107.332,2.21.677,3.382,1.039l-2.32,2.651-2.5-2.482m11.781,9.663c-.36.346-.7.717-1.045,1.079l-2.495-2.48,2.64-2.315c.049.119.093.206.122.3.3.967.6,1.937.91,2.9a.437.437,0,0,1-.132.517M34.3,26.36l1.678,3.669c.333.731.665,1.462.989,2.2a.386.386,0,0,1-.026.342c-.761.786-1.536,1.558-2.341,2.366l-1.941-2.584a.555.555,0,0,1-.152-.145,19.738,19.738,0,0,0-1.375-1.878.564.564,0,0,1-.094-.137l-5.646-7.526,5.172-4.532c.5,1.09.978,2.139,1.456,3.189q1.145,2.518,2.28,5.04M37.871,6.147a25.307,25.307,0,0,1-6.158,7.824Q20.276,23.953,8.874,33.975a1.75,1.75,0,0,1-1.353.539,1.5,1.5,0,0,1-1.331-.977,1.528,1.528,0,0,1,.291-1.662q1.354-1.554,2.716-3.1Q18.2,18.507,27.2,8.243a23.493,23.493,0,0,1,7.374-5.59A2.576,2.576,0,0,1,38.3,4.891a9.842,9.842,0,0,1-.431,1.256" transform="translate(0 0)"/>
      </g>
    </g>
  </g>
</svg>
