<svg id="Aim_Image" data-name="Aim Image" xmlns="http://www.w3.org/2000/svg" width="489.404" height="367.38" viewBox="0 0 489.404 367.38">
  <path id="Path_57182" data-name="Path 57182" d="M865.22,637.138l.735-16.519a53.351,53.351,0,0,1,24.884-6.3c-11.951,9.771-10.458,28.607-18.561,41.747A32.09,32.09,0,0,1,848.746,670.9l-10,6.124a53.773,53.773,0,0,1,11.334-43.574,51.941,51.941,0,0,1,9.546-8.87C862.02,630.892,865.22,637.138,865.22,637.138Z" transform="translate(-418.029 -309.639)" fill="#f2f2f2"/>
  <path id="Path_57183" data-name="Path 57183" d="M406.367,435.116a6.12,6.12,0,0,1,.4-9.375L399.915,405.1l10.914,2.932,4.833,19.15a6.153,6.153,0,0,1-9.3,7.932Z" transform="translate(-302.538 -254.471)" fill="#a0616a"/>
  <path id="Path_57184" data-name="Path 57184" d="M423.979,293.234c1.811,1.038,12.525-1.534,14.618-.8-1.155,7.048,5.119,4.4-1.694,13.658s-20.534,37.005-23.651,47.377-.032,24.988-.5,29.9a51.016,51.016,0,0,0,.042,8.556c-3.681-.047-7.309.717-11.047.229-3.987-11.281-6.667-27.338-8.487-36.212s-1.887-5.121-1.052-9.559,1.037-1.213.16-5.458,2.67-9.579,5.947-12.62c1.413-4.064,3.239-7.853,4.638-11.874C413.2,307.49,413.877,302.325,423.979,293.234Z" transform="translate(-300.37 -224.726)" fill="#018073"/>
  <path id="Path_57185" data-name="Path 57185" d="M567.554,470.892H558.5l-4.308-34.931h13.366Z" transform="translate(-146.133 -114.958)" fill="#ffb6b6"/>
  <path id="Path_57186" data-name="Path 57186" d="M832.685,690.2h-29.2v-.369a11.366,11.366,0,0,1,11.365-11.366h0l5.334-4.047,9.952,4.047h2.549Z" transform="translate(-408.954 -325.486)" fill="#2f2e41"/>
  <path id="Path_57187" data-name="Path 57187" d="M510.414,470.892h-9.056l-4.308-34.931h13.366Z" transform="translate(-131.066 -114.958)" fill="#ffb6b6"/>
  <path id="Path_57188" data-name="Path 57188" d="M775.544,690.2h-29.2v-.369a11.366,11.366,0,0,1,11.365-11.366h0l5.334-4.047L773,678.463h2.549Z" transform="translate(-393.887 -325.486)" fill="#2f2e41"/>
  <path id="Path_57189" data-name="Path 57189" d="M772.279,424.569l58.9,1.473c11.187,6.076,11.357,19.228,7.692,34.842,0,0,1.237,9.281-1.237,11.756s-3.712,2.475-2.475,6.806-5.3,11.4-4.506,12.2,2.65,5.125,2.65,5.125l-6.187,35.267s-4.331,61.253-5.568,62.491-2.475,0-1.237,3.094,2.475,1.856,1.237,3.094a45.574,45.574,0,0,0-3.094,3.712H803.5s-1.128-6.187-1.128-6.806-1.237-4.331-1.237-4.95,1.094-1.712,1.094-1.712a20.366,20.366,0,0,0,.762-3.856c0-1.237,3.712-48.879,3.712-48.879l-7.425-61.872-17.943,60.635s0,53.21-1.237,54.447-1.237.619-.619,3.094,3.094,1.856,1.237,3.712S778.241,597,778.86,600.1l.619,3.094-18.562.266s-2.475-5.215-1.237-7.071,1.163-1.349-.346-4.387-2.128-3.656-1.51-4.275.619-3.91.619-3.91l3.094-59.2s.619-62.491.619-64.347a6.171,6.171,0,0,0-.514-2.783v-2.52l2.37-8.928Z" transform="translate(-396.851 -259.604)" fill="#2f2e41"/>
  <ellipse id="Ellipse_809" data-name="Ellipse 809" cx="18.302" cy="18.302" rx="18.302" ry="18.302" transform="translate(392.511 5.877)" fill="#ffb6b6"/>
  <path id="Path_57190" data-name="Path 57190" d="M801.964,271.465c-3.943,2.344-6.3,6.651-7.656,11.034a104.564,104.564,0,0,0-4.493,24.982l-1.43,25.385-17.712,54.051c15.35,12.989,73.049,2.952,73.049,2.952s1.771-.59,0-2.362-3.5-.2-1.724-1.973.55.2-.04-1.569,0-.59.59-1.181-4.57-5.9-4.57-5.9l4.723-31.026,5.9-62.581c-7.085-8.856-21.333-14.076-21.333-14.076l-3.682-6.627-18.408,1.473Z" transform="translate(-400.303 -216.887)" fill="#3f3d56"/>
  <path id="Path_57191" data-name="Path 57191" d="M807.4,213.965a8.65,8.65,0,0,1,2.1.275,29.868,29.868,0,0,0,4.108.689,19.035,19.035,0,0,1,17.044,16.146c1.064-.927,3.484-2.633,5.467-1.048h0c.03.025.048.038.118.005,1.317-.625,3.656-8.317,3.726-15.089.037-3.595-.529-8.185-3.436-9.638l-.153-.077-.04-.166c-.194-.809-2.364-2.189-6.136-3.263-6.854-1.952-16.869-2.234-22.622,3.362-.435,1.887-2.054,2.4-3.484,2.861-1.584.507-2.953.944-3.169,2.887a59.563,59.563,0,0,0,.039,8.305,8.481,8.481,0,0,1,3.013-4.233,5.972,5.972,0,0,1,3.426-1.017Z" transform="translate(-408.244 -200.527)" fill="#2f2e41"/>
  <path id="Path_57192" data-name="Path 57192" d="M741.509,342.1l29.9-19.147-15.058-20.017-14.869,18.29-46.328,2.841a8.829,8.829,0,1,0-.494,13.011Z" transform="translate(-376.423 -227.53)" fill="#ffb6b6"/>
  <path id="Path_57193" data-name="Path 57193" d="M820.5,288.933c1.735,10.5-31.032,30.554-31.032,30.554,0-2.465-19.558,16.143-20.44,14.1-2.509-5.81-4.273-19.57-7.779-21.773-2-1.26,12.075-13.092,12.075-13.092s7.37-7.425,17.042-16.79a22.564,22.564,0,0,1,20.9-6.109S818.76,278.432,820.5,288.933Z" transform="translate(-397.764 -220.239)" fill="#3f3d56"/>
  <path id="Path_57194" data-name="Path 57194" d="M724.814,421.708a99.969,99.969,0,0,1-5.567,33.009c-.169.493-.346.979-.523,1.473a100.492,100.492,0,0,1-40.092,49.892c-1.259.81-2.533,1.583-3.829,2.334a99.564,99.564,0,0,1-48.449,13.416c-.56.007-1.119.015-1.679.015-.722,0-1.436-.007-2.15-.022a99.667,99.667,0,0,1-48.449-13.681q-1.944-1.138-3.829-2.364a100.232,100.232,0,0,1-35.763-127.64c.236-.493.479-.979.729-1.473a100.178,100.178,0,0,1,178.924,0c.25.493.493.979.729,1.473A99.709,99.709,0,0,1,724.814,421.708Z" transform="translate(-335.396 -232.444)" fill="#f2f2f2" style="isolation: isolate"/>
  <path id="Path_57195" data-name="Path 57195" d="M696.653,502.4v1.473h8.968V502.4Zm-17.937,0v1.473h8.968V502.4Zm-17.937,0v1.473h8.968V502.4Zm-17.937,0v1.473h8.968V502.4Zm-17.937,0v1.473h8.968V502.4Zm-17.937,0v1.473h8.968V502.4Zm-17.937,0v1.473H598V502.4Zm-17.929,0v1.473h8.961V502.4Zm-17.937,0v1.473h8.968V502.4Zm-17.937,0v1.473H544.2V502.4Zm186.839,0H714.59v1.473h6.958Z" transform="translate(-338.219 -280.127)" fill="#e6e6e6"/>
  <path id="Path_57196" data-name="Path 57196" d="M714.59,488.4v1.473h8.968V488.4Zm-17.937,0v1.473h8.968V488.4Zm-17.937,0v1.473h8.968V488.4Zm-17.937,0v1.473h8.968V488.4Zm-17.937,0v1.473h8.968V488.4Zm-17.937,0v1.473h8.968V488.4Zm-17.937,0v1.473h8.968V488.4Zm-17.937,0v1.473H598V488.4Zm-17.929,0v1.473h8.961V488.4Zm-17.937,0v1.473h8.968V488.4Zm-17.937,0v1.473H544.2V488.4Z" transform="translate(-338.219 -276.435)" fill="#e6e6e6"/>
  <path id="Path_57197" data-name="Path 57197" d="M714.59,459.4v1.473h8.968V459.4Zm-17.937,0v1.473h8.968V459.4Zm-17.937,0v1.473h8.968V459.4Zm-17.937,0v1.473h8.968V459.4Zm-17.937,0v1.473h8.968V459.4Zm-17.937,0v1.473h8.968V459.4Zm-17.937,0v1.473h8.968V459.4Zm-17.937,0v1.473H598V459.4Zm-17.929,0v1.473h8.961V459.4Zm-17.937,0v1.473h8.968V459.4Zm-17.937,0v1.473H544.2V459.4Z" transform="translate(-338.219 -268.788)" fill="#e6e6e6"/>
  <path id="Path_57198" data-name="Path 57198" d="M714.59,439.4v1.473h8.968V439.4Zm-17.937,0v1.473h8.968V439.4Zm-17.937,0v1.473h8.968V439.4Zm-17.937,0v1.473h8.968V439.4Zm-17.937,0v1.473h8.968V439.4Zm-17.937,0v1.473h8.968V439.4Zm-17.937,0v1.473h8.968V439.4Zm-17.937,0v1.473H598V439.4Zm-17.929,0v1.473h8.961V439.4Zm-17.937,0v1.473h8.968V439.4Zm-17.937,0v1.473H544.2V439.4Z" transform="translate(-338.219 -263.515)" fill="#e6e6e6"/>
  <path id="Path_57199" data-name="Path 57199" d="M717.7,396.4h-2.371v1.473h3.1C718.2,397.379,717.954,396.893,717.7,396.4Zm-20.307,0v1.473h8.968V396.4Zm-17.937,0v1.473h8.968V396.4Zm-17.937,0v1.473h8.968V396.4Zm-17.937,0v1.473h8.968V396.4Zm-17.937,0v1.473h8.968V396.4Zm-17.937,0v1.473h8.968V396.4Zm-17.937,0v1.473h8.968V396.4Zm-17.929,0v1.473h8.961V396.4Zm-17.937,0v1.473h8.968V396.4Zm-15.131,0c-.25.493-.493.979-.729,1.473h6.892V396.4Z" transform="translate(-338.963 -252.176)" fill="#e6e6e6"/>
  <path id="Path_57200" data-name="Path 57200" d="M732.45,403.139V527.591c-1.259.81-2.533,1.583-3.829,2.334V403.139Z" transform="translate(-389.214 -253.953)" fill="#3f3d56"/>
  <path id="Path_57201" data-name="Path 57201" d="M661.45,459.139v98.968c-.56.007-1.119.015-1.679.015-.722,0-1.436-.007-2.15-.022v-98.96Z" transform="translate(-370.492 -268.72)" fill="#3f3d56"/>
  <path id="Path_57202" data-name="Path 57202" d="M590.45,403.139V529.652q-1.944-1.138-3.829-2.364V403.139Z" transform="translate(-351.77 -253.953)" fill="#3f3d56"/>
  <path id="Path_57203" data-name="Path 57203" d="M325.447,623.429l-1.461-20.314a65.713,65.713,0,0,0-30.851-6.918c15.044,11.628,13.839,34.87,24.258,50.776a39.526,39.526,0,0,0,29.473,17.466l12.52,7.2a66.233,66.233,0,0,0-15.422-53.269,63.975,63.975,0,0,0-12.052-10.6C329.177,615.631,325.447,623.429,325.447,623.429Z" transform="translate(-274.381 -304.856)" fill="#f2f2f2"/>
  <ellipse id="Ellipse_810" data-name="Ellipse 810" cx="13.99" cy="13.99" rx="13.99" ry="13.99" transform="translate(326.831 131.095)" fill="#018073"/>
  <path id="Path_57204" data-name="Path 57204" d="M735.554,389.539a1.131,1.131,0,0,0-1.562,0,46.333,46.333,0,0,0-7.939,8.109l-1.7-3.283c-.653-1.263-2.56-.147-1.907,1.115l2.482,4.8a1.117,1.117,0,0,0,1.907,0,44.732,44.732,0,0,1,8.716-9.181,1.111,1.111,0,0,0,0-1.562Z" transform="translate(-387.551 -250.285)" fill="#fff"/>
  <ellipse id="Ellipse_811" data-name="Ellipse 811" cx="13.99" cy="13.99" rx="13.99" ry="13.99" transform="translate(275.29 172.328)" fill="#018073"/>
  <path id="Path_57205" data-name="Path 57205" d="M665.554,445.539a1.131,1.131,0,0,0-1.562,0,46.334,46.334,0,0,0-7.939,8.109l-1.7-3.283c-.653-1.263-2.56-.147-1.907,1.115l2.482,4.8a1.117,1.117,0,0,0,1.907,0,44.732,44.732,0,0,1,8.716-9.181,1.111,1.111,0,0,0,0-1.562Z" transform="translate(-369.093 -265.051)" fill="#fff"/>
  <ellipse id="Ellipse_812" data-name="Ellipse 812" cx="13.99" cy="13.99" rx="13.99" ry="13.99" transform="translate(223.011 134.04)" fill="#018073"/>
  <path id="Path_57206" data-name="Path 57206" d="M594.554,393.539a1.131,1.131,0,0,0-1.562,0,46.337,46.337,0,0,0-7.939,8.109l-1.7-3.283c-.653-1.263-2.56-.147-1.907,1.115l2.482,4.8a1.117,1.117,0,0,0,1.907,0,44.731,44.731,0,0,1,8.716-9.181A1.111,1.111,0,0,0,594.554,393.539Z" transform="translate(-350.371 -251.339)" fill="#fff"/>
  <path id="Path_57207" data-name="Path 57207" d="M842.105,374.111l9.21-34.287L826.7,335.165l1.323,23.534L795.69,392a8.829,8.829,0,1,0,8.4,9.952Z" transform="translate(-404.476 -236.029)" fill="#ffb6b6"/>
  <path id="Path_57208" data-name="Path 57208" d="M867.416,287.774c8.354,6.6-2.368,43.485-2.368,43.485-1.66-1.822-3.589,25.1-5.618,24.187-5.767-2.606-16.337-11.591-20.412-10.859-2.33.419.111-17.81.111-17.81s.449-10.452,1.293-23.889A22.564,22.564,0,0,1,851.758,284.3S859.062,281.179,867.416,287.774Z" transform="translate(-418.058 -222.422)" fill="#3f3d56"/>
  <path id="Path_57209" data-name="Path 57209" d="M198.8,192.145l10.125,45.185-64.882-4.036,17.644-44.376Z" transform="translate(-37.982 -49.815)" fill="#a0616a"/>
  <path id="Path_57210" data-name="Path 57210" d="M203.735,466.461h7.288l3.467-28.112H203.734Z" transform="translate(-53.722 -115.588)" fill="#a0616a"/>
  <path id="Path_57211" data-name="Path 57211" d="M467.528,671.926l11.521-.688v4.936L490,683.74a3.083,3.083,0,0,1-1.752,5.621H474.535l-2.364-4.883-.923,4.883h-5.172Z" transform="translate(-319.984 -324.648)" fill="#2f2e41"/>
  <path id="Path_57212" data-name="Path 57212" d="M110.182,461.765l7.123,1.545,9.348-26.738-10.512-2.28Z" transform="translate(-29.054 -114.518)" fill="#a0616a"/>
  <path id="Path_57213" data-name="Path 57213" d="M373.775,666.648l11.405,1.771-1.047,4.824,9.1,9.715a3.083,3.083,0,0,1-2.9,5.121l-13.4-2.908L375.65,679.9l-1.937,4.576-5.054-1.1Z" transform="translate(-294.296 -323.438)" fill="#2f2e41"/>
  <path id="Path_57214" data-name="Path 57214" d="M468.9,485.816c-5.115,28.111-6.394,40.248-6.394,40.248s3.836,4.472,1.279,7.03,0,7.665,0,7.665l-5.751,61.973-4.629-.75-11.152-1.793-4.022-.65,2.558-58.137s-2.558-5.115-1.279-6.394-1.279-8.944-1.279-8.944l-3.193-60.694-19.81,66.445s1.922,2.557,0,4.472-5.744,11.5-5.744,11.5l-11.78,41.22-1,3.5-6.144-1.15-6.687-1.257-1.229-.229-2.186-.414-1.407-.264-.479-.086-2.315-.436.7-3.108.364-1.636,9.966-44.263.229-1.022.243-1.079s-1.279-3.193.636-5.115a4.992,4.992,0,0,0,1.279-4.472,1.742,1.742,0,0,1-.171-.214,2.653,2.653,0,0,1-.457-1.043,3.458,3.458,0,0,1,1.272-3.215,5.455,5.455,0,0,0,.907-1.3c1.943-3.679,2.922-11.473,2.922-11.473s1.729-61.73,7.387-71.16c.3-.493,6.306-9.956,6.621-10.149,6.387-3.829,56.144,1.46,56.144,1.46s3.014,8.1,3.149,8.939C468.182,444.56,473.234,461.97,468.9,485.816Z" transform="translate(-296.299 -260.518)" fill="#2f2e41"/>
  <path id="Path_57215" data-name="Path 57215" d="M465.344,298.5s1.077-5.589-9.269-15.934c-5.477-1.826-14.967-.762-18.257,0-15.214,20.083-12.49,16.539-16.45,27.76a15.8,15.8,0,0,0-1.084,7.987c1.826,9.129,4.79,55.987,4.181,58.421s-4.868,5.477-.609,5.477,59.2-.962,57.979-2.787S465.344,298.5,465.344,298.5Z" transform="translate(-307.865 -221.894)" fill="#018073"/>
  <path id="Path_57216" data-name="Path 57216" d="M559.5,399.664a6.12,6.12,0,0,1-8.216-4.534l-21.531-3.058,7.486-8.466,19.3,4.2a6.153,6.153,0,0,1,2.962,11.855Z" transform="translate(-336.774 -248.803)" fill="#a0616a"/>
  <path id="Path_57217" data-name="Path 57217" d="M446.438,298.52c1.736-1.159,3.708-1.7,5.3-3.251,5.8,4.173,6.222-2.622,11.474,7.6s23.986,34.867,31.883,42.278,22.358,11.158,26.551,13.766a51.008,51.008,0,0,0,7.679,3.773c-1.681,3.275-2.613,6.863-4.715,9.993-11.876-1.455-27.446-6.207-36.2-8.53s-5.426-.592-9.027-3.316-.624-1.469-4.815-2.574-7.387-6.657-8.65-10.945c-3.009-3.075-5.588-6.4-8.566-9.441C453.9,324.712,450.077,311.613,446.438,298.52Z" transform="translate(-314.805 -225.509)" fill="#018073"/>
  <ellipse id="Ellipse_813" data-name="Ellipse 813" cx="17.622" cy="17.622" rx="17.622" ry="17.622" transform="translate(127.606 17.64)" fill="#a0616a"/>
  <path id="Path_57218" data-name="Path 57218" d="M466,270.327c-.835-1.193-7.08-13.02-8.937-17.493a20.449,20.449,0,0,0-.361,2.936l-.018.367-.365.047c-.549.07-13.509,1.643-20.255-6.005-4-4.53-4.9-11.326-2.7-20.2a3.518,3.518,0,0,1-1.136-.437A4.877,4.877,0,0,1,430.151,226l-.373.1c-12-5.839-1.662-22.921,9.3-14.428a5.3,5.3,0,0,1,2.894.166,5.369,5.369,0,0,1,3.314,4.393c5.663-2.979,13.158-2.494,17.034-.259a4.85,4.85,0,0,1,2.72,3.429c4.578.256,9.5,4.716,9.5,11.034v.44h-.44a10.157,10.157,0,0,0-8.85,5.575,12.944,12.944,0,0,0,.4,13.207,18.622,18.622,0,0,1,2.57,14.238l-1.653,7.245Z" transform="translate(-308.996 -202.852)" fill="#2f2e41"/>
  <path id="Path_57219" data-name="Path 57219" d="M475.8,695.734a.874.874,0,0,1-.876.876H268.541a.876.876,0,0,1,0-1.752H474.922a.874.874,0,0,1,.876.876Z" transform="translate(-267.665 -330.876)" fill="#ccc"/>
  <path id="Path_57220" data-name="Path 57220" d="M857.8,695.734a.873.873,0,0,1-.876.876H650.541a.876.876,0,0,1,0-1.752H856.922a.874.874,0,0,1,.876.876Z" transform="translate(-368.394 -330.876)" fill="#ccc"/>
  <ellipse id="Ellipse_814" data-name="Ellipse 814" cx="7.798" cy="7.798" rx="7.798" ry="7.798" transform="translate(228.769 286.115)" fill="#e6e6e6"/>
  <ellipse id="Ellipse_815" data-name="Ellipse 815" cx="7.798" cy="7.798" rx="7.798" ry="7.798" transform="translate(281.047 294.214)" fill="#e6e6e6"/>
  <ellipse id="Ellipse_816" data-name="Ellipse 816" cx="7.798" cy="7.798" rx="7.798" ry="7.798" transform="translate(333.325 284.642)" fill="#e6e6e6"/>
</svg>
