<svg xmlns="http://www.w3.org/2000/svg" width="88.792" height="103.41" viewBox="0 0 88.792 103.41">
  <g id="Creativity" transform="translate(5584.729 -1138.358)">
    <path id="Path_84525" data-name="Path 84525" d="M-5529.2,1177.635l-.457-18.618.5-5.058,1.938-2.7h3.6l4.2.838,1.229,2.354v2.354l2.281.963,4.854.667,2.79,1.879.788,2.7s.345,1.765.383,2,.644,1.929.644,1.929l.92.733,4.3,2.091,2.747,3.561.47,2.164s.612,3.3.612,3.482v1.333l-1.783,3.13a15.59,15.59,0,0,1-.615,2.374,10.242,10.242,0,0,1-1.672,1.415s-.218-.5-.873,0-1.109.241-1.345.891a3.471,3.471,0,0,0,0,1.63l.557,3.7a13.335,13.335,0,0,1-.557,2.511c-.25.373-.756,1.129-1.1,1.632s-1.634,2.151-1.634,2.151-.294.923-.393,1.385a19.525,19.525,0,0,0,0,2.433l-.99,3.31-.708,1.572s.279.34-.8,1a7.1,7.1,0,0,1-1.65.789c-.818.364-1.573.589-1.857.753s-.342.391-1.74.4a17.047,17.047,0,0,0-2.338,0,10.982,10.982,0,0,1-2.166-1.157l-2.437,2.908s-2.363.629-2.571.655-3.27-.409-3.27-.409l-1.951-2.4Z" fill="#018073"/>
    <path id="Path_84507" data-name="Path 84507" d="M1239.381,122.8v-1.443c0-9.038.015-18.075-.03-27.112a3.419,3.419,0,0,0-.7-1.971c-2.1-2.63-4.285-5.19-6.516-7.863q-3.245,1.293-6.481,2.578a5.442,5.442,0,0,1-1.165.375,1.513,1.513,0,0,1-1.827-1.092,1.494,1.494,0,0,1,.794-1.981c2.912-1.218,5.832-2.422,8.8-3.485a2.154,2.154,0,0,1,1.786.694q4.148,4.8,8.116,9.753a3.726,3.726,0,0,1,.568,2.175c.037,9.243.024,18.486.024,27.729V122.8h5.478c.739,0,1.479-.02,2.218.009a4.193,4.193,0,0,1,3.69,5.93,2.175,2.175,0,0,0,0,1.518,4.2,4.2,0,0,1-2.031,5.533,1.333,1.333,0,0,0-.954,1.436c0,3.837-1.946,5.746-5.767,5.751q-4.312.005-8.625,0c-3.861,0-5.758-1.881-5.783-5.72,0-.327,0-.654,0-.9a15.755,15.755,0,0,1-2.027-1.294,4.131,4.131,0,0,1-.945-4.846,3.026,3.026,0,0,0,.012-1.448c-.137-.989-.337-1.969-.554-3.193-2.512-1.175-3.385-3.52-3.238-6.435.288-5.675-2-10.188-6-14.126a32.766,32.766,0,0,1,11.593-54.3,32.332,32.332,0,0,1,10.719-1.99c1.354-.031,2.148.573,2.184,1.625s-.721,1.726-2.07,1.741a29.525,29.525,0,0,0-28.461,23.812,28.441,28.441,0,0,0,8.014,26.336c3.01,3.079,5.729,6.287,6.68,10.56a40.239,40.239,0,0,1,.674,6.829c.112,2.389.8,3.164,3.214,3.169,2.823.006,5.647,0,8.61,0m-4.894,13.491c-.438,2.218.051,3.276,1.591,3.3,3.318.048,6.637.032,9.956.006a1.6,1.6,0,0,0,1.742-1.783c.007-.483,0-.967,0-1.522Zm6.522-5.083q-4.307,0-8.615,0c-.613,0-1.361-.09-1.368.806-.008.866.717.871,1.344.871,5.785.005,11.569.023,17.353-.033.471,0,1.294-.484,1.335-.818.1-.825-.668-.832-1.311-.83-2.913.007-5.825,0-8.738,0m.109-3.4q4.307,0,8.615,0c.637,0,1.414,0,1.322-.823-.037-.336-.854-.83-1.32-.835q-8.676-.086-17.352,0c-.462,0-1.263.492-1.31.837-.118.865.689.817,1.307.818q4.369.005,8.738,0" transform="translate(-6777.016 1098.787)"/>
    <path id="Path_84508" data-name="Path 84508" d="M1350.395,60.049c7.168.564,10.031,3.339,10.385,10.09a2.71,2.71,0,0,0,.489.239c8.815,2.436,11.764,13.142,5.706,20.363-.731.872-1.7,1.541-2.489,2.369a1.584,1.584,0,0,0-.475,1.165,10.532,10.532,0,0,1-2.833,10.09,1.669,1.669,0,0,0-.369,1.279,10.084,10.084,0,0,1-12.887,11.431,1.268,1.268,0,0,0-1.095.324c-2.746,3.222-7.769,2.851-10.68,1.253a3.029,3.029,0,0,1-.944-1.472,2.965,2.965,0,0,1-.037-1.1q0-29.2-.031-58.4a3.464,3.464,0,0,1,1.741-3.253,9.535,9.535,0,0,1,8.236-1.231,7.115,7.115,0,0,1,5.055,5.671c.088.4.154.8.227,1.179M1338.562,86.7c0,9.367.022,18.733-.029,28.1-.006,1.117.341,1.579,1.4,1.6a14.541,14.541,0,0,0,1.469.08,3.921,3.921,0,0,0,3.817-3.342c.166-3.367-.566-4.45-3.365-4.963a1.644,1.644,0,0,1-1.519-1.776,1.556,1.556,0,0,1,1.859-1.517,10.268,10.268,0,0,1,3.549,1.2,6.391,6.391,0,0,1,2.833,6.3c-.1,1.271.448,1.633,1.573,1.741a6.623,6.623,0,0,0,7-8.865,2,2,0,0,1,.816-2.644,6.484,6.484,0,0,0,2.676-3.729c1.182-4.438-1.057-6.9-5.388-6.434a7.314,7.314,0,0,0-2.957,1.36c-1.135.743-2.063.866-2.731.082-.685-.8-.5-1.76.525-2.662a9.039,9.039,0,0,1,10.761-.933,1.412,1.412,0,0,0,1.847-.1A10.1,10.1,0,0,0,1366.6,80.19a8.644,8.644,0,0,0-7.513-6.806c-1.779-.235-2.21-.888-1.9-2.681a8.439,8.439,0,0,0,.1-2.2,5.611,5.611,0,0,0-4.453-4.828,4.745,4.745,0,0,0-5.131,2.073,5.1,5.1,0,0,0,.52,6.157c.769.985.76,1.968-.026,2.613s-1.728.466-2.578-.48a8.4,8.4,0,0,1,.47-11.591,2.681,2.681,0,0,0,.762-1.059,4.2,4.2,0,0,0-2.627-4.963,6.336,6.336,0,0,0-4.337.184,1.809,1.809,0,0,0-1.355,1.99c.051,9.366.029,18.733.029,28.1" transform="translate(-6866.097 1095.957)"/>
    <path id="Path_84509" data-name="Path 84509" d="M1154.627,76.447a4.964,4.964,0,0,1,4.961-5.018,5.041,5.041,0,0,1,5.121,5.017,5.114,5.114,0,0,1-5.118,5.052,5.041,5.041,0,0,1-4.964-5.051m4.967,1.674a1.679,1.679,0,1,0-1.6-1.7,1.672,1.672,0,0,0,1.6,1.7" transform="translate(-6739.355 1082.846)"/>
    <path id="Path_84510" data-name="Path 84510" d="M1220.866,22.047c1.687,2.242,1.854,2.887.975,3.669-.821.732-1.559.5-3.484-1.133-1.063.712-1.92,2.46-3.564,1.042-.885-.762-.673-1.367,1.061-3.56-.708-1.056-2.5-1.9-1.019-3.545.79-.879,1.514-.62,3.521,1.1,1.035-.749,1.934-2.519,3.458-1.1,1.616,1.5-.2,2.474-.948,3.525" transform="translate(-6781.23 1120.369)"/>
    <path id="Path_84511" data-name="Path 84511" d="M1242.426,101.5c-.341.63-.545,1.061-.8,1.463-1.313,2.109-2.677,4.189-3.942,6.326-.64,1.081-1.424,1.54-2.368,1.114a1.643,1.643,0,0,1-.706-2.484c1.443-2.458,2.97-4.873,4.6-7.206a2.286,2.286,0,0,1,1.923-.534c.477.087.834.828,1.283,1.32" transform="translate(-6795.308 1062.682)"/>
    <path id="Path_84512" data-name="Path 84512" d="M1267.054,82.68c-.346-.3-1.071-.641-1.206-1.137a2.072,2.072,0,0,1,.419-1.837,60.565,60.565,0,0,1,6.084-3.169,1.331,1.331,0,0,1,1.85.959,2.221,2.221,0,0,1-.525,1.913c-1.882,1.146-3.894,2.08-5.863,3.083a4.884,4.884,0,0,1-.76.189" transform="translate(-6817.412 1079.344)"/>
    <path id="Path_84513" data-name="Path 84513" d="M1156.338,159.455a1.677,1.677,0,1,1-.019-3.354,1.642,1.642,0,0,1,1.624,1.663,1.659,1.659,0,0,1-1.605,1.691" transform="translate(-6739.37 1023.394)"/>
  </g>
</svg>
