<svg id="Customer_Satisfaction" data-name="Customer Satisfaction" xmlns="http://www.w3.org/2000/svg" xmlns:xlink="http://www.w3.org/1999/xlink" width="74.007" height="76.882" viewBox="0 0 74.007 76.882">
  <defs>
    <clipPath id="clip-path">
      <rect id="Rectangle_3905" data-name="Rectangle 3905" width="74.007" height="76.882" fill="#1e3756"/>
    </clipPath>
  </defs>
  <g id="Group_36200" data-name="Group 36200" clip-path="url(#clip-path)">
    <path id="Path_57230" data-name="Path 57230" d="M68.5,62.758c1.057-.437,1.985-.854,2.938-1.205a1.824,1.824,0,0,1,2.407.881,1.9,1.9,0,0,1-.88,2.428,5.273,5.273,0,0,1-.688.329q-6.06,2.558-12.122,5.111-7.51,3.155-15.026,6.294a3.728,3.728,0,0,1-.8.251,1.753,1.753,0,0,1-2.1-1.218,1.823,1.823,0,0,1,1.021-2.294c1-.445,2.021-.851,3.031-1.276.228-.1.452-.2.757-.339-1.8-1.616-3.53-3.168-5.26-4.718-2.665-2.387-5.352-4.75-7.981-7.175a9.335,9.335,0,0,1-1.689-2.147c-2.341-4.015-4.625-8.065-6.954-12.087a.972.972,0,0,0-.735-.429A22.617,22.617,0,1,1,44.674,18.7a2.465,2.465,0,0,0,.9,1.583C51.2,25.1,56.752,30.012,62.439,34.757A9.507,9.507,0,0,1,65.828,41.5C66.534,47.8,67.4,54.08,68.2,60.369c.1.756.189,1.513.3,2.39M34.665,37.048A18.877,18.877,0,1,0,4.381,27.665c2.743,9.577,11.684,14.318,18.472,13.774-.25-.548-.487-1.078-.733-1.6-.664-1.422-.525-2.043.688-3.064,3.505-2.95,7.984-2.854,11.857.278m-8.774,2.07c.116.242.2.455.316.654q4.776,8.429,9.565,16.851a2.874,2.874,0,0,0,.616.67q6.958,6.185,13.917,12.37a.977.977,0,0,0,1.206.22c4.222-1.794,8.448-3.576,12.7-5.309.656-.268.728-.6.648-1.208q-1.391-10.641-2.738-21.287a5.787,5.787,0,0,0-1.836-4.114C55.407,33.8,50.629,29.529,45.814,25.3c-.2-.176-.413-.336-.708-.574-.061.382-.087.634-.143.878-.326,1.416-.622,2.841-1.011,4.24a1.35,1.35,0,0,0,.125,1.2c1.683,2.772,3.321,5.572,5.023,8.332a2.532,2.532,0,0,1,.28,2.248c-.872,2.829-1.775,5.652-2.532,8.513a2.008,2.008,0,0,1-3.6.866c-3.652-3.857-7.43-7.595-11.176-11.362a5,5,0,0,0-6.179-.524m18.248,7.211c.542-1.777,1.081-3.5,1.575-5.231a1.143,1.143,0,0,0-.172-.774c-.664-1.147-1.361-2.276-2.047-3.41l-1.485-2.457L37.547,39.7l6.591,6.631" transform="translate(0 0)" fill="#1e3756"/>
    <path id="Path_57231" data-name="Path 57231" d="M88.468,134.552a10.25,10.25,0,0,1-4.759-1.213,1.99,1.99,0,0,1-1.048-2.19,1.769,1.769,0,0,1,1.649-1.359,2.758,2.758,0,0,1,1.233.295,5.741,5.741,0,0,0,5.493.008,1.892,1.892,0,1,1,1.745,3.312,9.11,9.11,0,0,1-4.314,1.147" transform="translate(-65.712 -103.221)" fill="#1e3756"/>
    <path id="Path_57232" data-name="Path 57232" d="M73.008,81.529a2.323,2.323,0,0,1,.024-4.645,2.323,2.323,0,1,1-.024,4.645" transform="translate(-56.25 -61.152)" fill="#1e3756"/>
    <path id="Path_57233" data-name="Path 57233" d="M132.239,79.209a2.292,2.292,0,0,1-2.328,2.326,2.23,2.23,0,0,1-2.3-2.335,2.312,2.312,0,1,1,4.624.008" transform="translate(-101.502 -61.158)" fill="#1e3756"/>
  </g>
</svg>
