<svg xmlns="http://www.w3.org/2000/svg" xmlns:xlink="http://www.w3.org/1999/xlink" width="112.626" height="93.621" viewBox="0 0 112.626 93.621">
  <defs>
    <linearGradient id="linear-gradient" x1="0.5" x2="0.5" y2="1" gradientUnits="objectBoundingBox">
      <stop offset="0" stop-color="#009183"/>
      <stop offset="1" stop-color="#005e51"/>
    </linearGradient>
  </defs>
  <g id="Footer_logo" data-name="Footer logo" transform="translate(888.849 2296.091)">
    <path id="Path_29283" data-name="Path 29283" d="M2.42,4.461l-2-16.6H3.532L4.514-2.5l1.272-9.644H8.209L9.541-2.549l1-9.594h3.075L11.6,4.461H8.419L7.007-5.554,5.645,4.461Zm14.29,0v-16.6h3.675v6.71H22.94v-6.71h3.675v16.6H22.94V-2.81H20.386V4.461Zm13.679,0v-16.6h3.665v16.6Zm8.892,0V-9.43H36.728v-2.714h8.753V-9.43H42.957V4.461Zm8.852,0v-16.6h7.461v2.5H51.8v4.106h2.894V-2.98H51.8V1.977h3.836V4.461Zm10.394,0v-16.6h2.584l3.415,7.972v-7.972h3.045v16.6H65.087L61.662-4.132V4.461ZM81.3-1.257h1.773l-.891-6.43ZM76.942,4.461l3.145-16.6h4.146l3.125,16.6H83.973L83.4.936H80.978l-.561,3.525ZM93.916-5.163h1.172A1.459,1.459,0,0,0,96.4-5.669a3.335,3.335,0,0,0,.325-1.718q0-.431-.025-.721a2.732,2.732,0,0,0-.12-.591,1.15,1.15,0,0,0-.27-.476,1.282,1.282,0,0,0-.486-.285,2.257,2.257,0,0,0-.751-.11H93.916ZM90.251,4.461v-16.6h5.538a4.175,4.175,0,0,1,3.295,1.232,5.245,5.245,0,0,1,1.092,3.585,7.713,7.713,0,0,1-.165,1.672A3.968,3.968,0,0,1,99.524-4.4a3.691,3.691,0,0,1-.741.866,3.14,3.14,0,0,1-.981.556,5.941,5.941,0,0,1-1.147.285,9.061,9.061,0,0,1-1.3.085H93.916v7.07Zm16.533-9.624h1.172a1.459,1.459,0,0,0,1.317-.506,3.335,3.335,0,0,0,.325-1.718q0-.431-.025-.721a2.732,2.732,0,0,0-.12-.591,1.15,1.15,0,0,0-.27-.476,1.282,1.282,0,0,0-.486-.285,2.257,2.257,0,0,0-.751-.11h-1.162Zm-3.665,9.624v-16.6h5.538a4.175,4.175,0,0,1,3.295,1.232,5.245,5.245,0,0,1,1.092,3.585,7.713,7.713,0,0,1-.165,1.672,3.968,3.968,0,0,1-.486,1.252,3.691,3.691,0,0,1-.741.866,3.14,3.14,0,0,1-.981.556,5.941,5.941,0,0,1-1.147.285,9.061,9.061,0,0,1-1.3.085h-1.442v7.07Z" transform="translate(-889.267 -2223.46)" fill="#fff"/>
    <path id="Path_29282" data-name="Path 29282" d="M2.778,2.527a2.619,2.619,0,0,1-1.335-.312A1.964,1.964,0,0,1,.634,1.3,3.922,3.922,0,0,1,.328-.175L1.717-.448A4.294,4.294,0,0,0,1.843.46a1.314,1.314,0,0,0,.317.607.762.762,0,0,0,.563.213.632.632,0,0,0,.558-.235,1.018,1.018,0,0,0,.164-.6A1.612,1.612,0,0,0,3.183-.5a4.1,4.1,0,0,0-.7-.744L1.367-2.231a3.353,3.353,0,0,1-.749-.9A2.487,2.487,0,0,1,.339-4.364,2.1,2.1,0,0,1,.952-5.983a2.363,2.363,0,0,1,1.674-.569,2.484,2.484,0,0,1,1.039.191,1.652,1.652,0,0,1,.662.531,2.393,2.393,0,0,1,.366.771,4.551,4.551,0,0,1,.153.913L3.467-3.9a4.7,4.7,0,0,0-.093-.744,1.034,1.034,0,0,0-.252-.514.707.707,0,0,0-.531-.186.671.671,0,0,0-.552.235.9.9,0,0,0-.191.585,1.344,1.344,0,0,0,.186.738,2.891,2.891,0,0,0,.536.6l1.1.974a4.577,4.577,0,0,1,.935,1.077A2.75,2.75,0,0,1,5,.35,2.245,2.245,0,0,1,4.72,1.477a2,2,0,0,1-.777.771A2.344,2.344,0,0,1,2.778,2.527Zm7.438,0a2.8,2.8,0,0,1-1.5-.35,1.935,1.935,0,0,1-.8-1.006A4.514,4.514,0,0,1,7.679-.382V-3.7A4.374,4.374,0,0,1,7.92-5.234a1.885,1.885,0,0,1,.8-.979,2.869,2.869,0,0,1,1.5-.339,2.888,2.888,0,0,1,1.515.339,1.92,1.92,0,0,1,.8.979A4.286,4.286,0,0,1,12.776-3.7V-.372a4.341,4.341,0,0,1-.246,1.537,2,2,0,0,1-.8,1.006A2.78,2.78,0,0,1,10.217,2.527Zm0-1.192a.863.863,0,0,0,.6-.175A.881.881,0,0,0,11.07.679a3.185,3.185,0,0,0,.066-.667v-4.08a3.088,3.088,0,0,0-.066-.667.845.845,0,0,0-.257-.465.882.882,0,0,0-.6-.17.866.866,0,0,0-.58.17.83.83,0,0,0-.263.465,3.088,3.088,0,0,0-.066.667V.011a3.465,3.465,0,0,0,.06.667.837.837,0,0,0,.257.481A.866.866,0,0,0,10.217,1.335Zm5.612,1.072v-8.86h1.619V1.291h2.144V2.407Zm8.806.12A2.765,2.765,0,0,1,23.1,2.166a1.846,1.846,0,0,1-.755-1.028,5.406,5.406,0,0,1-.208-1.6V-6.454h1.575v6.18a5.3,5.3,0,0,0,.055.782,1.1,1.1,0,0,0,.257.591.777.777,0,0,0,.607.224.771.771,0,0,0,.618-.224A1.186,1.186,0,0,0,25.5.509a4.83,4.83,0,0,0,.06-.782v-6.18h1.564V-.459a5.406,5.406,0,0,1-.208,1.6,1.854,1.854,0,0,1-.749,1.028A2.76,2.76,0,0,1,24.634,2.527Zm6.509-.12V-5.261H29.732V-6.454h4.419v1.192H32.762V2.407Zm5.721,0v-8.86h1.6v8.86Zm7.231.12a2.8,2.8,0,0,1-1.5-.35,1.935,1.935,0,0,1-.8-1.006,4.514,4.514,0,0,1-.241-1.553V-3.7A4.374,4.374,0,0,1,41.8-5.234a1.885,1.885,0,0,1,.8-.979,2.869,2.869,0,0,1,1.5-.339,2.888,2.888,0,0,1,1.515.339,1.92,1.92,0,0,1,.8.979A4.286,4.286,0,0,1,46.654-3.7V-.372a4.341,4.341,0,0,1-.246,1.537,2,2,0,0,1-.8,1.006A2.78,2.78,0,0,1,44.094,2.527Zm0-1.192a.863.863,0,0,0,.6-.175.881.881,0,0,0,.257-.481,3.185,3.185,0,0,0,.066-.667v-4.08a3.088,3.088,0,0,0-.066-.667A.845.845,0,0,0,44.69-5.2a.882.882,0,0,0-.6-.17.866.866,0,0,0-.58.17.83.83,0,0,0-.263.465,3.088,3.088,0,0,0-.066.667V.011a3.465,3.465,0,0,0,.06.667.837.837,0,0,0,.257.481A.866.866,0,0,0,44.094,1.335Zm5.612,1.072v-8.86h1.127L52.988-1.4V-6.454h1.335v8.86H53.25L51.084-2.887V2.407Zm10.053.12a2.619,2.619,0,0,1-1.335-.312,1.964,1.964,0,0,1-.809-.913,3.922,3.922,0,0,1-.306-1.477L58.7-.448a4.293,4.293,0,0,0,.126.908,1.314,1.314,0,0,0,.317.607.762.762,0,0,0,.563.213.632.632,0,0,0,.558-.235,1.018,1.018,0,0,0,.164-.6A1.612,1.612,0,0,0,60.163-.5a4.1,4.1,0,0,0-.7-.744l-1.116-.984a3.353,3.353,0,0,1-.749-.9,2.487,2.487,0,0,1-.279-1.231,2.1,2.1,0,0,1,.613-1.619,2.363,2.363,0,0,1,1.674-.569,2.484,2.484,0,0,1,1.039.191,1.652,1.652,0,0,1,.662.531,2.393,2.393,0,0,1,.366.771,4.551,4.551,0,0,1,.153.913L60.448-3.9a4.7,4.7,0,0,0-.093-.744,1.034,1.034,0,0,0-.252-.514.707.707,0,0,0-.531-.186.671.671,0,0,0-.552.235.9.9,0,0,0-.191.585,1.344,1.344,0,0,0,.186.738,2.891,2.891,0,0,0,.536.6l1.1.974a4.577,4.577,0,0,1,.935,1.077A2.75,2.75,0,0,1,61.979.35,2.245,2.245,0,0,1,61.7,1.477a2,2,0,0,1-.777.771A2.344,2.344,0,0,1,59.759,2.527Z" transform="translate(-863.32 -2204.997)" fill="#fff"/>
    <circle id="Ellipse_783" data-name="Ellipse 783" cx="25.884" cy="25.884" r="25.884" transform="translate(-857.971 -2296.091)" fill="#fff"/>
    <path id="Path_29006" data-name="Path 29006" d="M9618.01,7626.28l-4.84-.288c.327.736.56,1.258.815,1.839a18.991,18.991,0,0,1-8.341,1.65c.067-.49.112-.806.156-1.124.422-3.09.705-6.188-.2-9.233-.568-1.9-1.523-3.508-3.79-3.731a5.628,5.628,0,0,0-5.743,2.83c-1.49,2.766-.9,6.7,1.328,9.34,1.632,1.938,3.78,2.891,6.593,3.457-1.135,3.021-2.1,5.947-3.341,8.75a20.97,20.97,0,0,1-2.864,4.4c-.453.568-1.533,1.206-2.041,1.021-.644-.234-1.147-1.215-1.43-1.978a6.9,6.9,0,0,1-.345-2.6c.153-3.788.4-7.573.563-11.361a2.016,2.016,0,0,0-.428-1.456,2.893,2.893,0,0,0-4.516,1.47c-1.168,3.355-2.456,6.671-3.78,9.967a12.488,12.488,0,0,1-1.5,2.222l-.462-.086a20.329,20.329,0,0,1-.443-2.471,37.608,37.608,0,0,1,1.427-10.977,2.033,2.033,0,0,0-.312-1.693c-1.289-1.087-4.105-.086-4.526,1.53-.374,1.43-.761,2.865-1.022,4.318-.569,3.148-1.115,6.323-.343,9.506.741,3.043,3.714,3.937,5.965,1.752a19.623,19.623,0,0,0,2.652-3.528,27.6,27.6,0,0,0,1.449-2.913,3.6,3.6,0,0,1,.266,1.34,41.418,41.418,0,0,0,1.251,6.911c1.009,2.9,4.019,3.728,6.607,2.032a11.253,11.253,0,0,0,2.818-2.623,35.56,35.56,0,0,0,5.46-12.356,1.631,1.631,0,0,1,.923-1.046c2.745-.525,5.508-.963,8.268-1.42v0l.8-.1c.2.283.408.581.649.925C9616.5,7629.125,9617.2,7627.8,9618.01,7626.28Zm-13.73,3.083c-4.332-.728-6.814-3.13-7.444-6.867a4.559,4.559,0,0,1,4-5.58,2.561,2.561,0,0,1,2.859,1.7,11.25,11.25,0,0,1,.8,3.474C9604.547,7624.473,9604.366,7626.86,9604.279,7629.363Z" transform="translate(-10427.217 -9901.658)" fill="url(#linear-gradient)"/>
  </g>
</svg>
