<svg xmlns="http://www.w3.org/2000/svg" xmlns:xlink="http://www.w3.org/1999/xlink" width="30" height="30" viewBox="0 0 30 30">
  <defs>
    <clipPath id="clip-path">
      <rect id="Rectangle_7267" data-name="Rectangle 7267" width="11.898" height="14.342" fill="#005f52"/>
    </clipPath>
  </defs>
  <g id="Group_51285" data-name="Group 51285" transform="translate(-952 -701.153)">
    <circle id="Ellipse_825" data-name="Ellipse 825" cx="15" cy="15" r="15" transform="translate(952 701.153)" fill="#e2ecdd"/>
    <g id="Group_51268" data-name="Group 51268" transform="translate(962 709.392)">
      <g id="Group_40746" data-name="Group 40746" clip-path="url(#clip-path)">
        <path id="Path_84419" data-name="Path 84419" d="M8.17,11.176H9.363c0,.1,0,.2,0,.3-.006.466.019.936-.027,1.4a1.67,1.67,0,0,1-1.626,1.466q-3.026.01-6.052,0A1.7,1.7,0,0,1,0,12.642c0-1.5,0-2.994,0-4.49Q0,4.966,0,1.78A1.71,1.71,0,0,1,1.777,0H7.683A1.723,1.723,0,0,1,9.42,1.678c.008.208,0,.417,0,.638H8.17c0-.137,0-.276,0-.415a.6.6,0,0,0-.646-.647q-2.844,0-5.688,0a.6.6,0,0,0-.642.651q0,4.724,0,9.447a.606.606,0,0,0,.667.656H7.49a.612.612,0,0,0,.681-.672c0-.048,0-.1,0-.16" transform="translate(0 0.001)" fill="#005f52"/>
        <path id="Path_84420" data-name="Path 84420" d="M155.169,92.971c-.185-.06-.343-.106-.5-.163a.166.166,0,0,0-.211.055,2.092,2.092,0,0,1-.986.588.154.154,0,0,0-.134.156c-.01.136-.029.27-.039.406a.177.177,0,0,1-.205.189c-.238,0-.475,0-.713,0a.193.193,0,0,1-.22-.2,3.673,3.673,0,0,0-.053-.419.194.194,0,0,0-.1-.126,2.994,2.994,0,0,1-1.026-.619.2.2,0,0,0-.162-.035,2.744,2.744,0,0,0-.412.138.211.211,0,0,1-.28-.075c-.138-.187-.271-.379-.4-.572-.072-.107,0-.187.071-.253.095-.09.2-.172.3-.253a.242.242,0,0,0,.089-.258,3.114,3.114,0,0,1-.005-1.115.342.342,0,0,0-.083-.241,2.75,2.75,0,0,0-.3-.257.215.215,0,0,1-.049-.318c.124-.191.231-.393.348-.589a.216.216,0,0,1,.311-.114l.013.006a.568.568,0,0,0,.792-.115,1.472,1.472,0,0,1,.776-.4.139.139,0,0,0,.123-.147c.007-.145.035-.289.047-.434a.16.16,0,0,1,.176-.17c.252,0,.5,0,.756,0a.194.194,0,0,1,.2.2c.014.14.024.281.048.42a.167.167,0,0,0,.081.114,3.533,3.533,0,0,1,1.026.624.184.184,0,0,0,.208.037c.14-.053.286-.092.425-.147a.177.177,0,0,1,.238.077c.142.231.286.463.406.706.028.057-.019.175-.067.239a1.087,1.087,0,0,1-.234.195.245.245,0,0,0-.1.267,3.323,3.323,0,0,1,0,1.116.32.32,0,0,0,.062.222,2.3,2.3,0,0,0,.3.3.16.16,0,0,1,.036.24c-.128.195-.245.4-.379.587a.751.751,0,0,1-.19.141m-2.413-3.3a1.222,1.222,0,0,0-1.247,1.257,1.268,1.268,0,0,0,1.257,1.249,1.3,1.3,0,0,0,1.243-1.289,1.212,1.212,0,0,0-1.253-1.217" transform="translate(-143.879 -84.226)" fill="#005f52"/>
      </g>
    </g>
  </g>
</svg>
