<svg xmlns="http://www.w3.org/2000/svg" xmlns:xlink="http://www.w3.org/1999/xlink" width="30" height="30" viewBox="0 0 30 30">
  <defs>
    <clipPath id="clip-path">
      <rect id="Rectangle_7268" data-name="Rectangle 7268" width="11.55" height="11.571" fill="#005f52"/>
    </clipPath>
  </defs>
  <g id="Group_51286" data-name="Group 51286" transform="translate(-952 -740.153)">
    <circle id="Ellipse_783" data-name="Ellipse 783" cx="15" cy="15" r="15" transform="translate(952 740.153)" fill="#e2ecdd"/>
    <g id="Group_40748" data-name="Group 40748" transform="translate(961 749.153)" clip-path="url(#clip-path)">
      <path id="Path_84421" data-name="Path 84421" d="M10.346,104.678H1.324a.187.187,0,0,0-.04-.018,1.443,1.443,0,0,1-1.223-1.478q0-3.524,0-7.048V96H11.609v7.412a.279.279,0,0,0-.02.051,1.38,1.38,0,0,1-.7,1.012,3.581,3.581,0,0,1-.543.2m-7.094-3.213a1.056,1.056,0,0,0,.077,1.318,1.065,1.065,0,0,0,1.442.2c.214.594.553.878,1.051.884.522.006.856-.262,1.094-.885a1.094,1.094,0,0,0,1.512-1.518,1.111,1.111,0,0,0,.876-1.037c.02-.5-.247-.842-.882-1.109A1.094,1.094,0,0,0,6.91,97.8a1.091,1.091,0,0,0-2.141,0,1.091,1.091,0,0,0-1.323.076,1.06,1.06,0,0,0-.339.548,1.1,1.1,0,0,0,.156.891c-.613.219-.908.583-.9,1.094a1.109,1.109,0,0,0,.887,1.054" transform="translate(-0.059 -93.107)" fill="#005f52"/>
      <path id="Path_84422" data-name="Path 84422" d="M1.265,0h9.022a.283.283,0,0,0,.051.02,1.372,1.372,0,0,1,1.01.7,3.662,3.662,0,0,1,.2.544v.949H0c0-.266,0-.521,0-.776A1.382,1.382,0,0,1,.7.215,3.381,3.381,0,0,1,1.265,0M7.276,1.446h2.65c.117,0,.233,0,.35,0a.337.337,0,0,0,.276-.517.355.355,0,0,0-.328-.16H4.337c-.023,0-.045,0-.068,0a.34.34,0,1,0,.063.676H7.276m-5.757,0c.09,0,.18,0,.27,0a.338.338,0,0,0,0-.674C1.61.764,1.434.764,1.258.77a.338.338,0,0,0,0,.675c.086,0,.172,0,.258,0m1.513,0c.086,0,.172,0,.258,0a.338.338,0,0,0,0-.676q-.253-.007-.506,0a.338.338,0,0,0,0,.676c.082,0,.165,0,.247,0" transform="translate(0)" fill="#005f52"/>
      <path id="Path_84423" data-name="Path 84423" d="M104.582,151.848a.4.4,0,0,1-.379.4c-.105.005-.21,0-.316,0a.353.353,0,0,0-.358.24c-.022.056-.047.111-.068.167a.326.326,0,0,0,.071.356c.074.08.155.153.23.233a.4.4,0,1,1-.566.573c-.074-.069-.144-.143-.217-.214a.333.333,0,0,0-.393-.076l-.166.069a.341.341,0,0,0-.223.334c0,.109,0,.218,0,.328a.4.4,0,0,1-.372.383.392.392,0,0,1-.424-.35,3.086,3.086,0,0,1-.007-.338.349.349,0,0,0-.248-.362c-.053-.019-.1-.043-.156-.064a.332.332,0,0,0-.375.069c-.08.074-.153.155-.233.23a.4.4,0,0,1-.564-.572c.07-.074.144-.143.214-.216a.341.341,0,0,0,.076-.4c-.023-.051-.043-.1-.064-.156a.341.341,0,0,0-.331-.228c-.109,0-.218,0-.327,0a.4.4,0,0,1-.016-.8c.108-.008.218,0,.327,0a.35.35,0,0,0,.354-.244c.019-.049.04-.1.06-.146a.342.342,0,0,0-.077-.4c-.068-.07-.139-.138-.206-.209a.4.4,0,1,1,.578-.561c.069.069.134.142.2.211a.337.337,0,0,0,.384.074c.053-.02.1-.045.156-.065a.345.345,0,0,0,.243-.354c0-.1,0-.2,0-.3a.4.4,0,0,1,.8.022c0,.1,0,.2,0,.3a.342.342,0,0,0,.228.331c.056.022.11.047.166.069a.331.331,0,0,0,.366-.067c.08-.074.154-.155.233-.23a.4.4,0,1,1,.566.572c-.072.076-.15.148-.222.225a.334.334,0,0,0-.072.376c.022.056.046.111.069.167a.345.345,0,0,0,.339.232c.113,0,.226,0,.338,0a.4.4,0,0,1,.372.4m-2.8,1.128a1.128,1.128,0,1,0-1.124-1.13,1.127,1.127,0,0,0,1.124,1.13" transform="translate(-96.013 -144.564)" fill="#005f52"/>
      <path id="Path_84424" data-name="Path 84424" d="M177.159,227.67a.447.447,0,0,1-.444-.457.45.45,0,1,1,.444.457" transform="translate(-171.39 -219.936)" fill="#005f52"/>
    </g>
  </g>
</svg>
