<svg xmlns="http://www.w3.org/2000/svg" xmlns:xlink="http://www.w3.org/1999/xlink" width="30" height="30" viewBox="0 0 30 30">
  <defs>
    <clipPath id="clip-path">
      <rect id="Rectangle_7271" data-name="Rectangle 7271" width="13.668" height="13.656" fill="#005f52"/>
    </clipPath>
  </defs>
  <g id="Group_51289" data-name="Group 51289" transform="translate(-952 -856.153)">
    <circle id="Ellipse_829" data-name="Ellipse 829" cx="15" cy="15" r="15" transform="translate(952 856.153)" fill="#e2ecdd"/>
    <g id="Group_40754" data-name="Group 40754" transform="translate(960 864.153)" clip-path="url(#clip-path)">
      <path id="Path_84431" data-name="Path 84431" d="M120.752,359.685c0-.938,0-1.876,0-2.815a.2.2,0,0,1,.133-.208c.709-.349,1.414-.705,2.121-1.058.043-.021.087-.04.146-.067v.935h2.4v-.932a1.1,1.1,0,0,1,.109.039c.735.367,1.469.736,2.2,1.1a.153.153,0,0,1,.1.164c0,.947,0,1.894,0,2.841h-.027c-.041-.025-.08-.053-.123-.075-.655-.328-1.308-.657-1.965-.981a.456.456,0,0,1-.288-.464c0-.075,0-.151,0-.227q0-.324,0-.647h-2.4c0,.289-.008.568,0,.847a.493.493,0,0,1-.313.5c-.65.317-1.3.644-1.942.968-.043.021-.082.05-.123.075Z" transform="translate(-117.52 -346.029)" fill="#005f52"/>
      <path id="Path_84432" data-name="Path 84432" d="M2.4,359.911c-.041-.025-.08-.053-.123-.074-.657-.325-1.312-.652-1.971-.971a.492.492,0,0,1-.31-.493c.006-.862,0-1.725,0-2.6a.928.928,0,0,1,.1.035c.744.367,1.488.737,2.234,1.1a.152.152,0,0,1,.1.163c0,.947,0,1.894,0,2.841Z" transform="translate(0 -346.255)" fill="#005f52"/>
      <path id="Path_84433" data-name="Path 84433" d="M420.25,360.069q0-1.421,0-2.843a.142.142,0,0,1,.085-.156c.754-.368,1.506-.742,2.259-1.114a.489.489,0,0,1,.087-.025v2.776a.611.611,0,0,1-.34.332c-.648.314-1.293.636-1.939.956-.043.021-.082.049-.123.074Z" transform="translate(-409.011 -346.413)" fill="#005f52"/>
      <path id="Path_84434" data-name="Path 84434" d="M5.948,90.5l1.116-2.035c-.171-.085-.33-.171-.494-.246a.477.477,0,0,1-.3-.486c.006-.863,0-1.725,0-2.609.045.018.08.029.113.045l2.193,1.1c.058.029.1.054.1.135,0,.947,0,1.895,0,2.842a.4.4,0,0,1-.009.048l-.885-.466L6.66,90.867l1.162.606c-.051.028-.089.049-.128.068Q6.437,92.17,5.179,92.8a.236.236,0,0,1-.18.015c-.878-.429-1.752-.864-2.628-1.3-.019-.01-.037-.022-.068-.041.055-.03.1-.055.146-.078.782-.4,1.566-.8,2.345-1.207a.533.533,0,0,1,.565,0c.187.11.385.2.59.307" transform="translate(-2.241 -82.848)" fill="#005f52"/>
      <path id="Path_84435" data-name="Path 84435" d="M272.17,88.46l1.116,2.035c.21-.108.416-.208.615-.32a.5.5,0,0,1,.517,0c.8.416,1.6.825,2.405,1.236.031.016.062.034.106.059-.04.024-.071.045-.1.061q-1.283.636-2.568,1.268a.22.22,0,0,1-.168.012q-1.314-.648-2.623-1.307a.451.451,0,0,1-.048-.036l1.155-.6-1.121-2.046-.889.469c0-.052-.006-.086-.006-.119q0-1.374,0-2.749c0-.063,0-.113.074-.149.753-.372,1.5-.748,2.253-1.123.018-.009.039-.014.075-.027v.143c0,.823,0,1.646,0,2.468a.477.477,0,0,1-.3.485c-.161.073-.317.157-.492.245" transform="translate(-263.323 -82.844)" fill="#005f52"/>
      <path id="Path_84436" data-name="Path 84436" d="M158.5,1.391c-.049.027-.083.047-.118.064q-1.263.631-2.527,1.259a.234.234,0,0,1-.18.012c-.868-.428-1.732-.863-2.6-1.3-.019-.01-.037-.022-.067-.04.054-.03.1-.056.144-.08.777-.411,1.555-.82,2.33-1.236a.522.522,0,0,1,.54,0c.782.42,1.568.833,2.353,1.248l.123.068" transform="translate(-148.917 0.001)" fill="#005f52"/>
    </g>
  </g>
</svg>
