<svg xmlns="http://www.w3.org/2000/svg" xmlns:xlink="http://www.w3.org/1999/xlink" width="30" height="30" viewBox="0 0 30 30">
  <defs>
    <clipPath id="clip-path">
      <rect id="Rectangle_7272" data-name="Rectangle 7272" width="12.221" height="12.241" fill="#005f52"/>
    </clipPath>
  </defs>
  <g id="Group_51290" data-name="Group 51290" transform="translate(-952 -895.153)">
    <circle id="Ellipse_830" data-name="Ellipse 830" cx="15" cy="15" r="15" transform="translate(952 895.153)" fill="#e2ecdd"/>
    <g id="Group_40756" data-name="Group 40756" transform="translate(961 904.153)" clip-path="url(#clip-path)">
      <path id="Path_84437" data-name="Path 84437" d="M12.221,1.889a.453.453,0,0,1-.481.266c-.425-.011-.851,0-1.277,0a.367.367,0,0,1-.414-.41c0-.1,0-.2,0-.3H8.6c.048.035.08.06.113.084A4.573,4.573,0,0,1,10.69,4.716a.618.618,0,0,0,.329.543,1,1,0,0,1,.434,1.1,1.078,1.078,0,0,1-.87.815,1.07,1.07,0,0,1-.636-2.021c.051-.026.078-.049.071-.116a3.967,3.967,0,0,0-.844-2.109A3.865,3.865,0,0,0,7.14,1.587c-.063-.018-.09,0-.123.053a1.054,1.054,0,0,1-1.808,0,.1.1,0,0,0-.135-.05A3.946,3.946,0,0,0,2.226,4.85a.315.315,0,0,0,.171.383,1.025,1.025,0,0,1,.464,1.135,1.072,1.072,0,0,1-2.028.176,1.061,1.061,0,0,1,.523-1.382A.22.22,0,0,0,1.5,4.953a4.567,4.567,0,0,1,1.27-2.8c.248-.26.539-.479.8-.708h-1.4c0,.1,0,.205,0,.311a.363.363,0,0,1-.4.4q-.686,0-1.372,0a.363.363,0,0,1-.4-.4C0,1.327.012.9,0,.482A.454.454,0,0,1,.266,0H1.913c.334.141.253.443.264.717h.137c.875,0,1.749,0,2.624,0,.113,0,.195-.009.232-.139A.629.629,0,0,1,5.293.392,1.155,1.155,0,0,1,5.97,0h.286A.234.234,0,0,0,6.3.018a1.08,1.08,0,0,1,.8.636.169.169,0,0,0,.131.061c.9,0,1.8,0,2.707,0h.113C10.06.443,9.979.141,10.313,0h1.646l.262.263Z" transform="translate(0)" fill="#005f52"/>
      <path id="Path_84438" data-name="Path 84438" d="M122.95,362.125l-.083-.043a.339.339,0,0,1-.167-.434,1.445,1.445,0,0,1,1.349-.978q1.072-.013,2.145,0a1.445,1.445,0,0,1,1.349.978c.074.2,0,.349-.25.478Z" transform="translate(-119.009 -349.883)" fill="#005f52"/>
      <path id="Path_84439" data-name="Path 84439" d="M100.356,108.881V105.5c.032.043.054.068.072.1l2.685,4.034a.368.368,0,0,1-.025.538,4.576,4.576,0,0,0-1.2,2.308c0,.023-.012.045-.022.08a1.491,1.491,0,0,0-.2-.063,4.7,4.7,0,0,0-.647-.086c-.668-.011-1.336,0-2,0a2.333,2.333,0,0,0-.819.132.427.427,0,0,1-.059.014c-.09-.292-.166-.585-.27-.867a4.221,4.221,0,0,0-.849-1.385c-.037-.041-.077-.081-.113-.123a.373.373,0,0,1-.036-.529q.57-.861,1.143-1.719l1.534-2.305c.023-.035.049-.068.092-.13v.133c0,1.048,0,2.1,0,3.143a.155.155,0,0,1-.109.167,1.059,1.059,0,0,0-.607,1,1.071,1.071,0,0,0,.724.971,1.07,1.07,0,0,0,.784-1.988l-.076-.037" transform="translate(-93.882 -102.338)" fill="#005f52"/>
      <path id="Path_84440" data-name="Path 84440" d="M193.29,241.2a.357.357,0,1,1-.339-.375.361.361,0,0,1,.339.375" transform="translate(-186.821 -233.632)" fill="#005f52"/>
    </g>
  </g>
</svg>
