<svg xmlns="http://www.w3.org/2000/svg" width="100.444" height="103.959" viewBox="0 0 100.444 103.959">
  <g id="Innovation" transform="translate(5925.058 -1143.542)">
    <path id="Path_84479" data-name="Path 84479" d="M147.556,74.013l5.016,9.743.188-.012c.073-1.156.163-2.311.214-3.469.115-2.628.172-5.258.323-7.884a5.673,5.673,0,0,1,4.4-5.579,5.763,5.763,0,0,1,6.952,5.2c.046.534.093,1.069.139,1.592.678,0,1.284-.042,1.883.007a6.19,6.19,0,0,1,5.764,5.271c1.011,5.3,1.955,10.617,2.788,15.949.578,3.7.893,7.431,1.379,11.141a13.611,13.611,0,0,1-2.326,9.328c-2.816,4.42-6.521,8.053-10.293,11.622-2.617,2.477-5.282,4.9-7.928,7.349-.528.488-1.066.965-1.681,1.522.327.206.5.31.663.419a1.616,1.616,0,0,1,.687,2.072,1.587,1.587,0,0,1-1.923,1.018c-3.506-.615-7.018-1.2-10.513-1.869q-15.422-2.959-30.833-5.977c-.071-.014-.143-.021-.213-.035-2.324-.454-2.325-.455-3.562,1.622-1.014,1.7-2.018,3.408-3.041,5.1-.706,1.171-1.668,1.505-2.585.928-.86-.541-1-1.539-.342-2.656q2.256-3.811,4.536-7.607c.92-1.54,1.219-1.671,2.984-1.338.208.039.422.044.633.065.394-2.221.739-4.413,1.18-6.587.672-3.313,1.453-6.6,2.1-9.922a19.078,19.078,0,0,0,.216-3.444c.027-3.063,0-6.126.012-9.189.014-4.656,2.224-7.092,6.931-7.507,0-2.17.008-4.355-.016-6.541,0-.157-.2-.365-.357-.458-1.582-.931-1.735-1.666-.535-3.289-.709-1.013-1.424-2.086-2.191-3.12-1.631-2.2-3.409-4.295-4.917-6.573C107.185,61.7,107.9,50,115.193,42.4c6.388-6.658,14.288-8.508,22.985-5.8,8.657,2.694,14.008,8.728,15.654,17.721,1.3,7.074-1.072,13.194-5.453,18.669l-.822,1.029M162.07,104.2c-.375,2.311-.641,4.2-1,6.069a1.642,1.642,0,0,1-1.9,1.373,1.665,1.665,0,0,1-1.46-1.829,4.981,4.981,0,0,1,.157-1.283,11.648,11.648,0,0,0-1.248-9.01c-3.7-7.041-7.17-14.207-10.732-21.322-.129-.258-.249-.521-.4-.767a2.776,2.776,0,0,0-3.156-1.3A2.6,2.6,0,0,0,140.4,78.8a7.054,7.054,0,0,0,.347,1.9q2.574,8.126,5.2,16.235a5.6,5.6,0,0,1-.326,4.7,15.608,15.608,0,0,1-2.9,3.985c-2.535,2.224-5.262,4.24-8,6.215-1.1.793-2.293,1.224-1.43,2.983.395.8-.147,1.611-1.067,1.946a1.664,1.664,0,0,1-2.136-.966,12.6,12.6,0,0,1-.459-1.21q-3.242-8.874-6.488-17.746a5.884,5.884,0,0,0-.662-1.351,2.249,2.249,0,0,0-3.881-.062,5.806,5.806,0,0,0-.8,2.831c-.1,2.987.075,5.985-.07,8.969a66.641,66.641,0,0,1-.867,8.136c-.6,3.469-1.52,6.882-2.184,10.343-.48,2.5-.387,2.481,2.1,2.956q15.854,3.036,31.7,6.137c1.3.256,2.295.282,3.151-.939a15.546,15.546,0,0,1,2.2-2.221c3.466-3.256,6.984-6.458,10.4-9.765a40.634,40.634,0,0,0,7.646-9.327,10.392,10.392,0,0,0,1.315-6.118c-.78-8.946-2.428-17.757-4.055-26.571a4.756,4.756,0,0,0-1.083-2.167,2.061,2.061,0,0,0-2.58-.424c-.325.184-.336,1.131-.3,1.719.355,5.535.752,11.068,1.137,16.6.089,1.272-.495,2.093-1.551,2.183-1.072.092-1.781-.561-1.886-1.867-.22-2.764-.39-5.533-.581-8.3-.344-4.995-.671-9.991-1.044-14.983-.121-1.624-1.1-2.6-2.393-2.558-1.325.042-2.106,1.007-2.178,2.707-.235,5.579-.484,11.157-.679,16.737a4.324,4.324,0,0,0,.419,1.947c1.326,2.757,2.793,5.447,4.068,8.226a46.159,46.159,0,0,1,1.587,4.522m-30.4-36.623c1.272-1.268,2.462-2.467,3.665-3.651.991-.975,1.947-1.076,2.749-.317.822.778.745,1.835-.24,2.841-1.21,1.236-2.482,2.415-3.635,3.7a2.848,2.848,0,0,0-.685,1.683c-.055,2.05.016,4.1.056,6.157.052,2.7-.483,2.312,2.438,2.362.713.012.925-.206.832-.958a6.061,6.061,0,0,1,5.664-6.811,3.329,3.329,0,0,0,2.971-1.656c.291-.453.66-.855.983-1.289a18.876,18.876,0,0,0,3.888-14.712c-2.128-13.5-18.324-20.628-30.027-12.633-7.923,5.413-10.137,16.689-5.067,25.287,1.51,2.561,3.489,4.842,5.2,7.288a48.478,48.478,0,0,1,3.075,4.8,1.327,1.327,0,0,0,1.474.861c1.253-.082,2.509-.164,3.764-.169.718,0,1.036-.193,1.032-.976-.014-2.557.073-5.115.027-7.672a2.635,2.635,0,0,0-.675-1.575c-1.214-1.329-2.543-2.553-3.787-3.856a1.763,1.763,0,0,1,.364-2.972,1.816,1.816,0,0,1,2.233.553c1.22,1.217,2.434,2.44,3.7,3.711m-.03,42.144a40.787,40.787,0,0,0,8.188-6.008,17.993,17.993,0,0,0,2.508-3.081A3.3,3.3,0,0,0,142.8,98.5a27.23,27.23,0,0,0-1.091-3.617c-2.612,2.838-2.74,2.893-6.614,2.893-2.2,0-4.392,0-6.588,0-.376,0-.753.04-1.241.067l4.372,11.878m-6.761-22.247h1.272l7.021,0a1.692,1.692,0,1,1,.062,3.361c-2.484.028-4.968,0-7.453.015-.335,0-.932.092-.958.227a2.531,2.531,0,0,0,.025,1.656c.419.627.556,1.675,1.617,1.677,3.42.006,6.841.012,10.26-.037,1.3-.018,1.883-.655,1.9-1.987.036-2.2.016-4.392.006-6.588a5.623,5.623,0,0,0-.126-.851c-.12-.746-.489-1.053-1.31-1.04-3.2.051-6.409.021-9.613.02s-3.2,0-2.831,3.262a2.292,2.292,0,0,0,.124.287" transform="translate(-6001.325 1108.147)"/>
    <path id="Path_84480" data-name="Path 84480" d="M24.092,177.565c-1.009.01-1.475-.612-1.726-1.483a17.592,17.592,0,0,0-3.172-6.207,13.657,13.657,0,0,0-5.7-4.319c-.827-.325-1.494-.779-1.5-1.758s.67-1.422,1.488-1.766c4.46-1.874,7.085-5.377,8.648-9.81.084-.237.156-.479.221-.722a1.726,1.726,0,0,1,1.722-1.5,1.748,1.748,0,0,1,1.724,1.5,15.832,15.832,0,0,0,4.826,7.908,28.791,28.791,0,0,0,4.359,2.736,1.832,1.832,0,0,1,1.174,1.643,1.663,1.663,0,0,1-1.184,1.631c-4.806,1.947-7.564,5.672-9.1,10.462-.409,1.278-.845,1.692-1.784,1.691m6.168-13.649a48.745,48.745,0,0,1-3.53-3.475,46.847,46.847,0,0,1-2.741-4.031,18.169,18.169,0,0,1-6.579,7.4c3.1,1.658,4.937,4.212,6.722,7.037a18.421,18.421,0,0,1,6.128-6.934" transform="translate(-5937.052 1026.582)"/>
    <path id="Path_84482" data-name="Path 84482" d="M80.906,234.184a1.622,1.622,0,0,1,1.676,1.255,9.992,9.992,0,0,0,5.947,6.694,1.673,1.673,0,0,1,.017,3,9.993,9.993,0,0,0-5.952,6.689,1.713,1.713,0,0,1-3.315-.031,10.008,10.008,0,0,0-5.876-6.626,2.087,2.087,0,0,1-1-1.572,1.932,1.932,0,0,1,.994-1.469,9.994,9.994,0,0,0,5.877-6.624,1.6,1.6,0,0,1,1.636-1.311m.037,6.086-2.909,3.144,2.959,3.274,2.8-3.026-2.85-3.393" transform="translate(-5980.044 966.663)"/>
    <path id="Path_84483" data-name="Path 84483" d="M89.235,69.384c-.255.3-.544.929-1.012,1.124a2.021,2.021,0,0,1-1.672-.117A11.853,11.853,0,0,1,84.414,68.3a1.465,1.465,0,0,1,.025-1.977c.493-.611,1.259-.984,1.89-.5a25.306,25.306,0,0,1,2.734,2.659c.123.127.085.409.172.908" transform="translate(-5988.332 1086.652)"/>
    <path id="Path_84484" data-name="Path 84484" d="M85.889,125.017c-.342-.284-1-.571-1.165-1.035a2.24,2.24,0,0,1,.175-1.767,10.136,10.136,0,0,1,1.947-1.987,1.544,1.544,0,0,1,2.076-.038,1.408,1.408,0,0,1,.474,1.99,21.457,21.457,0,0,1-2.537,2.58c-.157.148-.468.132-.97.257" transform="translate(-5988.742 1048.068)"/>
    <path id="Path_84485" data-name="Path 84485" d="M311.769,61.636a4.477,4.477,0,0,1-.488,1.167,20.451,20.451,0,0,1-2.058,2.06,1.522,1.522,0,0,1-2.156-.112,1.623,1.623,0,0,1-.158-2.251,10.137,10.137,0,0,1,2.01-1.944,2.245,2.245,0,0,1,1.776-.177c.464.174.743.843,1.074,1.256" transform="translate(-6146.682 1090.441)"/>
    <path id="Path_84486" data-name="Path 84486" d="M308.493,113.368a4.983,4.983,0,0,1,1.139.534,21.535,21.535,0,0,1,1.99,1.976,1.6,1.6,0,0,1-.129,2.248,1.563,1.563,0,0,1-2.245.065,9.973,9.973,0,0,1-1.946-2.007,2.194,2.194,0,0,1-.112-1.779c.193-.46.872-.716,1.3-1.037" transform="translate(-6147.056 1052.652)"/>
    <path id="Path_84487" data-name="Path 84487" d="M320.884,93.1c-1.78.005-2.6-.536-2.584-1.7s.845-1.7,2.621-1.7a7.2,7.2,0,0,1,.97.025,1.688,1.688,0,0,1-.144,3.371c-.286.019-.576,0-.864,0" transform="translate(-6155.06 1069.498)"/>
    <path id="Path_84488" data-name="Path 84488" d="M74.732,95.611a7.083,7.083,0,0,1,1.174.115,1.672,1.672,0,0,1-.214,3.292,12.167,12.167,0,0,1-1.725.021A1.725,1.725,0,0,1,72.1,97.365a1.823,1.823,0,0,1,1.763-1.712,8.6,8.6,0,0,1,.862,0l0-.037" transform="translate(-5979.834 1065.29)"/>
    <path id="Path_84491" data-name="Path 84491" d="M43.632,179.752a18.421,18.421,0,0,0-6.128,6.934c-1.784-2.825-3.621-5.379-6.722-7.037a18.169,18.169,0,0,0,6.579-7.4,46.845,46.845,0,0,0,2.741,4.031,48.749,48.749,0,0,0,3.53,3.475" transform="translate(-5950.425 1010.746)" fill="#018073"/>
    <path id="Path_84493" data-name="Path 84493" d="M94.854,255.3l2.85,3.393-2.8,3.026-2.958-3.274,2.909-3.144" transform="translate(-5993.956 951.637)" fill="#018073"/>
  </g>
</svg>
