<?xml version="1.0" encoding="utf-8"?>
<!-- Generator: Adobe Illustrator 27.0.1, SVG Export Plug-In . SVG Version: 6.00 Build 0)  -->
<svg version="1.1" id="Layer_1" xmlns="http://www.w3.org/2000/svg" xmlns:xlink="http://www.w3.org/1999/xlink" x="0px" y="0px"
	 viewBox="0 0 32 32" style="enable-background:new 0 0 32 32;" xml:space="preserve">
<style type="text/css">
	.st0{fill:#FFFFFF;}
</style>
<circle id="Ellipse_835" class="st0" cx="16" cy="16" r="16"/>
<path id="Path_84536" d="M16,9.7c1.7,0,1.9,0,2.6,0c0.5,0,1,0.1,1.5,0.3c0.4,0.2,0.8,0.4,1.1,0.7c0.3,0.3,0.6,0.7,0.7,1.1
	c0.2,0.5,0.3,1,0.3,1.5c0,0.7,0,0.9,0,2.6s0,1.9,0,2.6c0,0.5-0.1,1-0.3,1.5c-0.3,0.8-1,1.5-1.8,1.8c-0.5,0.2-1,0.3-1.5,0.3
	c-0.7,0-0.9,0-2.6,0c-1.7,0-1.9,0-2.6,0c-0.5,0-1-0.1-1.5-0.3c-0.8-0.3-1.5-1-1.8-1.8c-0.2-0.5-0.3-1-0.3-1.5c0-0.7,0-0.9,0-2.6
	s0-1.9,0-2.6c0-0.5,0.1-1,0.3-1.5c0.3-0.8,1-1.5,1.8-1.8c0.5-0.2,1-0.3,1.5-0.3C14.1,9.7,14.3,9.7,16,9.7z M16,12.9
	c-1.7,0-3.1,1.4-3.1,3.1s1.4,3.1,3.1,3.1s3.1-1.4,3.1-3.1l0,0C19.1,14.3,17.7,12.9,16,12.9z M20.1,12.7c0-0.4-0.4-0.8-0.8-0.8
	c-0.4,0-0.8,0.4-0.8,0.8s0.4,0.8,0.8,0.8C19.7,13.5,20.1,13.1,20.1,12.7L20.1,12.7z M16,14.1c1,0,1.9,0.8,1.9,1.9
	c0,1-0.8,1.9-1.9,1.9c-1,0-1.9-0.8-1.9-1.9C14.1,15,15,14.1,16,14.1L16,14.1z"/>
</svg>
