<svg id="instagram-Black" xmlns="http://www.w3.org/2000/svg" width="15.024" height="15.024" viewBox="0 0 15.024 15.024">
  <path id="Path_84535" data-name="Path 84535" d="M0,0H15.024V15.024H0Z" fill="none"/>
  <path id="Path_84536" data-name="Path 84536" d="M8.26,2c1.7,0,1.913.006,2.58.038a4.612,4.612,0,0,1,1.52.291,3.052,3.052,0,0,1,1.109.722,3.072,3.072,0,0,1,.722,1.109,4.625,4.625,0,0,1,.291,1.52c.029.667.038.88.038,2.58s-.006,1.913-.038,2.58a4.628,4.628,0,0,1-.291,1.52,3.2,3.2,0,0,1-1.831,1.831,4.625,4.625,0,0,1-1.52.291c-.667.029-.88.038-2.58.038s-1.913-.006-2.58-.038a4.628,4.628,0,0,1-1.52-.291A3.2,3.2,0,0,1,2.329,12.36a4.608,4.608,0,0,1-.291-1.52C2.008,10.173,2,9.961,2,8.26s.006-1.913.038-2.58a4.608,4.608,0,0,1,.291-1.52A3.2,3.2,0,0,1,4.16,2.329a4.608,4.608,0,0,1,1.52-.291C6.347,2.008,6.559,2,8.26,2Zm0,3.13a3.13,3.13,0,1,0,3.13,3.13A3.13,3.13,0,0,0,8.26,5.13Zm4.069-.157a.783.783,0,1,0-.783.783A.783.783,0,0,0,12.329,4.974ZM8.26,6.382A1.878,1.878,0,1,1,6.382,8.26,1.878,1.878,0,0,1,8.26,6.382Z" transform="translate(-0.748 -0.748)"/>
</svg>
