<?xml version="1.0" encoding="utf-8"?>
<!-- Generator: Adobe Illustrator 27.0.1, SVG Export Plug-In . SVG Version: 6.00 Build 0)  -->
<svg version="1.1" id="Layer_1" xmlns="http://www.w3.org/2000/svg" xmlns:xlink="http://www.w3.org/1999/xlink" x="0px" y="0px"
	 viewBox="0 0 32 32" style="enable-background:new 0 0 32 32;" xml:space="preserve">
<style type="text/css">
	.st0{fill:#181D26;}
	.st1{fill:#FFFFFF;}
</style>
<circle id="Ellipse_834" class="st0" cx="16" cy="16" r="16"/>
<path id="Path_84534" class="st1" d="M12.4,11.2c0,0.7-0.6,1.3-1.3,1.3c-0.7,0-1.3-0.6-1.3-1.3c0-0.7,0.6-1.3,1.3-1.3c0,0,0,0,0,0
	C11.9,9.9,12.4,10.5,12.4,11.2z M12.5,13.4H9.9v8h2.6V13.4z M16.5,13.4H14v8h2.5v-4.2c0-2.3,3-2.6,3,0v4.2H22v-5.1
	c0-3.9-4.5-3.8-5.6-1.9L16.5,13.4z"/>
</svg>
