<svg xmlns="http://www.w3.org/2000/svg" xmlns:xlink="http://www.w3.org/1999/xlink" width="165.542" height="86.463" viewBox="0 0 165.542 86.463">
  <defs>
    <linearGradient id="linear-gradient" y1="0.477" x2="1" y2="0.482" gradientUnits="objectBoundingBox">
      <stop offset="0" stop-color="#009385"/>
      <stop offset="1" stop-color="#005b4e"/>
    </linearGradient>
  </defs>
  <g id="Group_36178" data-name="Group 36178" transform="translate(673.527 2566.272)">
    <g id="Group_36177" data-name="Group 36177" transform="translate(-78.849 -185.272)">
      <circle id="Ellipse_783" data-name="Ellipse 783" cx="29.876" cy="29.876" r="29.876" transform="translate(-542.151 -2381)" fill="url(#linear-gradient)"/>
      <path id="Path_29006" data-name="Path 29006" d="M9624.141,7627.964l-5.586-.333c.377.849.645,1.452.941,2.123a21.931,21.931,0,0,1-9.629,1.906c.08-.567.133-.932.183-1.3.487-3.566.813-7.143-.235-10.658-.654-2.191-1.758-4.048-4.375-4.307a6.5,6.5,0,0,0-6.627,3.266c-1.721,3.193-1.039,7.734,1.531,10.782,1.885,2.236,4.364,3.336,7.61,3.99-1.311,3.487-2.421,6.864-3.856,10.1a24.17,24.17,0,0,1-3.307,5.075c-.522.656-1.768,1.392-2.354,1.179-.743-.271-1.325-1.4-1.65-2.284a7.917,7.917,0,0,1-.4-3c.176-4.373.462-8.741.648-13.113a2.332,2.332,0,0,0-.492-1.68,3.341,3.341,0,0,0-5.213,1.7c-1.348,3.873-2.834,7.7-4.363,11.5a14.423,14.423,0,0,1-1.729,2.564l-.533-.1a23.288,23.288,0,0,1-.511-2.853c-.249-4.322.645-8.5,1.646-12.669a2.349,2.349,0,0,0-.358-1.954c-1.488-1.256-4.739-.1-5.226,1.765-.432,1.652-.877,3.308-1.18,4.986-.658,3.633-1.288,7.3-.395,10.971.855,3.513,4.285,4.544,6.885,2.022a22.706,22.706,0,0,0,3.061-4.071,31.822,31.822,0,0,0,1.671-3.362,4.16,4.16,0,0,1,.31,1.547c.434,2.671.568,5.454,1.443,7.977,1.163,3.352,4.638,4.3,7.624,2.345a13,13,0,0,0,3.255-3.028c3.176-4.261,4.939-9.176,6.3-14.262a1.872,1.872,0,0,1,1.063-1.208c3.169-.607,6.358-1.111,9.543-1.638h0l.923-.112c.23.328.473.67.752,1.069C9622.4,7631.247,9623.209,7629.719,9624.141,7627.964Zm-15.848,3.558c-5-.839-7.865-3.612-8.593-7.927-.563-3.345,1.534-6.229,4.614-6.439a2.955,2.955,0,0,1,3.3,1.964,12.941,12.941,0,0,1,.922,4.009C9608.6,7625.877,9608.393,7628.633,9608.293,7631.521Z" transform="translate(-10110.008 -9985.057)" fill="#fff"/>
    </g>
    <path id="Path_29012" data-name="Path 29012" d="M2.133,0,.473-13.763H3.055l.813,7.994,1.054-7.994H6.931l1.1,7.952.83-7.952h2.548L9.745,0H7.105L5.935-8.3,4.806,0ZM12.958,0V-13.763H16V-8.2h2.117v-5.562h3.046V0H18.121V-6.026H16V0ZM23.275,0V-13.763h3.038V0Zm6.35,0V-11.513H27.509v-2.25h7.255v2.25H32.672V0Zm6.317,0V-13.763h6.184v2.075H38.98v3.4h2.4v2.117h-2.4v4.109H42.16V0Zm7.6,0V-13.763h2.142L48.51-7.155v-6.607h2.523V0H48.975L46.136-7.122V0ZM60.372-4.74h1.469L61.1-10.069ZM56.761,0l2.606-13.763H62.8L65.394,0H62.588l-.473-2.922H60.106L59.641,0ZM69.81-7.977h.971A1.209,1.209,0,0,0,71.872-8.4a2.764,2.764,0,0,0,.27-1.424q0-.357-.021-.6a2.265,2.265,0,0,0-.1-.49A.954.954,0,0,0,71.8-11.3a1.063,1.063,0,0,0-.4-.237,1.871,1.871,0,0,0-.623-.091H69.81ZM66.771,0V-13.763h4.59a3.46,3.46,0,0,1,2.731,1.021A4.348,4.348,0,0,1,75-9.77a6.393,6.393,0,0,1-.137,1.386,3.289,3.289,0,0,1-.4,1.038,3.06,3.06,0,0,1-.614.718,2.6,2.6,0,0,1-.813.461,4.924,4.924,0,0,1-.95.237A7.51,7.51,0,0,1,71-5.86h-1.2V0ZM79.455-7.977h.971A1.209,1.209,0,0,0,81.518-8.4a2.764,2.764,0,0,0,.27-1.424q0-.357-.021-.6a2.265,2.265,0,0,0-.1-.49.954.954,0,0,0-.224-.394,1.063,1.063,0,0,0-.4-.237,1.871,1.871,0,0,0-.623-.091h-.963ZM76.417,0V-13.763h4.59a3.46,3.46,0,0,1,2.731,1.021,4.348,4.348,0,0,1,.9,2.972,6.393,6.393,0,0,1-.137,1.386,3.289,3.289,0,0,1-.4,1.038,3.06,3.06,0,0,1-.614.718,2.6,2.6,0,0,1-.813.461,4.924,4.924,0,0,1-.95.237,7.51,7.51,0,0,1-1.075.071h-1.2V0ZM94.081.191A3.777,3.777,0,0,1,91.163-.851,5.067,5.067,0,0,1,90.13-4.175l2.606-.4a4.567,4.567,0,0,0,.311,1.88.944.944,0,0,0,.884.585q.772,0,.772-1a2.6,2.6,0,0,0-.2-1.025,2.966,2.966,0,0,0-.49-.8,8.158,8.158,0,0,0-.813-.78l-1.22-1.054a9.2,9.2,0,0,1-.73-.7,5.374,5.374,0,0,1-.569-.751,3.248,3.248,0,0,1-.411-.967,4.824,4.824,0,0,1-.133-1.17,3.411,3.411,0,0,1,1.029-2.656,4.062,4.062,0,0,1,2.822-.946,4.366,4.366,0,0,1,1.116.133,3.07,3.07,0,0,1,.847.349,2.4,2.4,0,0,1,.606.544,3.31,3.31,0,0,1,.415.656,4.119,4.119,0,0,1,.257.739,5.582,5.582,0,0,1,.141.751q.037.34.054.73l-2.631.34q-.008-.349-.021-.577t-.046-.486a1.958,1.958,0,0,0-.091-.415,1.3,1.3,0,0,0-.154-.295.53.53,0,0,0-.241-.2.831.831,0,0,0-.344-.05.7.7,0,0,0-.61.336,1.325,1.325,0,0,0-.212.735,2.474,2.474,0,0,0,.1.71,1.851,1.851,0,0,0,.332.618,5.452,5.452,0,0,0,.386.448q.149.149.5.465l1.17,1.029a10.184,10.184,0,0,1,.83.826,6.851,6.851,0,0,1,.664.9,4.03,4.03,0,0,1,.477,1.1,4.953,4.953,0,0,1,.162,1.291,3.337,3.337,0,0,1-1,2.478A3.56,3.56,0,0,1,94.081.191Zm9.031,0a5.591,5.591,0,0,1-1.955-.3,2.893,2.893,0,0,1-1.287-.9,3.777,3.777,0,0,1-.689-1.415A7.675,7.675,0,0,1,98.97-4.35V-9.43a7.663,7.663,0,0,1,.212-1.922,3.74,3.74,0,0,1,.689-1.407,2.878,2.878,0,0,1,1.287-.9,5.662,5.662,0,0,1,1.955-.3,3.985,3.985,0,0,1,3.2,1.141,5.117,5.117,0,0,1,.967,3.383v5.08a5.152,5.152,0,0,1-.967,3.391A3.969,3.969,0,0,1,103.112.191Zm-.473-2.25a1.047,1.047,0,0,0,.473.1,1.085,1.085,0,0,0,.473-.1.807.807,0,0,0,.307-.241,1.112,1.112,0,0,0,.17-.378,2.468,2.468,0,0,0,.079-.436q.017-.2.017-.486v-6.6q0-.274-.017-.477a2.383,2.383,0,0,0-.079-.432,1.065,1.065,0,0,0-.17-.369.827.827,0,0,0-.307-.237,1.085,1.085,0,0,0-.473-.1,1.058,1.058,0,0,0-.469.1.856.856,0,0,0-.3.232.975.975,0,0,0-.166.374,2.492,2.492,0,0,0-.071.427q-.012.191-.012.481v6.6q0,.291.012.486a2.491,2.491,0,0,0,.071.432,1.017,1.017,0,0,0,.166.378A.881.881,0,0,0,102.639-2.059ZM109.105,0V-13.763h3.038v11.7H115.3V0Zm11.5.191a6.151,6.151,0,0,1-1.639-.2A3.338,3.338,0,0,1,117.8-.556a2.666,2.666,0,0,1-.747-.926,4.409,4.409,0,0,1-.4-1.253,9.66,9.66,0,0,1-.116-1.6v-9.43h3v9.878q0,.324.017.552a3.19,3.19,0,0,0,.079.494,1.418,1.418,0,0,0,.17.436.836.836,0,0,0,.311.282.992.992,0,0,0,.486.112.968.968,0,0,0,.481-.112.844.844,0,0,0,.307-.282,1.418,1.418,0,0,0,.17-.436,3.187,3.187,0,0,0,.079-.5q.017-.232.017-.548v-9.878h3.013v9.43a8.4,8.4,0,0,1-.2,1.951,3.724,3.724,0,0,1-.652,1.4,2.665,2.665,0,0,1-1.253.884A5.863,5.863,0,0,1,120.6.191ZM127.874,0V-11.513h-2.117v-2.25h7.255v2.25H130.92V0Zm6.342,0V-13.763h3.038V0Zm9.031.191a5.591,5.591,0,0,1-1.955-.3,2.893,2.893,0,0,1-1.287-.9,3.777,3.777,0,0,1-.689-1.415A7.675,7.675,0,0,1,139.1-4.35V-9.43a7.663,7.663,0,0,1,.212-1.922,3.74,3.74,0,0,1,.689-1.407,2.878,2.878,0,0,1,1.287-.9,5.662,5.662,0,0,1,1.955-.3,3.985,3.985,0,0,1,3.2,1.141,5.117,5.117,0,0,1,.967,3.383v5.08a5.152,5.152,0,0,1-.967,3.391A3.969,3.969,0,0,1,143.247.191Zm-.473-2.25a1.047,1.047,0,0,0,.473.1,1.085,1.085,0,0,0,.473-.1.807.807,0,0,0,.307-.241,1.112,1.112,0,0,0,.17-.378,2.467,2.467,0,0,0,.079-.436q.017-.2.017-.486v-6.6q0-.274-.017-.477a2.382,2.382,0,0,0-.079-.432,1.065,1.065,0,0,0-.17-.369.827.827,0,0,0-.307-.237,1.085,1.085,0,0,0-.473-.1,1.058,1.058,0,0,0-.469.1.856.856,0,0,0-.3.232.975.975,0,0,0-.166.374,2.491,2.491,0,0,0-.071.427q-.012.191-.012.481v6.6q0,.291.012.486a2.49,2.49,0,0,0,.071.432,1.017,1.017,0,0,0,.166.378A.881.881,0,0,0,142.773-2.059ZM149.24,0V-13.763h2.142l2.831,6.607v-6.607h2.523V0h-2.059l-2.839-7.122V0ZM162.4.191a3.777,3.777,0,0,1-2.918-1.042,5.067,5.067,0,0,1-1.033-3.324l2.606-.4a4.567,4.567,0,0,0,.311,1.88.944.944,0,0,0,.884.585q.772,0,.772-1a2.6,2.6,0,0,0-.2-1.025,2.966,2.966,0,0,0-.49-.8,8.158,8.158,0,0,0-.813-.78L160.3-6.765a9.2,9.2,0,0,1-.73-.7,5.374,5.374,0,0,1-.569-.751,3.249,3.249,0,0,1-.411-.967,4.824,4.824,0,0,1-.133-1.17,3.411,3.411,0,0,1,1.029-2.656,4.062,4.062,0,0,1,2.822-.946,4.366,4.366,0,0,1,1.116.133,3.07,3.07,0,0,1,.847.349,2.4,2.4,0,0,1,.606.544,3.309,3.309,0,0,1,.415.656,4.119,4.119,0,0,1,.257.739,5.584,5.584,0,0,1,.141.751q.037.34.054.73l-2.631.34q-.008-.349-.021-.577t-.046-.486a1.958,1.958,0,0,0-.091-.415,1.3,1.3,0,0,0-.154-.295.53.53,0,0,0-.241-.2.831.831,0,0,0-.344-.05.7.7,0,0,0-.61.336,1.325,1.325,0,0,0-.212.735,2.474,2.474,0,0,0,.1.71,1.851,1.851,0,0,0,.332.618,5.452,5.452,0,0,0,.386.448q.149.149.5.465l1.17,1.029a10.183,10.183,0,0,1,.83.826,6.85,6.85,0,0,1,.664.9,4.03,4.03,0,0,1,.477,1.1,4.953,4.953,0,0,1,.162,1.291,3.337,3.337,0,0,1-1,2.478A3.56,3.56,0,0,1,162.4.191Z" transform="translate(-674 -2480)" opacity="0.65"/>
  </g>
</svg>
