<?xml version="1.0" encoding="utf-8"?>
<!-- Generator: Adobe Illustrator 23.0.3, SVG Export Plug-In . SVG Version: 6.00 Build 0)  -->
<svg version="1.1" width = "150"  id="Layer_1" xmlns="http://www.w3.org/2000/svg" xmlns:xlink="http://www.w3.org/1999/xlink" x="0px" y="0px"
	 viewBox="0 0 566 298.9" style="enable-background:new 0 0 566 298.9;" xml:space="preserve">
<style type="text/css">
	.st0{fill:url(#Ellipse_1_1_);}
	.st1{fill:#FFFFFF;}
	.st2{enable-background:new    ;}
</style>
<g>
	<g id="Group_36117" transform="translate(-569.237 1243.526)">
		
			<linearGradient id="Ellipse_1_1_" gradientUnits="userSpaceOnUse" x1="314.4809" y1="-555.9515" x2="315.4809" y2="-555.9565" gradientTransform="matrix(206 0 0 -206 -64034.0859 -115659.8828)">
			<stop  offset="0" style="stop-color:#009385"/>
			<stop  offset="1" style="stop-color:#005B4E"/>
		</linearGradient>
		<circle id="Ellipse_1" class="st0" cx="852" cy="-1133.4" r="103"/>
		<path id="Path_28086" class="st1" d="M943-1153.9l-19.3-1.1c1.3,2.9,2.2,5,3.3,7.3c-10.9,4.3-21.5,7.3-33.2,6.6
			c0.3-2,0.5-3.2,0.6-4.5c1.7-12.3,2.8-24.6-0.8-36.7c-2.3-7.6-6.1-14-15.1-14.8c-10-1-18.5,3.2-22.8,11.3
			c-5.9,11-3.6,26.7,5.3,37.2c6.5,7.7,15,11.5,26.2,13.8c-4.5,12-8.3,23.7-13.3,34.8c-2.8,6.3-7.1,12.1-11.4,17.5
			c-1.8,2.3-6.1,4.8-8.1,4.1c-2.6-0.9-4.6-4.8-5.7-7.9c-1.1-3.3-1.6-6.8-1.4-10.3c0.6-15.1,1.6-30.1,2.2-45.2
			c0.1-1.9-0.4-4.7-1.7-5.8c-6.1-5.2-15.4-1.7-18,5.8c-4.6,13.4-9.8,26.5-15,39.7c-1.3,3.2-3.9,5.9-6,8.8l-1.8-0.3
			c-0.6-3.3-1.6-6.5-1.8-9.8c-0.9-14.9,2.2-29.3,5.7-43.7c0.5-2.1,0.1-5.6-1.2-6.7c-5.1-4.3-16.3-0.3-18,6.1
			c-1.5,5.7-3,11.4-4.1,17.2c-2.3,12.5-4.4,25.2-1.4,37.8c2.9,12.1,14.8,15.7,23.7,7c4.2-4,7.4-9.1,10.5-14
			c2.3-3.6,3.9-7.7,5.8-11.6c1,1.9,0.8,3.7,1.1,5.3c1.5,9.2,2,18.8,5,27.5c4,11.6,16,14.8,26.3,8.1c4.3-2.8,8.1-6.3,11.2-10.4
			c10.9-14.7,17-31.6,21.7-49.2c0.4-1.6,2.2-3.9,3.7-4.2c10.9-2.1,21.9-3.8,32.9-5.6l0,0l3.2-0.4l2.6,3.7L943-1153.9z M888.4-1141.7
			c-17.2-2.9-27.1-12.5-29.6-27.3c-1.9-11.5,5.3-21.5,15.9-22.2c5.5-0.4,9.5,1.8,11.4,6.8c1.6,4.4,3.1,9.2,3.2,13.8
			C889.5-1161.1,888.7-1151.6,888.4-1141.7L888.4-1141.7z"/>
	</g>
	<g class="st2">
		<path class="st1" d="M7.5,291.1l-5.6-46.7h8.8l2.8,27.2l3.6-27.2h6.8l3.8,27l2.8-27H39l-5.7,46.7h-9l-4-28.2l-3.8,28.2H7.5z"/>
		<path class="st1" d="M44.3,291.1v-46.7h10.3v18.9h7.2v-18.9h10.3v46.7H61.8v-20.5h-7.2v20.5H44.3z"/>
		<path class="st1" d="M79.3,291.1v-46.7h10.3v46.7H79.3z"/>
		<path class="st1" d="M100.9,291.1V252h-7.2v-7.6h24.6v7.6h-7.1v39.1H100.9z"/>
		<path class="st1" d="M122.3,291.1v-46.7h21v7h-10.7V263h8.1v7.2h-8.1v14h10.8v7H122.3z"/>
		<path class="st1" d="M148.1,291.1v-46.7h7.3l9.6,22.4v-22.4h8.6v46.7h-7l-9.6-24.2v24.2H148.1z"/>
		<path class="st1" d="M193,291.1l8.9-46.7h11.7l8.8,46.7h-9.5l-1.6-9.9h-6.8l-1.6,9.9H193z M205.3,275h5l-2.5-18.1L205.3,275z"/>
		<path class="st1" d="M227,291.1v-46.7h15.6c4.1,0,7.2,1.2,9.3,3.5c2,2.3,3.1,5.7,3.1,10.1c0,1.7-0.2,3.3-0.5,4.7
			c-0.3,1.4-0.8,2.6-1.4,3.5c-0.6,1-1.3,1.8-2.1,2.4c-0.8,0.7-1.7,1.2-2.8,1.6c-1.1,0.4-2.1,0.6-3.2,0.8c-1.1,0.2-2.3,0.2-3.7,0.2
			h-4.1v19.9H227z M237.4,264h3.3c1.9,0,3.1-0.5,3.7-1.4c0.6-0.9,0.9-2.6,0.9-4.8c0-0.8,0-1.5-0.1-2c0-0.5-0.2-1.1-0.3-1.7
			c-0.2-0.6-0.4-1-0.8-1.3c-0.3-0.3-0.8-0.6-1.4-0.8c-0.6-0.2-1.3-0.3-2.1-0.3h-3.3V264z"/>
		<path class="st1" d="M259.8,291.1v-46.7h15.6c4.1,0,7.2,1.2,9.3,3.5c2,2.3,3.1,5.7,3.1,10.1c0,1.7-0.2,3.3-0.5,4.7
			c-0.3,1.4-0.8,2.6-1.4,3.5c-0.6,1-1.3,1.8-2.1,2.4c-0.8,0.7-1.7,1.2-2.8,1.6c-1.1,0.4-2.1,0.6-3.2,0.8c-1.1,0.2-2.3,0.2-3.7,0.2
			h-4.1v19.9H259.8z M270.1,264h3.3c1.9,0,3.1-0.5,3.7-1.4c0.6-0.9,0.9-2.6,0.9-4.8c0-0.8,0-1.5-0.1-2c0-0.5-0.2-1.1-0.3-1.7
			c-0.2-0.6-0.4-1-0.8-1.3c-0.3-0.3-0.8-0.6-1.4-0.8c-0.6-0.2-1.3-0.3-2.1-0.3h-3.3V264z"/>
		<path class="st1" d="M319.8,291.8c-4.4,0-7.7-1.2-9.9-3.5c-2.2-2.4-3.3-6.1-3.5-11.3l8.9-1.4c0,2.9,0.4,5.1,1.1,6.4s1.7,2,3,2
			c1.7,0,2.6-1.1,2.6-3.4c0-1.3-0.2-2.4-0.7-3.5c-0.5-1.1-1-2-1.7-2.7c-0.7-0.8-1.6-1.6-2.8-2.7l-4.1-3.6c-1-0.9-1.8-1.7-2.5-2.4
			c-0.7-0.7-1.3-1.6-1.9-2.6c-0.6-1-1.1-2.1-1.4-3.3c-0.3-1.2-0.5-2.5-0.5-4c0-3.9,1.2-6.9,3.5-9c2.3-2.1,5.5-3.2,9.6-3.2
			c1.4,0,2.7,0.2,3.8,0.5c1.1,0.3,2.1,0.7,2.9,1.2c0.8,0.5,1.5,1.1,2.1,1.8c0.6,0.7,1.1,1.5,1.4,2.2c0.3,0.7,0.6,1.6,0.9,2.5
			c0.2,0.9,0.4,1.8,0.5,2.6c0.1,0.8,0.1,1.6,0.2,2.5l-8.9,1.2c0-0.8,0-1.4-0.1-2c0-0.5-0.1-1.1-0.2-1.7c-0.1-0.6-0.2-1.1-0.3-1.4
			c-0.1-0.4-0.3-0.7-0.5-1c-0.2-0.3-0.5-0.5-0.8-0.7c-0.3-0.1-0.7-0.2-1.2-0.2c-0.9,0-1.6,0.4-2.1,1.1c-0.5,0.7-0.7,1.6-0.7,2.5
			c0,0.9,0.1,1.7,0.3,2.4c0.2,0.7,0.6,1.4,1.1,2.1c0.5,0.7,1,1.2,1.3,1.5c0.3,0.3,0.9,0.9,1.7,1.6l4,3.5c1.1,1,2,1.9,2.8,2.8
			c0.8,0.9,1.5,1.9,2.3,3c0.7,1.1,1.3,2.4,1.6,3.8c0.4,1.4,0.5,2.8,0.5,4.4c0,3.4-1.1,6.2-3.4,8.4
			C326.4,290.7,323.5,291.8,319.8,291.8z"/>
		<path class="st1" d="M350.5,291.8c-2.6,0-4.8-0.3-6.6-1c-1.8-0.7-3.3-1.7-4.4-3.1c-1.1-1.4-1.9-3-2.3-4.8c-0.5-1.8-0.7-4-0.7-6.5
			v-17.3c0-2.5,0.2-4.7,0.7-6.5c0.5-1.8,1.3-3.4,2.3-4.8c1.1-1.4,2.5-2.4,4.4-3c1.8-0.7,4-1,6.6-1c5.1,0,8.7,1.3,10.9,3.9
			c2.2,2.6,3.3,6.4,3.3,11.5v17.3c0,5.1-1.1,8.9-3.3,11.5C359.2,290.5,355.5,291.8,350.5,291.8z M348.9,284.1c0.4,0.2,1,0.3,1.6,0.3
			c0.6,0,1.2-0.1,1.6-0.3c0.5-0.2,0.8-0.5,1-0.8c0.2-0.3,0.4-0.8,0.6-1.3c0.1-0.5,0.2-1,0.3-1.5c0-0.5,0.1-1,0.1-1.6v-22.4
			c0-0.6,0-1.2-0.1-1.6c0-0.5-0.1-0.9-0.3-1.5c-0.1-0.5-0.3-0.9-0.6-1.3c-0.2-0.3-0.6-0.6-1-0.8c-0.5-0.2-1-0.3-1.6-0.3
			c-0.6,0-1.2,0.1-1.6,0.3c-0.4,0.2-0.8,0.5-1,0.8c-0.2,0.3-0.4,0.7-0.6,1.3s-0.2,1-0.2,1.5c0,0.4,0,1,0,1.6v22.4c0,0.7,0,1.2,0,1.6
			c0,0.4,0.1,0.9,0.2,1.5c0.1,0.5,0.3,1,0.6,1.3C348.1,283.6,348.5,283.9,348.9,284.1z"/>
		<path class="st1" d="M370.8,291.1v-46.7h10.3v39.8h10.7v7H370.8z"/>
		<path class="st1" d="M409.9,291.8c-2.1,0-4-0.2-5.6-0.7s-2.9-1.1-3.9-1.9c-1-0.8-1.9-1.9-2.5-3.1c-0.6-1.3-1.1-2.7-1.4-4.3
			c-0.3-1.6-0.4-3.4-0.4-5.4v-32h10.2v33.6c0,0.7,0,1.4,0.1,1.9c0,0.5,0.1,1.1,0.3,1.7c0.1,0.6,0.3,1.1,0.6,1.5
			c0.2,0.4,0.6,0.7,1.1,1c0.5,0.3,1,0.4,1.6,0.4c0.6,0,1.2-0.1,1.6-0.4s0.8-0.6,1-1c0.2-0.4,0.4-0.9,0.6-1.5
			c0.1-0.6,0.2-1.2,0.3-1.7c0-0.5,0.1-1.1,0.1-1.9v-33.6h10.2v32c0,2.6-0.2,4.8-0.7,6.6c-0.4,1.8-1.2,3.4-2.2,4.8
			c-1,1.4-2.5,2.4-4.3,3C414.8,291.4,412.5,291.8,409.9,291.8z"/>
		<path class="st1" d="M434.6,291.1V252h-7.2v-7.6H452v7.6h-7.1v39.1H434.6z"/>
		<path class="st1" d="M456.1,291.1v-46.7h10.3v46.7H456.1z"/>
		<path class="st1" d="M486.8,291.8c-2.6,0-4.8-0.3-6.6-1c-1.8-0.7-3.3-1.7-4.4-3.1c-1.1-1.4-1.9-3-2.3-4.8c-0.5-1.8-0.7-4-0.7-6.5
			v-17.3c0-2.5,0.2-4.7,0.7-6.5c0.5-1.8,1.3-3.4,2.3-4.8c1.1-1.4,2.5-2.4,4.4-3c1.8-0.7,4-1,6.6-1c5.1,0,8.7,1.3,10.9,3.9
			c2.2,2.6,3.3,6.4,3.3,11.5v17.3c0,5.1-1.1,8.9-3.3,11.5C495.5,290.5,491.9,291.8,486.8,291.8z M485.2,284.1c0.4,0.2,1,0.3,1.6,0.3
			c0.6,0,1.2-0.1,1.6-0.3c0.5-0.2,0.8-0.5,1-0.8c0.2-0.3,0.4-0.8,0.6-1.3c0.1-0.5,0.2-1,0.3-1.5c0-0.5,0.1-1,0.1-1.6v-22.4
			c0-0.6,0-1.2-0.1-1.6c0-0.5-0.1-0.9-0.3-1.5c-0.1-0.5-0.3-0.9-0.6-1.3c-0.2-0.3-0.6-0.6-1-0.8c-0.5-0.2-1-0.3-1.6-0.3
			c-0.6,0-1.2,0.1-1.6,0.3c-0.4,0.2-0.8,0.5-1,0.8c-0.2,0.3-0.4,0.7-0.6,1.3s-0.2,1-0.2,1.5c0,0.4,0,1,0,1.6v22.4c0,0.7,0,1.2,0,1.6
			c0,0.4,0.1,0.9,0.2,1.5c0.1,0.5,0.3,1,0.6,1.3C484.4,283.6,484.8,283.9,485.2,284.1z"/>
		<path class="st1" d="M507.2,291.1v-46.7h7.3l9.6,22.4v-22.4h8.6v46.7h-7l-9.6-24.2v24.2H507.2z"/>
		<path class="st1" d="M551.9,291.8c-4.4,0-7.7-1.2-9.9-3.5c-2.2-2.4-3.3-6.1-3.5-11.3l8.9-1.4c0,2.9,0.4,5.1,1.1,6.4
			c0.7,1.3,1.7,2,3,2c1.7,0,2.6-1.1,2.6-3.4c0-1.3-0.2-2.4-0.7-3.5c-0.5-1.1-1-2-1.7-2.7s-1.6-1.6-2.8-2.7l-4.1-3.6
			c-1-0.9-1.8-1.7-2.5-2.4c-0.7-0.7-1.3-1.6-1.9-2.6c-0.6-1-1.1-2.1-1.4-3.3c-0.3-1.2-0.5-2.5-0.5-4c0-3.9,1.2-6.9,3.5-9
			s5.5-3.2,9.6-3.2c1.4,0,2.7,0.2,3.8,0.5c1.1,0.3,2.1,0.7,2.9,1.2c0.8,0.5,1.5,1.1,2.1,1.8c0.6,0.7,1.1,1.5,1.4,2.2
			c0.3,0.7,0.6,1.6,0.9,2.5c0.2,0.9,0.4,1.8,0.5,2.6c0.1,0.8,0.1,1.6,0.2,2.5l-8.9,1.2c0-0.8,0-1.4-0.1-2c0-0.5-0.1-1.1-0.2-1.7
			c-0.1-0.6-0.2-1.1-0.3-1.4c-0.1-0.4-0.3-0.7-0.5-1c-0.2-0.3-0.5-0.5-0.8-0.7c-0.3-0.1-0.7-0.2-1.2-0.2c-0.9,0-1.6,0.4-2.1,1.1
			c-0.5,0.7-0.7,1.6-0.7,2.5c0,0.9,0.1,1.7,0.3,2.4c0.2,0.7,0.6,1.4,1.1,2.1c0.5,0.7,1,1.2,1.3,1.5c0.3,0.3,0.9,0.9,1.7,1.6l4,3.5
			c1.1,1,2,1.9,2.8,2.8c0.8,0.9,1.5,1.9,2.3,3c0.7,1.1,1.3,2.4,1.6,3.8c0.4,1.4,0.5,2.8,0.5,4.4c0,3.4-1.1,6.2-3.4,8.4
			S555.6,291.8,551.9,291.8z"/>
	</g>
</g>
</svg>
