<svg xmlns="http://www.w3.org/2000/svg" width="158.415" height="99.36" viewBox="0 0 158.415 99.36">
  <g id="Group_33981" data-name="Group 33981" transform="translate(978.199 -677.391)">
    <g id="Group_3" data-name="Group 3" transform="translate(-978.199 748.825)">
      <g id="Group_1" data-name="Group 1" transform="translate(0.033)">
        <path id="Path_1" data-name="Path 1" d="M-958.5,951.41l-3.57,13.7h-4.039l-2.185-9.014-2.263,9.014H-974.6l-3.473-13.7h3.57l1.971,9.97,2.439-9.97h3.668l2.341,9.97,1.99-9.97Z" transform="translate(978.073 -951.41)" fill="#fff"/>
        <path id="Path_2" data-name="Path 2" d="M-871.014,951.41v13.7h-3.336v-5.638h-5.19v5.638h-3.336v-13.7h3.336v5.365h5.19V951.41Z" transform="translate(907.693 -951.41)" fill="#fff"/>
        <path id="Path_3" data-name="Path 3" d="M-811.137,951.41v13.7h-3.336v-13.7Z" transform="translate(857.122 -951.41)" fill="#fff"/>
        <path id="Path_4" data-name="Path 4" d="M-770.948,951.41v2.673h-3.629v11.023h-3.336V954.083h-3.629V951.41Z" transform="translate(832.776 -951.41)" fill="#fff"/>
        <path id="Path_5" data-name="Path 5" d="M-717.436,954.083v2.77h4.468v2.576h-4.468v3h5.053v2.673h-8.389v-13.7h8.389v2.673Z" transform="translate(787.848 -951.41)" fill="#fff"/>
        <path id="Path_6" data-name="Path 6" d="M-633.69,962.531h4.37v2.575h-7.706v-13.7h3.336Z" transform="translate(725.934 -951.41)" fill="#fff"/>
        <path id="Path_7" data-name="Path 7" d="M-581.652,962.687h-5.112l-.82,2.419h-3.492l4.956-13.7h3.863l4.956,13.7h-3.531Zm-.858-2.575-1.7-5.014-1.678,5.014Z" transform="translate(691.961 -951.41)" fill="#fff"/>
        <path id="Path_8" data-name="Path 8" d="M-508.574,959.263a3.353,3.353,0,0,1,.722,2.117,3.363,3.363,0,0,1-1.2,2.722,5.06,5.06,0,0,1-3.346,1h-6.38v-13.7h6.165a5.057,5.057,0,0,1,3.268.956,3.163,3.163,0,0,1,1.18,2.595,3.135,3.135,0,0,1-.634,2.009,3.279,3.279,0,0,1-1.688,1.112A3.186,3.186,0,0,1-508.574,959.263Zm-6.867-2.312h2.185A1.934,1.934,0,0,0-512,956.59a1.3,1.3,0,0,0,.439-1.063,1.325,1.325,0,0,0-.439-1.073,1.9,1.9,0,0,0-1.259-.371h-2.185Zm3.756,5.082a1.351,1.351,0,0,0,.459-1.1,1.413,1.413,0,0,0-.478-1.132,1.96,1.96,0,0,0-1.317-.41h-2.419v3.024h2.458A1.979,1.979,0,0,0-511.686,962.033Z" transform="translate(638.512 -951.41)" fill="#fff"/>
        <path id="Path_9" data-name="Path 9" d="M-452.426,954.083v2.77h4.468v2.576h-4.468v3h5.053v2.673h-8.39v-13.7h8.39v2.673Z" transform="translate(591.923 -951.41)" fill="#fff"/>
        <path id="Path_10" data-name="Path 10" d="M-398.242,962.531h4.37v2.575h-7.706v-13.7h3.336Z" transform="translate(551.864 -951.41)" fill="#fff"/>
      </g>
      <g id="Group_2" data-name="Group 2" transform="translate(0 19.63)">
        <path id="Path_11" data-name="Path 11" d="M-972.54,1027.115v1.085H-974.7v7.024h-1.33V1028.2h-2.17v-1.085Z" transform="translate(978.199 -1027.01)" fill="#fff"/>
        <path id="Path_12" data-name="Path 12" d="M-945.854,1028.155v2.38h2.8v1.085h-2.8v2.485h3.15v1.085h-4.48v-8.12h4.48v1.085Z" transform="translate(955.269 -1026.977)" fill="#fff"/>
        <path id="Path_13" data-name="Path 13" d="M-920.717,1028.719a3.946,3.946,0,0,1,1.505-1.476,4.2,4.2,0,0,1,2.083-.531,4.231,4.231,0,0,1,2.3.636,3.621,3.621,0,0,1,1.464,1.8h-1.6a2.143,2.143,0,0,0-.875-.957,2.594,2.594,0,0,0-1.295-.315,2.834,2.834,0,0,0-1.435.362,2.516,2.516,0,0,0-.986,1.038,3.333,3.333,0,0,0-.356,1.575,3.334,3.334,0,0,0,.356,1.575,2.556,2.556,0,0,0,.986,1.044,2.8,2.8,0,0,0,1.435.367,2.6,2.6,0,0,0,1.295-.315,2.145,2.145,0,0,0,.875-.957h1.6a3.589,3.589,0,0,1-1.464,1.8,4.258,4.258,0,0,1-2.3.63,4.191,4.191,0,0,1-2.089-.531,3.96,3.96,0,0,1-1.5-1.476,4.14,4.14,0,0,1-.554-2.135A4.142,4.142,0,0,1-920.717,1028.719Z" transform="translate(936.112 -1026.712)" fill="#fff"/>
        <path id="Path_14" data-name="Path 14" d="M-874.338,1027.115v8.109h-1.33v-3.547h-3.815v3.547h-1.33v-8.109h1.33v3.477h3.815v-3.477Z" transform="translate(906.201 -1027.01)" fill="#fff"/>
        <path id="Path_15" data-name="Path 15" d="M-838.438,1035.19h-1.33l-4-6.055v6.055h-1.33v-8.12h1.33l4,6.043v-6.043h1.33Z" transform="translate(879.798 -1026.977)" fill="#fff"/>
        <path id="Path_16" data-name="Path 16" d="M-808.311,1034.476a3.93,3.93,0,0,1-1.5-1.482,4.169,4.169,0,0,1-.554-2.141,4.138,4.138,0,0,1,.554-2.135,3.945,3.945,0,0,1,1.5-1.476,4.2,4.2,0,0,1,2.083-.531,4.224,4.224,0,0,1,2.094.531,3.907,3.907,0,0,1,1.5,1.476,4.177,4.177,0,0,1,.548,2.135,4.208,4.208,0,0,1-.548,2.141,3.891,3.891,0,0,1-1.5,1.482,4.221,4.221,0,0,1-2.094.531A4.2,4.2,0,0,1-808.311,1034.476Zm3.518-.991a2.552,2.552,0,0,0,.986-1.05,3.375,3.375,0,0,0,.356-1.581,3.34,3.34,0,0,0-.356-1.575,2.52,2.52,0,0,0-.986-1.038,2.834,2.834,0,0,0-1.435-.362,2.835,2.835,0,0,0-1.435.362,2.518,2.518,0,0,0-.986,1.038,3.337,3.337,0,0,0-.356,1.575,3.372,3.372,0,0,0,.356,1.581,2.55,2.55,0,0,0,.986,1.05,2.8,2.8,0,0,0,1.435.368A2.794,2.794,0,0,0-804.793,1033.485Z" transform="translate(854.121 -1026.712)" fill="#fff"/>
        <path id="Path_17" data-name="Path 17" d="M-768.089,1034.15h2.742v1.073h-4.072v-8.109h1.33Z" transform="translate(823.846 -1027.01)" fill="#fff"/>
        <path id="Path_18" data-name="Path 18" d="M-745.028,1034.476a3.928,3.928,0,0,1-1.5-1.482,4.169,4.169,0,0,1-.554-2.141,4.139,4.139,0,0,1,.554-2.135,3.944,3.944,0,0,1,1.5-1.476,4.2,4.2,0,0,1,2.083-.531,4.223,4.223,0,0,1,2.094.531,3.9,3.9,0,0,1,1.5,1.476,4.178,4.178,0,0,1,.549,2.135,4.208,4.208,0,0,1-.549,2.141,3.888,3.888,0,0,1-1.5,1.482,4.22,4.22,0,0,1-2.094.531A4.2,4.2,0,0,1-745.028,1034.476Zm3.518-.991a2.551,2.551,0,0,0,.986-1.05,3.372,3.372,0,0,0,.356-1.581,3.337,3.337,0,0,0-.356-1.575,2.518,2.518,0,0,0-.986-1.038,2.835,2.835,0,0,0-1.435-.362,2.834,2.834,0,0,0-1.435.362,2.517,2.517,0,0,0-.986,1.038,3.337,3.337,0,0,0-.356,1.575,3.372,3.372,0,0,0,.356,1.581,2.55,2.55,0,0,0,.986,1.05,2.793,2.793,0,0,0,1.435.368A2.8,2.8,0,0,0-741.51,1033.485Z" transform="translate(807.336 -1026.712)" fill="#fff"/>
        <path id="Path_19" data-name="Path 19" d="M-701.526,1029.151a2.147,2.147,0,0,0-.875-.916,2.639,2.639,0,0,0-1.3-.309,2.835,2.835,0,0,0-1.435.361,2.536,2.536,0,0,0-.986,1.027,3.213,3.213,0,0,0-.356,1.54,3.246,3.246,0,0,0,.356,1.546,2.523,2.523,0,0,0,.986,1.033,2.829,2.829,0,0,0,1.435.362,2.539,2.539,0,0,0,1.762-.607,2.638,2.638,0,0,0,.828-1.645h-3.045v-1.062h4.469v1.038a4,4,0,0,1-.671,1.738,3.988,3.988,0,0,1-1.412,1.266,3.978,3.978,0,0,1-1.931.472,4.19,4.19,0,0,1-2.088-.531,3.961,3.961,0,0,1-1.5-1.476,4.141,4.141,0,0,1-.554-2.135,4.143,4.143,0,0,1,.554-2.135,3.945,3.945,0,0,1,1.505-1.476,4.2,4.2,0,0,1,2.082-.531,4.231,4.231,0,0,1,2.3.636,3.622,3.622,0,0,1,1.464,1.8Z" transform="translate(778.318 -1026.712)" fill="#fff"/>
        <path id="Path_20" data-name="Path 20" d="M-666.049,1027.115v8.109h-1.33v-8.109Z" transform="translate(748.407 -1027.01)" fill="#fff"/>
        <path id="Path_21" data-name="Path 21" d="M-650.072,1028.155v2.38h2.8v1.085h-2.8v2.485h3.15v1.085h-4.48v-8.12h4.48v1.085Z" transform="translate(736.595 -1026.977)" fill="#fff"/>
        <path id="Path_22" data-name="Path 22" d="M-623.15,1034.722a2.41,2.41,0,0,1-1.027-.811,2.057,2.057,0,0,1-.374-1.225h1.423a1.286,1.286,0,0,0,.414.863,1.469,1.469,0,0,0,1.033.338,1.589,1.589,0,0,0,1.073-.332,1.081,1.081,0,0,0,.385-.858.938.938,0,0,0-.239-.665,1.607,1.607,0,0,0-.6-.4,9.016,9.016,0,0,0-.986-.3,9.18,9.18,0,0,1-1.289-.426,2.125,2.125,0,0,1-.846-.671,1.937,1.937,0,0,1-.35-1.214,2.154,2.154,0,0,1,.35-1.225,2.236,2.236,0,0,1,.98-.805,3.56,3.56,0,0,1,1.458-.28,3.04,3.04,0,0,1,1.931.589,2.175,2.175,0,0,1,.834,1.616h-1.47a1.066,1.066,0,0,0-.42-.758,1.552,1.552,0,0,0-1.015-.315,1.439,1.439,0,0,0-.933.292,1.015,1.015,0,0,0-.362.84.851.851,0,0,0,.228.612,1.6,1.6,0,0,0,.577.379,8.911,8.911,0,0,0,.957.3,10.008,10.008,0,0,1,1.313.444,2.18,2.18,0,0,1,.863.682,1.961,1.961,0,0,1,.356,1.231,2.214,2.214,0,0,1-.332,1.167,2.4,2.4,0,0,1-.968.881,3.2,3.2,0,0,1-1.5.332A3.628,3.628,0,0,1-623.15,1034.722Z" transform="translate(716.743 -1026.712)" fill="#fff"/>
        <path id="Path_23" data-name="Path 23" d="M-571.418,1030.7a2.183,2.183,0,0,1-.933.892,3.463,3.463,0,0,1-1.645.344h-1.47v3.29h-1.33v-8.109h2.8a3.537,3.537,0,0,1,1.581.321,2.234,2.234,0,0,1,.969.869,2.382,2.382,0,0,1,.321,1.225A2.449,2.449,0,0,1-571.418,1030.7Zm-1.447-.193a1.26,1.26,0,0,0,.373-.974q0-1.33-1.505-1.33h-1.47v2.649H-574A1.621,1.621,0,0,0-572.865,1030.5Z" transform="translate(681.438 -1027.01)" fill="#fff"/>
        <path id="Path_24" data-name="Path 24" d="M-540.871,1027.115l-3.045,8.109h-1.54l-3.057-8.109h1.423l2.4,6.744,2.415-6.744Z" transform="translate(660.528 -1027.01)" fill="#fff"/>
        <path id="Path_25" data-name="Path 25" d="M-506.737,1027.115v1.085H-508.9v7.024h-1.33V1028.2h-2.17v-1.085Z" transform="translate(633.826 -1027.01)" fill="#fff"/>
        <path id="Path_26" data-name="Path 26" d="M-482.345,1053.457a.823.823,0,0,1-.245-.607.825.825,0,0,1,.245-.607.824.824,0,0,1,.607-.245.811.811,0,0,1,.6.245.825.825,0,0,1,.245.607.823.823,0,0,1-.245.607.81.81,0,0,1-.6.245A.823.823,0,0,1-482.345,1053.457Z" transform="translate(611.79 -1045.407)" fill="#fff"/>
        <path id="Path_27" data-name="Path 27" d="M-449.3,1034.15h2.742v1.073h-4.072v-8.109h1.33Z" transform="translate(588.166 -1027.01)" fill="#fff"/>
        <path id="Path_28" data-name="Path 28" d="M-422.555,1027.115v1.085h-2.158v7.024h-1.33V1028.2h-2.17v-1.085Z" transform="translate(571.589 -1027.01)" fill="#fff"/>
        <path id="Path_29" data-name="Path 29" d="M-392.28,1027.611a3.548,3.548,0,0,1,1.5,1.423,4.28,4.28,0,0,1,.531,2.164,4.184,4.184,0,0,1-.531,2.147,3.505,3.505,0,0,1-1.5,1.394,5.035,5.035,0,0,1-2.269.484H-397.2v-8.109h2.648A4.934,4.934,0,0,1-392.28,1027.611Zm-.088,5.757a2.96,2.96,0,0,0,.758-2.17,3.062,3.062,0,0,0-.758-2.205,2.877,2.877,0,0,0-2.182-.793h-1.318v5.939h1.318A2.926,2.926,0,0,0-392.368,1033.369Z" transform="translate(548.659 -1027.01)" fill="#fff"/>
      </g>
    </g>
    <g id="Group_6" data-name="Group 6" transform="translate(-925.993 677.391)">
      <g id="Group_4" data-name="Group 4" transform="translate(15.093 10.501)">
        <path id="Path_30" data-name="Path 30" d="M-686.49,737.68a3.778,3.778,0,0,0-.323.543c-.046.081-.153.073-.174.177a.679.679,0,0,1-.124.237c-.064.09-.083.2-.139.293-.142.242-.262.5-.4.742s-.278.488-.426.726a2.915,2.915,0,0,0-.216.384c-.074.171-.224.293-.3.466a1.136,1.136,0,0,1-.19.353.214.214,0,0,0-.035.2.743.743,0,0,1-.041.359.182.182,0,0,1-.127.134c-.086-.136.11-.208.07-.333-.109.052-.138.165-.2.252a2.7,2.7,0,0,0-.4.851,2.494,2.494,0,0,0-.09.808.2.2,0,0,1-.041.125c-.282.474-.545.959-.809,1.442-.4.733-.9,1.4-1.353,2.1-.221.345-.435.694-.649,1.044-.111.18-.242.347-.355.526a2.131,2.131,0,0,0-.276.482,2.714,2.714,0,0,1-.553.835,12.226,12.226,0,0,1-1.072,1.21,5.3,5.3,0,0,1-.982.739,2.759,2.759,0,0,0-.658.492.415.415,0,0,0-.069.091c-.034.072-.067.14-.163.139a.053.053,0,0,0-.035.015,1.443,1.443,0,0,1-.461.251.357.357,0,0,0-.2.407c.013.105-.124.262-.227.246a.889.889,0,0,0-.489.042.185.185,0,0,1-.113,0,.151.151,0,0,0-.2.072c-.052.086-.142.083-.224.081a1.483,1.483,0,0,1-.58-.123,1.43,1.43,0,0,0-.509-.159,8.949,8.949,0,0,1-1-.232,4.477,4.477,0,0,1-.917-.273,3.767,3.767,0,0,1-1.076-.663.363.363,0,0,1-.071-.089c-.085-.136-.173-.269-.262-.4a.61.61,0,0,1-.155-.364.088.088,0,0,0-.013-.056,2.934,2.934,0,0,1-.268-.676,2.347,2.347,0,0,1-.125-.473,1.282,1.282,0,0,1,.194.323.958.958,0,0,0-.032-.18,6.775,6.775,0,0,1-.2-.718,3.028,3.028,0,0,1-.072-.434.369.369,0,0,0-.058-.179.252.252,0,0,1-.032-.089c-.069-.382-.147-.762-.207-1.145-.072-.461-.17-.918-.247-1.378a6.487,6.487,0,0,1-.145-1.141,3.307,3.307,0,0,0-.064-.356c-.04-.395-.087-.788-.119-1.183-.016-.2-.056-.4-.087-.607a1.028,1.028,0,0,1-.014-.19,2.5,2.5,0,0,0-.064-.8,5.119,5.119,0,0,1-.1-.779.444.444,0,0,0-.075-.254c-.034-.041-.025-.1-.03-.149-.015-.192-.027-.384-.041-.593a.232.232,0,0,0-.044.188c.013.158.012.318.01.477a2.541,2.541,0,0,1-.036-.908c.037.005.016.042.047.065a1.451,1.451,0,0,0-.036-.415,8.789,8.789,0,0,1-.083-1c-.007-.122-.015-.243-.026-.364a12.187,12.187,0,0,1-.019-1.228c0-.125-.073-.229-.046-.355-.053.016-.019.065-.047.078s-.046-.02-.046-.042c0-.106.029-.218-.06-.309a.055.055,0,0,1,.012-.051c.115-.064.071-.169.07-.262a.9.9,0,0,0-.211.612c.013.079.007.175-.114.18a.064.064,0,0,0-.065.057,1.54,1.54,0,0,1-.162.385.217.217,0,0,0-.007.165.711.711,0,0,1-.012.322c-.09-.026-.027-.119-.1-.143a2.2,2.2,0,0,1-.143.261c-.034.038,0,.112.015.167a.514.514,0,0,1-.079.452c-.071.1-.058.232-.1.345-.034.09-.018.208-.155.237-.053.011-.022.079-.04.119a1.718,1.718,0,0,0-.174.514.2.2,0,0,1-.043.106,1.288,1.288,0,0,0-.229.478.439.439,0,0,1-.091.168,1.3,1.3,0,0,0-.225.457q-.148.35-.3.7a.319.319,0,0,0-.047.183c0,.024,0,.064-.01.072-.105.064-.087.177-.112.271-.016.058-.025.118-.111.064-.017-.011-.029.034-.032.059-.01.081,0,.169-.094.216,0,.193-.191.315-.189.51,0,.034,0,.086-.074.085-.054,0-.05.063-.035.108a.218.218,0,0,1-.115.29c-.068.034-.06.108-.09.161a1.021,1.021,0,0,0-.147.386c-.01.067-.026.13-.114.151a.16.16,0,0,0-.1.128,4.725,4.725,0,0,1-.146.476.783.783,0,0,0-.051.337.112.112,0,0,1-.045.118c-.04-.027.007-.063-.026-.1-.054.024-.068.069-.078.127a2.068,2.068,0,0,1-.192.675c-.1.189-.21.377-.331.555a.984.984,0,0,0-.062.139c-.055.12-.081.258-.207.333a.047.047,0,0,0-.028.045c-.005.2-.149.333-.226.5a.3.3,0,0,1-.164.125c-.075.034-.122.113-.083.17.058.086.019.145-.013.208-.209.417-.423.831-.631,1.249-.117.233-.219.474-.335.708a3.014,3.014,0,0,0-.14.27c-.1.267-.188.541-.311.8a3.264,3.264,0,0,1-.671,1.143c-.014.143-.21.2-.172.378.018.086-.176.185-.26.134a.545.545,0,0,0-.362-.036c-.014.087.072.095.094.159-.128.089-.136.263-.247.372-.034.033-.005.068.009.105.048.128.008.2-.124.24a.331.331,0,0,1-.225-.013,3,3,0,0,0-.292-.1c-.051-.013-.125-.025-.1.078.011.053-.038.061-.073.071a.993.993,0,0,0-.291.089c-.036.023-.074,0-.112-.011a.314.314,0,0,0-.289.049.2.2,0,0,1-.216.018,2.608,2.608,0,0,1-.432-.28c-.228-.143-.453-.291-.673-.446-.114-.081-.252-.126-.373-.2s-.264-.165-.267-.349a.116.116,0,0,0-.031-.069c-.168-.184-.3-.4-.473-.578a6.726,6.726,0,0,1-.95-1.3c-.043-.071-.086-.143-.128-.216-.185-.326-.155-.2-.116-.66a4.625,4.625,0,0,0,.335.772.216.216,0,0,0,.031-.206c-.021-.053-.033-.111-.056-.164a10.516,10.516,0,0,1-.5-1.746c-.156-.63-.247-1.273-.392-1.9-.117-.511-.21-1.029-.3-1.547-.064-.364-.124-.732-.153-1.1-.032-.4-.114-.787-.154-1.182a2.6,2.6,0,0,1,0-.361c.008-.206-.069-.4-.065-.608.006-.357-.08-.71-.075-1.068a.1.1,0,0,0-.049-.09q.041.6.082,1.2l-.039,0c-.024-.357-.052-.715-.073-1.073-.039-.673-.064-1.347-.066-2.021,0-.487-.01-.973.01-1.461.016-.4.005-.808.01-1.211a7.279,7.279,0,0,1,.042-1.017c.033-.214,0-.431.02-.648.036-.427.059-.856.063-1.285,0-.308.034-.614.049-.92.017-.357.06-.713.081-1.071.044-.75.084-1.5.171-2.244.051-.439.074-.881.166-1.316a3.959,3.959,0,0,0,.057-.535,2.064,2.064,0,0,1,.066-.4c.051-.2.053-.4.1-.6.055-.257.085-.519.124-.779a3.253,3.253,0,0,0,.08-.541,4.314,4.314,0,0,1,.1-.68c.049-.36.139-.714.212-1.071.055-.27.129-.537.178-.805s.159-.534.211-.81a4.138,4.138,0,0,1,.2-.6c.036-.1.141-.178.168-.294a.7.7,0,0,1,.029-.07c.024-.069-.028-.182.061-.207a.593.593,0,0,1,.347-.06.639.639,0,0,0,.45-.054,1.016,1.016,0,0,1,.508-.081.452.452,0,0,0,.449-.148.289.289,0,0,1,.324-.05.427.427,0,0,1,.171.084.666.666,0,0,0,.4.155c.126.02.252.044.379.065a.448.448,0,0,0,.283-.017.193.193,0,0,1,.23.048.537.537,0,0,0,.293.133c.175.037.351.072.523.12a.548.548,0,0,0,.265.023.185.185,0,0,1,.149.02,2.466,2.466,0,0,1,.635.455,1.356,1.356,0,0,0,.629.391,2.759,2.759,0,0,1,.786.511.672.672,0,0,1,.29.617.4.4,0,0,0,.02.151.484.484,0,0,1,.016.229,3.092,3.092,0,0,0-.033.841,1.416,1.416,0,0,1-.125.594c-.008.018-.027.032-.029.049a6.053,6.053,0,0,0-.206,1.013,4.576,4.576,0,0,1-.1.664c-.065.533-.175,1.061-.213,1.6-.019.282-.051.562-.093.841a.456.456,0,0,0-.005.057,10.933,10.933,0,0,1-.157,1.51,13.879,13.879,0,0,1-.231,1.421,2.085,2.085,0,0,0-.1.307c-.027.37-.112.734-.116,1.106a2.907,2.907,0,0,1-.061.4c-.018.116.04.22,0,.335a1.844,1.844,0,0,0-.051.342.3.3,0,0,1-.018.112,2.124,2.124,0,0,0-.222.92,1.337,1.337,0,0,1-.123.5,1.129,1.129,0,0,0-.075.484,2.05,2.05,0,0,1-.032.323,5.734,5.734,0,0,0-.1.969,3.621,3.621,0,0,1-.163,1.146c-.006-.012-.018-.037-.028-.059-.017-.006-.029,0-.03.016a1.565,1.565,0,0,0-.016.457,4.824,4.824,0,0,1,0,.871c0,.037,0,.1-.015.11-.15.077-.075.209-.09.319a5.253,5.253,0,0,1-.043.625.645.645,0,0,0,.016.3c.028-.179.144-.314.136-.488a.391.391,0,0,1,.045.29,1.489,1.489,0,0,0,0,.225,1.093,1.093,0,0,1,0,.456.133.133,0,0,0,.014.112.364.364,0,0,1,.039.205,5.47,5.47,0,0,0,.066.857c.036.283.031.57.09.851a.969.969,0,0,1-.027.451,1.442,1.442,0,0,0,.02.494c0,.031.031.042.057.024.044-.029.052-.012.055.031a.979.979,0,0,1-.007.465c-.022.054-.047.129.06.145.032,0,.021.037.008.06a.349.349,0,0,0,.031.39.533.533,0,0,1,.056.382.75.75,0,0,0-.015.186c.039.325.081.649.122.974a.655.655,0,0,0,.067.215c.061-.027.075-.079.1-.123.63-1.076,1.189-2.188,1.778-3.287.33-.615.619-1.253.988-1.848.1-.162.177-.339.264-.509.139-.271.283-.541.419-.814.148-.3.285-.6.431-.9.159-.326.318-.651.485-.973.074-.142.132-.29.2-.436.277-.62.553-1.24.825-1.862.257-.588.507-1.179.761-1.768a2.113,2.113,0,0,1,.236-.46,2.265,2.265,0,0,0,.209-.514c.094-.212.227-.4.328-.607.068-.137.08-.291.156-.426s.115-.257.187-.378a.555.555,0,0,0,.075-.276,13.751,13.751,0,0,1,.138-1.374c.027-.223.035-.447.042-.672,0-.088-.059-.17-.05-.261.016-.16.035-.319.054-.478.038-.325.07-.65.12-.972a4.486,4.486,0,0,1,.143-.851,1.194,1.194,0,0,0,.02-.248c.086-.588.105-1.184.206-1.772.151-.879.279-1.761.475-2.632a10.308,10.308,0,0,1,.685-2.161,1.106,1.106,0,0,0,.072-.178c.036-.134.065-.267.24-.28.048-.112.152-.114.251-.131a.078.078,0,0,0,.048-.029c.075-.13.223-.177.321-.281a.947.947,0,0,1,.37-.235.4.4,0,0,0,.263-.435c0-.036,0-.067.032-.077.076-.023.125-.1.2-.115a1.607,1.607,0,0,1,.508-.082c.474.028.947.067,1.422.059a4.969,4.969,0,0,1,.976.066,7.688,7.688,0,0,1,.833.142,2.756,2.756,0,0,1,.778.312.212.212,0,0,0,.067.039,2.692,2.692,0,0,1,.836.494c.205.131.381.3.589.427a.456.456,0,0,1,.221.366,1.693,1.693,0,0,0,.268.755.321.321,0,0,1,.031.291,4.934,4.934,0,0,0-.181,1.055c-.032.318-.052.636-.056.958a4.087,4.087,0,0,1-.161.75c-.09.436-.241.858-.3,1.3a1.582,1.582,0,0,1-.065.28,2.8,2.8,0,0,0-.093.412c-.045.27-.1.54-.166.807-.058.238-.073.482-.117.721-.085.467-.178.933-.257,1.4-.052.31-.083.622-.131.933a.671.671,0,0,1-.134.352.179.179,0,0,0,.01.281c.063.052.025.18-.017.255-.1.173-.088.4-.279.527-.04.028-.045.117-.054.179-.021.139-.035.279-.05.419,0,.031.013.068-.015.091-.092.076-.061.18-.049.269a.228.228,0,0,1-.083.216c-.049-.055-.017-.1-.011-.138s.031-.065.012-.093c-.082-.121-.034-.245-.022-.372.015-.151.018-.3.026-.454a.115.115,0,0,0-.035-.107c-.07.034-.062.1-.075.164-.04.195,0,.394-.037.591-.055.327-.009.661-.04.989-.025.278-.041.557-.068.834a.718.718,0,0,0,0,.344.17.17,0,0,1,.008.1c-.05.194-.015.395-.048.59-.038.219.027.435,0,.655-.025.189.007.38-.029.571a3.166,3.166,0,0,0,.011.576c0,.155-.03.306-.028.46a.309.309,0,0,1-.056.141.267.267,0,0,0-.033.2c.073.011.031-.087.107-.078a.923.923,0,0,1,.034.191c-.01.372.038.742.06,1.114.013.232-.052.458-.039.69,0,.051-.009.1.027.144s.024.1-.008.159a.287.287,0,0,0,.012.31.335.335,0,0,1,.061.256c-.024.136.059.278-.038.409a.135.135,0,0,0,.017.127c.126.14.041.285.027.431a1.068,1.068,0,0,0,.007.5.984.984,0,0,1,.006.34c0,.053-.049.065-.089.088s-.043.078,0,.088c.127.027.069.11.065.178s-.069.135.037.18c.035.014.019.055.006.084a.607.607,0,0,0-.04.245c0,.094.016.185-.068.264-.052.048-.017.135-.029.2a1.5,1.5,0,0,0-.027.5c.021.136.048.271.071.408a.779.779,0,0,1,.022.17,2.539,2.539,0,0,0,.1.718,2.024,2.024,0,0,1,.007.288c.01.1-.028.2.046.294a.078.078,0,0,1,0,.091c-.05.072-.128.135-.048.234,0,0-.017.035-.031.041-.173.071-.13.215-.12.347,0,.029,0,.066.035.086.062-.026.01-.082.032-.118s.022-.1.088-.045c.023.019.029,0,.035-.019.018-.06.061-.107.054-.18a.336.336,0,0,1,.005-.205,1.54,1.54,0,0,1,.161.606,1.175,1.175,0,0,0,.139.4,1.905,1.905,0,0,0,.442-.4,21.717,21.717,0,0,0,1.523-1.887c.278-.377.561-.751.826-1.137.408-.591.81-1.186,1.177-1.8.407-.684.836-1.354,1.246-2.036.267-.445.52-.9.775-1.352.322-.57.661-1.13.952-1.715s.6-1.162.877-1.756c.2-.425.406-.843.61-1.266.242-.5.481-1.007.722-1.511s.492-1.017.731-1.529c.191-.407.384-.812.572-1.22.274-.594.535-1.194.8-1.793a38.15,38.15,0,0,0,1.553-4.022c.149-.477.265-.966.381-1.452a9.577,9.577,0,0,0,.156-1.473c.019-.243.048-.485.078-.728a1.413,1.413,0,0,1,.2-.454.329.329,0,0,0,.058-.212.171.171,0,0,1,.122-.21c.042-.015.1-.023.115-.065.058-.138.175-.24.233-.374a4.562,4.562,0,0,1,.3-.532,1.739,1.739,0,0,0,.122-.261.494.494,0,0,1,.246-.3,6.049,6.049,0,0,0,.726-.434c.077-.047.154-.094.232-.137a.43.43,0,0,1,.235-.08.943.943,0,0,0,.506-.145.4.4,0,0,1,.4.014.138.138,0,0,0,.126.008c.073-.021.15-.031.225-.046a.609.609,0,0,1,.668.293.692.692,0,0,0,.233.252.232.232,0,0,1,.114.191,1.151,1.151,0,0,0,.163.45c.1.158.073.346.134.51.093.25-.026.479-.057.716a3.256,3.256,0,0,1-.219.969,5.641,5.641,0,0,0-.292.71,3.556,3.556,0,0,1-.488.908c-.251.376-.516.743-.779,1.11-.153.213-.318.416-.458.639-.16.254-.294.521-.446.778-.091.152-.211.284-.29.444a3.347,3.347,0,0,0-.313.525c-.009.03-.038.044-.066.062a.45.45,0,0,0-.215.357.328.328,0,0,1-.114.246,1.609,1.609,0,0,0-.366.507c-.13.293-.265.585-.408.871-.06.122-.083.255-.138.378a4.786,4.786,0,0,1-.35.629c-.026.039-.013.044.021.068s0,.071-.015.1c-.158.219-.231.485-.4.7a.515.515,0,0,0-.111.256,2.334,2.334,0,0,1-.252.7c-.079.18-.172.355-.267.529a3.394,3.394,0,0,0-.33.8,3.02,3.02,0,0,1-.23.442c-.041.093-.086.185-.123.281-.1.247-.2.495-.3.742a.237.237,0,0,1-.08.128c-.06.041-.061.11-.08.17s.01.078.066.088c.093.017.134.073.09.147-.159.271-.22.583-.371.861a2.237,2.237,0,0,0-.191.474,4.535,4.535,0,0,1-.408.924,2.585,2.585,0,0,1-.287.561.111.111,0,0,0-.023.09.379.379,0,0,1-.08.232C-686.446,737.58-686.469,737.63-686.49,737.68Zm-26.8,3.842c-.1.093-.071.186-.068.272s.038.206-.026.28a.328.328,0,0,0-.059.289,1.192,1.192,0,0,1-.007.345c-.015.11-.086.217.007.327.016.019-.012.047-.018.07-.032.141-.125.276-.1.422a3.827,3.827,0,0,0,.054.622c.076.258.032.534.1.8a.978.978,0,0,1,0,.266c0,.146-.139.3.025.445.028.025,0,.074-.014.109a.359.359,0,0,0-.02.215c.058.028.055-.058.117-.03a1.465,1.465,0,0,1-.013.258.239.239,0,0,0,.013.153c.044.122.131.247.018.392-.043.055-.005.164.038.236.022.037.038-.053.068-.023a.117.117,0,0,1,.017.11.314.314,0,0,0,.036.247.369.369,0,0,1-.035.336c-.153-.465-.187-.928-.344-1.362a.854.854,0,0,0-.061.388c.047.29.08.582.123.873.065.437.167.867.227,1.305a.258.258,0,0,0,.093.206.3.3,0,0,0,.115-.328c-.084-.284-.08-.584-.158-.869-.027-.1.013-.152.106-.188.016.057.033.1.04.143a1.678,1.678,0,0,1,.072.486.477.477,0,0,0,.112.335l.424-.716a.26.26,0,0,0,.013-.167c-.03-.32-.118-.631-.156-.95-.044-.369-.093-.738-.141-1.106-.057-.425-.161-.842-.217-1.267-.094-.706-.19-1.412-.262-2.12A5.4,5.4,0,0,0-713.294,741.522Zm16.01,2.8a1.094,1.094,0,0,0,.076-.52c.009-.26-.064-.518-.052-.782a.252.252,0,0,0-.082-.239c-.065-.046-.065-.1-.03-.166.016-.031.025-.084-.023-.1s-.059.039-.066.077,0,.051-.005.076c-.042.213.09.426,0,.639,0,0,0,.012.007.018a2.195,2.195,0,0,1,.083.5A1.108,1.108,0,0,0-697.283,744.323Zm-.215-3.047a.6.6,0,0,0-.06.34.943.943,0,0,0,.073.424c.012.031.037.056.072.043a.05.05,0,0,0,.02-.067.213.213,0,0,1-.023-.183A1.3,1.3,0,0,0-697.5,741.276Zm-15.546,1.1a6.513,6.513,0,0,0,.117,1.179,2.045,2.045,0,0,0-.043-.639.405.405,0,0,1-.013-.209A.4.4,0,0,0-713.044,742.378Zm10.283,9.386c.062.073.041.187.12.248s.081.178.179.226A1.092,1.092,0,0,0-702.761,751.764Z" transform="translate(720.045 -717.674)" fill="#fff"/>
        <path id="Path_31" data-name="Path 31" d="M-631.435,778.94a.434.434,0,0,1-.022-.25c.016-.155.068-.317-.056-.458-.034-.038-.007-.085,0-.128a.541.541,0,0,0,.022-.228c-.007-.041-.027-.1-.053-.095-.152.013-.083-.094-.094-.159a4.97,4.97,0,0,1,.029-.515.215.215,0,0,1,.044-.144.777.777,0,0,0,.136-.683c0-.013-.011-.027-.008-.037a2.683,2.683,0,0,0,.074-.562.246.246,0,0,0,0-.169.163.163,0,0,1,.079-.2c.042-.026.09-.046.135-.069a.555.555,0,0,1-.074.549c-.009.015-.018.046-.012.051.113.1.044.15-.034.222-.029.028-.012.108-.015.164,0,.019,0,.035.028.011.08-.082.084,0,.079.045-.009.086,0,.181-.091.24a.1.1,0,0,0-.025.028c-.039.058.128.061.038.124a.137.137,0,0,0-.064.129,1.4,1.4,0,0,1-.041.524c.1.146-.026.291-.008.427.03.231-.066.452-.021.682A1.136,1.136,0,0,1-631.435,778.94Z" transform="translate(654.687 -760.236)" fill="#fff"/>
        <path id="Path_32" data-name="Path 32" d="M-592.92,793.976l.066-.151c.033-.008.063-.014.069.035a.839.839,0,0,1-.051.376,6.015,6.015,0,0,1-.381.85c-.064.117-.078.116-.264.028a.169.169,0,0,0,.189-.1,1.851,1.851,0,0,0,.261-.652A3.024,3.024,0,0,1-592.92,793.976Z" transform="translate(626.475 -773.97)" fill="#fff"/>
        <path id="Path_33" data-name="Path 33" d="M-584.721,776.7a.777.777,0,0,1-.149.34,1.14,1.14,0,0,0-.136.264.388.388,0,0,1-.042.086c-.016.025-.043.023-.068.017s-.035-.035-.023-.059c.081-.167.158-.335.248-.5C-584.856,776.784-584.74,776.795-584.721,776.7Z" transform="translate(620.314 -761.309)" fill="#fff"/>
        <path id="Path_34" data-name="Path 34" d="M-583.2,773.508a.2.2,0,0,1,.006.185,3.221,3.221,0,0,0-.2.412.048.048,0,0,1-.062.03.039.039,0,0,1-.022-.061C-583.367,773.9-583.32,773.694-583.2,773.508Z" transform="translate(619.087 -758.953)" fill="#fff"/>
        <path id="Path_35" data-name="Path 35" d="M-631.187,797.368c-.028.257.027.513.019.771-.051-.005-.076-.031-.076-.062A1.939,1.939,0,0,1-631.187,797.368Z" transform="translate(654.397 -776.592)" fill="#fff"/>
        <path id="Path_36" data-name="Path 36" d="M-630.245,816.194a.8.8,0,0,1-.063.623A2.174,2.174,0,0,1-630.245,816.194Z" transform="translate(653.704 -790.511)" fill="#fff"/>
        <path id="Path_37" data-name="Path 37" d="M-585.729,779.533c.091.214.022.335-.172.338C-585.846,779.762-585.794,779.659-585.729,779.533Z" transform="translate(620.871 -763.407)" fill="#fff"/>
        <path id="Path_38" data-name="Path 38" d="M-661.63,815.44c.037-.168-.081-.319-.042-.495C-661.543,815.216-661.541,815.234-661.63,815.44Z" transform="translate(676.895 -789.587)" fill="#fff"/>
        <path id="Path_39" data-name="Path 39" d="M-659.553,831.262c-.064-.159-.03-.316-.083-.473.111.025.093.086.084.137a.415.415,0,0,0,.027.167C-659.513,831.145-659.484,831.2-659.553,831.262Z" transform="translate(675.384 -801.301)" fill="#fff"/>
        <path id="Path_40" data-name="Path 40" d="M-631.206,826.309a1.571,1.571,0,0,1-.053.524A1.157,1.157,0,0,1-631.206,826.309Z" transform="translate(654.413 -797.989)" fill="#fff"/>
      </g>
      <path id="Path_41" data-name="Path 41" d="M-758.632,718.823" transform="translate(763.665 -708.022)" fill="#fff"/>
      <path id="Path_42" data-name="Path 42" d="M-758.632,718.823" transform="translate(763.665 -708.022)" fill="#fff"/>
      <g id="Group_5" data-name="Group 5" transform="translate(0)">
        <path id="Path_43" data-name="Path 43" d="M-569.716,794.423c0-.164-.4.018-.479.019C-570.047,794.651-569.609,794.39-569.716,794.423Z" transform="translate(624.352 -763.864)" fill="#fff"/>
        <path id="Path_44" data-name="Path 44" d="M-564.345,804.99l-.17-.073.195.253.176.265A4.267,4.267,0,0,0-564.345,804.99Z" transform="translate(620.153 -771.672)" fill="#fff"/>
        <path id="Path_45" data-name="Path 45" d="M-566.589,810.922c.391-.019.46-.308.471-.638a1.576,1.576,0,0,1,.138-.936l.182-.051q-.261-.187-.524-.363C-566.342,809.571-566.239,810.532-566.589,810.922Z" transform="translate(621.686 -774.643)" fill="#fff"/>
        <path id="Path_46" data-name="Path 46" d="M-574.573,819.28c.152.012.171.117.173.128a2.352,2.352,0,0,1,.055-.437.553.553,0,0,1-.093.034A1.349,1.349,0,0,1-574.573,819.28Z" transform="translate(627.589 -782.063)" fill="#fff"/>
        <path id="Path_47" data-name="Path 47" d="M-574.376,818.779c.1-.3-.3.1,0,0Z" transform="translate(627.527 -781.836)" fill="#fff"/>
        <path id="Path_48" data-name="Path 48" d="M-577.286,823.168l-.04-.5c-.192.009-.394.337-.442.155C-577.834,823.279-577.646,823.275-577.286,823.168Z" transform="translate(629.96 -784.795)" fill="#fff"/>
        <path id="Path_49" data-name="Path 49" d="M-574.961,826.221q.006-.128.007-.255C-575.036,825.971-575.082,826.013-574.961,826.221Z" transform="translate(627.93 -787.234)" fill="#fff"/>
        <path id="Path_50" data-name="Path 50" d="M-574.719,823.914l-.007.535c.134,0,.351.093.023-.237C-574.525,824.344-574.67,824.165-574.719,823.914Z" transform="translate(627.702 -785.717)" fill="#fff"/>
        <path id="Path_51" data-name="Path 51" d="M-573.864,821.6c.245-.152.469-.4.517.1C-573.088,820.891-573.616,820.8-573.864,821.6Z" transform="translate(627.065 -783.596)" fill="#fff"/>
        <path id="Path_52" data-name="Path 52" d="M-564.226,816.4c.11-.082.209-.167.314-.253l-.14-.358C-563.983,815.966-564.443,816.342-564.226,816.4Z" transform="translate(619.982 -779.708)" fill="#fff"/>
        <path id="Path_53" data-name="Path 53" d="M-582.16,832.7c.123.1.441.062.632.129l0-.384C-581.7,832.543-581.944,832.785-582.16,832.7Z" transform="translate(633.198 -792.021)" fill="#fff"/>
        <path id="Path_54" data-name="Path 54" d="M-579.775,833.914l-.013.582C-579.537,834.106-579.61,833.971-579.775,833.914Z" transform="translate(631.444 -793.11)" fill="#fff"/>
        <path id="Path_55" data-name="Path 55" d="M-572.509,825.839c-.039-.331-.095-.659-.144-.983.031.372.062.748.078,1.128Z" transform="translate(626.169 -786.413)" fill="#fff"/>
        <path id="Path_56" data-name="Path 56" d="M-586.278,838.5l-.177-.411.23.683Z" transform="translate(636.373 -796.199)" fill="#fff"/>
        <path id="Path_57" data-name="Path 57" d="M-589.771,842.518c-.149-.313-.555-.085-.6-.341a1.669,1.669,0,0,0,.013.906C-590.327,842.826-590.161,842.657-589.771,842.518Z" transform="translate(639.315 -799.219)" fill="#fff"/>
        <path id="Path_58" data-name="Path 58" d="M-590.137,846.143a1.8,1.8,0,0,0-.041-.49A1.238,1.238,0,0,0-590.137,846.143Z" transform="translate(639.132 -801.789)" fill="#fff"/>
        <path id="Path_59" data-name="Path 59" d="M-583.294,838.83a.694.694,0,0,0-.578.112l.476.053Z" transform="translate(634.464 -796.73)" fill="#fff"/>
        <path id="Path_60" data-name="Path 60" d="M-582.678,839.519h-.016c-.113.177-.194.295-.229.345Z" transform="translate(633.762 -797.253)" fill="#fff"/>
        <path id="Path_61" data-name="Path 61" d="M-581.628,838.722l-.026.042C-581.607,838.769-581.589,838.766-581.628,838.722Z" transform="translate(632.824 -796.665)" fill="#fff"/>
        <path id="Path_62" data-name="Path 62" d="M-575.8,832.433c.076.379,0,1.061.625.7C-575.341,832.8-575.693,833.006-575.8,832.433Z" transform="translate(628.5 -792.015)" fill="#fff"/>
        <path id="Path_63" data-name="Path 63" d="M-579.257,837.07l.351-.426c-.107-.047-.3-.042-.337-.232Z" transform="translate(631.052 -794.957)" fill="#fff"/>
        <path id="Path_64" data-name="Path 64" d="M-579.632,839.233l.007-.3-.13.155Z" transform="translate(631.42 -796.823)" fill="#fff"/>
        <path id="Path_65" data-name="Path 65" d="M-587.558,845.872a.95.95,0,0,1-.21.67,2.155,2.155,0,0,0,.59-.565C-587.268,845.864-587.4,845.632-587.558,845.872Z" transform="translate(637.344 -801.873)" fill="#fff"/>
        <path id="Path_66" data-name="Path 66" d="M-584.41,843.187c0,.018-.005.036,0,.053C-584.367,843.236-584.345,843.222-584.41,843.187Z" transform="translate(634.865 -799.966)" fill="#fff"/>
        <path id="Path_67" data-name="Path 67" d="M-594.6,855.818l.087.028-.045-.062Z" transform="translate(642.393 -809.278)" fill="#fff"/>
        <path id="Path_68" data-name="Path 68" d="M-585.41,845.293c.189-.122.171-.29.124-.463a1.79,1.79,0,0,1-.217.454C-585.462,845.333-585.43,845.361-585.41,845.293Z" transform="translate(635.669 -801.18)" fill="#fff"/>
        <path id="Path_69" data-name="Path 69" d="M-591.091,849.677a1.94,1.94,0,0,0,.41-.1C-590.852,849.565-591.152,849.573-591.091,849.677Z" transform="translate(639.807 -804.687)" fill="#fff"/>
        <path id="Path_70" data-name="Path 70" d="M-585.156,843.269a.189.189,0,0,1,0-.037C-585.272,843.24-585.229,843.256-585.156,843.269Z" transform="translate(635.466 -799.999)" fill="#fff"/>
        <path id="Path_71" data-name="Path 71" d="M-584.954,843.375a1.319,1.319,0,0,0,.073.379,1.236,1.236,0,0,0,.067-.375A.529.529,0,0,1-584.954,843.375Z" transform="translate(635.264 -800.105)" fill="#fff"/>
        <path id="Path_72" data-name="Path 72" d="M-593.065,858.65a.736.736,0,0,1,.65-1.083c.171-.591-1.021-1.3-1.849-1.545.109.141.228.257,0,.8.291.038,1.214-.431,1.144.144-.373.642-.524.3-.925.373.565.17-.177,1.166.442,1.61l.292-.624C-593.222,858.4-593.267,858.692-593.065,858.65Z" transform="translate(642.146 -809.455)" fill="#fff"/>
        <path id="Path_73" data-name="Path 73" d="M-593.89,853.033l.106-.18a1.692,1.692,0,0,1-.888.106c-.108.381-.062.543.015.658q.4-.34.772-.676Z" transform="translate(642.495 -807.112)" fill="#fff"/>
        <path id="Path_74" data-name="Path 74" d="M-590.487,849.158c.241.4.04.9.6,1,.386-.478.007-.565.083-.955-.258.4-.267.3-.28.158s-.05-.34-.361-.172a2.063,2.063,0,0,1,.223-.448,2.245,2.245,0,0,1-.45.223l.034,0,0,0,0,.005c.067.007.1.019.048.031,0,.006,0,.016-.005.02a.707.707,0,0,1,.1.141c-.242.139-.113-.045-.1-.141a.546.546,0,0,0-.043-.051h-.006c-.134.279-.285.562-.449.847A2.017,2.017,0,0,0-590.487,849.158Z" transform="translate(639.797 -804.069)" fill="#fff"/>
        <path id="Path_75" data-name="Path 75" d="M-571.54,838.733a.148.148,0,0,1-.106-.019C-571.632,838.8-571.612,838.842-571.54,838.733Z" transform="translate(625.425 -796.659)" fill="#fff"/>
        <path id="Path_76" data-name="Path 76" d="M-576.326,837.809c-.016-.1-.141-.24.021-.44.221-.128.186.1.319.163-.03-.191-.025-.619-.441-.305l.017.1c-.341.306-1.089.515-1.106.419A3.143,3.143,0,0,0-576.326,837.809Z" transform="translate(629.765 -795.477)" fill="#fff"/>
        <path id="Path_77" data-name="Path 77" d="M-581.322,846.182q-.135.412-.285.817c.185-.043.373-.089.56-.14l-.2-.11C-580.908,846.394-581.206,846.326-581.322,846.182Z" transform="translate(632.789 -802.18)" fill="#fff"/>
        <path id="Path_78" data-name="Path 78" d="M-596.127,854.373l-.24-.417q.052.4.094.816Z" transform="translate(643.701 -807.927)" fill="#fff"/>
        <path id="Path_79" data-name="Path 79" d="M-599.326,857.71l-.244-.329-.058.386Z" transform="translate(646.112 -810.46)" fill="#fff"/>
        <path id="Path_80" data-name="Path 80" d="M-773.166,775.06l-.083-.3A.975.975,0,0,0-773.166,775.06Z" transform="translate(774.472 -749.377)" fill="#fff"/>
        <path id="Path_81" data-name="Path 81" d="M-773.528,783.777l.2.055C-773.437,783.733-773.517,783.691-773.528,783.777Z" transform="translate(774.678 -756.009)" fill="#fff"/>
        <path id="Path_82" data-name="Path 82" d="M-691.067,876.272c-.2-.485-.341-1.185-.475-.745l-.067.455A.729.729,0,0,1-691.067,876.272Z" transform="translate(714.115 -823.772)" fill="#fff"/>
        <path id="Path_83" data-name="Path 83" d="M-749.48,841.369l-.075.159.5.05C-749.189,841.518-749.331,841.446-749.48,841.369Z" transform="translate(756.955 -798.622)" fill="#fff"/>
        <path id="Path_84" data-name="Path 84" d="M-756.151,841.716l.048-.589A1.7,1.7,0,0,0-756.151,841.716Z" transform="translate(761.835 -798.443)" fill="#fff"/>
        <path id="Path_85" data-name="Path 85" d="M-762.562,732.336l-.225-.515C-763.056,732.287-762.736,732.192-762.562,732.336Z" transform="translate(766.814 -717.632)" fill="#fff"/>
        <path id="Path_86" data-name="Path 86" d="M-635.026,878.852a2.009,2.009,0,0,0-.8-.1C-635.416,878.927-635.035,879.238-635.026,878.852Z" transform="translate(672.873 -826.252)" fill="#fff"/>
        <path id="Path_87" data-name="Path 87" d="M-755.85,779.674c-.074-.15-.15-.22-.252-.223C-756.046,779.607-755.959,779.7-755.85,779.674Z" transform="translate(761.795 -752.845)" fill="#fff"/>
        <path id="Path_88" data-name="Path 88" d="M-639.179,878.66a1.955,1.955,0,0,0,.182.074,1.709,1.709,0,0,1,.693-.245A.628.628,0,0,0-639.179,878.66Z" transform="translate(675.353 -825.99)" fill="#fff"/>
        <path id="Path_89" data-name="Path 89" d="M-626.106,681.559a.9.9,0,0,1,.08.074C-626,681.576-626.043,681.563-626.106,681.559Z" transform="translate(665.688 -680.472)" fill="#fff"/>
        <path id="Path_90" data-name="Path 90" d="M-600.05,717.4a2.585,2.585,0,0,1-.313-.292C-600.334,717.19-600.245,717.28-600.05,717.4Z" transform="translate(646.655 -706.757)" fill="#fff"/>
        <path id="Path_91" data-name="Path 91" d="M-611.6,868.56c.153-.146,0-.058,0,0Z" transform="translate(654.965 -818.665)" fill="#fff"/>
        <path id="Path_92" data-name="Path 92" d="M-604.208,871.672a.313.313,0,0,0,.061.228A.4.4,0,0,1-604.208,871.672Z" transform="translate(649.5 -821.025)" fill="#fff"/>
        <path id="Path_93" data-name="Path 93" d="M-646.594,891.43h-.021C-646.531,891.507-646.546,891.493-646.594,891.43Z" transform="translate(680.851 -835.632)" fill="#fff"/>
        <path id="Path_94" data-name="Path 94" d="M-611,868.7a1.044,1.044,0,0,0-.3.053A1.08,1.08,0,0,0-611,868.7Z" transform="translate(654.739 -818.828)" fill="#fff"/>
        <path id="Path_95" data-name="Path 95" d="M-610.771,867.769c.071-.026.124-.052.175-.076C-610.62,867.616-610.666,867.6-610.771,867.769Z" transform="translate(654.35 -818.041)" fill="#fff"/>
        <path id="Path_96" data-name="Path 96" d="M-612.458,868.972a.971.971,0,0,1,.3-.155c-.051,0-.08-.012-.08-.03C-612.281,868.827-612.346,868.884-612.458,868.972Z" transform="translate(655.598 -818.892)" fill="#fff"/>
        <path id="Path_97" data-name="Path 97" d="M-705.665,689.6a.524.524,0,0,1,.067.014C-705.454,689.336-705.54,689.412-705.665,689.6Z" transform="translate(724.506 -686.293)" fill="#fff"/>
        <path id="Path_98" data-name="Path 98" d="M-719.268,884.037c.013,0,.025,0,.037,0l-.025-.033Z" transform="translate(734.563 -830.14)" fill="#fff"/>
        <path id="Path_99" data-name="Path 99" d="M-723.034,880.258c.64-.256.788-.075.993.175.129-.422.261-.839.4-1.258Q-722.325,879.725-723.034,880.258Z" transform="translate(737.347 -826.572)" fill="#fff"/>
        <path id="Path_100" data-name="Path 100" d="M-775.816,698.15l-.561.558a4.286,4.286,0,0,1-.27-1.073c-.032-.194-.13-.215-.486.029.656.248.518.911.383,1.575-.033.166-.068.331-.087.491a1.844,1.844,0,0,0,.015.452.669.669,0,0,0,.536.574l-.371.391c.037-.125-.04-.16,0-.284-.815.764.854.805.54,1.869-.149.37-.38.624-.516.342.087.3.158.6.259.894-.036.25-.276.174-.24-.077l.065,1.334-.041-.011a8.736,8.736,0,0,1,.691.82c-.186.333-.155-.164-.326-.078l.369.713c-.349.311-.726-.279-.7-.792-.683.351-.589.516-.418.764a1.19,1.19,0,0,1,.227.486,1.594,1.594,0,0,1-.167.883c-.093-.229-.146-.462-.221-.7a1.291,1.291,0,0,0-.4.4,1.076,1.076,0,0,0-.153.439,4.054,4.054,0,0,1-.254,1.113c.115-.117.372-.571.659-.881s.6-.483.823-.1a.9.9,0,0,0,.242.932c-.246.037-.325.156-.331.334a1.388,1.388,0,0,0,.035.3l.093.362-.654.08c.289.542.616.427.972.7.068.628-.391.871-.776,1.122.077.514.23.289.418.085s.411-.387.618.172c-.029.87.4,1.369,1.074,2.166-.031.611-.413.034-.526.287l.66.309c.029.12-.136.136-.219.144.335.33.63-.184,1.023.371.372-.044.236.362.154.839s-.121,1.031.414,1.245c-.1.255-.409.066-.621.22a5.457,5.457,0,0,0,1.757,1.258l-.083.873c.221-.715,1.046-.3,1.743.063a6.745,6.745,0,0,0,.3-.66c.243.249.487.494.732.732-.047.152-.292.164-.609.137a2.148,2.148,0,0,0,.22.094c-.065.42-.484.429-.928.355.063-.167.137-.335.212-.5a2.112,2.112,0,0,0-1.294.127.7.7,0,0,1,.3.227c-.126-.014-.232-.011-.279.044s.129.1.352.175l-.56.528.287-.074c.059.474.132.958.227,1.45a17.641,17.641,0,0,0,1.838.671c.312.113.616.24.928.389a5.283,5.283,0,0,1,.894.578c-.655.054-.736.488-1.242.875.118-.374-.112-.574-.437-.78a4.914,4.914,0,0,1-.51-.338,1.363,1.363,0,0,1-.388-.485c.179.406-.124.5-.276.457.442.325.919.6,1.373.874-.436.3-.112.49-.023.931.3-.443.611-.338.918-.1a4.7,4.7,0,0,0,.966.692c-.22.271-.575.419-1.017-.184-.005.559.395.561.8.512s.814-.113.867.4c-.132-.115-.162-.219-.333-.141a.811.811,0,0,1,.373.172,1.39,1.39,0,0,1,.311.308c.163.223.219.454.031.49l-.137-.111c.1.108.216.229.349.349s.281.238.436.358a5.957,5.957,0,0,0,1,.64,2.969,2.969,0,0,0,.972.332.774.774,0,0,0,.684-.167,6.986,6.986,0,0,1-.858.906,32.192,32.192,0,0,0,3.233-1.465,7.91,7.91,0,0,0-.739,1.426c-.268.531-.594.982-1.119.922a1.292,1.292,0,0,0,1.06.562c-.117-.185.12-1.169.373-1.111a2.832,2.832,0,0,0,.232.837,8.431,8.431,0,0,1,.4.81c-.175-.269.637-1.179,1-.955-.138.128-.481,1.06-.679,1.1.5-.176.993-.379,1.476-.575-.329.075-.459.867-.371,1.27-.011-.25.856.405,1.17.415l-.317-.431c.527.331.968.063,1.4-.21s.863-.571,1.4-.332c-.214.173-.868,1.244-.33,1.6.238-.227.783-.785,1.384-1.316a4.7,4.7,0,0,1,1.766-1.137l.094.373c.272-.063.537-.137.8-.215a8.752,8.752,0,0,1-1.563,1.484,9.73,9.73,0,0,1-1.928,1.162c.365.407-.007.424.7.618.156.382-.531.339-.742.285.519.248,1.062.485,1.63.7.048-.344.421-.427.787-.508s.729-.164.747-.453a19.683,19.683,0,0,1-2,.26,1.8,1.8,0,0,1,.954-1.01,2.292,2.292,0,0,1,1.649-.29c.123.159.028.455-.109.739a4.011,4.011,0,0,0-.322.672,1.407,1.407,0,0,1,.706-.2c.3-.03.576-.015.626.071-.184.112-.374.212-.568.317.342.169.654-.037.96-.2a.8.8,0,0,1,1.019.045c.273.045.87.87.9.457a6.95,6.95,0,0,1-.384-3.809l.714.408a4.771,4.771,0,0,1,.918.619c.237.286.125.668-.007,1.042s-.282.733-.069.981a.974.974,0,0,1,.3-.53c.292.131-.051.6.539.442.017-.706,1.2-.1.207-.623.544-.272.626.064,1.285-.062-.273-.418.366-1.611.891-1.892a.887.887,0,0,0,.23.488c1.149-.112,1.813.107,2.883-.089.129.148.689.247.528.586.131-.152.225-.417.552-.5.777.451-.724.253-.078.858-.041-.406.751-.736,1.156-1.11-.3-.565-1.1.146-1.534.492a2.858,2.858,0,0,1,1.372-2.563c.75-.441.512.436.618.277a1.435,1.435,0,0,0,1.155-1.048,1.306,1.306,0,0,1,.294-.516.89.89,0,0,1,.688-.191.893.893,0,0,1,.543.632,1.72,1.72,0,0,0,.228.659,1.118,1.118,0,0,1-.837.277,1.679,1.679,0,0,0-.737.038c.215.014.428.019.647.027a1.157,1.157,0,0,1-.362.37.7.7,0,0,1-.487.125c.3.158.983-.057,1.734-.386a19.785,19.785,0,0,1,2.232-.963c.094-.286.3-.671.022-.744-.1.1-.191.2-.29.295-.28-.083-.2-.314-.138-.513s.134-.361-.127-.305c.252-.559.395-1.283,1.117-1.558l.512.394c-.132-.129-.614.023-.656.3.033-.206.387-.218.7-.3s.6-.219.452-.643c-.229.007-.457.013-.683.014.2-.586.235-1.518.867-1.826-.645-.254-.069.16-.908-.063.455.2.133.479-.158.731s-.556.481,0,.633a1.077,1.077,0,0,0-.878-.025,1.237,1.237,0,0,1-.876.072c.141.151.4.193-.058.415a.85.85,0,0,1,.022.213.291.291,0,0,1-.036.007c.013,0,.024,0,.037,0,0,.038,0,.044.014,0a.738.738,0,0,1,.4.1c.088.543-.6,1.009-.7,1.36-.311.08-.021-.269-.281-.367-.047.177-.1.353-.152.528-.136-.186-.4-.253-.575-.352s-.247-.219-.028-.5l-.527.268a1.447,1.447,0,0,0-.634.028.78.78,0,0,0-.466.3c-.3.012-.5.745-.388.315-.271.2-.548.4-.842.593l-.044-.107a11.269,11.269,0,0,0-1.441.663,2.065,2.065,0,0,1-1.757.041,2.163,2.163,0,0,1-1.295.354l-.181-.376c-.436.213-1.463-.179-1.607.263-.335-.494-.924-.464-1.5-.332a5.372,5.372,0,0,1-1.548.3l.018.522a5.624,5.624,0,0,0-1.624.407l.039.461a1.07,1.07,0,0,1-1.01-.053,4.834,4.834,0,0,0-1.164-.419c.089-.161.283-.081.414.046-.4-.588-.915-.5-1.495-.43s-1.183.15-1.523-.375a.473.473,0,0,1-.565-.215.107.107,0,0,0,.067,0,.513.513,0,0,0-.094-.042c-.075-.113-.149-.241-.237-.355a1.15,1.15,0,0,0,.185.337,2.866,2.866,0,0,0-.8-.12l.072-.507c-.024,0-.041-.011-.068-.013-.193-.278-.3.128-.3.531a1.459,1.459,0,0,0-.476.125c.1-.821-.82-.063-.766-.97-.354.3-1.456-.335-1.987.367.042-.106-.012-.194.135-.128-.252-.238-.5-.472-.872-.4l.176-.62c-.341.135-.691.273-1.037.394-.191-.555-.223-.831.385-1.038a4.356,4.356,0,0,1-.685.029,2.455,2.455,0,0,1-.357-.056,2.547,2.547,0,0,0-.952-.005l.26-.316c-.262-.162-1,.008-.956-.385a1.468,1.468,0,0,0-.481-.8c-.257-.287-.619-.571-.972-.909a5.554,5.554,0,0,1-1.742-2.354c-.357.508-.382.268-.411-.028s-.026-.655-.422-.408c.168-.249.163-.524.522-.454a1.313,1.313,0,0,1-.227-.2,1.34,1.34,0,0,1-.141-.222c-.076-.148-.123-.295-.179-.424a.788.788,0,0,0-.731-.534c.2-.223.452-.041.557-.2-.086-.028-.346-.117-.239-.277s.269,0,.44.053c-.445-.723-1.266-.446-2.034-.14.137-.6-.01-.794-.648-.894.172-.269.31-.642.647-.136-.109-.319-.488-2.055-1.1-1.825.112-.164-.143-.456-.246-.509a9.63,9.63,0,0,0-.557-1.47l-.025.231c-.846.014-.393-.516-.687-1.044l.082-.012c.035-.743-.069-.857-.174-.976s-.2-.243-.083-.977l-.45.215c-.523.1-.468-.243-.341-.677s.319-.953.034-1.281c-.07.112-.142.226-.208.339-.227-.164.054-.544.406-.916s.773-.741.806-.948c.075-.1.17.108.258.213.217-.564.052-.565-.2-.524s-.6.135-.724-.247c.328-.192.9.048.9-.466.125-.144-.2-.47-.491-.88-.253-.411-.459-.909-.142-1.273-.261.161-.522.335-.741-.033-.074-.285.2-.674.376-1.042s.247-.722-.16-1.009a.325.325,0,0,1,.221-.085c-.163-.444-.217-1.438-.619-1.776.88-.074.8-.756.693-1.429-.064-.66-.141-1.3.613-1.084.047-.218.075-.442.137-.657l.175-.649.141.084a1.473,1.473,0,0,0,.165-.937,1.974,1.974,0,0,0-.266-.672c.177-.147.256.045.326.091a6.8,6.8,0,0,0,.442-.644,1.992,1.992,0,0,0,.2-.492,3.663,3.663,0,0,0-.09-1.337l.5.137c-.03-.1.037-.233.191-.382s.36-.329.575-.535a4.876,4.876,0,0,0,.615-.7,1.938,1.938,0,0,0,.391-.884.368.368,0,0,1,.112.242c.124-.756.946-1.188,1.526-1.614.143-.111.287-.21.407-.314a1.1,1.1,0,0,0,.274-.345,1,1,0,0,0-.153-.974c.089-.339.209-.654.329-.979-.489.367-.6.2-.661-.054s-.061-.584-.358-.513c.29-.427,1.311-.477.941.008l-.132,0c.257.424.59.225.909-.016a1.978,1.978,0,0,1,.474-.3.293.293,0,0,1,.382.072,8.81,8.81,0,0,1,1.4-1.029,15.727,15.727,0,0,1,1.509-.819c1.038-.488,2.1-.9,3.125-1.39l-.574-.552.735-.321c.267.064.512.4-.01.627.454.249.7-.743.645-.9,1.148-.216-.013.981.307.846l.4-.254-.133-.033c.208-.442.1-.751.744-1.017.459-.052.4.324.566.277.022.048.084.047.241-.088.3-.117.6-.225.885-.32-.186-.138-.379-.27-.575-.4.272-.439.833-.308.174-.77.505.352,1.325.133,2.047.01a3.106,3.106,0,0,1,1.678-.021,2.426,2.426,0,0,1,1.978-.216c-.18-.144-.234-.822.428-.666-.377,1.344,1.163.73,1.595,1.776-.409-.707,1.9.047,1.257-.963.543.172-.025.516.358.885a3.924,3.924,0,0,1,2.154.192,9.919,9.919,0,0,0,2.273.559c.057-.173-.156-.493.225-.7.221.345.431.695.628,1.045.3-.025.505-.961.891-.22-.036-.167-.1-.418.116-.424a15.787,15.787,0,0,0,2.02.964,16.935,16.935,0,0,1,1.968.931,5.771,5.771,0,0,1,2.892,3.536c-.029-.542.186-.369.414-.137-.081-.212.332-.3.484-.5.135.48.259.961.378,1.446.676-.267.971,1.071,1.561.764l-.367-.257c.961-.05.785-1.716,1.583-2.3-.547.032-.584-.507-.711-1.062s-.347-1.13-1.185-1.1c-.031-.317.375-.071.446-.324-.508.089-.8-.091-1.141-.671l.125-.025a15.575,15.575,0,0,1-1.637-1.594,11.917,11.917,0,0,0-1.918-1.757l-.089.5a1.828,1.828,0,0,1-.547-.667c-.407.22-.106.361.175.536s.565.357.156.6a1.023,1.023,0,0,0-.477-.743,4.992,4.992,0,0,0-1.009-.535c-.726-.312-1.427-.563-1.471-1.159-.68-.2.042.593-.627.4l-.1-.342-.265.338a.825.825,0,0,1-.518-.843c.1.052.323,0,.445,0a1.561,1.561,0,0,0-1.04-.314,2.336,2.336,0,0,1-.781-.049l.609.3c-.94-.036-1.928-.211-2.891-.323a8.224,8.224,0,0,0-2.791.065l.1.243c-1.324.281-1-.364-2.42-.324l.057-.049a1.488,1.488,0,0,1-1.07.2c.38-.229-.618-.594-.125-.839-.714.152-.912.235-1.039.362a3.833,3.833,0,0,1-.707.711c-.068-.13-.136-.261-.208-.391a1.5,1.5,0,0,1-1.125.628c.3-.176.181-.316.058-.471s-.247-.321.122-.551a1.937,1.937,0,0,0-1.2-.14,2.858,2.858,0,0,0-.878.368c-.486.285-.806.51-1.379.066-.182.629.207.636.6.554s.814-.252.633-.088c.218.122.109.35-.1.556a1.535,1.535,0,0,1-.754.43c-.233.073-.549-.166-.962-.353a1.646,1.646,0,0,0-1.471-.05c.111-.047.085-.123.2-.171-.536-.047-.641.706-1.322.548,0,.707-.658.277-.381,1.048l.9-.644c-.467.46-.569,1.563-1.684,1.608a1.7,1.7,0,0,1,.307-.714c-.376-.081-.446.4-.836.323-.29-.77,1.121-.764,1.448-1.607-.44-.172-.88,1.086-.966.145.03.611-.251.71-.587.8a1.035,1.035,0,0,0-.893.755l-.181-.456c-.081.131-.213.462-.431.569l.087-.768c-.173.4-.516.454-.877.489s-.738.048-.951.348c1.2-.73.57.343,1.253.357-.564.7-.927.561-1.359.389a1.7,1.7,0,0,0-.715-.163,1.615,1.615,0,0,0-.958.483c.185-.215.994-.342.776.088a2.626,2.626,0,0,1-1.219.2c-.513.424-.385.5-.182.531s.506.039.372.318c-.714-.206-.348.592-.653,1.086l-.32-.379c-1.337.7.361,1.007-.837,1.606q-.038-.439-.066-.887l-.377.6-.284-.509a1.87,1.87,0,0,1-.427.813,2.164,2.164,0,0,1-.3.239c-.111.083-.241.171-.394.281a.708.708,0,0,1,.178,1.166c-.513.127-.188-.495-.746.227-.1-.352-.235-.784.376-.777-.093-.138-.092-.362-.181-.5-.575.135-.89.847-1.081,1.124a.744.744,0,0,1,.317-.212q-.158.751-.294,1.479c-.277.05-.294-.169-.307-.39-.124.249-.066.527-.263.871-.268-.323-.622-.548-.414-1.118-.073.219-.156.428-.218.651l-.183.663c-.191-.031-.774.279-.8.056a1.854,1.854,0,0,0-.473,1.22,2.178,2.178,0,0,1-.555,1.353.627.627,0,0,1,.024.41c-.239.375-.558.685-.815,1.054a1.981,1.981,0,0,0-.374,1.4q-.449.137-.9.288c-.085.421.207.309.483.273s.528,0,.414.678c-.092.986-.7.133-1,.392a4.788,4.788,0,0,1,.28,1.1,1.793,1.793,0,0,1-.051.613,1.251,1.251,0,0,1-.376.574C-776,698.629-775.835,698.432-775.816,698.15Zm-.635,10.109a3.9,3.9,0,0,1-.261-.367c-.071-.137-.079-.273.062-.355.29.092.365.184.357.3A2.125,2.125,0,0,1-776.451,708.259Zm5.743,13.549c-.21-.048-.237-.28-.175-.578A.82.82,0,0,1-770.708,721.808Zm34.406,6.963a.126.126,0,0,0,0,.029C-736.7,728.766-736.553,728.787-736.3,728.771Zm.726-.13a.167.167,0,0,0-.068-.2c.016.131-.113.223-.294.269C-735.834,728.8-735.707,728.843-735.576,728.641Zm-19.715-46.07-.2-.051C-755.228,682.24-755.265,682.4-755.291,682.571Z" transform="translate(777.94 -677.391)" fill="#fff"/>
        <path id="Path_101" data-name="Path 101" d="M-755.33,842.625a.639.639,0,0,1,.212-.185C-755.224,842.41-755.312,842.448-755.33,842.625Z" transform="translate(761.224 -799.407)" fill="#fff"/>
        <path id="Path_102" data-name="Path 102" d="M-761.588,733.892c.008-.007.013-.017.021-.024a.262.262,0,0,0-.063-.07Z" transform="translate(765.882 -719.093)" fill="#fff"/>
        <path id="Path_103" data-name="Path 103" d="M-659.418,900a.723.723,0,0,1-.374-.219C-659.79,899.9-659.7,900-659.418,900Z" transform="translate(690.592 -841.807)" fill="#fff"/>
        <path id="Path_104" data-name="Path 104" d="M-606.193,862.707l-.288.418a.574.574,0,0,1,.442-.165C-606.123,862.879-606.3,862.814-606.193,862.707Z" transform="translate(651.179 -814.397)" fill="#fff"/>
        <path id="Path_105" data-name="Path 105" d="M-585.283,858.472c.011-.1.111-.123.119-.221l-.181-.144C-585.56,858.353-585.593,858.649-585.283,858.472Z" transform="translate(635.675 -810.996)" fill="#fff"/>
        <path id="Path_106" data-name="Path 106" d="M-599.844,864.738c.308.284.459-.04.68-.345a.21.21,0,0,1-.048.044C-599.525,863.932-599.684,864.338-599.844,864.738Z" transform="translate(646.272 -815.502)" fill="#fff"/>
        <path id="Path_107" data-name="Path 107" d="M-597.03,863.791a1,1,0,0,1,.246-.238C-596.91,863.351-596.919,863.61-597.03,863.791Z" transform="translate(644.191 -814.968)" fill="#fff"/>
        <path id="Path_108" data-name="Path 108" d="M-613.854,869.892c.185.01-.213-.5-.05-.4-.079-.265-.19,0-.227.25S-614.125,870.229-613.854,869.892Z" transform="translate(656.843 -819.331)" fill="#fff"/>
        <path id="Path_109" data-name="Path 109" d="M-596.732,868.591l-.443-.295.121.448Z" transform="translate(644.298 -818.529)" fill="#fff"/>
        <path id="Path_110" data-name="Path 110" d="M-605.072,874.128c.184-.079.37-.159.554-.244-.061-.062-.033-.148.015-.235C-604.8,873.861-605.174,874.014-605.072,874.128Z" transform="translate(650.15 -822.486)" fill="#fff"/>
        <path id="Path_111" data-name="Path 111" d="M-602.844,872.618a.709.709,0,0,0,.313-.364A1.683,1.683,0,0,0-602.844,872.618Z" transform="translate(648.49 -821.455)" fill="#fff"/>
        <path id="Path_112" data-name="Path 112" d="M-598.982,871.947l-.2.035-.345.245Z" transform="translate(646.04 -821.228)" fill="#fff"/>
        <path id="Path_113" data-name="Path 113" d="M-628.362,885.393c-.191.105-.387.2-.582.306-.021.188.177.248.393.119C-628.431,885.662-628.221,885.53-628.362,885.393Z" transform="translate(667.786 -831.169)" fill="#fff"/>
        <path id="Path_114" data-name="Path 114" d="M-618.95,887.414c-.21-.033-.262-.14-.417-.264l.2.607C-619.094,887.642-619.021,887.532-618.95,887.414Z" transform="translate(660.705 -832.468)" fill="#fff"/>
        <path id="Path_115" data-name="Path 115" d="M-625.885,891.073c-.013.2-.829.745,0,.486C-625.857,891.37-625.242,891.039-625.885,891.073Z" transform="translate(665.798 -835.367)" fill="#fff"/>
        <path id="Path_116" data-name="Path 116" d="M-662.948,891.271l.166-.02-.1-1.043Z" transform="translate(692.925 -834.729)" fill="#fff"/>
        <path id="Path_117" data-name="Path 117" d="M-699.252,895.383c.662.538.415-.526.986.034.266-.162-.467-.456-.206-.584C-699.018,894.9-699.2,894.658-699.252,895.383Z" transform="translate(719.765 -838.148)" fill="#fff"/>
        <path id="Path_118" data-name="Path 118" d="M-696.258,894.67a1.636,1.636,0,0,0,.289-.058A.783.783,0,0,0-696.258,894.67Z" transform="translate(717.552 -837.985)" fill="#fff"/>
        <path id="Path_119" data-name="Path 119" d="M-596.4,724.708l.144.512.069-.466Z" transform="translate(643.725 -712.373)" fill="#fff"/>
        <path id="Path_120" data-name="Path 120" d="M-593.054,725.552l-.439.516.654-.158C-592.933,725.842-593.116,725.713-593.054,725.552Z" transform="translate(641.576 -712.997)" fill="#fff"/>
        <path id="Path_121" data-name="Path 121" d="M-776.594,800.986l.164.017c.16-.116.156-.25.149-.517Z" transform="translate(776.945 -768.396)" fill="#fff"/>
        <path id="Path_122" data-name="Path 122" d="M-775.205,772.871l-.028.128.626-.164Z" transform="translate(775.939 -747.953)" fill="#fff"/>
        <path id="Path_123" data-name="Path 123" d="M-772.741,748.42c-.109.242-.081.58-.19.823C-772.849,748.659-772.01,748.609-772.741,748.42Z" transform="translate(774.237 -729.903)" fill="#fff"/>
      </g>
    </g>
  </g>
</svg>
