<?xml version="1.0" encoding="utf-8"?>
<!-- Generator: Adobe Illustrator 24.3.0, SVG Export Plug-In . SVG Version: 6.00 Build 0)  -->
<svg version="1.1" id="Layer_1" xmlns="http://www.w3.org/2000/svg" width="150" xmlns:xlink="http://www.w3.org/1999/xlink" x="0px" y="0px"
	 viewBox="0 0 158.4 99.4" style="enable-background:new 0 0 158.4 99.4;" xml:space="preserve">
<style type="text/css">
	.st0{fill:#747474;}
</style>
<g id="Group_1" transform="translate(0.033)">
	<path id="Path_1" class="st0" d="M19.6,70.5L16,84.2h-4l-2.2-9l-2.3,9h-4L0,70.5h3.6l2,10l2.4-10h3.7l2.3,10l2-10H19.6z"/>
	<path id="Path_2" class="st0" d="M36.7,70.5v13.7h-3.3v-5.6h-5.2v5.6h-3.3V70.5h3.3v5.4h5.2v-5.4H36.7z"/>
	<path id="Path_3" class="st0" d="M46,70.5v13.7h-3.3V70.5H46z"/>
	<path id="Path_4" class="st0" d="M61.8,70.5v2.7h-3.6v11h-3.3v-11h-3.6v-2.7H61.8z"/>
	<path id="Path_5" class="st0" d="M70.4,73.1v2.8h4.5v2.6h-4.5v3h5.1v2.7h-8.4V70.4h8.4v2.7L70.4,73.1z"/>
	<path id="Path_6" class="st0" d="M92.2,81.6h4.4v2.6h-7.7V70.4h3.3V81.6z"/>
	<path id="Path_7" class="st0" d="M110.3,81.7h-5.1l-0.8,2.4h-3.5l5-13.7h3.9l5,13.7h-3.5L110.3,81.7z M109.4,79.2l-1.7-5l-1.7,5
		H109.4z"/>
	<path id="Path_8" class="st0" d="M129.9,78.3c0.5,0.6,0.7,1.3,0.7,2.1c0,1-0.4,2.1-1.2,2.7c-1,0.7-2.1,1.1-3.3,1h-6.4V70.4h6.2
		c1.2-0.1,2.3,0.3,3.3,1c0.8,0.6,1.2,1.6,1.2,2.6c0,0.7-0.2,1.4-0.6,2c-0.4,0.5-1,0.9-1.7,1.1C128.8,77.3,129.5,77.7,129.9,78.3z
		 M123.1,76h2.2c0.4,0,0.9-0.1,1.3-0.4c0.3-0.3,0.5-0.7,0.4-1.1c0-0.4-0.1-0.8-0.4-1.1c-0.4-0.3-0.8-0.4-1.3-0.4h-2.2L123.1,76z
		 M126.8,81.1c0.3-0.3,0.5-0.7,0.5-1.1c0-0.4-0.2-0.8-0.5-1.1c-0.4-0.3-0.8-0.4-1.3-0.4h-2.4v3h2.5C126,81.5,126.4,81.3,126.8,81.1
		L126.8,81.1z"/>
	<path id="Path_9" class="st0" d="M139.5,73.1v2.8h4.5v2.6h-4.5v3h5.1v2.7h-8.4V70.4h8.4v2.7L139.5,73.1z"/>
	<path id="Path_10" class="st0" d="M153.6,81.6h4.4v2.6h-7.7V70.4h3.3V81.6z"/>
</g>
<g>
	<path id="Path_11" class="st0" d="M35.8,90.2v1.1h-2.2v7h-1.3v-7h-2.2v-1.1H35.8z"/>
	<path id="Path_12" class="st0" d="M39.5,91.3v2.4h2.8v1.1h-2.8v2.5h3.2v1.1h-4.5v-8.1h4.5v1.1L39.5,91.3z"/>
	<path id="Path_13" class="st0" d="M45.5,92.1c0.4-0.6,0.9-1.1,1.5-1.5c0.6-0.4,1.4-0.5,2.1-0.5c0.8,0,1.6,0.2,2.3,0.6
		c0.7,0.4,1.2,1.1,1.5,1.8h-1.6c-0.2-0.4-0.5-0.7-0.9-1c-0.4-0.2-0.8-0.3-1.3-0.3c-0.5,0-1,0.1-1.4,0.4c-0.4,0.2-0.8,0.6-1,1
		c-0.2,0.5-0.4,1-0.4,1.6c0,0.5,0.1,1.1,0.4,1.6c0.2,0.4,0.6,0.8,1,1c0.4,0.2,0.9,0.4,1.4,0.4c0.5,0,0.9-0.1,1.3-0.3
		c0.4-0.2,0.7-0.6,0.9-1h1.6c-0.3,0.7-0.8,1.4-1.5,1.8c-0.7,0.4-1.5,0.6-2.3,0.6c-0.7,0-1.5-0.2-2.1-0.5c-0.6-0.3-1.1-0.9-1.5-1.5
		c-0.4-0.6-0.6-1.4-0.6-2.1C44.9,93.5,45.1,92.7,45.5,92.1z"/>
	<path id="Path_14" class="st0" d="M62,90.2v8.1h-1.3v-3.5h-3.8v3.5h-1.3v-8.1h1.3v3.5h3.8v-3.5H62z"/>
	<path id="Path_15" class="st0" d="M71.5,98.3h-1.3l-4-6.1v6.1h-1.3v-8.1h1.3l4,6v-6h1.3V98.3z"/>
	<path id="Path_16" class="st0" d="M75.9,97.8c-0.6-0.3-1.1-0.9-1.5-1.5c-0.4-0.7-0.6-1.4-0.6-2.1c0-0.7,0.2-1.5,0.6-2.1
		c0.4-0.6,0.9-1.1,1.5-1.5c0.6-0.4,1.4-0.5,2.1-0.5c0.7,0,1.5,0.2,2.1,0.5c0.6,0.3,1.1,0.9,1.5,1.5c0.4,0.6,0.6,1.4,0.5,2.1
		c0,0.7-0.2,1.5-0.5,2.1c-0.4,0.6-0.9,1.1-1.5,1.5c-0.6,0.4-1.4,0.5-2.1,0.5C77.3,98.4,76.5,98.2,75.9,97.8z M79.4,96.9
		c0.4-0.2,0.8-0.6,1-1.1c0.2-0.5,0.4-1,0.4-1.6c0-0.5-0.1-1.1-0.4-1.6c-0.2-0.4-0.6-0.8-1-1c-0.4-0.2-0.9-0.4-1.4-0.4
		c-0.5,0-1,0.1-1.4,0.4c-0.4,0.2-0.8,0.6-1,1c-0.2,0.5-0.4,1-0.4,1.6c0,0.5,0.1,1.1,0.4,1.6c0.2,0.4,0.6,0.8,1,1.1
		c0.4,0.2,0.9,0.4,1.4,0.4C78.5,97.2,79,97.1,79.4,96.9L79.4,96.9z"/>
	<path id="Path_17" class="st0" d="M85.8,97.2h2.7v1.1h-4.1v-8.1h1.3V97.2z"/>
	<path id="Path_18" class="st0" d="M92.4,97.8c-0.6-0.3-1.1-0.9-1.5-1.5c-0.4-0.7-0.6-1.4-0.6-2.1c0-0.7,0.2-1.5,0.6-2.1
		c0.4-0.6,0.9-1.1,1.5-1.5c0.6-0.4,1.4-0.5,2.1-0.5c0.7,0,1.5,0.2,2.1,0.5c0.6,0.3,1.1,0.9,1.5,1.5c0.4,0.6,0.6,1.4,0.5,2.1
		c0,0.7-0.2,1.5-0.5,2.1c-0.4,0.6-0.9,1.1-1.5,1.5c-0.6,0.4-1.4,0.5-2.1,0.5C93.8,98.4,93,98.2,92.4,97.8z M95.9,96.9
		c0.4-0.2,0.8-0.6,1-1.1c0.2-0.5,0.4-1,0.4-1.6c0-0.5-0.1-1.1-0.4-1.6c-0.2-0.4-0.6-0.8-1-1c-0.4-0.2-0.9-0.4-1.4-0.4
		c-0.5,0-1,0.1-1.4,0.4c-0.4,0.2-0.8,0.6-1,1c-0.2,0.5-0.4,1-0.4,1.6c0,0.5,0.1,1.1,0.4,1.6c0.2,0.4,0.6,0.8,1,1.1
		c0.4,0.2,0.9,0.4,1.4,0.4C95,97.2,95.5,97.1,95.9,96.9z"/>
	<path id="Path_19" class="st0" d="M106.9,92.5c-0.2-0.4-0.5-0.7-0.9-0.9c-0.4-0.2-0.8-0.3-1.3-0.3c-0.5,0-1,0.1-1.4,0.4
		c-0.4,0.2-0.8,0.6-1,1c-0.2,0.5-0.4,1-0.4,1.5c0,0.5,0.1,1.1,0.4,1.5c0.2,0.4,0.6,0.8,1,1c0.4,0.2,0.9,0.4,1.4,0.4
		c0.6,0,1.3-0.2,1.8-0.6c0.5-0.4,0.8-1,0.8-1.6h-3v-1.1h4.5v1c-0.1,0.6-0.3,1.2-0.7,1.7c-0.4,0.5-0.8,1-1.4,1.3
		c-0.6,0.3-1.3,0.5-1.9,0.5c-0.7,0-1.5-0.2-2.1-0.5c-0.6-0.3-1.1-0.9-1.5-1.5c-0.4-0.6-0.6-1.4-0.6-2.1c0-0.7,0.2-1.5,0.6-2.1
		c0.4-0.6,0.9-1.1,1.5-1.5c0.6-0.4,1.4-0.5,2.1-0.5c0.8,0,1.6,0.2,2.3,0.6c0.7,0.4,1.2,1.1,1.5,1.8L106.9,92.5z"/>
	<path id="Path_20" class="st0" d="M112.4,90.2v8.1h-1.3v-8.1H112.4z"/>
	<path id="Path_21" class="st0" d="M116.6,91.3v2.4h2.8v1.1h-2.8v2.5h3.2v1.1h-4.5v-8.1h4.5v1.1L116.6,91.3z"/>
	<path id="Path_22" class="st0" d="M123.7,98.1c-0.4-0.2-0.8-0.5-1-0.8c-0.3-0.4-0.4-0.8-0.4-1.2h1.4c0,0.3,0.2,0.6,0.4,0.9
		c0.3,0.2,0.7,0.4,1,0.3c0.4,0,0.8-0.1,1.1-0.3c0.3-0.2,0.4-0.5,0.4-0.9c0-0.2-0.1-0.5-0.2-0.7c-0.2-0.2-0.4-0.3-0.6-0.4
		c-0.3-0.1-0.7-0.2-1-0.3c-0.4-0.1-0.9-0.3-1.3-0.4c-0.3-0.1-0.6-0.4-0.8-0.7c-0.2-0.4-0.4-0.8-0.3-1.2c0-0.4,0.1-0.9,0.3-1.2
		c0.2-0.4,0.6-0.6,1-0.8c0.5-0.2,1-0.3,1.5-0.3c0.7,0,1.4,0.2,1.9,0.6c0.5,0.4,0.8,1,0.8,1.6h-1.5c0-0.3-0.2-0.6-0.4-0.8
		c-0.3-0.2-0.7-0.3-1-0.3c-0.3,0-0.7,0.1-0.9,0.3c-0.2,0.2-0.4,0.5-0.4,0.8c0,0.2,0.1,0.4,0.2,0.6c0.2,0.2,0.4,0.3,0.6,0.4
		c0.3,0.1,0.6,0.2,1,0.3c0.4,0.1,0.9,0.3,1.3,0.4c0.3,0.1,0.6,0.4,0.9,0.7c0.3,0.4,0.4,0.8,0.4,1.2c0,0.4-0.1,0.8-0.3,1.2
		c-0.2,0.4-0.6,0.7-1,0.9c-0.5,0.2-1,0.3-1.5,0.3C124.6,98.4,124.1,98.3,123.7,98.1z"/>
</g>
<g id="Group_6" transform="translate(-925.993 677.391)">
	<g id="Group_4" transform="translate(15.093 10.501)">
		<path id="Path_30" class="st0" d="M1011.8-655.4c-0.1,0.2-0.2,0.4-0.3,0.5c0,0.1-0.2,0.1-0.2,0.2c0,0.1-0.1,0.2-0.1,0.2
			c-0.1,0.1-0.1,0.2-0.1,0.3c-0.1,0.2-0.3,0.5-0.4,0.7s-0.3,0.5-0.4,0.7c-0.1,0.1-0.2,0.3-0.2,0.4c-0.1,0.2-0.2,0.3-0.3,0.5
			c0,0.1-0.1,0.2-0.2,0.4c0,0.1-0.1,0.1,0,0.2c0,0.1,0,0.2,0,0.4c0,0.1-0.1,0.1-0.1,0.1c-0.1-0.1,0.1-0.2,0.1-0.3
			c-0.1,0.1-0.1,0.2-0.2,0.3c-0.2,0.3-0.3,0.5-0.4,0.9c-0.1,0.3-0.1,0.5-0.1,0.8c0,0,0,0.1,0,0.1c-0.3,0.5-0.5,1-0.8,1.4
			c-0.4,0.7-0.9,1.4-1.4,2.1c-0.2,0.3-0.4,0.7-0.6,1c-0.1,0.2-0.2,0.3-0.4,0.5c-0.1,0.1-0.2,0.3-0.3,0.5c-0.1,0.3-0.3,0.6-0.6,0.8
			c-0.3,0.4-0.7,0.8-1.1,1.2c-0.3,0.3-0.6,0.5-1,0.7c-0.2,0.1-0.5,0.3-0.7,0.5c0,0-0.1,0.1-0.1,0.1c0,0.1-0.1,0.1-0.2,0.1
			c0,0,0,0,0,0c-0.1,0.1-0.3,0.2-0.5,0.3c-0.2,0.1-0.2,0.2-0.2,0.4c0,0.1-0.1,0.3-0.2,0.2c-0.2,0-0.3,0-0.5,0c0,0-0.1,0-0.1,0
			c-0.1,0-0.2,0-0.2,0.1c-0.1,0.1-0.1,0.1-0.2,0.1c-0.2,0-0.4,0-0.6-0.1c-0.2-0.1-0.3-0.1-0.5-0.2c-0.3-0.1-0.7-0.1-1-0.2
			c-0.3-0.1-0.6-0.1-0.9-0.3c-0.4-0.2-0.8-0.4-1.1-0.7c0,0-0.1-0.1-0.1-0.1c-0.1-0.1-0.2-0.3-0.3-0.4c-0.1-0.1-0.1-0.2-0.2-0.4
			c0,0,0,0,0-0.1c-0.1-0.2-0.2-0.4-0.3-0.7c-0.1-0.2-0.1-0.3-0.1-0.5c0.1,0.1,0.1,0.2,0.2,0.3c0-0.1,0-0.1,0-0.2
			c-0.1-0.2-0.1-0.5-0.2-0.7c0-0.1-0.1-0.3-0.1-0.4c0-0.1,0-0.1-0.1-0.2c0,0,0-0.1,0-0.1c-0.1-0.4-0.1-0.8-0.2-1.1
			c-0.1-0.5-0.2-0.9-0.2-1.4c-0.1-0.4-0.1-0.8-0.1-1.1c0-0.1,0-0.2-0.1-0.4c0-0.4-0.1-0.8-0.1-1.2c0-0.2-0.1-0.4-0.1-0.6
			c0-0.1,0-0.1,0-0.2c0-0.3,0-0.5-0.1-0.8c-0.1-0.3-0.1-0.5-0.1-0.8c0-0.1,0-0.2-0.1-0.3c0,0,0-0.1,0-0.1c0-0.2,0-0.4,0-0.6
			c0,0.1-0.1,0.1,0,0.2c0,0.2,0,0.3,0,0.5c-0.1-0.3-0.1-0.6,0-0.9c0,0,0,0,0,0.1c0-0.1,0-0.3,0-0.4c0-0.3-0.1-0.7-0.1-1
			c0-0.1,0-0.2,0-0.4c0-0.4,0-0.8,0-1.2c0-0.1-0.1-0.2,0-0.4c-0.1,0,0,0.1,0,0.1s0,0,0,0c0-0.1,0-0.2-0.1-0.3c0,0,0,0,0-0.1
			c0.1-0.1,0.1-0.2,0.1-0.3c-0.1,0.2-0.2,0.4-0.2,0.6c0,0.1,0,0.2-0.1,0.2c0,0-0.1,0-0.1,0.1c0,0.1-0.1,0.3-0.2,0.4
			c0,0.1,0,0.1,0,0.2c0,0.1,0,0.2,0,0.3c-0.1,0,0-0.1-0.1-0.1c0,0.1-0.1,0.2-0.1,0.3c0,0,0,0.1,0,0.2c0,0.2,0,0.3-0.1,0.5
			c-0.1,0.1-0.1,0.2-0.1,0.3c0,0.1,0,0.2-0.2,0.2c-0.1,0,0,0.1,0,0.1c-0.1,0.2-0.1,0.3-0.2,0.5c0,0,0,0.1,0,0.1
			c-0.1,0.1-0.2,0.3-0.2,0.5c0,0.1,0,0.1-0.1,0.2c-0.1,0.1-0.2,0.3-0.2,0.5c-0.1,0.2-0.2,0.5-0.3,0.7c0,0.1-0.1,0.1,0,0.2
			c0,0,0,0.1,0,0.1c-0.1,0.1-0.1,0.2-0.1,0.3c0,0.1,0,0.1-0.1,0.1c0,0,0,0,0,0.1c0,0.1,0,0.2-0.1,0.2c0,0.2-0.2,0.3-0.2,0.5
			c0,0,0,0.1-0.1,0.1c-0.1,0,0,0.1,0,0.1c0,0.1,0,0.2-0.1,0.3c0,0,0,0,0,0c-0.1,0-0.1,0.1-0.1,0.2c-0.1,0.1-0.1,0.2-0.1,0.4
			c0,0.1,0,0.1-0.1,0.2c-0.1,0-0.1,0.1-0.1,0.1c0,0.2-0.1,0.3-0.1,0.5c0,0.1-0.1,0.2-0.1,0.3c0,0,0,0.1,0,0.1c0,0,0-0.1,0-0.1
			c-0.1,0-0.1,0.1-0.1,0.1c0,0.2-0.1,0.5-0.2,0.7c-0.1,0.2-0.2,0.4-0.3,0.6c0,0,0,0.1-0.1,0.1c-0.1,0.1-0.1,0.3-0.2,0.3c0,0,0,0,0,0
			c0,0.2-0.1,0.3-0.2,0.5c0,0.1-0.1,0.1-0.2,0.1c-0.1,0-0.1,0.1-0.1,0.2c0.1,0.1,0,0.1,0,0.2c-0.2,0.4-0.4,0.8-0.6,1.2
			c-0.1,0.2-0.2,0.5-0.3,0.7c-0.1,0.1-0.1,0.2-0.1,0.3c-0.1,0.3-0.2,0.5-0.3,0.8c-0.1,0.4-0.4,0.8-0.7,1.1c0,0.1-0.2,0.2-0.2,0.4
			c0,0.1-0.2,0.2-0.3,0.1c-0.1-0.1-0.2-0.1-0.4,0c0,0.1,0.1,0.1,0.1,0.2c-0.1,0.1-0.1,0.3-0.2,0.4c0,0,0,0.1,0,0.1
			c0,0.1,0,0.2-0.1,0.2c-0.1,0-0.2,0-0.2,0c-0.1,0-0.2-0.1-0.3-0.1c-0.1,0-0.1,0-0.1,0.1c0,0.1,0,0.1-0.1,0.1c-0.1,0-0.2,0-0.3,0.1
			c0,0-0.1,0-0.1,0c-0.1,0-0.2,0-0.3,0c-0.1,0-0.1,0.1-0.2,0c-0.2-0.1-0.3-0.2-0.4-0.3c-0.2-0.1-0.5-0.3-0.7-0.4
			c-0.1-0.1-0.3-0.1-0.4-0.2s-0.3-0.2-0.3-0.3c0,0,0-0.1,0-0.1c-0.2-0.2-0.3-0.4-0.5-0.6c-0.4-0.4-0.7-0.8-1-1.3
			c0-0.1-0.1-0.1-0.1-0.2c-0.2-0.3-0.2-0.2-0.1-0.7c0.1,0.3,0.2,0.5,0.3,0.8c0-0.1,0.1-0.1,0-0.2c0-0.1,0-0.1-0.1-0.2
			c-0.2-0.6-0.4-1.2-0.5-1.7c-0.2-0.6-0.2-1.3-0.4-1.9c-0.1-0.5-0.2-1-0.3-1.5c-0.1-0.4-0.1-0.7-0.2-1.1c0-0.4-0.1-0.8-0.2-1.2
			c0-0.1,0-0.2,0-0.4c0-0.2-0.1-0.4-0.1-0.6c0-0.4-0.1-0.7-0.1-1.1c0,0,0-0.1,0-0.1c0,0.4,0.1,0.8,0.1,1.2h0c0-0.4-0.1-0.7-0.1-1.1
			c0-0.7-0.1-1.3-0.1-2c0-0.5,0-1,0-1.5c0-0.4,0-0.8,0-1.2c0-0.3,0-0.7,0-1c0-0.2,0-0.4,0-0.6c0-0.4,0.1-0.9,0.1-1.3
			c0-0.3,0-0.6,0-0.9c0-0.4,0.1-0.7,0.1-1.1c0-0.8,0.1-1.5,0.2-2.2c0.1-0.4,0.1-0.9,0.2-1.3c0-0.2,0.1-0.4,0.1-0.5
			c0-0.1,0-0.3,0.1-0.4c0.1-0.2,0.1-0.4,0.1-0.6c0.1-0.3,0.1-0.5,0.1-0.8c0-0.2,0.1-0.4,0.1-0.5c0-0.2,0-0.5,0.1-0.7
			c0-0.4,0.1-0.7,0.2-1.1c0.1-0.3,0.1-0.5,0.2-0.8s0.2-0.5,0.2-0.8c0.1-0.2,0.1-0.4,0.2-0.6c0-0.1,0.1-0.2,0.2-0.3c0,0,0,0,0-0.1
			c0-0.1,0-0.2,0.1-0.2c0.1-0.1,0.2-0.1,0.3-0.1c0.2,0,0.3,0,0.5-0.1c0.2-0.1,0.3-0.1,0.5-0.1c0.2,0,0.3,0,0.4-0.1
			c0.1-0.1,0.2-0.1,0.3,0c0.1,0,0.1,0,0.2,0.1c0.1,0.1,0.3,0.1,0.4,0.2c0.1,0,0.3,0,0.4,0.1c0.1,0,0.2,0,0.3,0c0.1,0,0.2,0,0.2,0
			c0.1,0.1,0.2,0.1,0.3,0.1c0.2,0,0.4,0.1,0.5,0.1c0.1,0,0.2,0,0.3,0c0.1,0,0.1,0,0.1,0c0.2,0.1,0.4,0.3,0.6,0.5
			c0.2,0.2,0.4,0.3,0.6,0.4c0.3,0.1,0.6,0.3,0.8,0.5c0.2,0.1,0.3,0.4,0.3,0.6c0,0.1,0,0.1,0,0.2c0,0.1,0,0.2,0,0.2
			c0,0.3-0.1,0.6,0,0.8c0,0.2,0,0.4-0.1,0.6c0,0,0,0,0,0c-0.1,0.3-0.2,0.7-0.2,1c0,0.2-0.1,0.4-0.1,0.7c-0.1,0.5-0.2,1.1-0.2,1.6
			c0,0.3-0.1,0.6-0.1,0.8c0,0,0,0,0,0.1c0,0.5-0.1,1-0.2,1.5c-0.1,0.5-0.1,1-0.2,1.4c0,0.1-0.1,0.2-0.1,0.3c0,0.4-0.1,0.7-0.1,1.1
			c0,0.1,0,0.3-0.1,0.4c0,0.1,0,0.2,0,0.3c0,0.1,0,0.2-0.1,0.3c0,0,0,0.1,0,0.1c-0.1,0.3-0.2,0.6-0.2,0.9c0,0.2,0,0.3-0.1,0.5
			c-0.1,0.2-0.1,0.3-0.1,0.5c0,0.1,0,0.2,0,0.3c-0.1,0.3-0.1,0.6-0.1,1c0,0.4,0,0.8-0.2,1.1c0,0,0,0,0-0.1c0,0,0,0,0,0
			c0,0.2,0,0.3,0,0.5c0,0.3,0,0.6,0,0.9c0,0,0,0.1,0,0.1c-0.2,0.1-0.1,0.2-0.1,0.3c0,0.2,0,0.4,0,0.6c0,0.1,0,0.2,0,0.3
			c0-0.2,0.1-0.3,0.1-0.5c0.1,0.1,0.1,0.2,0,0.3c0,0.1,0,0.2,0,0.2c0,0.2,0,0.3,0,0.5c0,0,0,0.1,0,0.1c0,0.1,0,0.1,0,0.2
			c0,0.3,0,0.6,0.1,0.9c0,0.3,0,0.6,0.1,0.9c0,0.2,0,0.3,0,0.5c0,0.2,0,0.3,0,0.5c0,0,0,0,0.1,0c0,0,0.1,0,0.1,0c0,0.2,0,0.3,0,0.5
			c0,0.1,0,0.1,0.1,0.1c0,0,0,0,0,0.1c-0.1,0.1-0.1,0.3,0,0.4c0.1,0.1,0.1,0.3,0.1,0.4c0,0.1,0,0.1,0,0.2c0,0.3,0.1,0.6,0.1,1
			c0,0.1,0,0.1,0.1,0.2c0.1,0,0.1-0.1,0.1-0.1c0.6-1.1,1.2-2.2,1.8-3.3c0.3-0.6,0.6-1.3,1-1.8c0.1-0.2,0.2-0.3,0.3-0.5
			c0.1-0.3,0.3-0.5,0.4-0.8c0.1-0.3,0.3-0.6,0.4-0.9c0.2-0.3,0.3-0.7,0.5-1c0.1-0.1,0.1-0.3,0.2-0.4c0.3-0.6,0.6-1.2,0.8-1.9
			c0.3-0.6,0.5-1.2,0.8-1.8c0.1-0.2,0.1-0.3,0.2-0.5c0.1-0.2,0.2-0.3,0.2-0.5c0.1-0.2,0.2-0.4,0.3-0.6c0.1-0.1,0.1-0.3,0.2-0.4
			s0.1-0.3,0.2-0.4c0-0.1,0.1-0.2,0.1-0.3c0-0.5,0.1-0.9,0.1-1.4c0-0.2,0-0.4,0-0.7c0-0.1-0.1-0.2,0-0.3c0-0.2,0-0.3,0.1-0.5
			c0-0.3,0.1-0.7,0.1-1c0-0.3,0.1-0.6,0.1-0.9c0-0.1,0-0.2,0-0.2c0.1-0.6,0.1-1.2,0.2-1.8c0.2-0.9,0.3-1.8,0.5-2.6
			c0.1-0.7,0.4-1.5,0.7-2.2c0-0.1,0.1-0.1,0.1-0.2c0-0.1,0.1-0.3,0.2-0.3c0-0.1,0.2-0.1,0.3-0.1c0,0,0,0,0,0
			c0.1-0.1,0.2-0.2,0.3-0.3c0.1-0.1,0.2-0.2,0.4-0.2c0.2-0.1,0.3-0.2,0.3-0.4c0,0,0-0.1,0-0.1c0.1,0,0.1-0.1,0.2-0.1
			c0.2-0.1,0.3-0.1,0.5-0.1c0.5,0,0.9,0.1,1.4,0.1c0.3,0,0.7,0,1,0.1c0.3,0,0.6,0.1,0.8,0.1c0.3,0.1,0.5,0.2,0.8,0.3c0,0,0,0,0.1,0
			c0.3,0.1,0.6,0.3,0.8,0.5c0.2,0.1,0.4,0.3,0.6,0.4c0.1,0.1,0.2,0.2,0.2,0.4c0,0.3,0.1,0.5,0.3,0.8c0.1,0.1,0.1,0.2,0,0.3
			c-0.1,0.3-0.2,0.7-0.2,1.1c0,0.3-0.1,0.6-0.1,1c0,0.3-0.1,0.5-0.2,0.8c-0.1,0.4-0.2,0.9-0.3,1.3c0,0.1,0,0.2-0.1,0.3
			c0,0.1-0.1,0.3-0.1,0.4c0,0.3-0.1,0.5-0.2,0.8c-0.1,0.2-0.1,0.5-0.1,0.7c-0.1,0.5-0.2,0.9-0.3,1.4c-0.1,0.3-0.1,0.6-0.1,0.9
			c0,0.1-0.1,0.2-0.1,0.4c-0.1,0.1-0.1,0.2,0,0.3c0,0,0,0,0,0c0.1,0.1,0,0.2,0,0.3c-0.1,0.2-0.1,0.4-0.3,0.5c0,0,0,0.1-0.1,0.2
			c0,0.1,0,0.3,0,0.4c0,0,0,0.1,0,0.1c-0.1,0.1-0.1,0.2,0,0.3c0,0.1,0,0.2-0.1,0.2c0-0.1,0-0.1,0-0.1s0-0.1,0-0.1
			c-0.1-0.1,0-0.2,0-0.4c0-0.2,0-0.3,0-0.5c0,0,0-0.1,0-0.1c-0.1,0-0.1,0.1-0.1,0.2c0,0.2,0,0.4,0,0.6c-0.1,0.3,0,0.7,0,1
			c0,0.3,0,0.6-0.1,0.8c0,0.1,0,0.2,0,0.3c0,0,0,0.1,0,0.1c0,0.2,0,0.4,0,0.6c0,0.2,0,0.4,0,0.7c0,0.2,0,0.4,0,0.6
			c0,0.2,0,0.4,0,0.6c0,0.2,0,0.3,0,0.5c0,0.1,0,0.1-0.1,0.1c0,0.1,0,0.1,0,0.2c0.1,0,0-0.1,0.1-0.1c0,0.1,0,0.1,0,0.2
			c0,0.4,0,0.7,0.1,1.1c0,0.2-0.1,0.5,0,0.7c0,0.1,0,0.1,0,0.1s0,0.1,0,0.2c-0.1,0.1-0.1,0.2,0,0.3c0.1,0.1,0.1,0.2,0.1,0.3
			c0,0.1,0.1,0.3,0,0.4c0,0,0,0.1,0,0.1c0.1,0.1,0,0.3,0,0.4c0,0.2,0,0.3,0,0.5c0,0.1,0,0.2,0,0.3c0,0.1,0,0.1-0.1,0.1s0,0.1,0,0.1
			c0.1,0,0.1,0.1,0.1,0.2s-0.1,0.1,0,0.2c0,0,0,0.1,0,0.1c0,0.1,0,0.2,0,0.2c0,0.1,0,0.2-0.1,0.3c-0.1,0,0,0.1,0,0.2
			c0,0.2,0,0.3,0,0.5c0,0.1,0,0.3,0.1,0.4c0,0.1,0,0.1,0,0.2c0,0.2,0,0.5,0.1,0.7c0,0.1,0,0.2,0,0.3c0,0.1,0,0.2,0,0.3
			c0,0,0,0.1,0,0.1c0,0.1-0.1,0.1,0,0.2c0,0,0,0,0,0c-0.2,0.1-0.1,0.2-0.1,0.3c0,0,0,0.1,0,0.1c0.1,0,0-0.1,0-0.1s0-0.1,0.1,0
			c0,0,0,0,0,0c0-0.1,0.1-0.1,0.1-0.2c0-0.1,0-0.1,0-0.2c0.1,0.2,0.1,0.4,0.2,0.6c0,0.1,0.1,0.3,0.1,0.4c0.2-0.1,0.3-0.2,0.4-0.4
			c0.5-0.6,1.1-1.2,1.5-1.9c0.3-0.4,0.6-0.8,0.8-1.1c0.4-0.6,0.8-1.2,1.2-1.8c0.4-0.7,0.8-1.4,1.2-2c0.3-0.4,0.5-0.9,0.8-1.4
			c0.3-0.6,0.7-1.1,1-1.7s0.6-1.2,0.9-1.8c0.2-0.4,0.4-0.8,0.6-1.3c0.2-0.5,0.5-1,0.7-1.5s0.5-1,0.7-1.5c0.2-0.4,0.4-0.8,0.6-1.2
			c0.3-0.6,0.5-1.2,0.8-1.8c0.6-1.3,1.1-2.7,1.6-4c0.1-0.5,0.3-1,0.4-1.5c0.1-0.5,0.1-1,0.2-1.5c0-0.2,0-0.5,0.1-0.7
			c0-0.2,0.1-0.3,0.2-0.5c0-0.1,0.1-0.1,0.1-0.2c0-0.1,0-0.2,0.1-0.2c0,0,0,0,0,0c0,0,0.1,0,0.1-0.1c0.1-0.1,0.2-0.2,0.2-0.4
			c0.1-0.2,0.2-0.4,0.3-0.5c0-0.1,0.1-0.2,0.1-0.3c0-0.1,0.1-0.2,0.2-0.3c0.3-0.1,0.5-0.3,0.7-0.4c0.1,0,0.2-0.1,0.2-0.1
			c0.1,0,0.2-0.1,0.2-0.1c0.2,0,0.4,0,0.5-0.1c0.1-0.1,0.3-0.1,0.4,0c0,0,0.1,0,0.1,0c0.1,0,0.2,0,0.2,0c0.3-0.1,0.5,0.1,0.7,0.3
			c0.1,0.1,0.1,0.2,0.2,0.3c0.1,0,0.1,0.1,0.1,0.2c0,0.2,0.1,0.3,0.2,0.5c0.1,0.2,0.1,0.3,0.1,0.5c0.1,0.2,0,0.5-0.1,0.7
			c0,0.3-0.1,0.7-0.2,1c-0.1,0.2-0.2,0.5-0.3,0.7c-0.1,0.3-0.3,0.6-0.5,0.9c-0.3,0.4-0.5,0.7-0.8,1.1c-0.2,0.2-0.3,0.4-0.5,0.6
			c-0.2,0.3-0.3,0.5-0.4,0.8c-0.1,0.2-0.2,0.3-0.3,0.4c-0.1,0.2-0.2,0.3-0.3,0.5c0,0,0,0-0.1,0.1c-0.1,0.1-0.2,0.2-0.2,0.4
			c0,0.1,0,0.2-0.1,0.2c-0.2,0.1-0.3,0.3-0.4,0.5c-0.1,0.3-0.3,0.6-0.4,0.9c-0.1,0.1-0.1,0.3-0.1,0.4c-0.1,0.2-0.2,0.4-0.3,0.6
			c0,0,0,0,0,0.1s0,0.1,0,0.1c-0.2,0.2-0.2,0.5-0.4,0.7c-0.1,0.1-0.1,0.2-0.1,0.3c0,0.2-0.1,0.5-0.3,0.7c-0.1,0.2-0.2,0.4-0.3,0.5
			c-0.1,0.3-0.3,0.5-0.3,0.8c-0.1,0.2-0.1,0.3-0.2,0.4c0,0.1-0.1,0.2-0.1,0.3c-0.1,0.2-0.2,0.5-0.3,0.7c0,0.1,0,0.1-0.1,0.1
			c-0.1,0-0.1,0.1-0.1,0.2s0,0.1,0.1,0.1c0.1,0,0.1,0.1,0.1,0.1c-0.2,0.3-0.2,0.6-0.4,0.9c-0.1,0.2-0.1,0.3-0.2,0.5
			c-0.1,0.3-0.2,0.6-0.4,0.9c-0.1,0.2-0.2,0.4-0.3,0.6c0,0,0,0.1,0,0.1c0,0.1,0,0.2-0.1,0.2C1011.8-655.5,1011.8-655.4,1011.8-655.4
			z M985-651.5c-0.1,0.1-0.1,0.2-0.1,0.3s0,0.2,0,0.3c-0.1,0.1-0.1,0.2-0.1,0.3c0,0.1,0,0.2,0,0.3c0,0.1-0.1,0.2,0,0.3
			c0,0,0,0,0,0.1c0,0.1-0.1,0.3-0.1,0.4c0,0.2,0,0.4,0.1,0.6c0.1,0.3,0,0.5,0.1,0.8c0,0.1,0,0.2,0,0.3c0,0.1-0.1,0.3,0,0.4
			c0,0,0,0.1,0,0.1c0,0.1,0,0.1,0,0.2c0.1,0,0.1-0.1,0.1,0c0,0.1,0,0.2,0,0.3c0,0.1,0,0.1,0,0.2c0,0.1,0.1,0.2,0,0.4
			c0,0.1,0,0.2,0,0.2c0,0,0-0.1,0.1,0c0,0,0,0.1,0,0.1c0,0.1,0,0.2,0,0.2c0,0.1,0,0.2,0,0.3c-0.2-0.5-0.2-0.9-0.3-1.4
			c-0.1,0.1-0.1,0.3-0.1,0.4c0,0.3,0.1,0.6,0.1,0.9c0.1,0.4,0.2,0.9,0.2,1.3c0,0.1,0,0.2,0.1,0.2c0.1-0.1,0.2-0.2,0.1-0.3
			c-0.1-0.3-0.1-0.6-0.2-0.9c0-0.1,0-0.2,0.1-0.2c0,0.1,0,0.1,0,0.1c0,0.2,0.1,0.3,0.1,0.5c0,0.1,0,0.2,0.1,0.3l0.4-0.7
			c0-0.1,0-0.1,0-0.2c0-0.3-0.1-0.6-0.2-1c0-0.4-0.1-0.7-0.1-1.1c-0.1-0.4-0.2-0.8-0.2-1.3c-0.1-0.7-0.2-1.4-0.3-2.1
			C985.1-651,985-651.3,985-651.5L985-651.5z M1001-648.7c0.1-0.2,0.1-0.3,0.1-0.5c0-0.3-0.1-0.5-0.1-0.8c0-0.1,0-0.2-0.1-0.2
			c-0.1,0-0.1-0.1,0-0.2c0,0,0-0.1,0-0.1s-0.1,0-0.1,0.1s0,0.1,0,0.1c0,0.2,0.1,0.4,0,0.6c0,0,0,0,0,0c0,0.2,0.1,0.3,0.1,0.5
			C1000.9-649.1,1000.9-648.9,1001-648.7L1001-648.7z M1000.7-651.8c-0.1,0.1-0.1,0.2-0.1,0.3c0,0.1,0,0.3,0.1,0.4c0,0,0,0.1,0.1,0
			c0,0,0,0,0-0.1c0-0.1,0-0.1,0-0.2C1000.8-651.4,1000.8-651.6,1000.7-651.8L1000.7-651.8z M985.2-650.7c0,0.4,0,0.8,0.1,1.2
			c0-0.2,0-0.4,0-0.6c0-0.1,0-0.1,0-0.2C985.3-650.5,985.3-650.6,985.2-650.7L985.2-650.7z M995.5-641.3c0.1,0.1,0,0.2,0.1,0.2
			s0.1,0.2,0.2,0.2C995.7-641,995.6-641.2,995.5-641.3L995.5-641.3z"/>
		<path id="Path_31" class="st0" d="M1001.5-656.7c0-0.1,0-0.2,0-0.2c0-0.2,0.1-0.3-0.1-0.5c0,0,0-0.1,0-0.1c0-0.1,0-0.2,0-0.2
			c0,0,0-0.1-0.1-0.1c-0.2,0-0.1-0.1-0.1-0.2c0-0.2,0-0.3,0-0.5c0-0.1,0-0.1,0-0.1c0.2-0.2,0.2-0.4,0.1-0.7c0,0,0,0,0,0
			c0-0.2,0.1-0.4,0.1-0.6c0-0.1,0-0.1,0-0.2c0-0.1,0-0.2,0.1-0.2c0,0,0.1,0,0.1-0.1c0.1,0.2,0,0.4-0.1,0.5c0,0,0,0,0,0.1
			c0.1,0.1,0,0.2,0,0.2c0,0,0,0.1,0,0.2c0,0,0,0,0,0c0.1-0.1,0.1,0,0.1,0c0,0.1,0,0.2-0.1,0.2c0,0,0,0,0,0c0,0.1,0.1,0.1,0,0.1
			c0,0-0.1,0.1-0.1,0.1c0,0.2,0,0.4,0,0.5c0.1,0.1,0,0.3,0,0.4c0,0.2-0.1,0.5,0,0.7C1001.5-657,1001.5-656.8,1001.5-656.7z"/>
		<path id="Path_32" class="st0" d="M1011.8-655.4l0.1-0.2c0,0,0.1,0,0.1,0c0,0.1,0,0.3-0.1,0.4c-0.1,0.3-0.2,0.6-0.4,0.8
			c-0.1,0.1-0.1,0.1-0.3,0c0.1,0,0.2,0,0.2-0.1c0.1-0.2,0.2-0.4,0.3-0.7C1011.7-655.1,1011.7-655.3,1011.8-655.4z"/>
		<path id="Path_33" class="st0" d="M1013.8-660c0,0.1-0.1,0.2-0.1,0.3c-0.1,0.1-0.1,0.2-0.1,0.3c0,0,0,0.1,0,0.1c0,0,0,0-0.1,0
			s0,0,0-0.1c0.1-0.2,0.2-0.3,0.2-0.5C1013.7-659.9,1013.8-659.9,1013.8-660z"/>
		<path id="Path_34" class="st0" d="M1014.1-660.8c0,0.1,0,0.1,0,0.2c-0.1,0.1-0.1,0.3-0.2,0.4c0,0,0,0-0.1,0c0,0,0,0,0,0
			c0,0,0,0,0,0c0,0,0,0,0,0C1013.9-660.4,1014-660.7,1014.1-660.8z"/>
		<path id="Path_35" class="st0" d="M1001.4-654.6c0,0.3,0,0.5,0,0.8c-0.1,0-0.1,0-0.1-0.1C1001.3-654.1,1001.3-654.4,1001.4-654.6z
			"/>
		<path id="Path_36" class="st0" d="M1001.7-649.7c0.1,0.2,0,0.4-0.1,0.6C1001.6-649.3,1001.6-649.5,1001.7-649.7z"/>
		<path id="Path_37" class="st0" d="M1013.3-659.3c0.1,0.2,0,0.3-0.2,0.3C1013.2-659,1013.3-659.1,1013.3-659.3z"/>
		<path id="Path_38" class="st0" d="M993.5-649.5c0-0.2-0.1-0.3,0-0.5C993.6-649.8,993.6-649.7,993.5-649.5z"/>
		<path id="Path_39" class="st0" d="M994-645.4c-0.1-0.2,0-0.3-0.1-0.5c0.1,0,0.1,0.1,0.1,0.1c0,0.1,0,0.1,0,0.2
			C994.1-645.5,994.1-645.5,994-645.4z"/>
		<path id="Path_40" class="st0" d="M1001.4-647.1c0,0.2,0,0.4-0.1,0.5C1001.3-646.7,1001.3-646.9,1001.4-647.1z"/>
	</g>
	<path id="Path_41" class="st0" d="M983.2-664.6"/>
	<path id="Path_42" class="st0" d="M983.2-664.6"/>
	<g id="Group_5" transform="translate(0)">
		<path id="Path_43" class="st0" d="M1032.8-644.8c0-0.2-0.4,0-0.5,0C1032.5-644.6,1032.9-644.9,1032.8-644.8z"/>
		<path id="Path_44" class="st0" d="M1034-642.1l-0.2-0.1l0.2,0.3l0.2,0.3C1034.1-641.8,1034.1-641.9,1034-642.1z"/>
		<path id="Path_45" class="st0" d="M1033.3-639.1c0.4,0,0.5-0.3,0.5-0.6c-0.1-0.3,0-0.6,0.1-0.9l0.2-0.1c-0.2-0.1-0.3-0.2-0.5-0.4
			C1033.5-640.5,1033.6-639.5,1033.3-639.1z"/>
		<path id="Path_46" class="st0" d="M1031.2-638.2c0.2,0,0.2,0.1,0.2,0.1c0-0.1,0-0.3,0.1-0.4c0,0-0.1,0-0.1,0
			C1031.3-638.4,1031.3-638.3,1031.2-638.2z"/>
		<path id="Path_47" class="st0" d="M1031.3-638.4C1031.4-638.7,1031.1-638.3,1031.3-638.4z"/>
		<path id="Path_48" class="st0" d="M1030.9-637l0-0.5c-0.2,0-0.4,0.3-0.4,0.2C1030.3-636.9,1030.5-636.9,1030.9-637z"/>
		<path id="Path_49" class="st0" d="M1031.2-636.4c0-0.1,0-0.2,0-0.3C1031.1-636.7,1031-636.6,1031.2-636.4z"/>
		<path id="Path_50" class="st0" d="M1031.2-637.2l0,0.5c0.1,0,0.4,0.1,0-0.2C1031.4-636.8,1031.2-636.9,1031.2-637.2z"/>
		<path id="Path_51" class="st0" d="M1031.4-637.4c0.2-0.2,0.5-0.4,0.5,0.1C1032.2-638.1,1031.6-638.2,1031.4-637.4z"/>
		<path id="Path_52" class="st0" d="M1034-638.7c0.1-0.1,0.2-0.2,0.3-0.3l-0.1-0.4C1034.2-639.1,1033.7-638.8,1034-638.7z"/>
		<path id="Path_53" class="st0" d="M1029.2-634.7c0.1,0.1,0.4,0.1,0.6,0.1v-0.4C1029.7-634.9,1029.5-634.6,1029.2-634.7z"/>
		<path id="Path_54" class="st0" d="M1029.9-634.6l0,0.6C1030.1-634.4,1030-634.5,1029.9-634.6z"/>
		<path id="Path_55" class="st0" d="M1031.9-636c0-0.3-0.1-0.7-0.1-1c0,0.4,0.1,0.7,0.1,1.1L1031.9-636z"/>
		<path id="Path_56" class="st0" d="M1028.3-633.1l-0.2-0.4l0.2,0.7L1028.3-633.1z"/>
		<path id="Path_57" class="st0" d="M1027.7-632.1c-0.1-0.3-0.6-0.1-0.6-0.3c-0.1,0.3-0.1,0.6,0,0.9
			C1027.2-631.8,1027.4-632,1027.7-632.1z"/>
		<path id="Path_58" class="st0" d="M1027.2-631c0-0.2,0-0.3,0-0.5C1027.1-631.4,1027.1-631.2,1027.2-631z"/>
		<path id="Path_59" class="st0" d="M1029.4-633.3c-0.2-0.1-0.4,0-0.6,0.1l0.5,0.1L1029.4-633.3z"/>
		<path id="Path_60" class="st0" d="M1029.3-633.1L1029.3-633.1c-0.1,0.2-0.2,0.3-0.2,0.3L1029.3-633.1z"/>
		<path id="Path_61" class="st0" d="M1029.4-633.3L1029.4-633.3C1029.4-633.3,1029.4-633.3,1029.4-633.3z"/>
		<path id="Path_62" class="st0" d="M1030.9-635c0.1,0.4,0,1.1,0.6,0.7C1031.4-634.6,1031-634.4,1030.9-635z"/>
		<path id="Path_63" class="st0" d="M1030-633.3l0.4-0.4c-0.1,0-0.3,0-0.3-0.2L1030-633.3z"/>
		<path id="Path_64" class="st0" d="M1030-633l0-0.3l-0.1,0.2L1030-633z"/>
		<path id="Path_65" class="st0" d="M1028-631.4c0,0.2-0.1,0.5-0.2,0.7c0.2-0.1,0.4-0.3,0.6-0.6
			C1028.3-631.4,1028.1-631.6,1028-631.4z"/>
		<path id="Path_66" class="st0" d="M1028.7-632.2C1028.7-632.2,1028.6-632.1,1028.7-632.2C1028.7-632.1,1028.7-632.1,1028.7-632.2z
			"/>
		<path id="Path_67" class="st0" d="M1026-628.9L1026-628.9L1026-628.9L1026-628.9z"/>
		<path id="Path_68" class="st0" d="M1028.5-631.3c0.2-0.1,0.2-0.3,0.1-0.5C1028.5-631.6,1028.5-631.4,1028.5-631.3
			C1028.4-631.2,1028.4-631.2,1028.5-631.3z"/>
		<path id="Path_69" class="st0" d="M1026.9-630.4c0.1,0,0.3-0.1,0.4-0.1C1027.2-630.5,1026.9-630.5,1026.9-630.4z"/>
		<path id="Path_70" class="st0" d="M1028.5-632.1C1028.5-632.1,1028.5-632.1,1028.5-632.1C1028.4-632.2,1028.4-632.1,1028.5-632.1z
			"/>
		<path id="Path_71" class="st0" d="M1028.5-632.1c0,0.1,0,0.3,0.1,0.4c0-0.1,0.1-0.2,0.1-0.4
			C1028.6-632.1,1028.6-632.1,1028.5-632.1z"/>
		<path id="Path_72" class="st0" d="M1027.3-626.2c-0.2-0.4-0.1-0.8,0.3-1c0.1-0.1,0.2-0.1,0.3-0.1c0.2-0.6-1-1.3-1.8-1.5
			c0.1,0.1,0.2,0.3,0,0.8c0.3,0,1.2-0.4,1.1,0.1c-0.4,0.6-0.5,0.3-0.9,0.4c0.6,0.2-0.2,1.2,0.4,1.6l0.3-0.6
			C1027.1-626.4,1027.1-626.2,1027.3-626.2z"/>
		<path id="Path_73" class="st0" d="M1026.8-629.5l0.1-0.2c-0.3,0.1-0.6,0.2-0.9,0.1c-0.1,0.4-0.1,0.5,0,0.7
			C1026.3-629.1,1026.6-629.3,1026.8-629.5L1026.8-629.5z"/>
		<path id="Path_74" class="st0" d="M1027.5-630.3c0.2,0.4,0,0.9,0.6,1c0.4-0.5,0-0.6,0.1-1c-0.3,0.4-0.3,0.3-0.3,0.2
			C1027.9-630.2,1027.9-630.4,1027.5-630.3c0.1-0.1,0.2-0.3,0.3-0.4c-0.1,0.1-0.3,0.2-0.4,0.2h0l0,0v0c0.1,0,0.1,0,0,0c0,0,0,0,0,0
			C1027.4-630.4,1027.5-630.3,1027.5-630.3c-0.3,0.1-0.1,0-0.1-0.1c0,0,0,0,0-0.1h0c-0.1,0.3-0.3,0.6-0.4,0.8
			C1027.2-629.8,1027.4-630,1027.5-630.3z"/>
		<path id="Path_75" class="st0" d="M1032.1-633.3c0,0-0.1,0-0.1,0C1032-633.2,1032-633.2,1032.1-633.3z"/>
		<path id="Path_76" class="st0" d="M1031.6-633.1c0-0.1-0.1-0.2,0-0.4c0.2-0.1,0.2,0.1,0.3,0.2c0-0.2,0-0.6-0.4-0.3l0,0.1
			c-0.3,0.3-1.1,0.5-1.1,0.4C1030.8-633,1031.2-633,1031.6-633.1z"/>
		<path id="Path_77" class="st0" d="M1029.7-631.4c-0.1,0.3-0.2,0.5-0.3,0.8c0.2,0,0.4-0.1,0.6-0.1l-0.2-0.1
			C1030.1-631.2,1029.8-631.2,1029.7-631.4z"/>
		<path id="Path_78" class="st0" d="M1025.8-628.9l-0.2-0.4c0,0.3,0.1,0.5,0.1,0.8L1025.8-628.9z"/>
		<path id="Path_79" class="st0" d="M1025-628.1l-0.2-0.3l-0.1,0.4L1025-628.1z"/>
		<path id="Path_80" class="st0" d="M979.5-649.7l-0.1-0.3C979.4-649.9,979.5-649.8,979.5-649.7z"/>
		<path id="Path_81" class="st0" d="M979.3-647.6l0.2,0.1C979.4-647.7,979.4-647.7,979.3-647.6z"/>
		<path id="Path_82" class="st0" d="M1001.2-622.9c-0.2-0.5-0.3-1.2-0.5-0.7l-0.1,0.5C1000.9-623.2,1001.1-623.1,1001.2-622.9z"/>
		<path id="Path_83" class="st0" d="M985.7-632.6l-0.1,0.2l0.5,0C986-632.5,985.8-632.6,985.7-632.6z"/>
		<path id="Path_84" class="st0" d="M983.9-632.1l0-0.6C983.9-632.5,983.9-632.3,983.9-632.1z"/>
		<path id="Path_85" class="st0" d="M982.5-660.7l-0.2-0.5C982-660.7,982.3-660.8,982.5-660.7z"/>
		<path id="Path_86" class="st0" d="M1016-622.8c-0.3-0.1-0.5-0.1-0.8-0.1C1015.7-622.7,1016-622.4,1016-622.8z"/>
		<path id="Path_87" class="st0" d="M984.1-648.6c-0.1-0.2-0.2-0.2-0.3-0.2C983.9-648.6,984-648.5,984.1-648.6z"/>
		<path id="Path_88" class="st0" d="M1014.4-622.7c0.1,0,0.1,0.1,0.2,0.1c0.2-0.1,0.4-0.2,0.7-0.2
			C1015-623.1,1014.6-623,1014.4-622.7C1014.4-622.7,1014.4-622.7,1014.4-622.7z"/>
		<path id="Path_89" class="st0" d="M1017.8-674.3C1017.8-674.3,1017.8-674.3,1017.8-674.3C1017.9-674.3,1017.8-674.3,1017.8-674.3z
			"/>
		<path id="Path_90" class="st0" d="M1024.8-664.7c-0.1-0.1-0.2-0.2-0.3-0.3C1024.5-665,1024.6-664.9,1024.8-664.7z"/>
		<path id="Path_91" class="st0" d="M1021.6-625.5C1021.7-625.6,1021.6-625.6,1021.6-625.5z"/>
		<path id="Path_92" class="st0" d="M1023.5-624.7c0,0.1,0,0.2,0.1,0.2C1023.5-624.6,1023.5-624.7,1023.5-624.7z"/>
		<path id="Path_93" class="st0" d="M1012.5-619.6L1012.5-619.6C1012.5-619.5,1012.5-619.5,1012.5-619.6z"/>
		<path id="Path_94" class="st0" d="M1021.9-625.5c-0.1,0-0.2,0-0.3,0.1C1021.7-625.5,1021.8-625.5,1021.9-625.5z"/>
		<path id="Path_95" class="st0" d="M1021.8-625.7c0.1,0,0.1-0.1,0.2-0.1C1021.9-625.8,1021.9-625.8,1021.8-625.7z"/>
		<path id="Path_96" class="st0" d="M1021.3-625.3c0.1-0.1,0.2-0.1,0.3-0.2c-0.1,0-0.1,0-0.1,0
			C1021.5-625.5,1021.5-625.4,1021.3-625.3z"/>
		<path id="Path_97" class="st0" d="M997-672.1C997.1-672.1,997.1-672.1,997-672.1C997.3-672.3,997.2-672.3,997-672.1z"/>
		<path id="Path_98" class="st0" d="M993.5-621.5C993.5-621.5,993.5-621.5,993.5-621.5L993.5-621.5L993.5-621.5z"/>
		<path id="Path_99" class="st0" d="M992.5-621.7c0.6-0.3,0.8-0.1,1,0.2c0.1-0.4,0.3-0.8,0.4-1.3C993.4-622.4,993-622.1,992.5-621.7
			z"/>
		<path id="Path_100" class="st0" d="M980.3-654.6l-0.6,0.6c-0.1-0.3-0.2-0.7-0.3-1.1c0-0.2-0.1-0.2-0.5,0c0.7,0.2,0.5,0.9,0.4,1.6
			c0,0.2-0.1,0.3-0.1,0.5c0,0.2,0,0.3,0,0.5c0,0.3,0.3,0.5,0.5,0.6l-0.4,0.4c0-0.1,0-0.2,0-0.3c-0.8,0.8,0.9,0.8,0.5,1.9
			c-0.1,0.4-0.4,0.6-0.5,0.3c0.1,0.3,0.2,0.6,0.3,0.9c0,0.2-0.3,0.2-0.2-0.1l0.1,1.3l0,0c0.2,0.3,0.5,0.5,0.7,0.8
			c-0.2,0.3-0.2-0.2-0.3-0.1l0.4,0.7c-0.3,0.3-0.7-0.3-0.7-0.8c-0.7,0.4-0.6,0.5-0.4,0.8c0.1,0.1,0.2,0.3,0.2,0.5
			c0,0.3,0,0.6-0.2,0.9c-0.1-0.2-0.1-0.5-0.2-0.7c-0.2,0.1-0.3,0.2-0.4,0.4c-0.1,0.1-0.1,0.3-0.2,0.4c0,0.4-0.1,0.8-0.3,1.1
			c0.1-0.1,0.4-0.6,0.7-0.9s0.6-0.5,0.8-0.1c-0.1,0.3,0,0.7,0.2,0.9c-0.2,0-0.3,0.2-0.3,0.3c0,0.1,0,0.2,0,0.3l0.1,0.4l-0.7,0.1
			c0.3,0.5,0.6,0.4,1,0.7c0.1,0.6-0.4,0.9-0.8,1.1c0.1,0.5,0.2,0.3,0.4,0.1s0.4-0.4,0.6,0.2c0,0.9,0.4,1.4,1.1,2.2
			c0,0.6-0.4,0-0.5,0.3l0.7,0.3c0,0.1-0.1,0.1-0.2,0.1c0.3,0.3,0.6-0.2,1,0.4c0.4,0,0.2,0.4,0.2,0.8s-0.1,1,0.4,1.2
			c-0.1,0.3-0.4,0.1-0.6,0.2c0.5,0.5,1.1,1,1.8,1.3l-0.1,0.9c0.2-0.7,1-0.3,1.7,0.1c0.1-0.2,0.2-0.4,0.3-0.7
			c0.2,0.2,0.5,0.5,0.7,0.7c0,0.2-0.3,0.2-0.6,0.1c0.1,0,0.1,0.1,0.2,0.1c-0.1,0.4-0.5,0.4-0.9,0.4c0.1-0.2,0.1-0.3,0.2-0.5
			c-0.4-0.1-0.9-0.1-1.3,0.1c0.1,0,0.2,0.1,0.3,0.2c-0.1,0-0.2,0-0.3,0s0.1,0.1,0.4,0.2l-0.6,0.5l0.3-0.1c0.1,0.5,0.1,1,0.2,1.5
			c0.6,0.3,1.2,0.5,1.8,0.7c0.3,0.1,0.6,0.2,0.9,0.4c0.3,0.2,0.6,0.4,0.9,0.6c-0.7,0.1-0.7,0.5-1.2,0.9c0.1-0.4-0.1-0.6-0.4-0.8
			c-0.2-0.1-0.3-0.2-0.5-0.3c-0.2-0.1-0.3-0.3-0.4-0.5c0.2,0.4-0.1,0.5-0.3,0.5c0.4,0.3,0.9,0.6,1.4,0.9c-0.4,0.3-0.1,0.5,0,0.9
			c0.3-0.4,0.6-0.3,0.9-0.1c0.3,0.3,0.6,0.5,1,0.7c-0.2,0.3-0.6,0.4-1-0.2c0,0.6,0.4,0.6,0.8,0.5s0.8-0.1,0.9,0.4
			c-0.1-0.1-0.2-0.2-0.3-0.1c0.1,0,0.3,0.1,0.4,0.2c0.1,0.1,0.2,0.2,0.3,0.3c0.2,0.2,0.2,0.5,0,0.5l-0.1-0.1
			c0.1,0.1,0.2,0.2,0.3,0.3s0.3,0.2,0.4,0.4c0.3,0.2,0.6,0.5,1,0.6c0.3,0.2,0.6,0.3,1,0.3c0.2,0.1,0.5,0,0.7-0.2
			c-0.3,0.3-0.5,0.6-0.9,0.9c1.1-0.4,2.2-0.9,3.2-1.5c-0.3,0.4-0.5,0.9-0.7,1.4c-0.3,0.5-0.6,1-1.1,0.9c0.2,0.3,0.6,0.6,1.1,0.6
			c-0.1-0.2,0.1-1.2,0.4-1.1c0,0.3,0.1,0.6,0.2,0.8c0.1,0.3,0.3,0.5,0.4,0.8c-0.2-0.3,0.6-1.2,1-1c-0.1,0.1-0.5,1.1-0.7,1.1
			c0.5-0.2,1-0.4,1.5-0.6c-0.3,0.1-0.5,0.9-0.4,1.3c0-0.2,0.9,0.4,1.2,0.4l-0.3-0.4c0.5,0.3,1,0.1,1.4-0.2s0.9-0.6,1.4-0.3
			c-0.2,0.2-0.9,1.2-0.3,1.6c0.2-0.2,0.8-0.8,1.4-1.3c0.5-0.5,1.1-0.9,1.8-1.1l0.1,0.4c0.3-0.1,0.5-0.1,0.8-0.2
			c-0.5,0.6-1,1.1-1.6,1.5c-0.6,0.5-1.2,0.9-1.9,1.2c0.4,0.4,0,0.4,0.7,0.6c0.2,0.4-0.5,0.3-0.7,0.3c0.5,0.2,1.1,0.5,1.6,0.7
			c0-0.3,0.4-0.4,0.8-0.5s0.7-0.2,0.7-0.5c-0.7,0.1-1.3,0.2-2,0.3c0.2-0.5,0.5-0.8,1-1c0.5-0.3,1.1-0.4,1.6-0.3
			c0.1,0.2,0,0.5-0.1,0.7c-0.1,0.2-0.2,0.4-0.3,0.7c0.2-0.1,0.5-0.2,0.7-0.2c0.3,0,0.6,0,0.6,0.1c-0.2,0.1-0.4,0.2-0.6,0.3
			c0.3,0.2,0.7,0,1-0.2c0.3-0.2,0.7-0.2,1,0c0.3,0,0.9,0.9,0.9,0.5c-0.5-1.2-0.6-2.5-0.4-3.8l0.7,0.4c0.3,0.2,0.6,0.4,0.9,0.6
			c0.2,0.3,0.1,0.7,0,1s-0.3,0.7-0.1,1c0-0.2,0.1-0.4,0.3-0.5c0.3,0.1-0.1,0.6,0.5,0.4c0-0.7,1.2-0.1,0.2-0.6
			c0.5-0.3,0.6,0.1,1.3-0.1c-0.3-0.4,0.4-1.6,0.9-1.9c0,0.2,0.1,0.4,0.2,0.5c1.1-0.1,1.8,0.1,2.9-0.1c0.1,0.1,0.7,0.2,0.5,0.6
			c0.1-0.2,0.2-0.4,0.6-0.5c0.8,0.5-0.7,0.3-0.1,0.9c0-0.4,0.8-0.7,1.2-1.1c-0.3-0.6-1.1,0.1-1.5,0.5c0-1,0.5-2,1.4-2.6
			c0.8-0.4,0.5,0.4,0.6,0.3c0.6-0.1,1-0.5,1.2-1c0.1-0.2,0.2-0.4,0.3-0.5c0.2-0.2,0.4-0.2,0.7-0.2c0.3,0.1,0.5,0.3,0.5,0.6
			c0,0.2,0.1,0.5,0.2,0.7c-0.2,0.2-0.5,0.3-0.8,0.3c-0.2,0-0.5,0-0.7,0c0.2,0,0.4,0,0.6,0c-0.1,0.1-0.2,0.3-0.4,0.4
			c-0.1,0.1-0.3,0.1-0.5,0.1c0.3,0.2,1-0.1,1.7-0.4c0.7-0.4,1.5-0.7,2.2-1c0.1-0.3,0.3-0.7,0-0.7c-0.1,0.1-0.2,0.2-0.3,0.3
			c-0.3-0.1-0.2-0.3-0.1-0.5s0.1-0.4-0.1-0.3c0.3-0.6,0.4-1.3,1.1-1.6l0.5,0.4c-0.1-0.1-0.6,0-0.7,0.3c0-0.2,0.4-0.2,0.7-0.3
			s0.6-0.2,0.5-0.6c-0.2,0-0.5,0-0.7,0c0.2-0.6,0.2-1.5,0.9-1.8c-0.6-0.3-0.1,0.2-0.9-0.1c0.5,0.2,0.1,0.5-0.2,0.7
			c-0.3,0.3-0.6,0.5,0,0.6c-0.3-0.1-0.6-0.1-0.9,0c-0.3,0.1-0.6,0.2-0.9,0.1c0.1,0.2,0.4,0.2-0.1,0.4c0,0.1,0,0.1,0,0.2c0,0,0,0,0,0
			c0,0,0,0,0,0c0,0,0,0,0,0c0.1,0,0.3,0,0.4,0.1c0.1,0.5-0.6,1-0.7,1.4c-0.3,0.1,0-0.3-0.3-0.4c0,0.2-0.1,0.4-0.2,0.5
			c-0.1-0.2-0.4-0.3-0.6-0.4s-0.2-0.2,0-0.5l-0.5,0.3c-0.2,0-0.4,0-0.6,0c-0.2,0-0.4,0.1-0.5,0.3c-0.3,0-0.5,0.7-0.4,0.3
			c-0.3,0.2-0.5,0.4-0.8,0.6l0-0.1c-0.5,0.2-1,0.4-1.4,0.7c-0.6,0.3-1.2,0.3-1.8,0c-0.4,0.3-0.8,0.4-1.3,0.4l-0.2-0.4
			c-0.4,0.2-1.5-0.2-1.6,0.3c-0.3-0.5-0.9-0.5-1.5-0.3c-0.5,0.2-1,0.3-1.5,0.3l0,0.5c-0.6,0.1-1.1,0.2-1.6,0.4l0,0.5
			c-0.3,0.2-0.7,0.1-1-0.1c-0.4-0.2-0.8-0.3-1.2-0.4c0.1-0.2,0.3-0.1,0.4,0c-0.4-0.6-0.9-0.5-1.5-0.4s-1.2,0.2-1.5-0.4
			c-0.2,0.1-0.5,0-0.6-0.2c0,0,0,0,0.1,0c0,0-0.1,0-0.1,0c-0.1-0.1-0.1-0.2-0.2-0.4c0,0.1,0.1,0.2,0.2,0.3c-0.3-0.1-0.5-0.1-0.8-0.1
			l0.1-0.5c0,0,0,0-0.1,0c-0.2-0.3-0.3,0.1-0.3,0.5c-0.2,0-0.3,0.1-0.5,0.1c0.1-0.8-0.8-0.1-0.8-1c-0.4,0.3-1.5-0.3-2,0.4
			c0-0.1,0-0.2,0.1-0.1c-0.3-0.2-0.5-0.5-0.9-0.4l0.2-0.6c-0.3,0.1-0.7,0.3-1,0.4c-0.2-0.6-0.2-0.8,0.4-1c-0.2,0-0.5,0-0.7,0
			c-0.1,0-0.2,0-0.4-0.1c-0.3-0.1-0.6-0.1-1,0l0.3-0.3c-0.3-0.2-1,0-1-0.4c-0.1-0.3-0.2-0.6-0.5-0.8c-0.3-0.3-0.6-0.6-1-0.9
			c-0.8-0.6-1.4-1.4-1.7-2.4c-0.4,0.5-0.4,0.3-0.4,0s0-0.7-0.4-0.4c0.2-0.2,0.2-0.5,0.5-0.5c-0.1-0.1-0.2-0.1-0.2-0.2
			c-0.1-0.1-0.1-0.1-0.1-0.2c-0.1-0.1-0.1-0.3-0.2-0.4c-0.1-0.3-0.4-0.5-0.7-0.5c0.2-0.2,0.5,0,0.6-0.2c-0.1,0-0.3-0.1-0.2-0.3
			s0.3,0,0.4,0.1c-0.4-0.7-1.3-0.4-2-0.1c0.1-0.6,0-0.8-0.6-0.9c0.2-0.3,0.3-0.6,0.6-0.1c-0.1-0.3-0.5-2.1-1.1-1.8
			c0.1-0.2-0.1-0.5-0.2-0.5c-0.1-0.5-0.3-1-0.6-1.5l0,0.2c-0.8,0-0.4-0.5-0.7-1l0.1,0c0-0.7-0.1-0.9-0.2-1s-0.2-0.2-0.1-1l-0.5,0.2
			c-0.5,0.1-0.5-0.2-0.3-0.7s0.3-1,0-1.3c-0.1,0.1-0.1,0.2-0.2,0.3c-0.2-0.2,0.1-0.5,0.4-0.9s0.8-0.7,0.8-0.9
			c0.1-0.1,0.2,0.1,0.3,0.2c0.2-0.6,0.1-0.6-0.2-0.5s-0.6,0.1-0.7-0.2c0.3-0.2,0.9,0,0.9-0.5c0.1-0.1-0.2-0.5-0.5-0.9
			c-0.3-0.4-0.5-0.9-0.1-1.3c-0.3,0.2-0.5,0.3-0.7,0c-0.1-0.3,0.2-0.7,0.4-1s0.2-0.7-0.2-1c0.1-0.1,0.1-0.1,0.2-0.1
			c-0.2-0.4-0.2-1.4-0.6-1.8c0.9-0.1,0.8-0.8,0.7-1.4c-0.1-0.7-0.1-1.3,0.6-1.1c0-0.2,0.1-0.4,0.1-0.7l0.2-0.6l0.1,0.1
			c0.2-0.3,0.2-0.6,0.2-0.9c0-0.2-0.1-0.5-0.3-0.7c0.2-0.1,0.3,0,0.3,0.1c0.2-0.2,0.3-0.4,0.4-0.6c0.1-0.2,0.2-0.3,0.2-0.5
			c0.1-0.4,0-0.9-0.1-1.3l0.5,0.1c0-0.1,0-0.2,0.2-0.4s0.4-0.3,0.6-0.5c0.2-0.2,0.4-0.4,0.6-0.7c0.2-0.3,0.3-0.6,0.4-0.9
			c0.1,0.1,0.1,0.2,0.1,0.2c0.1-0.8,0.9-1.2,1.5-1.6c0.1-0.1,0.3-0.2,0.4-0.3c0.1-0.1,0.2-0.2,0.3-0.3c0.1-0.3,0.1-0.7-0.2-1
			c0.1-0.3,0.2-0.7,0.3-1c-0.5,0.4-0.6,0.2-0.7-0.1s-0.1-0.6-0.4-0.5c0.3-0.4,1.3-0.5,0.9,0h-0.1c0.3,0.4,0.6,0.2,0.9,0
			c0.1-0.1,0.3-0.2,0.5-0.3c0.1-0.1,0.3,0,0.4,0.1c0.4-0.4,0.9-0.7,1.4-1c0.5-0.3,1-0.6,1.5-0.8c1-0.5,2.1-0.9,3.1-1.4l-0.6-0.6
			l0.7-0.3c0.3,0.1,0.5,0.4,0,0.6c0.5,0.2,0.7-0.7,0.6-0.9c1.1-0.2,0,1,0.3,0.8l0.4-0.3l-0.1,0c0.2-0.4,0.1-0.8,0.7-1
			c0.5-0.1,0.4,0.3,0.6,0.3c0,0,0.1,0,0.2-0.1c0.3-0.1,0.6-0.2,0.9-0.3c-0.2-0.1-0.4-0.3-0.6-0.4c0.3-0.4,0.8-0.3,0.2-0.8
			c0.5,0.4,1.3,0.1,2,0c0.5-0.2,1.1-0.2,1.7,0c0.6-0.4,1.3-0.4,2-0.2c-0.2-0.1-0.2-0.8,0.4-0.7c-0.4,1.3,1.2,0.7,1.6,1.8
			c-0.4-0.7,1.9,0,1.3-1c0.5,0.2,0,0.5,0.4,0.9c0.7-0.1,1.5-0.1,2.2,0.2c0.7,0.3,1.5,0.5,2.3,0.6c0.1-0.2-0.2-0.5,0.2-0.7
			c0.2,0.3,0.4,0.7,0.6,1c0.3,0,0.5-1,0.9-0.2c0-0.2-0.1-0.4,0.1-0.4c0.6,0.4,1.3,0.7,2,1c0.7,0.3,1.3,0.6,2,0.9
			c1.4,0.7,2.5,2,2.9,3.5c0-0.5,0.2-0.4,0.4-0.1c-0.1-0.2,0.3-0.3,0.5-0.5c0.1,0.5,0.3,1,0.4,1.4c0.7-0.3,1,1.1,1.6,0.8l-0.4-0.3
			c1,0,0.8-1.7,1.6-2.3c-0.5,0-0.6-0.5-0.7-1.1c-0.1-0.6-0.3-1.1-1.2-1.1c0-0.3,0.4-0.1,0.4-0.3c-0.5,0.1-0.8-0.1-1.1-0.7l0.1,0
			c-0.6-0.5-1.1-1-1.6-1.6c-0.6-0.7-1.2-1.2-1.9-1.8l-0.1,0.5c-0.2-0.2-0.4-0.4-0.5-0.7c-0.4,0.2-0.1,0.4,0.2,0.5s0.6,0.4,0.2,0.6
			c0-0.3-0.2-0.6-0.5-0.7c-0.3-0.2-0.7-0.4-1-0.5c-0.7-0.3-1.4-0.6-1.5-1.2c-0.7-0.2,0,0.6-0.6,0.4l-0.1-0.3l-0.3,0.3
			c-0.3-0.1-0.6-0.5-0.5-0.8c0.1,0.1,0.3,0,0.4,0c-0.3-0.2-0.7-0.3-1-0.3c-0.3,0-0.5,0-0.8,0l0.6,0.3c-0.9,0-1.9-0.2-2.9-0.3
			c-0.9-0.1-1.9-0.1-2.8,0.1l0.1,0.2c-1.3,0.3-1-0.4-2.4-0.3l0.1,0c-0.3,0.2-0.7,0.3-1.1,0.2c0.4-0.2-0.6-0.6-0.1-0.8
			c-0.7,0.2-0.9,0.2-1,0.4c-0.2,0.3-0.4,0.5-0.7,0.7c-0.1-0.1-0.1-0.3-0.2-0.4c-0.3,0.4-0.7,0.6-1.1,0.6c0.3-0.2,0.2-0.3,0.1-0.5
			s-0.2-0.3,0.1-0.6c-0.4-0.2-0.8-0.2-1.2-0.1c-0.3,0.1-0.6,0.2-0.9,0.4c-0.5,0.3-0.8,0.5-1.4,0.1c-0.2,0.6,0.2,0.6,0.6,0.6
			s0.8-0.3,0.6-0.1c0.2,0.1,0.1,0.3-0.1,0.6c-0.2,0.2-0.5,0.4-0.8,0.4c-0.2,0.1-0.5-0.2-1-0.4c-0.5-0.2-1-0.3-1.5,0
			c0.1,0,0.1-0.1,0.2-0.2c-0.5,0-0.6,0.7-1.3,0.5c0,0.7-0.7,0.3-0.4,1l0.9-0.6c-0.5,0.5-0.6,1.6-1.7,1.6c0-0.3,0.2-0.5,0.3-0.7
			c-0.4-0.1-0.4,0.4-0.8,0.3c-0.3-0.8,1.1-0.8,1.4-1.6c-0.4-0.2-0.9,1.1-1,0.1c0,0.6-0.3,0.7-0.6,0.8c-0.4,0-0.8,0.3-0.9,0.8
			l-0.2-0.5c-0.1,0.1-0.2,0.5-0.4,0.6l0.1-0.8c-0.2,0.4-0.5,0.5-0.9,0.5s-0.7,0-1,0.3c1.2-0.7,0.6,0.3,1.3,0.4
			c-0.6,0.7-0.9,0.6-1.4,0.4c-0.2-0.1-0.5-0.2-0.7-0.2c-0.4,0-0.7,0.2-1,0.5c0.2-0.2,1-0.3,0.8,0.1c-0.4,0.2-0.8,0.2-1.2,0.2
			c-0.5,0.4-0.4,0.5-0.2,0.5s0.5,0,0.4,0.3c-0.7-0.2-0.3,0.6-0.7,1.1l-0.3-0.4c-1.3,0.7,0.4,1-0.8,1.6c0-0.3,0-0.6-0.1-0.9l-0.4,0.6
			l-0.3-0.5c-0.1,0.3-0.2,0.6-0.4,0.8c-0.1,0.1-0.2,0.2-0.3,0.2c-0.1,0.1-0.2,0.2-0.4,0.3c0.4,0.2,0.5,0.6,0.3,0.9
			c0,0.1-0.1,0.2-0.2,0.2c-0.5,0.1-0.2-0.5-0.7,0.2c-0.1-0.4-0.2-0.8,0.4-0.8c-0.1-0.1-0.1-0.4-0.2-0.5c-0.6,0.1-0.9,0.8-1.1,1.1
			c0.1-0.1,0.2-0.2,0.3-0.2c-0.1,0.5-0.2,1-0.3,1.5c-0.3,0-0.3-0.2-0.3-0.4c-0.1,0.2-0.1,0.5-0.3,0.9c-0.3-0.3-0.6-0.5-0.4-1.1
			c-0.1,0.2-0.2,0.4-0.2,0.7l-0.2,0.7c-0.2,0-0.8,0.3-0.8,0.1c-0.3,0.3-0.5,0.8-0.5,1.2c0,0.5-0.2,1-0.6,1.4c0.1,0.1,0.1,0.3,0,0.4
			c-0.2,0.4-0.6,0.7-0.8,1.1c-0.3,0.4-0.4,0.9-0.4,1.4c-0.3,0.1-0.6,0.2-0.9,0.3c-0.1,0.4,0.2,0.3,0.5,0.3s0.5,0,0.4,0.7
			c-0.1,1-0.7,0.1-1,0.4c0.1,0.4,0.2,0.7,0.3,1.1c0,0.2,0,0.4-0.1,0.6c-0.1,0.2-0.2,0.4-0.4,0.6
			C980.1-654.2,980.3-654.3,980.3-654.6z M979.7-644.5c-0.1-0.1-0.2-0.2-0.3-0.4c-0.1-0.1-0.1-0.3,0.1-0.4c0.3,0.1,0.4,0.2,0.4,0.3
			C979.8-644.8,979.8-644.7,979.7-644.5L979.7-644.5z M985.4-631c-0.2,0-0.2-0.3-0.2-0.6C985.4-631.4,985.4-631.2,985.4-631
			L985.4-631z M1019.8-624C1019.8-624,1019.8-624,1019.8-624C1019.4-624,1019.6-624,1019.8-624L1019.8-624z M1020.6-624.1
			c0-0.1,0-0.2-0.1-0.2c0,0.1-0.1,0.2-0.3,0.3C1020.3-624,1020.4-623.9,1020.6-624.1L1020.6-624.1z M1000.8-670.2l-0.2-0.1
			C1000.9-670.5,1000.9-670.4,1000.8-670.2L1000.8-670.2z"/>
		<path id="Path_101" class="st0" d="M984.1-632.2c0.1-0.1,0.1-0.1,0.2-0.2C984.2-632.4,984.1-632.3,984.1-632.2z"/>
		<path id="Path_102" class="st0" d="M982.5-660.6C982.5-660.6,982.5-660.6,982.5-660.6C982.5-660.6,982.5-660.7,982.5-660.6
			L982.5-660.6z"/>
		<path id="Path_103" class="st0" d="M1009.4-617.2c-0.1,0-0.3-0.1-0.4-0.2C1009-617.3,1009.1-617.2,1009.4-617.2z"/>
		<path id="Path_104" class="st0" d="M1023.2-627.1l-0.3,0.4c0.1-0.1,0.3-0.2,0.4-0.2C1023.3-626.9,1023.1-627,1023.2-627.1z"/>
		<path id="Path_105" class="st0" d="M1028.6-627.9c0-0.1,0.1-0.1,0.1-0.2l-0.2-0.1C1028.3-628,1028.3-627.7,1028.6-627.9z"/>
		<path id="Path_106" class="st0" d="M1024.6-626.2c0.3,0.3,0.5,0,0.7-0.3c0,0,0,0,0,0C1024.9-627,1024.8-626.6,1024.6-626.2z"/>
		<path id="Path_107" class="st0" d="M1025.4-626.6c0.1-0.1,0.2-0.2,0.2-0.2C1025.5-627,1025.5-626.7,1025.4-626.6z"/>
		<path id="Path_108" class="st0" d="M1021.2-624.8c0.2,0-0.2-0.5,0-0.4c-0.1-0.3-0.2,0-0.2,0.2S1020.9-624.5,1021.2-624.8z"/>
		<path id="Path_109" class="st0" d="M1025.8-625.3l-0.4-0.3l0.1,0.4L1025.8-625.3z"/>
		<path id="Path_110" class="st0" d="M1023.3-623.7c0.2-0.1,0.4-0.2,0.6-0.2c-0.1-0.1,0-0.1,0-0.2
			C1023.5-624,1023.2-623.9,1023.3-623.7z"/>
		<path id="Path_111" class="st0" d="M1023.8-624.2c0.1-0.1,0.3-0.2,0.3-0.4C1024-624.5,1023.9-624.4,1023.8-624.2z"/>
		<path id="Path_112" class="st0" d="M1025.3-624.7l-0.2,0l-0.3,0.2L1025.3-624.7z"/>
		<path id="Path_113" class="st0" d="M1017.6-621.2c-0.2,0.1-0.4,0.2-0.6,0.3c0,0.2,0.2,0.2,0.4,0.1
			C1017.6-620.9,1017.8-621,1017.6-621.2z"/>
		<path id="Path_114" class="st0" d="M1020-620.4c-0.2,0-0.3-0.1-0.4-0.3l0.2,0.6C1019.8-620.2,1019.9-620.3,1020-620.4z"/>
		<path id="Path_115" class="st0" d="M1018.1-619.7c0,0.2-0.8,0.7,0,0.5C1018.1-619.4,1018.8-619.7,1018.1-619.7z"/>
		<path id="Path_116" class="st0" d="M1008.2-618.8l0.2,0l-0.1-1L1008.2-618.8z"/>
		<path id="Path_117" class="st0" d="M998.7-618.2c0.7,0.5,0.4-0.5,1,0c0.3-0.2-0.5-0.5-0.2-0.6
			C998.9-618.6,998.8-618.9,998.7-618.2z"/>
		<path id="Path_118" class="st0" d="M999.5-618.7c0.1,0,0.2,0,0.3-0.1C999.7-618.8,999.6-618.7,999.5-618.7z"/>
		<path id="Path_119" class="st0" d="M1025.5-663.1l0.1,0.5l0.1-0.5L1025.5-663.1z"/>
		<path id="Path_120" class="st0" d="M1026.7-662.8l-0.4,0.5l0.7-0.2C1026.8-662.5,1026.7-662.7,1026.7-662.8z"/>
		<path id="Path_121" class="st0" d="M978.5-642.8l0.2,0c0.2-0.1,0.2-0.2,0.1-0.5L978.5-642.8z"/>
		<path id="Path_122" class="st0" d="M978.9-650.5l0,0.1l0.6-0.2L978.9-650.5z"/>
		<path id="Path_123" class="st0" d="M979.7-656.9c-0.1,0.2-0.1,0.6-0.2,0.8C979.6-656.6,980.4-656.7,979.7-656.9z"/>
	</g>
</g>
</svg>
