<?xml version="1.0" encoding="utf-8"?>
<!-- Generator: Adobe Illustrator 27.0.1, SVG Export Plug-In . SVG Version: 6.00 Build 0)  -->
<svg version="1.1" id="map-pin-fill_3_" width="20" xmlns="http://www.w3.org/2000/svg" xmlns:xlink="http://www.w3.org/1999/xlink" x="0px"
	 y="0px" viewBox="0 0 30.3 30.3" style="enable-background:new 0 0 30.3 30.3;" xml:space="preserve">
<style type="text/css">
	.st0{fill:#018073;}
</style>
<path id="Path_27880" class="st0" d="M23.2,21.9l-8,8l-8-8c-4.4-4.4-4.4-11.6,0-16.1s11.6-4.4,16.1,0S27.6,17.5,23.2,21.9
	C23.2,21.9,23.2,21.9,23.2,21.9L23.2,21.9z M15.1,18.9c2.8,0,5-2.3,5-5s-2.3-5-5-5s-5,2.3-5,5l0,0C10.1,16.7,12.4,18.9,15.1,18.9z
	 M15.1,16.4c-1.4,0-2.5-1.1-2.5-2.5s1.1-2.5,2.5-2.5s2.5,1.1,2.5,2.5v0C17.7,15.3,16.5,16.4,15.1,16.4z"/>
</svg>
