<svg id="About_us_image" data-name="About us image" xmlns="http://www.w3.org/2000/svg" width="489.404" height="444.496" viewBox="0 0 489.404 444.496">
  <path id="Path_57044" data-name="Path 57044" d="M684.009,271.248a221.186,221.186,0,0,1-18.933,89.9q-.607,1.372-1.23,2.727c-.205.454-.416.9-.626,1.358s-.421.9-.637,1.352c-.277.582-.554,1.158-.837,1.735-.349.726-.7,1.447-1.07,2.167q-.067.15-.15.3c-.3.61-.61,1.219-.926,1.829-.067.133-.133.266-.205.393-.36.709-.732,1.419-1.108,2.123v.006q-.6,1.122-1.2,2.239-1.5,2.76-3.076,5.47c-.316.538-.626,1.075-.948,1.607-.294.5-.587.992-.887,1.485-.205.344-.41.682-.621,1.02q-.5.823-1.014,1.646c-.006.006-.006.006-.006.011-.759,1.219-1.535,2.433-2.317,3.636h-.006c-.36.56-.726,1.114-1.092,1.668v.006q-1.654,2.494-3.375,4.938v.006a.017.017,0,0,0-.011.005v.006l-.011.011q-1.363,1.954-2.782,3.874v.006c-.6.82-1.214,1.641-1.829,2.45q-.756,1-1.53,1.99c-.105.144-.216.283-.333.427v.006c-.139.183-.277.36-.427.543v.006q-3.284,4.2-6.767,8.23h-.006c-.122.15-.25.294-.377.438s-.255.288-.382.438h-.006c-.194.227-.393.454-.593.682s-.4.455-.6.682v.006a222.733,222.733,0,0,1-40.9,36.081q-3.01,2.07-6.1,4.029c-.51.327-1.02.648-1.535.97-.155.105-.31.2-.466.294-.271.172-.549.344-.826.515s-.549.338-.826.5c-1.1.676-2.217,1.341-3.331,2-.277.166-.56.327-.843.493s-.56.322-.842.482a.051.051,0,0,1-.033.022l-.011.006-.011.011h-.006c-1.4.8-2.8,1.6-4.218,2.361q-3.808,2.078-7.693,4.007c-.643.322-1.291.637-1.94.953-.538.26-1.081.521-1.618.776-.15.072-.294.144-.443.211-.449.211-.9.421-1.347.626-.488.233-.981.454-1.469.676-.549.249-1.092.493-1.641.737-2.062.92-4.146,1.807-6.235,2.66a217.289,217.289,0,0,1-22.851,7.9c-.36.105-.726.211-1.092.31q-4.98,1.4-10.032,2.555-8.821,2.028-17.8,3.331c-.011,0-.028.006-.039.006-.715.105-1.435.205-2.15.3-.061.011-.127.022-.194.028-.006.006-.011.006-.022,0s0,.006-.006,0c-.793.105-1.585.211-2.383.31-.055.011-.111.017-.166.022-.743.089-1.491.177-2.239.26-.8.089-1.607.172-2.416.255-.615.061-1.23.122-1.846.177a.852.852,0,0,1-.166.017c-.56.05-1.12.1-1.679.144-.022,0-.05.006-.072.006-.488.044-.975.078-1.463.116q-8.6.682-17.375.676-9.519,0-18.844-.793c-.022,0-.044-.006-.067-.006q-1.987-.166-3.968-.366c-.349-.033-.693-.072-1.042-.105-.067-.006-.133-.011-.2-.022l-.322-.033c-.055-.006-.116-.011-.172-.022-.46-.05-.92-.1-1.386-.155-.515-.061-1.036-.122-1.552-.188s-1.036-.127-1.552-.2c-.111-.011-.227-.022-.338-.044-.377-.044-.754-.094-1.125-.15-.183-.022-.36-.05-.538-.078-.36-.05-.715-.1-1.075-.155-.011,0-.028-.006-.039-.006a219.02,219.02,0,0,1-33.415-7.532h-.006c-.593-.183-1.186-.371-1.779-.56q-.266-.075-.532-.166-2.311-.74-4.595-1.53-3.151-1.081-6.257-2.261l-1.69-.648c-1.125-.443-2.245-.887-3.359-1.341q-2.852-1.164-5.664-2.4h-.006v-.005q-2.627-1.156-5.215-2.383a.56.56,0,0,1-.144-.067c-.006,0-.006-.006-.011-.006-.382-.177-.765-.36-1.147-.543l-.011-.006a219.979,219.979,0,0,1-27.429-15.663q-4.215-2.818-8.286-5.825-3.284-2.419-6.473-4.96a222.613,222.613,0,0,1-29.286-27.983h-.006v-.006c-.626-.715-1.236-1.424-1.857-2.145v-.006c-.089-.1-.172-.2-.255-.3-.393-.46-.776-.915-1.158-1.38v-.006q-.782-.923-1.53-1.851c-.111-.133-.216-.26-.321-.393h-.006V411.2c-.41-.5-.815-1-1.214-1.508-.205-.249-.4-.5-.6-.759h-.006v-.006q-1.812-2.286-3.553-4.617v-.006c-.321-.427-.637-.854-.948-1.286h-.006q-2.228-3.009-4.34-6.091v-.006q-.8-1.156-1.58-2.328t-1.546-2.35h-.006q-.79-1.214-1.563-2.439c-.028-.044-.055-.083-.078-.122q-.765-1.205-1.508-2.428c-.4-.648-.793-1.291-1.175-1.94-.266-.438-.527-.87-.782-1.314-.094-.15-.177-.3-.26-.443-.587-1-1.164-2.006-1.74-3.015-.671-1.186-1.336-2.383-1.984-3.58-.266-.493-.532-.992-.793-1.491-.094-.161-.177-.321-.26-.488-.31-.587-.621-1.175-.926-1.768s-.61-1.181-.909-1.774-.6-1.186-.892-1.785c-.222-.449-.443-.9-.66-1.352a1.156,1.156,0,0,1-.061-.116c-.1-.211-.205-.416-.3-.626a.366.366,0,0,1-.05-.105c-.227-.466-.449-.926-.665-1.391-.288-.6-.565-1.2-.842-1.807-.2-.421-.388-.848-.582-1.275q-.416-.9-.815-1.812c-.283-.626-.554-1.258-.826-1.89-.072-.161-.139-.316-.205-.477-.128-.288-.249-.576-.371-.865-.327-.765-.648-1.541-.964-2.311q-.54-1.305-1.053-2.616-.491-1.222-.953-2.45l-.116-.3v-.006a221.271,221.271,0,0,1-10.885-39.051v-.006a221.629,221.629,0,0,1-2.948-22.99c-.033-.421-.061-.842-.089-1.264q-.549-7.823-.538-15.707,0-3.5.111-6.967a221.219,221.219,0,0,1,49.039-132.44q2-2.486,4.079-4.91A222.279,222.279,0,0,1,649.7,152.575q3.076,4.838,5.886,9.854a221.175,221.175,0,0,1,28.421,108.819Z" transform="translate(-194.605 -49)" fill="#f2f2f2"/>
  <path id="Path_57045" data-name="Path 57045" d="M817.584,748.305q-1.2,3.309-2.389,6.618c-.15.421-.3.837-.454,1.258q-3.043,8.43-6.091,16.865c-.643.321-1.291.637-1.94.953-.538.26-1.081.521-1.618.776-.15.072-.294.144-.443.211-.449.211-.9.421-1.347.626-.488.233-.981.454-1.469.676-.549.249-1.092.493-1.641.737a7.363,7.363,0,0,1-.482-2.322,13.676,13.676,0,0,1,.438-3.7c.482-1.995,1.247-3.952,1.751-5.952.028-.094.05-.194.072-.288a21.811,21.811,0,0,0-1.474-14.238c-1.253-2.649-3.048-5.06-3.83-7.887a11.383,11.383,0,0,1,.848-7.914,12.694,12.694,0,0,1,1.7-2.649c.161-.205.332-.4.51-.593a11.219,11.219,0,0,1,6.174-3.464c4.55-.809,9.306,1.613,11.85,5.415a10.863,10.863,0,0,1,1.846,5.138C819.873,741.9,818.72,745.163,817.584,748.305Z" transform="translate(-442.807 -351.612)" fill="#e4e4e4"/>
  <path id="Path_57046" data-name="Path 57046" d="M763.1,772.446c-1.042-1.923-2.788-3.608-3.12-5.77-1.081-6.939-3.686-11.916-8-14.737-1.253-.815-1.452-2.616-2.222-3.913-.344-.582-.693-1.164-1.053-1.735q-.873-1.422-1.818-2.788a45.284,45.284,0,0,0-3.94-5.01c-.593-.659-1.219-1.3-1.868-1.9l-.006-.006c-.4-.388-.815-.759-1.242-1.12q-.249-.216-.515-.432l-.011-.011a26.613,26.613,0,0,0-2.35-1.818c-1.879-1.269-4-2.151-6.18-1.447a13.5,13.5,0,0,0-2.461,1.131c-.4.227-.793.466-1.186.7-.266.161-.532.322-.8.488-.216.127-.432.255-.648.377q-2.511,1.447-5.044,2.838c-.244.139-.488.272-.737.4h-.006c-.172.1-.349.194-.527.288-.338.189-.682.377-1.02.56q-1.521.823-3.048,1.63c-.521.277-1.048.543-1.574.809-.244.122-.488.244-.726.371h-.006l-.26.133c-.72.371-1.43.754-2.117,1.169a17.379,17.379,0,0,0-5.093,4.672c-.266.366-.521.743-.754,1.131a16.125,16.125,0,0,0-.831,1.552c-.172.36-.333.721-.477,1.086v.006a17.385,17.385,0,0,0-.543,10.974v.005c.066.249.139.493.222.737.133.41.283.82.449,1.219a13.436,13.436,0,0,0,.621,1.3v.006a24.617,24.617,0,0,0,4.567,5.664l.055.055.671.654c.122.116.249.233.382.344,1.918,1.646,5.016,2.893,6.767,4.584a3.505,3.505,0,0,1,1.269,3.209c-.576,3.4-.449,5.6.139,7.011,1.6,3.857,6.606,1.9,10.037,2.655.366-.1.732-.205,1.092-.31a217.338,217.338,0,0,0,22.851-7.9c2.089-.854,4.173-1.74,6.235-2.66.549-.244,1.092-.488,1.641-.737.488-.222.981-.443,1.469-.676.449-.205.9-.416,1.347-.626.15-.066.294-.139.443-.211.538-.255,1.081-.515,1.618-.776C764.245,774.557,763.674,773.5,763.1,772.446Z" transform="translate(-400.89 -353.239)" fill="#e4e4e4"/>
  <path id="Path_57047" data-name="Path 57047" d="M715.108,702.36c1.165-3.518-.437-5.84-4.559-7.071a1.136,1.136,0,0,0-1.845.495l-3.6,10.664c-3.764-.963-6.526-.3-7.125,3.42,1.486-3.793.088-6.172-4.092-7.186a1.136,1.136,0,0,0-1.874.424l-2.367,9.6a24.386,24.386,0,1,0,25.461-10.351Z" transform="translate(-393.446 -336.962)" fill="#e4e4e4"/>
  <path id="Path_57048" data-name="Path 57048" d="M732.43,760.728a2.083,2.083,0,0,1-2.818-.85.3.3,0,1,1,.524-.281,1.486,1.486,0,1,0,2.62-1.406.3.3,0,0,1,.524-.281A2.083,2.083,0,0,1,732.43,760.728Z" transform="translate(-413.059 -364.938)" fill="#fff"/>
  <ellipse id="Ellipse_797" data-name="Ellipse 797" cx="2.378" cy="0.915" rx="2.378" ry="0.915" transform="matrix(0.881, -0.473, 0.473, 0.881, 314.234, 390.93)" fill="#fff"/>
  <path id="Path_57049" data-name="Path 57049" d="M705.126,747.3a5.293,5.293,0,0,1,7.159-3.842,5.883,5.883,0,1,0-7.421,3.763h0Q704.995,747.261,705.126,747.3Z" transform="translate(-400.235 -355.125)" fill="#fff"/>
  <ellipse id="Ellipse_798" data-name="Ellipse 798" cx="2.024" cy="2.024" rx="2.024" ry="2.024" transform="translate(304.625 385.988)" fill="#3f3d56"/>
  <path id="Path_57050" data-name="Path 57050" d="M730.4,734.157a5.293,5.293,0,0,1,7.159-3.842,5.883,5.883,0,1,0-7.421,3.763h0Q730.271,734.12,730.4,734.157Z" transform="translate(-411.502 -349.268)" fill="#fff"/>
  <ellipse id="Ellipse_799" data-name="Ellipse 799" cx="2.024" cy="2.024" rx="2.024" ry="2.024" transform="translate(319.377 378.592)" fill="#3f3d56"/>
  <rect id="Rectangle_3898" data-name="Rectangle 3898" width="9.866" height="0.977" transform="translate(324.647 387.519) rotate(-45.539)" fill="#fff"/>
  <rect id="Rectangle_3899" data-name="Rectangle 3899" width="9.866" height="0.977" transform="matrix(0.846, -0.533, 0.533, 0.846, 325.404, 389.139)" fill="#fff"/>
  <rect id="Rectangle_3900" data-name="Rectangle 3900" width="9.866" height="0.977" transform="translate(300.136 397.341) rotate(-10.898)" fill="#fff"/>
  <rect id="Rectangle_3901" data-name="Rectangle 3901" width="9.866" height="0.977" transform="translate(301.759 401.052) rotate(-24.244)" fill="#fff"/>
  <path id="Path_57051" data-name="Path 57051" d="M183.955,438.855c-18.95-17.054-30.424-44.175-23.372-68.674a117.46,117.46,0,0,0,66.145,46.133c10.346,2.7,22.135,4.619,28.429,13.262,3.917,5.378,4.826,12.484,3.9,19.072s-3.519,12.81-6.087,18.947l.136,1.655C228.082,464.381,202.9,455.909,183.955,438.855Z" transform="translate(-158.487 -192.171)" fill="#e6e6e6"/>
  <path id="Path_57052" data-name="Path 57052" d="M162.313,369.946a100.4,100.4,0,0,0,32.063,52.8,43.234,43.234,0,0,0,11.384,7.342,24.8,24.8,0,0,0,12.961,1.522c4.1-.533,8.223-1.552,12.376-1.079a15.183,15.183,0,0,1,10.59,6.483c3.126,4.322,4.513,9.509,5.693,14.629,1.31,5.685,2.581,11.61,6.334,16.256.455.563-.445,1.236-.9.674-6.53-8.083-5.637-19.272-10.366-28.2-2.207-4.168-5.683-7.7-10.47-8.571-4.187-.766-8.444.282-12.585.857a26.46,26.46,0,0,1-12.729-1.016,39.967,39.967,0,0,1-11.624-6.877,97.4,97.4,0,0,1-20.207-22.769A102.177,102.177,0,0,1,161.2,370.074C161.03,369.372,162.147,369.249,162.313,369.946Z" transform="translate(-159.687 -191.859)" fill="#fff"/>
  <path id="Path_57053" data-name="Path 57053" d="M195.474,457.281a15.063,15.063,0,0,1-19.5.377c-.558-.459.129-1.349.688-.889a13.948,13.948,0,0,0,18.139-.387C195.34,455.9,196.011,456.8,195.474,457.281Z" transform="translate(-166.189 -230.535)" fill="#fff"/>
  <path id="Path_57054" data-name="Path 57054" d="M256.156,465.6a29.032,29.032,0,0,0-6.3-20.2c-.453-.565.447-1.237.9-.674a30.2,30.2,0,0,1,6.509,21.033C257.215,466.477,256.1,466.314,256.156,465.6Z" transform="translate(-199.162 -225.304)" fill="#fff"/>
  <path id="Path_57055" data-name="Path 57055" d="M176.861,404.144a8.526,8.526,0,0,0,4.286-6.862c.044-.723,1.156-.558,1.112.16a9.554,9.554,0,0,1-4.725,7.6.581.581,0,0,1-.786-.113A.565.565,0,0,1,176.861,404.144Z" transform="translate(-166.577 -204.044)" fill="#fff"/>
  <path id="Path_57056" data-name="Path 57056" d="M285.633,307.993c-.015.452-.03.9-.037,1.362a112.279,112.279,0,0,0,.979,18.188c.056.467.12.939.189,1.4a118.376,118.376,0,0,0,14.155,41.219,114.963,114.963,0,0,0,9.76,14.485c4.994,6.317,10.911,12.768,13.452,20.148a19.73,19.73,0,0,1,.677,2.345l-23.78,34.09c-.093.05-.178.106-.272.157l-.887,1.4c-.2-.223-.409-.458-.612-.681-.118-.129-.231-.265-.35-.394-.077-.088-.154-.177-.229-.252-.026-.029-.051-.059-.069-.083-.075-.075-.136-.153-.2-.223q-1.73-1.97-3.439-3.971c-.008-.005-.008-.005-.01-.018a169.025,169.025,0,0,1-22.491-33.032c-.179-.356-.366-.718-.535-1.09a109.7,109.7,0,0,1-6.621-16.632,96.992,96.992,0,0,1-2.364-9.523,80.641,80.641,0,0,1-.852-25.2c2.073-16.73,9.474-32.61,22.532-42.927C284.962,308.508,285.291,308.252,285.633,307.993Z" transform="translate(-204.4 -164.45)" fill="#e6e6e6"/>
  <path id="Path_57057" data-name="Path 57057" d="M298.032,307.982a100.4,100.4,0,0,0-6.187,61.46,43.235,43.235,0,0,0,4.67,12.716,24.8,24.8,0,0,0,9.433,9.019c3.59,2.04,7.5,3.712,10.531,6.589a15.183,15.183,0,0,1,4.553,11.552c-.106,5.333-2.122,10.31-4.262,15.108-2.376,5.328-4.929,10.824-4.73,16.793.024.723-1.1.718-1.124,0-.347-10.385,7.1-18.781,8.7-28.76.747-4.656.1-9.566-3.2-13.148-2.882-3.132-6.911-4.859-10.564-6.893a26.46,26.46,0,0,1-9.552-8.475,39.971,39.971,0,0,1-5.141-12.489,97.4,97.4,0,0,1-2.426-30.346,102.176,102.176,0,0,1,8.326-33.692c.29-.66,1.256-.086.968.57Z" transform="translate(-216.419 -164.061)" fill="#fff"/>
  <path id="Path_57058" data-name="Path 57058" d="M278.568,397.972a15.063,15.063,0,0,1-15.8-11.44c-.169-.7.915-1,1.084-.3a13.948,13.948,0,0,0,14.716,10.612C279.292,396.79,279.284,397.913,278.568,397.972Z" transform="translate(-204.965 -199.149)" fill="#fff"/>
  <path id="Path_57059" data-name="Path 57059" d="M316.373,440.894a29.032,29.032,0,0,0,7.134-19.919c-.022-.723,1.1-.719,1.124,0a30.2,30.2,0,0,1-7.466,20.712C316.688,442.235,315.9,441.435,316.373,440.894Z" transform="translate(-228.802 -214.573)" fill="#fff"/>
  <path id="Path_57060" data-name="Path 57060" d="M292.406,346.228a8.526,8.526,0,0,0,7.554-2.9c.47-.55,1.259.25.792.8a9.555,9.555,0,0,1-8.349,3.224.581.581,0,0,1-.56-.564A.565.565,0,0,1,292.406,346.228Z" transform="translate(-217.932 -180.119)" fill="#fff"/>
  <path id="Path_57061" data-name="Path 57061" d="M660.7,271.912c3.3-18.27-2.187-39-17.173-49.962a85.544,85.544,0,0,1-17.506,56.062c-4.754,6.167-10.683,12.531-10.453,20.315.143,4.843,2.789,9.34,6.261,12.719s7.739,5.805,11.955,8.194l.66,1.014C646.682,306.288,657.4,290.182,660.7,271.912Z" transform="translate(-362.236 -126.095)" fill="#e6e6e6"/>
  <path id="Path_57062" data-name="Path 57062" d="M652.821,221.947a73.115,73.115,0,0,1,5.088,44.7,31.486,31.486,0,0,1-3.28,9.3,18.06,18.06,0,0,1-6.784,6.657c-2.6,1.52-5.426,2.774-7.607,4.9a11.058,11.058,0,0,0-3.206,8.456c.128,3.882,1.643,7.487,3.247,10.961,1.781,3.857,3.692,7.835,3.6,12.184-.011.527.807.513.818-.013.154-7.566-5.35-13.609-6.611-20.861-.589-3.384-.161-6.965,2.205-9.6,2.069-2.308,4.987-3.6,7.628-5.12a19.271,19.271,0,0,0,6.875-6.262,29.108,29.108,0,0,0,3.625-9.144,70.939,70.939,0,0,0,1.479-22.121,74.413,74.413,0,0,0-6.382-24.456c-.217-.478-.916-.051-.7.424Z" transform="translate(-371.798 -125.811)" fill="#fff"/>
  <path id="Path_57063" data-name="Path 57063" d="M676.677,287.23a10.97,10.97,0,0,0,11.4-8.481c.117-.513-.676-.719-.793-.2a10.158,10.158,0,0,1-10.616,7.867C676.138,286.375,676.154,287.194,676.677,287.23Z" transform="translate(-389.299 -151.19)" fill="#fff"/>
  <path id="Path_57064" data-name="Path 57064" d="M654.125,318.9a21.143,21.143,0,0,1-5.384-14.437c.009-.527-.809-.513-.818.013a21.993,21.993,0,0,0,5.633,15.012C653.909,319.879,654.476,319.289,654.125,318.9Z" transform="translate(-376.659 -162.703)" fill="#fff"/>
  <path id="Path_57065" data-name="Path 57065" d="M670.3,249.74a6.209,6.209,0,0,1-5.528-2.039c-.348-.4-.915.194-.569.588a6.958,6.958,0,0,0,6.111,2.269.423.423,0,0,0,.4-.416A.411.411,0,0,0,670.3,249.74Z" transform="translate(-383.871 -137.516)" fill="#fff"/>
  <path id="Path_57066" data-name="Path 57066" d="M556.08,249.828c.21.254.42.507.629.768a81.767,81.767,0,0,1,7.548,10.908c.176.294.35.594.517.892a86.21,86.21,0,0,1,10.235,30.044,83.723,83.723,0,0,1,.842,12.692c-.058,5.864-.587,12.217,1.241,17.6a14.371,14.371,0,0,0,.657,1.652l28.895,9.021c.076-.013.15-.018.226-.031l1.137.413c.018-.219.031-.446.048-.665.011-.127.015-.256.025-.383.005-.085.01-.171.019-.247,0-.028,0-.057,0-.079.009-.077.01-.149.017-.219q.118-1.906.209-3.82c0-.007,0-.007,0-.015a123.094,123.094,0,0,0-1.784-29.048c-.056-.285-.109-.577-.178-.866a79.9,79.9,0,0,0-3.606-12.528,70.639,70.639,0,0,0-2.886-6.537,58.728,58.728,0,0,0-10.748-14.888c-8.655-8.707-20-14.549-32.118-14.665C556.7,249.825,556.392,249.824,556.08,249.828Z" transform="translate(-335.72 -138.521)" fill="#e6e6e6"/>
  <path id="Path_57067" data-name="Path 57067" d="M555.807,249.877A73.116,73.116,0,0,1,586.78,282.5a31.484,31.484,0,0,1,2.983,9.4,18.059,18.059,0,0,1-1.408,9.4c-1.157,2.776-2.662,5.482-3.124,8.491a11.057,11.057,0,0,0,2.531,8.682c2.439,3.023,5.82,4.989,9.192,6.8,3.744,2.007,7.665,4.033,10.213,7.559.309.427.953-.077.645-.5-4.432-6.134-12.466-7.645-17.839-12.676-2.507-2.348-4.322-5.465-4.022-9,.262-3.088,1.812-5.88,3.008-8.68a19.27,19.27,0,0,0,1.719-9.139,29.111,29.111,0,0,0-2.611-9.483A70.935,70.935,0,0,0,575.93,264.8a74.413,74.413,0,0,0-19.82-15.684c-.461-.251-.762.511-.3.76Z" transform="translate(-335.496 -138.183)" fill="#fff"/>
  <path id="Path_57068" data-name="Path 57068" d="M607.95,289.957a10.97,10.97,0,0,0,3.992-13.632c-.216-.48-.972-.167-.756.314a10.158,10.158,0,0,1-3.74,12.673C607.005,289.6,607.511,290.243,607.95,289.957Z" transform="translate(-358.541 -150.227)" fill="#fff"/>
  <path id="Path_57069" data-name="Path 57069" d="M605.076,334.124a21.143,21.143,0,0,1-12.991-8.286c-.31-.426-.955.078-.645.5a21.993,21.993,0,0,0,13.536,8.595C605.493,335.037,605.591,334.225,605.076,334.124Z" transform="translate(-351.445 -172.333)" fill="#fff"/>
  <path id="Path_57070" data-name="Path 57070" d="M576.37,267.762a6.209,6.209,0,0,1-5.641,1.7c-.516-.107-.613.706-.1.812a6.958,6.958,0,0,0,6.245-1.867.423.423,0,0,0,.071-.574A.411.411,0,0,0,576.37,267.762Z" transform="translate(-342.054 -146.478)" fill="#fff"/>
  <path id="Path_57071" data-name="Path 57071" d="M284.341,427.018A15.083,15.083,0,0,1,299.424,442.1h0a15.085,15.085,0,0,1-12.193,14.8l0,24.67H277.6V427.018Z" transform="translate(-211.584 -217.507)" fill="#3f3d56"/>
  <path id="Path_57072" data-name="Path 57072" d="M949.35,687.756v5.165q-3.284,4.2-6.767,8.23c-.249.294-.5.582-.765.876-.393.46-.8.915-1.2,1.369V687.756Z" transform="translate(-507.132 -333.735)" fill="#cacaca"/>
  <path id="Path_57073" data-name="Path 57073" d="M904.278,668.316A7.291,7.291,0,0,0,897,675.6v10.48a7.291,7.291,0,0,0,7.283,7.283h18.1c.26-.294.515-.582.765-.876q3.483-4.032,6.767-8.23c.144-.183.288-.366.427-.549,1.253-1.6,2.483-3.231,3.691-4.872.942-1.286,1.879-2.583,2.793-3.891.006-.005.011-.005.011-.011q2.295-3.259,4.473-6.618Z" transform="translate(-487.688 -325.07)" fill="#3f3d56"/>
  <path id="Path_57074" data-name="Path 57074" d="M980.391,505.993a10.528,10.528,0,0,0-3.458-.576h-2.976a10.9,10.9,0,0,0-3.2.482,10.773,10.773,0,0,0-7.543,10.264v87.431c0,.327.017.648.044.964a10.213,10.213,0,0,0,.283,1.663c.942-1.286,1.879-2.583,2.793-3.891.005-.005.011-.005.011-.011q2.294-3.259,4.473-6.618c.781-1.2,1.557-2.417,2.317-3.636A220.828,220.828,0,0,0,987.679,564.6V516.163A10.756,10.756,0,0,0,980.391,505.993Z" transform="translate(-517.207 -252.455)" fill="#3f3d56"/>
  <path id="Path_57075" data-name="Path 57075" d="M325.762,687.756v10.436q-3.741-4.473-7.233-9.145c-.321-.427-.637-.859-.953-1.291Z" transform="translate(-229.403 -333.735)" fill="#cacaca"/>
  <path id="Path_57076" data-name="Path 57076" d="M336.646,668.316H304.1q1.538,2.369,3.131,4.683,2.112,3.084,4.34,6.091c.316.432.632.865.953,1.291q3.5,4.672,7.233,9.145c.466.565.937,1.125,1.413,1.685q.914,1.081,1.857,2.151h13.623a7.287,7.287,0,0,0,7.277-7.283V675.6a7.287,7.287,0,0,0-7.277-7.283Z" transform="translate(-223.394 -325.07)" fill="#3f3d56"/>
  <path id="Path_57077" data-name="Path 57077" d="M284.289,506.63a10.812,10.812,0,0,0-4.966-1.214h-2.971a10.629,10.629,0,0,0-4.1.815,10.758,10.758,0,0,0-6.651,9.932v37.561A221.066,221.066,0,0,0,286.938,595.7q1.538,2.369,3.131,4.683V516.163A10.764,10.764,0,0,0,284.289,506.63Z" transform="translate(-206.236 -252.455)" fill="#3f3d56"/>
  <path id="Path_57078" data-name="Path 57078" d="M352.343,718.541l9.763-2.24-3.994-38.726-14.41,3.307Z" transform="translate(-153.211 -302.039)" fill="#9e616a"/>
  <path id="Path_57079" data-name="Path 57079" d="M440.529,675.311a11.356,11.356,0,0,1-.4-2.09,12.776,12.776,0,0,0-.488-2.466,12.946,12.946,0,0,0-1.025-2.106c-.194-.355-.4-.709-.582-1.07a8.854,8.854,0,0,1-.477-1.114c-5.714-16.876-13.69-39.811-19.221-53.234-3.253-7.9-23.261-10.525-42.138-11.2-2.3-.083-4.584-.139-6.817-.166-.77-.011-1.535-.022-2.295-.028-1.94-.011-3.83-.011-5.648.011-.238,0-.477,0-.715.006q-1.987.017-3.852.055c-8.546.166-14.826.554-15.945.626l-9.971-6.268-1.945-1.225-.205,1.225-1.569,9.344-2.677,15.945,6.712,1.884,4.356,1.219,25.811,7.238,5.487,1.541.033.011,9.239-.017,25.262-.044,1.219,3.231a5.7,5.7,0,0,0,2.333,8.225l.948.449L417.5,675.848a13.821,13.821,0,0,0,2.477,7.72c.194.283.4.56.626.831l.255.3,4.439,8.685,2.644-.61,11.251-2.577.055-.111c.005-.017.15-.322.36-.854v-.017C440.49,687.021,442.441,681.008,440.529,675.311Z" transform="translate(-232.514 -292.408)" fill="#2f2e41"/>
  <path id="Path_57080" data-name="Path 57080" d="M551.437,793.533a14.471,14.471,0,0,0-17.4-10.907l-7.8-3.519-2.184,1.535L515,786.993l-.748.172-2.428.554,3.353,14.615,36.369-8.341Z" transform="translate(-315.993 -374.456)" fill="#2f2e41"/>
  <path id="Path_57081" data-name="Path 57081" d="M484.367,764.476l-3.3,26.736-.111.876-.488,3.985c-1.9-.776-3.8-1.579-5.67-2.405q-2.627-1.156-5.215-2.383v-26.8Z" transform="translate(-297.164 -367.934)" fill="#9e616a"/>
  <ellipse id="Ellipse_800" data-name="Ellipse 800" cx="19.993" cy="19.993" rx="19.993" ry="19.993" transform="translate(95.651 172.754)" fill="#9e616a"/>
  <path id="Path_57082" data-name="Path 57082" d="M414.715,704.164a4.863,4.863,0,0,1-1.164-2.311c-.127-2.677-.26-5.326-.4-7.92-.1-1.812-.2-3.6-.3-5.354-.011-.222-.028-.443-.039-.66-.172-2.9.687-5.958,1.513-8.923.272-.97.543-1.951.787-2.932a21.3,21.3,0,0,0,.759-6.723c-1.419-17.952-7.759-34.834-10.6-37.677-4.323-4.323-23.871-14.31-36.2-20.385-2.189-1.081-4.151-2.034-5.758-2.81-1.424-.693-2.572-1.241-3.353-1.618-.6-.283-.986-.466-1.12-.532l-.066-.033-4.462.5-.715.083-3.935.443-25.6,2.871-3.952.443-5.592.632-5.049.565-.188.017-.033.188c0,.006-.011.044-.022.116a52.829,52.829,0,0,0,0,16.538,27.025,27.025,0,0,0,4.085,10.68c.3.432.61.848.942,1.247a.2.2,0,0,0,.044.055c.072.089.144.177.222.266v.006a18.245,18.245,0,0,0,9.627,5.858c.554.15,1.12.272,1.7.371,6.2,1.1,13.207,2.106,20.074,2.993,2.843.366,5.664.709,8.391,1.031,5.459.643,10.558,1.186,14.759,1.618,5.886.6,10.021.97,10.941,1.047L390.29,701.82a7.029,7.029,0,0,0,1.186,8.652l.842.815.975,4.567,3.215,4.3.4.543H411.1l.078-.094c.05-.066,5.038-6.473,4.7-14.105A4.764,4.764,0,0,0,414.715,704.164Z" transform="translate(-225.389 -297.419)" fill="#2f2e41"/>
  <path id="Path_57083" data-name="Path 57083" d="M478.31,492.634a7.616,7.616,0,0,0-9.594,6.66L452.1,504.486l.693,10.864,23.356-7.661a7.657,7.657,0,0,0,2.156-15.055Z" transform="translate(-289.371 -246.637)" fill="#9e616a"/>
  <path id="Path_57084" data-name="Path 57084" d="M423.2,496.442l-12.415,4.7-.317.616a6.264,6.264,0,0,1-8.437,2.7h0l-27.906,10.562s-12.462-12.471-21.335-23.6l3.024-18.6a35.631,35.631,0,0,1,4.391-12.242C378.4,464.564,388.846,490,388.846,490l32.794-6.257Z" transform="translate(-245.1 -232.465)" fill="#018073"/>
  <path id="Path_57085" data-name="Path 57085" d="M343.408,395.484c-5.005,1.352-10.523-.445-14.429-3.855s-6.35-8.24-7.757-13.23c-1.031-3.654-1.52-7.711.107-11.142s6.006-5.745,9.385-4.012c-2.084-2.428-1.043-6.444,1.391-8.522s5.777-2.673,8.96-3c4.62-.473,9.392-.525,13.789.971s8.391,4.769,9.767,9.2a7.006,7.006,0,0,0,8.356-1.887,6.347,6.347,0,0,1-3.5,6.882l6.736-2.184c1.158,2.452-.871,5.487-3.467,6.272s-5.4-.073-7.861-1.208-4.85-2.569-7.526-3.011-5.819.417-7.056,2.83a20.822,20.822,0,0,0-1.058,4.114c-.376,1.37-1.33,2.79-2.746,2.9-.895.071-1.771-.406-2.663-.308a2.869,2.869,0,0,0-2.247,2.2,8.424,8.424,0,0,0-.008,3.314l1.711,13.079Z" transform="translate(-230.605 -183.813)" fill="#2f2e41"/>
  <path id="Path_57086" data-name="Path 57086" d="M358.8,533.593,357.737,532l-7.726-11.589-.155-.227,2.389-12.393.743-3.869,1.624-8.419-.471-19.271L353.8,462.6l-.05-2.139-1.713-5.221a18.8,18.8,0,0,0-9.976-11.146l-11.528-5.276a5.62,5.62,0,0,0-7.444,2.787q-.077.17-.143.345a31.688,31.688,0,0,0-14.249,5.88,21.647,21.647,0,0,0-8.025,12.537c-.011.039-.017.078-.028.116a106.488,106.488,0,0,0-1.718,16.234q-.374,7.3-.471,17.1a248.646,248.646,0,0,0,1.835,32.6c.128,1.031.26,2.056.4,3.087a5.181,5.181,0,0,0,1.751,2.483,5.04,5.04,0,0,1,1.6,2.161,2.846,2.846,0,0,1-.743,1.879c-.055.083-.116.166-.172.249a3.657,3.657,0,0,0-1,2.522c.349,1.984.554,4,.748,5.952a63.005,63.005,0,0,0,1.164,7.992c.194.809.416,1.624.665,2.439.582,1.912,1.286,3.819,1.973,5.681.593,1.618,1.208,3.281,1.729,4.922.1.3.194.6.283.9l.044.155.161.028h.011a6.134,6.134,0,0,1,.776-1.086.226.226,0,0,1,.05-.055q.116-.141.266-.3c1.214-1.325,3.852-3.7,9.627-7.709,1.291-.892,2.738-1.862,4.356-2.926,5.936-3.885,14.227-8.945,25.811-15.48q4.356-2.461,9.35-5.2Z" transform="translate(-220.875 -222.542)" fill="#018073"/>
  <path id="Path_57087" data-name="Path 57087" d="M501.448,822.628a14.442,14.442,0,0,0-10.27-4.251l-6.024-4.567-.793-.6L479,815.39c1.873.826,3.769,1.629,5.67,2.405q8.92,3.641,18.218,6.507A14.578,14.578,0,0,0,501.448,822.628Z" transform="translate(-301.358 -389.657)" fill="#2f2e41"/>
  <path id="Path_57088" data-name="Path 57088" d="M596.381,722.539l-7.545-3.609L599.2,687.392l11.136,5.326Z" transform="translate(-262.482 -306.415)" fill="#ffb6b6"/>
  <path id="Path_57089" data-name="Path 57089" d="M836.666,766.694q-3.292,2.053-6.667,3.99v.017l-.033.006-.011.005-.854.211-1.225-3.237-2.827-7.465-7.7-20.34,11.977-2.954L830,739.67l5.066,20.545,1.452,5.875Z" transform="translate(-452.183 -355.654)" fill="#ffb6b6"/>
  <path id="Path_57090" data-name="Path 57090" d="M796.146,543.164a7.866,7.866,0,0,0,10.656,2.673,7.53,7.53,0,0,0,1.011-.733l23.855,13.69-1.036-14.053L808.137,533.9a7.837,7.837,0,0,0-9.506-1.238,7.542,7.542,0,0,0-2.583,10.348Q796.1,543.086,796.146,543.164Z" transform="translate(-442.209 -264.121)" fill="#ffb6b6"/>
  <path id="Path_57091" data-name="Path 57091" d="M842.677,532.2l4.217,2.57,18.938,11.548a11.166,11.166,0,0,0,15.389-3.543l.006-.01a10.925,10.925,0,0,0,1.393-7.713L874.2,493a11.668,11.668,0,0,0-15.317-8.855,11.109,11.109,0,0,0-7.01,13.5l8.8,29.843-13.491-6.29Z" transform="translate(-463.475 -242.681)" fill="#018073"/>
  <path id="Path_57092" data-name="Path 57092" d="M901.87,623.867c-.006-.017-.017-.078-.033-.172l-.017-.061q-.058-.3-.133-.665a149.531,149.531,0,0,0-4.351-16.61,51.03,51.03,0,0,0-4.14-9.611c-.056-.1-.116-.2-.177-.3l-.205-.333-1.724.632-.066.022-26.2,9.6-7.576,2.777-.238.089-1.291,5.265L837.6,612.161l-14.765-1.912-4.24-.549a13.974,13.974,0,0,0-10.414,2.849,14.527,14.527,0,0,0-5.526,9.777c-.055.421-.089.848-.105,1.269l-1.28,47.758v.061l.593,1.186,12.387,24.852h8.585l5.066-.005h4.118l-8.563-21.665.194-.294a9.527,9.527,0,0,0,.981-8.441l.964-2.793c2-5.77,1.053-8.541-.144-12.043a29.756,29.756,0,0,1-1.873-8.884l-.2-3.952c5.027.881,9.71,1.862,14.222,2.849q2.261.491,4.478.992c4.207.937,8.269,1.84,12.249,2.594,8.059,1.535,15.779,2.472,23.71,1.89.155-.011.31-.022.466-.039,1.929-.155,3.868-.4,5.831-.754,1.1-.2,2.211-.427,3.331-.693l.937-.233a10.774,10.774,0,0,0,2.472-.992,16.182,16.182,0,0,0,3.076-2.228c.006-.006.011-.006.011-.011q2.295-3.259,4.473-6.618c.781-1.2,1.557-2.416,2.317-3.636A15.5,15.5,0,0,0,901.87,623.867Z" transform="translate(-445.015 -292.885)" fill="#2f2e41"/>
  <path id="Path_57093" data-name="Path 57093" d="M882.885,608.876c-.083-.355-.189-.715-.3-1.064a75.831,75.831,0,0,0-3.07-7.77c-1.308-2.882-2.877-5.969-4.744-9.311q-1.355-2.428-2.915-5.049-.781-1.314-1.624-2.677a1.358,1.358,0,0,0-.072-.122l-.161-.266-25.927,3.47-9.655,1.291-.576,4.811-.138,1.192c-.006,0-.006,0,0,.005l-.388,3.248v.006l-.515,4.29-.044-.006-14.327-1.857-14.765-1.912-7.931-1.025a13.975,13.975,0,0,0-10.414,2.849,14.527,14.527,0,0,0-5.526,9.777c-.05.388-.083.787-.1,1.181l-7.482,17.73a114.393,114.393,0,0,0-8.458,33.276l-5.487,17.542.781.072,11.628,1.081,3.07.288,6.762-9.871c.77-1.125,1.5-2.283,2.184-3.47a52.693,52.693,0,0,0,2.987-6.008L800.3,625.769q1.7.291,3.359.554,7.69,1.247,14.765,2.034c15.336,1.713,28.615,1.846,40.437.393q4.98-.607,9.627-1.6,1.7-.358,3.364-.77c.26-.061.515-.122.77-.188a14.144,14.144,0,0,0,9.893-9.245A14.432,14.432,0,0,0,882.885,608.876Z" transform="translate(-425.847 -286.867)" fill="#2f2e41"/>
  <ellipse id="Ellipse_801" data-name="Ellipse 801" cx="17.934" cy="18.334" rx="17.934" ry="18.334" transform="translate(383.971 180.663)" fill="#ffb6b6"/>
  <path id="Path_57094" data-name="Path 57094" d="M908.195,522.351c-.028-.205-.061-.41-.105-.615a26.359,26.359,0,0,0-2.6-6.6,25.466,25.466,0,0,1-2.389-5.886,17.025,17.025,0,0,1,.066-5.614,15.007,15.007,0,0,0-.072-6.025,147.828,147.828,0,0,0-11.861-29.3,22.273,22.273,0,0,0-18.484-15.552,5.249,5.249,0,0,0,.593-3.026,5.132,5.132,0,0,0-1.89-3.475A4.948,4.948,0,0,0,867.8,445.2l-8.336.937a5.11,5.11,0,0,0-4.44,5.659,5.532,5.532,0,0,0,.277,1.208c-7.737,9.854-11.711,18.833-12.077,27.324v.006a28.932,28.932,0,0,0,.017,2.943,29.327,29.327,0,0,0,2.04,9.239,39.406,39.406,0,0,0,5.52,9.494q.7.881,1.447,1.729.7.831,1.563,1.746l1.458,2.283,1.358,2.134,7.26,16.755,3.7-.122.515,3.686.122.859,2.394,8.574.177.643,3.276-1.557,19.542-9.278,14.61-6.939Z" transform="translate(-463.704 -225.599)" fill="#018073"/>
  <path id="Path_57095" data-name="Path 57095" d="M847.351,511.439a39.232,39.232,0,0,0,6.929,11.156c.5.6,1.028,1.184,1.581,1.771l2.837,4.451c10.458-7.839,18.931-38.7,18.931-38.7l-11.8-2.3Z" transform="translate(-465.558 -244.61)" opacity="0.2" style="isolation: isolate"/>
  <path id="Path_57096" data-name="Path 57096" d="M822.514,441.154a7.884,7.884,0,0,1-2.662,10.669,7.563,7.563,0,0,1-1.123.551l.835,27.492-11.905-7.494,1.032-24.958a7.862,7.862,0,0,1,3.386-8.981,7.524,7.524,0,0,1,10.332,2.543C822.445,441.034,822.48,441.094,822.514,441.154Z" transform="translate(-447.865 -222.111)" fill="#ffb6b6"/>
  <path id="Path_57097" data-name="Path 57097" d="M820.5,485.121l-13.092,1.862.563,27.112a11.344,11.344,0,0,0,5.546,9.56h0a10.869,10.869,0,0,0,12.983-1.474l30.91-29.731a11.719,11.719,0,0,0,.864-16.093h0a11.115,11.115,0,0,0-15.663-1.318q-.132.112-.261.227a11.433,11.433,0,0,0-.87.867l-20.41,23.479Z" transform="translate(-447.752 -237.744)" fill="#018073"/>
  <path id="Path_57098" data-name="Path 57098" d="M842.78,789.386l-.482.089-6.518,1.2-2.123.394-3.342.615,1.186,4.783c1.424-.771,2.832-1.563,4.234-2.372l.011-.005.033-.006v-.017q3.375-1.929,6.667-3.991c.155-.094.31-.188.466-.294Z" transform="translate(-457.964 -379.038)" fill="#2f2e41"/>
  <path id="Path_57099" data-name="Path 57099" d="M742.42,786.874l-8.164-3.913-1.28-.615-2.045,5.021-14.277,3.142a3.388,3.388,0,0,0-.554,6.446l13.95,5.692,4.428-3.985-1.086,5.348,5.254,2.145,5.758-18.329Z" transform="translate(-406.111 -375.9)" fill="#2f2e41"/>
  <path id="Path_57100" data-name="Path 57100" d="M914.095,378.283c-3.048-3.555-4.5-8.271-6.935-12.308s-6.678-7.65-11.158-6.711c-3.088.648-5.475,3.373-6.684,6.411s-1.435,6.389-1.646,9.671c.075-6.746-4.369-13.285-10.492-15.438a15.451,15.451,0,0,0-17.295,5.668,9.348,9.348,0,0,0-12.416-.261,10.414,10.414,0,0,0-1.672,12.851,9.412,9.412,0,0,0,12.032,3.208l1.422,1.308a6.163,6.163,0,0,0,3.36,7.159c2.115.854,5.1.712,5.893,2.932.553,1.551-.481,3.207-1.581,4.4s-2.405,2.423-2.537,4.072c-.2,2.489,2.372,4.232,4.71,4.757a14.686,14.686,0,0,0,15.142-6.319q.094-.144.2-.288a21.77,21.77,0,0,0,4.379-16.646c-.183-1.15,0-2.005.794-2.277,3.427-1.177,13.027,1.293,15.932,3.526s5.232,5.187,8.031,7.564,6.365,4.21,9.919,3.563a11.005,11.005,0,0,0,6.9-5.077,30.563,30.563,0,0,0,3.405-8.284A16.027,16.027,0,0,1,914.095,378.283Z" transform="translate(-464.199 -187.238)" fill="#2f2e41"/>
  <path id="Path_57101" data-name="Path 57101" d="M779.21,579.266V684.681q-3.01,2.07-6.1,4.029V586.255c0-2.971-1-5.382-2.222-5.387H678.616c-1.23.005-2.222,2.416-2.228,5.387V722.3c-1.23.122-2.461.238-3.691.338-.51.044-1.025.083-1.535.122-.294-.543-.582-1.092-.87-1.646V579.266c0-.82.033-1.646.089-2.461.5-6.917,2.976-11.972,5.875-11.983h96.991a2.593,2.593,0,0,1,1.02.216c2.428,1.031,4.345,5.553,4.827,11.4C779.171,577.37,779.215,578.318,779.21,579.266Z" transform="translate(-386.631 -278.936)" fill="#e4e4e4"/>
  <path id="Path_57102" data-name="Path 57102" d="M506.7,579.266v142.61c-.083.133-.166.26-.249.394q-3.126-.316-6.224-.726V586.255c0-2.971-1.059-5.382-2.361-5.387H399.926c-1.3.005-2.361,2.416-2.361,5.387v93.921q-3.284-2.419-6.473-4.96V579.266c0-.82.033-1.646.094-2.461.526-6.917,3.159-11.972,6.241-11.983H500.365a2.85,2.85,0,0,1,1.081.216c2.577,1.031,4.617,5.553,5.132,11.4C506.661,577.37,506.7,578.318,506.7,579.266Z" transform="translate(-262.174 -278.936)" fill="#e4e4e4"/>
  <path id="Path_57103" data-name="Path 57103" d="M381.974,441.4l6.419,28.241,4.1,4.493h2.959l-12.195-51.348-.6,8.723v.006Z" transform="translate(-170.271 -188.464)" fill="#3f3d56"/>
  <path id="Path_57104" data-name="Path 57104" d="M535.764,562.525a.545.545,0,0,0-.072-.122,1.115,1.115,0,0,0-.249-.355l-.748-.748-3.935-3.941a1.556,1.556,0,0,0-1.081-.443h-.017l-2.777.017-2.389.017-3.336.022-22.724.144-14.937.094a1.544,1.544,0,0,0-1.524,1.535,1.605,1.605,0,0,0,.144.648l.288.615.6,1.291.787,1.69.388.831a1.538,1.538,0,0,0,1.391.887h48.778a1.565,1.565,0,0,0,1.408-2.184Z" transform="translate(-302.687 -275.411)" fill="#3f3d56"/>
  <path id="Path_57105" data-name="Path 57105" d="M485.267,567.4l.385.835a1.551,1.551,0,0,0,1.393.886h48.78a1.562,1.562,0,0,0,1.406-2.182.465.465,0,0,0-.071-.122Z" transform="translate(-304.154 -279.826)" opacity="0.17" style="isolation: isolate"/>
  <path id="Path_57106" data-name="Path 57106" d="M383.2,431.51v.006l10.443,42.618H396l-12.195-51.348Z" transform="translate(-170.818 -188.464)" opacity="0.17" style="isolation: isolate"/>
  <path id="Path_57107" data-name="Path 57107" d="M547.752,272.161l-1.53-.205a1.6,1.6,0,0,0-1.181.316l-.914.7-10.181,12.736a1.6,1.6,0,0,0-.61,1.064l-.571,4.334L518.555,399.236a1.621,1.621,0,0,0,.283,1.136l6.7,18.456.2.288.432.615a1.629,1.629,0,0,0,.92.632l.97.244a1.6,1.6,0,0,0,1.3-.233,1.581,1.581,0,0,0,.687-1.12l1.735-13.18v-.005l1.109-8.458.937-7.133v-.006l15.319-116.517a1.6,1.6,0,0,0-1.378-1.795Z" transform="translate(-318.987 -148.38)" fill="#3f3d56"/>
  <path id="Path_57108" data-name="Path 57108" d="M549.747,272.976,531.154,418.83l.2.286.431.613a1.623,1.623,0,0,0,.92.632l.971.244a1.61,1.61,0,0,0,1.984-1.351l19.1-145.3a1.605,1.605,0,0,0-1.382-1.8l-1.534-.2a1.583,1.583,0,0,0-1.181.317Z" transform="translate(-324.609 -148.38)" opacity="0.17" style="isolation: isolate"/>
  <path id="Path_57109" data-name="Path 57109" d="M387.858,232.333l-9.867,14.084-11.728,89.232,6.358,12.614Z" transform="translate(-163.267 -103.566)" fill="#018073"/>
  <path id="Path_57110" data-name="Path 57110" d="M567.8,441.4l-6.419,28.241-4.1,4.493h-2.959l12.2-51.348.6,8.723v.006Z" transform="translate(-247.099 -188.464)" fill="#3f3d56"/>
  <path id="Path_57111" data-name="Path 57111" d="M750.727,557.21l-37.655-.238-3.342-.022-2.383-.017-2.777-.017h-.022a1.533,1.533,0,0,0-1.075.443l-4.689,4.689a1.21,1.21,0,0,0-.249.355.544.544,0,0,0-.072.122,1.565,1.565,0,0,0,1.408,2.184h48.778a1.552,1.552,0,0,0,1.4-.887l.382-.831.787-1.69.892-1.907a1.52,1.52,0,0,0,.144-.648A1.544,1.544,0,0,0,750.727,557.21Z" transform="translate(-399.132 -275.411)" fill="#3f3d56"/>
  <path id="Path_57112" data-name="Path 57112" d="M750.428,567.4l-.385.835a1.551,1.551,0,0,1-1.393.886H699.87a1.562,1.562,0,0,1-1.406-2.182.463.463,0,0,1,.071-.122Z" transform="translate(-399.133 -279.826)" opacity="0.17" style="isolation: isolate"/>
  <path id="Path_57113" data-name="Path 57113" d="M567.123,431.51v.006L556.68,474.135h-2.355l12.2-51.348Z" transform="translate(-247.099 -188.464)" opacity="0.17" style="isolation: isolate"/>
  <path id="Path_57114" data-name="Path 57114" d="M734.417,399.236l-14.781-112.46a1.6,1.6,0,0,0-.61-1.064l-10.176-12.736-.915-.7a1.623,1.623,0,0,0-1.186-.316l-1.53.205a1.6,1.6,0,0,0-1.386,1.8h0l15.319,116.522v.006l.937,7.127,1.114,8.463v.011l1.729,13.169a1.57,1.57,0,0,0,.693,1.12,1.592,1.592,0,0,0,1.291.233l.97-.244a1.628,1.628,0,0,0,.92-.632l.432-.615.2-.288,6.7-18.456A1.594,1.594,0,0,0,734.417,399.236Z" transform="translate(-401.578 -148.38)" fill="#3f3d56"/>
  <path id="Path_57115" data-name="Path 57115" d="M708.85,272.976,727.443,418.83l-.2.285-.431.613a1.623,1.623,0,0,1-.92.632l-.971.244a1.61,1.61,0,0,1-1.984-1.351l-19.1-145.3a1.605,1.605,0,0,1,1.382-1.8l1.534-.2a1.583,1.583,0,0,1,1.181.317Z" transform="translate(-401.579 -148.38)" opacity="0.17" style="isolation: isolate"/>
  <path id="Path_57116" data-name="Path 57116" d="M555.393,232.333l9.867,14.084,11.728,89.232-6.358,12.614Z" transform="translate(-247.575 -103.566)" fill="#018073"/>
  <path id="Path_57117" data-name="Path 57117" d="M343.237,602.067a4.545,4.545,0,0,1-.072.831c-.022.133-.05.26-.083.388a4.818,4.818,0,0,1-4.661,3.6H317.565v49.743a4.793,4.793,0,0,1-.981,2.91c-.477-.56-.948-1.12-1.413-1.685q-3.741-4.473-7.233-9.145V606.883h-9.311a4.814,4.814,0,0,1-.4-9.61q.2-.016.4-.017H338.42a4.815,4.815,0,0,1,4.816,4.811Z" transform="translate(-218.812 -293.393)" fill="#3f3d56"/>
  <path id="Path_57118" data-name="Path 57118" d="M942.867,602.067a4.819,4.819,0,0,1-3.093,4.5,4.713,4.713,0,0,1-1.347.3c-.122.011-.249.017-.371.017H928.75v45.148c-.139.183-.283.366-.427.549q-3.284,4.2-6.767,8.23a4.779,4.779,0,0,1-2.433-4.185V606.883H898.262a4.711,4.711,0,0,1-1.8-.349,4.8,4.8,0,0,1-2.893-3.37v-.006a4.759,4.759,0,0,1,.388-3.248c-.005-.006-.005-.006,0-.006a4.708,4.708,0,0,1,.853-1.2,4.818,4.818,0,0,1,3.447-1.452h39.794a4.81,4.81,0,0,1,4.811,4.81Z" transform="translate(-486.106 -293.394)" fill="#3f3d56"/>
  <path id="Path_57119" data-name="Path 57119" d="M969.909,438.6a15.083,15.083,0,0,0-15.083,15.083h0a15.086,15.086,0,0,0,12.193,14.8l0,24.67h9.628V438.6Z" transform="translate(-513.467 -222.669)" fill="#3f3d56"/>
  <path id="Path_57120" data-name="Path 57120" d="M482.173,537.13a7.616,7.616,0,0,0-11,3.926l-17.391.678-2.343,8.1,24.724,1.266a7.657,7.657,0,0,0,6.009-13.971Z" transform="translate(-289.075 -266.124)" fill="#9e616a"/>
  <path id="Path_57121" data-name="Path 57121" d="M420.847,524.079l-17.864-.223-2.261-.031-36.345-.458s-9.87-9.416-18.464-19.11l1.2-8.713a35.6,35.6,0,0,1,11.936-22.04c12.309,8.225,19.447,24.5,19.447,24.5l11.969,5.356h0a52.4,52.4,0,0,1,23.926,7.007l3.936,2.28Z" transform="translate(-242.034 -238.229)" fill="#018073"/>
  <path id="Path_57122" data-name="Path 57122" d="M582.385,846.816h64.435q-6.593.964-13.307,1.524H595.693Q588.975,847.783,582.385,846.816Z" transform="translate(-347.446 -404.639)" fill="#ccc"/>
  <path id="Path_57123" data-name="Path 57123" d="M605.554,767.2c1.247-11.255,8.063-22.419,18.73-26.219a52.173,52.173,0,0,0,.481,35.817c1.706,4.432,4.065,9.184,2.576,13.694a11.662,11.662,0,0,1-5.873,6.346,34.642,34.642,0,0,1-8.414,2.71l-.562.478C607.77,789.734,604.307,778.454,605.554,767.2Z" transform="translate(-357.659 -357.461)" fill="#ccc"/>
  <path id="Path_57124" data-name="Path 57124" d="M629.968,741a44.594,44.594,0,0,0-10.749,25.243,19.207,19.207,0,0,0,.3,6.009,11.013,11.013,0,0,0,2.807,5.072,22.8,22.8,0,0,1,3.594,4.187,6.744,6.744,0,0,1,.4,5.5,17.524,17.524,0,0,1-3.8,5.843c-1.712,1.945-3.521,3.938-4.226,6.5-.085.31-.561.159-.476-.15,1.226-4.45,5.5-7.025,7.494-11.045a6.83,6.83,0,0,0,.382-6,17.682,17.682,0,0,0-3.568-4.32,11.753,11.753,0,0,1-2.93-4.857,17.753,17.753,0,0,1-.529-5.976,43.266,43.266,0,0,1,2.984-13.189,45.385,45.385,0,0,1,7.985-13.186C629.843,740.389,630.177,740.761,629.968,741Z" transform="translate(-363.235 -357.27)" fill="#fff"/>
  <path id="Path_57125" data-name="Path 57125" d="M616.343,775.687a6.691,6.691,0,0,1-5.186-6.94.25.25,0,0,1,.5.018,6.2,6.2,0,0,0,4.837,6.446C616.807,775.282,616.655,775.757,616.343,775.687Z" transform="translate(-360.266 -369.735)" fill="#fff"/>
  <path id="Path_57126" data-name="Path 57126" d="M624.554,799.655a12.9,12.9,0,0,0,5.659-7.5c.086-.31.562-.159.476.15a13.413,13.413,0,0,1-5.9,7.8C624.51,800.265,624.281,799.822,624.554,799.655Z" transform="translate(-366.188 -380.195)" fill="#fff"/>
  <path id="Path_57127" data-name="Path 57127" d="M628.736,756.417a3.786,3.786,0,0,0,3.586-.23c.272-.171.5.273.23.443a4.243,4.243,0,0,1-3.967.263.258.258,0,0,1-.163-.313A.251.251,0,0,1,628.736,756.417Z" transform="translate(-367.964 -364.222)" fill="#fff"/>
  <path id="Path_57128" data-name="Path 57128" d="M662.812,775.523c-.167.112-.334.224-.5.339a49.876,49.876,0,0,0-6.31,5.064c-.154.141-.308.286-.458.432a52.579,52.579,0,0,0-11.209,15.782,51.053,51.053,0,0,0-2.7,7.273c-.986,3.438-1.782,7.244-3.787,10.072a8.759,8.759,0,0,1-.671.851l-18.46.247c-.042-.021-.085-.037-.127-.057l-.736.044c.028-.131.059-.266.087-.4.016-.076.036-.152.052-.228.012-.051.024-.1.032-.148,0-.017.008-.034.012-.046.008-.046.02-.089.028-.131q.263-1.135.542-2.269s0,0,0-.008a75.07,75.07,0,0,1,6.1-16.67c.082-.157.164-.318.255-.475a48.726,48.726,0,0,1,4.287-6.7,43.072,43.072,0,0,1,2.824-3.319,35.819,35.819,0,0,1,8.873-6.833c6.574-3.584,14.221-5.026,21.326-2.985C662.452,775.414,662.63,775.466,662.812,775.523Z" transform="translate(-363.256 -372.37)" fill="#ccc"/>
  <path id="Path_57129" data-name="Path 57129" d="M662.837,776.423a44.592,44.592,0,0,0-23.781,13.683,19.2,19.2,0,0,0-3.38,4.978,11.014,11.014,0,0,0-.812,5.74,22.8,22.8,0,0,1,.349,5.507,6.744,6.744,0,0,1-2.99,4.635,17.525,17.525,0,0,1-6.556,2.375c-2.538.522-5.183,1.024-7.285,2.642-.255.2-.544-.211-.29-.407,3.658-2.815,8.617-2.3,12.633-4.307a6.83,6.83,0,0,0,3.916-4.559,17.688,17.688,0,0,0-.248-5.6,11.753,11.753,0,0,1,.585-5.642,17.754,17.754,0,0,1,3.176-5.09,43.265,43.265,0,0,1,10.323-8.734,45.385,45.385,0,0,1,14.315-5.721c.313-.067.356.431.045.5Z" transform="translate(-363.32 -373.035)" fill="#fff"/>
  <path id="Path_57130" data-name="Path 57130" d="M658.148,790.227a6.69,6.69,0,0,1,.038-8.663c.21-.243.6.072.387.315a6.2,6.2,0,0,0-.018,8.059C658.763,790.181,658.355,790.47,658.148,790.227Z" transform="translate(-380.517 -375.512)" fill="#fff"/>
  <path id="Path_57131" data-name="Path 57131" d="M647.807,817.089a12.9,12.9,0,0,0,9.036-2.584c.255-.2.545.212.29.406a13.413,13.413,0,0,1-9.408,2.67C647.4,817.55,647.488,817.058,647.807,817.089Z" transform="translate(-376.481 -390.212)" fill="#fff"/>
  <path id="Path_57132" data-name="Path 57132" d="M680.76,782.462a3.787,3.787,0,0,0,3,1.975c.32.027.236.519-.083.492a4.244,4.244,0,0,1-3.326-2.178.258.258,0,0,1,.058-.348.251.251,0,0,1,.348.058Z" transform="translate(-391.097 -375.905)" fill="#fff"/>
  <ellipse id="Ellipse_802" data-name="Ellipse 802" cx="5.871" cy="5.871" rx="5.871" ry="5.871" transform="translate(303.26 407.09)" fill="#ccc"/>
  <path id="Path_57133" data-name="Path 57133" d="M741.4,831.119c-.36.105-.726.211-1.092.31q-4.98,1.4-10.032,2.555a5.869,5.869,0,1,1,11.123-2.865Z" transform="translate(-413.097 -395.141)" fill="#ccc"/>
  <path id="Path_57134" data-name="Path 57134" d="M802.125,809.6c-.449.211-.9.421-1.347.626-.488.233-.981.454-1.469.676-.549.249-1.092.493-1.641.737-2.062.92-4.146,1.807-6.235,2.66-.028-.044-.056-.094-.083-.144A5.872,5.872,0,0,1,801.7,808.6a6.523,6.523,0,0,1,.427,1Z" transform="translate(-440.284 -386.223)" fill="#ccc"/>
  <ellipse id="Ellipse_803" data-name="Ellipse 803" cx="5.871" cy="5.871" rx="5.871" ry="5.871" transform="translate(323.968 392.68)" fill="#ccc"/>
  <path id="Path_57135" data-name="Path 57135" d="M510.119,176.777c-34.534,9.084-72.8,14.61-111.706,16.123a139.871,139.871,0,0,1-17.115-.116c-12.52-1.053-23.245-4.988-35.188-7.139-5.742-1.031-12.138-1.785-17.918-2.9q2-2.486,4.079-4.911c12.465,1.053,25.123,4.5,37.738,6.1,21.443,2.727,45.469-.316,61.725-7.82,7.887-3.641,13.928-8.186,21.787-11.844a10.154,10.154,0,0,1,3.42-1.048,11.9,11.9,0,0,1,6.451,1.674c13.185,6.656,32.328,12.066,50.1,9.089C514.814,175.026,512.3,176.206,510.119,176.777Z" transform="translate(-234.135 -99.903)" fill="#fff"/>
  <path id="Path_57136" data-name="Path 57136" d="M797.159,228.739c.162-.03.325-.053.487-.081a13.247,13.247,0,0,1-1.92-1.447Z" transform="translate(-442.546 -128.44)" fill="#fff"/>
  <path id="Path_57137" data-name="Path 57137" d="M905.073,242.358q-11.132.89-22.38,1.325a140.989,140.989,0,0,1-17.115-.116c-12.52-1.059-23.245-4.988-35.188-7.139-10.946-1.968-24.248-2.915-31.2-7.283,17.963-3.109,36.574,3.22,55.1,5.576a131.561,131.561,0,0,0,44.9-2.217Q902.263,237.342,905.073,242.358Z" transform="translate(-444.09 -128.927)" fill="#fff"/>
  <path id="Path_57138" data-name="Path 57138" d="M638.72,252.572C621.335,192.9,611.1,131.371,611.1,69.216v-4.5h-5.777v4.5c0,62.155-10.233,123.682-27.618,183.356a31.756,31.756,0,0,0-1.264,8.891h0a8.665,8.665,0,0,0,8.665,8.665H596.66a11.553,11.553,0,0,0,23.106,0h8.99v24.9a4.965,4.965,0,1,0,1.108.092V270.128h1.455a8.665,8.665,0,0,0,8.665-8.665h0A31.76,31.76,0,0,0,638.72,252.572Z" transform="translate(-344.797 -56.004)" fill="#fff"/>
</svg>
