<svg xmlns="http://www.w3.org/2000/svg" width="103.318" height="114.159" viewBox="0 0 103.318 114.159">
  <g id="Motivation" transform="translate(5426.318 -1133)">
    <rect id="Rectangle_7276" data-name="Rectangle 7276" width="37" height="14" transform="translate(-5394 1231)" fill="#018073"/>
    <path id="Path_84514" data-name="Path 84514" d="M1856.593,0a2.8,2.8,0,0,1,1.024,2.523c-.043,2.889-.016,5.778-.018,8.667,0,.8-.219,1.558-1.043,1.766a2.2,2.2,0,0,1-1.624-.234,1.984,1.984,0,0,1-.653-1.422c-.057-3.147-.083-6.3.016-9.443.02-.628.625-1.238.96-1.857Z" transform="translate(-7230.583 1133)"/>
    <path id="Path_84515" data-name="Path 84515" d="M1798.112,100.4l-1.541-1.059a7.161,7.161,0,0,1-6.762,3.193c-2.854-.3-4.736-1.931-5.953-4.576a7.237,7.237,0,0,1-10.4-2.693,7.34,7.34,0,0,1-8,.486c0,1.519.051,2.876-.024,4.225a2.89,2.89,0,0,1-.543,1.617,1.606,1.606,0,0,1-2.653-.548,3.356,3.356,0,0,1-.18-1.2c-.01-6.167-.029-12.333,0-18.5.019-3.972,2.556-6.948,6.391-7.264a20.746,20.746,0,0,1,4.451.607,7.136,7.136,0,0,1,10.928-4.376c2.9-4.658,6.095-5.714,10.6-3.491.113-.21.243-.416.341-.637a7.036,7.036,0,0,1,13.549,2.692c.051,2.748.011,5.5.016,8.247,0,.251.026.5.041.756,1.172.125,2.29.151,3.365.377a9.064,9.064,0,0,1,6.389,5.087,21.546,21.546,0,0,1,2.043,8.378,79.57,79.57,0,0,1-1.483,19.832c-.5,2.79-1.446,5.5-2.22,8.241a1.648,1.648,0,0,1-1.725,1.306,1.629,1.629,0,0,1-1.489-2.366c2.927-7.81,3.419-15.988,3.629-24.2a22.428,22.428,0,0,0-1.2-8.333c-1.257-3.443-3.225-4.817-6.9-4.821q-8.247-.008-16.494,0c-1.653,0-2.042.462-1.806,2.108a6.135,6.135,0,0,0,5.188,5.359c3.776.786,7.544,1.605,11.313,2.427,1.583.345,2.014,1.061,1.614,2.65-.425,1.69-.795,3.4-1.362,5.044a2.711,2.711,0,0,1-1.407,1.507,25.713,25.713,0,0,0-15.435,14.215c-.543,1.225-1.372,1.617-2.363,1.2-1.024-.429-1.293-1.337-.751-2.61a28.157,28.157,0,0,1,9.792-12.157c.329-.234.66-.463,1.04-.73m-21.866-16.309h-.011c0,2.526-.012,5.051.01,7.577a5.33,5.33,0,0,0,.213,1.639,3.466,3.466,0,0,0,3.749,2.327,3.427,3.427,0,0,0,3.16-3.436c.034-5.385.018-10.771,0-16.156a3.5,3.5,0,0,0-.217-1.191,3.534,3.534,0,0,0-4.025-2.234,3.409,3.409,0,0,0-2.87,3.34c-.046,2.71-.012,5.422-.012,8.133m-3.587,1.28c0-1.484.03-2.969-.007-4.452a3.485,3.485,0,0,0-3.6-3.46,3.392,3.392,0,0,0-3.508,3.294q-.122,4.56,0,9.125a3.512,3.512,0,0,0,3.569,3.391,3.59,3.59,0,0,0,3.542-3.557c.032-1.446.007-2.894.005-4.341m25.05-7.466c2.259,0,4.372.02,6.484-.03a.926.926,0,0,0,.63-.65c.017-3.006.07-6.018-.084-9.019a3.55,3.55,0,0,0-6.994,0c-.121,3.182-.036,6.372-.036,9.694m-10.739,6.548c0,3.784-.036,7.569.016,11.352a3.439,3.439,0,0,0,3.4,3.3,3.482,3.482,0,0,0,3.689-3.24,23.324,23.324,0,0,0,.009-3.115,1.194,1.194,0,0,0-.609-.868,10.2,10.2,0,0,1-6.505-7.433m7.132-6.528c0-1.9.047-3.6-.012-5.3a3.561,3.561,0,0,0-7.12.073c-.036,2.151-.012,4.3-.013,6.456q0,1,0,2.007c1.391-3.246,4.129-3.409,7.146-3.233m3.732,14.929c-.468,2.462.792,4.452,2.849,4.692a3.4,3.4,0,0,0,4.011-3.213l-6.861-1.479" transform="translate(-7165.848 1089.6)"/>
    <path id="Path_84516" data-name="Path 84516" d="M1775.221,240.52c.476.024.84.058,1.2.058,9.064-.005,18.128-.036,27.192,0,1.168.005,1.418-.366,1.406-1.461a39.43,39.43,0,0,1,.276-6.209,8.758,8.758,0,0,1,1.515-3.287c1-1.517,2.17-2.917,3.272-4.364a1.688,1.688,0,0,1,2.4-.633,1.718,1.718,0,0,1,.337,2.625c-.945,1.331-1.92,2.645-2.952,3.909a6.133,6.133,0,0,0-1.488,4.2c.045,1.7.01,3.408.01,5.083,1.746.615,1.94.883,1.941,2.676q0,6.408,0,12.816c0,1.862-.518,2.362-2.4,2.363q-9.584,0-19.168,0c-.186,0-.372.007-.557,0a1.723,1.723,0,0,1-1.831-1.692,1.677,1.677,0,0,1,1.845-1.656c2.786-.019,5.573-.006,8.359-.007q4.569,0,9.138-.009h1.146V244.085h-33.589V254.94h1.18c2.266,0,4.532-.016,6.8.009a1.634,1.634,0,0,1,1.762,1.61,1.653,1.653,0,0,1-1.77,1.728q-4.792.038-9.584,0a1.641,1.641,0,0,1-1.8-1.817q-.03-7.021,0-14.042c0-1.176.7-1.736,1.916-1.848.049-4.264.531-8.439-2.617-12.136-3.745-4.4-5.458-9.814-6.419-15.445-.323-1.9-.472-3.83-.605-5.753a1.715,1.715,0,0,1,1.687-1.952c.884-.034,1.546.636,1.68,1.717.05.405.077.814.1,1.221A33.4,33.4,0,0,0,1768.256,220a37.845,37.845,0,0,0,3.93,6.809,14.273,14.273,0,0,1,3.04,8.98c-.035,1.55-.006,3.1-.006,4.727" transform="translate(-7165.918 988.854)"/>
    <path id="Path_84517" data-name="Path 84517" d="M1693,171.089c-1.557,0-3.114.016-4.672-.006a1.679,1.679,0,0,1-1.848-1.644,1.705,1.705,0,0,1,1.838-1.681q4.727-.04,9.454,0a1.65,1.65,0,0,1,1.823,1.671,1.618,1.618,0,0,1-1.813,1.656c-1.594.023-3.188.006-4.782.005" transform="translate(-7112.797 1015.223)"/>
    <path id="Path_84518" data-name="Path 84518" d="M1995.821,171.089c-1.557,0-3.115.017-4.671-.005a1.617,1.617,0,0,1-1.817-1.649,1.644,1.644,0,0,1,1.815-1.677q4.727-.04,9.454,0a1.708,1.708,0,0,1,1.845,1.675,1.673,1.673,0,0,1-1.843,1.65c-1.594.022-3.188.006-4.783.006" transform="translate(-7325.446 1015.223)"/>
    <path id="Path_84519" data-name="Path 84519" d="M1746.134,57.848a6.437,6.437,0,0,1-1.18,1.386,1.548,1.548,0,0,1-2.013-.386c-1.292-1.276-2.57-2.567-3.855-3.851-.944-.943-1.906-1.869-2.829-2.833a1.673,1.673,0,1,1,2.343-2.37q3.369,3.315,6.681,6.687a8.169,8.169,0,0,1,.853,1.367" transform="translate(-7147.315 1098.46)"/>
    <path id="Path_84520" data-name="Path 84520" d="M1960.229,50.751a8.941,8.941,0,0,1-.919,1.443q-3.23,3.292-6.518,6.526a1.685,1.685,0,1,1-2.36-2.356c2.188-2.212,4.4-4.4,6.6-6.605a1.569,1.569,0,0,1,2.009-.4,5.983,5.983,0,0,1,1.192,1.4" transform="translate(-7297.645 1098.495)"/>
    <path id="Path_84521" data-name="Path 84521" d="M1905.537,37.289c-1.4.025-2.248-.974-1.915-2.017a35.763,35.763,0,0,1,1.483-3.829,1.525,1.525,0,0,1,2.065-.8,1.448,1.448,0,0,1,1,1.868,29.876,29.876,0,0,1-1.585,4.018c-.2.415-.834.62-1.045.765" transform="translate(-7265.213 1111.578)"/>
    <path id="Path_84522" data-name="Path 84522" d="M1805.654,36.121a6.467,6.467,0,0,1-1.378,1.4,1.3,1.3,0,0,1-1.833-.552,24.163,24.163,0,0,1-1.606-4.233,1.585,1.585,0,0,1,2.732-1.284,45.706,45.706,0,0,1,2.086,4.671" transform="translate(-7193.081 1111.232)"/>
    <path id="Path_84523" data-name="Path 84523" d="M1722.894,119.058a43.1,43.1,0,0,1-4.586-2.039c-.385-.223-.536-1.275-.405-1.859a1.327,1.327,0,0,1,1.779-.915,31.541,31.541,0,0,1,3.927,1.529,1.343,1.343,0,0,1,.671,1.892,6.74,6.74,0,0,1-1.386,1.392" transform="translate(-7134.828 1052.838)"/>
    <path id="Path_84524" data-name="Path 84524" d="M1986.675,116.3c-.2.237-.494.857-.979,1.108a24.786,24.786,0,0,1-3.394,1.365,1.658,1.658,0,1,1-1.174-3.1c1.049-.461,2.115-.9,3.2-1.266,1.261-.431,2.361.315,2.348,1.893" transform="translate(-7318.884 1052.755)"/>
  </g>
</svg>
