<svg xmlns="http://www.w3.org/2000/svg" xmlns:xlink="http://www.w3.org/1999/xlink" width="30" height="30" viewBox="0 0 30 30">
  <defs>
    <linearGradient id="linear-gradient" y1="0.477" x2="1" y2="0.482" gradientUnits="objectBoundingBox">
      <stop offset="0" stop-color="#009385"/>
      <stop offset="1" stop-color="#005b4e"/>
    </linearGradient>
    <clipPath id="clip-path">
      <rect id="Rectangle_7274" data-name="Rectangle 7274" width="12" height="13.502" fill="#fff"/>
    </clipPath>
  </defs>
  <g id="Group_51276" data-name="Group 51276" transform="translate(1365 2468)">
    <circle id="Ellipse_826" data-name="Ellipse 826" cx="15" cy="15" r="15" transform="translate(-1365 -2468)" fill="url(#linear-gradient)"/>
    <g id="Group_51275" data-name="Group 51275" transform="translate(-1356 -2460)">
      <g id="Group_40760" data-name="Group 40760" clip-path="url(#clip-path)">
        <path id="Path_84446" data-name="Path 84446" d="M0,6.75c0-.843,0-1.686,0-2.529a1.843,1.843,0,0,1,1-1.7Q3.026,1.387,5.052.265A1.825,1.825,0,0,1,6.926.253c1.373.756,2.746,1.512,4.111,2.281a1.787,1.787,0,0,1,.957,1.634q.013,2.588,0,5.175a1.776,1.776,0,0,1-.943,1.619C9.68,11.738,8.3,12.5,6.919,13.254a1.836,1.836,0,0,1-1.875-.02C3.7,12.489,2.355,11.75,1.013,11A1.854,1.854,0,0,1,0,9.279Q0,8.015,0,6.75m3.749.361c-.088-.109-.136-.167-.182-.227q-.676-.9-1.351-1.794A.385.385,0,0,0,1.76,4.9a.389.389,0,0,0-.26.423c0,.952,0,1.9,0,2.855,0,.275.146.444.372.445s.374-.168.376-.441c0-.523,0-1.045,0-1.568,0-.056.011-.112.021-.208.514.683,1,1.329,1.489,1.979.12.161.252.288.468.22s.273-.248.272-.463c0-.928,0-1.857,0-2.785,0-.309-.145-.486-.385-.479s-.363.174-.364.477c0,.561,0,1.123,0,1.755M6,5.628c.369,0,.718,0,1.067,0a.376.376,0,1,0,.01-.747q-.7-.007-1.405,0a.375.375,0,0,0-.425.415c0,.976-.006,1.952.005,2.927a.435.435,0,0,0,.151.316.41.41,0,0,0,.36.039.506.506,0,0,0,.22-.342c.029-.362.01-.727.01-1.107.388,0,.746.006,1.1,0a.371.371,0,0,0,.387-.444.378.378,0,0,0-.414-.3c-.355,0-.711,0-1.07,0ZM9,5.625c0,.869,0,1.7,0,2.535,0,.294.142.465.376.464s.372-.173.373-.468q0-1.134,0-2.269V5.625c.155,0,.28.009.4,0a.369.369,0,0,0,.345-.374.359.359,0,0,0-.353-.365q-.771-.015-1.543,0a.358.358,0,0,0-.349.369.369.369,0,0,0,.349.371c.123.011.247,0,.4,0" transform="translate(-0.001 0)" fill="#fff"/>
      </g>
    </g>
  </g>
</svg>
