<svg xmlns="http://www.w3.org/2000/svg" width="522.428" height="370.035" viewBox="0 0 522.428 370.035">
  <g id="Process_Image" data-name="Process Image" transform="translate(-816.581 -1736.77)">
    <path id="Path_29013" data-name="Path 29013" d="M280.083,126.526H77.743a6.46,6.46,0,0,1-6.459-6.459V6.46A6.46,6.46,0,0,1,77.743,0h202.34a6.46,6.46,0,0,1,6.459,6.459V120.066a6.46,6.46,0,0,1-6.459,6.459" transform="translate(895.232 1736.771)" fill="#bcd9d7"/>
    <path id="Path_29014" data-name="Path 29014" d="M276.254,126.526H73.914a6.46,6.46,0,0,1-6.459-6.459V6.46A6.46,6.46,0,0,1,73.914,0H276.254a6.46,6.46,0,0,1,6.459,6.459V120.066a6.46,6.46,0,0,1-6.459,6.459" transform="translate(891.007 1736.771)" fill="#e5f2f1"/>
    <rect id="Rectangle_3850" data-name="Rectangle 3850" width="12.868" height="35.315" transform="translate(1001.555 1806.512)" fill="#018073" opacity="0.281"/>
    <rect id="Rectangle_3851" data-name="Rectangle 3851" width="12.868" height="35.315" transform="translate(1119.252 1806.512)" fill="#018073" opacity="0.281"/>
    <rect id="Rectangle_3852" data-name="Rectangle 3852" width="12.866" height="53.37" transform="translate(1030.981 1788.331)" fill="#018073" opacity="0.281"/>
    <rect id="Rectangle_3853" data-name="Rectangle 3853" width="12.868" height="68.729" transform="translate(1060.403 1772.972)" fill="#018073" opacity="0.281"/>
    <rect id="Rectangle_3854" data-name="Rectangle 3854" width="12.868" height="83.904" transform="translate(1089.828 1758.081)" fill="#018073" opacity="0.281"/>
    <path id="Path_29015" data-name="Path 29015" d="M198.079,83.708s-5.044-6.823-10.611-8.493-11.335-1.786-9.145.917a53.793,53.793,0,0,0,7.2,6.489l-8.2,1.277a69.407,69.407,0,0,0-9.654.49c-3.887.606-3.855,3.645-3.855,3.645s-3.887.606-4.951,2.293.972,3.4.972,3.4-4.949,2.293-1.386,5.288,16.271,5.075,22.039,5.191,17.195-3.187,17.195-3.187,10.624-2.148.4-17.311" transform="translate(989.978 1818.439)" fill="#fc907e"/>
    <path id="Path_29016" data-name="Path 29016" d="M164.382,92.168a.535.535,0,0,1-.324-.111.526.526,0,0,1-.09-.738l9.73-12.439a.526.526,0,1,1,.829.648L164.8,91.966a.528.528,0,0,1-.414.2" transform="translate(997.37 1823.578)"/>
    <path id="Path_29017" data-name="Path 29017" d="M179.862,86.071a9.914,9.914,0,0,1-6.7-2.084,7.1,7.1,0,0,1-2.4-5.147.492.492,0,0,1,.534-.517.531.531,0,0,1,.517.536,6.138,6.138,0,0,0,2.047,4.345c1.964,1.7,5.132,2.211,9.412,1.514a.535.535,0,0,1,.6.435.53.53,0,0,1-.435.606,22.737,22.737,0,0,1-3.584.311" transform="translate(1004.995 1823.183)"/>
    <path id="Path_29018" data-name="Path 29018" d="M218.4,104.607,189.177,81.95,170.535,97.818s17.407,40.733,42.761,41.343c20.039.484,24.382-19.847,24.382-19.847Z" transform="translate(1004.74 1827.188)" fill="#005b4e"/>
    <path id="Path_29019" data-name="Path 29019" d="M219.081,58.072S237.01,93.078,208.75,94.365s10.332-36.293,10.332-36.293" transform="translate(1035.489 1800.843)"/>
    <path id="Path_29020" data-name="Path 29020" d="M297.851,101.87c2.059-1.643,45.226-7.848,43.571,52.552S272.2,249.441,198.03,236.413s-3.958-99.648-3.958-99.648Z" transform="translate(997.539 1848.073)" fill="#e2dde8"/>
    <path id="Path_29021" data-name="Path 29021" d="M165.484,146.757l1.275,14.189h27.255v-16.07Z" transform="translate(999.167 1896.618)" fill="#fc907e"/>
    <path id="Path_29022" data-name="Path 29022" d="M188.6,153.313l2.753,14.229,30-7.114-5.242-15.552Z" transform="translate(1024.669 1896.618)" fill="#fc907e"/>
    <path id="Path_29023" data-name="Path 29023" d="M180.565,141.127s4.026-52.865,23.088-59.48c27.569-9.57,47.628.248,47.628.248l-1.323,67.883Z" transform="translate(1015.806 1822.231)" fill="#005b4e"/>
    <path id="Path_29024" data-name="Path 29024" d="M214.435,107.969s-39.417-10.128-50.224,7.458,4.306,84.7,4.306,84.7H204.81Z" transform="translate(993.464 1852.695)" fill="#34324b"/>
    <path id="Path_29025" data-name="Path 29025" d="M164.49,153.156a.525.525,0,0,1-.473-.757c.116-.233,2.816-5.694,5.595-6.63a2.342,2.342,0,0,1,1.857.1,10.49,10.49,0,0,1,4.209,4.541c1.344-2.034,4.823-6.857,7.671-6.857s4.92,4.72,5.713,6.872c1.34-1.777,4.493-5.488,6.823-4.575,2.781,1.1,3.672,5.191,3.708,5.364a.526.526,0,0,1-1.029.219c-.008-.038-.814-3.71-3.067-4.6-1.569-.62-4.619,2.751-6.169,5.025a.515.515,0,0,1-.513.223.525.525,0,0,1-.425-.364c-.618-1.975-2.73-7.107-5.042-7.107-2.387,0-6.074,5.176-7.294,7.172a.512.512,0,0,1-.494.248.524.524,0,0,1-.444-.332c-.015-.036-1.4-3.515-4.12-4.884a1.29,1.29,0,0,0-1.05-.042c-1.96.658-4.263,4.623-4.983,6.1a.531.531,0,0,1-.473.294" transform="translate(997.489 1895.157)" fill="#fff"/>
    <path id="Path_29026" data-name="Path 29026" d="M286.341,122.454s9.921,31.67-6.527,38.054-50.56,6.58-50.56,6.58l15.382,28.222-49.471,15.238s-41.082-77.127-16.078-97.684,77.639,9.375,77.639,9.375Z" transform="translate(1005.271 1853.344)" fill="#3f3d56"/>
    <path id="Path_29027" data-name="Path 29027" d="M188.778,148.887s-9.434,11.131-11.627,12.189-25.061,8.758-29.447,13.051-4.7,12.736-3.447,13.529,76.484,0,76.484,0l.789-36.276Z" transform="translate(975.039 1901.043)" fill="#65617d"/>
    <path id="Path_29028" data-name="Path 29028" d="M205.218,158.052s-3.843,14.913-6.937,16.482-16.4,9.921-23.637,17.506c-6.062,6.358,0,10.01,0,10.01h41.915l36.028-26.468-12.868-27.531Z" transform="translate(1006.3 1900.121)" fill="#65617d"/>
    <path id="Path_29029" data-name="Path 29029" d="M168.84,152.52s10.491,12.027,8.092,13S154.273,163.4,154.8,161.23s11.615-8.887,14.044-8.71" transform="translate(987.363 1905.047)" fill="#50447e"/>
    <path id="Path_29030" data-name="Path 29030" d="M191.692,157.1s13.447,8.594,11.419,10.205-22.344,4.329-22.451,2.1,8.651-11.793,11.032-12.307" transform="translate(1015.909 1910.103)" fill="#50447e"/>
    <path id="Path_29031" data-name="Path 29031" d="M211.637,72.29l.774,10.79s-1.983,3.315-9.1,4.522c-5.3.9-7.248.017-7.248.017l.351-5.536.351-5.4L209.5,72.923Z" transform="translate(1032.909 1816.53)" fill="#fc907e"/>
    <path id="Path_29032" data-name="Path 29032" d="M209.381,72.606a4.068,4.068,0,0,1-.254,1.212c-2.221,6.354-9.886,9.141-12.946,9.68l.5-6.943Z" transform="translate(1033.035 1816.879)"/>
    <path id="Path_29033" data-name="Path 29033" d="M195.536,64.034s-5.122,15.908-1.859,24.224S204.6,94.444,209.1,92.318a15.527,15.527,0,0,0,6.377-5.2,6.611,6.611,0,0,0,7.015-3.309c2.507-4.348.242-8.821-2.354-9.638s-5.374,1.281-5.374,1.281l1.872-4.661s-12.027-21.519-21.1-6.754" transform="translate(1029.073 1801.71)" fill="#fc907e"/>
    <path id="Path_29034" data-name="Path 29034" d="M195.734,74.431a.524.524,0,0,1-.482-.318c-1.365-3.163.581-6.737.665-6.888a.525.525,0,0,1,.919.509c-.017.034-1.777,3.277-.618,5.963a.529.529,0,0,1-.484.734" transform="translate(1031.477 1810.641)"/>
    <path id="Path_29035" data-name="Path 29035" d="M204.055,73.211a.526.526,0,0,1-.419-.843L207.3,67.54a.526.526,0,1,1,.837.637L204.474,73a.524.524,0,0,1-.419.208" transform="translate(1041.143 1811.06)"/>
    <path id="Path_29036" data-name="Path 29036" d="M207.6,69.962l-2.93-.126a.525.525,0,0,1-.5-.547.513.513,0,0,1,.547-.5l2.909.126a.526.526,0,0,1-.023,1.052" transform="translate(1041.848 1812.662)"/>
    <path id="Path_29037" data-name="Path 29037" d="M197.48,123.946a.524.524,0,0,1-.421-.21,56.174,56.174,0,0,1-6.3-11.589c-4.282-10.63-.2-25.928-.021-26.572a.526.526,0,1,1,1.016.276c-.042.156-4.171,15.6-.019,25.9A55,55,0,0,0,197.9,123.1a.528.528,0,0,1-.421.841" transform="translate(1024.905 1830.76)" fill="#fff"/>
    <path id="Path_29038" data-name="Path 29038" d="M196.155,74.633A.524.524,0,0,1,195.64,74c.023-.118.6-2.9,2.955-3.166a5.756,5.756,0,0,1,4,1.268.526.526,0,0,1,.17.515.535.535,0,0,1-.381.393l-6.1,1.6a.573.573,0,0,1-.133.017m2.951-2.774a3.483,3.483,0,0,0-.391.023,2.326,2.326,0,0,0-1.746,1.468l3.975-1.043a4.327,4.327,0,0,0-1.838-.448" transform="translate(1032.426 1814.896)"/>
    <path id="Path_29039" data-name="Path 29039" d="M197.372,65.28a.526.526,0,0,1-.1-1.043,21.777,21.777,0,0,1,4.125-.4.529.529,0,0,1,.469.581.545.545,0,0,1-.578.469,18.981,18.981,0,0,0-3.82.385.523.523,0,0,1-.1.008" transform="translate(1033.771 1807.183)"/>
    <path id="Path_29040" data-name="Path 29040" d="M196.049,65.551a.538.538,0,0,1-.219-.046,4.012,4.012,0,0,0-1.95-.45.515.515,0,0,1-.593-.444.521.521,0,0,1,.433-.6,4.742,4.742,0,0,1,2.547.532.526.526,0,0,1-.219,1" transform="translate(1029.836 1807.378)"/>
    <path id="Path_29041" data-name="Path 29041" d="M195.037,70.263a.532.532,0,0,1-.526-.547l.1-2.644-1.06-1.058a.525.525,0,1,1,.742-.742l1.224,1.22a.526.526,0,0,1,.154.393l-.112,2.873a.525.525,0,0,1-.526.5" transform="translate(1029.967 1808.616)"/>
    <path id="Path_29042" data-name="Path 29042" d="M199.381,70.245a.53.53,0,0,1-.526-.536l.05-2.614-1.544-1.226a.526.526,0,0,1,.652-.827l1.75,1.388a.537.537,0,0,1,.2.425l-.057,2.875a.525.525,0,0,1-.526.515" transform="translate(1034.118 1808.407)"/>
    <path id="Path_29043" data-name="Path 29043" d="M213.566,79.093s-7.475-1.641-10.279-6.954-2.429-7.7-2.429-7.7-3.91,1.855-5.469,4.566a17.987,17.987,0,0,0-1.908,4.192s-.745-6.167.053-7.97,5.189-11.913,19.593-9.431c21.843,3.765,11.4,20.88.44,23.3" transform="translate(1029.708 1797.898)"/>
    <path id="Path_29044" data-name="Path 29044" d="M224.606,100.23s-.673-.294-3.523-1.315c-2.7-.965-12.441-.225-12.441-.225a81.845,81.845,0,0,0-15.531,4.034c-7.059,2.787-6.1,5.967-6.1,5.967s-4.545,2.387-2.863,4.394,8.912.785,8.912.785-9.208,2.6-5.7,4.918,15.249-1.458,15.249-1.458,17.4,8.039,23.783,2.406-1.788-19.506-1.788-19.506" transform="translate(1019.347 1845.359)" fill="#fc907e"/>
    <path id="Path_29045" data-name="Path 29045" d="M205.2,118.685l-7.1,28.406s46.24,36.356,65.555,7.85S247.039,83.713,231.931,79.7s-7.475,41.9-7.475,41.9Z" transform="translate(1035.156 1824.429)" fill="#005b4e"/>
    <path id="Path_29046" data-name="Path 29046" d="M204.787,141.4a.542.542,0,0,1-.271-.074c-1.163-.7-11.375-6.926-11.32-11.158a2.706,2.706,0,0,1,1.58-2.37,3.516,3.516,0,0,1,3.269-.21c4.449,1.927,7.141,12.7,7.254,13.161a.528.528,0,0,1-.511.652m-8.165-13.066a2.706,2.706,0,0,0-1.331.381,1.706,1.706,0,0,0-1.043,1.468c-.036,2.741,6.186,7.3,9.677,9.537-.848-2.9-3.163-9.808-6.3-11.167a2.511,2.511,0,0,0-1-.219" transform="translate(1029.741 1877.207)" fill="#fff"/>
    <path id="Path_29047" data-name="Path 29047" d="M198.379,126.934a.526.526,0,0,1-.023-1.052c.042,0,4.293-.221,5.647-2.154,1.857-2.654-1.876-5.488-2.038-5.605a.528.528,0,0,1,.137-.917c.048-.017,4.819-1.767,6.31-5.42.869-2.129-2.425-6.192-3.769-7.578a.525.525,0,0,1-.1-.591.5.5,0,0,1,.52-.3c1.195.1,4.493.067,5.3-1.3.393-.667.154-1.664-.711-2.959a.525.525,0,0,1-.032-.532.533.533,0,0,1,.45-.286c.816-.027,20.173-.637,30.185,3.231a.527.527,0,1,1-.381.982c-8.607-3.327-24.885-3.269-28.87-3.18a3.272,3.272,0,0,1,.263,3.279c-.913,1.546-3.454,1.83-5.027,1.851,1.472,1.716,4.15,5.315,3.144,7.776-1.285,3.144-4.56,4.962-6.106,5.671,1.559,1.443,3.281,4.053,1.586,6.478-1.651,2.358-6.268,2.591-6.464,2.6Z" transform="translate(1034.88 1845.111)" fill="#fff"/>
    <path id="Path_29048" data-name="Path 29048" d="M211.071,102.027a.525.525,0,0,1-.286-.965c1.087-.711,10.725-6.872,14.189-4.409a1.19,1.19,0,0,1,.612,1.287c-.541,2.135-10.285,3.567-14.45,4.083a.638.638,0,0,1-.065,0m11.741-4.918c-2.5,0-6.512,1.935-9.305,3.529,5.995-.892,10.834-2.158,11.059-2.959-.011,0-.063-.069-.2-.168a2.651,2.651,0,0,0-1.552-.4" transform="translate(1048.886 1842.773)" fill="#fff"/>
    <path id="Path_29049" data-name="Path 29049" d="M205.366,87.75c-1.971,0-3.151-2-3.645-3.1-1.094.822-3.508,2.41-5.237,2.274a1.3,1.3,0,0,1-1.144-.711c-.62-1.268.93-3.778,1.247-4.268a.5.5,0,0,1,.5-.236c.107.006,10.971,1.165,15.893-4.367a.512.512,0,0,1,.532-.158.526.526,0,0,1,.376.406c.183.946,1.005,5.713-.782,6.623-1.287.656-2.713-.351-3.55-1.125-.416,1.491-1.462,4.2-3.626,4.606a3.32,3.32,0,0,1-.564.05m-3.42-4.467a.5.5,0,0,1,.145.021.517.517,0,0,1,.353.341c.013.034,1.138,3.431,3.294,3.018,1.855-.343,2.8-3.523,3.01-4.722a.528.528,0,0,1,.923-.246c.471.566,2.03,2.068,2.955,1.588.6-.307.675-2.4.4-4.48-5.025,4.632-13.865,4.15-15.72,3.988-.686,1.138-1.233,2.522-1.018,2.962.017.032.053.109.288.128,1.5.137,4.156-1.744,5.037-2.476a.526.526,0,0,1,.337-.122" transform="translate(1031.947 1821.914)" fill="#fff"/>
    <path id="Path_29050" data-name="Path 29050" d="M225.248,127.85H166.239L149.387,89.729h56.681a3.574,3.574,0,0,1,3.269,2.129Z" transform="translate(981.406 1835.771)" fill="#494762"/>
    <path id="Path_29051" data-name="Path 29051" d="M221.994,127.85H162.984L147.943,93.828a2.92,2.92,0,0,1,2.671-4.1h54.525Z" transform="translate(979.535 1835.771)" fill="#171539"/>
    <path id="Path_29052" data-name="Path 29052" d="M239.825,112.668H156.511a2.407,2.407,0,1,1,0-4.815h83.313a2.407,2.407,0,1,1,0,4.815" transform="translate(986.609 1855.768)" fill="#50447e"/>
    <path id="Path_29053" data-name="Path 29053" d="M185.59,107.085a.527.527,0,0,1-.265-.982,69.147,69.147,0,0,1,13.89-5.729.526.526,0,0,1,.288,1.012,67.771,67.771,0,0,0-13.653,5.631.533.533,0,0,1-.261.069" transform="translate(1020.769 1847.492)"/>
    <path id="Path_29054" data-name="Path 29054" d="M188.052,108.457a.526.526,0,0,1-.292-.963c.212-.141,5.269-3.483,10.02-3.893a.519.519,0,0,1,.57.48.524.524,0,0,1-.48.568c-4.486.387-9.476,3.687-9.526,3.721a.534.534,0,0,1-.292.088" transform="translate(1023.486 1851.069)"/>
    <path id="Path_29055" data-name="Path 29055" d="M225.642,168.857a.527.527,0,0,1-.269-.978A71.965,71.965,0,0,0,252.72,138.5a.527.527,0,1,1,.965.421,73.1,73.1,0,0,1-27.775,29.865.54.54,0,0,1-.269.074" transform="translate(1064.961 1889.231)" fill="#fff"/>
    <path id="Path_29056" data-name="Path 29056" d="M205.334,66.7s9.612-20.518,18.013-11.348S213.03,76.7,213.03,76.7Z" transform="translate(1043.135 1795.234)"/>
    <path id="Path_29057" data-name="Path 29057" d="M51.516,100.425C49.49,98.808,6.99,92.7,8.618,152.163s68.155,93.546,141.172,80.72,3.9-98.1,3.9-98.1Z" transform="translate(826.039 1846.496)" fill="#e2dde8"/>
    <path id="Path_29058" data-name="Path 29058" d="M45.74,166.385a.54.54,0,0,1-.269-.074A71.977,71.977,0,0,1,18.123,136.9a.526.526,0,1,1,.965-.419,70.88,70.88,0,0,0,26.921,28.921.527.527,0,0,1-.269.978" transform="translate(836.529 1887.013)" fill="#fff"/>
    <path id="Path_29059" data-name="Path 29059" d="M83.674,83.177s6.655.488,4.537,9.9-8.184-2.291-8.184-2.291Z" transform="translate(904.878 1828.542)" fill="#fc8165"/>
    <path id="Path_29060" data-name="Path 29060" d="M154.141,194.921c-1.294.74-76.311-3.147-78-4.695-.6-.553-.568-4.118-.084-9.2.871-9.244,6.1-25.03,8.985-34.766,0,0,26.256,1.765,28.595,3.258,2.36,1.506,27.646,22.851,27.646,22.851s9.65,3.672,13.11,9.381a12.43,12.43,0,0,1,1.7,5.12c.435,4.028-1.054,7.549-1.958,8.05" transform="translate(900.097 1898.147)" fill="#65617d"/>
    <path id="Path_29061" data-name="Path 29061" d="M154.141,176.684c-1.294.74-76.311-3.147-78-4.695-.6-.553-.568-4.118-.084-9.2l80.041,5.843c.435,4.028-1.054,7.549-1.958,8.049" transform="translate(900.097 1916.384)" fill="#50447e"/>
    <path id="Path_29062" data-name="Path 29062" d="M114.53,160.686c-.042,0-21.957-1.756-21.957-1.756a.525.525,0,0,1-.244-.963l10.761-7.031a.525.525,0,1,1,.574.879l-9.471,6.192,20.379,1.63a.526.526,0,0,1-.042,1.05" transform="translate(918.188 1903.206)" fill="#50447e"/>
    <path id="Path_29063" data-name="Path 29063" d="M94.967,124.887s41.648-29.453,77.594-20.411-16.549,96.457-16.549,96.457l-52.251.118,5.092-25.045-62.728-.122L73.8,136.693Z" transform="translate(867.473 1850.139)" fill="#34324b"/>
    <path id="Path_29064" data-name="Path 29064" d="M92.529,122.961a.534.534,0,0,1-.282-.082.527.527,0,0,1-.164-.726,65.361,65.361,0,0,1,11.03-12.805.526.526,0,1,1,.681.8,64.092,64.092,0,0,0-10.822,12.567.525.525,0,0,1-.444.244" transform="translate(918.091 1857.281)" fill="#fff"/>
    <path id="Path_29065" data-name="Path 29065" d="M72.776,93.512l35.759,10.79s.36,24.174-22.348,30.776S60.844,114.15,60.844,114.15Z" transform="translate(883.713 1839.945)" fill="#018073"/>
    <path id="Path_29066" data-name="Path 29066" d="M75.718,98.064s-1.113,13.581,9.709,12.29S95.584,93.525,95.584,93.525Z" transform="translate(900.088 1839.96)" fill="#fc8165"/>
    <path id="Path_29067" data-name="Path 29067" d="M40.971,184.235s-20.842-75.243-3.294-95.95,58.29-3.454,58.29-3.454l19.494,69.053Z" transform="translate(850.397 1822.932)" fill="#018073"/>
    <path id="Path_29068" data-name="Path 29068" d="M50.654,113.036S61.187,96.348,66.3,94.449s17.477.6,17.479,2.082-11.446,3.281-11.446,3.281,6.436,11.249,6.539,13.775-5.7,9.89-6.977,10.624-4.476-3.37-4.476-3.37a18.834,18.834,0,0,1-8.519,5.595c-4.983,1.319-10.7-6.239-10.7-6.239Z" transform="translate(869.763 1840.222)" fill="#fc8165"/>
    <path id="Path_29069" data-name="Path 29069" d="M57.111,99.949a.546.546,0,0,1-.088-1.085l6.87-1.153a.555.555,0,0,1,.629.446.546.546,0,0,1-.448.629L57.2,99.941a.686.686,0,0,1-.093.008" transform="translate(878.994 1844.572)"/>
    <path id="Path_29070" data-name="Path 29070" d="M41.2,72.871l.328,13.424s2.516,3.8,10.384,4.245c5.86.332,7.4-1.7,7.4-1.7l-.5-6.114-.965-6.611L43.589,73.34Z" transform="translate(862.035 1817.171)" fill="#fc8165"/>
    <path id="Path_29071" data-name="Path 29071" d="M42.44,73.637a4.169,4.169,0,0,0,.421,1.233c3.151,6.365,11.316,7.578,14.669,7.8l-.972-6.339Z" transform="translate(863.407 1818.016)"/>
    <path id="Path_29072" data-name="Path 29072" d="M64.338,63.334S71.485,79.3,69.043,88.326s-10.66,7.684-15.584,5.986a16.254,16.254,0,0,1-7.229-4.686,6.921,6.921,0,0,1-7.677-2.64c-3.1-4.236-1.26-9.15,1.348-10.3s5.738.717,5.738.717l-2.482-4.636s10.054-23.764,21.181-9.438" transform="translate(857.324 1801.581)" fill="#fc8165"/>
    <path id="Path_29073" data-name="Path 29073" d="M50.706,74.638a.558.558,0,0,1-.156-.023.525.525,0,0,1-.349-.656c.9-2.938-1.306-6.123-1.329-6.154a.526.526,0,1,1,.858-.608c.1.147,2.53,3.632,1.477,7.069a.525.525,0,0,1-.5.372" transform="translate(870.398 1810.665)"/>
    <path id="Path_29074" data-name="Path 29074" d="M43.318,74.165A.529.529,0,0,1,42.935,74l-4.362-4.6a.525.525,0,1,1,.764-.721l4.364,4.6a.526.526,0,0,1-.383.888" transform="translate(858.981 1812.358)"/>
    <path id="Path_29075" data-name="Path 29075" d="M38.836,71.411a.526.526,0,0,1-.08-1.045l3.012-.465a.526.526,0,1,1,.16,1.039l-3.01.465a.539.539,0,0,1-.082.006" transform="translate(858.85 1813.888)"/>
    <path id="Path_29076" data-name="Path 29076" d="M47.686,82.538a2,2,0,0,0,2.854-.8c1.2-1.885-1.445-7.437-1.445-7.437s4.966,1.117,8.028-.532,4.56-6.167,4.56-6.167,2.267,4.7,9.038,2.612,8.039-11.308.8-13.173-11.179,1.344-11.179,1.344-.932-6.691-9.867-3.365c-8.138,3.029-9.492,13.236-9.492,13.236a6.443,6.443,0,0,0-5.82,5.563c-.93,5.321,5.3,9.158,5.3,9.158a8.515,8.515,0,0,1,7.214-.437" transform="translate(855.277 1796.451)"/>
    <path id="Path_29077" data-name="Path 29077" d="M84.342,110.5c-3.126,0-6.531-5.141-6.956-5.805a.525.525,0,0,1,.886-.566c1.169,1.819,4.68,6.281,6.84,5.126,2.316-1.237,3.405-6.743,3.63-8.76a.515.515,0,0,1,.581-.463.523.523,0,0,1,.465.578c-.036.318-.9,7.824-4.179,9.574a2.657,2.657,0,0,1-1.266.315" transform="translate(901.873 1847.134)" fill="#00554c"/>
    <path id="Path_29078" data-name="Path 29078" d="M46.713,69.9a.526.526,0,0,1-.52-.459L45.8,66.456a.527.527,0,0,1,.454-.589.544.544,0,0,1,.589.454l.389,2.987a.529.529,0,0,1-.454.589c-.023,0-.046,0-.069,0" transform="translate(867.114 1809.441)"/>
    <path id="Path_29079" data-name="Path 29079" d="M73.225,126.013a.525.525,0,0,1-.522-.473c-.972-9.816-5.7-23.417-5.746-23.555a.525.525,0,0,1,.993-.345c.05.137,4.817,13.855,5.8,23.8a.53.53,0,0,1-.475.574l-.05,0" transform="translate(890.426 1848.525)" fill="#00554c"/>
    <path id="Path_29080" data-name="Path 29080" d="M50.957,69.549a.526.526,0,0,1-.52-.448l-.444-2.978a.525.525,0,1,1,1.039-.156l.444,2.978a.522.522,0,0,1-.44.6.512.512,0,0,1-.08.006" transform="translate(871.734 1809.06)"/>
    <path id="Path_29081" data-name="Path 29081" d="M45.181,66.032a.536.536,0,0,1-.24-.057.527.527,0,0,1-.229-.709,1.887,1.887,0,0,1,1.26-1.031,4.084,4.084,0,0,1,2.835.85.525.525,0,0,1-.629.841,3.137,3.137,0,0,0-1.971-.665.83.83,0,0,0-.557.484.53.53,0,0,1-.469.286" transform="translate(865.85 1807.59)"/>
    <path id="Path_29082" data-name="Path 29082" d="M56.273,137.379l40.7,7.867a3.646,3.646,0,0,0,4.272-2.888l11.223-58.067a3.645,3.645,0,0,0-2.888-4.27l-40.7-7.866a3.646,3.646,0,0,0-4.272,2.888L53.385,133.107a3.646,3.646,0,0,0,2.888,4.272" transform="translate(875.409 1816.306)" fill="#494762"/>
    <path id="Path_29083" data-name="Path 29083" d="M57.618,137.639l40.7,7.867a3.646,3.646,0,0,0,4.272-2.888l11.221-58.067a3.643,3.643,0,0,0-2.886-4.27l-40.7-7.867A3.646,3.646,0,0,0,65.952,75.3L54.73,133.367a3.646,3.646,0,0,0,2.888,4.272" transform="translate(876.893 1816.593)" fill="#171539"/>
    <path id="Path_29084" data-name="Path 29084" d="M84.114,86.51a10.26,10.26,0,0,1-1.981-.194L71.944,84.333a9.318,9.318,0,0,1-4.852-2.471,4.693,4.693,0,0,1-1.5-4.19l.827-4.257A.516.516,0,0,1,67.039,73a.527.527,0,0,1,.416.616l-.829,4.255a3.676,3.676,0,0,0,1.216,3.252,8.253,8.253,0,0,0,4.3,2.179l10.186,1.983c3.494.675,6.7-.652,7.153-2.962l.829-4.257a.526.526,0,0,1,1.033.2l-.829,4.255c-.469,2.4-3.166,3.986-6.4,3.986" transform="translate(888.874 1817.298)" fill="#fff"/>
    <path id="Path_29085" data-name="Path 29085" d="M49.568,65.923a.524.524,0,0,1-.433-.822,2.887,2.887,0,0,1,3.8-1.239.526.526,0,0,1-.507.921c-.139-.072-1.363-.656-2.429.911a.527.527,0,0,1-.435.229" transform="translate(870.691 1806.904)"/>
    <path id="Path_29086" data-name="Path 29086" d="M91.743,96.727s9.5-1.09,6.577-5.46-20.108-6.459-21.94-1.329,15.363,6.79,15.363,6.79" transform="translate(900.703 1832.681)" fill="#fc8165"/>
    <path id="Path_29087" data-name="Path 29087" d="M91.254,100.457s9.5-1.09,6.577-5.46-20.106-6.459-21.94-1.329,15.363,6.79,15.363,6.79" transform="translate(900.164 1836.797)" fill="#fc8165"/>
    <path id="Path_29088" data-name="Path 29088" d="M85.909,103.268a12,12,0,0,0,6.327.431c1.876-.412,3.517-1.355,2.572-3.479-1.891-4.251-16.56-8.666-18.932-4.467-1.767,3.128,5.978,6.169,10.033,7.515" transform="translate(900.014 1840.548)" fill="#fc8165"/>
    <path id="Path_29089" data-name="Path 29089" d="M90.208,92.068l-11.072-.827a.526.526,0,0,1-.486-.564.511.511,0,0,1,.564-.486l11.032.827a.525.525,0,0,1-.038,1.05" transform="translate(903.357 1836.276)"/>
    <path id="Path_29090" data-name="Path 29090" d="M89.359,96.2l-11.072-.827a.523.523,0,0,1-.486-.562.507.507,0,0,1,.564-.486l11.032.825a.525.525,0,0,1-.038,1.05" transform="translate(902.42 1840.832)"/>
    <path id="Path_29091" data-name="Path 29091" d="M44.662,133.544a.577.577,0,0,1-.557-.429l-1.857-6.989a.578.578,0,0,1,1.117-.3l1.855,6.989a.577.577,0,0,1-.41.707.589.589,0,0,1-.147.019" transform="translate(863.173 1875.131)" fill="#534579"/>
    <path id="Path_29092" data-name="Path 29092" d="M69.844,125.441a.577.577,0,0,1-.576-.564l-.2-7.442a.577.577,0,0,1,.562-.591.593.593,0,0,1,.593.564l.193,7.442a.576.576,0,0,1-.562.591Z" transform="translate(892.791 1865.688)" fill="#534579"/>
    <path id="Path_29093" data-name="Path 29093" d="M66.829,127.876a.575.575,0,0,1-.576-.574l-.019-7.89a.577.577,0,1,1,1.155,0l.017,7.89a.575.575,0,0,1-.574.578Z" transform="translate(889.66 1867.882)" fill="#534579"/>
    <path id="Path_29094" data-name="Path 29094" d="M121.179,145.1l-46.141-.942a.526.526,0,0,1-.515-.536.542.542,0,0,1,.536-.515l46.131.942a.526.526,0,0,1-.011,1.052" transform="translate(898.805 1894.661)" fill="#fff"/>
    <path id="Path_29095" data-name="Path 29095" d="M189.623,162.372c-.6,1.361-63.348,42.664-65.624,42.414-.814-.088-2.9-2.98-5.517-7.36-4.775-7.963-9.913-23.776-13.352-33.334,0,0,22.2-14.128,24.971-14.313,2.791-.183,35.809,2.038,35.809,2.038s9.949-2.757,16.116-.208a12.457,12.457,0,0,1,4.4,3.117c2.739,2.987,3.622,6.705,3.193,7.646" transform="translate(932.575 1902.016)" fill="#65617d"/>
    <path id="Path_29096" data-name="Path 29096" d="M182.619,159.772c-.6,1.361-63.348,42.664-65.624,42.414-.814-.088-2.9-2.98-5.517-7.36l67.949-42.7c2.739,2.987,3.622,6.705,3.193,7.646" transform="translate(939.579 1904.617)" fill="#50447e"/>
    <path id="Path_29097" data-name="Path 29097" d="M121.065,163.118a.526.526,0,0,1-.492-.711l4.5-12.04a.527.527,0,0,1,.986.37l-3.967,10.6,17.386-10.754a.527.527,0,0,1,.553.9L121.341,163.04a.54.54,0,0,1-.276.078" transform="translate(949.578 1902.299)" fill="#50447e"/>
    <path id="Path_29098" data-name="Path 29098" d="M35.556,149.431s89.8-45.67,109.6-39.16c25.991,8.544,73.087,79.023,73.087,79.023l-41.28,39.953s-42.753-57.7-49.6-56.935c-7.915.883-52.447,19.614-68.291,14.519s-23.515-37.4-23.515-37.4" transform="translate(855.811 1857.736)" fill="#3f3d56"/>
    <path id="Path_29099" data-name="Path 29099" d="M80.192,147.3a.538.538,0,0,1-.181-.032.521.521,0,0,1-.343-.459c-.025-.381-.57-9.351,2.85-12.734a4.36,4.36,0,0,1,3.519-1.275,2.4,2.4,0,0,1,2.32,1.407c1.3,3.416-6.853,11.968-7.787,12.931a.522.522,0,0,1-.379.16m5.443-13.464a3.246,3.246,0,0,0-2.379.989c-2.375,2.347-2.6,8.115-2.577,10.668,3.275-3.555,7.425-8.983,6.695-10.912-.061-.158-.246-.642-1.418-.732q-.164-.013-.322-.013" transform="translate(904.431 1883.275)" fill="#fff"/>
    <path id="Path_29100" data-name="Path 29100" d="M65.806,79.695S3.8,106.523,14.568,152.824c10.262,44.12,81.038,5.584,81.038,5.584l-3.5-34.629-33.025,3.527Z" transform="translate(831.268 1824.7)" fill="#018073"/>
    <path id="Path_29101" data-name="Path 29101" d="M75.853,131.029c-1.517,0-3.168-.391-3.967-1.87-1.319-2.44.755-9.015,1.6-11.438-1.868.223-6.22.572-8.582-.78-2.9-1.662,1.7-12.191,3.338-15.691-3.921-.189-21.94-.8-38.058,2.528a.537.537,0,0,1-.62-.408.523.523,0,0,1,.408-.623c18.253-3.769,38.91-2.522,39.114-2.507a.523.523,0,0,1,.421.259.534.534,0,0,1,.021.494c-3.149,6.556-5.612,14.168-4.1,15.035,2.669,1.529,8.7.538,8.758.532a.526.526,0,0,1,.581.7c-.919,2.476-3.065,9.343-1.954,11.4,1.247,2.3,5.889.9,5.936.885a.527.527,0,0,1,.311,1.007,12.175,12.175,0,0,1-3.2.477" transform="translate(849.183 1847.137)" fill="#00554c"/>
    <path id="Path_29102" data-name="Path 29102" d="M45,103.716c-2.772,0-12.361-.191-13.678-2.793a1.755,1.755,0,0,1,.3-1.939,3.31,3.31,0,0,1,2.295-1.3c4.287-.587,11.478,4.852,11.781,5.086a.529.529,0,0,1,.181.585c-.107.315-.423.362-.881.362M34.639,98.689a3.832,3.832,0,0,0-.57.038,2.275,2.275,0,0,0-1.6.883c-.374.5-.25.745-.2.837.751,1.485,6.857,2.1,11.453,2.2-2.11-1.432-6.243-3.961-9.08-3.961" transform="translate(850.959 1844.499)" fill="#00554c"/>
    <path id="Path_29103" data-name="Path 29103" d="M37.2,131.772a.525.525,0,0,1-.187-1.016c.217-.084,21.858-8.413,32.522-15.415a.529.529,0,0,1,.728.149.524.524,0,0,1-.151.728c-10.759,7.065-32.505,15.434-32.724,15.518a.485.485,0,0,1-.187.036" transform="translate(857.048 1863.936)" fill="#00554c"/>
    <path id="Path_29104" data-name="Path 29104" d="M45.494,92.978a2.086,2.086,0,0,1-.681-.1c-3.233-1.1-3.679-11.657-3.717-12.858a.527.527,0,0,1,.324-.5.536.536,0,0,1,.587.13A18.155,18.155,0,0,0,52.1,84.325a14.5,14.5,0,0,0,3.746.084.516.516,0,0,1,.271-.029c.429-.059.852-.135,1.27-.231a2.334,2.334,0,0,0,1.792-2.478l-.282-3.065a.527.527,0,0,1,.881-.435c1.056.972,6.308,5.927,6.028,7.965A1.114,1.114,0,0,1,65.19,87c-1.962,1-7.484-.923-9.013-1.487-1.447,1.493-7.44,7.465-10.683,7.465M42.209,81.243c.265,4.249,1.2,10.043,2.943,10.637s6.4-3.243,9.522-6.342a16.131,16.131,0,0,1-2.73-.175,19.914,19.914,0,0,1-9.734-4.12m15.832,3.8c2.528.822,5.633,1.544,6.67,1.016.168-.944-2.1-3.687-4.638-6.161l.151,1.67a3.392,3.392,0,0,1-2.183,3.475" transform="translate(861.924 1822.866)" fill="#00554c"/>
    <path id="Path_29105" data-name="Path 29105" d="M259.509,41.328a31.193,31.193,0,1,1-31.193-31.193,31.194,31.194,0,0,1,31.193,31.193" transform="translate(1034.076 1747.952)" fill="#e5f2f1"/>
    <path id="Path_29106" data-name="Path 29106" d="M249.256,37.8a24.467,24.467,0,1,1-24.468-24.468A24.467,24.467,0,0,1,249.256,37.8" transform="translate(1037.605 1751.479)" fill="#a5d2cd"/>
    <path id="Path_29107" data-name="Path 29107" d="M213.327,32.889a.519.519,0,0,1-.194-.038.526.526,0,0,1-.318-.364L209.861,20.32a.527.527,0,0,1,1.024-.246l2.779,11.442,16.924-11.064a.526.526,0,0,1,.576.879L213.615,32.8a.525.525,0,0,1-.288.086" transform="translate(1048.113 1758.475)" fill="#fff"/>
    <path id="Path_29108" data-name="Path 29108" d="M183.3,163.752a.524.524,0,0,1-.526-.511c-.019-.77-.109-7.564,2.934-8.87,2.48-1.066,5.782,2.652,7.282,4.573.492-2.728,1.946-9.034,5.016-10.226,3.166-1.228,7.726,3.14,9.478,5,.482-2.253,1.777-7.172,4.034-7.808,2.265-.656,5.1,2.991,6.356,4.812.755-2.183,2.511-6.394,4.741-6.087,2.461.318,7.368,2.861,7.576,2.97a.526.526,0,0,1-.486.934c-.048-.025-4.949-2.566-7.225-2.861-1.376-.185-3.115,3.639-3.94,6.4a.525.525,0,0,1-.435.372.548.548,0,0,1-.515-.244c-1.405-2.276-4.217-5.7-5.786-5.286-1.615.456-3,5.162-3.487,8.02a.526.526,0,0,1-.919.255c-1.6-1.882-6.329-6.543-9.011-5.5-2.724,1.056-4.213,8.033-4.556,10.632a.525.525,0,0,1-.953.229c-1.681-2.417-4.993-5.965-6.754-5.223-2.034.873-2.349,5.982-2.3,7.875a.527.527,0,0,1-.513.541Z" transform="translate(1018.233 1896.336)" fill="#fff"/>
    <path id="Path_29109" data-name="Path 29109" d="M99.759,182.146a.522.522,0,0,1-.381-.162.53.53,0,0,1,.017-.745l40.666-39a.526.526,0,0,1,.726.761l-40.664,39a.526.526,0,0,1-.364.145" transform="translate(926.069 1893.55)" fill="#fff"/>
    <g id="Group_36179" data-name="Group 36179" transform="translate(816.581 1842.906)">
      <path id="Path_29110" data-name="Path 29110" d="M0,71.158c0,11.43,14.229,20.7,31.782,20.7s31.779-9.267,31.779-20.7-14.227-20.7-31.779-20.7S0,59.728,0,71.158" transform="translate(0 -50.461)" fill="#a5d2cd"/>
      <path id="Path_29111" data-name="Path 29111" d="M31.313,65.191,45.6,78.366,19.016,72.248Z" transform="translate(20.982 -34.209)" fill="#a5d2cd"/>
    </g>
    <path id="Path_29112" data-name="Path 29112" d="M186.64,97.53a1.792,1.792,0,0,1-1.432-.709c-1.681-2.139-.227-8.958-.055-9.732a.526.526,0,0,1,.467-.408.5.5,0,0,1,.532.324c.534,1.3,3.123,7.879,1.75,9.882a1.458,1.458,0,0,1-1.262.644m-.8-8.392c-.389,2.429-.7,5.894.2,7.036a.711.711,0,0,0,.585.3.4.4,0,0,0,.414-.187c.665-.97-.223-4.4-1.2-7.153" transform="translate(1020.043 1832.404)" fill="#fff"/>
    <path id="Path_29113" data-name="Path 29113" d="M51.371,73.932a.52.52,0,0,1-.376-.156A2.661,2.661,0,0,0,47.7,73.1a.526.526,0,0,1-.549-.9,3.731,3.731,0,0,1,4.592.837.526.526,0,0,1-.006.745.516.516,0,0,1-.366.151" transform="translate(868.33 1815.932)"/>
    <path id="Path_29114" data-name="Path 29114" d="M57.5,16.939h6.06a1.786,1.786,0,0,1,1.172,1.447c.355,1.531.751,3.054,1.113,4.585a.674.674,0,0,0,.465.545c.755.29,1.5.606,2.236.938a.637.637,0,0,0,.675-.04c1.2-.734,2.408-1.451,3.618-2.171a1.463,1.463,0,0,1,2.126.263q1.738,1.735,3.473,3.473a1.481,1.481,0,0,1,.267,2.166c-.715,1.195-1.424,2.389-2.154,3.574a.671.671,0,0,0-.032.717q.5,1.1.94,2.236a.64.64,0,0,0,.5.448c1.6.383,3.205.782,4.806,1.182a1.443,1.443,0,0,1,1.262,1.6q.006,2.524,0,5.048a1.451,1.451,0,0,1-1.277,1.632c-1.6.4-3.205.782-4.8,1.2a.824.824,0,0,0-.463.408c-.341.734-.623,1.493-.959,2.23a.626.626,0,0,0,.053.669C77.3,50.26,78,51.442,78.71,52.622a1.471,1.471,0,0,1-.255,2.133q-1.732,1.738-3.47,3.473a1.506,1.506,0,0,1-2.173.273c-1.155-.692-2.312-1.378-3.456-2.084a.69.69,0,0,0-.749-.027c-.761.351-1.538.675-2.318.98a.643.643,0,0,0-.446.509c-.381,1.6-.78,3.205-1.178,4.806a1.445,1.445,0,0,1-1.6,1.256q-2.527.006-5.05,0a1.453,1.453,0,0,1-1.628-1.281c-.4-1.6-.78-3.205-1.2-4.8a.812.812,0,0,0-.412-.461c-.761-.351-1.548-.646-2.312-.995a.625.625,0,0,0-.669.038c-1.148.7-2.3,1.392-3.458,2.08a1.477,1.477,0,0,1-2.1-.261q-1.754-1.751-3.5-3.506a1.483,1.483,0,0,1-.259-2.133c.675-1.127,1.342-2.261,2.036-3.376a.725.725,0,0,0,.034-.791c-.332-.719-.637-1.453-.921-2.194a.711.711,0,0,0-.562-.509c-1.548-.362-3.083-.768-4.632-1.125a1.769,1.769,0,0,1-1.405-1.155v-6.06a1.763,1.763,0,0,1,1.405-1.155c1.546-.36,3.079-.766,4.625-1.129a.694.694,0,0,0,.562-.507c.233-.644.492-1.281.776-1.906a.625.625,0,0,0-.032-.669c-.789-1.291-1.561-2.591-2.337-3.889a1.5,1.5,0,0,1,.252-2.173q1.732-1.738,3.468-3.471a1.483,1.483,0,0,1,2.166-.252c1.245.745,2.495,1.483,3.729,2.244a.668.668,0,0,0,.715.032c.778-.353,1.563-.692,2.356-1a.712.712,0,0,0,.507-.564c.362-1.546.768-3.081,1.125-4.627a1.757,1.757,0,0,1,1.153-1.4M70.166,40.465A9.638,9.638,0,1,0,60.5,50.077a9.667,9.667,0,0,0,9.663-9.612" transform="translate(857.433 1755.459)" fill="#018073"/>
    <rect id="Rectangle_3855" data-name="Rectangle 3855" width="522.428" height="370.035" transform="translate(816.581 1736.77)" fill="none"/>
  </g>
</svg>
