<svg xmlns="http://www.w3.org/2000/svg" width="577.823" height="409.271" viewBox="0 0 577.823 409.271">
  <g id="Process_Image" data-name="Process Image" transform="translate(-816.581 -1736.77)">
    <path id="Path_29013" data-name="Path 29013" d="M302.222,139.941H78.428a7.144,7.144,0,0,1-7.144-7.144V7.145A7.144,7.144,0,0,1,78.428,0H302.222a7.144,7.144,0,0,1,7.144,7.144V132.8a7.145,7.145,0,0,1-7.144,7.144" transform="translate(911.13 1736.771)" fill="#bcd9d7"/>
    <path id="Path_29014" data-name="Path 29014" d="M298.393,139.941H74.6a7.144,7.144,0,0,1-7.144-7.144V7.145A7.144,7.144,0,0,1,74.6,0H298.393a7.144,7.144,0,0,1,7.144,7.144V132.8a7.144,7.144,0,0,1-7.144,7.144" transform="translate(906.051 1736.771)" fill="#e5f2f1"/>
    <rect id="Rectangle_3850" data-name="Rectangle 3850" width="14.233" height="39.06" transform="translate(1021.169 1813.907)" fill="#018073" opacity="0.281"/>
    <rect id="Rectangle_3851" data-name="Rectangle 3851" width="14.233" height="39.06" transform="translate(1151.345 1813.907)" fill="#018073" opacity="0.281"/>
    <rect id="Rectangle_3852" data-name="Rectangle 3852" width="14.23" height="59.029" transform="translate(1053.714 1793.798)" fill="#018073" opacity="0.281"/>
    <rect id="Rectangle_3853" data-name="Rectangle 3853" width="14.233" height="76.016" transform="translate(1086.256 1776.811)" fill="#018073" opacity="0.281"/>
    <rect id="Rectangle_3854" data-name="Rectangle 3854" width="14.233" height="92.801" transform="translate(1118.802 1760.34)" fill="#018073" opacity="0.281"/>
    <path id="Path_29015" data-name="Path 29015" d="M202.418,84.735s-5.579-7.547-11.737-9.394-12.537-1.975-10.115,1.014,7.966,7.177,7.966,7.177l-9.073,1.412a76.767,76.767,0,0,0-10.678.542c-4.3.67-4.264,4.032-4.264,4.032s-4.3.67-5.476,2.536,1.075,3.762,1.075,3.762-5.474,2.536-1.533,5.848,18,5.614,24.376,5.741,19.018-3.524,19.018-3.524,11.75-2.375.442-19.146" transform="translate(1025.027 1834.948)" fill="#fc907e"/>
    <path id="Path_29016" data-name="Path 29016" d="M164.438,93.6a.592.592,0,0,1-.358-.123.581.581,0,0,1-.1-.817L174.741,78.9a.582.582,0,0,1,.917.716L164.9,93.375a.584.584,0,0,1-.458.223" transform="translate(1033.914 1841.124)"/>
    <path id="Path_29017" data-name="Path 29017" d="M180.826,86.893c-3.162,0-5.644-.772-7.409-2.305a7.857,7.857,0,0,1-2.65-5.693.544.544,0,0,1,.591-.572.587.587,0,0,1,.572.593,6.789,6.789,0,0,0,2.264,4.806c2.173,1.88,5.676,2.445,10.41,1.675a.592.592,0,0,1,.668.482.586.586,0,0,1-.482.67,25.148,25.148,0,0,1-3.964.344" transform="translate(1043.08 1840.65)"/>
    <path id="Path_29018" data-name="Path 29018" d="M223.478,107.01,191.154,81.95,170.535,99.5s19.253,45.052,47.3,45.727c22.163.535,26.967-21.952,26.967-21.952Z" transform="translate(1042.773 1845.465)" fill="#005b4e"/>
    <path id="Path_29019" data-name="Path 29019" d="M221.274,58.072S241.1,96.79,209.847,98.213s11.427-40.141,11.427-40.141" transform="translate(1079.738 1813.794)"/>
    <path id="Path_29020" data-name="Path 29020" d="M312.043,101.975c2.278-1.817,50.022-8.68,48.191,58.124s-76.565,105.094-158.6,90.684S197.26,140.57,197.26,140.57Z" transform="translate(1034.117 1870.572)" fill="#e2dde8"/>
    <path id="Path_29021" data-name="Path 29021" d="M165.484,146.956l1.41,15.694h30.145V144.876Z" transform="translate(1036.074 1928.929)" fill="#fc907e"/>
    <path id="Path_29022" data-name="Path 29022" d="M188.6,154.207l3.045,15.738,33.179-7.868-5.8-17.2Z" transform="translate(1066.731 1928.928)" fill="#fc907e"/>
    <path id="Path_29023" data-name="Path 29023" d="M180.565,147.879s4.453-58.471,25.537-65.787c30.492-10.585,52.678.275,52.678.275l-1.463,75.081Z" transform="translate(1056.076 1839.506)" fill="#005b4e"/>
    <path id="Path_29024" data-name="Path 29024" d="M220.174,108.277s-43.6-11.2-55.549,8.249,4.762,93.685,4.762,93.685h40.141Z" transform="translate(1029.219 1876.128)" fill="#34324b"/>
    <path id="Path_29025" data-name="Path 29025" d="M164.546,154.174a.581.581,0,0,1-.523-.838c.128-.258,3.115-6.3,6.188-7.333a2.59,2.59,0,0,1,2.054.109,11.6,11.6,0,0,1,4.655,5.023c1.487-2.25,5.334-7.584,8.484-7.584s5.441,5.22,6.318,7.6c1.482-1.966,4.969-6.069,7.547-5.06,3.075,1.219,4.062,5.741,4.1,5.932a.582.582,0,0,1-1.138.242c-.009-.042-.9-4.1-3.392-5.092-1.735-.686-5.109,3.043-6.823,5.558a.57.57,0,0,1-.568.247.581.581,0,0,1-.47-.4c-.684-2.184-3.02-7.861-5.576-7.861-2.64,0-6.719,5.725-8.068,7.933a.566.566,0,0,1-.547.275.58.58,0,0,1-.491-.368c-.016-.04-1.552-3.887-4.557-5.4a1.427,1.427,0,0,0-1.161-.047c-2.168.728-4.716,5.113-5.511,6.742a.588.588,0,0,1-.523.326" transform="translate(1034.057 1927.172)" fill="#fff"/>
    <path id="Path_29026" data-name="Path 29026" d="M298.569,124.235s10.974,35.029-7.219,42.089-55.921,7.278-55.921,7.278l17.013,31.214L197.726,221.67s-45.439-85.3-17.783-108.041S265.814,124,265.814,124Z" transform="translate(1043.412 1876.907)" fill="#3f3d56"/>
    <path id="Path_29027" data-name="Path 29027" d="M193.567,148.887s-10.434,12.311-12.86,13.481-27.719,9.687-32.569,14.435-5.2,14.086-3.813,14.963,84.594,0,84.594,0l.872-40.123Z" transform="translate(1007.069 1934.248)" fill="#65617d"/>
    <path id="Path_29028" data-name="Path 29028" d="M208.745,159.113s-4.25,16.494-7.672,18.229-18.143,10.973-26.144,19.362c-6.7,7.033,0,11.071,0,11.071h46.36L261.137,178.5,246.9,148.051Z" transform="translate(1044.648 1933.14)" fill="#65617d"/>
    <path id="Path_29029" data-name="Path 29029" d="M170.33,152.52s11.6,13.3,8.95,14.382-25.062-2.35-24.483-4.748,12.846-9.829,15.533-9.633" transform="translate(1021.884 1939.062)" fill="#50447e"/>
    <path id="Path_29030" data-name="Path 29030" d="M192.861,157.1s14.872,9.506,12.63,11.288-24.713,4.788-24.832,2.324,9.568-13.044,12.2-13.612" transform="translate(1056.2 1945.139)" fill="#50447e"/>
    <path id="Path_29031" data-name="Path 29031" d="M213.288,72.29l.856,11.934s-2.194,3.666-10.062,5c-5.862.993-8.017.019-8.017.019l.388-6.123.389-5.972,14.082-4.16Z" transform="translate(1076.636 1832.652)" fill="#fc907e"/>
    <path id="Path_29032" data-name="Path 29032" d="M210.78,72.606a4.5,4.5,0,0,1-.281,1.34c-2.457,7.028-10.934,10.11-14.319,10.706l.556-7.679Z" transform="translate(1076.788 1833.072)"/>
    <path id="Path_29033" data-name="Path 29033" d="M195.848,64.583s-5.665,17.594-2.057,26.793,12.081,6.842,17.057,4.49A17.173,17.173,0,0,0,217.9,90.11a7.312,7.312,0,0,0,7.758-3.659c2.773-4.809.268-9.757-2.6-10.659s-5.944,1.417-5.944,1.417l2.07-5.155s-13.3-23.8-23.336-7.47" transform="translate(1072.025 1814.837)" fill="#fc907e"/>
    <path id="Path_29034" data-name="Path 29034" d="M195.836,75.224a.579.579,0,0,1-.533-.351c-1.51-3.5.642-7.451.735-7.619a.581.581,0,0,1,1.017.563c-.019.037-1.966,3.624-.684,6.6a.585.585,0,0,1-.535.812" transform="translate(1074.914 1825.573)"/>
    <path id="Path_29035" data-name="Path 29035" d="M204.111,73.834a.582.582,0,0,1-.463-.933l4.053-5.339a.582.582,0,1,1,.926.7L204.574,73.6a.579.579,0,0,1-.463.23" transform="translate(1086.535 1826.076)"/>
    <path id="Path_29036" data-name="Path 29036" d="M207.965,70.087c-.026,0-3.241-.14-3.241-.14a.58.58,0,0,1-.556-.6.567.567,0,0,1,.6-.558l3.217.14a.582.582,0,0,1-.026,1.163" transform="translate(1087.382 1828.002)"/>
    <path id="Path_29037" data-name="Path 29037" d="M198.4,128.055a.579.579,0,0,1-.465-.233A62.131,62.131,0,0,1,190.967,115c-4.737-11.757-.216-28.677-.023-29.389a.582.582,0,1,1,1.124.3c-.047.172-4.613,17.259-.021,28.647a60.834,60.834,0,0,0,6.819,12.558.583.583,0,0,1-.465.931" transform="translate(1067.015 1849.758)" fill="#fff"/>
    <path id="Path_29038" data-name="Path 29038" d="M196.211,75.038a.579.579,0,0,1-.57-.7c.026-.13.668-3.206,3.269-3.5a6.367,6.367,0,0,1,4.429,1.4.582.582,0,0,1,.188.57.592.592,0,0,1-.421.435l-6.749,1.77a.634.634,0,0,1-.147.019m3.264-3.068a3.854,3.854,0,0,0-.433.026,2.573,2.573,0,0,0-1.931,1.624l4.4-1.154a4.786,4.786,0,0,0-2.033-.5" transform="translate(1076.056 1830.689)"/>
    <path id="Path_29039" data-name="Path 29039" d="M197.428,65.435a.582.582,0,0,1-.107-1.154,24.086,24.086,0,0,1,4.562-.442.585.585,0,0,1,.519.642.6.6,0,0,1-.64.519,20.994,20.994,0,0,0-4.225.426.579.579,0,0,1-.109.009" transform="translate(1077.673 1821.416)"/>
    <path id="Path_29040" data-name="Path 29040" d="M196.342,65.716a.6.6,0,0,1-.242-.051,4.437,4.437,0,0,0-2.157-.5.569.569,0,0,1-.656-.491.577.577,0,0,1,.479-.658,5.245,5.245,0,0,1,2.817.589.581.581,0,0,1-.242,1.11" transform="translate(1072.943 1821.651)"/>
    <path id="Path_29041" data-name="Path 29041" d="M195.211,70.809a.588.588,0,0,1-.582-.6l.114-2.924-1.173-1.17a.581.581,0,1,1,.821-.821l1.354,1.349a.582.582,0,0,1,.17.435l-.123,3.178a.58.58,0,0,1-.582.558" transform="translate(1073.099 1823.139)"/>
    <path id="Path_29042" data-name="Path 29042" d="M199.617,70.809a.586.586,0,0,1-.582-.593l.056-2.892-1.708-1.356a.582.582,0,0,1,.721-.914l1.936,1.535a.594.594,0,0,1,.221.47l-.063,3.18a.581.581,0,0,1-.582.57" transform="translate(1078.09 1822.888)"/>
    <path id="Path_29043" data-name="Path 29043" d="M215.729,81.605s-8.268-1.815-11.369-7.691-2.687-8.521-2.687-8.521-4.325,2.052-6.049,5.051a19.894,19.894,0,0,0-2.11,4.636s-.824-6.821.058-8.815,5.739-13.177,21.67-10.431c24.159,4.164,12.611,23.094.486,25.771" transform="translate(1072.788 1810.254)"/>
    <path id="Path_29044" data-name="Path 29044" d="M228.935,100.422s-.744-.326-3.9-1.454c-2.989-1.068-13.76-.249-13.76-.249a90.524,90.524,0,0,0-17.178,4.462c-7.807,3.082-6.746,6.6-6.746,6.6s-5.027,2.64-3.166,4.86,9.857.868,9.857.868-10.185,2.871-6.3,5.439,16.866-1.612,16.866-1.612,19.248,8.891,26.3,2.661-1.977-21.575-1.977-21.575" transform="translate(1060.333 1867.309)" fill="#fc907e"/>
    <path id="Path_29045" data-name="Path 29045" d="M205.957,122.845,198.1,154.263s51.143,40.211,72.506,8.682-18.381-78.78-35.091-83.221-8.268,46.344-8.268,46.344Z" transform="translate(1079.338 1842.148)" fill="#005b4e"/>
    <path id="Path_29046" data-name="Path 29046" d="M206.016,142.9a.6.6,0,0,1-.3-.081c-1.286-.77-12.581-7.661-12.52-12.341a2.993,2.993,0,0,1,1.747-2.622,3.889,3.889,0,0,1,3.615-.233c4.92,2.131,7.9,14.051,8.024,14.556a.584.584,0,0,1-.565.721m-9.031-14.451a2.993,2.993,0,0,0-1.473.421,1.887,1.887,0,0,0-1.154,1.624c-.04,3.031,6.842,8.075,10.7,10.548-.938-3.206-3.5-10.848-6.967-12.351a2.777,2.777,0,0,0-1.11-.242" transform="translate(1072.828 1905.595)" fill="#fff"/>
    <path id="Path_29047" data-name="Path 29047" d="M198.435,129.982a.582.582,0,0,1-.026-1.163c.047,0,4.748-.244,6.246-2.382,2.054-2.936-2.075-6.07-2.254-6.2a.584.584,0,0,1,.151-1.014c.053-.019,5.33-1.954,6.979-6,.961-2.354-2.682-6.849-4.169-8.382a.581.581,0,0,1-.107-.654.554.554,0,0,1,.575-.33c1.321.109,4.969.074,5.86-1.433.435-.737.17-1.84-.786-3.273a.58.58,0,0,1-.035-.589.589.589,0,0,1,.5-.316c.9-.03,22.312-.7,33.386,3.573a.583.583,0,1,1-.421,1.086c-9.519-3.68-27.523-3.615-31.932-3.517.763,1.445.861,2.661.291,3.627-1.01,1.71-3.82,2.024-5.56,2.047,1.628,1.9,4.59,5.879,3.478,8.6-1.421,3.478-5.044,5.488-6.753,6.272,1.724,1.6,3.629,4.483,1.754,7.165-1.826,2.608-6.933,2.866-7.149,2.878Z" transform="translate(1079.006 1867.011)" fill="#fff"/>
    <path id="Path_29048" data-name="Path 29048" d="M211.127,102.658a.581.581,0,0,1-.316-1.068c1.2-.786,11.862-7.6,15.694-4.876a1.316,1.316,0,0,1,.677,1.424c-.6,2.361-11.376,3.946-15.982,4.515a.706.706,0,0,1-.072,0m12.986-5.439c-2.764,0-7.2,2.14-10.292,3.9,6.63-.986,11.983-2.387,12.232-3.273-.012,0-.07-.077-.223-.186a2.932,2.932,0,0,0-1.717-.444" transform="translate(1095.843 1864.2)" fill="#fff"/>
    <path id="Path_29049" data-name="Path 29049" d="M206.444,88.872c-2.18,0-3.485-2.217-4.032-3.424-1.21.91-3.88,2.666-5.793,2.515a1.441,1.441,0,0,1-1.266-.786c-.686-1.4,1.028-4.178,1.38-4.72a.558.558,0,0,1,.554-.261c.119.007,12.134,1.289,17.578-4.83a.566.566,0,0,1,.589-.174.582.582,0,0,1,.416.449c.2,1.047,1.112,6.318-.865,7.326-1.424.726-3-.389-3.927-1.245-.461,1.649-1.617,4.65-4.011,5.095a3.673,3.673,0,0,1-.623.056m-3.783-4.941a.548.548,0,0,1,.161.023.572.572,0,0,1,.391.377c.014.037,1.259,3.794,3.643,3.338,2.052-.379,3.1-3.9,3.329-5.223a.584.584,0,0,1,1.021-.272c.521.626,2.245,2.287,3.269,1.756.668-.34.747-2.654.437-4.955-5.558,5.123-15.335,4.59-17.387,4.411-.758,1.259-1.363,2.789-1.126,3.276.019.035.058.121.319.142,1.661.151,4.6-1.929,5.572-2.738a.581.581,0,0,1,.372-.135" transform="translate(1075.48 1839.125)" fill="#fff"/>
    <path id="Path_29050" data-name="Path 29050" d="M233.292,131.892H168.026L149.387,89.729h62.691a3.953,3.953,0,0,1,3.615,2.354Z" transform="translate(1014.723 1855.783)" fill="#494762"/>
    <path id="Path_29051" data-name="Path 29051" d="M229.872,131.892H164.606L147.97,94.263a3.229,3.229,0,0,1,2.954-4.534h60.306Z" transform="translate(1012.474 1855.783)" fill="#171539"/>
    <path id="Path_29052" data-name="Path 29052" d="M248.914,113.178H156.767a2.663,2.663,0,1,1,0-5.325h92.147a2.663,2.663,0,1,1,0,5.325" transform="translate(1020.978 1879.822)" fill="#50447e"/>
    <path id="Path_29053" data-name="Path 29053" d="M185.646,107.8a.583.583,0,0,1-.293-1.086,76.479,76.479,0,0,1,15.363-6.337.582.582,0,0,1,.319,1.119,74.957,74.957,0,0,0-15.1,6.228.589.589,0,0,1-.288.077" transform="translate(1062.043 1869.873)"/>
    <path id="Path_29054" data-name="Path 29054" d="M188.108,108.972a.582.582,0,0,1-.323-1.065c.235-.156,5.828-3.852,11.083-4.306a.574.574,0,0,1,.63.53.58.58,0,0,1-.53.628c-4.962.428-10.48,4.078-10.536,4.115a.591.591,0,0,1-.323.1" transform="translate(1065.309 1874.173)"/>
    <path id="Path_29055" data-name="Path 29055" d="M225.7,172.11a.582.582,0,0,1-.3-1.082,79.6,79.6,0,0,0,30.247-32.5.582.582,0,1,1,1.068.465A80.851,80.851,0,0,1,226,172.029a.6.6,0,0,1-.3.081" transform="translate(1115.167 1920.049)" fill="#fff"/>
    <path id="Path_29056" data-name="Path 29056" d="M205.334,68.149S215.966,45.455,225.257,55.6s-11.411,23.62-11.411,23.62Z" transform="translate(1088.929 1807.051)"/>
    <path id="Path_29057" data-name="Path 29057" d="M56.069,100.529c-2.24-1.789-49.247-8.545-47.446,57.224S84,261.218,164.764,247.032s4.311-108.506,4.311-108.506Z" transform="translate(827.951 1868.675)" fill="#e2dde8"/>
    <path id="Path_29058" data-name="Path 29058" d="M48.673,169.589a.6.6,0,0,1-.3-.081,79.609,79.609,0,0,1-30.247-32.525.582.582,0,1,1,1.068-.463,78.4,78.4,0,0,0,29.775,31.988.582.582,0,0,1-.3,1.082" transform="translate(840.561 1917.382)" fill="#fff"/>
    <path id="Path_29059" data-name="Path 29059" d="M84.061,83.177s7.361.54,5.018,10.948-9.052-2.533-9.052-2.533Z" transform="translate(922.726 1847.093)" fill="#fc8165"/>
    <path id="Path_29060" data-name="Path 29060" d="M162.459,200.08c-1.431.819-84.4-3.48-86.269-5.192-.665-.612-.628-4.555-.093-10.173.963-10.224,6.742-27.684,9.938-38.453,0,0,29.04,1.952,31.627,3.6,2.61,1.666,30.578,25.274,30.578,25.274s10.673,4.062,14.5,10.376a13.748,13.748,0,0,1,1.884,5.662c.482,4.455-1.166,8.349-2.166,8.9" transform="translate(916.978 1930.767)" fill="#65617d"/>
    <path id="Path_29061" data-name="Path 29061" d="M162.459,178.157c-1.431.819-84.4-3.48-86.269-5.192-.665-.612-.628-4.555-.093-10.173l88.528,6.463c.482,4.455-1.166,8.349-2.166,8.9" transform="translate(916.978 1952.69)" fill="#50447e"/>
    <path id="Path_29062" data-name="Path 29062" d="M116.91,161.729c-.047,0-24.285-1.942-24.285-1.942a.58.58,0,0,1-.27-1.066l11.9-7.777a.581.581,0,1,1,.635.972l-10.476,6.849,22.54,1.8a.581.581,0,0,1-.047,1.161" transform="translate(938.727 1936.848)" fill="#50447e"/>
    <path id="Path_29063" data-name="Path 29063" d="M100.146,127.234s46.064-32.576,85.822-22.575-18.3,106.685-18.3,106.685l-57.792.13,5.632-27.7-69.379-.135,30.613-43.347Z" transform="translate(877.76 1873.055)" fill="#34324b"/>
    <path id="Path_29064" data-name="Path 29064" d="M92.585,124.417a.59.59,0,0,1-.312-.091.583.583,0,0,1-.181-.8,72.291,72.291,0,0,1,12.2-14.163.582.582,0,1,1,.754.886,70.888,70.888,0,0,0-11.969,13.9.58.58,0,0,1-.491.27" transform="translate(938.61 1881.641)" fill="#fff"/>
    <path id="Path_29065" data-name="Path 29065" d="M74.041,93.512l39.551,11.934s.4,26.737-24.718,34.039-28.03-23.147-28.03-23.147Z" transform="translate(897.282 1860.801)" fill="#018073"/>
    <path id="Path_29066" data-name="Path 29066" d="M75.721,98.545s-1.231,15.021,10.739,13.593S97.694,93.525,97.694,93.525Z" transform="translate(916.968 1860.818)" fill="#fc8165"/>
    <path id="Path_29067" data-name="Path 29067" d="M42.065,195.489S19.013,112.268,38.422,89.365s64.471-3.82,64.471-3.82l21.561,76.375Z" transform="translate(857.232 1840.349)" fill="#018073"/>
    <path id="Path_29068" data-name="Path 29068" d="M50.914,115.079s11.65-18.457,17.306-20.558,19.33.665,19.332,2.3-12.66,3.629-12.66,3.629,7.119,12.441,7.233,15.235-6.307,10.939-7.717,11.75-4.951-3.727-4.951-3.727-3.911,4.732-9.422,6.188S48.2,123,48.2,123Z" transform="translate(880.513 1861.134)" fill="#fc8165"/>
    <path id="Path_29069" data-name="Path 29069" d="M57.169,100.187a.6.6,0,0,1-.1-1.2l7.6-1.275a.614.614,0,0,1,.7.493.6.6,0,0,1-.5.7l-7.6,1.277a.758.758,0,0,1-.1.009" transform="translate(891.61 1866.362)"/>
    <path id="Path_29070" data-name="Path 29070" d="M41.2,72.871l.363,14.847s2.782,4.2,11.485,4.695c6.481.368,8.184-1.884,8.184-1.884l-.551-6.763L59.61,76.454,43.842,73.39Z" transform="translate(871.223 1833.423)" fill="#fc8165"/>
    <path id="Path_29071" data-name="Path 29071" d="M42.44,73.637A4.612,4.612,0,0,0,42.905,75c3.485,7.04,12.516,8.382,16.224,8.624l-1.075-7.012Z" transform="translate(872.872 1834.439)"/>
    <path id="Path_29072" data-name="Path 29072" d="M67.244,63.821s7.9,17.657,5.2,27.642-11.79,8.5-17.236,6.621a17.978,17.978,0,0,1-8-5.183,7.655,7.655,0,0,1-8.491-2.92c-3.434-4.685-1.393-10.12,1.491-11.388s6.346.793,6.346.793L43.817,74.26s11.12-26.283,23.427-10.438" transform="translate(865.56 1814.682)" fill="#fc8165"/>
    <path id="Path_29073" data-name="Path 29073" d="M50.911,75.451a.617.617,0,0,1-.172-.026.581.581,0,0,1-.386-.726c1-3.25-1.445-6.772-1.47-6.807a.582.582,0,1,1,.949-.672c.114.163,2.8,4.018,1.633,7.819a.581.581,0,0,1-.554.412" transform="translate(881.276 1825.602)"/>
    <path id="Path_29074" data-name="Path 29074" d="M43.836,74.765a.585.585,0,0,1-.423-.181l-4.825-5.092a.581.581,0,1,1,.844-.8l4.827,5.09a.582.582,0,0,1-.423.982" transform="translate(867.551 1827.638)"/>
    <path id="Path_29075" data-name="Path 29075" d="M38.892,71.572a.581.581,0,0,1-.088-1.156l3.331-.514a.581.581,0,1,1,.177,1.149l-3.329.514a.6.6,0,0,1-.091.007" transform="translate(867.394 1829.476)"/>
    <path id="Path_29076" data-name="Path 29076" d="M49.023,85.555a2.211,2.211,0,0,0,3.157-.886c1.324-2.084-1.6-8.226-1.6-8.226s5.493,1.235,8.88-.589,5.044-6.821,5.044-6.821,2.508,5.2,10,2.889,8.891-12.507.889-14.57-12.365,1.487-12.365,1.487-1.031-7.4-10.913-3.722c-9,3.35-10.5,14.64-10.5,14.64a7.126,7.126,0,0,0-6.437,6.153c-1.028,5.886,5.867,10.129,5.867,10.129a9.417,9.417,0,0,1,7.979-.484" transform="translate(863.099 1808.514)"/>
    <path id="Path_29077" data-name="Path 29077" d="M85.089,111.61c-3.457,0-7.223-5.686-7.693-6.421a.581.581,0,0,1,.979-.626c1.293,2.012,5.176,6.947,7.565,5.669,2.561-1.368,3.766-7.458,4.015-9.689a.57.57,0,0,1,.642-.512.579.579,0,0,1,.514.64c-.04.351-1,8.654-4.622,10.59a2.939,2.939,0,0,1-1.4.349" transform="translate(919.114 1869.442)" fill="#00554c"/>
    <path id="Path_29078" data-name="Path 29078" d="M46.81,70.329a.581.581,0,0,1-.575-.507l-.43-3.3a.583.583,0,0,1,.5-.651.6.6,0,0,1,.651.5l.43,3.3a.585.585,0,0,1-.5.651c-.026,0-.051,0-.077,0" transform="translate(877.328 1824.131)"/>
    <path id="Path_29079" data-name="Path 29079" d="M73.893,128.635a.58.58,0,0,1-.577-.523c-1.075-10.857-6.3-25.9-6.356-26.053a.581.581,0,0,1,1.1-.382c.056.151,5.327,15.324,6.416,26.321a.587.587,0,0,1-.526.635l-.056,0" transform="translate(905.352 1871.114)" fill="#00554c"/>
    <path id="Path_29080" data-name="Path 29080" d="M51.059,69.976a.582.582,0,0,1-.575-.5l-.491-3.294a.581.581,0,1,1,1.149-.172l.491,3.294a.578.578,0,0,1-.486.661.566.566,0,0,1-.088.007" transform="translate(882.882 1823.672)"/>
    <path id="Path_29081" data-name="Path 29081" d="M45.237,66.227a.593.593,0,0,1-.265-.063.583.583,0,0,1-.254-.784,2.087,2.087,0,0,1,1.393-1.14,4.517,4.517,0,0,1,3.136.94.581.581,0,0,1-.7.931,3.47,3.47,0,0,0-2.18-.735.918.918,0,0,0-.617.535.586.586,0,0,1-.519.316" transform="translate(875.809 1821.905)"/>
    <path id="Path_29082" data-name="Path 29082" d="M56.586,144.3,101.6,153a4.033,4.033,0,0,0,4.725-3.194L118.74,85.584a4.032,4.032,0,0,0-3.194-4.723l-45.018-8.7A4.033,4.033,0,0,0,65.8,75.355L53.392,139.577a4.033,4.033,0,0,0,3.194,4.725" transform="translate(887.3 1832.384)" fill="#494762"/>
    <path id="Path_29083" data-name="Path 29083" d="M57.931,144.562l45.015,8.7a4.033,4.033,0,0,0,4.725-3.194l12.411-64.224a4.029,4.029,0,0,0-3.192-4.723l-45.018-8.7a4.033,4.033,0,0,0-4.725,3.194L54.737,139.837a4.033,4.033,0,0,0,3.194,4.725" transform="translate(889.084 1832.728)" fill="#171539"/>
    <path id="Path_29084" data-name="Path 29084" d="M86.086,87.944a11.348,11.348,0,0,1-2.191-.214L72.625,85.537A10.306,10.306,0,0,1,67.258,82.8,5.19,5.19,0,0,1,65.6,78.169l.914-4.709A.571.571,0,0,1,67.2,73a.582.582,0,0,1,.461.682l-.917,4.706a4.066,4.066,0,0,0,1.345,3.6,9.128,9.128,0,0,0,4.76,2.41L84.115,86.59c3.864.747,7.414-.721,7.912-3.276l.917-4.709a.582.582,0,0,1,1.142.223l-.917,4.706c-.519,2.659-3.5,4.408-7.084,4.408" transform="translate(903.486 1833.576)" fill="#fff"/>
    <path id="Path_29085" data-name="Path 29085" d="M49.623,66.173a.58.58,0,0,1-.479-.91,3.193,3.193,0,0,1,4.208-1.37.582.582,0,0,1-.561,1.019c-.154-.079-1.507-.726-2.687,1.007a.583.583,0,0,1-.482.254" transform="translate(881.629 1821.08)"/>
    <path id="Path_29086" data-name="Path 29086" d="M93.386,97.766s10.508-1.205,7.275-6.039-22.24-7.144-24.266-1.47,16.992,7.51,16.992,7.51" transform="translate(917.707 1852.068)" fill="#fc8165"/>
    <path id="Path_29087" data-name="Path 29087" d="M92.9,101.5s10.508-1.205,7.275-6.039-22.238-7.144-24.266-1.47S92.9,101.5,92.9,101.5" transform="translate(917.059 1857.016)" fill="#fc8165"/>
    <path id="Path_29088" data-name="Path 29088" d="M87,104.244a13.273,13.273,0,0,0,7,.477c2.075-.456,3.89-1.5,2.845-3.848-2.091-4.7-18.315-9.585-20.94-4.941-1.954,3.459,6.612,6.823,11.1,8.312" transform="translate(916.879 1861.526)" fill="#fc8165"/>
    <path id="Path_29089" data-name="Path 29089" d="M91.433,92.267l-12.246-.914a.581.581,0,0,1-.537-.623.566.566,0,0,1,.623-.537l12.2.914a.581.581,0,0,1-.042,1.161" transform="translate(920.897 1856.39)"/>
    <path id="Path_29090" data-name="Path 29090" d="M90.584,96.4l-12.246-.914a.578.578,0,0,1-.537-.621.561.561,0,0,1,.623-.537l12.2.912a.581.581,0,0,1-.042,1.161" transform="translate(919.771 1861.866)"/>
    <path id="Path_29091" data-name="Path 29091" d="M44.92,134.407a.638.638,0,0,1-.616-.475L42.249,126.2a.639.639,0,1,1,1.235-.328l2.052,7.73a.638.638,0,0,1-.454.782.651.651,0,0,1-.163.021" transform="translate(872.59 1903.099)" fill="#534579"/>
    <path id="Path_29092" data-name="Path 29092" d="M69.926,126.352a.639.639,0,0,1-.637-.623l-.216-8.231a.639.639,0,0,1,.621-.654.656.656,0,0,1,.656.623l.214,8.231a.637.637,0,0,1-.621.654Z" transform="translate(908.196 1891.747)" fill="#534579"/>
    <path id="Path_29093" data-name="Path 29093" d="M66.892,128.835a.636.636,0,0,1-.637-.635l-.021-8.726a.639.639,0,1,1,1.277,0l.019,8.726a.635.635,0,0,1-.635.64Z" transform="translate(904.432 1894.384)" fill="#534579"/>
    <path id="Path_29094" data-name="Path 29094" d="M126.127,145.308l-51.034-1.042a.582.582,0,0,1-.57-.593.6.6,0,0,1,.593-.57l51.022,1.042a.582.582,0,0,1-.012,1.163" transform="translate(915.426 1926.577)" fill="#fff"/>
    <path id="Path_29095" data-name="Path 29095" d="M198.582,163.709c-.668,1.505-70.066,47.188-72.583,46.911-.9-.1-3.206-3.3-6.1-8.14-5.281-8.808-10.964-26.3-14.768-36.868,0,0,24.552-15.626,27.619-15.831,3.087-.2,39.606,2.254,39.606,2.254s11-3.05,17.825-.23a13.778,13.778,0,0,1,4.871,3.448c3.029,3.3,4.006,7.416,3.531,8.456" transform="translate(956.022 1935.418)" fill="#65617d"/>
    <path id="Path_29096" data-name="Path 29096" d="M190.163,160.582c-.668,1.505-70.066,47.188-72.583,46.911-.9-.1-3.206-3.3-6.1-8.14l75.153-47.228c3.029,3.3,4.006,7.416,3.531,8.456" transform="translate(964.442 1938.544)" fill="#50447e"/>
    <path id="Path_29097" data-name="Path 29097" d="M121.121,164.506a.581.581,0,0,1-.544-.786l4.981-13.316a.583.583,0,0,1,1.091.409l-4.388,11.72,19.23-11.895a.582.582,0,0,1,.612.991l-20.677,12.79a.6.6,0,0,1-.3.086" transform="translate(976.462 1935.758)" fill="#50447e"/>
    <path id="Path_29098" data-name="Path 29098" d="M35.556,153.651s99.322-50.512,121.218-43.312c28.747,9.45,80.837,87.4,80.837,87.4L191.953,241.93s-47.286-63.815-54.856-62.972c-8.754.977-58.008,21.693-75.533,16.059s-26.009-41.365-26.009-41.365" transform="translate(863.741 1882.187)" fill="#3f3d56"/>
    <path id="Path_29099" data-name="Path 29099" d="M80.252,148.835a.6.6,0,0,1-.2-.035.576.576,0,0,1-.379-.507c-.028-.421-.63-10.343,3.152-14.084a4.822,4.822,0,0,1,3.892-1.41,2.657,2.657,0,0,1,2.566,1.556c1.433,3.778-7.579,13.237-8.612,14.3a.577.577,0,0,1-.419.177m6.021-14.891a3.59,3.59,0,0,0-2.631,1.093c-2.626,2.6-2.875,8.975-2.85,11.8C84.414,142.9,89,136.9,88.2,134.767c-.067-.174-.272-.71-1.568-.81q-.181-.014-.356-.014" transform="translate(922.189 1912.889)" fill="#fff"/>
    <path id="Path_29100" data-name="Path 29100" d="M71.372,79.695S2.788,109.368,14.7,160.578c11.35,48.8,89.63,6.176,89.63,6.176l-3.871-38.3-36.526,3.9Z" transform="translate(834.237 1842.474)" fill="#018073"/>
    <path id="Path_29101" data-name="Path 29101" d="M80.762,134.315c-1.677,0-3.5-.433-4.388-2.068-1.459-2.7.835-9.971,1.766-12.651-2.066.247-6.879.633-9.492-.863-3.2-1.838,1.884-13.484,3.692-17.355-4.336-.209-24.266-.886-42.093,2.8a.594.594,0,0,1-.686-.451.579.579,0,0,1,.451-.689c20.188-4.169,43.035-2.789,43.261-2.773a.579.579,0,0,1,.465.286.59.59,0,0,1,.023.547c-3.483,7.251-6.207,15.67-4.534,16.629,2.952,1.691,9.62.6,9.687.589a.581.581,0,0,1,.642.775c-1.017,2.738-3.39,10.334-2.161,12.607,1.38,2.547,6.514,1,6.565.979a.583.583,0,0,1,.344,1.114,13.466,13.466,0,0,1-3.543.528" transform="translate(855.773 1869.447)" fill="#00554c"/>
    <path id="Path_29102" data-name="Path 29102" d="M46.473,104.36c-3.066,0-13.672-.212-15.128-3.089a1.941,1.941,0,0,1,.335-2.145,3.661,3.661,0,0,1,2.538-1.438c4.741-.649,12.695,5.367,13.03,5.625a.585.585,0,0,1,.2.647c-.119.349-.468.4-.975.4M35.008,98.8a4.239,4.239,0,0,0-.63.042,2.516,2.516,0,0,0-1.768.977c-.414.556-.277.824-.226.926.831,1.642,7.584,2.326,12.667,2.436-2.333-1.584-6.9-4.381-10.043-4.381" transform="translate(857.908 1866.275)" fill="#00554c"/>
    <path id="Path_29103" data-name="Path 29103" d="M37.258,133.523a.581.581,0,0,1-.207-1.124c.24-.093,24.176-9.305,35.97-17.05a.586.586,0,0,1,.8.165.579.579,0,0,1-.167.8c-11.9,7.814-35.952,17.071-36.194,17.164a.537.537,0,0,1-.207.04" transform="translate(865.228 1889.641)" fill="#00554c"/>
    <path id="Path_29104" data-name="Path 29104" d="M45.961,94.563a2.307,2.307,0,0,1-.754-.114c-3.576-1.217-4.069-12.893-4.111-14.221a.583.583,0,0,1,.358-.558.593.593,0,0,1,.649.144,20.08,20.08,0,0,0,11.16,5.179,16.034,16.034,0,0,0,4.143.093.57.57,0,0,1,.3-.033c.475-.065.942-.149,1.405-.256a2.582,2.582,0,0,0,1.982-2.74l-.312-3.39a.583.583,0,0,1,.975-.482c1.168,1.075,6.977,6.556,6.667,8.81a1.232,1.232,0,0,1-.679.956c-2.17,1.11-8.277-1.021-9.968-1.645-1.6,1.652-8.228,8.256-11.816,8.256M42.327,81.584c.293,4.7,1.328,11.108,3.255,11.764s7.077-3.587,10.531-7.014a17.84,17.84,0,0,1-3.02-.193,22.025,22.025,0,0,1-10.766-4.557M59.837,85.79c2.8.91,6.23,1.708,7.377,1.124.186-1.045-2.324-4.078-5.13-6.814l.167,1.847a3.751,3.751,0,0,1-2.415,3.843" transform="translate(871.089 1840.269)" fill="#00554c"/>
    <path id="Path_29105" data-name="Path 29105" d="M266.124,44.635a34.5,34.5,0,1,1-34.5-34.5,34.5,34.5,0,0,1,34.5,34.5" transform="translate(1078.04 1750.212)" fill="#e5f2f1"/>
    <path id="Path_29106" data-name="Path 29106" d="M254.445,40.395a27.061,27.061,0,1,1-27.063-27.063,27.061,27.061,0,0,1,27.063,27.063" transform="translate(1082.281 1754.453)" fill="#a5d2cd"/>
    <path id="Path_29107" data-name="Path 29107" d="M213.7,34.291a.574.574,0,0,1-.214-.042.582.582,0,0,1-.351-.4l-3.269-13.458A.583.583,0,0,1,211,20.116l3.073,12.655,18.718-12.237a.581.581,0,0,1,.637.972L214.015,34.2a.581.581,0,0,1-.319.1" transform="translate(1094.914 1762.862)" fill="#fff"/>
    <path id="Path_29108" data-name="Path 29108" d="M183.352,165.78a.58.58,0,0,1-.582-.565c-.021-.851-.121-8.366,3.245-9.81,2.743-1.179,6.4,2.934,8.054,5.058.544-3.017,2.152-9.992,5.548-11.311,3.5-1.359,8.545,3.473,10.483,5.532.533-2.492,1.966-7.933,4.462-8.635,2.506-.726,5.644,3.308,7.03,5.323.835-2.415,2.778-7.072,5.244-6.733,2.722.351,8.149,3.164,8.38,3.285a.582.582,0,0,1-.537,1.033c-.053-.028-5.474-2.838-7.991-3.164-1.521-.2-3.445,4.025-4.357,7.077a.581.581,0,0,1-.482.412.606.606,0,0,1-.57-.27c-1.554-2.517-4.664-6.3-6.4-5.846-1.787.5-3.313,5.709-3.857,8.87a.582.582,0,0,1-1.017.281c-1.768-2.082-7-7.237-9.966-6.081-3.013,1.168-4.66,8.884-5.039,11.76a.581.581,0,0,1-1.054.254c-1.859-2.673-5.523-6.6-7.47-5.776-2.25.965-2.6,6.616-2.543,8.71a.582.582,0,0,1-.568.6Z" transform="translate(1058.994 1928.589)" fill="#fff"/>
    <path id="Path_29109" data-name="Path 29109" d="M99.814,186.393a.578.578,0,0,1-.421-.179.586.586,0,0,1,.019-.824l44.978-43.133a.582.582,0,0,1,.8.842l-44.976,43.133a.582.582,0,0,1-.4.161" transform="translate(948.201 1925.24)" fill="#fff"/>
    <g id="Group_36179" data-name="Group 36179" transform="translate(816.581 1854.16)">
      <path id="Path_29110" data-name="Path 29110" d="M0,73.352C0,85.994,15.738,96.244,35.151,96.244S70.3,85.994,70.3,73.352,54.565,50.461,35.151,50.461,0,60.711,0,73.352" transform="translate(0 -50.461)" fill="#a5d2cd"/>
      <path id="Path_29111" data-name="Path 29111" d="M32.616,65.191,48.424,79.763,19.016,73Z" transform="translate(25.223 -30.924)" fill="#a5d2cd"/>
    </g>
    <path id="Path_29112" data-name="Path 29112" d="M186.877,98.681a1.982,1.982,0,0,1-1.584-.784c-1.859-2.366-.251-9.908-.06-10.764a.581.581,0,0,1,.516-.451.555.555,0,0,1,.589.358c.591,1.438,3.455,8.715,1.936,10.929a1.613,1.613,0,0,1-1.4.712m-.886-9.282c-.43,2.687-.775,6.518.219,7.782a.787.787,0,0,0,.647.337.436.436,0,0,0,.458-.207c.735-1.072-.247-4.864-1.324-7.912" transform="translate(1061.17 1851.736)" fill="#fff"/>
    <path id="Path_29113" data-name="Path 29113" d="M51.845,74.163a.575.575,0,0,1-.416-.172,2.944,2.944,0,0,0-3.643-.751.582.582,0,0,1-.607-.993,4.127,4.127,0,0,1,5.078.926A.581.581,0,0,1,52.25,74a.571.571,0,0,1-.4.168" transform="translate(878.791 1831.933)"/>
    <path id="Path_29114" data-name="Path 29114" d="M59.669,16.939h6.7a1.975,1.975,0,0,1,1.3,1.6c.393,1.694.831,3.378,1.231,5.071a.745.745,0,0,0,.514.6c.835.321,1.659.67,2.473,1.038a.7.7,0,0,0,.747-.044c1.326-.812,2.664-1.605,4-2.4a1.618,1.618,0,0,1,2.352.291q1.923,1.919,3.841,3.841a1.638,1.638,0,0,1,.3,2.4c-.791,1.321-1.575,2.643-2.382,3.952a.742.742,0,0,0-.035.793q.555,1.221,1.04,2.473a.708.708,0,0,0,.558.5c1.775.423,3.545.865,5.316,1.307a1.6,1.6,0,0,1,1.4,1.768q.007,2.792,0,5.583A1.6,1.6,0,0,1,87.6,47.512c-1.77.442-3.545.865-5.311,1.326a.911.911,0,0,0-.512.451c-.377.812-.689,1.652-1.061,2.466a.692.692,0,0,0,.058.74c.8,1.3,1.573,2.606,2.354,3.911a1.627,1.627,0,0,1-.281,2.359q-1.916,1.923-3.838,3.841a1.666,1.666,0,0,1-2.4.3c-1.277-.765-2.557-1.524-3.822-2.305a.763.763,0,0,0-.828-.03c-.842.388-1.7.747-2.564,1.084a.712.712,0,0,0-.493.563c-.421,1.775-.863,3.545-1.3,5.316a1.6,1.6,0,0,1-1.773,1.389q-2.8.007-5.586,0a1.607,1.607,0,0,1-1.8-1.417c-.44-1.77-.863-3.545-1.324-5.311a.9.9,0,0,0-.456-.509c-.842-.389-1.712-.714-2.557-1.1a.691.691,0,0,0-.74.042c-1.27.779-2.547,1.54-3.825,2.3a1.634,1.634,0,0,1-2.322-.288q-1.94-1.937-3.876-3.878a1.64,1.64,0,0,1-.286-2.359c.747-1.247,1.484-2.5,2.252-3.734a.8.8,0,0,0,.037-.875c-.368-.8-.7-1.608-1.019-2.426a.787.787,0,0,0-.621-.563c-1.712-.4-3.41-.849-5.123-1.245a1.957,1.957,0,0,1-1.554-1.277v-6.7A1.95,1.95,0,0,1,38.58,38.3c1.71-.4,3.406-.847,5.116-1.249a.768.768,0,0,0,.621-.561c.258-.712.544-1.417.858-2.108a.691.691,0,0,0-.035-.74c-.872-1.428-1.726-2.866-2.585-4.3a1.663,1.663,0,0,1,.279-2.4q1.916-1.923,3.836-3.839a1.64,1.64,0,0,1,2.4-.279c1.377.824,2.759,1.64,4.125,2.482a.738.738,0,0,0,.791.035c.861-.391,1.728-.765,2.606-1.11a.787.787,0,0,0,.561-.623c.4-1.71.849-3.408,1.245-5.118a1.944,1.944,0,0,1,1.275-1.552M73.68,42.959A10.659,10.659,0,1,0,62.993,53.591,10.693,10.693,0,0,0,73.68,42.959" transform="translate(865.691 1759.237)" fill="#018073"/>
    <rect id="Rectangle_3855" data-name="Rectangle 3855" width="577.823" height="409.271" transform="translate(816.581 1736.77)" fill="none"/>
  </g>
</svg>
