<svg xmlns="http://www.w3.org/2000/svg" xmlns:xlink="http://www.w3.org/1999/xlink" width="30" height="30" viewBox="0 0 30 30">
  <defs>
    <clipPath id="clip-path">
      <rect id="Rectangle_7273" data-name="Rectangle 7273" width="12.748" height="12.812" fill="#fff"/>
    </clipPath>
  </defs>
  <g id="QA" transform="translate(9517 1740)">
    <circle id="Ellipse_612" data-name="Ellipse 612" cx="15" cy="15" r="15" transform="translate(-9517 -1740)" fill="#808080"/>
    <g id="Group_40759" data-name="Group 40759" transform="translate(-9508 -1731)">
      <g id="Group_40758" data-name="Group 40758" clip-path="url(#clip-path)">
        <path id="Path_84441" data-name="Path 84441" d="M44.12,0a6.106,6.106,0,0,1,1.113.426,7.12,7.12,0,0,0,.978.245,1.911,1.911,0,0,1,1.313.953c.156.27.308.544.485.8a3.733,3.733,0,0,0,.4.432,1.869,1.869,0,0,1,.527,1.71,4.921,4.921,0,0,0,.019,1.517,1.734,1.734,0,0,1-.5,1.478,5.318,5.318,0,0,0-.937,1.286,1.818,1.818,0,0,1-1.442.98,3.968,3.968,0,0,0-1.3.428,1.867,1.867,0,0,1-1.585.083,1.988,1.988,0,0,1-.26-.122,3.726,3.726,0,0,0-1.279-.4,1.865,1.865,0,0,1-1.362-.919,1.559,1.559,0,0,1-.082-.154,3.61,3.61,0,0,0-.8-1.1,1.828,1.828,0,0,1-.584-1.262,2.638,2.638,0,0,1,.043-.584,3.606,3.606,0,0,0-.015-1.232A1.877,1.877,0,0,1,39.4,2.837a3.531,3.531,0,0,0,.755-1A2.013,2.013,0,0,1,41.837.62a3.073,3.073,0,0,0,.732-.2A5.334,5.334,0,0,1,43.67,0Zm-.227,9.013a3.777,3.777,0,1,0-3.776-3.784,3.784,3.784,0,0,0,3.776,3.784" transform="translate(-37.524 0.001)" fill="#fff"/>
        <path id="Path_84442" data-name="Path 84442" d="M260.981,264.02c-.364.15-.73.323-1.112.449a.71.71,0,0,0-.52.541c-.1.361-.242.709-.367,1.062-.013.038-.03.075-.052.129l-2.109-2.235a2.771,2.771,0,0,0,2.3-1.809l1.864,1.863" transform="translate(-248.233 -253.39)" fill="#fff"/>
        <path id="Path_84443" data-name="Path 84443" d="M4.152,264.259l-2.108,2.234c-.022-.054-.039-.093-.053-.133-.155-.44-.311-.879-.462-1.319a.252.252,0,0,0-.16-.17c-.418-.165-.833-.337-1.249-.507-.045-.019-.089-.04-.12-.053l1.853-1.852c.049.093.11.208.169.324a2.682,2.682,0,0,0,2.04,1.462l.09.015" transform="translate(0 -253.682)" fill="#fff"/>
        <path id="Path_84444" data-name="Path 84444" d="M103.015,66.069A3.026,3.026,0,1,1,99.989,69.1a3.036,3.036,0,0,1,3.026-3.027m-1.245,4.764c.27-.061.526-.115.78-.177a1.3,1.3,0,0,1,.806-.032,1.823,1.823,0,0,0,.254.062l.65.144c.02-.22.046-.423.056-.626a1.833,1.833,0,0,1,.316-1.08,6.844,6.844,0,0,0,.4-.66c-.279-.12-.541-.246-.814-.346a1.345,1.345,0,0,1-.615-.444c-.181-.231-.386-.445-.586-.673-.265.3-.519.595-.777.883a.477.477,0,0,1-.158.115c-.324.143-.65.28-.975.42-.033.014-.064.032-.1.051.2.339.4.667.592,1a.54.54,0,0,1,.066.209c.039.377.072.754.108,1.155" transform="translate(-96.645 -63.859)" fill="#fff"/>
        <path id="Path_84445" data-name="Path 84445" d="M161.889,127.945a1.486,1.486,0,0,0,.957-.7,1.478,1.478,0,0,0,.954.694,1.46,1.46,0,0,0-.363,1.118,1.485,1.485,0,0,0-1.178.006,1.5,1.5,0,0,0-.371-1.123" transform="translate(-156.475 -122.994)" fill="#fff"/>
      </g>
    </g>
  </g>
</svg>
