<svg id="Strong_Teams_" data-name="Strong Teams " xmlns="http://www.w3.org/2000/svg" xmlns:xlink="http://www.w3.org/1999/xlink" width="70.946" height="66.496" viewBox="0 0 70.946 66.496">
  <defs>
    <clipPath id="clip-path">
      <rect id="Rectangle_3903" data-name="Rectangle 3903" width="70.946" height="66.496" fill="#1e3756"/>
    </clipPath>
  </defs>
  <g id="Group_36196" data-name="Group 36196" clip-path="url(#clip-path)">
    <path id="Path_57225" data-name="Path 57225" d="M0,46.147a12.722,12.722,0,0,1,1.1-1.48c3.021-3.052,6.067-6.08,9.154-9.165a6.085,6.085,0,0,1-1.838-5.543,6.009,6.009,0,0,1,3.595-4.507,6.162,6.162,0,0,1,3.228-7.785,16.229,16.229,0,0,1-.2-2.845A5.75,5.75,0,0,1,19,9.783c.354-.136.475-.261.459-.678A5.758,5.758,0,0,1,22.4,3.6a5.714,5.714,0,0,1,6.231.077,1.034,1.034,0,0,0,1.174.04c2.217-1.134,4.449-2.239,6.678-3.35a2.149,2.149,0,0,1,2.929.478c.9.893,1.788,1.8,2.7,2.713C44.588,1.371,47.244.907,50.04,2.74c2.283,1.5,2.987,3.931,2.218,7.086,3.179,1.693,4.316,4.288,3.334,7.828a6.19,6.19,0,0,1,3.236,3.233A6.1,6.1,0,0,1,58.91,25.4a6.168,6.168,0,0,1,1.772,10.15c.9.882,1.815,1.757,2.711,2.649q3.388,3.373,6.766,6.755a2.149,2.149,0,0,1,.727,2.117,2.071,2.071,0,0,1-3.545.94c-1.73-1.7-3.433-3.425-5.147-5.14l-4.439-4.44c-.213.2-.4.367-.57.541-2.875,2.873-5.76,5.736-8.619,8.625-1.921,1.942-3.814,3.907-6.727,4.844.423.347.729.558.989.818q4.711,4.695,9.4,9.411a3.353,3.353,0,0,1,.814,1.25,1.974,1.974,0,0,1-.91,2.271,2.048,2.048,0,0,1-2.446-.218c-.175-.15-.333-.32-.5-.483q-5.9-5.9-11.8-11.815a2.011,2.011,0,0,0-1.326-.564,3.709,3.709,0,0,0-3.359,1.381c-3.661,3.783-7.425,7.467-11.144,11.194a2.146,2.146,0,0,1-2.173.736,2.064,2.064,0,0,1-1.07-3.358c.059-.071.125-.136.19-.2Q25.1,56.273,31.687,49.681a2.5,2.5,0,0,1,1.885-.7c1.547,0,3.1.023,4.641-.033a7.9,7.9,0,0,0,5.412-2.32q7.14-7.066,14.217-14.2a1.841,1.841,0,0,0,.083-2.715,1.867,1.867,0,0,0-2.719.107c-.515.5-1.005,1.02-1.524,1.514a2.074,2.074,0,1,1-2.919-2.943c1.244-1.27,2.516-2.513,3.764-3.78a1.853,1.853,0,1,0-2.58-2.658c-.529.516-1.037,1.053-1.573,1.562a2.079,2.079,0,1,1-2.933-2.941c1.244-1.271,2.528-2.5,3.762-3.782a1.854,1.854,0,1,0-2.671-2.565c-.82.813-1.631,1.635-2.452,2.447a2.1,2.1,0,0,1-3.128.168,2.139,2.139,0,0,1,.22-3.132q2.275-2.281,4.558-4.554a2,2,0,0,0,.714-1.721,1.851,1.851,0,0,0-3-1.225,3.282,3.282,0,0,0-.307.28c-2.287,2.285-4.578,4.567-6.848,6.869a1.043,1.043,0,0,0-.283.764c.578,3.8-1.352,6.545-5.142,7.279-.088.017-.172.053-.06.018a22.369,22.369,0,0,1-1.291,2.956,5.53,5.53,0,0,1-3.883,2.536c-.3.054-.608.029-.69.5-.54,3.042-2.448,4.684-5.467,5.205-.08.36-.146.741-.249,1.113a5.938,5.938,0,0,1-6.941,4.293.991.991,0,0,0-1.023.34q-4.641,4.667-9.3,9.312C2.41,49.214,1.031,49.019,0,47.117v-.97M25.713,6.9A1.948,1.948,0,0,0,23.757,8.04a1.787,1.787,0,0,0,.448,2.092q3.271,3.286,6.56,6.555a1.823,1.823,0,0,0,2.663.073,1.862,1.862,0,0,0-.07-2.717c-2.158-2.18-4.322-4.356-6.518-6.5A4.405,4.405,0,0,0,25.713,6.9m-4.463,6.667a1.985,1.985,0,0,0-1.945,1.145,1.772,1.772,0,0,0,.439,2.089q2.705,2.721,5.428,5.425a1.834,1.834,0,0,0,2.708.085,1.856,1.856,0,0,0-.1-2.714c-1.78-1.8-3.566-3.6-5.387-5.367a4.676,4.676,0,0,0-1.14-.663m1.625,12.818a2.6,2.6,0,0,0-.4-.895c-1.206-1.268-2.429-2.523-3.709-3.715a1.727,1.727,0,0,0-2.386.136,1.7,1.7,0,0,0-.2,2.377c1.2,1.306,2.462,2.553,3.754,3.765a1.611,1.611,0,0,0,1.943.148,1.959,1.959,0,0,0,1-1.816M32.448,7.037l3.036,3.04L39.168,6.4c-.523-.492-1.082-1.037-1.668-1.553a.542.542,0,0,0-.477-.089c-1.549.755-3.086,1.534-4.576,2.281M15.629,33.974a1.7,1.7,0,0,0,1.412-.931,1.611,1.611,0,0,0-.06-1.886,10.53,10.53,0,0,0-1.706-1.694,1.611,1.611,0,0,0-1.83-.061,1.762,1.762,0,0,0-.971,1.634c0,1.15,1.832,2.948,3.154,2.937" transform="translate(0 -0.001)" fill="#1e3756"/>
  </g>
</svg>
