<svg id="_24_7_Support_" data-name="24/7 Support " xmlns="http://www.w3.org/2000/svg" xmlns:xlink="http://www.w3.org/1999/xlink" width="62.616" height="62.633" viewBox="0 0 62.616 62.633">
  <defs>
    <clipPath id="clip-path">
      <rect id="Rectangle_3904" data-name="Rectangle 3904" width="62.616" height="62.633" fill="#1e3756"/>
    </clipPath>
  </defs>
  <g id="Group_36198" data-name="Group 36198" clip-path="url(#clip-path)">
    <path id="Path_57226" data-name="Path 57226" d="M0,82.22c.152-.691.267-1.392.465-2.07a7.131,7.131,0,0,1,4.007-4.811C6.312,74.521,8.155,73.7,10.038,73a4.737,4.737,0,0,1,5.716,1.973q2.344,3.863,4.52,7.827a4.891,4.891,0,0,1-1.714,6.449c-.187.122-.383.232-.575.347a3.028,3.028,0,0,0-.924,4.655,61.766,61.766,0,0,0,8.837,9.448c1.046.907,2.128,1.775,3.222,2.624a3.019,3.019,0,0,0,4.768-.935,4.885,4.885,0,0,1,5.041-2.721,5.42,5.42,0,0,1,2,.665c2.4,1.333,4.778,2.718,7.148,4.108a4.907,4.907,0,0,1,2.2,6.451q-1,2.492-2.1,4.943a7.638,7.638,0,0,1-6.457,4.488,19.211,19.211,0,0,1-9.769-1.637,49.639,49.639,0,0,1-14.048-8.843,62.025,62.025,0,0,1-14-16.827A30.447,30.447,0,0,1,.188,85.86C.133,85.5.063,85.146,0,84.789V82.22m3.856,1.208c.09.788.135,1.481.252,2.161a26.7,26.7,0,0,0,3.312,8.686,59.732,59.732,0,0,0,18.061,19.463,34.4,34.4,0,0,0,10.643,5.215,11.24,11.24,0,0,0,5.91.318,3.565,3.565,0,0,0,2.586-2.043c.7-1.649,1.4-3.295,2.09-4.948a1,1,0,0,0-.444-1.37q-3.669-2.135-7.356-4.239a1.023,1.023,0,0,0-1.471.415c-.133.2-.246.423-.376.629a6.907,6.907,0,0,1-10.031,1.928A65.444,65.444,0,0,1,13.8,96.417a6.648,6.648,0,0,1-1.232-5.437,6.845,6.845,0,0,1,3.575-4.847c.827-.466.989-.988.547-1.758q-2.035-3.551-4.091-7.09a1.048,1.048,0,0,0-1.492-.529c-1.6.657-3.183,1.353-4.78,2.014a3.575,3.575,0,0,0-2.149,2.638c-.168.687-.227,1.4-.322,2.019" transform="translate(0 -60.812)" fill="#1e3756"/>
    <path id="Path_57227" data-name="Path 57227" d="M133.778,0c1.285.2,2.581.346,3.852.613a25.441,25.441,0,0,1,19.63,20.646A25.02,25.02,0,0,1,150.3,43.366a1.981,1.981,0,0,1-2.335.53,1.846,1.846,0,0,1-1.079-2.057,2.723,2.723,0,0,1,.683-1.249,21.9,21.9,0,0,0,5.7-10.7A21.643,21.643,0,0,0,141.31,5.969,21.413,21.413,0,0,0,117.1,10.058a2.04,2.04,0,0,1-3.34-.367,1.936,1.936,0,0,1,.4-2.253A25.136,25.136,0,0,1,127.767.376c.857-.153,1.724-.252,2.586-.376Z" transform="translate(-95)" fill="#1e3756"/>
    <path id="Path_57228" data-name="Path 57228" d="M153.506,108.028c1.685,0,3.369,0,5.054,0a4.019,4.019,0,0,1,.849.064,1.962,1.962,0,0,1,1.543,2.06,1.94,1.94,0,0,1-1.918,1.782c-3.241.013-6.482.019-9.722,0a1.923,1.923,0,0,1-1.723-2.824,13.833,13.833,0,0,1,3.7-4.5c1.317-1.124,2.681-2.192,4.018-3.293a2.867,2.867,0,0,0,1.2-2.17,2.126,2.126,0,0,0-1.561-2.392,5.221,5.221,0,0,0-2.206-.069,1.745,1.745,0,0,0-1.429,1.873,4.8,4.8,0,0,1-.069,1.09,1.947,1.947,0,0,1-3.807-.347,5.761,5.761,0,0,1,1.611-4.876c3.4-3.4,9.813-1.915,11.1,2.623a6.282,6.282,0,0,1-1.714,6.68c-1.17,1.1-2.462,2.071-3.7,3.1-.422.352-.84.706-1.26,1.06l.042.139" transform="translate(-123.292 -77.437)" fill="#1e3756"/>
    <path id="Path_57229" data-name="Path 57229" d="M239.629,103.969c1.6.295,2.275.89,2.311,1.979.037,1.113-.62,1.723-2.317,2.1,0,.69.027,1.4-.007,2.106a1.961,1.961,0,0,1-1.484,1.873,1.9,1.9,0,0,1-2.14-.924,2.9,2.9,0,0,1-.267-1.107c-.045-.608-.019-1.222-.026-1.833a.986.986,0,0,0-.081-.206h-.67c-2.16,0-4.321.017-6.482-.008a1.927,1.927,0,0,1-1.992-2.476,2.643,2.643,0,0,1,.51-.89q4.514-5.509,9.048-11a1.952,1.952,0,0,1,2.27-.743,1.975,1.975,0,0,1,1.321,2.055c.009,2.772,0,5.544,0,8.316v.761m-7.082,0h3.13v-3.8l-3.13,3.8" transform="translate(-189.392 -77.566)" fill="#1e3756"/>
  </g>
</svg>
