<svg xmlns="http://www.w3.org/2000/svg" width="89.166" height="100.587" viewBox="0 0 89.166 100.587">
  <g id="Teamwork" transform="translate(5753.627 -1141.181)">
    <path id="Path_84496" data-name="Path 84496" d="M633.324,27.466c.524.165,1.057.308,1.572.5a7.915,7.915,0,0,1,4.948,9.254c-.058.251-.1.5-.168.818l23.057,13.315c.322-.28.633-.556.951-.825a7.889,7.889,0,0,1,8.723-1.038,7.81,7.81,0,0,1,4.278,7.767,7.542,7.542,0,0,1-5.324,6.75,1.355,1.355,0,0,0-1.118,1.551q.062,12.269.006,24.54a1.082,1.082,0,0,0,.942,1.267,7.857,7.857,0,0,1,5.516,6.832,7.945,7.945,0,0,1-4.395,7.8,7.744,7.744,0,0,1-8.762-1.23,1.2,1.2,0,0,0-1.736-.148c-7.346,4.27-14.709,8.511-22.116,12.789.974,4.066-.026,7.442-3.764,9.574a7.43,7.43,0,0,1-8.413-.514c-2.787-1.95-3.7-4.824-2.931-9.061-1.611-.934-3.245-1.883-4.882-2.829q-8.7-5.026-17.4-10.061a.979.979,0,0,0-1.415.128A7.8,7.8,0,0,1,591.975,106a7.9,7.9,0,0,1,1.316-14.7.868.868,0,0,0,.746-1.012q-.025-12.564-.005-25.129c0-.5-.046-.809-.643-.994a7.911,7.911,0,1,1,7.8-13.112c.093.088.2.165.364.3l23.087-13.331a8.223,8.223,0,0,1-.088-4.882,7.87,7.87,0,0,1,5.782-5.473c.216-.058.425-.139.637-.209Zm-7.332,13.426.125-.246a.271.271,0,0,0-.1.014q-11.255,6.483-22.5,12.991a1.249,1.249,0,0,0-.358.927c-.026,1.261.133,2.537-.014,3.78a1.056,1.056,0,0,0,.621,1.294c1.375.754,2.761,1.5,4.055,2.381a1.883,1.883,0,0,1,.7,1.449,1.7,1.7,0,0,1-.979,1.153,2.056,2.056,0,0,1-1.45-.282c-1.548-.829-3.056-1.734-4.3-2.448a44.532,44.532,0,0,1-3.955,2.163c-.655.28-.893.515-.888,1.22.031,4.286.016,8.572.016,12.858q0,6.036,0,12.072a.953.953,0,0,0,.65,1.1c1.2.535,2.295,1.32,3.459,1.953a1.223,1.223,0,0,0,.969.113c1.356-.72,2.668-1.521,4-2.282,1.073-.612,1.9-.476,2.371.367.449.81.151,1.569-.874,2.169-1.27.742-2.534,1.5-3.826,2.2-.541.294-.649.585-.569,1.227a14.158,14.158,0,0,1,.023,3.587,1.114,1.114,0,0,0,.627,1.375q7.45,4.254,14.872,8.556c2.483,1.432,4.964,2.87,7.465,4.316a8.682,8.682,0,0,1,4-2.52,1.093,1.093,0,0,0,.515-.845c.052-1.569.023-3.14.029-4.71a1.469,1.469,0,0,1,1.033-1.6,1.44,1.44,0,0,1,1.892,1.5c.045,1.6,0,3.207.038,4.809a1.11,1.11,0,0,0,.43.82c1.4.78,2.841,1.5,4.46,2.333,7.242-4.181,14.772-8.521,22.281-12.9.217-.126.3-.622.3-.949.034-1.292-.057-2.592.047-3.877.045-.552-.032-.823-.5-1.084-1.345-.742-2.674-1.514-4-2.3-.958-.567-1.228-1.331-.792-2.115.455-.819,1.277-.978,2.284-.409,1.366.772,2.707,1.589,4.092,2.323a1.224,1.224,0,0,0,.969-.112c1.165-.632,2.27-1.377,3.456-1.963.447-.221.658-.373.657-.888-.014-8.474-.007-16.947-.023-25.421,0-.244-.157-.663-.316-.7a8.851,8.851,0,0,1-4.217-2.549c-1.4.807-2.73,1.572-4.058,2.339-1.507.87-2.268.859-2.822-.044s-.167-1.63,1.308-2.482c1.1-.637,2.2-1.295,3.318-1.9a1.036,1.036,0,0,0,.617-1.3,13.485,13.485,0,0,1-.014-3.587c.087-.678-.009-.972-.587-1.3C655.344,50.5,650.17,47.5,644.991,44.51l-6.509-3.755c-1.493.814-2.762,1.6-4.112,2.2a1.017,1.017,0,0,0-.764,1.124c.034,1.537.018,3.075,0,4.613a1.417,1.417,0,0,1-1.269,1.593c-.956.136-1.63-.488-1.655-1.591-.035-1.6.01-3.207-.036-4.809a1.1,1.1,0,0,0-.471-.792c-1.377-.767-2.787-1.473-4.187-2.2M595.383,61.4a4.757,4.757,0,0,0,4.947-4.812,4.89,4.89,0,1,0-4.947,4.812m73.323,0a4.867,4.867,0,1,0-4.817-4.855,4.769,4.769,0,0,0,4.817,4.855m-36.8-21.16A4.817,4.817,0,0,0,637,35.77a4.893,4.893,0,1,0-9.76-.711,4.75,4.75,0,0,0,4.662,5.182m36.9,53.811A4.762,4.762,0,0,0,663.89,98.9a4.842,4.842,0,0,0,4.916,4.885,4.935,4.935,0,0,0,4.9-4.839,4.854,4.854,0,0,0-4.906-4.9m-36.733,21.16a4.749,4.749,0,0,0-4.832,4.926,4.886,4.886,0,1,0,9.77-.188,4.8,4.8,0,0,0-4.939-4.737M600.329,98.947a4.75,4.75,0,0,0-4.762-4.9,4.8,4.8,0,0,0-5.017,4.755,4.89,4.89,0,1,0,9.778.14" transform="translate(-6341.19 1113.715)"/>
    <path id="Path_84497" data-name="Path 84497" d="M603.784,129.471a4.8,4.8,0,0,1-4.832-4.944,4.89,4.89,0,0,1,9.778.132,4.757,4.757,0,0,1-4.946,4.812" transform="translate(-6349.591 1045.644)" fill="#018073"/>
    <path id="Path_84498" data-name="Path 84498" d="M883.366,129.473a4.77,4.77,0,0,1-4.817-4.855,4.834,4.834,0,0,1,5.016-4.876,4.867,4.867,0,1,1-.2,9.731" transform="translate(-6555.85 1045.643)" fill="#018073"/>
    <path id="Path_84499" data-name="Path 84499" d="M743.492,48.706a4.75,4.75,0,0,1-4.661-5.182,4.893,4.893,0,1,1,9.759.71,4.816,4.816,0,0,1-5.1,4.471" transform="translate(-6452.776 1105.25)" fill="#018073"/>
    <path id="Path_84500" data-name="Path 84500" d="M883.464,281.315a4.854,4.854,0,0,1,4.906,4.9,4.936,4.936,0,0,1-4.9,4.84,4.842,4.842,0,0,1-4.917-4.885,4.762,4.762,0,0,1,4.913-4.851" transform="translate(-6555.851 926.451)" fill="#018073"/>
    <path id="Path_84501" data-name="Path 84501" d="M743.651,361.986a4.8,4.8,0,0,1,4.939,4.737,4.886,4.886,0,1,1-9.771.188,4.749,4.749,0,0,1,4.831-4.926" transform="translate(-6452.771 866.941)" fill="#018073"/>
    <path id="Path_84502" data-name="Path 84502" d="M608.73,286.212a4.89,4.89,0,1,1-4.762-4.9,4.75,4.75,0,0,1,4.762,4.9" transform="translate(-6349.591 926.45)" fill="#018073"/>
    <path id="Path_84503" data-name="Path 84503" d="M708.742,161.964a12.775,12.775,0,0,1,5.729,6.844,21.708,21.708,0,0,1,.828,4.112,1.5,1.5,0,0,1-1.222,1.832c-.808.132-1.444-.345-1.7-1.376-.185-.755-.233-1.543-.4-2.3a9.858,9.858,0,0,0-3.09-5.232.9.9,0,0,0-1.211-.2,11.152,11.152,0,0,1-7.037,1.2c-.944-.1-1.491.147-1.811.89A40.063,40.063,0,0,1,702.2,171a12.744,12.744,0,0,1,2.811,7.98c.026,1-.449,1.591-1.266,1.683a1.451,1.451,0,0,1-1.645-1.327c-.207-.919-.248-1.879-.5-2.785a9.451,9.451,0,0,0-5.231-6.262,2.175,2.175,0,0,0-1.452-.105,9.507,9.507,0,0,1-5.872-.022,1.875,1.875,0,0,0-1.271.058,9.711,9.711,0,0,0-5.733,8.39,5.134,5.134,0,0,1-.186.957,1.448,1.448,0,0,1-2.85-.434,12.7,12.7,0,0,1,3.845-9.253c.766-.743,1.652-1.363,2.436-2-.594-.966-1.162-1.946-1.8-2.881a1.228,1.228,0,0,0-.791-.361q-2.067-.285-4.144-.493a1.979,1.979,0,0,0-1.014.109,9.73,9.73,0,0,0-5.745,8.077c-.045.389-.1.777-.177,1.162a1.375,1.375,0,0,1-1.589,1.255,1.346,1.346,0,0,1-1.3-1.55,19.983,19.983,0,0,1,.643-3.851,12.553,12.553,0,0,1,5.2-6.914c.188-.127.374-.259.558-.392.024-.018.035-.055.084-.138a9.635,9.635,0,0,1-2.5-5.059,9.111,9.111,0,0,1,17.146-5.476c.395.81.825.868,1.659.971,1.708.212,2.375-.556,3.213-1.9a9,9,0,0,1,13.068-2.234,9.115,9.115,0,0,1,1.465,13.149c-.147.174-.3.344-.53.61m-10.639-.538a6.1,6.1,0,1,0-6.209,6.058,6.014,6.014,0,0,0,6.209-6.058m-10.643-8.021a6.07,6.07,0,0,0-7.342-3.886,6.2,6.2,0,0,0-4.354,7.5,6.041,6.041,0,0,0,7.026,4.443,9.442,9.442,0,0,1,4.671-8.058m9.129-.011a9.49,9.49,0,0,1,4.681,8.038,6.035,6.035,0,0,0,6.962-4.5,6.113,6.113,0,0,0-4.294-7.331,5.971,5.971,0,0,0-7.349,3.792" transform="translate(-6401.06 1026.028)"/>
    <path id="Path_84504" data-name="Path 84504" d="M746.411,186.649a6.1,6.1,0,1,1-6.047-6.125,6.017,6.017,0,0,1,6.047,6.125" transform="translate(-6449.369 1000.804)" fill="#018073"/>
    <path id="Path_84505" data-name="Path 84505" d="M706.736,161.785a9.442,9.442,0,0,0-4.671,8.058,6.041,6.041,0,0,1-7.025-4.443,6.2,6.2,0,0,1,4.354-7.5,6.07,6.07,0,0,1,7.342,3.886" transform="translate(-6420.337 1017.647)" fill="#018073"/>
    <path id="Path_84506" data-name="Path 84506" d="M774.961,161.918a5.971,5.971,0,0,1,7.349-3.792,6.114,6.114,0,0,1,4.294,7.331,6.035,6.035,0,0,1-6.962,4.5,9.491,9.491,0,0,0-4.68-8.038" transform="translate(-6479.433 1017.503)" fill="#018073"/>
  </g>
</svg>
