<svg xmlns="http://www.w3.org/2000/svg" xmlns:xlink="http://www.w3.org/1999/xlink" width="30" height="30" viewBox="0 0 30 30">
  <defs>
    <linearGradient id="linear-gradient" y1="0.477" x2="1" y2="0.482" gradientUnits="objectBoundingBox">
      <stop offset="0" stop-color="#009385"/>
      <stop offset="1" stop-color="#005b4e"/>
    </linearGradient>
    <clipPath id="clip-path">
      <rect id="Rectangle_7269" data-name="Rectangle 7269" width="12.61" height="11.132" fill="#fff"/>
    </clipPath>
  </defs>
  <g id="Group_51280" data-name="Group 51280" transform="translate(1365 2624)">
    <circle id="Ellipse_828" data-name="Ellipse 828" cx="15" cy="15" r="15" transform="translate(-1365 -2624)" fill="url(#linear-gradient)"/>
    <g id="Group_51270" data-name="Group 51270" transform="translate(-1356 -2614)">
      <g id="Group_40750" data-name="Group 40750" clip-path="url(#clip-path)">
        <path id="Path_84425" data-name="Path 84425" d="M12.682.494V6.822c-.041,0-.081.008-.122.008H.215c-.044,0-.087,0-.141-.006V6.719q0-3.04,0-6.08A.612.612,0,0,1,.72,0H12.031A.8.8,0,0,1,12.2.017a.651.651,0,0,1,.48.477M3.521,3.4a1.016,1.016,0,0,0,.132-.09C4,2.968,4.346,2.63,4.689,2.288a.369.369,0,1,0-.517-.526q-.7.683-1.4,1.372a.358.358,0,0,0,0,.537q.7.7,1.4,1.4A.368.368,0,1,0,4.7,4.555c-.286-.294-.578-.582-.869-.871-.09-.089-.185-.173-.31-.289m5.648,0c-.372.389-.731.766-1.092,1.142a.37.37,0,1,0,.516.529q.687-.671,1.369-1.346a.369.369,0,0,0,0-.573c-.128-.133-.26-.262-.391-.392-.325-.325-.649-.651-.976-.974a.371.371,0,0,0-.538-.022.375.375,0,0,0,.02.548c.063.065.127.128.191.192l.9.9M5.412,4.783a.372.372,0,0,0,.291.391.361.361,0,0,0,.426-.249q.5-1.387.983-2.776a.426.426,0,0,0,.015-.2.355.355,0,0,0-.32-.294.366.366,0,0,0-.395.266Q5.924,3.292,5.439,4.67a.843.843,0,0,0-.027.113" transform="translate(-0.071 0)" fill="#fff"/>
        <path id="Path_84426" data-name="Path 84426" d="M12.611,230.738c-.015.037-.03.075-.046.112a.6.6,0,0,1-.54.383c-.037,0-.074,0-.111,0H.7a.916.916,0,0,1-.255-.026.561.561,0,0,1-.434-.51c-.023-.28-.005-.564-.005-.863H12.44c.057,0,.114-.005.171-.008Z" transform="translate(0 -222.266)" fill="#fff"/>
        <path id="Path_84427" data-name="Path 84427" d="M106.478,296.572q-1.249,0-2.5,0a.369.369,0,0,1-.372-.489.375.375,0,0,1,.348-.248c.123,0,.246-.005.369,0a.116.116,0,0,0,.135-.09c.06-.17.131-.336.192-.505a.112.112,0,0,1,.123-.09q1.711,0,3.422,0a.112.112,0,0,1,.122.091c.06.166.13.327.187.494a.128.128,0,0,0,.152.1c.11-.008.221,0,.332,0a.377.377,0,0,1,.394.37.373.373,0,0,1-.4.368h-2.511" transform="translate(-100.178 -285.44)" fill="#fff"/>
      </g>
    </g>
  </g>
</svg>
