<svg xmlns="http://www.w3.org/2000/svg" width="682.234" height="403.847" viewBox="0 0 682.234 403.847">
  <g id="Your_Prudential_Image" data-name="Your Prudential Image" transform="translate(-277.766 -4480.414)">
    <g id="Group_36188" data-name="Group 36188" transform="translate(414.349 4480.414)">
      <path id="Path_29115" data-name="Path 29115" d="M585.592,222.04a172.211,172.211,0,0,1-14.741,69.993q-.473,1.068-.958,2.123c-.16.354-.324.7-.488,1.057s-.328.7-.5,1.053c-.216.453-.432.9-.652,1.351-.272.565-.548,1.126-.833,1.687q-.052.116-.117.233c-.237.475-.475.949-.721,1.424-.052.1-.1.207-.16.306-.281.552-.57,1.1-.863,1.653v0q-.466.874-.936,1.743-1.165,2.149-2.395,4.259c-.246.419-.488.837-.738,1.251-.229.388-.457.772-.69,1.156-.16.268-.319.531-.483.794q-.388.641-.79,1.282s0,0,0,.009c-.591.949-1.2,1.894-1.8,2.831h0c-.28.436-.565.867-.85,1.3v0q-1.288,1.942-2.628,3.845v0a.013.013,0,0,0-.009,0v0l-.009.009q-1.062,1.521-2.166,3.016v0c-.47.639-.945,1.277-1.424,1.907q-.589.777-1.191,1.549c-.082.112-.168.22-.259.332v0c-.108.142-.216.281-.332.423v0q-2.557,3.269-5.269,6.408h0c-.095.116-.194.229-.293.341s-.2.224-.3.341h0c-.151.177-.306.354-.462.531s-.311.354-.47.531v0a173.42,173.42,0,0,1-31.846,28.092q-2.343,1.612-4.747,3.137c-.4.255-.794.5-1.2.755-.121.082-.242.155-.362.229-.211.134-.427.268-.643.4s-.427.263-.643.393c-.859.526-1.726,1.044-2.593,1.553-.216.129-.436.255-.656.384s-.436.25-.656.375a.04.04,0,0,1-.026.017l-.009,0-.009.009h0c-1.087.626-2.179,1.243-3.284,1.838q-2.965,1.618-5.99,3.12c-.5.25-1.005.5-1.51.742-.419.2-.841.406-1.26.6-.117.056-.229.112-.345.164-.35.164-.7.328-1.049.488-.38.181-.764.354-1.144.526-.427.194-.85.384-1.277.574-1.605.716-3.228,1.407-4.855,2.071a169.188,169.188,0,0,1-17.792,6.153c-.281.082-.565.164-.85.242q-3.877,1.087-7.81,1.989-6.868,1.579-13.86,2.593c-.009,0-.022,0-.03,0-.557.082-1.118.16-1.674.237-.047.009-.1.017-.151.022,0,0-.009,0-.017,0s0,0,0,0c-.617.082-1.234.164-1.856.242a1.305,1.305,0,0,1-.129.017c-.578.069-1.161.138-1.743.2-.626.069-1.251.134-1.881.2-.479.047-.958.095-1.437.138a.663.663,0,0,1-.129.013c-.436.039-.872.078-1.308.112-.017,0-.039,0-.056,0-.38.035-.759.06-1.139.091q-6.7.531-13.528.526-7.411,0-14.672-.617c-.017,0-.035,0-.052,0q-1.547-.129-3.09-.285c-.272-.026-.539-.056-.811-.082-.052,0-.1-.009-.155-.017l-.25-.026c-.043,0-.091-.009-.134-.017-.358-.039-.716-.078-1.079-.121-.4-.047-.807-.095-1.208-.147s-.807-.1-1.208-.155c-.086-.009-.177-.017-.263-.035-.293-.035-.587-.073-.876-.117-.142-.017-.28-.039-.419-.06-.281-.039-.557-.078-.837-.121-.009,0-.022,0-.03,0a170.512,170.512,0,0,1-26.016-5.864h0c-.462-.142-.923-.289-1.385-.436q-.207-.058-.414-.13-1.8-.576-3.577-1.191-2.453-.842-4.872-1.761l-1.316-.5c-.876-.345-1.748-.69-2.615-1.044q-2.22-.906-4.41-1.868h0v0q-2.045-.9-4.061-1.856a.435.435,0,0,1-.112-.052s0,0-.009,0c-.3-.138-.6-.28-.893-.423l-.009,0a171.272,171.272,0,0,1-21.356-12.195q-3.282-2.194-6.451-4.535-2.557-1.884-5.04-3.862a173.317,173.317,0,0,1-22.8-21.787h0v0c-.488-.557-.962-1.109-1.446-1.67v0c-.069-.078-.134-.155-.2-.233-.306-.358-.6-.712-.9-1.074v0q-.608-.719-1.191-1.441c-.086-.1-.168-.2-.25-.306h0v0c-.319-.388-.634-.781-.945-1.174-.16-.194-.315-.393-.47-.591h0v0q-1.411-1.78-2.766-3.595v0c-.25-.332-.5-.664-.738-1h0q-1.735-2.343-3.379-4.742v0q-.621-.9-1.23-1.812t-1.2-1.83h0q-.615-.945-1.217-1.9c-.022-.035-.043-.065-.06-.095q-.6-.939-1.174-1.89c-.311-.5-.617-1.005-.915-1.51-.207-.341-.41-.677-.608-1.023-.073-.117-.138-.233-.2-.345-.457-.781-.906-1.562-1.355-2.347-.522-.923-1.04-1.856-1.545-2.788-.207-.384-.414-.772-.617-1.161-.073-.125-.138-.25-.2-.38-.242-.457-.483-.915-.721-1.377s-.475-.919-.708-1.381-.466-.923-.695-1.39c-.173-.349-.345-.7-.514-1.053a.914.914,0,0,1-.047-.091c-.078-.164-.16-.324-.233-.488a.286.286,0,0,1-.039-.082c-.177-.362-.35-.721-.518-1.083-.224-.466-.44-.936-.656-1.407-.155-.328-.3-.66-.453-.992q-.324-.7-.634-1.411c-.22-.488-.432-.98-.643-1.471-.056-.125-.108-.246-.16-.371-.1-.224-.194-.449-.289-.673-.255-.6-.5-1.2-.751-1.8q-.421-1.016-.82-2.037-.382-.952-.742-1.907l-.091-.233v0a172.276,172.276,0,0,1-8.475-30.4v0a172.558,172.558,0,0,1-2.3-17.9c-.026-.328-.048-.656-.069-.984q-.427-6.091-.419-12.229,0-2.725.086-5.424A172.238,172.238,0,0,1,277.78,113.5q1.56-1.935,3.176-3.823a173.064,173.064,0,0,1,277.925,19.967q2.395,3.767,4.583,7.672a172.2,172.2,0,0,1,22.128,84.725Z" transform="translate(-239.513 -49)" fill="#f2f2f2"/>
      <path id="Path_29206" data-name="Path 29206" d="M469.838,173.769a408.239,408.239,0,0,1-86.973,12.553,108.9,108.9,0,0,1-13.325-.091c-9.748-.82-18.1-3.884-27.4-5.558-4.471-.8-9.45-1.389-13.951-2.257q1.56-1.935,3.176-3.823c9.7.82,19.561,3.5,29.382,4.751,16.7,2.123,35.4-.246,48.058-6.089,6.141-2.835,10.844-6.374,16.963-9.222a7.905,7.905,0,0,1,2.662-.816,9.264,9.264,0,0,1,5.023,1.3c10.266,5.183,25.171,9.394,39.005,7.077C473.493,172.406,471.534,173.325,469.838,173.769Z" transform="translate(-279.308 -85.821)" fill="#fff"/>
      <path id="Path_29208" data-name="Path 29208" d="M881.629,239.246q-8.667.693-17.425,1.031a109.771,109.771,0,0,1-13.325-.091c-9.748-.824-18.1-3.884-27.4-5.558-8.523-1.532-18.879-2.27-24.29-5.67,13.986-2.421,28.476,2.507,42.9,4.341a102.432,102.432,0,0,0,34.957-1.726Q879.442,235.341,881.629,239.246Z" transform="translate(-557.679 -150.93)" fill="#fff"/>
    </g>
    <g id="Group_36186" data-name="Group 36186" transform="translate(277.766 4521.627)">
      <path id="Path_29122" data-name="Path 29122" d="M208.121,504.015c-36.929-33.236-59.29-86.089-45.548-133.834a228.909,228.909,0,0,0,128.906,89.906c20.163,5.256,43.137,9,55.4,25.845,7.633,10.48,9.406,24.329,7.6,37.168s-6.857,24.964-11.862,36.924l.265,3.226C294.116,553.76,245.05,537.251,208.121,504.015Z" transform="translate(-158.487 -302.068)" fill="#e6e6e6"/>
      <path id="Path_29123" data-name="Path 29123" d="M163.388,370.388c9.386,39.594,31.482,76.445,62.486,102.892,6.7,5.718,14,10.935,22.186,14.307a48.326,48.326,0,0,0,25.26,2.966c7.981-1.038,16.024-3.024,24.118-2.1,8.532.97,15.659,5.751,20.639,12.634,6.092,8.422,8.8,18.531,11.095,28.509,2.553,11.078,5.03,22.626,12.344,31.68.886,1.1-.868,2.408-1.753,1.313-12.725-15.753-10.985-37.558-20.2-54.965-4.3-8.122-11.075-15-20.405-16.7-8.159-1.492-16.455.549-24.527,1.669-8.475,1.177-16.675.892-24.806-1.98-8.318-2.938-15.834-7.88-22.654-13.4a189.822,189.822,0,0,1-39.38-44.373,199.123,199.123,0,0,1-26.576-62.195C160.888,369.269,163.066,369.029,163.388,370.388Z" transform="translate(-158.271 -302.124)" fill="#fff"/>
      <path id="Path_29124" data-name="Path 29124" d="M214.174,458.264a29.355,29.355,0,0,1-38,.734c-1.088-.9.252-2.628,1.341-1.732a27.182,27.182,0,0,0,35.35-.755C213.913,455.574,215.219,457.332,214.174,458.264Z" transform="translate(-157.102 -295.173)" fill="#fff"/>
      <path id="Path_29125" data-name="Path 29125" d="M262.248,485.6a56.579,56.579,0,0,0-12.27-39.365c-.882-1.1.871-2.411,1.753-1.313a58.85,58.85,0,0,1,12.685,40.989C264.311,487.321,262.144,487,262.248,485.6Z" transform="translate(-151.177 -296.113)" fill="#fff"/>
      <path id="Path_29126" data-name="Path 29126" d="M177.073,411.1a16.616,16.616,0,0,0,8.353-13.372c.086-1.409,2.253-1.088,2.167.311a18.62,18.62,0,0,1-9.208,14.814,1.132,1.132,0,0,1-1.533-.22A1.1,1.1,0,0,1,177.073,411.1Z" transform="translate(-157.033 -299.934)" fill="#fff"/>
      <path id="Path_29127" data-name="Path 29127" d="M308.546,307.993c-.029.881-.057,1.762-.071,2.655a218.822,218.822,0,0,0,1.909,35.445c.109.91.233,1.831.368,2.735a230.693,230.693,0,0,0,27.585,80.329,224.037,224.037,0,0,0,19.02,28.23c9.732,12.31,21.264,24.883,26.216,39.265a38.425,38.425,0,0,1,1.319,4.57l-46.343,66.435c-.181.1-.348.208-.529.306L336.29,570.7c-.4-.434-.8-.893-1.192-1.328-.23-.251-.451-.517-.681-.768-.15-.172-.3-.345-.446-.491-.05-.057-.1-.115-.135-.161-.146-.147-.265-.3-.4-.434q-3.372-3.839-6.7-7.739c-.015-.011-.015-.011-.02-.036-16.863-19.853-32.218-41.289-43.83-64.374-.349-.695-.714-1.4-1.042-2.124a213.775,213.775,0,0,1-12.9-32.412,188.965,188.965,0,0,1-4.607-18.559,157.154,157.154,0,0,1-1.661-49.108c4.041-32.6,18.464-63.552,43.912-83.656C307.238,309,307.88,308.5,308.546,307.993Z" transform="translate(-150.235 -307.049)" fill="#e6e6e6"/>
      <path id="Path_29128" data-name="Path 29128" d="M307.125,308.8c-16.344,37.264-20.889,79.991-12.057,119.774,1.909,8.6,4.6,17.16,9.1,24.781a48.325,48.325,0,0,0,18.383,17.576c7,3.976,14.615,7.234,20.523,12.841,6.228,5.911,9.041,14.02,8.872,22.514-.206,10.393-4.135,20.092-8.306,29.443-4.631,10.383-9.606,21.094-9.218,32.726.047,1.409-2.143,1.4-2.19-.007-.676-20.239,13.842-36.6,16.964-56.049,1.457-9.074.187-18.643-6.235-25.623-5.616-6.1-13.469-9.469-20.588-13.434-7.476-4.163-13.852-9.327-18.615-16.516-4.872-7.353-7.9-15.825-10.019-24.34a189.824,189.824,0,0,1-4.727-59.139,199.124,199.124,0,0,1,16.226-65.66c.565-1.287,2.448-.167,1.887,1.112Z" transform="translate(-148.076 -307.119)" fill="#fff"/>
      <path id="Path_29129" data-name="Path 29129" d="M293.574,409.489a29.355,29.355,0,0,1-30.786-22.3c-.33-1.37,1.783-1.947,2.113-.575a27.182,27.182,0,0,0,28.68,20.681C294.985,407.184,294.97,409.374,293.574,409.489Z" transform="translate(-150.134 -300.814)" fill="#fff"/>
      <path id="Path_29130" data-name="Path 29130" d="M316.513,460.306a56.579,56.579,0,0,0,13.9-38.818c-.042-1.409,2.148-1.4,2.19.007a58.851,58.851,0,0,1-14.55,40.364C317.125,462.921,315.587,461.362,316.513,460.306Z" transform="translate(-145.85 -298.042)" fill="#fff"/>
      <path id="Path_29131" data-name="Path 29131" d="M292.94,349.153a16.616,16.616,0,0,0,14.721-5.648c.917-1.073,2.454.488,1.543,1.554a18.62,18.62,0,0,1-16.271,6.284,1.132,1.132,0,0,1-1.091-1.1A1.1,1.1,0,0,1,292.94,349.153Z" transform="translate(-147.804 -304.233)" fill="#fff"/>
    </g>
    <g id="Group_36187" data-name="Group 36187" transform="translate(725.345 4551.466)">
      <path id="Path_29122-2" data-name="Path 29122" d="M305.5,504.015c36.929-33.236,59.29-86.089,45.548-133.834A228.909,228.909,0,0,1,222.14,460.087c-20.163,5.256-43.137,9-55.4,25.845-7.633,10.48-9.406,24.329-7.6,37.168s6.857,24.963,11.862,36.924l-.265,3.226C219.5,553.76,268.568,537.251,305.5,504.015Z" transform="translate(-120.477 -302.068)" fill="#e6e6e6"/>
      <path id="Path_29123-2" data-name="Path 29123" d="M339.549,370.388c-9.386,39.594-31.482,76.445-62.486,102.892-6.7,5.718-14,10.935-22.186,14.307a48.326,48.326,0,0,1-25.26,2.966c-7.981-1.038-16.024-3.024-24.118-2.1-8.532.97-15.659,5.751-20.639,12.634-6.092,8.422-8.8,18.531-11.095,28.509-2.553,11.078-5.03,22.626-12.344,31.68-.886,1.1.868,2.408,1.753,1.313,12.725-15.753,10.985-37.558,20.2-54.965,4.3-8.122,11.075-15,20.405-16.7,8.159-1.492,16.455.549,24.527,1.669,8.475,1.177,16.675.892,24.806-1.98,8.318-2.938,15.834-7.88,22.654-13.4a189.822,189.822,0,0,0,39.38-44.373,199.124,199.124,0,0,0,26.576-62.195C342.049,369.269,339.871,369.029,339.549,370.388Z" transform="translate(-110.012 -302.124)" fill="#fff"/>
      <path id="Path_29124-2" data-name="Path 29124" d="M176.151,458.264a29.355,29.355,0,0,0,38,.734c1.088-.9-.252-2.628-1.341-1.732a27.182,27.182,0,0,1-35.35-.755C176.412,455.574,175.105,457.332,176.151,458.264Z" transform="translate(1.433 -295.173)" fill="#fff"/>
      <path id="Path_29125-2" data-name="Path 29125" d="M252.06,485.6a56.579,56.579,0,0,1,12.27-39.365c.882-1.1-.871-2.411-1.753-1.313a58.851,58.851,0,0,0-12.685,40.989C250,487.321,252.163,487,252.06,485.6Z" transform="translate(-128.476 -296.113)" fill="#fff"/>
      <path id="Path_29126-2" data-name="Path 29126" d="M187.16,411.1a16.616,16.616,0,0,1-8.353-13.372c-.086-1.409-2.253-1.088-2.167.311a18.62,18.62,0,0,0,9.208,14.814,1.132,1.132,0,0,0,1.533-.22A1.1,1.1,0,0,0,187.16,411.1Z" transform="translate(27.454 -299.934)" fill="#fff"/>
      <path id="Path_29127-2" data-name="Path 29127" d="M337.829,307.993c.029.881.057,1.762.071,2.655a218.825,218.825,0,0,1-1.909,35.445c-.109.91-.233,1.831-.368,2.735a230.692,230.692,0,0,1-27.585,80.329,224.042,224.042,0,0,1-19.02,28.23c-9.732,12.31-21.264,24.883-26.216,39.265a38.417,38.417,0,0,0-1.319,4.57l46.343,66.435c.181.1.348.208.529.306l1.729,2.737c.4-.434.8-.893,1.192-1.328.23-.251.451-.517.681-.768.15-.172.3-.345.446-.491.05-.057.1-.115.135-.161.146-.147.265-.3.4-.434q3.372-3.839,6.7-7.739c.015-.011.015-.011.02-.036,16.863-19.853,32.218-41.289,43.83-64.374.349-.695.714-1.4,1.042-2.124a213.772,213.772,0,0,0,12.9-32.412,188.965,188.965,0,0,0,4.607-18.559,157.153,157.153,0,0,0,1.661-49.108c-4.041-32.6-18.464-63.552-43.912-83.656C339.137,309,338.5,308.5,337.829,307.993Z" transform="translate(-261.485 -307.049)" fill="#e6e6e6"/>
      <path id="Path_29128-2" data-name="Path 29128" d="M333.277,308.8c16.344,37.264,20.889,79.991,12.057,119.774-1.909,8.6-4.6,17.16-9.1,24.781a48.324,48.324,0,0,1-18.383,17.576c-7,3.976-14.615,7.234-20.524,12.841-6.228,5.911-9.041,14.02-8.872,22.514.206,10.393,4.135,20.092,8.306,29.443,4.631,10.383,9.606,21.094,9.218,32.726-.047,1.409,2.143,1.4,2.19-.007.676-20.239-13.842-36.6-16.964-56.049-1.457-9.074-.187-18.643,6.235-25.623,5.616-6.1,13.469-9.469,20.588-13.434,7.476-4.163,13.851-9.327,18.615-16.516,4.872-7.354,7.9-15.825,10.019-24.34a189.824,189.824,0,0,0,4.727-59.139,199.123,199.123,0,0,0-16.226-65.66c-.565-1.287-2.448-.167-1.887,1.112Z" transform="translate(-257.671 -307.119)" fill="#fff"/>
      <path id="Path_29129-2" data-name="Path 29129" d="M263.807,409.489a29.355,29.355,0,0,0,30.786-22.3c.33-1.37-1.783-1.947-2.113-.575A27.182,27.182,0,0,1,263.8,407.3C262.4,407.184,262.41,409.374,263.807,409.489Z" transform="translate(-172.592 -300.814)" fill="#fff"/>
      <path id="Path_29130-2" data-name="Path 29130" d="M332.341,460.306a56.579,56.579,0,0,1-13.9-38.818c.042-1.409-2.148-1.4-2.19.007a58.851,58.851,0,0,0,14.55,40.364C331.729,462.921,333.267,461.362,332.341,460.306Z" transform="translate(-268.349 -298.042)" fill="#fff"/>
      <path id="Path_29131-2" data-name="Path 29131" d="M308.384,349.153a16.616,16.616,0,0,1-14.721-5.648c-.917-1.073-2.454.488-1.543,1.554a18.62,18.62,0,0,0,16.271,6.284,1.132,1.132,0,0,0,1.091-1.1A1.1,1.1,0,0,0,308.384,349.153Z" transform="translate(-218.866 -304.233)" fill="#fff"/>
    </g>
    <g id="Group_36183" data-name="Group 36183" transform="translate(332.599 4521.628)">
      <path id="Path_29254" data-name="Path 29254" d="M729.53,22.432c-4.114,2.312-10.755-6.833-12.259-2.36s2.14,22.522,4.02,26.851c.935,2.152,2.256,4.12,3.173,6.279a9.441,9.441,0,0,1,.6,6.843c-1.411,3.831-6.066,5.389-8.375,8.757-2.689,3.922-1.6,9.2-.346,13.789a46.26,46.26,0,0,0,4.323,11.469c2.085,3.528,5.229,6.6,9.158,7.767,5,1.486,10.348-.28,15.17-2.274a54.944,54.944,0,0,0,13.165-7.192,24.238,24.238,0,0,0,8.611-12.042c1.729-6.051.284-12.672-2.709-18.208s-7.422-10.147-11.966-14.5a237.718,237.718,0,0,0-24.359-20.4l1.795-4.781Z" transform="translate(-319.924 -8.421)" fill="#2f2e41"/>
      <path id="Path_29255" data-name="Path 29255" d="M809.184,587.22,805.3,623.474l-.177,1.658-43.946-.171-.232-1.663-4.653-33.22Z" transform="translate(-338.39 -262.742)" fill="#ffb6b6"/>
      <path id="Path_29256" data-name="Path 29256" d="M691.065,622.066c0,.547-.006,1.1-.011,1.658l-45.62-.177-.149-1.663-2.813-31.535,47.173-5.719S691.165,601.356,691.065,622.066Z" transform="translate(-287.463 -261.583)" fill="#ffb6b6"/>
      <path id="Path_29257" data-name="Path 29257" d="M685.407,136.883a24.3,24.3,0,0,0,30.333,6.34c14.718-7.756,34.813-16.645,38.364-9.542a55.993,55.993,0,0,1,5.718,22.534L765.541,289.5s2.859,53.814-32.879,49.064-91.488,15.263-91.488,15.263l5.695-59.045,15.206-22.262,6.16-63.868-10.621-51.382,12.866-5.718s1.43-10.006,5.718-10.006,5.324-9.613,9.095-4.806l.115.146Z" transform="translate(-286.882 -58.651)" fill="#018073"/>
      <path id="Path_29258" data-name="Path 29258" d="M762.936,547.617l-9.322-.039-43.946-.171-5.719-.022-.331-1.663-8.841-44.631L693.4,545.683l-.05,1.658-2.873-.011-45.62-.177-3.271-.017-.011-1.658-.193-31.518-.177-29.187-.028-4.415.005-.005,13.659-27.689,3.984-8.078.818-1.658,7.979-16.174,72.2-10,1.105-.155,19.616-2.713.144,8.04.083,4.564.293,16.433.033,1.658.033,1.9,1.779,99.473Z" transform="translate(-286.882 -185.188)" fill="#2f2e41"/>
      <circle id="Ellipse_795" data-name="Ellipse 795" cx="29.854" cy="29.854" r="29.854" transform="translate(390.029 14.285)" fill="#ffb6b6"/>
      <path id="Path_29259" data-name="Path 29259" d="M776.365,90.894A55.819,55.819,0,0,0,766.4,125.24c-7.9-3.827-13.232-11.913-15.047-20.5s-.43-17.607,2.486-25.887l.088-.248A29.632,29.632,0,0,0,743.545,44.56a71.3,71.3,0,0,1-18.272-19.243c-2.711-4.231-5.015-9.538-2.99-14.136,1.866-4.237,6.687-6.218,11.123-7.543C743.536.612,754.3-1.11,764.7.805S785.1,8.7,790.018,18.06s3.627,22.136-4.349,29.076a5.924,5.924,0,0,1-.932,11.493c1.705-.06,2.712,2.186,2.1,3.78s-2.176,2.585-3.673,3.405c-2.131,1.169-4.493,2.391-4.5,5.452a5.881,5.881,0,0,0,1.149,3.416c1.733,2.417,4.531,3.506,7.224,4.528a16.387,16.387,0,0,0-11.259,12.62l.585-.937Z" transform="translate(-322.828 0)" fill="#2f2e41"/>
      <g id="Group_36182" data-name="Group 36182" transform="translate(326.124 62.902)">
        <path id="uuid-949a288c-1385-4c96-9df8-4f861626eeb5-278" d="M590.309,130.279c-.815-8.547,2.935-15.9,8.375-16.414s10.508,5.991,11.322,14.542a21.489,21.489,0,0,1-1.313,10.063l2.995,36.259-17.045,1.043L593.5,139.916a21.49,21.49,0,0,1-3.19-9.637Z" transform="translate(-590.198 -113.836)" fill="#ffb6b6"/>
        <path id="Path_29260" data-name="Path 29260" d="M684.08,163.244S656.233,146.863,650.5,149.32s-33.581,44.228-33.581,44.228l-2.56-7.623-19.554,1.89s-11.467,53.238,13.924,48.324,67.162-50.781,67.162-50.781l8.19-22.114Z" transform="translate(-591.103 -129.601)" fill="#018073"/>
      </g>
      <path id="Path_29261" data-name="Path 29261" d="M290.9,330.523s15.723-9.218,19.958-.671,43.353,110.515,43.353,110.515L329,445.276Z" transform="translate(-130.156 -145.961)" fill="#018073"/>
      <path id="Path_29262" data-name="Path 29262" d="M214.2,206.844l.741,1.055c-2.763,1.6-3.171,5.62-1.875,8.54s3.8,5.085,5.973,7.431,4.147,5.252,3.946,8.442c-.226,3.588-3.151,6.542-3.558,10.115-.589,5.2,4.255,9.767,4.015,15-.182,4-3.254,7.2-6.3,9.8-2.385,2.032-4.982,4.074-6.591,6.695a10.965,10.965,0,0,0-1.08,2.317c-1.2,3.72-.069,7.774,1.458,11.372s3.46,7.112,3.936,10.989-.991,8.353-4.56,9.944a41.763,41.763,0,0,0,19.926-7.117c.53-.363,1.045-.736,1.556-1.119,8.344-6.282,14.2-15.357,19.843-24.2.466-.726.928-1.458,1.394-2.184q1.877-2.952,3.764-5.9c3.583-5.625,7.21-11.333,9.163-17.7,1.8-5.875,2.1-12.083,2.837-18.184.358-2.989.829-5.968.918-8.977a36.225,36.225,0,0,0-33.394-37.109,37.647,37.647,0,0,0-4.525-.064,66.453,66.453,0,0,0-17.531,3.593,35.612,35.612,0,0,0-18.13,19.961,27.222,27.222,0,0,1,18.076-2.69Z" transform="translate(-87.75 -83.196)" fill="#2f2e41"/>
      <path id="Path_29263" data-name="Path 29263" d="M253.121,311.991,224.94,300.94l-.714,11.051-24.7,3.868-11.6,52.494,10.5,32.6,78.465,2.21-2.763-11.051s12.709-14.367,4.973-37.575l-.859-5.906a50.4,50.4,0,0,0-25.112-36.641Z" transform="translate(-84.081 -134.65)" fill="#018073"/>
      <circle id="Ellipse_796" data-name="Ellipse 796" cx="25.031" cy="25.031" r="25.031" transform="translate(128.325 115.731)" fill="#a0616a"/>
      <path id="Path_29264" data-name="Path 29264" d="M192.02,223.153c.088,3.009.56,5.988.918,8.977.736,6.1,1.04,12.309,2.837,18.184,1.953,6.371,5.58,12.079,9.163,17.7q1.885,2.952,3.764,5.9c.466.726.928,1.458,1.394,2.184,5.639,8.844,11.5,17.919,19.843,24.2.51.383,1.026.756,1.556,1.119a41.763,41.763,0,0,0,19.926,7.117c-3.568-1.59-5.031-6.066-4.56-9.944s2.415-7.391,3.936-10.989,2.66-7.652,1.458-11.372a10.965,10.965,0,0,0-1.08-2.317c-1.61-2.621-4.206-4.663-6.591-6.695-3.048-2.591-6.12-5.8-6.3-9.8-.24-5.232-3.583-3.48-4.172-8.682-.407-3.573-5.173-9.664-5.4-13.252-.2-3.19,1.757-10.906,3.926-13.252s.177-9.35,1.472-12.27,15.436-.476,12.672-2.071l.741-1.055a27.221,27.221,0,0,1,18.076,2.69,25.509,25.509,0,0,1,3.411,2.169c2.606-4.761-.486-10.8-4.692-14.233-4.118-3.367-9.193-5.31-14.228-7.023-.869-.294-1.742-.589-2.621-.874a66.452,66.452,0,0,0-17.531-3.593,37.647,37.647,0,0,0-4.525.064,36.225,36.225,0,0,0-33.394,37.109Z" transform="translate(-85.909 -83.196)" fill="#2f2e41"/>
      <path id="Path_29265" data-name="Path 29265" d="M543.042,548.756l-34.889-73.309a15.867,15.867,0,0,0-14.262-9.007H53.208a15.774,15.774,0,0,0-13.986,8.454l-37.4,71.292a15.8,15.8,0,0,0,13.925,23.13l338.95,1.332,3.271.017,45.62.177,2.873.011,10.6.044,5.719.022,43.946.171,9.322.039,52.665.2h.066a15.79,15.79,0,0,0,14.256-22.578Z" transform="translate(0 -208.701)" fill="#fff"/>
      <path id="Path_29266" data-name="Path 29266" d="M543.042,548.756l-34.889-73.309a15.867,15.867,0,0,0-14.262-9.007H53.208a15.774,15.774,0,0,0-13.986,8.454l-37.4,71.292a15.8,15.8,0,0,0,13.925,23.13l338.95,1.332,3.271.017,45.62.177,2.873.011,10.6.044,5.719.022,43.946.171,9.322.039,52.665.2h.066a15.79,15.79,0,0,0,14.256-22.578Zm-2.321,14.356a14.058,14.058,0,0,1-11.936,6.564h-.061l-52.7-.21-9.112-.033-44.355-.177-5.819-.022-10.223-.039-2.912-.011L357.822,569l-3.133-.011L15.755,567.659a14.139,14.139,0,0,1-12.46-20.7l37.4-71.287a14.1,14.1,0,0,1,12.516-7.57H493.891a14.2,14.2,0,0,1,12.764,8.062l34.889,73.3A14.053,14.053,0,0,1,540.721,563.112Z" transform="translate(0 -208.701)" fill="#3f3d56"/>
      <path id="Path_29267" data-name="Path 29267" d="M249.861,524.244,333.3,493.853,291.58,477.074l-83.161,21.752Z" transform="translate(-93.253 -213.458)" fill="#f2f2f2"/>
      <path id="Path_29268" data-name="Path 29268" d="M505.812,479.44l-9.394,29.839,109.961,6.631L596.985,482.2Z" transform="translate(-222.114 -214.517)" fill="#f2f2f2"/>
      <path id="uuid-bc099db1-a2ce-4512-8b55-449b58adbd20-279" d="M243.869,485.37c7.731.767,13.6,5.377,13.114,10.3s-7.152,8.286-14.886,7.518a19.443,19.443,0,0,1-8.706-2.92L200.675,496.6l2.046-15.316,32.036,5.236a19.445,19.445,0,0,1,9.113-1.153Z" transform="translate(-89.789 -215.343)" fill="#a0616a"/>
      <path id="Path_29269" data-name="Path 29269" d="M155.728,330.979l-5.8-3.039s-9.117.276-15.2,6.355S79.474,410,79.474,410s-12.156,18.787,18.235,21.55,64.1,2.763,64.1,2.763l2.763-22.655-45.863-4.973,32.116-42.548Z" transform="translate(-34.485 -146.731)" fill="#018073"/>
      <path id="uuid-cb65f836-e7d9-440e-b153-5c66ba7afb8d-280" d="M789.763,436.6c-6.559,4.871-14.39,5.435-17.489,1.26s-.294-11.507,6.269-16.379a20.446,20.446,0,0,1,8.841-3.884l28.054-20.287,9.24,13.368-28.637,18.581A20.448,20.448,0,0,1,789.763,436.6Z" transform="translate(-344.976 -177.771)" fill="#ffb6b6"/>
      <path id="Path_29281" data-name="Path 29281" d="M824,169.416s22.63.715,26.918,16.439a316.34,316.34,0,0,1,11.436,95.776s7.148,30.019-11.436,28.59L825.19,321.657l-17.154-22.872,14.295-17.154L824,169.416Z" transform="translate(-361.542 -75.802)" fill="#018073"/>
    </g>
    <g id="Group_36184" data-name="Group 36184" transform="translate(520.709 4675.273)">
      <path id="Path_29215" data-name="Path 29215" d="M636.106,427.312H594.385a2.226,2.226,0,0,0-2.223,2.228v65.907h46.172V429.54a2.227,2.227,0,0,0-2.228-2.228Zm-20.72,37.447a4.95,4.95,0,0,1-4.927-4.927v-7.6a4.927,4.927,0,1,1,9.853,0v7.6a4.95,4.95,0,0,1-4.927,4.926Z" transform="translate(-521.072 -324.458)" fill="#2f2e41"/>
      <path id="Path_29216" data-name="Path 29216" d="M693.064,306.911H514.724a5.789,5.789,0,0,0-5.78,5.78V433.035a5.785,5.785,0,0,0,5.78,5.78h178.34a5.786,5.786,0,0,0,5.78-5.78V312.691A5.789,5.789,0,0,0,693.064,306.911Z" transform="translate(-508.944 -306.911)" fill="#3f3d56"/>
      <path id="Path_29217" data-name="Path 29217" d="M692.284,311.8H516.923a3.1,3.1,0,0,0-3.091,3.1V432.256a3.1,3.1,0,0,0,3.091,3.091H692.284a3.1,3.1,0,0,0,3.091-3.091V314.894a3.1,3.1,0,0,0-3.091-3.1Z" transform="translate(-509.656 -307.623)" fill="#2f2e41"/>
      <path id="Path_29218" data-name="Path 29218" d="M591.995,504.6v6.359a1.246,1.246,0,0,0,1.243,1.243H637.21a1.249,1.249,0,0,0,1.243-1.243V504.6Z" transform="translate(-521.047 -335.722)" fill="#3f3d56"/>
      <path id="Path_29219" data-name="Path 29219" d="M664.621,514.125H560.291a1.919,1.919,0,0,1-1.878-2.315l1.619-7.689a1.927,1.927,0,0,1,1.878-1.524H663a1.928,1.928,0,0,1,1.878,1.524l1.619,7.689a1.919,1.919,0,0,1-1.878,2.315Z" transform="translate(-516.147 -335.429)" fill="#2f2e41"/>
      <rect id="Rectangle_3865" data-name="Rectangle 3865" width="3.213" height="1.928" rx="0.488" transform="translate(46.503 168.553)" fill="#3f3d56"/>
      <rect id="Rectangle_3866" data-name="Rectangle 3866" width="3.213" height="1.928" rx="0.488" transform="translate(52.929 168.553)" fill="#3f3d56"/>
      <rect id="Rectangle_3867" data-name="Rectangle 3867" width="3.213" height="1.928" rx="0.488" transform="translate(59.356 168.553)" fill="#3f3d56"/>
      <rect id="Rectangle_3868" data-name="Rectangle 3868" width="3.213" height="1.928" rx="0.488" transform="translate(65.782 168.553)" fill="#3f3d56"/>
      <rect id="Rectangle_3869" data-name="Rectangle 3869" width="3.213" height="1.928" rx="0.488" transform="translate(72.209 168.553)" fill="#3f3d56"/>
      <rect id="Rectangle_3870" data-name="Rectangle 3870" width="3.213" height="1.928" rx="0.488" transform="translate(78.635 168.553)" fill="#3f3d56"/>
      <rect id="Rectangle_3871" data-name="Rectangle 3871" width="3.213" height="1.928" rx="0.488" transform="translate(85.062 168.553)" fill="#3f3d56"/>
      <rect id="Rectangle_3872" data-name="Rectangle 3872" width="3.213" height="1.928" rx="0.488" transform="translate(91.489 168.553)" fill="#3f3d56"/>
      <rect id="Rectangle_3873" data-name="Rectangle 3873" width="3.213" height="1.928" rx="0.488" transform="translate(97.915 168.553)" fill="#3f3d56"/>
      <rect id="Rectangle_3874" data-name="Rectangle 3874" width="3.213" height="1.928" rx="0.488" transform="translate(104.342 168.553)" fill="#3f3d56"/>
      <rect id="Rectangle_3875" data-name="Rectangle 3875" width="3.213" height="1.928" rx="0.488" transform="translate(110.768 168.553)" fill="#3f3d56"/>
      <rect id="Rectangle_3876" data-name="Rectangle 3876" width="3.213" height="1.928" rx="0.488" transform="translate(117.195 168.553)" fill="#3f3d56"/>
      <rect id="Rectangle_3877" data-name="Rectangle 3877" width="3.213" height="1.928" rx="0.488" transform="translate(123.621 168.553)" fill="#3f3d56"/>
      <rect id="Rectangle_3878" data-name="Rectangle 3878" width="3.213" height="1.928" rx="0.488" transform="translate(130.048 168.553)" fill="#3f3d56"/>
      <rect id="Rectangle_3879" data-name="Rectangle 3879" width="3.213" height="1.928" rx="0.488" transform="translate(136.475 168.553)" fill="#3f3d56"/>
      <rect id="Rectangle_3880" data-name="Rectangle 3880" width="3.213" height="1.928" rx="0.488" transform="translate(142.901 168.553)" fill="#3f3d56"/>
      <rect id="Rectangle_3881" data-name="Rectangle 3881" width="3.213" height="1.928" rx="0.488" transform="translate(46.427 171.766)" fill="#3f3d56"/>
      <rect id="Rectangle_3882" data-name="Rectangle 3882" width="3.213" height="1.928" rx="0.488" transform="translate(52.853 171.766)" fill="#3f3d56"/>
      <rect id="Rectangle_3883" data-name="Rectangle 3883" width="3.213" height="1.928" rx="0.488" transform="translate(59.28 171.766)" fill="#3f3d56"/>
      <rect id="Rectangle_3884" data-name="Rectangle 3884" width="3.213" height="1.928" rx="0.488" transform="translate(65.706 171.766)" fill="#3f3d56"/>
      <rect id="Rectangle_3885" data-name="Rectangle 3885" width="3.213" height="1.928" rx="0.488" transform="translate(72.133 171.766)" fill="#3f3d56"/>
      <rect id="Rectangle_3886" data-name="Rectangle 3886" width="3.213" height="1.928" rx="0.488" transform="translate(78.559 171.766)" fill="#3f3d56"/>
      <rect id="Rectangle_3887" data-name="Rectangle 3887" width="3.213" height="1.928" rx="0.488" transform="translate(84.986 171.766)" fill="#3f3d56"/>
      <rect id="Rectangle_3888" data-name="Rectangle 3888" width="3.213" height="1.928" rx="0.488" transform="translate(91.413 171.766)" fill="#3f3d56"/>
      <rect id="Rectangle_3889" data-name="Rectangle 3889" width="3.213" height="1.928" rx="0.488" transform="translate(97.839 171.766)" fill="#3f3d56"/>
      <rect id="Rectangle_3890" data-name="Rectangle 3890" width="3.213" height="1.928" rx="0.488" transform="translate(104.266 171.766)" fill="#3f3d56"/>
      <rect id="Rectangle_3891" data-name="Rectangle 3891" width="3.213" height="1.928" rx="0.488" transform="translate(110.692 171.766)" fill="#3f3d56"/>
      <rect id="Rectangle_3892" data-name="Rectangle 3892" width="3.213" height="1.928" rx="0.488" transform="translate(117.119 171.766)" fill="#3f3d56"/>
      <rect id="Rectangle_3893" data-name="Rectangle 3893" width="3.213" height="1.928" rx="0.488" transform="translate(123.545 171.766)" fill="#3f3d56"/>
      <rect id="Rectangle_3894" data-name="Rectangle 3894" width="3.213" height="1.928" rx="0.488" transform="translate(129.972 171.766)" fill="#3f3d56"/>
      <rect id="Rectangle_3895" data-name="Rectangle 3895" width="3.213" height="1.928" rx="0.488" transform="translate(136.398 171.766)" fill="#3f3d56"/>
      <rect id="Rectangle_3896" data-name="Rectangle 3896" width="3.213" height="1.928" rx="0.488" transform="translate(142.825 171.766)" fill="#3f3d56"/>
      <rect id="Rectangle_3897" data-name="Rectangle 3897" width="25.706" height="1.928" rx="0.488" transform="translate(77.274 175.622)" fill="#3f3d56"/>
    </g>
  </g>
</svg>
