<svg id="Group_40490" data-name="Group 40490" xmlns="http://www.w3.org/2000/svg" xmlns:xlink="http://www.w3.org/1999/xlink" width="530.741" height="377.659" viewBox="0 0 530.741 377.659">
  <defs>
    <clipPath id="clip-path">
      <rect id="Rectangle_7003" data-name="Rectangle 7003" width="530.741" height="377.659" fill="none"/>
    </clipPath>
    <clipPath id="clip-path-2">
      <rect id="Rectangle_7001" data-name="Rectangle 7001" width="530.742" height="377.658" fill="none"/>
    </clipPath>
    <clipPath id="clip-path-3">
      <rect id="Rectangle_7000" data-name="Rectangle 7000" width="80.377" height="80.376" fill="none"/>
    </clipPath>
    <clipPath id="clip-path-4">
      <path id="Path_70004" data-name="Path 70004" d="M749.382,628.4a40.189,40.189,0,1,0,24.841-8.619,40.189,40.189,0,0,0-24.841,8.619" transform="translate(-734.065 -619.778)" fill="none"/>
    </clipPath>
  </defs>
  <g id="Group_40489" data-name="Group 40489" clip-path="url(#clip-path)">
    <g id="Group_40482" data-name="Group 40482" transform="translate(0 0.001)">
      <g id="Group_40481" data-name="Group 40481" clip-path="url(#clip-path-2)">
        <path id="Path_69941" data-name="Path 69941" d="M543.8,369.443S705.259-25.429,408.973,1.3c-126.9,11.448-103.211,80.9-159.258,145.885-36.329,42.122-106.2,7.664-132.384,44.471s4.586,141.758,15.38,177.788Z" transform="translate(-79.299 -0.001)" fill="#e5f0f8"/>
        <path id="Path_69942" data-name="Path 69942" d="M89.388,1239.61s-11.067-44.146-38.655-57.77-57.032,5.028-49.555,24.642c6.447,16.913,32.957-3.883,53.584,4.295S78.64,1239.61,78.64,1239.61Z" transform="translate(0 -872.08)" fill="#40a87b"/>
        <path id="Path_69943" data-name="Path 69943" d="M25.126,1222.314s29.609-16.874,51.576-1.274,28.919,46.164,28.919,46.164" transform="translate(-18.614 -899.674)" fill="none" stroke="#6adb6a" stroke-width="4.796"/>
        <line id="Line_436" data-name="Line 436" x2="6.889" y2="3.003" transform="translate(11.288 314.749)" fill="none" stroke="#6adb6a" stroke-width="4.796"/>
        <line id="Line_437" data-name="Line 437" x2="13.721" y2="6.435" transform="translate(21.237 308.314)" fill="none" stroke="#6adb6a" stroke-width="4.796"/>
        <line id="Line_438" data-name="Line 438" x2="7.138" y2="8.432" transform="translate(41.851 308.314)" fill="none" stroke="#6adb6a" stroke-width="4.796"/>
        <line id="Line_439" data-name="Line 439" x2="3.209" y2="7.765" transform="translate(55.382 313.965)" fill="none" stroke="#6adb6a" stroke-width="4.796"/>
        <line id="Line_440" data-name="Line 440" y1="17.495" x2="10.575" transform="translate(14.732 315.89)" fill="none" stroke="#6adb6a" stroke-width="4.796"/>
        <line id="Line_441" data-name="Line 441" y1="15.577" x2="9.699" transform="translate(33.414 315.301)" fill="none" stroke="#6adb6a" stroke-width="4.796"/>
        <line id="Line_442" data-name="Line 442" y1="1.812" x2="14.581" transform="translate(49.89 326.678)" fill="none" stroke="#6adb6a" stroke-width="4.796"/>
        <line id="Line_443" data-name="Line 443" x2="8.358" y2="2.744" transform="translate(66.865 337.325)" fill="none" stroke="#6adb6a" stroke-width="4.796"/>
        <path id="Path_69944" data-name="Path 69944" d="M140.215,1045.258s7.809-147.976-62.869-128.907,55.133,98.821,55.026,128.907Z" transform="translate(-41.334 -677.598)" fill="#6adb6a"/>
        <path id="Path_69945" data-name="Path 69945" d="M219.434,1088.313S216.967,1011,166.585,972.772" transform="translate(-123.41 -720.653)" fill="none" stroke="#40a87b" stroke-width="4.796"/>
        <line id="Line_444" data-name="Line 444" x1="1.259" y1="26.66" transform="translate(64.013 247.876)" fill="none" stroke="#40a87b" stroke-width="4.796"/>
        <line id="Line_445" data-name="Line 445" x2="34.054" y2="4.439" transform="translate(25.744 263.489)" fill="none" stroke="#40a87b" stroke-width="4.796"/>
        <line id="Line_446" data-name="Line 446" x2="36.006" y2="4.195" transform="translate(38.987 286.243)" fill="none" stroke="#40a87b" stroke-width="4.796"/>
        <line id="Line_447" data-name="Line 447" x2="27.81" y2="3.93" transform="translate(56.99 308.791)" fill="none" stroke="#40a87b" stroke-width="4.796"/>
        <line id="Line_448" data-name="Line 448" x1="6.374" y2="15.487" transform="translate(81.094 287.722)" fill="none" stroke="#40a87b" stroke-width="4.796"/>
        <line id="Line_449" data-name="Line 449" x1="5.434" y2="21.803" transform="translate(71.56 262.588)" fill="none" stroke="#40a87b" stroke-width="4.796"/>
        <line id="Line_450" data-name="Line 450" x1="5.078" y2="10.122" transform="translate(88.34 313.576)" fill="none" stroke="#40a87b" stroke-width="4.796"/>
        <line id="Line_451" data-name="Line 451" x2="19.928" y2="6.283" transform="translate(71.56 329.694)" fill="none" stroke="#40a87b" stroke-width="4.796"/>
        <path id="Path_69946" data-name="Path 69946" d="M1715.049,1246.741s10.678-42.592,37.294-55.737,55.024,4.851,47.811,23.774c-6.22,16.318-31.8-3.746-51.7,4.144s-23.037,27.818-23.037,27.818Z" transform="translate(-1270.549 -878.991)" fill="#40a87b"/>
        <path id="Path_69947" data-name="Path 69947" d="M1801.574,1230.054s-28.566-16.28-49.761-1.229-27.9,44.539-27.9,44.539" transform="translate(-1277.115 -905.614)" fill="none" stroke="#6adb6a" stroke-width="4.628"/>
        <line id="Line_452" data-name="Line 452" x1="6.646" y2="2.897" transform="translate(513.205 316.827)" fill="none" stroke="#6adb6a" stroke-width="4.628"/>
        <line id="Line_453" data-name="Line 453" x1="13.238" y2="6.209" transform="translate(497.015 310.618)" fill="none" stroke="#6adb6a" stroke-width="4.628"/>
        <line id="Line_454" data-name="Line 454" x1="6.887" y2="8.136" transform="translate(483.477 310.618)" fill="none" stroke="#6adb6a" stroke-width="4.628"/>
        <line id="Line_455" data-name="Line 455" x1="3.096" y2="7.492" transform="translate(474.214 316.07)" fill="none" stroke="#6adb6a" stroke-width="4.628"/>
        <line id="Line_456" data-name="Line 456" x1="10.203" y1="16.879" transform="translate(506.326 317.928)" fill="none" stroke="#6adb6a" stroke-width="4.628"/>
        <line id="Line_457" data-name="Line 457" x1="9.358" y1="15.028" transform="translate(489.146 317.36)" fill="none" stroke="#6adb6a" stroke-width="4.628"/>
        <line id="Line_458" data-name="Line 458" x1="14.068" y1="1.748" transform="translate(468.54 328.337)" fill="none" stroke="#6adb6a" stroke-width="4.628"/>
        <line id="Line_459" data-name="Line 459" x1="8.064" y2="2.647" transform="translate(458.167 338.608)" fill="none" stroke="#6adb6a" stroke-width="4.628"/>
        <path id="Path_69948" data-name="Path 69948" d="M1679.01,1059.229s-7.534-142.767,60.656-124.369-53.192,95.342-53.089,124.369Z" transform="translate(-1243.668 -691.355)" fill="#6adb6a"/>
        <path id="Path_69949" data-name="Path 69949" d="M1690.348,1100.768s2.381-74.591,50.989-111.473" transform="translate(-1252.25 -732.894)" fill="none" stroke="#40a87b" stroke-width="4.628"/>
        <line id="Line_460" data-name="Line 460" y1="25.721" x2="1.214" transform="translate(467.768 252.308)" fill="none" stroke="#40a87b" stroke-width="4.628"/>
        <line id="Line_461" data-name="Line 461" x1="32.855" y2="4.282" transform="translate(473.049 267.372)" fill="none" stroke="#40a87b" stroke-width="4.628"/>
        <line id="Line_462" data-name="Line 462" x1="34.738" y2="4.047" transform="translate(458.389 289.324)" fill="none" stroke="#40a87b" stroke-width="4.628"/>
        <line id="Line_463" data-name="Line 463" x1="26.831" y2="3.792" transform="translate(448.927 311.079)" fill="none" stroke="#40a87b" stroke-width="4.628"/>
        <line id="Line_464" data-name="Line 464" x2="6.15" y2="14.942" transform="translate(446.353 290.752)" fill="none" stroke="#40a87b" stroke-width="4.628"/>
        <line id="Line_465" data-name="Line 465" x2="5.243" y2="21.036" transform="translate(456.458 266.502)" fill="none" stroke="#40a87b" stroke-width="4.628"/>
        <line id="Line_466" data-name="Line 466" x2="4.899" y2="9.766" transform="translate(440.612 315.695)" fill="none" stroke="#40a87b" stroke-width="4.628"/>
        <line id="Line_467" data-name="Line 467" x1="19.227" y2="6.062" transform="translate(442.475 331.245)" fill="none" stroke="#40a87b" stroke-width="4.628"/>
        <path id="Path_69950" data-name="Path 69950" d="M1847.428,736.785a4.424,4.424,0,0,0-6.131,1.6l-2.1,3.705-.851-.513a2.791,2.791,0,0,0-2.881,4.781l.974.587-12.066,21.236a1.587,1.587,0,0,0,.4,2.03l-1.217,3.325,2.53,1.526,2.371-2.629a1.586,1.586,0,0,0,1.982-.6l13.139-20.587.974.587a2.793,2.793,0,0,0,2.882-4.784l-.851-.513,2.291-3.591a4.423,4.423,0,0,0-1.444-6.168" transform="translate(-1350.933 -545.358)" fill="#fff"/>
        <path id="Path_69951" data-name="Path 69951" d="M1038.71,24.089H808.752c-2.723,0-4.93,3.613-4.93,8.071V217.1h239.817V32.16c0-4.458-2.207-8.071-4.93-8.071" transform="translate(-595.49 -17.846)" fill="#bbdbf3"/>
        <rect id="Rectangle_6973" data-name="Rectangle 6973" width="233.406" height="171.9" transform="translate(211.537 24.382)" fill="#e5f0f8"/>
        <path id="Path_69952" data-name="Path 69952" d="M854.945,140.64v-1.805l10.423-5.641v2.758l-6.962,3.786,6.962,3.786v2.758Z" transform="translate(-633.364 -98.673)" fill="#fff"/>
        <path id="Path_69953" data-name="Path 69953" d="M1638.547,702.716v-2.758l6.962-3.786-6.962-3.786v-2.758l10.423,5.641v1.805Z" transform="translate(-1213.875 -510.894)" fill="#fff"/>
        <rect id="Rectangle_6974" data-name="Rectangle 6974" width="41.451" height="4.259" transform="translate(235.87 38.934)" fill="#fff"/>
        <rect id="Rectangle_6975" data-name="Rectangle 6975" width="41.451" height="4.259" transform="translate(221.581 55.391)" fill="#fff"/>
        <rect id="Rectangle_6976" data-name="Rectangle 6976" width="41.451" height="4.259" transform="translate(230.411 66.856)" fill="#fff"/>
        <rect id="Rectangle_6977" data-name="Rectangle 6977" width="41.451" height="4.259" transform="translate(230.411 98.408)" fill="#fff"/>
        <rect id="Rectangle_6978" data-name="Rectangle 6978" width="41.451" height="4.259" transform="translate(230.411 108.169)" fill="#fff"/>
        <rect id="Rectangle_6979" data-name="Rectangle 6979" width="125.009" height="4.259" transform="translate(244.655 77.774)" fill="#fff"/>
        <rect id="Rectangle_6980" data-name="Rectangle 6980" width="167.001" height="4.259" transform="translate(244.655 118.539)" fill="#fff"/>
        <rect id="Rectangle_6981" data-name="Rectangle 6981" width="167.001" height="4.259" transform="translate(244.655 151.188)" fill="#fff"/>
        <rect id="Rectangle_6982" data-name="Rectangle 6982" width="159.995" height="4.259" transform="translate(260.361 183.149)" fill="#fff"/>
        <rect id="Rectangle_6983" data-name="Rectangle 6983" width="35.769" height="4.259" transform="translate(244.655 162.282)" fill="#fff"/>
        <rect id="Rectangle_6984" data-name="Rectangle 6984" width="35.769" height="4.259" transform="translate(244.655 172.834)" fill="#fff"/>
        <rect id="Rectangle_6985" data-name="Rectangle 6985" width="167.001" height="4.259" transform="translate(244.655 128.961)" fill="#fff"/>
        <rect id="Rectangle_6986" data-name="Rectangle 6986" width="90.355" height="4.259" transform="translate(244.655 139.383)" fill="#fff"/>
        <rect id="Rectangle_6987" data-name="Rectangle 6987" width="38.332" height="4.259" transform="translate(244.655 87.589)" fill="#fff"/>
        <line id="Line_468" data-name="Line 468" y1="10.61" x2="10.61" transform="translate(428.32 10.239)" fill="none" stroke="#fff" stroke-linecap="round" stroke-linejoin="round" stroke-width="6.565"/>
        <line id="Line_469" data-name="Line 469" x1="10.61" y1="10.61" transform="translate(428.32 10.239)" fill="none" stroke="#fff" stroke-linecap="round" stroke-linejoin="round" stroke-width="6.565"/>
        <path id="Path_69954" data-name="Path 69954" d="M595.595,1426.023H166.4a4.926,4.926,0,0,1-4.926-4.926v-1.038a4.926,4.926,0,0,1,4.926-4.926H595.595a4.926,4.926,0,0,1,4.926,4.926v1.038a4.926,4.926,0,0,1-4.926,4.926" transform="translate(-119.627 -1048.365)" fill="#0775ef"/>
        <path id="Path_69955" data-name="Path 69955" d="M1534.2,196.433v-2.481l14.32-7.75v3.789l-9.566,5.2,9.566,5.2v3.789Z" transform="translate(-1136.569 -137.944)" fill="#088cfc"/>
        <path id="Path_69956" data-name="Path 69956" d="M1599.549,188.18l-2.349-1.033,8.83-26.731,2.349,1.1Z" transform="translate(-1183.244 -118.841)" fill="#088cfc"/>
        <path id="Path_69957" data-name="Path 69957" d="M1663.714,193.952v2.481l-14.32,7.75v-3.789l9.566-5.2-9.566-5.2V186.2Z" transform="translate(-1221.91 -137.943)" fill="#088cfc"/>
        <path id="Path_69958" data-name="Path 69958" d="M1748.07,201.667a9.861,9.861,0,0,0,12.383,3.141l10.512,14.883,2.579-1.822-10.51-14.881a9.867,9.867,0,1,0-14.963-1.321m14.388-10.162a7.722,7.722,0,1,1-10.762-1.852,7.745,7.745,0,0,1,10.762,1.852" transform="translate(-1293.672 -137.85)" fill="#fff"/>
        <path id="Path_69959" data-name="Path 69959" d="M1089.252,909.635a10.238,10.238,0,0,0-3.082-1.461,2.366,2.366,0,0,1-4.7-.237,10.172,10.172,0,0,0-3.211,1.138,2.368,2.368,0,0,1-3.492,3.153,10.168,10.168,0,0,0-1.459,3.078,2.367,2.367,0,0,1-.243,4.7,10.233,10.233,0,0,0,1.14,3.214,2.367,2.367,0,0,1,3.152,3.492,10.171,10.171,0,0,0,3.078,1.459,2.366,2.366,0,0,1,4.7.237,10.174,10.174,0,0,0,3.211-1.138,2.368,2.368,0,0,1,3.492-3.153,10.166,10.166,0,0,0,1.459-3.078,2.366,2.366,0,0,1,.243-4.7,10.176,10.176,0,0,0-1.137-3.211,2.367,2.367,0,0,1-3.152-3.492m-2.212,5.166a5.029,5.029,0,1,1-7.106-.366,5.029,5.029,0,0,1,7.106.366" transform="translate(-794.957 -672.622)" fill="#fff"/>
        <path id="Path_69960" data-name="Path 69960" d="M1048.174,995.862a5.563,5.563,0,1,1-2.514-7.458,5.562,5.562,0,0,1,2.514,7.458m6.213.174a11.326,11.326,0,0,0,.25-3.764,2.618,2.618,0,0,1-1.666-4.927,11.251,11.251,0,0,0-2.476-2.841,2.619,2.619,0,0,1-4.663-2.309,11.246,11.246,0,0,0-3.76-.248,2.618,2.618,0,0,1-4.929,1.66,11.319,11.319,0,0,0-2.843,2.48,2.618,2.618,0,0,1-2.309,4.663,11.253,11.253,0,0,0-.249,3.76,2.618,2.618,0,0,1,1.666,4.927,11.251,11.251,0,0,0,2.476,2.841,2.619,2.619,0,0,1,4.663,2.31,11.244,11.244,0,0,0,3.76.249,2.618,2.618,0,0,1,4.929-1.66,11.251,11.251,0,0,0,2.841-2.476,2.618,2.618,0,0,1,2.309-4.663" transform="translate(-764.296 -727.407)" fill="#fff"/>
        <path id="Path_69961" data-name="Path 69961" d="M233.344,23.992c-1.464,3.772-3.836,12.458-5.3,17.13-2.127,6.772-13.441,12.374-24.393,3.241-8.889-7.414-.455-22.333,2.359-27.767a1.087,1.087,0,0,0-1.284-1.537,24.791,24.791,0,0,0-11.9,8.786c-7.981,10.3-8.479,18.684-6.742,24.89a19.25,19.25,0,0,1,.643,4.072,26.666,26.666,0,0,1-3.958,15.263L117.022,176.734c-9.988,14.732-22.767,9.508-31.879,21.9-6.761,9.2-3.893,24.153-2.33,30.385a1,1,0,0,0,1.9.128c1.464-3.772,2.639-10.092,4.107-14.765,2.128-6.772,15.193-11.717,26.144-2.584,8.889,7.414,1.452,20.315-1.361,25.749a1.086,1.086,0,0,0,1.284,1.537c2.64-.786,6.985-2.982,11.341-8.606,7.981-10.3,7.484-19.868,5.746-26.074a18.608,18.608,0,0,1-.045-8.25,30.208,30.208,0,0,1,3.915-9.987L203.66,74.091a17.552,17.552,0,0,1,5.743-5.851c8.107-5.024,16.819-3.209,23.529-12.337,6.762-9.2,3.878-25.551,2.315-31.783a1,1,0,0,0-1.9-.128" transform="translate(-59.898 -11.121)" fill="#93acbf"/>
        <path id="Path_69962" data-name="Path 69962" d="M306.548,203.071,233.334,324.08a3.678,3.678,0,0,1-6.293-3.807l73.214-121.009a3.678,3.678,0,1,1,6.293,3.808" transform="translate(-167.806 -146.308)" fill="#586773"/>
        <path id="Path_69963" data-name="Path 69963" d="M529.8,572.78H395.18a12.708,12.708,0,0,1-12.708-12.708V300.031a12.708,12.708,0,0,1,12.708-12.708H529.8A12.708,12.708,0,0,1,542.5,300.031v260.04A12.708,12.708,0,0,1,529.8,572.78" transform="translate(-283.344 -212.856)" fill="#bbdbf3"/>
        <path id="Path_69964" data-name="Path 69964" d="M828.5,408.771a22.887,22.887,0,1,1-22.887-22.888A22.889,22.889,0,0,1,828.5,408.771" transform="translate(-579.865 -285.872)" fill="#fff"/>
        <path id="Path_69965" data-name="Path 69965" d="M821.7,470.8c-9.859-.556-14.835,8.358-17.263,15.873a22.856,22.856,0,0,0,34.526,0c-2.428-7.515-7.4-16.429-17.263-15.873" transform="translate(-595.943 -348.759)" fill="#bbdbf3"/>
        <path id="Path_69966" data-name="Path 69966" d="M855.563,412.455c0,6.773-3.73,13.865-8.33,13.865s-8.33-7.092-8.33-13.865,3.73-10.663,8.33-10.663,8.33,3.89,8.33,10.663" transform="translate(-621.479 -297.658)" fill="#bbdbf3"/>
        <rect id="Rectangle_6988" data-name="Rectangle 6988" width="57.837" height="6.182" transform="translate(110.92 100.011)" fill="#fff"/>
        <rect id="Rectangle_6989" data-name="Rectangle 6989" width="73.139" height="6.182" transform="translate(110.92 113.307)" fill="#fff"/>
        <rect id="Rectangle_6990" data-name="Rectangle 6990" width="43.097" height="5.054" transform="translate(110.92 167.33)" fill="#fff"/>
        <rect id="Rectangle_6991" data-name="Rectangle 6991" width="43.097" height="5.054" transform="translate(110.92 279.776)" fill="#fff"/>
        <rect id="Rectangle_6992" data-name="Rectangle 6992" width="72.016" height="5.054" transform="translate(110.92 290.094)" fill="#fff"/>
        <rect id="Rectangle_6993" data-name="Rectangle 6993" width="54.749" height="5.054" transform="translate(110.92 176.876)" fill="#fff"/>
        <path id="Path_69967" data-name="Path 69967" d="M487.153,759.352H431.4a3.438,3.438,0,0,1-3.428-3.428v-15.6a3.438,3.438,0,0,1,3.428-3.428h55.754a3.439,3.439,0,0,1,3.428,3.428v15.6a3.438,3.438,0,0,1-3.428,3.428" transform="translate(-317.051 -545.907)" fill="#fff"/>
        <path id="Path_69968" data-name="Path 69968" d="M716.289,759.352h55.754a3.438,3.438,0,0,0,3.428-3.428v-15.6a3.438,3.438,0,0,0-3.428-3.428H716.289a3.439,3.439,0,0,0-3.428,3.428v15.6a3.438,3.438,0,0,0,3.428,3.428" transform="translate(-528.104 -545.907)" fill="#fff"/>
        <path id="Path_69969" data-name="Path 69969" d="M557.021,904.7H431.73a6.233,6.233,0,0,1-6.215-6.214V862.268a6.233,6.233,0,0,1,6.215-6.215H557.021a6.233,6.233,0,0,1,6.214,6.215v36.213a6.233,6.233,0,0,1-6.214,6.214" transform="translate(-315.232 -634.186)" fill="#fff"/>
        <rect id="Rectangle_6994" data-name="Rectangle 6994" width="48.432" height="4.211" transform="translate(117.869 237.03)" fill="#e5f0f8"/>
        <rect id="Rectangle_6995" data-name="Rectangle 6995" width="73.911" height="9.265" transform="translate(117.869 246.084)" fill="#e5f0f8"/>
        <path id="Path_69970" data-name="Path 69970" d="M561.024,1184.736h-133.3a2.218,2.218,0,0,1-2.211-2.211v-19.583a2.218,2.218,0,0,1,2.211-2.211h133.3a2.218,2.218,0,0,1,2.211,2.211v19.583a2.218,2.218,0,0,1-2.211,2.211" transform="translate(-315.232 -859.898)" fill="#e5f0f8"/>
        <rect id="Rectangle_6996" data-name="Rectangle 6996" width="59.803" height="4.633" transform="translate(117.026 310.52)" fill="#fff"/>
        <rect id="Rectangle_6997" data-name="Rectangle 6997" width="16.737" height="4.633" transform="translate(224.524 310.52)" fill="#fff"/>
        <path id="Path_69971" data-name="Path 69971" d="M561.024,1294.691h-133.3a2.218,2.218,0,0,1-2.211-2.211V1272.9a2.218,2.218,0,0,1,2.211-2.211h133.3a2.218,2.218,0,0,1,2.211,2.211v19.583a2.218,2.218,0,0,1-2.211,2.211" transform="translate(-315.232 -941.355)" fill="#e5f0f8"/>
        <rect id="Rectangle_6998" data-name="Rectangle 6998" width="59.803" height="4.633" transform="translate(117.026 339.017)" fill="#fff"/>
        <rect id="Rectangle_6999" data-name="Rectangle 6999" width="16.737" height="4.633" transform="translate(224.524 339.017)" fill="#fff"/>
        <path id="Path_69972" data-name="Path 69972" d="M1888.716,99.61l-5.647-1.874,30.759-92.688L1918.636,0l.838,6.921Z" transform="translate(-1395.022 -0.002)" fill="#93acbf"/>
        <path id="Path_69973" data-name="Path 69973" d="M1716.562,539.343l-18.345-6.088a4.787,4.787,0,0,1-3.035-6.051l31.738-95.639,27.431,9.1-31.738,95.64a4.787,4.787,0,0,1-6.051,3.036" transform="translate(-1255.65 -319.714)" fill="#6adb6a"/>
        <path id="Path_69974" data-name="Path 69974" d="M1863.883,366.313l-27.431-9.1,2.079-6.264a.956.956,0,0,1,1.209-.606l25.615,8.5a.956.956,0,0,1,.606,1.209Z" transform="translate(-1360.487 -259.505)" fill="#6adb6a"/>
        <path id="Path_69975" data-name="Path 69975" d="M1844.828,392.281a13.134,13.134,0,0,1,5.637-6.19l-13.715-4.551-13.716-4.552a13.134,13.134,0,0,1,.817,8.332c-1.189,4.183-5.512,5.813-5.512,5.813l13.716,4.551,13.715,4.552s-2.49-3.891-.943-7.955" transform="translate(-1347.07 -279.282)" fill="#40a87b"/>
        <path id="Path_69976" data-name="Path 69976" d="M1748.67,563.638h0a1.989,1.989,0,0,1-1.258-2.507l26.952-81.217a1.983,1.983,0,1,1,3.765,1.249l-26.952,81.217a1.989,1.989,0,0,1-2.507,1.258" transform="translate(-1294.45 -354.526)" fill="#40a87b"/>
        <path id="Path_69977" data-name="Path 69977" d="M1777.724,573.28h0a1.989,1.989,0,0,1-1.258-2.507l26.952-81.217a1.983,1.983,0,1,1,3.765,1.249l-26.952,81.217a1.989,1.989,0,0,1-2.507,1.258" transform="translate(-1315.974 -361.669)" fill="#40a87b"/>
        <path id="Path_69978" data-name="Path 69978" d="M1719.616,554h0a1.989,1.989,0,0,0,2.507-1.258l26.952-81.217a1.983,1.983,0,1,0-3.765-1.249l-26.952,81.217a1.989,1.989,0,0,0,1.258,2.507" transform="translate(-1272.926 -347.384)" fill="#40a87b"/>
        <path id="Path_69979" data-name="Path 69979" d="M2001.747,5.049,2006.556,0,2002.1,10.734Z" transform="translate(-1482.942 -0.002)" fill="#586773"/>
        <path id="Path_69980" data-name="Path 69980" d="M2013.013,6.923,2012.175,0l-2.844,11.268Z" transform="translate(-1488.56 -0.002)" fill="#586773"/>
        <path id="Path_69981" data-name="Path 69981" d="M1789.409,479.019l-12.15-17.9-5.728,28.424,8.939,23Z" transform="translate(-1312.393 -341.611)" fill="#93acbf"/>
        <path id="Path_69982" data-name="Path 69982" d="M1158.245,705.627h128.446a6.52,6.52,0,0,0,6.161-5.194l39.683-219.168c.525-2.9.11-5.854-2.789-5.854l-127.269-18.041a6.547,6.547,0,0,0-6.183,5.248l-42.346,237.814a4.241,4.241,0,0,0,4.3,5.194" transform="translate(-854.812 -338.832)" fill="#93acbf"/>
        <path id="Path_69983" data-name="Path 69983" d="M1101.163,705.627h128.446a6.52,6.52,0,0,0,6.161-5.194l43.059-237.814a4.261,4.261,0,0,0-4.3-5.248H1145.4a6.548,6.548,0,0,0-6.183,5.248l-42.345,237.814a4.241,4.241,0,0,0,4.3,5.194" transform="translate(-812.524 -338.832)" fill="#bbdbf3"/>
        <path id="Path_69984" data-name="Path 69984" d="M1182.278,492.981l-38.856,217.972H1264.01l15.542-85.931L1230.83,496.4h21.108l34.424,90.969,17.071-94.387Z" transform="translate(-847.074 -365.212)" fill="#586773"/>
        <path id="Path_69985" data-name="Path 69985" d="M1458.315,474.461a4.163,4.163,0,0,0-.038,1.3,3.759,3.759,0,0,0,.83,2.029,3.912,3.912,0,0,0,3.083,1.389h26.556a5.929,5.929,0,0,0,5.141-3.418,4.864,4.864,0,0,0,.43-1.3,4.033,4.033,0,0,0-.79-3.332,3.893,3.893,0,0,0-3.082-1.389h-26.561a5.922,5.922,0,0,0-5.568,4.721" transform="translate(-1080.301 -347.995)" fill="#bbdbf3"/>
        <path id="Path_69986" data-name="Path 69986" d="M1480.676,506.168,1529.4,634.791l6.81-37.654-34.423-90.969Z" transform="translate(-1096.92 -374.982)" fill="#93acbf"/>
        <path id="Path_69987" data-name="Path 69987" d="M1292.911,492.981l-.151.846,82.079,216.039,13.24-73.206-54.447-143.68Z" transform="translate(-957.707 -365.212)" fill="#93acbf"/>
        <path id="Path_69988" data-name="Path 69988" d="M1215.473,886.594l-2.7,15.12,38.446,100.836h8.448Z" transform="translate(-898.454 -656.811)" fill="#93acbf"/>
        <path id="Path_69989" data-name="Path 69989" d="M1194.558,962.928l-5.252,29.461,25.463,66.712h16.463Z" transform="translate(-881.067 -713.36)" fill="#93acbf"/>
        <path id="Path_69990" data-name="Path 69990" d="M1293.237,1362.954h29.411a7.652,7.652,0,0,0,7.21-6.084,4.971,4.971,0,0,0-5.021-6.085h-29.419a7.646,7.646,0,0,0-7.207,6.085,4.974,4.974,0,0,0,5.025,6.084" transform="translate(-954.267 -1000.694)" fill="#bbdbf3"/>
        <path id="Path_69991" data-name="Path 69991" d="M549.357,878.246,538.4,878.06l.574-11.507.274-5.5.016-.274,8.574-3.6.279,3.889.207,2.834Z" transform="translate(-398.859 -635.015)" fill="#fdae97"/>
        <path id="Path_69992" data-name="Path 69992" d="M484.532,1064.48l-4.608,38.146a8.766,8.766,0,0,0,10.357,9.927c4.763-.926,6.586-4.6,7.441-10.073,1.642-10.5,7.378-42,7.378-42Z" transform="translate(-355.464 -785.631)" fill="#088cfc"/>
        <path id="Path_69993" data-name="Path 69993" d="M564.894,1068.5l-16.927,1.136.084,18.754,2.009,2.971,1.862,18.079,17.135-1.37Z" transform="translate(-405.947 -791.571)" fill="#088cfc"/>
        <path id="Path_69994" data-name="Path 69994" d="M437.249,947.953l.058.038a5.531,5.531,0,0,0,7.646-1.536l13.691-20.576a5.531,5.531,0,0,0-1.536-7.646l-.058-.038a5.531,5.531,0,0,0-7.646,1.536l-13.691,20.576a5.531,5.531,0,0,0,1.536,7.646" transform="translate(-322.106 -679.541)" fill="#f74242"/>
        <path id="Path_69995" data-name="Path 69995" d="M696.053,923.73l-4.511,6.038-5.873-3.576,4.763-6.265,6.673.629Z" transform="translate(-507.959 -681.505)" fill="#e89780"/>
        <path id="Path_69996" data-name="Path 69996" d="M635,958.5c2.736,1.591,6.141.914,7.538-1.5l6.915-12.637,2.439-4.479,2.553-4.663-4.245-2.934-3.014-2.081L646.9,930l-3.1,4.6-2.845,4.21-8.371,12.4c-1.4,2.419-.317,5.708,2.419,7.3" transform="translate(-468.18 -688.966)" fill="#f74242"/>
        <path id="Path_69997" data-name="Path 69997" d="M541.819,908.841c4.021.089,5.733-1.91,6.25-2.7l-1.5-.679-9.943-.5-1.195.382a7.115,7.115,0,0,0,6.391,3.492" transform="translate(-396.658 -670.421)" fill="#fdae97"/>
        <path id="Path_69998" data-name="Path 69998" d="M527.351,933.974l.238,16.443H496.637L497,908.962l10.622-3.838c.119.218.248.446.406.684l.04.049c.575.734,1.676,1.428,4.761,1.5,2.569.06,3.828-.3,4.542-.764l.01-.01a2.719,2.719,0,0,0,.793-.843L528.2,907.95l-.674,20.926Z" transform="translate(-367.921 -670.538)" fill="#f74242"/>
        <path id="Path_69999" data-name="Path 69999" d="M467.83,1238.789l15.922-.011,4.8-37.053a8.786,8.786,0,1,0-17.476-1.84,8.427,8.427,0,0,0-.036,1.244l-2.772,32.522Z" transform="translate(-346.58 -883.075)" fill="#088cfc"/>
        <path id="Path_70000" data-name="Path 70000" d="M609.664,947.609h0a5.617,5.617,0,0,1-7.533-2.446l-11.241-22.055a5.6,5.6,0,0,1,9.98-5.087l11.242,22.055a5.617,5.617,0,0,1-2.446,7.533" transform="translate(-437.295 -677.83)" fill="#f74242"/>
        <path id="Path_70001" data-name="Path 70001" d="M783.833,677.367a47.053,47.053,0,1,0-66.081-7.824,47.1,47.1,0,0,0,66.081,7.824m-62.509-10.654a42.5,42.5,0,1,1,59.691,7.081,42.5,42.5,0,0,1-59.691-7.081" transform="translate(-524.264 -439.591)" fill="#93acbf"/>
        <path id="Path_70002" data-name="Path 70002" d="M793.947,686.732a42.5,42.5,0,1,0-59.691-7.081,42.506,42.506,0,0,0,59.691,7.081m-57.872-8.51a40.186,40.186,0,1,1,56.443,6.69,40.188,40.188,0,0,1-56.443-6.69" transform="translate(-537.195 -452.53)" fill="#586773"/>
        <g id="Group_40480" data-name="Group 40480" transform="translate(190.252 160.631)" opacity="0.3">
          <g id="Group_40479" data-name="Group 40479">
            <g id="Group_40478" data-name="Group 40478" clip-path="url(#clip-path-3)">
              <path id="Path_70003" data-name="Path 70003" d="M742.692,684.84a40.186,40.186,0,1,1,56.443,6.69,40.188,40.188,0,0,1-56.443-6.69" transform="translate(-734.065 -619.778)" fill="#e5f0f8"/>
            </g>
          </g>
        </g>
      </g>
    </g>
    <g id="Group_40488" data-name="Group 40488" transform="translate(0 0.001)">
      <g id="Group_40487" data-name="Group 40487" clip-path="url(#clip-path-2)">
        <path id="Path_70005" data-name="Path 70005" d="M681.445,896.142l-1.636-1.963,19.914-15.688,1.515,2.056Z" transform="translate(-503.619 -650.808)" fill="#93acbf"/>
        <path id="Path_70006" data-name="Path 70006" d="M512,970.218c-.008-.007-.009-.015-.017-.021a3.032,3.032,0,0,1,.506-4.265l41.289-32.542,1.218,1.46.747.891.888,1.072,1.035,1.244L516.246,970.7a3.031,3.031,0,0,1-4.248-.484" transform="translate(-378.803 -691.477)" fill="#586773"/>
        <path id="Path_70007" data-name="Path 70007" d="M513.918,976.937a.162.162,0,0,1,.036-.026l43.706-34.452.888,1.072,1.035,1.244-41.418,32.647a3.031,3.031,0,0,1-4.248-.484" transform="translate(-380.723 -698.197)" fill="#93acbf"/>
        <path id="Path_70008" data-name="Path 70008" d="M845.153,707.2h23.013c-2.565-6.038-6.769-9.966-11.507-9.966s-8.942,3.928-11.506,9.966" transform="translate(-626.109 -516.527)" fill="#586773"/>
        <path id="Path_70009" data-name="Path 70009" d="M834.878,757.76c0,13.2,6.341,23.895,14.169,23.895s14.169-10.7,14.169-23.895a37.388,37.388,0,0,0-1.612-11.079H836.49a37.4,37.4,0,0,0-1.612,11.079" transform="translate(-618.497 -553.16)" fill="#586773"/>
        <path id="Path_70010" data-name="Path 70010" d="M856.19,673.189s-.12-11.047-6.965-11.167" transform="translate(-629.126 -490.442)" fill="none" stroke="#586773" stroke-linecap="round" stroke-linejoin="round" stroke-width="6.873"/>
        <path id="Path_70011" data-name="Path 70011" d="M903,673.189s.12-11.047,6.965-11.167" transform="translate(-668.965 -490.442)" fill="none" stroke="#586773" stroke-linecap="round" stroke-linejoin="round" stroke-width="6.873"/>
        <path id="Path_70012" data-name="Path 70012" d="M819.185,734.826l-8.336-6.326-3.245-8.564" transform="translate(-598.292 -533.347)" fill="none" stroke="#586773" stroke-linecap="round" stroke-linejoin="round" stroke-width="6.873"/>
        <path id="Path_70013" data-name="Path 70013" d="M925.969,734.826,934.3,728.5l3.245-8.564" transform="translate(-685.98 -533.347)" fill="none" stroke="#586773" stroke-linecap="round" stroke-linejoin="round" stroke-width="6.873"/>
        <path id="Path_70014" data-name="Path 70014" d="M819.185,830.205l-8.336,6.326L807.6,845.1" transform="translate(-598.292 -615.036)" fill="none" stroke="#586773" stroke-linecap="round" stroke-linejoin="round" stroke-width="6.873"/>
        <path id="Path_70015" data-name="Path 70015" d="M925.969,830.205l8.336,6.326,3.245,8.564" transform="translate(-685.98 -615.036)" fill="none" stroke="#586773" stroke-linecap="round" stroke-linejoin="round" stroke-width="6.873"/>
        <path id="Path_70016" data-name="Path 70016" d="M572.865,832.542s.087-3.791-.952-3.791-.73,3.782.952,3.791" transform="translate(-423.242 -613.959)" fill="#332b27"/>
        <path id="Path_70017" data-name="Path 70017" d="M550.059,908.69l-4.542,7.18-4.761-7.914c.575.734,1.676,1.428,4.761,1.5,2.568.06,3.828-.3,4.542-.764" transform="translate(-400.605 -672.636)" fill="#d6eaff"/>
        <path id="Path_70018" data-name="Path 70018" d="M557.917,1026.1c-.066.483-2.951,1.1-5.093.874-1.816-.191-5.953-1.083-7.171-1.354l.456-5.79a14.937,14.937,0,0,0,2.221-.245c1.686-.338,6.374-.734,6.426-.053s-3.106,1.594-2.851,1.86,2.731.131,3.778-.011,3.255-.8,3.684-.358-.04,1.228-.04,1.228.813-.351.939.2-1,1.41-1,1.41.425-.245.415.391-2.13,1.349-2.13,1.349a.393.393,0,0,1,.367.5" transform="translate(-404.232 -755.019)" fill="#fdae97"/>
        <path id="Path_70019" data-name="Path 70019" d="M562.9,1196.573l4.089,38.511H582.63l-2.508-38.722a10.546,10.546,0,0,0-.129-1.286c-.429-4.837-4.272-8.448-9.108-8.027a8.8,8.8,0,0,0-7.986,9.523" transform="translate(-416.984 -879.371)" fill="#088cfc"/>
        <path id="Path_70020" data-name="Path 70020" d="M465.96,1000.707l-5.538-1.115-5.013-1-13.376-2.69c-2.769-.369-5.38,1.891-5.806,5.03s1.5,6.012,4.274,6.387l13.962,1.03,5.073.38,5.243.388Z" transform="translate(-323.125 -737.757)" fill="#f74242"/>
        <path id="Path_70021" data-name="Path 70021" d="M560.248,886.454l-6.16-4.492,5.858.3Z" transform="translate(-410.482 -653.379)" fill="#ea9d85"/>
        <path id="Path_70022" data-name="Path 70022" d="M542.288,824.416l1.668,6.07.572,2.082c.452,1.645.661,4.212-1.035,5.285s-4.445,1-6.747-.437-8.625-9.054-4.039-13.768,9.219-.046,9.58.768" transform="translate(-393.437 -608.639)" fill="#fdae97"/>
        <path id="Path_70023" data-name="Path 70023" d="M529.193,817.921s1.721-3.395,3.216-3.141-.089,1.571-.089,1.571,4.954-1.3,6.619,1.914-6.16,2.255-6.16,2.255,1.549,1.929,0,2.117a2.875,2.875,0,0,1-2.258-.47s1.546,2.863.684,3.775.2,3.5,1.166,4.231a3.147,3.147,0,0,0,3.488-.241,3.237,3.237,0,0,1,1.794-.921c.494-.055,1.662.242,2.166.16a1.941,1.941,0,0,0,.7-.371,8.744,8.744,0,0,1,.278,1.235c.038.734.4,4.019-3.322,4.171a7.531,7.531,0,0,1-7.556-4.351l-.475,2.118a7.409,7.409,0,0,0-1.752-3.549c-1.3-1.166-2.936-6.562-.581-8.639,0,0-2.024,1.158-1.764-.29.2-1.1,3.845-1.573,3.845-1.573" transform="translate(-389.174 -603.599)" fill="#332b27"/>
        <path id="Path_70024" data-name="Path 70024" d="M533.543,865.45c.444,1.155.471,1.91-.436,2.258a2.122,2.122,0,0,1-2.652-1.24,2.045,2.045,0,0,1,.838-2.723c.907-.349,1.805.549,2.249,1.7" transform="translate(-392.836 -639.827)" fill="#fdae97"/>
        <path id="Path_70025" data-name="Path 70025" d="M560.138,853.234c.1.382.39.636.637.568s.362-.432.257-.814-.39-.636-.637-.568-.362.432-.257.814" transform="translate(-414.935 -631.485)" fill="#332b27"/>
        <path id="Path_70026" data-name="Path 70026" d="M575.391,849.042c.1.381-.01.746-.257.814s-.532-.187-.637-.568.01-.746.257-.814.532.187.637.568" transform="translate(-425.572 -628.562)" fill="#332b27"/>
        <path id="Path_70027" data-name="Path 70027" d="M557.781,862.349c-.021.383-.655.659-1.416.617s-1.361-.386-1.34-.769.655-.659,1.416-.617,1.361.386,1.34.769" transform="translate(-411.175 -638.276)" fill="#e89780"/>
        <path id="Path_70028" data-name="Path 70028" d="M578.2,855.974l.372,1.354c-.552.223-1.063.194-1.224-.082-.182-.329.2-.9.852-1.272" transform="translate(-427.677 -634.126)" fill="#e89780"/>
        <path id="Path_70029" data-name="Path 70029" d="M534.925,869.57a3.177,3.177,0,0,1,1.154.236c-.349-1.171-1.2-1.217-1.2-1.217" transform="translate(-396.253 -643.472)" fill="none" stroke="#ea9d85" stroke-linecap="round" stroke-linejoin="round" stroke-width="1.103"/>
        <path id="Path_70030" data-name="Path 70030" d="M567.852,854.6l1.512,2.205a.589.589,0,0,1-.045.725l-.278.314-.285.321" transform="translate(-420.678 -633.107)" fill="none" stroke="#332b27" stroke-width="0.706"/>
        <path id="Path_70031" data-name="Path 70031" d="M557.26,850.235a2.113,2.113,0,0,1,1.621-1.034" transform="translate(-412.831 -629.109)" fill="none" stroke="#332b27" stroke-width="0.706"/>
        <path id="Path_70032" data-name="Path 70032" d="M573.813,845.275a1.474,1.474,0,0,0-1.605.223" transform="translate(-423.905 -626.094)" fill="none" stroke="#332b27" stroke-width="0.706"/>
        <path id="Path_70033" data-name="Path 70033" d="M564.1,905.541l-4.971,2.127,2.612,3.173,2.974-4.689Z" transform="translate(-414.214 -670.847)" fill="#fff"/>
        <path id="Path_70034" data-name="Path 70034" d="M538.839,903.726l4.932,2.6-2.352,3.039-3.02-5.21Z" transform="translate(-398.859 -669.502)" fill="#fff"/>
        <path id="Path_70035" data-name="Path 70035" d="M586.281,1378.5l-.419-6.019h11.72l.458,6.019Z" transform="translate(-434.02 -1016.768)" fill="#fdae97"/>
        <path id="Path_70036" data-name="Path 70036" d="M597.789,1375.208l-11.927-2.726h11.72Z" transform="translate(-434.02 -1016.768)" fill="#ea9d85"/>
        <path id="Path_70037" data-name="Path 70037" d="M486.751,1378.472l.449-6.028-12,.01-.2,6.019Z" transform="translate(-351.886 -1016.74)" fill="#fdae97"/>
        <path id="Path_70038" data-name="Path 70038" d="M714.876,913.188l-1.833-.25a1.185,1.185,0,0,0-1.207.617l-1.781,3.346a1.18,1.18,0,0,0,.823,1.712l1.972.379a1.185,1.185,0,0,0,1.3-.656l1.642-3.476a1.18,1.18,0,0,0-.912-1.672" transform="translate(-525.923 -676.318)" fill="#fdae97"/>
        <path id="Path_70039" data-name="Path 70039" d="M487.531,1375.807l-11.753-3.353,12-.01Z" transform="translate(-352.467 -1016.74)" fill="#ea9d85"/>
        <path id="Path_70040" data-name="Path 70040" d="M536.153,910.061l5.954,9.578,5.875-8.959" transform="translate(-397.195 -674.195)" fill="none" stroke="#fff" stroke-linecap="round" stroke-linejoin="round" stroke-width="0.574"/>
        <line id="Line_470" data-name="Line 470" x1="2.27" y1="0.414" transform="translate(125.285 259.425)" fill="none" stroke="#322a28" stroke-linecap="round" stroke-linejoin="round" stroke-width="0.574"/>
        <line id="Line_471" data-name="Line 471" y1="2.084" x2="1.387" transform="translate(128.912 255.716)" fill="none" stroke="#322a28" stroke-linecap="round" stroke-linejoin="round" stroke-width="0.574"/>
        <path id="Path_70041" data-name="Path 70041" d="M604.972,1399.892H587.666l-.03-.7-.213-4.664H599.2a6.179,6.179,0,0,1,3.838,1.748,5.893,5.893,0,0,1,1.785,2.916,4.227,4.227,0,0,1,.149.7" transform="translate(-435.178 -1033.097)" fill="#322a28"/>
        <path id="Path_70042" data-name="Path 70042" d="M605.58,1413.224H588.274l-.03-.7h17.187a4.239,4.239,0,0,1,.149.7" transform="translate(-435.785 -1046.429)" fill="#fff1f0"/>
        <path id="Path_70043" data-name="Path 70043" d="M626.553,1392.994s-1.5-2.625-2.5-1.588,2.5,1.588,2.5,1.588" transform="translate(-462.176 -1030.608)" fill="none" stroke="#fff1f0" stroke-linecap="round" stroke-linejoin="round" stroke-width="0.874"/>
        <path id="Path_70044" data-name="Path 70044" d="M632.2,1393.517l.527-.523s1.5-2.625,2.5-1.588-2.5,1.588-2.5,1.588" transform="translate(-468.346 -1030.608)" fill="none" stroke="#fff1f0" stroke-linecap="round" stroke-linejoin="round" stroke-width="0.874"/>
        <line id="Line_472" data-name="Line 472" x1="0.402" y1="0.523" transform="translate(164.377 362.386)" fill="none" stroke="#fff1f0" stroke-linecap="round" stroke-linejoin="round" stroke-width="0.874"/>
        <path id="Path_70045" data-name="Path 70045" d="M453.055,1399.892h17.306l.03-.7.212-4.664H458.827a6.179,6.179,0,0,0-3.838,1.748,5.893,5.893,0,0,0-1.785,2.916,4.236,4.236,0,0,0-.149.7" transform="translate(-335.634 -1033.097)" fill="#322a28"/>
        <path id="Path_70046" data-name="Path 70046" d="M453.055,1413.224h17.306l.03-.7H453.2a4.236,4.236,0,0,0-.149.7" transform="translate(-335.634 -1046.429)" fill="#fff1f0"/>
        <path id="Path_70047" data-name="Path 70047" d="M473.958,1393.608s1.5-2.625,2.5-1.588-2.5,1.588-2.5,1.588" transform="translate(-351.119 -1031.063)" fill="none" stroke="#fff1f0" stroke-linecap="round" stroke-linejoin="round" stroke-width="0.874"/>
        <path id="Path_70048" data-name="Path 70048" d="M466.81,1394.131l-.527-.523s-1.5-2.625-2.5-1.588,2.5,1.588,2.5,1.588" transform="translate(-343.445 -1031.063)" fill="none" stroke="#fff1f0" stroke-linecap="round" stroke-linejoin="round" stroke-width="0.874"/>
        <line id="Line_473" data-name="Line 473" y1="0.523" x2="0.402" transform="translate(122.437 362.545)" fill="none" stroke="#fff1f0" stroke-linecap="round" stroke-linejoin="round" stroke-width="0.874"/>
        <path id="Path_70049" data-name="Path 70049" d="M557.7,1127.27l.563-4.611,2.83-1.952,2.3-9.367" transform="translate(-413.159 -823.307)" fill="none" stroke="#fff" stroke-width="1.265"/>
        <line id="Line_474" data-name="Line 474" x1="11.131" transform="translate(152.888 350.995)" fill="none" stroke="#fff" stroke-width="1.265"/>
        <line id="Line_475" data-name="Line 475" x1="11.131" transform="translate(123.107 350.995)" fill="none" stroke="#fff" stroke-width="1.265"/>
        <line id="Line_476" data-name="Line 476" x2="14.118" y2="2.856" transform="translate(128.716 260.094)" fill="none" stroke="#322a28" stroke-linecap="round" stroke-linejoin="round" stroke-width="0.574"/>
        <line id="Line_477" data-name="Line 477" x2="7.696" y2="0.571" transform="translate(128.716 270.398)" fill="none" stroke="#322a28" stroke-linecap="round" stroke-linejoin="round" stroke-width="0.574"/>
        <path id="Path_70050" data-name="Path 70050" d="M569.762,873.369c.045.343.55.559,1.128.482s1.009-.416.964-.759-.55-.559-1.128-.482-1.009.416-.964.759" transform="translate(-422.091 -646.439)" fill="#fdae97"/>
        <path id="Path_70051" data-name="Path 70051" d="M1516.553,1347.967l1.63-14.378h-10.309a44.947,44.947,0,0,0-.325,5.788,62.718,62.718,0,0,0,.662,8.866Z" transform="translate(-1116.828 -987.955)" fill="#fdae97"/>
        <path id="Path_70052" data-name="Path 70052" d="M1518.435,1389.066l7.524,6.783h-10.971l-1.659-2.025-.129,2.025h-3.016l-.094-6.783Z" transform="translate(-1118.709 -1029.054)" fill="#332b27"/>
        <line id="Line_478" data-name="Line 478" x1="2.93" transform="translate(398.26 362.185)" fill="none" stroke="#fff1f0" stroke-width="0.617"/>
        <path id="Path_70053" data-name="Path 70053" d="M1505.434,837.886a6.719,6.719,0,0,1,2.135,6.392c-.68,4.275-1.06,6.589,1.645,6.85s8.154-1.275,8.54,2.356-2.205,6.008,1.6,6.732,4.255,5.645,4.255,5.645-13.751,8.381-26.589.313,1.046-13.3,1.046-13.3Z" transform="translate(-1104.994 -620.726)" fill="#322a28"/>
        <line id="Line_479" data-name="Line 479" x1="2.93" transform="translate(399.726 363.391)" fill="none" stroke="#fff1f0" stroke-width="0.617"/>
        <path id="Path_70054" data-name="Path 70054" d="M1509.831,1037.823c4.059,4.233,6.474,13.685,5.384,24.282s-1.085,17.484-1.085,17.484a8.79,8.79,0,1,1-17.579-.175l-1.982-41.053Z" transform="translate(-1107.212 -768.845)" fill="#088cff"/>
        <path id="Path_70055" data-name="Path 70055" d="M1433.623,1347.967l.159-14.378h10.31a34.379,34.379,0,0,1-.616,7.641c-.784,3.437-1.51,7.013-1.51,7.013Z" transform="translate(-1062.062 -987.955)" fill="#fdae97"/>
        <path id="Path_70056" data-name="Path 70056" d="M1468.858,1021.307l3.421.809-1.71,2.807Z" transform="translate(-1088.165 -756.609)" fill="#e89780"/>
        <path id="Path_70057" data-name="Path 70057" d="M1496.583,1174.92a8.79,8.79,0,1,1,17.361,1.107h0l-1.9,38.774h-17.479Z" transform="translate(-1107.212 -863.38)" fill="#088cff"/>
        <path id="Path_70058" data-name="Path 70058" d="M1476.537,893.171l-8.86,2.609.893,35.42h22.8s1.536-30.424,2.247-35.345l-9.1-2.659Z" transform="translate(-1087.29 -661.683)" fill="#fff"/>
        <path id="Path_70059" data-name="Path 70059" d="M1446.254,1039.9c-4.517,3.741-7.6,11.722-7.73,22.375s-.922,17.493-.922,17.493a8.79,8.79,0,0,0,17.484,1.838l4.738-41.706Z" transform="translate(-1064.973 -770.383)" fill="#088cff"/>
        <path id="Path_70060" data-name="Path 70060" d="M1412.116,1389.066l-7.524,6.783h10.972l1.66-2.025.129,2.025h3.016l.09-6.507Z" transform="translate(-1040.555 -1029.054)" fill="#332b27"/>
        <path id="Path_70061" data-name="Path 70061" d="M1422.009,1171.608a8.79,8.79,0,1,1,17.065,3.38h0l-5.569,38.217-17-.181Z" transform="translate(-1049.382 -861.784)" fill="#088cff"/>
        <line id="Line_480" data-name="Line 480" x2="2.93" transform="translate(370.096 362.185)" fill="none" stroke="#fff1f0" stroke-width="0.617"/>
        <line id="Line_481" data-name="Line 481" x2="2.93" transform="translate(368.63 363.391)" fill="none" stroke="#fff1f0" stroke-width="0.617"/>
        <path id="Path_70062" data-name="Path 70062" d="M1529.04,895.225a149.3,149.3,0,0,0-3.382,24.448c-.91,14.574,1.14,83.192,1.14,83.192h11.538s.64-46.411.459-54.673-2.8-33.088-2.8-33.088-3.793-9.277.41-17.728Z" transform="translate(-1130.071 -663.205)" fill="#e7888b"/>
        <path id="Path_70063" data-name="Path 70063" d="M1509.235,850.559v11.073a3.11,3.11,0,0,1-3.122,2.644,5.716,5.716,0,0,1-5.084-2.849l.2-1.911.631-5.9.324-3.054Z" transform="translate(-1111.998 -630.115)" fill="#fdae97"/>
        <path id="Path_70064" data-name="Path 70064" d="M1539.7,966.23s-1.71,3.823-7.022,2.769" transform="translate(-1135.443 -715.807)" fill="none" stroke="#586773" stroke-width="0.711"/>
        <path id="Path_70065" data-name="Path 70065" d="M1507.551,864.373l-5.733,3.873.631-5.9Z" transform="translate(-1112.583 -638.844)" fill="#e89780"/>
        <path id="Path_70066" data-name="Path 70066" d="M1498.33,890.542l4.2,3.236-1.127,3.344-4.129-5.8Z" transform="translate(-1109.216 -659.735)" fill="#e5f0f8"/>
        <path id="Path_70067" data-name="Path 70067" d="M1521.47,890.542l-3.916,3.236,1.317,3.344,3.229-5.692Z" transform="translate(-1124.24 -659.735)" fill="#e5f0f8"/>
        <path id="Path_70068" data-name="Path 70068" d="M1569.394,926.609l-.042.045a4.946,4.946,0,0,1-6.972.172l-16.009-15.237a4.946,4.946,0,0,1-.172-6.972l.042-.045a4.946,4.946,0,0,1,6.972-.172l16.009,15.236a4.946,4.946,0,0,1,.172,6.972" transform="translate(-1144.458 -668.999)" fill="#fff"/>
        <path id="Path_70069" data-name="Path 70069" d="M1537.02,1022.407l-4.979-2.236-2.972,1.38-.708,2.582a.583.583,0,0,0,.746-.063,7.324,7.324,0,0,0,1.058-1.32l1.4-.174.579.37-2.476,1.222a6.73,6.73,0,0,0-.562,2.42c.04.171.1.469.539.249a5.528,5.528,0,0,0,.536-.351,2.224,2.224,0,0,0,.12.734.458.458,0,0,0,.8-.183,9.9,9.9,0,0,0,.24-1.5l2.181.611-1.459.691-.2,1.937s.98.444,1.207-1.019c0,0,.982-.69,3.317.132s3.676.487,5.221-.645Z" transform="translate(-1132.246 -755.768)" fill="#fdae97"/>
        <path id="Path_70070" data-name="Path 70070" d="M1535.391,1038.242l.345-1.8,2.282-.4" transform="translate(-1137.454 -767.524)" fill="none" stroke="#332b27" stroke-width="0.631"/>
        <path id="Path_70071" data-name="Path 70071" d="M1557.564,977.586l13.985-15.69c1.717-1.814,4.8-1.713,6.866.229s2.337,5.025.623,6.844l-15.045,15.391Z" transform="translate(-1153.88 -711.635)" fill="#fff"/>
        <path id="Path_70072" data-name="Path 70072" d="M1435.8,894.907l-7.525,2.233a37.111,37.111,0,0,1,.193,19.945s-6.625,31.989-9.676,47.935c-3.208,16.766-4.043,37.609-4.043,37.609h9.622s13.984-68.019,14.4-78.816-2.967-28.906-2.967-28.906" transform="translate(-1048.076 -662.969)" fill="#e7888b"/>
        <path id="Path_70073" data-name="Path 70073" d="M1461.619,1022.407l4.979-2.236,2.972,1.38.708,2.582a.583.583,0,0,1-.746-.063,7.321,7.321,0,0,1-1.058-1.32l-1.4-.174-.579.37,2.476,1.222a6.732,6.732,0,0,1,.562,2.42c-.04.171-.1.469-.539.249a5.518,5.518,0,0,1-.536-.351,2.226,2.226,0,0,1-.119.734.458.458,0,0,1-.8-.183,9.9,9.9,0,0,1-.24-1.5l-2.181.611,1.459.691.2,1.937s-.98.444-1.207-1.019c0,0-.982-.69-3.317.132s-3.676.487-5.221-.645Z" transform="translate(-1079.399 -755.768)" fill="#fdae97"/>
        <path id="Path_70074" data-name="Path 70074" d="M1493.619,1038.242l-.345-1.8-2.282-.4" transform="translate(-1104.562 -767.524)" fill="none" stroke="#332b27" stroke-width="0.631"/>
        <path id="Path_70075" data-name="Path 70075" d="M1414.365,977.586,1400.38,961.9c-1.717-1.814-4.8-1.713-6.866.229s-2.337,5.025-.623,6.844l15.045,15.391Z" transform="translate(-1031.056 -711.635)" fill="#fff"/>
        <path id="Path_70076" data-name="Path 70076" d="M1393.969,925.969l.042.045a4.946,4.946,0,0,0,6.972.172l16.009-15.236a4.946,4.946,0,0,0,.172-6.972l-.042-.045a4.946,4.946,0,0,0-6.972-.172L1394.141,919a4.946,4.946,0,0,0-.172,6.972" transform="translate(-1031.682 -668.525)" fill="#fff"/>
        <path id="Path_70077" data-name="Path 70077" d="M1478.486,966.23s1.71,3.823,7.022,2.769" transform="translate(-1095.298 -715.807)" fill="none" stroke="#586773" stroke-width="0.711"/>
        <path id="Path_70078" data-name="Path 70078" d="M1467.677,898.774s1.42,8.787,1,15.127l6.673-10.3-2.353-6.388Z" transform="translate(-1087.29 -664.677)" fill="#e7888b"/>
        <path id="Path_70079" data-name="Path 70079" d="M1544.7,911.863s-1.007-6.584,1.749-12.277l-4.714-1.378-2.748,8.934Z" transform="translate(-1140.115 -665.415)" fill="#e7888b"/>
        <path id="Path_70080" data-name="Path 70080" d="M1497.959,997.154a.949.949,0,1,1-.95-.95.95.95,0,0,1,.95.95" transform="translate(-1108.317 -738.012)" fill="#fff"/>
        <path id="Path_70081" data-name="Path 70081" d="M1496.468,1011.915a.949.949,0,1,1-.95-.95.95.95,0,0,1,.95.95" transform="translate(-1107.212 -748.947)" fill="#fff"/>
        <path id="Path_70082" data-name="Path 70082" d="M1497.645,826.04s-1.429-3.154,1.664-4.248Z" transform="translate(-1109.247 -608.804)" fill="#322a28"/>
        <path id="Path_70083" data-name="Path 70083" d="M1500.339,831.213a6.519,6.519,0,0,1-6.663.517c-1.687-1.034-1.517-3.575-1.091-5.2l0-.012c.089-.336.215-.809.356-1.345.546-2.1,1.353-5.211,1.353-5.211.342-1.641,4.852-5.479,9.445-.886s-1.149,10.688-3.4,12.14" transform="translate(-1105.53 -605.175)" fill="#fdae97"/>
        <path id="Path_70084" data-name="Path 70084" d="M1500.48,818.814s.137,1.944,2.916,3.138,5.445,3.081,5.232,5.969a7.542,7.542,0,0,0,.837,4.471,18.828,18.828,0,0,1,1.952-6.7,6.226,6.226,0,0,0-.078-5.807c-1.97-3.306-6.814-5.685-10.859-1.066" transform="translate(-1111.591 -604.692)" fill="#322a28"/>
        <path id="Path_70085" data-name="Path 70085" d="M1528.684,855.547c-.552.89-.695,1.513,0,1.947a1.8,1.8,0,0,0,2.4-.611,1.73,1.73,0,0,0-.265-2.4c-.7-.434-1.588.171-2.14,1.061" transform="translate(-1132.139 -632.918)" fill="#fdae97"/>
        <path id="Path_70086" data-name="Path 70086" d="M1532.987,859.254a1.279,1.279,0,0,0-1.07.014c.356-1,1.559-.652,1.559-.652" transform="translate(-1134.881 -636.04)" fill="none" stroke="#e89780" stroke-linecap="round" stroke-linejoin="round" stroke-width="0.502"/>
        <path id="Path_70087" data-name="Path 70087" d="M1511.249,847.019c-.093.394-.375.664-.63.6s-.386-.428-.293-.822.375-.664.63-.6.386.428.293.822" transform="translate(-1118.864 -626.877)" fill="#332b27"/>
        <path id="Path_70088" data-name="Path 70088" d="M1498.545,842.776c-.093.394-.375.664-.63.6s-.386-.428-.293-.822.375-.664.63-.6.386.428.293.822" transform="translate(-1109.452 -623.734)" fill="#332b27"/>
        <path id="Path_70089" data-name="Path 70089" d="M1513.682,844.178s-.559-1.168-1.564-1.03" transform="translate(-1120.213 -624.616)" fill="none" stroke="#332b27" stroke-width="0.745"/>
        <path id="Path_70090" data-name="Path 70090" d="M1498.437,839.941a1.462,1.462,0,0,0-1.307.235" transform="translate(-1109.11 -622.203)" fill="none" stroke="#332b27" stroke-width="0.745"/>
        <path id="Path_70091" data-name="Path 70091" d="M1500.926,846.45s-.506,1.941-1.707,1.909a2.484,2.484,0,0,0,.71.662" transform="translate(-1110.657 -627.071)" fill="none" stroke="#332b27" stroke-width="0.745"/>
        <path id="Path_70092" data-name="Path 70092" d="M1499.733,861.463a1.851,1.851,0,0,0,2.392-.35" transform="translate(-1111.038 -637.933)" fill="none" stroke="#332b27" stroke-width="0.745"/>
        <path id="Path_70093" data-name="Path 70093" d="M1512.086,854.107c.028.421-.618.807-1.443.862s-1.517-.241-1.545-.661.618-.807,1.443-.862,1.517.241,1.545.661" transform="translate(-1117.975 -632.249)" fill="#e89780"/>
        <path id="Path_70094" data-name="Path 70094" d="M1494.281,849.942c-.124.229-.458.306-.864.234.089-.336.215-.809.356-1.345.449.378.672.825.508,1.111" transform="translate(-1106.359 -628.835)" fill="#e89780"/>
        <path id="Path_70095" data-name="Path 70095" d="M1534.359,811.66c-1.361.995-1.259,3.451.229,5.487s3.8,2.879,5.158,1.884,1.258-3.451-.229-5.487-3.8-2.879-5.158-1.884" transform="translate(-1135.981 -600.988)" fill="#322a28"/>
        <path id="Path_70096" data-name="Path 70096" d="M1528.758,865.043a.673.673,0,1,0,.8-.509A.673.673,0,0,0,1528.758,865.043Z" transform="translate(-1132.528 -640.456)" fill="none" stroke="#fff" stroke-width="0.659"/>
        <path id="Path_70097" data-name="Path 70097" d="M726.363,238.577H667.887a3.448,3.448,0,0,1-3.449-3.448V193.352a3.449,3.449,0,0,1,3.449-3.449h58.477a3.448,3.448,0,0,1,3.449,3.449v41.777a3.448,3.448,0,0,1-3.449,3.448" transform="translate(-492.232 -140.685)" fill="#f9e181"/>
        <path id="Path_70098" data-name="Path 70098" d="M719.5,244.432a11.4,11.4,0,0,1-.623,3.734,9.213,9.213,0,0,1-1.846,3.159,8.779,8.779,0,0,1-3.066,2.165,10.652,10.652,0,0,1-4.289.807,10.5,10.5,0,0,1-6.338-1.8,8.882,8.882,0,0,1-3.254-5.719l5.441-1.291a4.442,4.442,0,0,0,1.317,2.582,3.605,3.605,0,0,0,2.559.968,3.488,3.488,0,0,0,3.389-1.681,9.922,9.922,0,0,0,.9-4.635v-21.9H719.5Z" transform="translate(-518.639 -163.59)" fill="#fff"/>
        <path id="Path_70099" data-name="Path 70099" d="M811.893,225.459a5.334,5.334,0,0,0-2.469-1.959,8.578,8.578,0,0,0-3.25-.623,8.229,8.229,0,0,0-1.959.229,5.334,5.334,0,0,0-1.707.739,3.876,3.876,0,0,0-1.223,1.314,3.783,3.783,0,0,0-.458,1.914,2.992,2.992,0,0,0,1.152,2.537,11.1,11.1,0,0,0,2.859,1.52q1.706.647,3.734,1.246a15.326,15.326,0,0,1,3.734,1.659,9.293,9.293,0,0,1,2.859,2.814,8.351,8.351,0,0,1,1.152,4.657,10.243,10.243,0,0,1-.968,4.589,9.323,9.323,0,0,1-2.6,3.25,11.258,11.258,0,0,1-3.805,1.937,15.856,15.856,0,0,1-4.563.645,17.16,17.16,0,0,1-5.858-1.013,11.254,11.254,0,0,1-4.841-3.411l4.379-4.244a7.357,7.357,0,0,0,2.792,2.514,7.867,7.867,0,0,0,3.666.9,7.69,7.69,0,0,0,2.026-.274,6.338,6.338,0,0,0,1.846-.833,4.339,4.339,0,0,0,1.336-1.4,3.776,3.776,0,0,0,.507-1.963,3.409,3.409,0,0,0-1.152-2.766,10.228,10.228,0,0,0-2.86-1.636q-1.706-.67-3.734-1.268a15.63,15.63,0,0,1-3.734-1.636,9.023,9.023,0,0,1-2.86-2.769,8.224,8.224,0,0,1-1.152-4.631,8.813,8.813,0,0,1,1.036-4.383,9.5,9.5,0,0,1,2.721-3.066,11.836,11.836,0,0,1,3.85-1.82,16.444,16.444,0,0,1,4.428-.6,16.172,16.172,0,0,1,5,.784,11.555,11.555,0,0,1,4.357,2.582Z" transform="translate(-587.976 -161.219)" fill="#fff"/>
        <path id="Path_70100" data-name="Path 70100" d="M305.271,669.694H241.827a3.582,3.582,0,0,1-3.582-3.582V624.65a3.582,3.582,0,0,1,3.582-3.582h63.444a3.582,3.582,0,0,1,3.582,3.582v41.461a3.582,3.582,0,0,1-3.582,3.582" transform="translate(-176.498 -460.103)" fill="#088cfc"/>
        <path id="Path_70101" data-name="Path 70101" d="M252.815,689.833v-3.541l20.44-11.062v5.408L259.6,688.063l13.654,7.425V700.9Z" transform="translate(-187.291 -500.227)" fill="#fff"/>
        <path id="Path_70102" data-name="Path 70102" d="M346.1,678.054l-3.353-1.475,12.6-38.154L358.7,640Z" transform="translate(-253.913 -472.962)" fill="#fff"/>
        <path id="Path_70103" data-name="Path 70103" d="M437.682,686.293v3.541L417.242,700.9v-5.408l13.654-7.424-13.654-7.425V675.23Z" transform="translate(-309.103 -500.227)" fill="#fff"/>
        <path id="Path_70104" data-name="Path 70104" d="M1023.057,1201.58h-70.24a3.227,3.227,0,0,1-3.227-3.227V1168.48a3.227,3.227,0,0,1,3.227-3.227h70.24a3.227,3.227,0,0,1,3.227,3.227v29.873a3.227,3.227,0,0,1-3.227,3.227" transform="translate(-703.479 -863.248)" fill="#f9e181"/>
        <path id="Path_70105" data-name="Path 70105" d="M974.095,1202.573h3.022v6.765h7.938v-6.765h3.023v16.982h-3.023v-7.484h-7.938v7.484h-3.022Z" transform="translate(-721.633 -890.895)" fill="#fff"/>
        <path id="Path_70106" data-name="Path 70106" d="M1041.208,1205.307H1036v-2.734h13.431v2.734h-5.2v14.247h-3.021Z" transform="translate(-767.495 -890.895)" fill="#fff"/>
        <path id="Path_70107" data-name="Path 70107" d="M1096.071,1202.573h4.6l4.532,11.9,4.581-11.9h4.558v16.982h-2.877v-14.1h-.049l-5.157,14.1h-2.11l-5.157-14.1h-.049v14.1h-2.877Z" transform="translate(-811.996 -890.895)" fill="#fff"/>
        <path id="Path_70108" data-name="Path 70108" d="M1181.484,1202.573h3.021v14.247h7.22v2.734h-10.242Z" transform="translate(-875.271 -890.895)" fill="#fff"/>
        <path id="Path_70109" data-name="Path 70109" d="M1316.474,31.311h-45.319a2.4,2.4,0,0,1-2.4-2.4V2.864a2.4,2.4,0,0,1,2.4-2.4h45.319a2.4,2.4,0,0,1,2.4,2.4V28.907a2.4,2.4,0,0,1-2.4,2.4" transform="translate(-939.921 -0.341)" fill="#088cfc"/>
        <path id="Path_70110" data-name="Path 70110" d="M1305.986,33.709a4.435,4.435,0,0,0-1.585-1.176,4.283,4.283,0,0,0-1.543-.294,5.149,5.149,0,0,0-2.089.409,4.775,4.775,0,0,0-1.606,1.134,5.137,5.137,0,0,0-1.039,1.69,5.791,5.791,0,0,0-.367,2.078,6.391,6.391,0,0,0,.367,2.2,5.168,5.168,0,0,0,1.039,1.742,4.829,4.829,0,0,0,1.606,1.155,5.033,5.033,0,0,0,2.089.42,3.841,3.841,0,0,0,1.754-.43,4.78,4.78,0,0,0,1.584-1.375l2.184,1.554a5.944,5.944,0,0,1-2.456,2.016,7.654,7.654,0,0,1-3.086.629,8.692,8.692,0,0,1-3.16-.556,7.086,7.086,0,0,1-4.1-4.021,8.246,8.246,0,0,1-.588-3.17,8.607,8.607,0,0,1,.588-3.244,7.268,7.268,0,0,1,1.627-2.488,7.135,7.135,0,0,1,2.477-1.585,8.692,8.692,0,0,1,3.16-.556,7.242,7.242,0,0,1,2.8.535,6.534,6.534,0,0,1,2.4,1.816Z" transform="translate(-959.356 -22.111)" fill="#fff"/>
        <path id="Path_70111" data-name="Path 70111" d="M1357.953,33.414a2.44,2.44,0,0,0-1.123-.892,3.925,3.925,0,0,0-1.48-.284,3.749,3.749,0,0,0-.892.105,2.426,2.426,0,0,0-.777.336,1.76,1.76,0,0,0-.556.6,1.727,1.727,0,0,0-.21.871,1.362,1.362,0,0,0,.525,1.155,5.146,5.146,0,0,0,1.3.693q.775.294,1.7.567a6.93,6.93,0,0,1,1.7.755,4.219,4.219,0,0,1,1.3,1.281,3.8,3.8,0,0,1,.525,2.12,4.659,4.659,0,0,1-.441,2.089,4.256,4.256,0,0,1-1.186,1.48,5.127,5.127,0,0,1-1.732.882,7.246,7.246,0,0,1-2.078.294,7.8,7.8,0,0,1-2.667-.462,5.133,5.133,0,0,1-2.2-1.554l1.995-1.931a3.332,3.332,0,0,0,1.27,1.144,3.568,3.568,0,0,0,1.669.409,3.518,3.518,0,0,0,.923-.126,2.876,2.876,0,0,0,.84-.378,1.974,1.974,0,0,0,.609-.64,1.717,1.717,0,0,0,.231-.892,1.554,1.554,0,0,0-.525-1.26,4.646,4.646,0,0,0-1.3-.745q-.777-.3-1.7-.577a7.148,7.148,0,0,1-1.7-.745,4.129,4.129,0,0,1-1.3-1.26,3.749,3.749,0,0,1-.525-2.11,4.005,4.005,0,0,1,.472-1.994,4.324,4.324,0,0,1,1.239-1.4,5.406,5.406,0,0,1,1.753-.829,7.527,7.527,0,0,1,2.016-.273,7.356,7.356,0,0,1,2.278.357,5.287,5.287,0,0,1,1.984,1.176Z" transform="translate(-999.86 -22.11)" fill="#fff"/>
        <path id="Path_70112" data-name="Path 70112" d="M1404.448,33.414a2.44,2.44,0,0,0-1.123-.892,3.925,3.925,0,0,0-1.48-.284,3.75,3.75,0,0,0-.892.105,2.427,2.427,0,0,0-.777.336,1.761,1.761,0,0,0-.556.6,1.728,1.728,0,0,0-.21.871,1.362,1.362,0,0,0,.525,1.155,5.137,5.137,0,0,0,1.3.693q.775.294,1.7.567a6.932,6.932,0,0,1,1.7.755,4.218,4.218,0,0,1,1.3,1.281,3.8,3.8,0,0,1,.525,2.12,4.663,4.663,0,0,1-.441,2.089,4.259,4.259,0,0,1-1.186,1.48,5.128,5.128,0,0,1-1.732.882,7.245,7.245,0,0,1-2.078.294A7.8,7.8,0,0,1,1398.36,45a5.134,5.134,0,0,1-2.2-1.554l1.995-1.931a3.331,3.331,0,0,0,1.27,1.144,3.567,3.567,0,0,0,1.669.409,3.52,3.52,0,0,0,.923-.126,2.875,2.875,0,0,0,.84-.378,1.974,1.974,0,0,0,.609-.64,1.717,1.717,0,0,0,.231-.892,1.553,1.553,0,0,0-.525-1.26,4.646,4.646,0,0,0-1.3-.745q-.777-.3-1.7-.577a7.148,7.148,0,0,1-1.7-.745,4.13,4.13,0,0,1-1.3-1.26,3.75,3.75,0,0,1-.525-2.11,4,4,0,0,1,.473-1.994,4.324,4.324,0,0,1,1.239-1.4,5.4,5.4,0,0,1,1.753-.829,7.523,7.523,0,0,1,2.016-.273,7.355,7.355,0,0,1,2.278.357,5.285,5.285,0,0,1,1.984,1.176Z" transform="translate(-1034.305 -22.11)" fill="#fff"/>
      </g>
    </g>
  </g>
</svg>
