<svg id="Group_40477" data-name="Group 40477" xmlns="http://www.w3.org/2000/svg" xmlns:xlink="http://www.w3.org/1999/xlink" width="500" height="381.196" viewBox="0 0 500 381.196">
  <defs>
    <clipPath id="clip-path">
      <rect id="Rectangle_6972" data-name="Rectangle 6972" width="500" height="381.196" fill="none"/>
    </clipPath>
    <clipPath id="clip-path-3">
      <rect id="Rectangle_6926" data-name="Rectangle 6926" width="137.723" height="136.889" transform="translate(63.722 51.064)" fill="none"/>
    </clipPath>
    <clipPath id="clip-path-4">
      <rect id="Rectangle_6927" data-name="Rectangle 6927" width="45.88" height="17.331" transform="translate(132.29 62.804)" fill="none"/>
    </clipPath>
    <clipPath id="clip-path-5">
      <rect id="Rectangle_6928" data-name="Rectangle 6928" width="30.1" height="17.331" transform="translate(64.9 109.304)" fill="none"/>
    </clipPath>
    <clipPath id="clip-path-6">
      <rect id="Rectangle_6929" data-name="Rectangle 6929" width="44.7" height="5.361" transform="translate(151.13 55.104)" fill="none"/>
    </clipPath>
    <clipPath id="clip-path-7">
      <rect id="Rectangle_6930" data-name="Rectangle 6930" width="121.53" height="128.89" transform="translate(199.33 55.067)" fill="none"/>
    </clipPath>
    <clipPath id="clip-path-8">
      <rect id="Rectangle_6931" data-name="Rectangle 6931" width="12.445" height="25.756" transform="translate(168.111 214.971)" fill="none"/>
    </clipPath>
    <clipPath id="clip-path-9">
      <rect id="Rectangle_6932" data-name="Rectangle 6932" width="23.555" height="9.459" transform="translate(162.556 187.953)" fill="none"/>
    </clipPath>
    <clipPath id="clip-path-10">
      <rect id="Rectangle_6933" data-name="Rectangle 6933" width="6.25" height="6.25" transform="translate(169.708 202.593)" fill="none"/>
    </clipPath>
    <clipPath id="clip-path-11">
      <rect id="Rectangle_6934" data-name="Rectangle 6934" width="112.027" height="219.905" transform="translate(276.203 149.968)" fill="none"/>
    </clipPath>
    <clipPath id="clip-path-12">
      <rect id="Rectangle_6936" data-name="Rectangle 6936" width="103.332" height="211.211" transform="translate(257.125 154.315)" fill="none"/>
    </clipPath>
    <clipPath id="clip-path-13">
      <rect id="Rectangle_6938" data-name="Rectangle 6938" width="85.763" height="13.524" transform="translate(267.932 166.218)" fill="none"/>
    </clipPath>
    <clipPath id="clip-path-14">
      <rect id="Rectangle_6939" data-name="Rectangle 6939" width="85.763" height="13.524" transform="translate(267.932 187.953)" fill="none"/>
    </clipPath>
    <clipPath id="clip-path-15">
      <rect id="Rectangle_6940" data-name="Rectangle 6940" width="2.958" height="2.958" transform="translate(332.987 193.236)" fill="none"/>
    </clipPath>
    <clipPath id="clip-path-16">
      <rect id="Rectangle_6941" data-name="Rectangle 6941" width="85.763" height="13.524" transform="translate(267.932 209.688)" fill="none"/>
    </clipPath>
    <clipPath id="clip-path-17">
      <rect id="Rectangle_6942" data-name="Rectangle 6942" width="2.958" height="2.958" transform="translate(332.987 214.971)" fill="none"/>
    </clipPath>
    <clipPath id="clip-path-18">
      <rect id="Rectangle_6943" data-name="Rectangle 6943" width="85.763" height="13.524" transform="translate(267.932 231.423)" fill="none"/>
    </clipPath>
    <clipPath id="clip-path-19">
      <rect id="Rectangle_6944" data-name="Rectangle 6944" width="2.958" height="2.958" transform="translate(346.028 236.706)" fill="none"/>
    </clipPath>
    <clipPath id="clip-path-20">
      <rect id="Rectangle_6945" data-name="Rectangle 6945" width="2.958" height="2.958" transform="translate(332.987 236.706)" fill="none"/>
    </clipPath>
    <clipPath id="clip-path-21">
      <rect id="Rectangle_6946" data-name="Rectangle 6946" width="85.763" height="13.524" transform="translate(267.932 253.158)" fill="none"/>
    </clipPath>
    <clipPath id="clip-path-22">
      <rect id="Rectangle_6947" data-name="Rectangle 6947" width="2.958" height="2.958" transform="translate(346.028 258.441)" fill="none"/>
    </clipPath>
    <clipPath id="clip-path-23">
      <rect id="Rectangle_6948" data-name="Rectangle 6948" width="85.763" height="13.525" transform="translate(267.932 274.893)" fill="none"/>
    </clipPath>
    <clipPath id="clip-path-24">
      <rect id="Rectangle_6949" data-name="Rectangle 6949" width="2.959" height="2.959" transform="translate(339.507 280.176)" fill="none"/>
    </clipPath>
    <clipPath id="clip-path-25">
      <rect id="Rectangle_6950" data-name="Rectangle 6950" width="85.763" height="13.524" transform="translate(267.932 296.629)" fill="none"/>
    </clipPath>
    <clipPath id="clip-path-26">
      <rect id="Rectangle_6951" data-name="Rectangle 6951" width="2.959" height="2.958" transform="translate(339.507 301.911)" fill="none"/>
    </clipPath>
    <clipPath id="clip-path-27">
      <rect id="Rectangle_6952" data-name="Rectangle 6952" width="2.958" height="2.958" transform="translate(332.987 301.911)" fill="none"/>
    </clipPath>
    <clipPath id="clip-path-28">
      <rect id="Rectangle_6953" data-name="Rectangle 6953" width="85.763" height="13.524" transform="translate(267.932 318.364)" fill="none"/>
    </clipPath>
    <clipPath id="clip-path-29">
      <rect id="Rectangle_6954" data-name="Rectangle 6954" width="85.763" height="13.524" transform="translate(267.932 340.099)" fill="none"/>
    </clipPath>
    <clipPath id="clip-path-30">
      <rect id="Rectangle_6955" data-name="Rectangle 6955" width="2.958" height="2.958" transform="translate(332.987 345.382)" fill="none"/>
    </clipPath>
    <clipPath id="clip-path-31">
      <rect id="Rectangle_6956" data-name="Rectangle 6956" width="16.043" height="18.424" transform="translate(368.496 195.37)" fill="none"/>
    </clipPath>
    <clipPath id="clip-path-32">
      <rect id="Rectangle_6957" data-name="Rectangle 6957" width="13.911" height="9.154" transform="translate(260.322 148.837)" fill="none"/>
    </clipPath>
    <clipPath id="clip-path-33">
      <rect id="Rectangle_6958" data-name="Rectangle 6958" width="10.971" height="5.568" transform="translate(291.623 181.511)" fill="none"/>
    </clipPath>
    <clipPath id="clip-path-34">
      <rect id="Rectangle_6959" data-name="Rectangle 6959" width="63.016" height="78.355" transform="translate(301.008 107.148)" fill="none"/>
    </clipPath>
    <clipPath id="clip-path-35">
      <rect id="Rectangle_6960" data-name="Rectangle 6960" width="9.364" height="22.523" transform="translate(287.617 127.245)" fill="none"/>
    </clipPath>
    <clipPath id="clip-path-36">
      <rect id="Rectangle_6961" data-name="Rectangle 6961" width="71.361" height="9.449" transform="translate(282.358 102.658)" fill="none"/>
    </clipPath>
    <clipPath id="clip-path-37">
      <rect id="Rectangle_6962" data-name="Rectangle 6962" width="55.007" height="33.442" transform="translate(275.085 76.882)" fill="none"/>
    </clipPath>
    <clipPath id="clip-path-38">
      <rect id="Rectangle_6963" data-name="Rectangle 6963" width="53.995" height="33.442" transform="translate(275.085 76.882)" fill="none"/>
    </clipPath>
    <clipPath id="clip-path-39">
      <rect id="Rectangle_6964" data-name="Rectangle 6964" width="10.179" height="7.926" transform="translate(336.652 34.874)" fill="none"/>
    </clipPath>
    <clipPath id="clip-path-40">
      <rect id="Rectangle_6965" data-name="Rectangle 6965" width="2.589" height="0.873" transform="translate(338.07 22.612)" fill="none"/>
    </clipPath>
    <clipPath id="clip-path-41">
      <rect id="Rectangle_6966" data-name="Rectangle 6966" width="2.462" height="0.44" transform="translate(338.311 23.716)" fill="none"/>
    </clipPath>
    <clipPath id="clip-path-42">
      <rect id="Rectangle_6967" data-name="Rectangle 6967" width="1.151" height="0.335" transform="translate(326.678 26.179)" fill="none"/>
    </clipPath>
    <clipPath id="clip-path-43">
      <rect id="Rectangle_6968" data-name="Rectangle 6968" width="0.802" height="0.433" transform="translate(327.129 26.837)" fill="none"/>
    </clipPath>
    <clipPath id="clip-path-44">
      <rect id="Rectangle_6969" data-name="Rectangle 6969" width="29.055" height="78.794" transform="translate(252.778 291.079)" fill="none"/>
    </clipPath>
    <clipPath id="clip-path-45">
      <rect id="Rectangle_6970" data-name="Rectangle 6970" width="130.253" height="85.114" transform="translate(149.032 289.331)" fill="none"/>
    </clipPath>
  </defs>
  <g id="Group_40476" data-name="Group 40476" clip-path="url(#clip-path)">
    <rect id="Rectangle_6919" data-name="Rectangle 6919" width="500" height="0.25" transform="translate(0 336.033)" fill="#ebebeb"/>
    <rect id="Rectangle_6920" data-name="Rectangle 6920" width="33.122" height="0.25" transform="translate(416.779 352.129)" fill="#ebebeb"/>
    <rect id="Rectangle_6921" data-name="Rectangle 6921" width="8.693" height="0.25" transform="translate(322.527 354.842)" fill="#ebebeb"/>
    <rect id="Rectangle_6922" data-name="Rectangle 6922" width="19.192" height="0.25" transform="translate(396.586 342.843)" fill="#ebebeb"/>
    <rect id="Rectangle_6923" data-name="Rectangle 6923" width="43.193" height="0.25" transform="translate(52.459 344.523)" fill="#ebebeb"/>
    <rect id="Rectangle_6924" data-name="Rectangle 6924" width="6.333" height="0.25" transform="translate(104.556 344.523)" fill="#ebebeb"/>
    <rect id="Rectangle_6925" data-name="Rectangle 6925" width="93.676" height="0.249" transform="translate(131.471 348.746)" fill="#ebebeb"/>
    <g id="Group_40475" data-name="Group 40475">
      <g id="Group_40474" data-name="Group 40474" clip-path="url(#clip-path)">
        <path id="Path_69813" data-name="Path 69813" d="M237.014,291.434H43.915a5.714,5.714,0,0,1-5.708-5.708V14.3a5.715,5.715,0,0,1,5.708-5.708h193.1a5.715,5.715,0,0,1,5.707,5.708V285.726a5.714,5.714,0,0,1-5.707,5.708M43.915,8.837A5.464,5.464,0,0,0,38.457,14.3V285.726a5.464,5.464,0,0,0,5.458,5.458h193.1a5.464,5.464,0,0,0,5.457-5.458V14.3a5.464,5.464,0,0,0-5.457-5.458Z" fill="#ebebeb"/>
        <path id="Path_69814" data-name="Path 69814" d="M453.311,291.434h-193.1a5.713,5.713,0,0,1-5.707-5.708V14.3a5.714,5.714,0,0,1,5.707-5.708h193.1a5.715,5.715,0,0,1,5.708,5.708V285.726a5.714,5.714,0,0,1-5.708,5.708m-193.1-282.6a5.463,5.463,0,0,0-5.457,5.458V285.726a5.463,5.463,0,0,0,5.457,5.458h193.1a5.464,5.464,0,0,0,5.458-5.458V14.3a5.464,5.464,0,0,0-5.458-5.458Z" fill="#ebebeb"/>
        <path id="Path_69815" data-name="Path 69815" d="M85.633,56.485a23.89,23.89,0,0,1,32.832-21.953A28.874,28.874,0,0,1,172.6,40.92a24.847,24.847,0,0,1-1.618,49.642H91.906a17.616,17.616,0,0,1-6.273-34.077" fill="#e0e0e0"/>
        <path id="Path_69816" data-name="Path 69816" d="M366.087,251.4a14.74,14.74,0,0,1,20.258-13.546,17.816,17.816,0,0,1,33.4,3.942,15.332,15.332,0,0,1-1,30.631H369.958a10.87,10.87,0,0,1-3.871-21.027" fill="#e0e0e0"/>
        <path id="Path_69817" data-name="Path 69817" d="M102.151,207.86a25.043,25.043,0,0,1,34.417-23.013,30.267,30.267,0,0,1,56.745,6.7,26.047,26.047,0,0,1-1.7,52.038h-82.89a18.466,18.466,0,0,1-6.576-35.722" fill="#f0f0f0"/>
        <path id="Path_69818" data-name="Path 69818" d="M119.393,231.629a3.78,3.78,0,1,1-3.78-3.78,3.78,3.78,0,0,1,3.78,3.78" fill="#e6e6e6"/>
        <path id="Path_69819" data-name="Path 69819" d="M133.643,231.629a3.78,3.78,0,1,1-3.78-3.78,3.78,3.78,0,0,1,3.78,3.78" fill="#fff"/>
        <path id="Path_69820" data-name="Path 69820" d="M360.7,86.9a17.345,17.345,0,0,1,23.837-15.939,20.963,20.963,0,0,1,39.3,4.638,18.04,18.04,0,0,1-1.174,36.042h-57.41A12.79,12.79,0,0,1,360.7,86.9" fill="#f5f5f5"/>
        <path id="Path_69821" data-name="Path 69821" d="M413.081,102.658a2.445,2.445,0,1,1-2.445-2.445,2.445,2.445,0,0,1,2.445,2.445" fill="#fff"/>
        <path id="Path_69822" data-name="Path 69822" d="M422.3,102.658a2.445,2.445,0,1,1-2.445-2.445,2.445,2.445,0,0,1,2.445,2.445" fill="#fff"/>
        <path id="Path_69823" data-name="Path 69823" d="M403.862,102.658a2.445,2.445,0,1,1-2.445-2.445,2.445,2.445,0,0,1,2.445,2.445" fill="#e6e6e6"/>
        <path id="Path_69824" data-name="Path 69824" d="M443.889,369.873c0,6.254-86.807,11.323-193.889,11.323S56.111,376.127,56.111,369.873,142.918,358.55,250,358.55s193.889,5.07,193.889,11.323" fill="#f5f5f5"/>
        <path id="Path_69825" data-name="Path 69825" d="M201.445,51.064h-18.39a58.891,58.891,0,0,0-54.257,36H114.167a50.444,50.444,0,0,0,0,100.889h87.278Z" fill="#407bff"/>
        <path id="Path_69826" data-name="Path 69826" d="M157.993,53.893l-.408-.913a62.475,62.475,0,0,1,7.076-2.658l.294.956a61.369,61.369,0,0,0-6.962,2.615" fill="#407bff"/>
        <path id="Path_69827" data-name="Path 69827" d="M135.173,71.52l-.78-.626a62.086,62.086,0,0,1,16.478-14.411l.516.857a61.1,61.1,0,0,0-16.214,14.18" fill="#407bff"/>
        <g id="Group_40347" data-name="Group 40347" opacity="0.2">
          <g id="Group_40346" data-name="Group 40346">
            <g id="Group_40345" data-name="Group 40345" clip-path="url(#clip-path-3)">
              <path id="Path_69828" data-name="Path 69828" d="M201.445,51.064h-18.39a58.891,58.891,0,0,0-54.257,36H114.167a50.444,50.444,0,0,0,0,100.889h87.278Z"/>
            </g>
          </g>
        </g>
        <g id="Group_40350" data-name="Group 40350" opacity="0.5">
          <g id="Group_40349" data-name="Group 40349">
            <g id="Group_40348" data-name="Group 40348" clip-path="url(#clip-path-4)">
              <path id="Path_69829" data-name="Path 69829" d="M132.29,80.135h26.38l19.5-17.33H147.79a59.108,59.108,0,0,0-15.5,17.33" fill="#407bff"/>
            </g>
          </g>
        </g>
        <g id="Group_40353" data-name="Group 40353" opacity="0.5">
          <g id="Group_40352" data-name="Group 40352">
            <g id="Group_40351" data-name="Group 40351" clip-path="url(#clip-path-5)">
              <path id="Path_69830" data-name="Path 69830" d="M72.34,109.305a49.973,49.973,0,0,0-7.44,17.33H95v-17.33Z" fill="#407bff"/>
            </g>
          </g>
        </g>
        <g id="Group_40356" data-name="Group 40356" opacity="0.5">
          <g id="Group_40355" data-name="Group 40355">
            <g id="Group_40354" data-name="Group 40354" clip-path="url(#clip-path-6)">
              <path id="Path_69831" data-name="Path 69831" d="M195.83,55.1H161.59a58.277,58.277,0,0,0-10.46,5.36h25.2Z" fill="#407bff"/>
            </g>
          </g>
        </g>
        <path id="Path_69832" data-name="Path 69832" d="M301.857,125.865a50.457,50.457,0,0,0-46.1-38.707A58.9,58.9,0,0,0,146.4,89a50.443,50.443,0,1,0-13.849,98.948h160.66a31.645,31.645,0,0,0,8.641-62.087" fill="#407bff"/>
        <g id="Group_40359" data-name="Group 40359" opacity="0.2">
          <g id="Group_40358" data-name="Group 40358">
            <g id="Group_40357" data-name="Group 40357" clip-path="url(#clip-path-7)">
              <path id="Path_69833" data-name="Path 69833" d="M300.77,129.717l-2.27-.64-.54-2.29a46.683,46.683,0,0,0-42.44-35.64l-2.49-.14-.96-2.3a54.792,54.792,0,0,0-50.63-33.64c-.71,0-1.41.01-2.11.04a54.789,54.789,0,0,1,48.49,33.6l.96,2.3,2.49.14a46.683,46.683,0,0,1,42.44,35.64l.54,2.29,2.27.64a27.646,27.646,0,0,1-7.55,54.24h4.25a27.646,27.646,0,0,0,7.55-54.24"/>
            </g>
          </g>
        </g>
        <path id="Path_69834" data-name="Path 69834" d="M296.52,129.717l-2.27-.64-.54-2.29a46.683,46.683,0,0,0-42.44-35.64l-2.49-.14-.96-2.3a54.789,54.789,0,0,0-48.49-33.6h-.07a55.231,55.231,0,0,0-49.12,35.321l-1.3,3.429-3.53-1.01c-.1-.03-.21-.06-.31-.08a46.476,46.476,0,0,0-12.44-1.7c-.73,0-1.45.02-2.18.05a46.445,46.445,0,0,0,2.18,92.84H288.97a27.646,27.646,0,0,0,7.55-54.24" fill="#fff"/>
        <path id="Path_69835" data-name="Path 69835" d="M181.359,124.351v39.7h40v-39.7H234L201.361,87.666,168.72,124.351Z" fill="#407bff"/>
        <path id="Path_69836" data-name="Path 69836" d="M175.358,240.727h-2.049a5.2,5.2,0,0,1-5.2-5.2V214.971h12.445v20.558a5.2,5.2,0,0,1-5.2,5.2" fill="#407bff"/>
        <g id="Group_40362" data-name="Group 40362" opacity="0.2">
          <g id="Group_40361" data-name="Group 40361">
            <g id="Group_40360" data-name="Group 40360" clip-path="url(#clip-path-8)">
              <path id="Path_69837" data-name="Path 69837" d="M175.358,240.727h-2.049a5.2,5.2,0,0,1-5.2-5.2V214.971h12.445v20.558a5.2,5.2,0,0,1-5.2,5.2"/>
            </g>
          </g>
        </g>
        <path id="Path_69838" data-name="Path 69838" d="M176.272,221.369h-3.878a9.839,9.839,0,0,1-9.839-9.839V187.952h23.556V211.53a9.839,9.839,0,0,1-9.839,9.839" fill="#407bff"/>
        <g id="Group_40365" data-name="Group 40365" opacity="0.2">
          <g id="Group_40364" data-name="Group 40364">
            <g id="Group_40363" data-name="Group 40363" clip-path="url(#clip-path-9)">
              <path id="Path_69839" data-name="Path 69839" d="M186.111,193.857l-23.555,3.556v-9.46h23.555Z"/>
            </g>
          </g>
        </g>
        <path id="Path_69840" data-name="Path 69840" d="M184.292,205.718a3.125,3.125,0,1,1-3.125-3.125,3.125,3.125,0,0,1,3.125,3.125" fill="#fff"/>
        <g id="Group_40368" data-name="Group 40368" opacity="0.5">
          <g id="Group_40367" data-name="Group 40367">
            <g id="Group_40366" data-name="Group 40366" clip-path="url(#clip-path-10)">
              <path id="Path_69841" data-name="Path 69841" d="M175.958,205.718a3.125,3.125,0,1,1-3.125-3.125,3.125,3.125,0,0,1,3.125,3.125" fill="#fff"/>
            </g>
          </g>
        </g>
        <path id="Path_69842" data-name="Path 69842" d="M252.778,275.3H200.334a28.532,28.532,0,0,1-28.5-28.5v-6.074h5V246.8a23.527,23.527,0,0,0,23.5,23.5h52.444Z" fill="#407bff"/>
        <path id="Path_69843" data-name="Path 69843" d="M375.189,149.968H289.245A13.08,13.08,0,0,0,276.2,163.009V356.832a13.08,13.08,0,0,0,13.042,13.041h85.944a13.079,13.079,0,0,0,13.041-13.041V163.009a13.079,13.079,0,0,0-13.041-13.041" fill="#407bff"/>
        <g id="Group_40371" data-name="Group 40371" opacity="0.2">
          <g id="Group_40370" data-name="Group 40370">
            <g id="Group_40369" data-name="Group 40369" clip-path="url(#clip-path-11)">
              <path id="Path_69844" data-name="Path 69844" d="M375.189,149.968H289.245A13.08,13.08,0,0,0,276.2,163.009V356.832a13.08,13.08,0,0,0,13.042,13.041h85.944a13.079,13.079,0,0,0,13.041-13.041V163.009a13.079,13.079,0,0,0-13.041-13.041"/>
            </g>
          </g>
        </g>
        <path id="Path_69845" data-name="Path 69845" d="M351.763,149.968H265.819a13.08,13.08,0,0,0-13.042,13.041V356.832a13.08,13.08,0,0,0,13.042,13.041h85.944A13.079,13.079,0,0,0,364.8,356.832V163.009a13.079,13.079,0,0,0-13.041-13.041" fill="#407bff"/>
        <g id="Group_40374" data-name="Group 40374" opacity="0.2">
          <g id="Group_40373" data-name="Group 40373">
            <g id="Group_40372" data-name="Group 40372" clip-path="url(#clip-path-12)">
              <path id="Rectangle_6935" data-name="Rectangle 6935" d="M8.694,0H94.638a8.695,8.695,0,0,1,8.695,8.695V202.516a8.695,8.695,0,0,1-8.695,8.695H8.694A8.694,8.694,0,0,1,0,202.517V8.694A8.694,8.694,0,0,1,8.694,0Z" transform="translate(257.125 154.315)"/>
            </g>
          </g>
        </g>
        <path id="Rectangle_6937" data-name="Rectangle 6937" d="M8.694,0h81.9a8.695,8.695,0,0,1,8.695,8.695V202.517a8.694,8.694,0,0,1-8.694,8.694H8.694A8.694,8.694,0,0,1,0,202.517V8.694A8.694,8.694,0,0,1,8.694,0Z" transform="translate(261.17 154.315)" fill="#fff"/>
        <g id="Group_40377" data-name="Group 40377" opacity="0.3">
          <g id="Group_40376" data-name="Group 40376">
            <g id="Group_40375" data-name="Group 40375" clip-path="url(#clip-path-13)">
              <path id="Path_69846" data-name="Path 69846" d="M346.933,179.742H274.694a6.762,6.762,0,0,1,0-13.524h72.239a6.762,6.762,0,0,1,0,13.524" fill="#407bff"/>
            </g>
          </g>
        </g>
        <path id="Path_69847" data-name="Path 69847" d="M323.115,174.459H273.607a1.479,1.479,0,1,1,0-2.958h49.508a1.479,1.479,0,1,1,0,2.958" fill="#fff"/>
        <path id="Path_69848" data-name="Path 69848" d="M342.466,172.98a1.479,1.479,0,1,1-1.479-1.479,1.479,1.479,0,0,1,1.479,1.479" fill="#407bff"/>
        <path id="Path_69849" data-name="Path 69849" d="M348.986,172.98a1.479,1.479,0,1,1-1.479-1.479,1.479,1.479,0,0,1,1.479,1.479" fill="#407bff"/>
        <path id="Path_69850" data-name="Path 69850" d="M335.945,172.98a1.479,1.479,0,1,1-1.479-1.479,1.479,1.479,0,0,1,1.479,1.479" fill="#407bff"/>
        <g id="Group_40380" data-name="Group 40380" opacity="0.3">
          <g id="Group_40379" data-name="Group 40379">
            <g id="Group_40378" data-name="Group 40378" clip-path="url(#clip-path-14)">
              <path id="Path_69851" data-name="Path 69851" d="M346.933,201.477H274.694a6.762,6.762,0,0,1,0-13.524h72.239a6.762,6.762,0,0,1,0,13.524" fill="#407bff"/>
            </g>
          </g>
        </g>
        <path id="Path_69852" data-name="Path 69852" d="M323.115,196.194H273.607a1.479,1.479,0,0,1,0-2.958h49.508a1.479,1.479,0,0,1,0,2.958" fill="#fff"/>
        <path id="Path_69853" data-name="Path 69853" d="M342.466,194.715a1.479,1.479,0,1,1-1.479-1.479,1.479,1.479,0,0,1,1.479,1.479" fill="#407bff"/>
        <path id="Path_69854" data-name="Path 69854" d="M348.986,194.715a1.479,1.479,0,1,1-1.479-1.479,1.479,1.479,0,0,1,1.479,1.479" fill="#407bff"/>
        <g id="Group_40383" data-name="Group 40383" opacity="0.3">
          <g id="Group_40382" data-name="Group 40382">
            <g id="Group_40381" data-name="Group 40381" clip-path="url(#clip-path-15)">
              <path id="Path_69855" data-name="Path 69855" d="M335.945,194.715a1.479,1.479,0,1,1-1.479-1.479,1.479,1.479,0,0,1,1.479,1.479" fill="#407bff"/>
            </g>
          </g>
        </g>
        <g id="Group_40386" data-name="Group 40386" opacity="0.3">
          <g id="Group_40385" data-name="Group 40385">
            <g id="Group_40384" data-name="Group 40384" clip-path="url(#clip-path-16)">
              <path id="Path_69856" data-name="Path 69856" d="M346.933,223.212H274.694a6.762,6.762,0,0,1,0-13.524h72.239a6.762,6.762,0,0,1,0,13.524" fill="#407bff"/>
            </g>
          </g>
        </g>
        <path id="Path_69857" data-name="Path 69857" d="M323.115,217.929H273.607a1.479,1.479,0,0,1,0-2.958h49.508a1.479,1.479,0,0,1,0,2.958" fill="#fff"/>
        <path id="Path_69858" data-name="Path 69858" d="M342.466,216.45a1.479,1.479,0,1,1-1.479-1.479,1.479,1.479,0,0,1,1.479,1.479" fill="#407bff"/>
        <path id="Path_69859" data-name="Path 69859" d="M348.986,216.45a1.479,1.479,0,1,1-1.479-1.479,1.479,1.479,0,0,1,1.479,1.479" fill="#407bff"/>
        <g id="Group_40389" data-name="Group 40389" opacity="0.6">
          <g id="Group_40388" data-name="Group 40388">
            <g id="Group_40387" data-name="Group 40387" clip-path="url(#clip-path-17)">
              <path id="Path_69860" data-name="Path 69860" d="M335.945,216.45a1.479,1.479,0,1,1-1.479-1.479,1.479,1.479,0,0,1,1.479,1.479" fill="#407bff"/>
            </g>
          </g>
        </g>
        <g id="Group_40392" data-name="Group 40392" opacity="0.3">
          <g id="Group_40391" data-name="Group 40391">
            <g id="Group_40390" data-name="Group 40390" clip-path="url(#clip-path-18)">
              <path id="Path_69861" data-name="Path 69861" d="M346.933,244.947H274.694a6.762,6.762,0,0,1,0-13.524h72.239a6.762,6.762,0,0,1,0,13.524" fill="#407bff"/>
            </g>
          </g>
        </g>
        <path id="Path_69862" data-name="Path 69862" d="M323.115,239.664H273.607a1.479,1.479,0,0,1,0-2.958h49.508a1.479,1.479,0,0,1,0,2.958" fill="#fff"/>
        <path id="Path_69863" data-name="Path 69863" d="M342.466,238.185a1.479,1.479,0,1,1-1.479-1.479,1.479,1.479,0,0,1,1.479,1.479" fill="#407bff"/>
        <g id="Group_40395" data-name="Group 40395" opacity="0.3">
          <g id="Group_40394" data-name="Group 40394">
            <g id="Group_40393" data-name="Group 40393" clip-path="url(#clip-path-19)">
              <path id="Path_69864" data-name="Path 69864" d="M348.986,238.185a1.479,1.479,0,1,1-1.479-1.479,1.479,1.479,0,0,1,1.479,1.479" fill="#407bff"/>
            </g>
          </g>
        </g>
        <g id="Group_40398" data-name="Group 40398" opacity="0.6">
          <g id="Group_40397" data-name="Group 40397">
            <g id="Group_40396" data-name="Group 40396" clip-path="url(#clip-path-20)">
              <path id="Path_69865" data-name="Path 69865" d="M335.945,238.185a1.479,1.479,0,1,1-1.479-1.479,1.479,1.479,0,0,1,1.479,1.479" fill="#407bff"/>
            </g>
          </g>
        </g>
        <g id="Group_40401" data-name="Group 40401" opacity="0.3">
          <g id="Group_40400" data-name="Group 40400">
            <g id="Group_40399" data-name="Group 40399" clip-path="url(#clip-path-21)">
              <path id="Path_69866" data-name="Path 69866" d="M346.933,266.682H274.694a6.762,6.762,0,0,1,0-13.524h72.239a6.762,6.762,0,0,1,0,13.524" fill="#407bff"/>
            </g>
          </g>
        </g>
        <path id="Path_69867" data-name="Path 69867" d="M323.115,261.4H273.607a1.479,1.479,0,0,1,0-2.958h49.508a1.479,1.479,0,0,1,0,2.958" fill="#fff"/>
        <path id="Path_69868" data-name="Path 69868" d="M342.466,259.92a1.479,1.479,0,1,1-1.479-1.479,1.479,1.479,0,0,1,1.479,1.479" fill="#407bff"/>
        <g id="Group_40404" data-name="Group 40404" opacity="0.6">
          <g id="Group_40403" data-name="Group 40403">
            <g id="Group_40402" data-name="Group 40402" clip-path="url(#clip-path-22)">
              <path id="Path_69869" data-name="Path 69869" d="M348.986,259.92a1.479,1.479,0,1,1-1.479-1.479,1.479,1.479,0,0,1,1.479,1.479" fill="#407bff"/>
            </g>
          </g>
        </g>
        <path id="Path_69870" data-name="Path 69870" d="M335.945,259.92a1.479,1.479,0,1,1-1.479-1.479,1.479,1.479,0,0,1,1.479,1.479" fill="#407bff"/>
        <g id="Group_40407" data-name="Group 40407" opacity="0.3">
          <g id="Group_40406" data-name="Group 40406">
            <g id="Group_40405" data-name="Group 40405" clip-path="url(#clip-path-23)">
              <path id="Path_69871" data-name="Path 69871" d="M346.933,288.418H274.694a6.762,6.762,0,0,1,0-13.524h72.239a6.762,6.762,0,1,1,0,13.524" fill="#407bff"/>
            </g>
          </g>
        </g>
        <path id="Path_69872" data-name="Path 69872" d="M323.115,283.135H273.607a1.479,1.479,0,0,1,0-2.958h49.508a1.479,1.479,0,0,1,0,2.958" fill="#fff"/>
        <g id="Group_40410" data-name="Group 40410" opacity="0.3">
          <g id="Group_40409" data-name="Group 40409">
            <g id="Group_40408" data-name="Group 40408" clip-path="url(#clip-path-24)">
              <path id="Path_69873" data-name="Path 69873" d="M342.466,281.656a1.479,1.479,0,1,1-1.479-1.479,1.479,1.479,0,0,1,1.479,1.479" fill="#407bff"/>
            </g>
          </g>
        </g>
        <path id="Path_69874" data-name="Path 69874" d="M348.986,281.656a1.479,1.479,0,1,1-1.479-1.479,1.479,1.479,0,0,1,1.479,1.479" fill="#407bff"/>
        <path id="Path_69875" data-name="Path 69875" d="M335.945,281.656a1.479,1.479,0,1,1-1.479-1.479,1.479,1.479,0,0,1,1.479,1.479" fill="#407bff"/>
        <g id="Group_40413" data-name="Group 40413" opacity="0.3">
          <g id="Group_40412" data-name="Group 40412">
            <g id="Group_40411" data-name="Group 40411" clip-path="url(#clip-path-25)">
              <path id="Path_69876" data-name="Path 69876" d="M346.933,310.153H274.694a6.762,6.762,0,0,1,0-13.524h72.239a6.762,6.762,0,0,1,0,13.524" fill="#407bff"/>
            </g>
          </g>
        </g>
        <path id="Path_69877" data-name="Path 69877" d="M323.115,304.87H273.607a1.479,1.479,0,0,1,0-2.958h49.508a1.479,1.479,0,0,1,0,2.958" fill="#fff"/>
        <g id="Group_40416" data-name="Group 40416" opacity="0.3">
          <g id="Group_40415" data-name="Group 40415">
            <g id="Group_40414" data-name="Group 40414" clip-path="url(#clip-path-26)">
              <path id="Path_69878" data-name="Path 69878" d="M342.466,303.391a1.479,1.479,0,1,1-1.479-1.479,1.479,1.479,0,0,1,1.479,1.479" fill="#407bff"/>
            </g>
          </g>
        </g>
        <path id="Path_69879" data-name="Path 69879" d="M348.986,303.391a1.479,1.479,0,1,1-1.479-1.479,1.479,1.479,0,0,1,1.479,1.479" fill="#407bff"/>
        <g id="Group_40419" data-name="Group 40419" opacity="0.3">
          <g id="Group_40418" data-name="Group 40418">
            <g id="Group_40417" data-name="Group 40417" clip-path="url(#clip-path-27)">
              <path id="Path_69880" data-name="Path 69880" d="M335.945,303.391a1.479,1.479,0,1,1-1.479-1.479,1.479,1.479,0,0,1,1.479,1.479" fill="#407bff"/>
            </g>
          </g>
        </g>
        <g id="Group_40422" data-name="Group 40422" opacity="0.3">
          <g id="Group_40421" data-name="Group 40421">
            <g id="Group_40420" data-name="Group 40420" clip-path="url(#clip-path-28)">
              <path id="Path_69881" data-name="Path 69881" d="M346.933,331.888H274.694a6.762,6.762,0,0,1,0-13.524h72.239a6.762,6.762,0,1,1,0,13.524" fill="#407bff"/>
            </g>
          </g>
        </g>
        <path id="Path_69882" data-name="Path 69882" d="M323.115,326.605H273.607a1.479,1.479,0,0,1,0-2.958h49.508a1.479,1.479,0,0,1,0,2.958" fill="#fff"/>
        <path id="Path_69883" data-name="Path 69883" d="M342.466,325.126a1.479,1.479,0,1,1-1.479-1.479,1.479,1.479,0,0,1,1.479,1.479" fill="#407bff"/>
        <path id="Path_69884" data-name="Path 69884" d="M348.986,325.126a1.479,1.479,0,1,1-1.479-1.479,1.479,1.479,0,0,1,1.479,1.479" fill="#407bff"/>
        <path id="Path_69885" data-name="Path 69885" d="M335.945,325.126a1.479,1.479,0,1,1-1.479-1.479,1.479,1.479,0,0,1,1.479,1.479" fill="#407bff"/>
        <g id="Group_40425" data-name="Group 40425" opacity="0.3">
          <g id="Group_40424" data-name="Group 40424">
            <g id="Group_40423" data-name="Group 40423" clip-path="url(#clip-path-29)">
              <path id="Path_69886" data-name="Path 69886" d="M346.933,353.623H274.694a6.762,6.762,0,1,1,0-13.524h72.239a6.762,6.762,0,1,1,0,13.524" fill="#407bff"/>
            </g>
          </g>
        </g>
        <path id="Path_69887" data-name="Path 69887" d="M323.115,348.34H273.607a1.479,1.479,0,0,1,0-2.958h49.508a1.479,1.479,0,0,1,0,2.958" fill="#fff"/>
        <path id="Path_69888" data-name="Path 69888" d="M342.466,346.861a1.479,1.479,0,1,1-1.479-1.479,1.479,1.479,0,0,1,1.479,1.479" fill="#407bff"/>
        <path id="Path_69889" data-name="Path 69889" d="M348.986,346.861a1.479,1.479,0,1,1-1.479-1.479,1.479,1.479,0,0,1,1.479,1.479" fill="#407bff"/>
        <g id="Group_40428" data-name="Group 40428" opacity="0.6">
          <g id="Group_40427" data-name="Group 40427">
            <g id="Group_40426" data-name="Group 40426" clip-path="url(#clip-path-30)">
              <path id="Path_69890" data-name="Path 69890" d="M335.945,346.861a1.479,1.479,0,1,1-1.479-1.479,1.479,1.479,0,0,1,1.479,1.479" fill="#407bff"/>
            </g>
          </g>
        </g>
        <g id="Group_40431" data-name="Group 40431" opacity="0.2">
          <g id="Group_40430" data-name="Group 40430">
            <g id="Group_40429" data-name="Group 40429" clip-path="url(#clip-path-31)">
              <path id="Path_69891" data-name="Path 69891" d="M381.573,213.794H371.461a2.974,2.974,0,0,1-2.965-2.965V198.336a2.973,2.973,0,0,1,2.965-2.965h10.112a2.974,2.974,0,0,1,2.966,2.965v12.493a2.975,2.975,0,0,1-2.966,2.965"/>
            </g>
          </g>
        </g>
        <path id="Path_69892" data-name="Path 69892" d="M262.917,148.833l11.312,4.916-6.485,7.567-9.459-4.1Z" fill="#ce7a63"/>
        <g id="Group_40434" data-name="Group 40434" opacity="0.2">
          <g id="Group_40433" data-name="Group 40433">
            <g id="Group_40432" data-name="Group 40432" clip-path="url(#clip-path-32)">
              <path id="Path_69893" data-name="Path 69893" d="M262.918,148.837l11.316,4.917-3.634,4.237-10.278-4.459Z"/>
            </g>
          </g>
        </g>
        <path id="Path_69894" data-name="Path 69894" d="M269.188,165.312l-1.268-.341a2.336,2.336,0,0,1-1.607-1.509l-.832.351a2.344,2.344,0,0,1-1.519.1l-17.288-4.65a6.913,6.913,0,0,1,1.557-3.25s7.705,1.637,10.022-.128a.575.575,0,0,1,.611-.072c1.382.7,6.839,3.334,10.412,3.133a.709.709,0,0,1,.714.885,37.988,37.988,0,0,0-.8,5.476" fill="#263238"/>
        <path id="Path_69895" data-name="Path 69895" d="M364.544,113.232,359.7,123.379c-7.148,14.978-24.766,22.508-38.832,16.616-8.21-3.447-17.177-10.723-23.278-14.051-5.22,11.434-14.986,24.049-22.464,32.828L260,151.159c5.646-12.959,14.44-33.2,20.018-46.347a13.458,13.458,0,0,1,11.755-8.166c25.141-.68,72.767,16.586,72.767,16.586" fill="#263238"/>
        <path id="Path_69896" data-name="Path 69896" d="M291.718,181.988l10.87-.48-2.009,11.94-9.085.415Z" fill="#ce7a63"/>
        <g id="Group_40437" data-name="Group 40437" opacity="0.2">
          <g id="Group_40436" data-name="Group 40436">
            <g id="Group_40435" data-name="Group 40435" clip-path="url(#clip-path-33)">
              <path id="Path_69897" data-name="Path 69897" d="M291.72,181.992l10.874-.481-.828,4.909-10.143.66Z"/>
            </g>
          </g>
        </g>
        <path id="Path_69898" data-name="Path 69898" d="M304.747,193.993l-1.252.393a2.338,2.338,0,0,1-2.167-.41l-.512.742a2.352,2.352,0,0,1-1.225.9l-17.083,5.358a6.915,6.915,0,0,1-.43-3.578s7.379-2.755,8.386-5.488a.575.575,0,0,1,.477-.389c1.542-.151,7.56-.859,10.466-2.946a.709.709,0,0,1,1.078.363,38,38,0,0,0,2.262,5.051" fill="#263238"/>
        <path id="Path_69899" data-name="Path 69899" d="M371.588,109.216l-.082,10.716c-.127,15.808-13.528,29.918-29.53,31.108-9.34.687-21.962.9-29.246.762-1.062,11.067-4.519,24.109-8,33.562L289,184.263c-.412-13.415-1.017-32.438-1.526-45.054a13.243,13.243,0,0,1,7.545-12.068c23.593-11.614,76.573-17.925,76.573-17.925" fill="#263238"/>
        <g id="Group_40440" data-name="Group 40440" opacity="0.1">
          <g id="Group_40439" data-name="Group 40439">
            <g id="Group_40438" data-name="Group 40438" clip-path="url(#clip-path-34)">
              <path id="Path_69900" data-name="Path 69900" d="M301.382,185.5a.374.374,0,0,1-.358-.483c2.379-7.821,6.664-32.238,6.855-43.439a.375.375,0,0,1,.423-.365c22.985,3.057,38.551,2.018,45.016-3,11.356-8.824,11.193-23.107,8.314-30.555a.374.374,0,0,1,.7-.269c2.961,7.656,3.126,22.34-8.552,31.414-6.682,5.192-21.871,6.273-45.159,3.211-.288,11.433-4.518,35.464-6.878,43.226a.374.374,0,0,1-.358.265"/>
            </g>
          </g>
        </g>
        <g id="Group_40443" data-name="Group 40443" opacity="0.2">
          <g id="Group_40442" data-name="Group 40442">
            <g id="Group_40441" data-name="Group 40441" clip-path="url(#clip-path-35)">
              <path id="Path_69901" data-name="Path 69901" d="M296.971,127.26a113,113,0,0,1-9.354,15.509c.079,2.214.165,4.562.255,7,5.568-8.794,9.108-22.523,9.108-22.523a.026.026,0,0,1-.009.015"/>
            </g>
          </g>
        </g>
        <path id="Path_69902" data-name="Path 69902" d="M337.677,58.774c-.423,1.548-.821,2.9-1.283,4.314-.439,1.4-.93,2.787-1.423,4.172-1.012,2.761-2.06,5.513-3.281,8.232-1.205,2.731-2.471,5.439-3.973,8.14a63.812,63.812,0,0,1-5.177,8.118l-.643.85a4.2,4.2,0,0,1-1.513,1.238,27.8,27.8,0,0,1-6.879,2.219,25.213,25.213,0,0,1-3.557.367c-.6.022-1.2,0-1.81-.02l-.929-.074c-.328-.032-.6-.09-1.033-.115a3.5,3.5,0,0,1-3.091-4.66l1.326-3.675a2.214,2.214,0,0,1,.41-.475l.5-.479,1.022-.933c.676-.617,1.347-1.2,1.985-1.8.653-.566,1.264-1.168,1.871-1.719s1.166-1.142,1.737-1.669L309.784,82.9A70.722,70.722,0,0,0,313,76.362l.757-1.774.721-1.824c.493-1.213.97-2.448,1.431-3.694.919-2.493,1.828-5.026,2.7-7.575l2.567-7.57.061-.181a8.6,8.6,0,0,1,16.44,5.03" fill="#ce7a63"/>
        <path id="Path_69903" data-name="Path 69903" d="M329.426,44.7c-4.565,1.31-10.706,6.351-12.816,17.768,3.057,4.75,17.412,1.083,17.412,1.083Z" fill="#407bff"/>
        <path id="Path_69904" data-name="Path 69904" d="M307.95,87.99l.464,4.943c-1.384,5.03-7.543,2.131-7.543,2.131l-3.524-.2a2.631,2.631,0,0,1-2.313-2.5l-.351-3.453a2.745,2.745,0,0,1,2.191-3.137l3.062-.333a5.442,5.442,0,0,1,2.623.365Z" fill="#ce7a63"/>
        <path id="Path_69905" data-name="Path 69905" d="M331.638,44.016a155.152,155.152,0,0,1,22.8-3.1A14.412,14.412,0,0,1,369.652,55.69c-.643,25.187,2.9,51.668,2.4,56.524,0,0-53.11,7.646-61.253-8.141-3.42-22.389,7.632-19.537,8.517-45.244.232-6.735,5.733-13.4,12.322-14.813" fill="#407bff"/>
        <path id="Path_69906" data-name="Path 69906" d="M327.45,66.783l.179-.051.032-.193a3.454,3.454,0,0,1,3.233-2.953l.2-.008.066-.193a4.007,4.007,0,0,1,3.729-2.773h.006a4.918,4.918,0,0,1,4.126,3.049l.121.291.279-.081.025-.006a3.439,3.439,0,0,1,.991-.127c.059,0,.117,0,.176.007a4.226,4.226,0,0,1,3.791,3.977,3.5,3.5,0,0,1-3.5,3.861l-12.574-.209A2.505,2.505,0,0,1,325.969,69a2.121,2.121,0,0,1,1.481-2.219" fill="#fff"/>
        <path id="Path_69907" data-name="Path 69907" d="M369.083,49.468l.485,1.078.424.981c.276.651.522,1.3.774,1.95.5,1.3.937,2.61,1.368,3.927a76.767,76.767,0,0,1,2.111,8.1q.414,2.077.731,4.206.279,2.139.437,4.338a45.256,45.256,0,0,1-.259,9.149l-.1.738a6.247,6.247,0,0,1-1,2.642,20.333,20.333,0,0,1-3.35,3.839,35.735,35.735,0,0,1-3.337,2.638,50.591,50.591,0,0,1-6.632,3.834,70.642,70.642,0,0,1-6.713,2.81,62.24,62.24,0,0,1-6.94,2.068,4.342,4.342,0,0,1-3.68-7.624l.184-.145c1.67-1.331,3.494-2.677,5.2-4.014,1.725-1.337,3.42-2.669,5.02-4.025a58.651,58.651,0,0,0,4.425-4.039,19.841,19.841,0,0,0,1.676-1.937,5.8,5.8,0,0,0,.873-1.462l-1.1,3.379a40.884,40.884,0,0,0-.582-6.072c-.371-2.115-.867-4.283-1.446-6.468-.611-2.18-1.259-4.386-2.009-6.573-.359-1.1-.761-2.184-1.141-3.272l-1.139-3.071-.172-.465a8.592,8.592,0,0,1,15.892-6.513" fill="#ce7a63"/>
        <path id="Path_69908" data-name="Path 69908" d="M357.229,41.031c3.667.406,11.438,3.159,16.549,13.691-5.018,9.916-18.111,13.691-18.111,13.691s-9.111-22.112,1.562-27.382" fill="#407bff"/>
        <path id="Path_69909" data-name="Path 69909" d="M327.244,112.108H284.076c-1.88,0-2.28-.435-.888-.966l19.7-7.518a20.166,20.166,0,0,1,5.949-.966H352c1.88,0,2.279.435.887.966l-19.7,7.518a20.166,20.166,0,0,1-5.949.966" fill="#407bff"/>
        <g id="Group_40446" data-name="Group 40446" opacity="0.4">
          <g id="Group_40445" data-name="Group 40445">
            <g id="Group_40444" data-name="Group 40444" clip-path="url(#clip-path-36)">
              <path id="Path_69910" data-name="Path 69910" d="M327.244,112.108H284.076c-1.88,0-2.28-.435-.888-.966l19.7-7.518a20.166,20.166,0,0,1,5.949-.966H352c1.88,0,2.279.435.887.966l-19.7,7.518a20.166,20.166,0,0,1-5.949.966"/>
            </g>
          </g>
        </g>
        <path id="Path_69911" data-name="Path 69911" d="M327.244,110.324H284.076a4.31,4.31,0,0,1-4.047-3.418l-4.887-26.6a2.774,2.774,0,0,1,2.79-3.419H321.1a4.309,4.309,0,0,1,4.046,3.419l4.888,26.6a2.774,2.774,0,0,1-2.79,3.418" fill="#407bff"/>
        <g id="Group_40449" data-name="Group 40449" opacity="0.3">
          <g id="Group_40448" data-name="Group 40448">
            <g id="Group_40447" data-name="Group 40447" clip-path="url(#clip-path-37)">
              <path id="Path_69912" data-name="Path 69912" d="M327.244,110.324H284.076a4.31,4.31,0,0,1-4.047-3.418l-4.887-26.6a2.774,2.774,0,0,1,2.79-3.419H321.1a4.309,4.309,0,0,1,4.046,3.419l4.888,26.6a2.774,2.774,0,0,1-2.79,3.418"/>
            </g>
          </g>
        </g>
        <g id="Group_40452" data-name="Group 40452" opacity="0.3">
          <g id="Group_40451" data-name="Group 40451">
            <g id="Group_40450" data-name="Group 40450" clip-path="url(#clip-path-38)">
              <path id="Path_69913" data-name="Path 69913" d="M326.233,110.324H284.077a4.309,4.309,0,0,1-4.047-3.418l-4.888-26.6a2.775,2.775,0,0,1,2.79-3.419h42.157a4.308,4.308,0,0,1,4.045,3.419l4.888,26.6a2.773,2.773,0,0,1-2.789,3.418" fill="#407bff"/>
            </g>
          </g>
        </g>
        <path id="Path_69914" data-name="Path 69914" d="M345.853,95.848l2.161,2.271c2.025,4.808-4.607,6.341-4.607,6.341l-2.891,2.025a2.633,2.633,0,0,1-3.364-.532l-2.412-2.5a2.745,2.745,0,0,1-.219-3.82l2.2-2.156a5.429,5.429,0,0,1,2.286-1.336l3.827-1.112a3.009,3.009,0,0,1,3.019.815" fill="#ce7a63"/>
        <path id="Path_69915" data-name="Path 69915" d="M334.533,46.615a6.923,6.923,0,0,1,2.629-3.715,6.406,6.406,0,0,0-.734-4.247l11.922-9.977c.743,4.969,2.491,11.6,4.943,13.754-2.732,2.52-7.753,7.068-14.007,8.131s-5.329-1.549-4.753-3.946" fill="#ce7a63"/>
        <g id="Group_40455" data-name="Group 40455" opacity="0.2">
          <g id="Group_40454" data-name="Group 40454">
            <g id="Group_40453" data-name="Group 40453" clip-path="url(#clip-path-39)">
              <path id="Path_69916" data-name="Path 69916" d="M336.652,39.116l10.179-4.242c-1.282,5.175-7.045,9.455-9.584,7.4a6.431,6.431,0,0,0-.6-3.158"/>
            </g>
          </g>
        </g>
        <path id="Path_69917" data-name="Path 69917" d="M336.057,23.117a6.631,6.631,0,1,1-6.631-6.631,6.631,6.631,0,0,1,6.631,6.631" fill="#263238"/>
        <path id="Path_69918" data-name="Path 69918" d="M347.469,19.389c1.562,7.58,2.459,12.761-1.013,17.083-6.9,8.588-13.164,5.922-16.968-1.058-3.425-6.282-5.4-17.623,1.121-22.508a10.666,10.666,0,0,1,16.86,6.483" fill="#ce7a63"/>
        <path id="Path_69919" data-name="Path 69919" d="M332.583,17.38c-1.535,1.75-5.583,5.417-11.472,2.111s-3.495-11.215.055-13.745A10.9,10.9,0,0,1,331.444,4.38S330.958.172,336.875,0,342.5,4.047,342.5,4.047s7.666-3.19,11.333,2.708c3.411,5.488-1.674,9.75-1.674,9.75s5.311,2.284,3.563,7.8a6.349,6.349,0,0,1-5.806,4.707s-5.666.4-6.625-3.734a10.5,10.5,0,0,1,.834-7.186s-9.084,3.542-11.542-.708" fill="#263238"/>
        <path id="Path_69920" data-name="Path 69920" d="M341.292,26.322h-.026l-1.4-.143a.25.25,0,0,1,.051-.5l1.352.139,7.063-1.719a.25.25,0,0,1,.119.486l-7.1,1.729a.23.23,0,0,1-.058.007" fill="#263238"/>
        <path id="Path_69921" data-name="Path 69921" d="M351.478,17.281a6.854,6.854,0,0,1-.694-.036.5.5,0,0,1,.1-1,3.617,3.617,0,0,0,3.512-1.285,2.448,2.448,0,0,0,.16-2.531.5.5,0,1,1,.889-.456,3.477,3.477,0,0,1-.223,3.551,4.356,4.356,0,0,1-3.745,1.752" fill="#263238"/>
        <path id="Path_69922" data-name="Path 69922" d="M324,22.173a11.356,11.356,0,0,1-3.025-.436,6.413,6.413,0,0,1-4.952-5.644c-.322-2.935,1.124-6.045,3.365-7.234a.5.5,0,0,1,.469.884c-1.9,1.007-3.12,3.69-2.839,6.24a5.384,5.384,0,0,0,4.222,4.79c5.862,1.614,8.813-2.16,10.052-4.554a.5.5,0,1,1,.888.459c-1.146,2.216-3.615,5.5-8.18,5.5" fill="#263238"/>
        <path id="Path_69923" data-name="Path 69923" d="M335.1,33.643a6.538,6.538,0,0,1-1.12.36.19.19,0,0,1-.231-.162.224.224,0,0,1,.167-.253,5.927,5.927,0,0,0,4.034-3.18.2.2,0,1,1,.369.15,6.243,6.243,0,0,1-3.219,3.085" fill="#263238"/>
        <g id="Group_40458" data-name="Group 40458" opacity="0.2">
          <g id="Group_40457" data-name="Group 40457">
            <g id="Group_40456" data-name="Group 40456" clip-path="url(#clip-path-40)">
              <path id="Path_69924" data-name="Path 69924" d="M338.07,23.485a3.566,3.566,0,0,1,2.59-.838,7.047,7.047,0,0,1-2.59.838"/>
            </g>
          </g>
        </g>
        <g id="Group_40461" data-name="Group 40461" opacity="0.2">
          <g id="Group_40460" data-name="Group 40460">
            <g id="Group_40459" data-name="Group 40459" clip-path="url(#clip-path-41)">
              <path id="Path_69925" data-name="Path 69925" d="M338.311,24.088a2.935,2.935,0,0,1,2.463-.149,5.808,5.808,0,0,1-2.463.149"/>
            </g>
          </g>
        </g>
        <g id="Group_40464" data-name="Group 40464" opacity="0.2">
          <g id="Group_40463" data-name="Group 40463">
            <g id="Group_40462" data-name="Group 40462" clip-path="url(#clip-path-42)">
              <path id="Path_69926" data-name="Path 69926" d="M327.829,26.371s-.855-.476-1.151.07a1.506,1.506,0,0,0,1.151-.07"/>
            </g>
          </g>
        </g>
        <g id="Group_40467" data-name="Group 40467" opacity="0.2">
          <g id="Group_40466" data-name="Group 40466">
            <g id="Group_40465" data-name="Group 40465" clip-path="url(#clip-path-43)">
              <path id="Path_69927" data-name="Path 69927" d="M327.931,26.977s-.718-.452-.8.266a.72.72,0,0,0,.8-.266"/>
            </g>
          </g>
        </g>
        <path id="Path_69928" data-name="Path 69928" d="M352.158,27.625a7.281,7.281,0,0,1-3.612,4.283c-2.3,1.164-3.974-.771-3.771-3.2.184-2.188,1.6-5.429,4.122-5.583a3.326,3.326,0,0,1,3.261,4.5" fill="#ce7a63"/>
        <path id="Path_69929" data-name="Path 69929" d="M336.2,24.416c.165.607-.025,1.184-.423,1.288s-.856-.3-1.02-.911.025-1.184.423-1.288.855.3,1.02.911" fill="#263238"/>
        <path id="Path_69930" data-name="Path 69930" d="M329.786,26.244c.165.607-.025,1.184-.423,1.288s-.856-.3-1.02-.911.025-1.184.423-1.288.855.3,1.02.911" fill="#263238"/>
        <path id="Path_69931" data-name="Path 69931" d="M326.088,30.786a1.181,1.181,0,0,1-1-.578l-1.019-1.822a.754.754,0,0,1-.051-.677.71.71,0,0,1,.507-.394l5.2-1.155a1.163,1.163,0,0,1,1.2.556l1.019,1.822a.754.754,0,0,1,.051.677.711.711,0,0,1-.507.4l-5.2,1.154a.915.915,0,0,1-.2.022m3.844-4.148a.434.434,0,0,0-.1.01l-5.2,1.155a.217.217,0,0,0-.159.11.261.261,0,0,0,.032.229l1.019,1.822a.663.663,0,0,0,.656.312l5.2-1.155a.213.213,0,0,0,.158-.11.258.258,0,0,0-.031-.228l-1.019-1.823a.685.685,0,0,0-.56-.322" fill="#263238"/>
        <path id="Path_69932" data-name="Path 69932" d="M331.918,26.306l2.2,4.811a4.509,4.509,0,0,1-3.1.925,10.984,10.984,0,0,1,.9-5.736" fill="#ba4d3c"/>
        <path id="Path_69933" data-name="Path 69933" d="M334.71,28.872a1.18,1.18,0,0,1-1-.579l-1.019-1.822a.75.75,0,0,1-.051-.677.711.711,0,0,1,.506-.394l5.2-1.155a1.162,1.162,0,0,1,1.2.557l1.02,1.822a.754.754,0,0,1,.051.677.713.713,0,0,1-.507.394l-5.2,1.155a.924.924,0,0,1-.2.022m3.845-4.149a.444.444,0,0,0-.1.011l-5.2,1.155a.217.217,0,0,0-.159.11.262.262,0,0,0,.031.228l1.02,1.823a.663.663,0,0,0,.656.312l5.2-1.155a.216.216,0,0,0,.158-.11.257.257,0,0,0-.031-.229l-1.019-1.822a.686.686,0,0,0-.56-.323m1.506,2.728h0Z" fill="#263238"/>
        <path id="Path_69934" data-name="Path 69934" d="M331.126,27.83a.253.253,0,0,1-.08-.013.248.248,0,0,1-.158-.307c.014-.045.359-1.082,2.49-.66a.25.25,0,1,1-.1.49c-1.645-.325-1.914.319-1.917.326a.256.256,0,0,1-.237.164" fill="#263238"/>
        <path id="Path_69935" data-name="Path 69935" d="M337.669,22.214a.355.355,0,0,0,.149-.113.368.368,0,0,0-.066-.518,3.708,3.708,0,0,0-3.314-.71.365.365,0,0,0-.229.467.375.375,0,0,0,.471.232,2.962,2.962,0,0,1,2.618.591.374.374,0,0,0,.371.051" fill="#263238"/>
        <path id="Path_69936" data-name="Path 69936" d="M325.791,25.349a.367.367,0,0,0,.25-.243,2.906,2.906,0,0,1,1.817-1.947.366.366,0,0,0,.253-.454.372.372,0,0,0-.456-.256,3.638,3.638,0,0,0-2.322,2.433.373.373,0,0,0,.458.467" fill="#263238"/>
        <g id="Group_40470" data-name="Group 40470" opacity="0.2">
          <g id="Group_40469" data-name="Group 40469">
            <g id="Group_40468" data-name="Group 40468" clip-path="url(#clip-path-44)">
              <path id="Path_69937" data-name="Path 69937" d="M252.778,291.079v65.753a13.079,13.079,0,0,0,13.041,13.041h16.015L276.111,297.3Z"/>
            </g>
          </g>
        </g>
        <path id="Path_69938" data-name="Path 69938" d="M228.939,291.639l-6.391,7.972a6.086,6.086,0,0,1-4.7,2.309H160.141a6.139,6.139,0,0,0-6.006,5.546L149.052,368.9a5.029,5.029,0,0,0,5.087,5.547h113a6.139,6.139,0,0,0,6.005-5.547l6.126-74.021a5.029,5.029,0,0,0-5.088-5.546H233.633a6.084,6.084,0,0,0-4.694,2.308" fill="#407bff"/>
        <g id="Group_40473" data-name="Group 40473" opacity="0.3">
          <g id="Group_40472" data-name="Group 40472">
            <g id="Group_40471" data-name="Group 40471" clip-path="url(#clip-path-45)">
              <path id="Path_69939" data-name="Path 69939" d="M228.939,291.639l-6.391,7.972a6.086,6.086,0,0,1-4.7,2.309H160.141a6.139,6.139,0,0,0-6.006,5.546L149.052,368.9a5.029,5.029,0,0,0,5.087,5.547h113a6.139,6.139,0,0,0,6.005-5.547l6.126-74.021a5.029,5.029,0,0,0-5.088-5.546H233.633a6.084,6.084,0,0,0-4.694,2.308"/>
            </g>
          </g>
        </g>
        <path id="Path_69940" data-name="Path 69940" d="M206.12,296.01l-5.181,7.551a5.21,5.21,0,0,1-4.344,2.187H149.129A4.957,4.957,0,0,0,143.966,311l4.243,58.19a5.911,5.911,0,0,0,5.93,5.254h113a4.958,4.958,0,0,0,5.163-5.254l-5.113-70.115a5.91,5.91,0,0,0-5.93-5.254H210.464a5.21,5.21,0,0,0-4.344,2.187" fill="#407bff"/>
      </g>
    </g>
  </g>
</svg>
