<svg xmlns="http://www.w3.org/2000/svg" xmlns:xlink="http://www.w3.org/1999/xlink" width="460" height="460" viewBox="0 0 460 460">
  <defs>
    <clipPath id="clip-path">
      <rect id="Rectangle_5621" data-name="Rectangle 5621" width="460" height="460" transform="translate(-0.498 -0.498)" fill="none"/>
    </clipPath>
    <clipPath id="clip-path-2">
      <path id="Path_49227" data-name="Path 49227" d="M993.959,83.041a8.214,8.214,0,0,0-3.982,3.193,7.1,7.1,0,0,0,9.077-2.886,8.857,8.857,0,0,0-3.132-.6,6.471,6.471,0,0,0-1.963.289" transform="translate(-989.977 -82.752)" fill="none"/>
    </clipPath>
  </defs>
  <g id="Group_38413" data-name="Group 38413" transform="translate(0.498 0.498)">
    <g id="Group_38408" data-name="Group 38408">
      <g id="Group_38407" data-name="Group 38407" clip-path="url(#clip-path)">
        <path id="Path_49120" data-name="Path 49120" d="M459.52,229.76c0,126.893-102.867,229.76-229.76,229.76S0,356.653,0,229.76,102.867,0,229.76,0,459.52,102.867,459.52,229.76" fill="#f2e6dc"/>
        <path id="Path_49121" data-name="Path 49121" d="M88.236,839.383l5.163-2.227a51.942,51.942,0,0,0,5.12,6.483l-3.356,4.507,15.263,11.366,3.364-4.517a52.673,52.673,0,0,0,7.671,3.049l-.654,5.594,18.9,2.211.653-5.581a51.916,51.916,0,0,0,8.173-1.2l2.227,5.164,17.474-7.535-2.227-5.163a51.961,51.961,0,0,0,6.482-5.12L177,849.768,188.363,834.5l-4.517-3.364a52.65,52.65,0,0,0,3.049-7.672l5.594.654,2.211-18.9-5.581-.653a51.965,51.965,0,0,0-1.2-8.173l5.163-2.227L185.547,776.7l-5.163,2.227a51.961,51.961,0,0,0-5.12-6.483l3.356-4.507-15.263-11.366-3.364,4.517a52.647,52.647,0,0,0-7.671-3.049l.654-5.594-18.9-2.211-.653,5.581a51.937,51.937,0,0,0-8.173,1.2l-2.227-5.163-17.474,7.535,2.227,5.163a51.976,51.976,0,0,0-6.482,5.12l-4.507-3.356L85.42,781.574l4.517,3.364a52.658,52.658,0,0,0-3.049,7.671l-5.594-.654-2.211,18.9,5.581.653a51.954,51.954,0,0,0,1.2,8.173L80.7,821.908Zm36.366-62.62a33.6,33.6,0,1,1-18.116,45.586A33.726,33.726,0,0,1,124.6,776.762" transform="translate(-59.225 -561.845)" fill="#fff"/>
        <path id="Path_49122" data-name="Path 49122" d="M210.583,897.414A41.834,41.834,0,0,1,177.54,881.27a.251.251,0,1,1,.4-.308A41.382,41.382,0,1,0,200.074,815.5a.251.251,0,0,1-.128-.486,41.883,41.883,0,1,1,10.637,82.4" transform="translate(-132.919 -609.334)" fill="#f2e6dc"/>
        <path id="Path_49123" data-name="Path 49123" d="M1364.277,169.85l4-1.724a40.24,40.24,0,0,0,3.963,5.018l-2.6,3.489,11.815,8.8,2.6-3.5a40.792,40.792,0,0,0,5.938,2.36l-.506,4.33,14.631,1.712.505-4.32a40.264,40.264,0,0,0,6.327-.929l1.724,4,13.527-5.833-1.724-4a40.2,40.2,0,0,0,5.018-3.963l3.489,2.6,8.8-11.815-3.5-2.6a40.775,40.775,0,0,0,2.36-5.939l4.33.507,1.712-14.631-4.32-.505a40.271,40.271,0,0,0-.929-6.327l4-1.724-5.833-13.527-4,1.724a40.246,40.246,0,0,0-3.964-5.018l2.6-3.489-11.815-8.8-2.6,3.5a40.734,40.734,0,0,0-5.939-2.36l.507-4.33-14.631-1.712-.505,4.32a40.205,40.205,0,0,0-6.327.929l-1.724-4-13.527,5.833,1.724,4a40.166,40.166,0,0,0-5.018,3.963l-3.489-2.6-8.8,11.815,3.5,2.6a40.737,40.737,0,0,0-2.36,5.939l-4.33-.507-1.712,14.631,4.32.506a40.186,40.186,0,0,0,.929,6.327l-4,1.724Zm29.13-45.983a23.337,23.337,0,1,1-12.581,31.657,23.421,23.421,0,0,1,12.581-31.657" transform="translate(-1016.396 -75.516)" fill="#f7f1eb"/>
        <path id="Path_49124" data-name="Path 49124" d="M1458.817,214.66a32.441,32.441,0,0,1-25.624-12.519.251.251,0,1,1,.4-.308,31.977,31.977,0,1,0,17.107-50.582.251.251,0,1,1-.128-.486,32.479,32.479,0,1,1,8.248,63.895" transform="translate(-1073.273 -112.109)" fill="#fff"/>
        <rect id="Rectangle_5606" data-name="Rectangle 5606" width="235.524" height="14.845" transform="translate(219.762 129.601)" fill="#d3bba3"/>
        <rect id="Rectangle_5607" data-name="Rectangle 5607" width="235.524" height="167.284" transform="translate(219.762 129.601)" fill="#fff"/>
        <path id="Path_49125" data-name="Path 49125" d="M1109.961,682.911H874.436a.251.251,0,0,1-.251-.251V515.376a.251.251,0,0,1,.251-.251h235.524a.251.251,0,0,1,.251.251V682.66a.251.251,0,0,1-.251.251m-235.273-.5h235.022V515.627H874.687Z" transform="translate(-654.674 -385.775)" fill="#d3bba3"/>
        <path id="Path_49126" data-name="Path 49126" d="M907.8,536.028a3.377,3.377,0,1,1-3.377-3.377,3.377,3.377,0,0,1,3.377,3.377" transform="translate(-674.792 -398.9)" fill="#fff"/>
        <path id="Path_49127" data-name="Path 49127" d="M951.248,536.028a3.376,3.376,0,1,1-3.376-3.377,3.376,3.376,0,0,1,3.376,3.377" transform="translate(-707.329 -398.9)" fill="#fff"/>
        <path id="Path_49128" data-name="Path 49128" d="M994.694,536.028a3.376,3.376,0,1,1-3.377-3.377,3.377,3.377,0,0,1,3.377,3.377" transform="translate(-739.865 -398.9)" fill="#fff"/>
        <rect id="Rectangle_5608" data-name="Rectangle 5608" width="205.865" height="121.408" transform="translate(234.592 163.624)" fill="#f7f1eb"/>
        <rect id="Rectangle_5609" data-name="Rectangle 5609" width="182.771" height="7.918" transform="translate(244.397 266.05)" fill="#e6d0be"/>
        <path id="Path_49129" data-name="Path 49129" d="M1561.717,744.685h-28.971a7.723,7.723,0,0,1,0-15.445h28.971a7.723,7.723,0,0,1,0,15.445m-28.971-14.943a7.221,7.221,0,0,0,0,14.441h28.971a7.221,7.221,0,0,0,0-14.441Z" transform="translate(-1142.084 -546.125)" fill="#efbc73"/>
        <path id="Path_49130" data-name="Path 49130" d="M1562.466,829.059h-28.972a7.472,7.472,0,0,1,0-14.943h28.972a7.472,7.472,0,0,1,0,14.943" transform="translate(-1142.832 -609.688)" fill="#d87355"/>
        <path id="Path_49131" data-name="Path 49131" d="M1646.1,860.853a.251.251,0,0,1-.251-.236l-1.4-23.544a.251.251,0,0,1,.42-.2l17.4,15.925a.251.251,0,0,1-.167.436l-9.661.076-6.149,7.452a.25.25,0,0,1-.193.091M1645,837.662l1.321,22.288,5.817-7.049a.252.252,0,0,1,.191-.091l9.14-.072Z" transform="translate(-1231.528 -626.682)" fill="#776e42"/>
        <rect id="Rectangle_5610" data-name="Rectangle 5610" width="235.524" height="14.845" transform="translate(7.29 12.445)" fill="#d3bba3"/>
        <path id="Path_49132" data-name="Path 49132" d="M176.172,216.347H28.283a.251.251,0,0,1-.251-.251V48.812a.251.251,0,0,1,.251-.251H263.808a.251.251,0,0,1,.251.251v72.841a.251.251,0,0,1-.5,0V49.063H28.534V215.845H176.172a.251.251,0,1,1,0,.5" transform="translate(-20.993 -36.367)" fill="#d3bba3"/>
        <path id="Path_49133" data-name="Path 49133" d="M60.746,66.991c2.752,3.614-1.333,7.7-4.947,4.947-2.753-3.614,1.333-7.7,4.947-4.947" transform="translate(-41.112 -49.493)" fill="#fff"/>
        <path id="Path_49134" data-name="Path 49134" d="M104.193,66.991c2.753,3.614-1.333,7.7-4.947,4.947-2.752-3.614,1.332-7.7,4.947-4.947" transform="translate(-73.649 -49.493)" fill="#fff"/>
        <path id="Path_49135" data-name="Path 49135" d="M147.638,66.991c2.752,3.614-1.333,7.7-4.947,4.946-2.753-3.614,1.333-7.7,4.947-4.946" transform="translate(-106.184 -49.492)" fill="#fff"/>
        <rect id="Rectangle_5611" data-name="Rectangle 5611" width="207.824" height="127.954" transform="translate(21.14 38.54)" fill="#f7f1eb"/>
        <path id="Path_49136" data-name="Path 49136" d="M230.633,271.35H130.875a.251.251,0,0,1-.251-.251V205.246a.251.251,0,0,1,.251-.251h99.758a.251.251,0,0,1,.251.251V271.1a.251.251,0,0,1-.251.251m-99.507-.5h99.256V205.5H131.126Z" transform="translate(-97.824 -153.52)" fill="#8b865c"/>
        <rect id="Rectangle_5612" data-name="Rectangle 5612" width="38.469" height="38.469" transform="translate(41.563 60.551)" fill="#fff"/>
        <path id="Path_49137" data-name="Path 49137" d="M182.808,322.819a.251.251,0,0,1-.178-.429l11.377-11.377a.251.251,0,0,1,.355,0l6.925,6.925a.251.251,0,1,1-.355.355l-6.747-6.747-11.2,11.2a.25.25,0,0,1-.178.074" transform="translate(-136.716 -232.862)" fill="#8b865c"/>
        <path id="Path_49138" data-name="Path 49138" d="M259.938,308.288a.25.25,0,0,1-.178-.074l-8.479-8.479L246.019,305a.251.251,0,1,1-.355-.355L251.1,299.2a.258.258,0,0,1,.355,0l8.656,8.656a.251.251,0,0,1-.177.429" transform="translate(-183.922 -224.019)" fill="#8b865c"/>
        <path id="Path_49139" data-name="Path 49139" d="M197.866,272.222a3.26,3.26,0,1,1-3.26-3.26,3.26,3.26,0,0,1,3.26,3.26" transform="translate(-143.298 -201.425)" fill="#8b865c"/>
        <path id="Path_49140" data-name="Path 49140" d="M377.7,242.5H343.8a.251.251,0,1,1,0-.5h33.9a.251.251,0,0,1,0,.5" transform="translate(-257.28 -181.23)" fill="#8b865c"/>
        <path id="Path_49141" data-name="Path 49141" d="M377.7,268.464H343.8a.251.251,0,0,1,0-.5h33.9a.251.251,0,0,1,0,.5" transform="translate(-257.28 -200.676)" fill="#8b865c"/>
        <path id="Path_49142" data-name="Path 49142" d="M377.7,294.43H343.8a.251.251,0,0,1,0-.5h33.9a.251.251,0,0,1,0,.5" transform="translate(-257.28 -220.122)" fill="#8b865c"/>
        <path id="Path_49143" data-name="Path 49143" d="M377.7,320.4H343.8a.251.251,0,1,1,0-.5h33.9a.251.251,0,0,1,0,.5" transform="translate(-257.28 -239.567)" fill="#8b865c"/>
        <rect id="Rectangle_5613" data-name="Rectangle 5613" width="82.154" height="7.824" transform="translate(67.608 104.539)" fill="#fff"/>
        <path id="Rectangle_5614" data-name="Rectangle 5614" d="M56.223,0h70.035A56.222,56.222,0,0,1,182.48,56.222V254.976A56.223,56.223,0,0,1,126.257,311.2H56.223A56.223,56.223,0,0,1,0,254.976V56.223A56.223,56.223,0,0,1,56.223,0Z" transform="translate(150.877 115.726)" fill="#40484c"/>
        <path id="Path_49144" data-name="Path 49144" d="M639.1,524.935a4.178,4.178,0,0,0-4.178,4.178V807.836H796.112a4.178,4.178,0,0,0,4.178-4.178V529.113a4.178,4.178,0,0,0-4.178-4.178Z" transform="translate(-475.488 -393.122)" fill="#fff"/>
        <path id="Path_49145" data-name="Path 49145" d="M927.488,493.758H891.2a.251.251,0,1,1,0-.5h36.291a.251.251,0,1,1,0,.5" transform="translate(-667.226 -369.398)" fill="#d3bba3"/>
        <rect id="Rectangle_5615" data-name="Rectangle 5615" width="63.127" height="63.127" transform="translate(238.237 259.767)" fill="#e6d0be"/>
        <path id="Path_49146" data-name="Path 49146" d="M980.673,1073.426a.25.25,0,0,1-.177-.074l-5.76-5.76a.251.251,0,0,1,0-.355l5.76-5.76a.251.251,0,0,1,.355.355l-5.583,5.583,5.583,5.583a.251.251,0,0,1-.178.429" transform="translate(-729.92 -794.881)" fill="#fff"/>
        <path id="Path_49147" data-name="Path 49147" d="M1035.428,1073.426a.251.251,0,0,1-.178-.429l5.583-5.583-5.583-5.583a.251.251,0,0,1,.355-.355l5.76,5.76a.251.251,0,0,1,0,.355l-5.76,5.76a.249.249,0,0,1-.177.074" transform="translate(-775.24 -794.881)" fill="#fff"/>
        <path id="Path_49148" data-name="Path 49148" d="M1006.824,1074.009a.251.251,0,0,1-.228-.356l4.972-10.851a.251.251,0,1,1,.456.209l-4.972,10.851a.251.251,0,0,1-.229.147" transform="translate(-753.819 -795.819)" fill="#fff"/>
        <rect id="Rectangle_5616" data-name="Rectangle 5616" width="24.39" height="14.962" transform="translate(273.08 265.096)" fill="#f2e6dc"/>
        <path id="Path_49149" data-name="Path 49149" d="M1006.378,1136.846H973.584a.251.251,0,0,1,0-.5h32.794a.251.251,0,0,1,0,.5" transform="translate(-728.925 -851.004)" fill="#fff"/>
        <path id="Path_49150" data-name="Path 49150" d="M1093.314,1161.9h-28.845a.251.251,0,0,1,0-.5h28.845a.251.251,0,1,1,0,.5" transform="translate(-796.989 -869.766)" fill="#fff"/>
        <path id="Path_49151" data-name="Path 49151" d="M990.115,1161.9H973.584a.251.251,0,0,1,0-.5h16.531a.251.251,0,0,1,0,.5" transform="translate(-728.925 -869.766)" fill="#fff"/>
        <path id="Path_49152" data-name="Path 49152" d="M1136.1,1186.954h-14.5a.251.251,0,0,1,0-.5h14.5a.251.251,0,0,1,0,.5" transform="translate(-839.778 -888.529)" fill="#fff"/>
        <path id="Path_49153" data-name="Path 49153" d="M1004.462,1186.954H973.584a.251.251,0,0,1,0-.5h30.878a.251.251,0,0,1,0,.5" transform="translate(-728.925 -888.529)" fill="#fff"/>
        <path id="Path_49154" data-name="Path 49154" d="M1015.814,1212.007h-42.23a.251.251,0,0,1,0-.5h42.23a.251.251,0,1,1,0,.5" transform="translate(-728.925 -907.291)" fill="#fff"/>
        <path id="Path_49155" data-name="Path 49155" d="M823.862,1396.266a13.833,13.833,0,0,1-13.792,13.792H716.426a13.792,13.792,0,0,1,0-27.584H810.07a13.832,13.832,0,0,1,13.792,13.792" transform="translate(-526.2 -1035.329)" fill="#f7f1eb"/>
        <path id="Path_49156" data-name="Path 49156" d="M832.679,1432.3H744.356a15.2,15.2,0,1,1,0-30.4h88.323a15.2,15.2,0,1,1,0,30.4m-88.323-29.894a14.7,14.7,0,1,0,0,29.391h88.323a14.7,14.7,0,1,0,0-29.391Z" transform="translate(-546.064 -1049.88)" fill="#e6d0be"/>
        <path id="Path_49157" data-name="Path 49157" d="M778.908,1444.866a5.435,5.435,0,1,1-5.435-5.435,5.435,5.435,0,0,1,5.435,5.435" transform="translate(-575.18 -1077.984)" fill="#d87355"/>
        <path id="Path_49158" data-name="Path 49158" d="M848.116,1444.866a5.435,5.435,0,1,1-5.435-5.435,5.435,5.435,0,0,1,5.435,5.435" transform="translate(-627.01 -1077.984)" fill="#d87355"/>
        <path id="Path_49159" data-name="Path 49159" d="M917.323,1444.866a5.435,5.435,0,1,1-5.435-5.435,5.435,5.435,0,0,1,5.435,5.435" transform="translate(-678.839 -1077.984)" fill="#d87355"/>
        <path id="Path_49160" data-name="Path 49160" d="M986.532,1444.866a5.435,5.435,0,1,1-5.435-5.435,5.435,5.435,0,0,1,5.435,5.435" transform="translate(-730.669 -1077.984)" fill="#d87355"/>
        <rect id="Rectangle_5617" data-name="Rectangle 5617" width="129.526" height="8.164" transform="translate(176.377 152.877)" fill="#f7f1eb"/>
        <path id="Path_49161" data-name="Path 49161" d="M831.182,700.32H701.656a.251.251,0,0,1-.251-.251v-92a.251.251,0,0,1,.251-.251H831.182a.251.251,0,0,1,.251.251v92a.251.251,0,0,1-.251.251m-129.275-.5H830.931v-91.5H701.907Z" transform="translate(-525.279 -455.194)" fill="#f7f1eb"/>
        <path id="Path_49162" data-name="Path 49162" d="M720.343,619.766a1.857,1.857,0,1,1-1.857-1.857,1.857,1.857,0,0,1,1.857,1.857" transform="translate(-536.681 -462.75)" fill="#fff"/>
        <path id="Path_49163" data-name="Path 49163" d="M744.236,619.766a1.857,1.857,0,1,1-1.857-1.857,1.857,1.857,0,0,1,1.857,1.857" transform="translate(-554.574 -462.75)" fill="#fff"/>
        <path id="Path_49164" data-name="Path 49164" d="M768.129,619.766a1.857,1.857,0,1,1-1.857-1.857,1.857,1.857,0,0,1,1.857,1.857" transform="translate(-572.467 -462.75)" fill="#fff"/>
        <path id="Path_49165" data-name="Path 49165" d="M918.733,755.654H859.311a.251.251,0,0,1-.251-.251v-7.58a.251.251,0,0,1,.251-.251h59.422a.251.251,0,0,1,.251.251v7.58a.251.251,0,0,1-.251.251m-59.171-.5h58.92v-7.078h-58.92Z" transform="translate(-643.347 -559.854)" fill="#d87355"/>
        <rect id="Rectangle_5618" data-name="Rectangle 5618" width="59.21" height="34.918" transform="translate(182.568 201.33)" fill="#f7f1eb"/>
        <path id="Path_49166" data-name="Path 49166" d="M828.136,835.943a8.487,8.487,0,1,1-8.487-8.487,8.487,8.487,0,0,1,8.487,8.487" transform="translate(-607.476 -619.679)" fill="#e6d0be"/>
        <path id="Path_49167" data-name="Path 49167" d="M841.042,847.495l-7.992-4.614v9.229Z" transform="translate(-623.868 -631.23)" fill="#fff"/>
        <rect id="Rectangle_5619" data-name="Rectangle 5619" width="52.568" height="2.277" transform="translate(185.389 230.789)" fill="#e6d0be"/>
        <rect id="Rectangle_5620" data-name="Rectangle 5620" width="59.422" height="17.444" transform="translate(181.968 165.551)" fill="#efbc73"/>
        <path id="Path_49168" data-name="Path 49168" d="M762.3,685.055l-.032,0a.251.251,0,0,1-.209-.18l-2.621-9.078a.251.251,0,1,1,.483-.139l2.461,8.524,3.139-5.232a.261.261,0,0,1,.431,0l3.139,5.232,2.461-8.524a.251.251,0,1,1,.483.139l-2.621,9.078a.251.251,0,0,1-.456.06l-3.221-5.367-3.221,5.367a.251.251,0,0,1-.215.122" transform="translate(-568.735 -505.861)" fill="#363e44"/>
        <path id="Path_49169" data-name="Path 49169" d="M828.278,685.056a.251.251,0,0,1-.215-.122l-3.221-5.367-3.221,5.367a.251.251,0,0,1-.456-.06l-2.621-9.078a.251.251,0,0,1,.483-.139l2.461,8.524,3.139-5.232a.261.261,0,0,1,.431,0l3.139,5.232,2.461-8.524a.251.251,0,1,1,.482.139l-2.62,9.078a.252.252,0,0,1-.209.18l-.032,0" transform="translate(-612.997 -505.861)" fill="#363e44"/>
        <path id="Path_49170" data-name="Path 49170" d="M887.38,685.056a.251.251,0,0,1-.215-.122l-3.221-5.367-3.22,5.367a.251.251,0,0,1-.456-.06l-2.621-9.078a.251.251,0,0,1,.483-.139l2.461,8.524,3.139-5.232a.261.261,0,0,1,.431,0l3.139,5.232,2.461-8.524a.251.251,0,1,1,.482.139l-2.62,9.078a.252.252,0,0,1-.209.18l-.032,0" transform="translate(-657.259 -505.861)" fill="#363e44"/>
        <path id="Path_49171" data-name="Path 49171" d="M557.57,1048.3c-1.944,0-4.024-1.777-4.973-4.431a7.521,7.521,0,0,1-.289-4.384,3.412,3.412,0,0,1,5.663-2.026,8.018,8.018,0,0,1,2.846,7.958,3.694,3.694,0,0,1-2.225,2.708,3.021,3.021,0,0,1-1.021.175m-2-11.2a2.556,2.556,0,0,0-.866.148,3.211,3.211,0,0,0-1.909,2.363,7.021,7.021,0,0,0,.277,4.087c1.026,2.868,3.428,4.641,5.352,3.953a3.21,3.21,0,0,0,1.909-2.363,7.52,7.52,0,0,0-2.655-7.423,3.64,3.64,0,0,0-2.109-.765" transform="translate(-413.468 -776.305)" fill="#363e44"/>
        <path id="Path_49172" data-name="Path 49172" d="M462.316,1007.97c-3.025-8.483-5.536-13.161-10.51-15.492-6.685-3.133-13.85.708-14.592,1.12-.474.263-7.433,3.6-8.592,11.278a21.342,21.342,0,0,0,7.827,20.1v16.943a9.848,9.848,0,0,0,9.849,9.849h1.232a9.848,9.848,0,0,0,9.849-9.849V1030.6c3.451-.289,6.18-1.289,7.275-3.036,1.96-3.13,1.226-9.6-2.336-19.59" transform="translate(-320.81 -742.349)" fill="#bc8271"/>
        <path id="Path_49173" data-name="Path 49173" d="M544.271,1052.977a.251.251,0,0,1-.123-.47l9.064-5.074a.251.251,0,1,1,.245.438l-9.064,5.074a.25.25,0,0,1-.122.032" transform="translate(-407.414 -784.394)" fill="#363e44"/>
        <path id="Path_49174" data-name="Path 49174" d="M543.411,1134.727a.251.251,0,0,1-.251-.244l-.11-4.13.251-.02.251-.007-.251.007.251.007.11,4.13a.251.251,0,0,1-.245.257h-.007" transform="translate(-406.688 -846.497)" fill="#363e44"/>
        <path id="Path_49175" data-name="Path 49175" d="M530.193,1077.334a.25.25,0,0,1-.185-.082c-.473-.516-.889-.988-1.33-1.488-.357-.4-.725-.822-1.142-1.283a.251.251,0,1,1,.373-.337c.418.463.787.881,1.145,1.287.439.5.854.968,1.324,1.481a.251.251,0,0,1-.185.421" transform="translate(-395.021 -804.361)" fill="#363e44"/>
        <path id="Path_49176" data-name="Path 49176" d="M441.535,973.952a10.738,10.738,0,0,1,3.392,3.687c3.939,7.263-2.806,16.659-3.244,17.254a15.56,15.56,0,0,0,1.917-7.521,11.993,11.993,0,0,0-2.065-6.849,14.248,14.248,0,0,1-2.359,8.618,24.237,24.237,0,0,1-13.747,10.411c-4.143,1.271-11.4,1.535-14.124-2.454-4.08-5.967.187-15.446,6.046-20.492,6.87-5.917,17.847-7.15,24.185-2.654" transform="translate(-306.817 -727.357)" fill="#363e44"/>
        <path id="Path_49177" data-name="Path 49177" d="M386.993,995.611a6.117,6.117,0,1,1-6.117-6.117,6.117,6.117,0,0,1,6.117,6.117" transform="translate(-280.655 -741.028)" fill="#363e44"/>
        <path id="Path_49178" data-name="Path 49178" d="M379.627,1014.878a4.574,4.574,0,0,1-4.223-2.191,4.247,4.247,0,0,1,.091-3.89,7.552,7.552,0,0,1,3.319-3.3c3.107-1.637,6.632-1.074,7.859,1.254a4.248,4.248,0,0,1-.091,3.89,7.553,7.553,0,0,1-3.319,3.3,7.873,7.873,0,0,1-3.636.937m2.834-9.822a7.4,7.4,0,0,0-3.413.884,7.051,7.051,0,0,0-3.1,3.075,3.759,3.759,0,0,0-.1,3.438c1.1,2.083,4.319,2.552,7.181,1.044a7.05,7.05,0,0,0,3.1-3.075,3.76,3.76,0,0,0,.1-3.438,4.071,4.071,0,0,0-3.767-1.928" transform="translate(-280.818 -752.31)" fill="#363e44"/>
        <path id="Path_49179" data-name="Path 49179" d="M513.643,1068.006a.247.247,0,0,1-.131-.037,6.113,6.113,0,0,1-2.98-6.689,5.038,5.038,0,0,1,4.3-3.786,4.868,4.868,0,0,1,4.439,2.668.251.251,0,1,1-.443.237,4.368,4.368,0,0,0-3.97-2.4,4.531,4.531,0,0,0-3.842,3.422,5.613,5.613,0,0,0,2.76,6.125.251.251,0,0,1-.132.465" transform="translate(-382.192 -791.949)" fill="#363e44"/>
        <path id="Path_49180" data-name="Path 49180" d="M372.117,1508.519q6.058,15.415,11.848,32.121,7.775,22.53,13.671,43.561H340.218l-7.291-11.88c-1.215,4.694-1.731,7.023-2.946,11.717H276.14a282.291,282.291,0,0,1,7.915-50.108,307.024,307.024,0,0,1,8.886-30.031l79.176,4.62" transform="translate(-206.8 -1126.264)" fill="#363e44"/>
        <path id="Path_49181" data-name="Path 49181" d="M536.022,1631.4l30.061-2.637,1.292,14.734a15.088,15.088,0,0,1-30.061,2.637Z" transform="translate(-401.425 -1219.776)" fill="#40484c"/>
        <path id="Path_49182" data-name="Path 49182" d="M747.144,1229.963c3.305.7,6.137-1.317,9.163-.6,32.174,7.656,48.353,16.569,44.448,29.642-2.478,8.3-25.55,12.385-56.23,7.566.678-12.4,1.467-21.623,2.62-36.61" transform="translate(-557.571 -920.549)" fill="#bc8271"/>
        <path id="Path_49183" data-name="Path 49183" d="M72.465,1265.459c-39.394,28.319-57.449,47.955-46.571,59.843,6.31,6.9,34.564-.63,66.714-21.564-6.058-11.9-12.45-24.069-20.142-38.279" transform="translate(-17.056 -947.697)" fill="#bc8271"/>
        <path id="Path_49184" data-name="Path 49184" d="M176.465,1206.722s38.281-19.767,74.912-21.087c31.221-1.125,79.514,11.037,79.514,11.037l.458,48.915-18.921,2.2,3.96,36.081-112.643,5.72-2.2-31.672-12.21,2.631Z" transform="translate(-132.154 -887.862)" fill="#8b865c"/>
        <path id="Path_49185" data-name="Path 49185" d="M826.321,1017.68c-.593-9.652-.99-31.681-.33-48.511.693-17.676,4.29-43.671,7.92-43.121,2.068.313,2.31,3.96,2.31,13.75a4.315,4.315,0,0,1,4.07-1.045,4.143,4.143,0,0,1,2.915,3.575c.154-.182,1.87-2.09,3.824-1.8a4.564,4.564,0,0,1,3.887,3.491,4.731,4.731,0,0,1,3.894-1.577,4.248,4.248,0,0,1,3.575,4.125c-.2,3.733-1.014,14.817-.752,20.259.516,10.709,7.452,48.493,4.107,64.169-11.844-7.224-23.577-6.087-35.421-13.311" transform="translate(-618.325 -693.507)" fill="#bc8271"/>
        <path id="Path_49186" data-name="Path 49186" d="M847.121,1247.241a.249.249,0,0,1-.11-.026,126.141,126.141,0,0,0-22.265-7.887.251.251,0,0,1,.131-.485,126.659,126.659,0,0,1,22.355,7.922.251.251,0,0,1-.111.477" transform="translate(-617.51 -927.758)" fill="#363e44"/>
        <path id="Path_49187" data-name="Path 49187" d="M844.946,1000.668a.274.274,0,0,1-.05-.005l-2.9-.592a.251.251,0,0,1,.1-.492l2.9.592a.251.251,0,0,1-.05.5" transform="translate(-630.415 -748.577)" fill="#363e44"/>
        <path id="Path_49188" data-name="Path 49188" d="M874.282,1006.6a.265.265,0,0,1-.051-.005l-2.9-.592a.251.251,0,0,1,.1-.492l2.9.592a.251.251,0,0,1-.05.5" transform="translate(-652.385 -753.022)" fill="#363e44"/>
        <path id="Path_49189" data-name="Path 49189" d="M904.221,1012.319a.275.275,0,0,1-.051-.005l-2.9-.592a.251.251,0,0,1,.1-.492l2.9.592a.251.251,0,0,1-.05.5" transform="translate(-674.806 -757.302)" fill="#363e44"/>
        <path id="Path_49190" data-name="Path 49190" d="M931.265,1018.061a.264.264,0,0,1-.05-.005l-2.9-.592a.251.251,0,0,1,.1-.492l2.9.592a.251.251,0,0,1-.05.5" transform="translate(-695.059 -761.603)" fill="#363e44"/>
        <path id="Path_49191" data-name="Path 49191" d="M161.295,1518.735l-42.188,23.388-1.442-2.6-19.516-.34L88.1,1555.914l2.356,4.249,17.069-9.463,4.752,8.572L95.2,1568.735l2.356,4.25,19.516.339,10.052-16.731-1.442-2.6,42.188-23.388,1.442,2.6,19.516.339,10.052-16.731-2.356-4.25-17.069,9.463-4.752-8.572,17.069-9.462-2.356-4.25L169.9,1499.4l-10.052,16.731Z" transform="translate(-65.975 -1122.897)" fill="#d87355"/>
        <path id="Path_49192" data-name="Path 49192" d="M55.911,1376h0c28.224,21.651,48.664,36.471,54.795,41.295a14.367,14.367,0,0,1,2.89,2.9c4.115,5.593.4,11.011,2.914,18.633,1.876,5.69,5.461,7.646,4.482,10.68a3.617,3.617,0,0,1-6.14.844h0c1.385,1.417,3.012,3,1.276,4.7-2.109,1.852-4.983.573-6.419-1.212,1.294,1.607.591,3.564-.878,3.875-2.147.456-4.834-1.439-5.862-2.5h0c.689,1.4.493,3.163-.723,3.527-2.22.664-4.3-.919-7.1-5.093a29.037,29.037,0,0,1-4.422-12.441v0c-21.34-13.115-35.365-21.907-52.815-32.148-3.57-2.1,8.379-23.945,18-33.052" transform="translate(-27.904 -1030.477)" fill="#bc8271"/>
        <path id="Path_49193" data-name="Path 49193" d="M148.081,1405.2a.249.249,0,0,1-.151-.05c-8.543-6.4-16.475-12.4-24.249-18.348a.251.251,0,1,1,.3-.4c7.773,5.943,15.7,11.944,24.245,18.345a.251.251,0,0,1-.151.452" transform="translate(-92.551 -1038.237)" fill="#363e44"/>
        <path id="Path_49194" data-name="Path 49194" d="M335.2,1652.369a.25.25,0,0,1-.184-.081,13.942,13.942,0,0,1-3.361-6.385.251.251,0,1,1,.49-.111,13.442,13.442,0,0,0,3.239,6.155.251.251,0,0,1-.184.422" transform="translate(-248.368 -1232.38)" fill="#363e44"/>
        <path id="Path_49195" data-name="Path 49195" d="M312.5,1664.849a.25.25,0,0,1-.165-.062,15.952,15.952,0,0,1-4.624-6.915.251.251,0,1,1,.476-.161,15.453,15.453,0,0,0,4.479,6.7.251.251,0,0,1-.165.44" transform="translate(-230.434 -1241.325)" fill="#363e44"/>
        <path id="Path_49196" data-name="Path 49196" d="M286.839,1666.851a.25.25,0,0,1-.19-.086,17.084,17.084,0,0,1-3.875-7.981.251.251,0,1,1,.493-.095,16.581,16.581,0,0,0,3.762,7.747.251.251,0,0,1-.19.416" transform="translate(-211.765 -1242.033)" fill="#363e44"/>
        <path id="Path_49197" data-name="Path 49197" d="M799.123,280c-.9,1.834-33.11,7.2-52.645,10.3a21.143,21.143,0,0,1-21.824-10.668,16.733,16.733,0,0,1,5.663-22.2l43.048-27.409Z" transform="translate(-541.129 -172.264)" fill="#efbc73"/>
        <path id="Path_49198" data-name="Path 49198" d="M1049.577,238.539a19.524,19.524,0,0,0,21.264-21.744c-1.586-13.28-10.863-35.146-29.858-59.246a45.075,45.075,0,0,0-48.51-15.214l-67.615,20.557,22.459,58.041h81.138Z" transform="translate(-692.623 -105.132)" fill="#efbc73"/>
        <path id="Path_49199" data-name="Path 49199" d="M1287.271,319.819a.252.252,0,0,1-.233-.158l-7.039-17.6a.251.251,0,0,1,.466-.187l7.039,17.6a.252.252,0,0,1-.233.345" transform="translate(-958.573 -225.958)" fill="#363e44"/>
        <path id="Path_49200" data-name="Path 49200" d="M1308.265,366.6a.251.251,0,0,1-.229-.353c4.175-9.426,12.311-12.2,18.4-12.862a37.067,37.067,0,0,1,12.3.82.251.251,0,0,1-.133.484,36.52,36.52,0,0,0-12.128-.8c-8.659.95-14.708,5.177-17.981,12.564a.251.251,0,0,1-.23.149" transform="translate(-979.567 -264.505)" fill="#363e44"/>
        <path id="Path_49201" data-name="Path 49201" d="M954.46,350.91a.251.251,0,0,1-.233-.157l-8.443-20.979-9.206-7.945a.251.251,0,0,1,.328-.38l9.252,7.985a.253.253,0,0,1,.069.1l8.466,21.035a.251.251,0,0,1-.139.327.247.247,0,0,1-.094.018" transform="translate(-701.335 -240.686)" fill="#363e44"/>
        <path id="Path_49202" data-name="Path 49202" d="M703.441,130.75s-11.788-25.714-18.733-40.142C677.415,75.455,664.441,54.145,661.483,56c-1.685,1.056-.516,4.328,3.189,12.866a4.437,4.437,0,0,0-4.079.714,3.647,3.647,0,0,0-1.055,4.135c-.2-.1-2.578-1.114-4.175-.125a4.222,4.222,0,0,0-1.912,4.514c-.512-.232-2.845-.857-4.33.169-1.93,1.334-1.742,3.925-.876,5.659,1.589,3.18,6.146,11.76,7.977,16.605,3.6,9.535,9.159,49.986,23.572,54.931,10.861,3.727,26.176-8.939,23.646-24.717" transform="translate(-484.999 -41.852)" fill="#84524d"/>
        <path id="Path_49203" data-name="Path 49203" d="M666.238,126.307a4.808,4.808,0,0,1-3.692-2.154.251.251,0,1,1,.4-.308c1.749,2.253,3.607,2.252,4.665,1.567s1.1-2.4.6-3.658a.306.306,0,0,1,.524-.3c1.307,1.631,3.186,2.059,4.678,1.064,1.117-.745,1.491-3.029.755-4.612a.289.289,0,0,1,.483-.309c1.4,1.639,3.879,2.127,4.928,1.377a2.46,2.46,0,0,0,1.046-1.691c.449-2.818-2.824-7.266-4.583-9.656l-.361-.492a.251.251,0,1,1,.406-.3l.36.49c1.8,2.449,5.156,7.007,4.674,10.033a2.976,2.976,0,0,1-1.25,2.02c-1.071.765-3.325.514-4.947-.818.4,1.691-.089,3.608-1.232,4.371a3.805,3.805,0,0,1-4.775-.554,3.266,3.266,0,0,1-1.034,3.456,3.006,3.006,0,0,1-1.642.474m8.028-8.389h0" transform="translate(-496.139 -79.931)" fill="#363e44"/>
        <path id="Path_49204" data-name="Path 49204" d="M712.845,132.247c1.336-1.873,9.429,1.754,10.932,2.439l-3.129,8.913c-.687-.665-9.372-9.151-7.8-11.351" transform="translate(-533.705 -98.641)" fill="#84524d"/>
        <path id="Path_49205" data-name="Path 49205" d="M719.932,143.115a.249.249,0,0,1-.174-.071c-1.6-1.546-9.476-9.373-7.832-11.678,1.3-1.816,7.6.7,11.24,2.356a.251.251,0,0,1-.208.457c-5.695-2.595-9.865-3.585-10.623-2.521-1.168,1.637,4.574,7.928,7.772,11.025a.251.251,0,0,1-.175.431" transform="translate(-532.99 -97.907)" fill="#363e44"/>
        <path id="Path_49206" data-name="Path 49206" d="M646.407,379.382a58.506,58.506,0,1,1-71.937,40.877,58.506,58.506,0,0,1,71.937-40.877" transform="translate(-428.635 -282.534)" fill="#fff"/>
        <path id="Path_49207" data-name="Path 49207" d="M630.562,494.039a58.917,58.917,0,0,1-15.655-2.129,58.286,58.286,0,1,1,15.655,2.129m-.075-117.045a58.425,58.425,0,1,0,15.48,2.1,58.483,58.483,0,0,0-15.48-2.1" transform="translate(-428.228 -282.127)" fill="#363e44"/>
        <path id="Path_49208" data-name="Path 49208" d="M1192.265,706.6a.256.256,0,0,1-.064-.008l-12.58-3.3a.251.251,0,1,1,.127-.486l12.58,3.3a.251.251,0,0,1-.063.494" transform="translate(-883.273 -526.328)" fill="#363e44"/>
        <path id="Path_49209" data-name="Path 49209" d="M1187.645,723.979a.256.256,0,0,1-.064-.008l-12.58-3.3a.251.251,0,1,1,.127-.486l12.581,3.3a.251.251,0,0,1-.064.494" transform="translate(-879.813 -539.339)" fill="#363e44"/>
        <path id="Path_49210" data-name="Path 49210" d="M1201.807,709.713a6.088,6.088,0,0,1-1.607-.217l-37.975-10.385a2.789,2.789,0,0,1-1.952-3.422l2.1-7.673a2.79,2.79,0,0,1,3.422-1.952l37.975,10.385a6.1,6.1,0,0,1,4.274,7.491l-.351,1.282a6.109,6.109,0,0,1-5.884,4.49m-36.749-23.245a2.287,2.287,0,0,0-2.2,1.681l-2.1,7.673a2.286,2.286,0,0,0,1.6,2.8l37.976,10.385a5.6,5.6,0,0,0,6.874-3.922l.351-1.282a5.6,5.6,0,0,0-3.922-6.874l-37.976-10.385a2.289,2.289,0,0,0-.6-.081m42.741,17.407h0Z" transform="translate(-868.849 -513.717)" fill="#363e44"/>
        <path id="Path_49211" data-name="Path 49211" d="M1091.407,683.162a.256.256,0,0,1-.066-.009l-23.4-6.365a.251.251,0,0,1-.176-.309l1.949-7.128a.252.252,0,0,1,.308-.176l23.4,6.364a.252.252,0,0,1,.177.309l-1.949,7.129a.252.252,0,0,1-.242.185m-23.091-6.792,22.915,6.233,1.817-6.644-22.915-6.232Z" transform="translate(-799.639 -501.136)" fill="#363e44"/>
        <path id="Path_49212" data-name="Path 49212" d="M610.069,480.411a65.84,65.84,0,0,1-17.49-2.379,65.115,65.115,0,1,1,17.49,2.379m-.2-130.562a65.017,65.017,0,0,0-17.152,127.7,65.351,65.351,0,0,0,17.355,2.361,65.017,65.017,0,0,0,17.152-127.7,65.338,65.338,0,0,0-17.355-2.361" transform="translate(-407.725 -261.624)" fill="#363e44"/>
        <path id="Path_49213" data-name="Path 49213" d="M642.686,513.441l10.568-28.435,9.3,3.455q4.629,1.72,6.251,4.5a7.361,7.361,0,0,1,.229,6.531,6.163,6.163,0,0,1-2.443,3.1,7.831,7.831,0,0,1-3.967,1.226,7.033,7.033,0,0,1,2.731,3.8,7.506,7.506,0,0,1-.262,4.8,8.114,8.114,0,0,1-4.716,5.093q-3.293,1.266-7.824-.418Zm8.693-11.906-3.8,10.233,6.191,2.3a6.358,6.358,0,0,0,4.635.178,5.084,5.084,0,0,0,2.9-3.177q1.909-5.136-3.676-7.212Zm1.118-3.008,5.663,2.1a6.332,6.332,0,0,0,4.393.23,4.41,4.41,0,0,0,2.718-2.8,4.337,4.337,0,0,0-.1-3.923,7.164,7.164,0,0,0-3.764-2.613l-5.546-2.061Z" transform="translate(-481.305 -363.219)" fill="#d87355"/>
        <path id="Path_49214" data-name="Path 49214" d="M778.563,528.671l-7.186,19.334a9.675,9.675,0,0,1-4.975,5.642,10.872,10.872,0,0,1-7.873.342l-1.01-.331a11.352,11.352,0,0,1-6.5-5.284,9.611,9.611,0,0,1-.236-7.978l7.2-19.373,3.711,1.379-7.156,19.256a6.327,6.327,0,0,0,4.125,8.935,7.014,7.014,0,0,0,5.5.112,6.925,6.925,0,0,0,3.468-4.157l7.164-19.276Z" transform="translate(-561.697 -390.191)" fill="#d87355"/>
        <path id="Path_49215" data-name="Path 49215" d="M875.593,600.5a9.24,9.24,0,0,1-5.183,1.6A17.374,17.374,0,0,1,864,600.88a12.459,12.459,0,0,1-5.565-3.924,11.588,11.588,0,0,1-2.446-6.188,17.089,17.089,0,0,1,1.078-7.535l.922-2.48q2.388-6.425,6.7-8.846t9.741-.4a11.512,11.512,0,0,1,6.322,4.939,10.574,10.574,0,0,1,.921,7.688l-3.75-1.394q1.05-6.055-4.613-8.16a7.082,7.082,0,0,0-6.7.526q-2.928,1.926-4.814,6.942l-.864,2.326a12.931,12.931,0,0,0-.642,8.426,7.564,7.564,0,0,0,4.868,5.024,13.942,13.942,0,0,0,3.865.9,6.09,6.09,0,0,0,3.2-.606l2.368-6.372-6.581-2.446,1.139-3.066,10.312,3.832Z" transform="translate(-640.996 -427.311)" fill="#d87355"/>
        <path id="Path_49216" data-name="Path 49216" d="M1081.152,439.692c12.829-17.294,37.871-49.289,37.871-49.289s7.206-10.505,18.331-11.559a36.572,36.572,0,0,1,15.866,2.092,21.406,21.406,0,0,1,9.893,32.585c-13.436,18.775-40.925,43.865-48.4,52.761-4.5,5.357-12.16,17.3-14.821,21.264-1.45,2.162-4.773,2.6-7.186,1.479-2.345-1.093-3.03-3.837-3.135-4.588a6.452,6.452,0,0,1-7.044.594c-2.405-1.2-2.848-4.463-2.88-4.766a5.671,5.671,0,0,1-6.022,1.422,5.869,5.869,0,0,1-3.742-4.179c-2.838,4.379-2.615,15.259-7.841,13.8-4.816-1.346-3.119-21.649,19.109-51.614" transform="translate(-793.708 -283.601)" fill="#84524d"/>
        <path id="Path_49217" data-name="Path 49217" d="M1209.195,783.368a.246.246,0,0,1-.1-.023l-3.914-1.8a.251.251,0,1,1,.209-.457l3.914,1.8a.251.251,0,0,1-.105.479" transform="translate(-902.442 -584.938)" fill="#363e44"/>
        <path id="Path_49218" data-name="Path 49218" d="M1170.2,765.149a.245.245,0,0,1-.1-.02l-.006,0-4.48-1.9a.251.251,0,1,1,.2-.462l4.48,1.9a.254.254,0,0,1,.136.331.25.25,0,0,1-.23.154" transform="translate(-872.815 -571.216)" fill="#363e44"/>
        <path id="Path_49219" data-name="Path 49219" d="M1130.914,748.924a.25.25,0,0,1-.1-.023c-.731-.337-1.393-.636-2.056-.935s-1.319-.6-2.048-.932a.251.251,0,0,1,.21-.456c.728.335,1.386.633,2.045.93s1.327.6,2.059.937a.251.251,0,0,1-.105.479" transform="translate(-843.676 -559.092)" fill="#363e44"/>
        <path id="Path_49220" data-name="Path 49220" d="M1100.015,732.013a.25.25,0,0,1-.12-.031l-3.745-2.045a.251.251,0,1,1,.241-.441l3.746,2.045a.251.251,0,0,1-.121.472" transform="translate(-820.804 -546.294)" fill="#363e44"/>
        <path id="Path_49221" data-name="Path 49221" d="M1026.877,97.189l16.108-5.684L1025.731,64.25c-1.486-2.691-6.1,1.279-8.786,2.766a5.566,5.566,0,0,0-2.18,7.563Z" transform="translate(-759.433 -47.433)" fill="#84524d"/>
        <path id="Path_49222" data-name="Path 49222" d="M1056.014,177.268l16.008-13.094L1055.469,163l-8.267,9.268Z" transform="translate(-784.245 -122.066)" fill="#84524d"/>
        <path id="Path_49223" data-name="Path 49223" d="M981.753,65.736c3.4,2.984,14-4.267,14-4.267l7.7-10.525A11.515,11.515,0,1,0,980.54,48.57s-2.246,14.127,1.213,17.166" transform="translate(-733.786 -28.639)" fill="#84524d"/>
        <path id="Path_49224" data-name="Path 49224" d="M976.287,91.914s-3.561,3.033-3.483,3.939c.094,1.082,3.606,2.1,3.606,2.1s-.209-6.04-.123-6.039" transform="translate(-728.528 -68.834)" fill="#84524d"/>
        <path id="Path_49225" data-name="Path 49225" d="M1014.557,83.347a8.738,8.738,0,0,0-3.783-.567c-.43.039.694,3.41,1.085,3.177a8.758,8.758,0,0,0,2.7-2.61" transform="translate(-756.892 -61.973)" fill="#fff"/>
      </g>
    </g>
    <g id="Group_38410" data-name="Group 38410" transform="translate(248.587 20.779)">
      <g id="Group_38409" data-name="Group 38409" clip-path="url(#clip-path-2)">
        <path id="Path_49226" data-name="Path 49226" d="M993.861,80.166a3.44,3.44,0,1,0,.44,4.845,3.44,3.44,0,0,0-.44-4.845" transform="translate(-988.66 -80.218)" fill="#363e44"/>
      </g>
    </g>
    <g id="Group_38412" data-name="Group 38412">
      <g id="Group_38411" data-name="Group 38411" clip-path="url(#clip-path)">
        <path id="Path_49228" data-name="Path 49228" d="M1015.865,29.379s4.208,12.671-4.307,16.615l-2.1-1.948L1004.276,46l2.3-6.029a3.837,3.837,0,0,0-3.461-4.821l-10.547-.678.694-5.616c7.371-3.725,14.883-4.1,22.606.525" transform="translate(-743.328 -19.459)" fill="#363e44"/>
        <path id="Path_49229" data-name="Path 49229" d="M1034.742,14.913a2.2,2.2,0,0,0,2.761-1.418c.371-1.154-.07-2.995-1.224-3.366s-2.585.868-2.956,2.022a2.2,2.2,0,0,0,1.418,2.761" transform="translate(-773.773 -7.536)" fill="#363e44"/>
        <path id="Path_49230" data-name="Path 49230" d="M1024.713,16.538a2.195,2.195,0,0,0,1.724-2.581c-.237-1.189-1.516-2.583-2.705-2.347s-1.837,2.015-1.6,3.2a2.195,2.195,0,0,0,2.581,1.724" transform="translate(-765.434 -8.675)" fill="#363e44"/>
        <path id="Path_49231" data-name="Path 49231" d="M1005.889,16.3a2.975,2.975,0,0,0,1.691-3.853c-.6-1.531-2.634-3.089-4.165-2.492s-1.976,3.123-1.379,4.654a2.975,2.975,0,0,0,3.853,1.691" transform="translate(-750.23 -7.357)" fill="#363e44"/>
        <path id="Path_49232" data-name="Path 49232" d="M1048.659,17.1a2.195,2.195,0,0,0,2.806-1.328c.408-1.142.027-3-1.115-3.4s-2.611.784-3.019,1.926a2.2,2.2,0,0,0,1.329,2.806" transform="translate(-784.245 -9.202)" fill="#363e44"/>
        <path id="Path_49233" data-name="Path 49233" d="M990.62,24.921a2.648,2.648,0,0,0-1.048-3.6c-1.282-.7-3.563-.6-4.266.68s.437,3.26,1.719,3.963a2.648,2.648,0,0,0,3.6-1.048" transform="translate(-737.73 -15.646)" fill="#363e44"/>
        <path id="Path_49234" data-name="Path 49234" d="M1059.669,18.66a2.735,2.735,0,0,0,3.74-.984c.761-1.3.718-3.662-.586-4.423s-3.378.362-4.139,1.667a2.735,2.735,0,0,0,.984,3.74" transform="translate(-792.565 -9.74)" fill="#363e44"/>
        <path id="Path_49235" data-name="Path 49235" d="M1073.352,27.726a2.134,2.134,0,0,0,2.958.605c.984-.65,1.77-2.314,1.12-3.3s-2.489-.915-3.473-.265a2.134,2.134,0,0,0-.6,2.958" transform="translate(-803.565 -18.188)" fill="#363e44"/>
        <path id="Path_49236" data-name="Path 49236" d="M981.639,38.419a3.228,3.228,0,0,0-2.589-3.761c-1.754-.324-4.355.666-4.678,2.419s1.753,3.607,3.506,3.93a3.228,3.228,0,0,0,3.761-2.589" transform="translate(-729.678 -25.91)" fill="#363e44"/>
        <path id="Path_49237" data-name="Path 49237" d="M1059.566,81.566a3.972,3.972,0,1,1-4.965-2.626,3.972,3.972,0,0,1,4.965,2.626" transform="translate(-787.687 -58.985)" fill="#84524d"/>
        <path id="Path_49238" data-name="Path 49238" d="M979.839,96.941l.235,9.666a2.364,2.364,0,0,0,2.524,2.3c.338-.023.7-.051,1.091-.087a19.5,19.5,0,0,0,15.659-10.686,5.447,5.447,0,0,0-.858-6.12l-.5-.549-1.969.859s-1.881,5.085-3.874,5.3-5.48-1.689-12.3-.682" transform="translate(-733.797 -68.499)" fill="#363e44"/>
        <path id="Path_49239" data-name="Path 49239" d="M994.528,119.669a1.878,1.878,0,0,1-1.173-.411.251.251,0,0,1,.314-.392,1.362,1.362,0,0,0,2.217-1.086.251.251,0,0,1,.248-.255h0a.251.251,0,0,1,.251.247,1.882,1.882,0,0,1-1.016,1.694,1.854,1.854,0,0,1-.845.2" transform="translate(-743.849 -88.014)" fill="#84524d"/>
        <path id="Path_49240" data-name="Path 49240" d="M1045.006,54.592a.251.251,0,0,1-.139-.46l4.852-3.227a.251.251,0,1,1,.278.418l-4.851,3.227a.25.25,0,0,1-.139.042" transform="translate(-782.413 -38.09)" fill="#84524d"/>
        <path id="Path_49241" data-name="Path 49241" d="M1596.813,1352.8c-5.372,25.67-7.383,46.75-4.493,47.084s9.588-20.2,14.96-45.873a213.32,213.32,0,0,0,4.493-47.084,228.205,228.205,0,0,0-14.96,45.873" transform="translate(-1191.494 -978.752)" fill="#8b865c"/>
        <path id="Path_49242" data-name="Path 49242" d="M1568.09,1354.363c-4.5,25.763-4.941,46.956-.994,47.337s10.792-20.2,15.289-45.958a158.319,158.319,0,0,0,.994-47.337,170.835,170.835,0,0,0-15.288,45.958" transform="translate(-1171.576 -979.859)" fill="#776e42"/>
        <path id="Path_49243" data-name="Path 49243" d="M1407.044,1402.407c4.811,25.731,11.06,46.347,13.957,46.048s1.346-21.4-3.464-47.132a226.2,226.2,0,0,0-13.957-46.048,212.872,212.872,0,0,0,3.465,47.132" transform="translate(-1051.005 -1014.96)" fill="#8b865c"/>
        <path id="Path_49244" data-name="Path 49244" d="M1440.926,1377.985c2.9,24.021,7.368,43.352,9.984,43.177s2.386-19.788-.512-43.809a211.751,211.751,0,0,0-9.984-43.177,203.709,203.709,0,0,0,.512,43.809" transform="translate(-1078.029 -999.159)" fill="#776e42"/>
        <path id="Path_49245" data-name="Path 49245" d="M1471.72,1372.774c-.562,28.519,1.353,51.663,4.278,51.7s5.752-23.061,6.315-51.58a256.889,256.889,0,0,0-4.278-51.695,258.449,258.449,0,0,0-6.315,51.579" transform="translate(-1102.092 -989.438)" fill="#8b865c"/>
        <path id="Path_49246" data-name="Path 49246" d="M1524.3,1497.206c4.551,25.757,10.592,46.408,13.492,46.125s1.562-21.393-2.989-47.15a225.345,225.345,0,0,0-13.492-46.125,212.728,212.728,0,0,0,2.989,47.15" transform="translate(-1139.111 -1085.941)" fill="#8b865c"/>
        <path id="Path_49247" data-name="Path 49247" d="M1499.151,1400.718c-1.292,22.224,1.177,40.354,5.513,40.493s8.9-17.764,10.192-39.988a110.312,110.312,0,0,0-5.513-40.493,113.931,113.931,0,0,0-10.192,39.988" transform="translate(-1122.451 -1019.045)" fill="#776e42"/>
        <path id="Path_49248" data-name="Path 49248" d="M1538.159,1404.584c-4.271,25.784-5.38,46.9-2.476,47.167s8.719-20.42,12.99-46.2a212.607,212.607,0,0,0,2.476-47.167,224.434,224.434,0,0,0-12.99,46.2" transform="translate(-1148.855 -1017.285)" fill="#8b865c"/>
        <path id="Path_49249" data-name="Path 49249" d="M1429.544,1686.957h39.66l7.831-45.944h-55.321Z" transform="translate(-1064.716 -1228.948)" fill="#efbc73"/>
      </g>
    </g>
  </g>
</svg>
