<svg id="Group_39305" data-name="Group 39305" xmlns="http://www.w3.org/2000/svg" xmlns:xlink="http://www.w3.org/1999/xlink" width="466.5" height="454.114" viewBox="0 0 466.5 454.114">
  <defs>
    <clipPath id="clip-path">
      <rect id="Rectangle_6413" data-name="Rectangle 6413" width="466.5" height="454.114" fill="none"/>
    </clipPath>
    <clipPath id="clip-path-2">
      <path id="Path_69215" data-name="Path 69215" d="M110.494,89.113C35.708,180.031,23.676,334.456,101.8,408.335c40.68,38.469,92.779,42.782,118.673,44.925C315.308,461.108,436.348,415.073,482.2,307.9c28.654-66.976,25.287-150.587-13.012-210.48A209.373,209.373,0,0,0,426.6,49.1C420.111,43.743,366.727.779,290.67.011,289.979,0,289.292,0,288.6,0,185.906,0,120.06,77.483,110.494,89.113" transform="translate(-48.543)" fill="none"/>
    </clipPath>
    <linearGradient id="linear-gradient" x1="0.162" y1="0.834" x2="0.162" y2="0.834" gradientUnits="objectBoundingBox">
      <stop offset="0" stop-color="#dae3fe"/>
      <stop offset="1" stop-color="#e9effd"/>
    </linearGradient>
    <clipPath id="clip-path-4">
      <rect id="Rectangle_6378" data-name="Rectangle 6378" width="68.585" height="255.711" fill="none"/>
    </clipPath>
    <clipPath id="clip-path-5">
      <rect id="Rectangle_6379" data-name="Rectangle 6379" width="34.183" height="151.683" fill="none"/>
    </clipPath>
    <clipPath id="clip-path-6">
      <path id="Path_69238" data-name="Path 69238" d="M214.171,888.864a18.109,18.109,0,0,0-5.321,13.254l5.342,225.928a7.211,7.211,0,0,0,7.194,7.187h388.99a7.211,7.211,0,0,0,7.193-7.187L620.805,904.5c0-3.952-4.657-11.669-13.191-11.089L227.45,883.578c-.157,0-.314-.006-.47-.006a18.143,18.143,0,0,0-12.809,5.292" transform="translate(-208.845 -883.572)" fill="none"/>
    </clipPath>
    <linearGradient id="linear-gradient-2" x1="-0.01" y1="1.001" x2="-0.009" y2="1.001" gradientUnits="objectBoundingBox">
      <stop offset="0" stop-color="#09005d"/>
      <stop offset="1" stop-color="#1a0f91"/>
    </linearGradient>
    <clipPath id="clip-path-7">
      <path id="Path_69239" data-name="Path 69239" d="M255.913,939.849a12.727,12.727,0,0,0-3.741,9.323l5.419,216.013a6.826,6.826,0,0,0,6.806,6.805h372.9a6.825,6.825,0,0,0,6.805-6.805l3.054-202.933c-.36-12.212-11.066-16.6-17.556-16.342l-364.352-9.775q-.171,0-.341,0a12.728,12.728,0,0,0-8.988,3.718" transform="translate(-252.168 -936.131)" fill="none"/>
    </clipPath>
    <linearGradient id="linear-gradient-3" x1="-0.022" y1="0.93" x2="-0.022" y2="0.93" gradientUnits="objectBoundingBox">
      <stop offset="0" stop-color="#4f52ff"/>
      <stop offset="1" stop-color="#4042e2"/>
    </linearGradient>
    <clipPath id="clip-path-9">
      <rect id="Rectangle_6385" data-name="Rectangle 6385" width="458.604" height="19.641" rx="5.654" fill="none"/>
    </clipPath>
    <linearGradient id="linear-gradient-4" x1="-0.016" y1="1.514" x2="-0.016" y2="1.514" xlink:href="#linear-gradient-2"/>
    <clipPath id="clip-path-10">
      <path id="Path_69241" data-name="Path 69241" d="M1998.123,506.03l-91.264,111.232a3.832,3.832,0,0,0,2.963,6.262h17.543l-85.629,164.048,10.366,32.3h29.447a13.529,13.529,0,0,0,12.282-7.857l84.961-184,12.232,1.4a10.869,10.869,0,0,0,12.086-10.158l6.415-108.772q.012-.195.012-.386v-.071a6.429,6.429,0,0,0-6.5-6.375,6.263,6.263,0,0,0-4.909,2.37" transform="translate(-1841.736 -503.66)" fill="none"/>
    </clipPath>
    <linearGradient id="linear-gradient-5" x1="-0.571" y1="1.194" x2="-0.571" y2="1.194" gradientUnits="objectBoundingBox">
      <stop offset="0" stop-color="#ff928e"/>
      <stop offset="1" stop-color="#fe7062"/>
    </linearGradient>
    <clipPath id="clip-path-12">
      <rect id="Rectangle_6387" data-name="Rectangle 6387" width="81.196" height="100.523" fill="none"/>
    </clipPath>
    <clipPath id="clip-path-13">
      <rect id="Rectangle_6388" data-name="Rectangle 6388" width="81.496" height="114.744" fill="none"/>
    </clipPath>
    <clipPath id="clip-path-14">
      <rect id="Rectangle_6389" data-name="Rectangle 6389" width="101.79" height="37.149" fill="none"/>
    </clipPath>
    <clipPath id="clip-path-15">
      <path id="Path_69247" data-name="Path 69247" d="M1405.211,1425.082l60.453,134.288a22.17,22.17,0,0,0,20.216,13.069h31.165a11.379,11.379,0,0,0,9.95-5.859l1.108-2a8.911,8.911,0,0,1-7.936-4.86L1439.62,1401.9Z" transform="translate(-1405.211 -1401.904)" fill="none"/>
    </clipPath>
    <linearGradient id="linear-gradient-6" x1="-1.052" y1="1.182" x2="-1.051" y2="1.182" xlink:href="#linear-gradient-5"/>
    <clipPath id="clip-path-16">
      <path id="Path_69248" data-name="Path 69248" d="M768.1,1315.79c-21.3,19.166-103.927,145.863-103.927,145.863l10.179,29.321h12.507a38.4,38.4,0,0,0,31.963-17.121L807.7,1340.314a13.221,13.221,0,0,1,19.2-3.051l-4.4-10.66a34.9,34.9,0,0,0-12.281-15.475,29.078,29.078,0,0,0-16.833-5.4c-14.118,0-25.288,10.066-25.288,10.066" transform="translate(-664.171 -1305.724)" fill="none"/>
    </clipPath>
    <linearGradient id="linear-gradient-7" x1="-0.637" y1="1.295" x2="-0.636" y2="1.295" xlink:href="#linear-gradient-5"/>
    <clipPath id="clip-path-17">
      <path id="Path_69249" data-name="Path 69249" d="M91.155,1664.559a5.806,5.806,0,0,0,.127,8.908c17.086,14.015,53.344,63.066,72.16,89.222a40.2,40.2,0,0,0,32.641,16.724h11.752a32.044,32.044,0,0,0,27.45-15.512l1.759-2.921c-21.249,12.176-39.357-10.116-66.637-59s-40.974-53.548-40.974-53.548a69.471,69.471,0,0,0-38.28,16.125" transform="translate(-89.136 -1648.434)" fill="none"/>
    </clipPath>
    <linearGradient id="linear-gradient-8" x1="0.056" y1="1.116" x2="0.056" y2="1.116" xlink:href="#linear-gradient-5"/>
    <clipPath id="clip-path-19">
      <rect id="Rectangle_6394" data-name="Rectangle 6394" width="2.29" height="6.998" fill="none"/>
    </clipPath>
    <clipPath id="clip-path-20">
      <rect id="Rectangle_6395" data-name="Rectangle 6395" width="51.098" height="62.115" fill="none"/>
    </clipPath>
    <clipPath id="clip-path-21">
      <rect id="Rectangle_6396" data-name="Rectangle 6396" width="4.186" height="5.392" fill="none"/>
    </clipPath>
    <clipPath id="clip-path-22">
      <path id="Path_69253" data-name="Path 69253" d="M1534.012,1248.126c-.752,2.286-6.389,2.58-6.945,7.075a5.158,5.158,0,0,1-4.316,4.534c-5.757.882-14.629,3.872-16.048,13.867-1.083,7.629,2.806,10.522,6.887,11.523a5.782,5.782,0,0,1,4.384,6.678c-.582,2.9.286,6.259,5.315,8.913,11.27,5.947,22.525-14.089,22.525-14.089l2.307-34.983-8.073-8.846s-5.1,2.48-6.035,5.328" transform="translate(-1506.519 -1242.798)" fill="none"/>
    </clipPath>
    <linearGradient id="linear-gradient-9" x1="-3.026" y1="3.995" x2="-3.024" y2="3.995" xlink:href="#linear-gradient-2"/>
    <clipPath id="clip-path-23">
      <path id="Path_69254" data-name="Path 69254" d="M1787.634,1234.129s5.214,14.85,9.238,16.55c0,0,32.92-27.468,41.38-53.959l-1.358-5.057s-22.5,35.593-49.26,42.467" transform="translate(-1787.634 -1191.662)" fill="none"/>
    </clipPath>
    <linearGradient id="linear-gradient-10" x1="-3.556" y1="3.526" x2="-3.554" y2="3.526" gradientUnits="objectBoundingBox">
      <stop offset="0" stop-color="#febbba"/>
      <stop offset="1" stop-color="#ff928e"/>
    </linearGradient>
    <clipPath id="clip-path-24">
      <path id="Path_69255" data-name="Path 69255" d="M1352.777,2581.152c-1.94,2.045-3.286,5.519-4.022,7.833a2.121,2.121,0,0,0,1.781,2.751,38.337,38.337,0,0,0,8.024-.126,2.476,2.476,0,0,0,2.172-2.167l.729-6a2.049,2.049,0,0,0-2.034-2.3Z" transform="translate(-1348.655 -2581.152)" fill="none"/>
    </clipPath>
    <linearGradient id="linear-gradient-11" x1="-15.593" y1="3.046" x2="-15.581" y2="3.046" xlink:href="#linear-gradient-2"/>
    <clipPath id="clip-path-25">
      <path id="Path_69256" data-name="Path 69256" d="M1674.645,2167.657l-3.437,6.455a13.09,13.09,0,0,0-1.489,7.239l3.562,42.656-2.72,3.739.331,2.027,16.613,9.8-6.536-10.615a11.933,11.933,0,0,1-1.766-6.783c.669-15.231,4.428-53.308,4.428-53.308l-1.123-6.6Z" transform="translate(-1669.674 -2162.267)" fill="none"/>
    </clipPath>
    <linearGradient id="linear-gradient-12" x1="-10.904" y1="1.325" x2="-10.897" y2="1.325" xlink:href="#linear-gradient-10"/>
    <clipPath id="clip-path-26">
      <path id="Path_69257" data-name="Path 69257" d="M1667.16,2557.27l1.565,9.737h1.235s-.282-7.836,1.922-7.688c1.637.109,5.062,4.3,6.714,6.446a3.191,3.191,0,0,0,2.533,1.242h5.3a1.4,1.4,0,0,0,.261-2.779,7.571,7.571,0,0,0-2.155-.057s-8.386-5.9-11.117-7.551-3.236-5.374-3.236-5.374a5.764,5.764,0,0,0-3.025,6.025" transform="translate(-1667.087 -2551.245)" fill="none"/>
    </clipPath>
    <linearGradient id="linear-gradient-13" x1="-11.903" y1="2.384" x2="-11.896" y2="2.384" xlink:href="#linear-gradient-2"/>
    <clipPath id="clip-path-27">
      <path id="Path_69258" data-name="Path 69258" d="M1391.5,2167.429c-9.183,7.024-11.567,14.65-13.676,21.68s-5.954,27.249-7.742,31.711c-1.5,3.737-5.54,11.976-6.814,14.554a2.354,2.354,0,0,0,.089,2.279c.5.808,1.52,1.643,3.6,1.643,4.036,0,5.5-1.129,5.574-2.306a91.624,91.624,0,0,1,4.774-18.248c3.5-9.538,25.523-51.312,25.523-51.312a6.536,6.536,0,0,0-5.173-2.744c-3.357,0-6.159,2.744-6.159,2.744" transform="translate(-1363.016 -2164.685)" fill="none"/>
    </clipPath>
    <linearGradient id="linear-gradient-14" x1="-4.722" y1="1.346" x2="-4.718" y2="1.346" xlink:href="#linear-gradient-10"/>
    <clipPath id="clip-path-29">
      <path id="Path_69260" data-name="Path 69260" d="M1547.674,1771.471c-2.312,6.965-4.336,41.115-13.348,57.115,0,0,21.76,5.751,35.908,2.884,0,0,8.979-47.337,10.41-54.7s-.642-15.292-.642-15.292a21.969,21.969,0,0,1-19.732-1.922s-10.283,4.953-12.6,11.917" transform="translate(-1534.326 -1759.554)" fill="none"/>
    </clipPath>
    <linearGradient id="linear-gradient-15" x1="-2.612" y1="2.039" x2="-2.61" y2="2.039" xlink:href="#linear-gradient-2"/>
    <clipPath id="clip-path-30">
      <path id="Path_69261" data-name="Path 69261" d="M1710.715,1340.683l-4.618,20.746c-.442,1.827,1.224,1.528,3.071,1.18,3.026-.571,6.925-1.745,8.229-4.1a2.242,2.242,0,0,0,.236-.782l1.984-14.386a2.585,2.585,0,0,0-1.513-2.716l-3.829-1.7a2.582,2.582,0,0,0-3.56,1.755" transform="translate(-1706.024 -1338.705)" fill="none"/>
    </clipPath>
    <linearGradient id="linear-gradient-16" x1="-19.569" y1="9.653" x2="-19.558" y2="9.653" xlink:href="#linear-gradient-10"/>
    <clipPath id="clip-path-31">
      <path id="Path_69262" data-name="Path 69262" d="M1555.709,1574.481a7.264,7.264,0,0,0,3.181,1.843c1.064.318,4.214,2.7,5.811,3.943a1.093,1.093,0,0,0,1.6-.288,1.5,1.5,0,0,0,.084-1.433l-3.991-8.439a3.078,3.078,0,0,0-4-.173,1.519,1.519,0,0,1-2.3-.521c-2.173-4.426-6.277-17.444,10.519-32.154a1.821,1.821,0,0,0,.4-2.212c-1.18-2.267-3.879-6.769-7.184-7.864,0,0-32.236,23.063-4.123,47.3" transform="translate(-1544.2 -1527.184)" fill="none"/>
    </clipPath>
    <linearGradient id="linear-gradient-17" x1="-4.535" y1="3.455" x2="-4.532" y2="3.455" xlink:href="#linear-gradient-10"/>
    <clipPath id="clip-path-32">
      <path id="Path_69263" data-name="Path 69263" d="M1716.4,1246.254c4.422,6.081,9.525,7.169,13.045,7.356s6.953-2.854,4.84-11.33-7.03-11.8-7.03-11.8a4.619,4.619,0,0,0-2.5-.739c-5.945,0-12.219,11.2-8.352,16.519" transform="translate(-1715.21 -1229.735)" fill="none"/>
    </clipPath>
    <linearGradient id="linear-gradient-18" x1="-9.478" y1="8.881" x2="-9.472" y2="8.881" xlink:href="#linear-gradient-10"/>
    <clipPath id="clip-path-33">
      <path id="Path_69264" data-name="Path 69264" d="M1682.71,1191.937c-4.194,7.649-5.715,13.025-2.2,17.778s6.159.677,6.159.677-1.612-4.114-.275-5.879,3.063,1.027,3.063,1.027l.693-.2s-1.8-12.146,8.282-10.288l2.039,2.123s4.936-5.559-.526-9.761a11.235,11.235,0,0,0-6.848-2.433c-3.89,0-7.789,2.215-10.388,6.956" transform="translate(-1678.554 -1184.981)" fill="none"/>
    </clipPath>
    <linearGradient id="linear-gradient-19" x1="-6.587" y1="6.698" x2="-6.583" y2="6.698" xlink:href="#linear-gradient-2"/>
    <clipPath id="clip-path-34">
      <path id="Path_69265" data-name="Path 69265" d="M1710.506,1287.746c-3.192,1.786,1.15,5.837,2.891,7.216l1.19-2.753s-.681-4.783-2.989-4.783a2.234,2.234,0,0,0-1.092.321" transform="translate(-1709.366 -1287.425)" fill="none"/>
    </clipPath>
    <linearGradient id="linear-gradient-20" x1="-31.091" y1="27.275" x2="-31.073" y2="27.275" xlink:href="#linear-gradient-10"/>
    <clipPath id="clip-path-35">
      <path id="Path_69266" data-name="Path 69266" d="M2070.345,1120.379c-1.042.924-1.466,6.875-1.705,8.234.869,3.13,3.6,2.623,3.531,1.888a5.71,5.71,0,0,0,4.727-1.571c1.193-1.1,2.516-2.552,3.5-3.675a5.783,5.783,0,0,0,1.46-4.039,19.969,19.969,0,0,0-1.353-5.164l4.94-3.334a2.024,2.024,0,0,0,.344-2.8s-9.9,5.539-15.445,10.463" transform="translate(-2068.64 -1109.916)" fill="none"/>
    </clipPath>
    <linearGradient id="linear-gradient-21" x1="-11.613" y1="9.929" x2="-11.607" y2="9.929" xlink:href="#linear-gradient-10"/>
    <clipPath id="clip-path-36">
      <path id="Path_69267" data-name="Path 69267" d="M2089.012,1161.71l-1.88,2.944.688.44,1.765-2.764,4-2.138a.826.826,0,0,1,.254.509,1.736,1.736,0,0,1-.627,1.157c-1.146,1.2-3.517,6.958-3.617,7.2l.755.31c.668-1.627,2.589-6.046,3.453-6.948a2.427,2.427,0,0,0,.851-1.773,1.774,1.774,0,0,0-.746-1.272l-.211-.172Z" transform="translate(-2087.132 -1159.207)" fill="none"/>
    </clipPath>
    <linearGradient id="linear-gradient-22" x1="-30.006" y1="29.349" x2="-29.992" y2="29.349" xlink:href="#linear-gradient-10"/>
  </defs>
  <g id="Group_39304" data-name="Group 39304" clip-path="url(#clip-path)">
    <g id="Group_39227" data-name="Group 39227" transform="translate(7.873)">
      <g id="Group_39226" data-name="Group 39226" clip-path="url(#clip-path-2)">
        <rect id="Rectangle_6377" data-name="Rectangle 6377" width="670.756" height="669.349" transform="matrix(0.734, -0.68, 0.68, 0.734, -254.75, 212.98)" fill="url(#linear-gradient)"/>
      </g>
    </g>
    <g id="Group_39235" data-name="Group 39235">
      <g id="Group_39234" data-name="Group 39234" clip-path="url(#clip-path)">
        <path id="Path_69216" data-name="Path 69216" d="M2712.713,1049.6a.692.692,0,0,1-.012.745c-.5.755-1.033,1.511-1.571,2.249a.672.672,0,0,1-.952.133c-.741-.553.024-1.125,1.389-3.167a.67.67,0,0,1,.944-.172.7.7,0,0,1,.2.213" transform="translate(-2270.391 -879.094)" fill="#91b3fa"/>
        <path id="Path_69217" data-name="Path 69217" d="M2091.675,942.22c-1.2,1.263-2.47,2.493-3.769,3.655a.679.679,0,0,1-.962-.068c-.683-.786.2-.83,3.741-4.552a.675.675,0,0,1,.963-.009.694.694,0,0,1,.028.973m-10.469,8.919c-1.443.992-2.953,1.944-4.436,2.8a.693.693,0,0,1-.692-1.2c1.477-.852,2.934-1.771,4.347-2.741a.693.693,0,0,1,.781,1.143m-12.074,6.564c-1.608.667-3.265,1.277-4.924,1.814a.692.692,0,0,1-.439-1.312c1.626-.526,3.249-1.124,4.824-1.777a.692.692,0,0,1,.539,1.275m-12.67,3.1a.672.672,0,0,1-.532.8c-1.717.317-3.47.568-5.211.748a.69.69,0,0,1-.166-1.37c1.706-.176,3.424-.422,5.106-.732a.7.7,0,0,1,.8.554m-13.616,1.207a.668.668,0,0,1-.685.671c-1.753-.045-3.527-.16-5.272-.342a.687.687,0,0,1,.113-1.37c1.71.178,3.448.291,5.166.335a.7.7,0,0,1,.678.706m-13.716-2.125a.7.7,0,0,1,.088.508.666.666,0,0,1-.808.514c-1.716-.4-3.437-.878-5.115-1.411a.7.7,0,0,1-.461-.864.666.666,0,0,1,.846-.448c1.644.523,3.331.988,5.012,1.383a.7.7,0,0,1,.437.319m-13.031-4.5a.7.7,0,0,1,.046.641.668.668,0,0,1-.9.336c-1.6-.743-3.2-1.559-4.744-2.426a.7.7,0,0,1-.279-.937.668.668,0,0,1,.922-.263c1.513.849,3.077,1.648,4.648,2.376a.7.7,0,0,1,.3.273m-11.93-6.3a.671.671,0,0,1-.95.142c-1.425-1.055-2.829-2.181-4.173-3.347a.678.678,0,1,1,.875-1.037c1.316,1.142,2.692,2.245,4.089,3.279a.7.7,0,0,1,.159.963m-25.77-38.866c1.313,5.036,2.077,5.569,1.1,5.894a.693.693,0,0,1-.868-.439c-.58-1.682-1.1-3.407-1.551-5.129a.678.678,0,1,1,1.317-.325M1993.8,939.84a.677.677,0,0,1-.962-.058c-1.187-1.323-2.34-2.71-3.426-4.122a.677.677,0,1,1,1.069-.831c1.065,1.384,2.195,2.744,3.358,4.04a.691.691,0,0,1-.038.971m-10.6-16.713c2.294,4.666,3.155,5.044,2.268,5.566a.7.7,0,0,1-.935-.253c-.908-1.538-1.766-3.127-2.55-4.721a.677.677,0,1,1,1.218-.593" transform="translate(-1656.408 -762.162)" fill="#91b3fa"/>
        <path id="Path_69218" data-name="Path 69218" d="M1966.492,841.109c.206,2.311.628,3.37-.29,3.473a.7.7,0,0,1-.764-.609c-.309-2.381-.571-3.44.314-3.5a.787.787,0,0,1,.74.638" transform="translate(-1646.433 -704.159)" fill="#91b3fa"/>
        <path id="Path_69219" data-name="Path 69219" d="M2056.111,532.209a.692.692,0,0,1-.064.812c-.587.673-1.167,1.366-1.723,2.059a.673.673,0,0,1-.958.089.7.7,0,0,1-.108-.969c.568-.708,1.159-1.415,1.759-2.1a.674.674,0,0,1,.961-.05.716.716,0,0,1,.133.16" transform="translate(-1720.13 -445.611)" fill="#91b3fa"/>
        <path id="Path_69220" data-name="Path 69220" d="M2206.849,429.145c.952,1.667,1.846,3.393,2.656,5.129a.68.68,0,0,1-.322.911c-.957.44-.725-.493-3.51-5.37a.683.683,0,0,1,.245-.936.7.7,0,0,1,.931.266m-5.3-6.859c-.833.641-.83-.344-4.562-4.495a.69.69,0,0,1,.037-.972.678.678,0,0,1,.963.057c1.277,1.42,2.515,2.916,3.679,4.446a.689.689,0,0,1-.117.964m11.338,20.732c.569,1.827,1.069,3.7,1.485,5.572a.673.673,0,0,1-.514.812c-1.034.215-.6-.639-2.269-6a.676.676,0,0,1,.443-.855.7.7,0,0,1,.855.466m-21.466-32.5a.692.692,0,0,1-.052.8.673.673,0,0,1-.959.076c-1.431-1.215-2.928-2.383-4.448-3.47a.7.7,0,0,1-.176-.96.671.671,0,0,1,.947-.158c1.552,1.11,3.079,2.3,4.54,3.542a.718.718,0,0,1,.147.171m-12.351-8.357a.7.7,0,0,1,.031.673.668.668,0,0,1-.914.287c-1.65-.871-3.357-1.682-5.074-2.412a.7.7,0,0,1-.379-.9.667.667,0,0,1,.885-.365c1.752.745,3.495,1.573,5.179,2.462a.7.7,0,0,1,.272.257m-13.813-5.454a.7.7,0,0,1,.083.532.666.666,0,0,1-.826.484c-1.793-.489-3.627-.909-5.452-1.246a.7.7,0,0,1-.563-.8.666.666,0,0,1,.782-.553c1.862.344,3.734.772,5.563,1.272a.7.7,0,0,1,.413.313m-14.6-2.306a.7.7,0,0,1,.1.383.668.668,0,0,1-.7.656c-1.848-.086-3.72-.093-5.566-.023a.7.7,0,0,1-.719-.662.668.668,0,0,1,.64-.714c1.884-.073,3.794-.065,5.68.023a.7.7,0,0,1,.561.337m-14.6,1.189c.205,1.053-.633.576-5.947,2.01a.692.692,0,0,1-.376-1.33c1.813-.489,3.671-.906,5.522-1.238a.7.7,0,0,1,.8.558m-14.1,4.058c.43.986-.481.7-5.333,3.294a.693.693,0,0,1-.655-1.22c1.656-.884,3.368-1.706,5.09-2.442a.689.689,0,0,1,.9.368m-12.773,7.153a.686.686,0,0,1-.174.912c-1.493,1.086-2.951,2.243-4.334,3.441a.679.679,0,0,1-.961-.083.692.692,0,0,1,.063-.97c1.412-1.222,2.9-2.4,4.423-3.511a.681.681,0,0,1,.952.163c.011.015.021.031.031.047" transform="translate(-1762.39 -330.094)" fill="#91b3fa"/>
        <path id="Path_69221" data-name="Path 69221" d="M2788.576,784.578c.2,2.4.413,3.46-.475,3.481-.923.022-.678-.94-.883-3.393a.669.669,0,0,1,.622-.731.7.7,0,0,1,.736.643" transform="translate(-2335.175 -656.793)" fill="#91b3fa"/>
        <path id="Path_69222" data-name="Path 69222" d="M2161.92,551.864l-8.48-5.087a43.932,43.932,0,0,0-2.791-13.709c5.527-7.691,6.46-7.838,5.871-8.727l-6.59-9.935a.813.813,0,0,0-.875-.345l-9.429,2.389a43.766,43.766,0,0,0-11.533-7.887l-1.4-9.8a.83.83,0,0,0-.645-.694l-11.518-2.458a.784.784,0,0,0-.847.376l-4.863,8.468a41.726,41.726,0,0,0-13.511,2.543l-7.824-6.071a.8.8,0,0,0-.932-.041l-9.7,6.459a.8.8,0,0,0-.324.877l2.556,9.58a41.872,41.872,0,0,0-7.572,11.5c-9.423,1.385-10.154.821-10.35,1.85-1.957,11.408-2.738,11.9-1.809,12.456l8.48,5.088a43.924,43.924,0,0,0,2.792,13.709c-5.524,7.686-6.46,7.838-5.871,8.727,6.717,9.758,6.451,10.537,7.465,10.28l9.429-2.389a43.754,43.754,0,0,0,11.533,7.888c1.543,9.437,1,10.277,2.042,10.5,11.44,2.232,11.84,3,12.365,2.082l4.863-8.468a41.71,41.71,0,0,0,13.511-2.543c7.589,5.642,7.872,6.7,8.757,6.111,9.48-6.562,10.3-6.3,10.023-7.336l-2.556-9.579a41.892,41.892,0,0,0,7.572-11.5c9.391-1.38,10.153-.816,10.35-1.851,1.957-11.408,2.738-11.9,1.809-12.457" transform="translate(-1725.036 -415.211)" fill="#91b3fa"/>
        <path id="Path_69223" data-name="Path 69223" d="M2327.074,765.3a11.336,11.336,0,0,1-16.142.626,11.685,11.685,0,0,1-.948-16.329,11.337,11.337,0,0,1,16.142-.627,11.683,11.683,0,0,1,.948,16.329m-1.626-15.571,0-.006Zm-13.157,14.683a9.3,9.3,0,0,0,13.257-.514,9.594,9.594,0,0,0-.778-13.411,9.311,9.311,0,0,0-13.257.515,9.6,9.6,0,0,0,.778,13.41" transform="translate(-1932.928 -624.923)" fill="#bdd0fb"/>
        <path id="Path_69224" data-name="Path 69224" d="M2249.357,648.7h0a30.64,30.64,0,0,1,2.29,4.592,1.023,1.023,0,0,1-.406,1.255,1.023,1.023,0,0,1-1.488-.519,28.645,28.645,0,0,0-2.739-5.231c-8.241-12.424-24.605-16.181-36.948-8.681q-.472.287-.937.6c-12.514,8.334-15.666,25.407-7.231,38.13,8.425,12.7,25.4,16.391,37.885,8.084,7.429-4.948,9-10.938,9.8-11.422a1.044,1.044,0,0,1,1.467,1.34,28.646,28.646,0,0,1-11.125,12.455c-21.617,13.137-49.034-6.47-44.263-31.625a28.666,28.666,0,0,1,12.321-18.693q.5-.335,1.016-.647a28.57,28.57,0,0,1,20.956-3.5,29.906,29.906,0,0,1,18.751,12.834q.337.508.654,1.029" transform="translate(-1839.101 -531.327)" fill="#bdd0fb"/>
        <path id="Path_69225" data-name="Path 69225" d="M1665.494,510.81a24.061,24.061,0,0,0-2.1-7.509l2.993-4.64c.332-.515-.234-.611-4.119-5.738-.366-.465-.608.006-5.722,1.661a24.071,24.071,0,0,0-6.8-3.819l-1.166-5.4c-.13-.6-.6-.266-6.969-1.145a.454.454,0,0,0-.463.253l-2.411,4.971a24.062,24.062,0,0,0-7.509,2.1c-4.494-2.767-4.693-3.341-5.167-2.968-5.089,4.145-5.556,4.036-5.36,4.6l1.809,5.217a24.057,24.057,0,0,0-3.819,6.8l-5.4,1.166c-.6.129-.266.6-1.145,6.97-.071.585.413.415,5.224,2.873a24.072,24.072,0,0,0,2.1,7.509l-2.993,4.64c-.332.515.235.611,4.119,5.738.364.463.582,0,5.722-1.661a24.06,24.06,0,0,0,6.8,3.819l1.166,5.4a.454.454,0,0,0,.39.355l6.58.79a.454.454,0,0,0,.463-.253l2.411-4.971a24.067,24.067,0,0,0,7.509-2.1c4.494,2.767,4.693,3.341,5.167,2.968,5.087-4.143,5.555-4.036,5.36-4.6l-1.809-5.216a24.069,24.069,0,0,0,3.819-6.8c5.135-1.221,5.683-.955,5.755-1.555l.79-6.58c.071-.588-.437-.428-5.224-2.873" transform="translate(-1350.678 -405.684)" fill="#91b3fa"/>
        <path id="Path_69226" data-name="Path 69226" d="M1762.489,633.325a6.915,6.915,0,1,1-1.247-9.7,6.911,6.911,0,0,1,1.247,9.7m-1.876-8.884,0-.006Zm.245,7.625a4.854,4.854,0,1,0-8.656-2.349,4.861,4.861,0,0,0,8.656,2.349" transform="translate(-1466.262 -521.278)" fill="#bdd0fb"/>
        <path id="Path_69227" data-name="Path 69227" d="M1994.247,726.882c-.277.886-.593,1.774-.939,2.638a.687.687,0,0,1-.893.382c-.887-.355-.194-1.145.521-3.43a.687.687,0,0,1,1.311.41" transform="translate(-1668.928 -608.246)" fill="#91b3fa"/>
        <path id="Path_69228" data-name="Path 69228" d="M1678.811,791.4a36.712,36.712,0,0,1-3.7,4.283.687.687,0,0,1-.967-.976c3.564-3.531,3.6-4.951,4.521-4.268a.687.687,0,0,1,.145.961m-10.743,8.926a.688.688,0,0,1-.25.939,36.229,36.229,0,0,1-5.106,2.444.687.687,0,0,1-.494-1.282,34.8,34.8,0,0,0,4.911-2.351.7.7,0,0,1,.939.25m-13.762,4.538a.687.687,0,0,1-.508,1.039,36.487,36.487,0,0,1-5.655.209.687.687,0,0,1,.056-1.373,35.106,35.106,0,0,0,5.441-.2.687.687,0,0,1,.666.326m-14.427-1.3a.687.687,0,0,1-.787,1.014,36.016,36.016,0,0,1-5.268-2.07.687.687,0,1,1,.6-1.235,34.623,34.623,0,0,0,5.066,1.991.685.685,0,0,1,.387.3m-12.766-6.164a.687.687,0,0,1-.969.078,36.383,36.383,0,0,1-4.01-3.995.687.687,0,0,1,1.043-.895,34.948,34.948,0,0,0,3.858,3.843.687.687,0,0,1,.078.969" transform="translate(-1358.903 -662.104)" fill="#91b3fa"/>
        <path id="Path_69229" data-name="Path 69229" d="M1585.971,741.361c.922,2.346,1.6,2.979.764,3.384a.681.681,0,0,1-.918-.318c-.4-.832-.783-1.7-1.125-2.564a.687.687,0,0,1,1.279-.5" transform="translate(-1327.641 -620.759)" fill="#91b3fa"/>
        <path id="Path_69230" data-name="Path 69230" d="M1588.062,563.317c-1.136,2.26-1.153,3.18-2.012,2.828a.687.687,0,0,1-.376-.9c.351-.857.741-1.715,1.16-2.549a.687.687,0,1,1,1.228.617" transform="translate(-1328.46 -471.122)" fill="#91b3fa"/>
        <path id="Path_69231" data-name="Path 69231" d="M1679.142,456.564c-.9.7-.953-.681-4.557-4.095a.687.687,0,0,1,.945-1,36.216,36.216,0,0,1,3.735,4.128.687.687,0,0,1-.123.964m-10.619-9.511a.687.687,0,0,1-.935.263c-4.366-2.448-5.661-2.058-5.263-3.132a.687.687,0,0,1,.883-.4,36.078,36.078,0,0,1,5.052,2.339.688.688,0,0,1,.263.935m-13.493-4.58c-.121,1.138-1.137.219-6.108.46a.687.687,0,0,1-.066-1.373,36.463,36.463,0,0,1,5.563.157.688.688,0,0,1,.612.755m-14.212,1.1c.336,1.1-.963.646-5.441,2.814a.687.687,0,0,1-.6-1.237,36.312,36.312,0,0,1,5.182-2.034.688.688,0,0,1,.858.456m-12.723,7.553c-3.817,3.232-3.91,4.587-4.777,3.835a.687.687,0,0,1-.069-.969,36.321,36.321,0,0,1,3.958-3.914.687.687,0,1,1,.888,1.049" transform="translate(-1359.844 -369.912)" fill="#91b3fa"/>
        <path id="Path_69232" data-name="Path 69232" d="M1991.031,574.377c.367.855.7,1.734,1,2.613a.687.687,0,0,1-.429.872c-.9.308-.892-.739-1.838-2.943a.687.687,0,0,1,1.263-.542" transform="translate(-1667.014 -480.874)" fill="#91b3fa"/>
        <path id="Path_69233" data-name="Path 69233" d="M1719.272,569.363a1.031,1.031,0,1,1-1.835.94,14.987,14.987,0,0,0-11.674-8.311c-13.173-1.581-21.755,13.654-13.548,24.1a14.984,14.984,0,0,0,19.527,3.548c6.419-3.9,5.456-8.831,7.541-8.033a1.03,1.03,0,0,1,.595,1.33,17.025,17.025,0,1,1-2.513-16.6h0a17.158,17.158,0,0,1,1.907,3.033" transform="translate(-1413.366 -469.03)" fill="#bdd0fb"/>
        <path id="Path_69234" data-name="Path 69234" d="M5.766,353.439c-.5-2.119,2.484-3.528,4.31-2.048,18.541,15.034,63.088,60.056,51.986,138.735C48.132,588.84,71.946,624.86,101.588,646.832c0,0-40.709-10.332-66.321-46.882-62.883-89.739-20.648-208.822-29.5-246.51" transform="translate(0 -293.888)" fill="#bdd0fb"/>
        <g id="Group_39230" data-name="Group 39230" transform="translate(19.865 89.701)" opacity="0.5">
          <g id="Group_39229" data-name="Group 39229">
            <g id="Group_39228" data-name="Group 39228" clip-path="url(#clip-path-4)">
              <path id="Path_69235" data-name="Path 69235" d="M122.494,553.76c2.319,10.989,4.387,22.012,5.984,33.085q2.5,16.6,3.813,33.285c.823,11.122,1.4,22.256,1.438,33.395.091,11.138-.372,22.267-.882,33.439-.438,11.168-.952,22.417-.134,33.745a100.035,100.035,0,0,0,7.906,33.4c1.18,2.664,2.422,5.32,3.832,7.887,1.356,2.59,2.845,5.129,4.385,7.644a120.631,120.631,0,0,0,10.517,14.467,132.678,132.678,0,0,0,27.693,24.235,2.773,2.773,0,0,0,3.506-.4,1.964,1.964,0,0,0-.4-2.987l-.007-.005c-2.477-1.74-4.927-3.5-7.279-5.352-1.193-.909-2.337-1.862-3.5-2.8-1.122-.971-2.287-1.9-3.373-2.9a120.352,120.352,0,0,1-30.216-41.454,97.594,97.594,0,0,1-5.243-15.741A107.462,107.462,0,0,1,138,720.4c-.891-11-.489-22.133-.144-33.3.328-11.173.569-22.4.274-33.623q-.195-8.415-.739-16.818c-.163-2.8-.388-5.6-.608-8.4q-.376-4.194-.814-8.382-1.805-16.749-4.8-33.366c-2.064-11.062-4.467-22.073-7.357-32.985a.68.68,0,0,0-.8-.436.588.588,0,0,0-.51.669" transform="translate(-122.483 -553.077)" fill="#fff"/>
            </g>
          </g>
        </g>
        <path id="Path_69236" data-name="Path 69236" d="M209.219,747.591a4.667,4.667,0,0,1-7.639-1.3c-7.546-16.659-24.621-65.689,3.58-122.174,23.814-47.7,32.195-75.827,35.114-88.859a2.927,2.927,0,0,1,5.534-.538c12.577,28.507,45.786,125.473-36.589,212.872" transform="translate(-158.788 -446.532)" fill="#91b3fa"/>
        <g id="Group_39233" data-name="Group 39233" transform="translate(44.778 147.637)" style="mix-blend-mode: soft-light;isolation: isolate">
          <g id="Group_39232" data-name="Group 39232">
            <g id="Group_39231" data-name="Group 39231" clip-path="url(#clip-path-5)">
              <path id="Path_69237" data-name="Path 69237" d="M277.621,1061.97a1.3,1.3,0,0,1-1.523-1.294c.012-.81,1.589-81.783,31.705-149.6a1.294,1.294,0,0,1,2.366,1.051c-29.9,67.324-31.471,147.786-31.483,148.59a1.294,1.294,0,0,1-1.064,1.254" transform="translate(-276.097 -910.307)" fill="#fff"/>
            </g>
          </g>
        </g>
      </g>
    </g>
    <g id="Group_39237" data-name="Group 39237" transform="translate(33.871 143.301)">
      <g id="Group_39236" data-name="Group 39236" clip-path="url(#clip-path-6)">
        <rect id="Rectangle_6381" data-name="Rectangle 6381" width="470.508" height="369.054" transform="matrix(0.949, -0.316, 0.316, 0.949, -75.61, 25.166)" fill="url(#linear-gradient-2)"/>
      </g>
    </g>
    <g id="Group_39239" data-name="Group 39239" transform="translate(40.897 151.825)">
      <g id="Group_39238" data-name="Group 39238" clip-path="url(#clip-path-7)">
        <rect id="Rectangle_6382" data-name="Rectangle 6382" width="456.712" height="428.541" transform="matrix(0.79, -0.613, 0.613, 0.79, -114.321, 88.65)" fill="url(#linear-gradient-3)"/>
      </g>
    </g>
    <g id="Group_39241" data-name="Group 39241">
      <g id="Group_39240" data-name="Group 39240" clip-path="url(#clip-path)">
        <path id="Path_69240" data-name="Path 69240" d="M1966.184,1082.826h-.015a1,1,0,0,1-.983-1.012l.925-63.033c-.017-3.744-1.154-6.734-3.378-8.865-4.152-3.978-10.744-3.775-11.022-3.762l-116.455-3.123a1,1,0,0,1-.97-1.023.955.955,0,0,1,1.024-.969l116.386,3.123c.724-.043,7.743-.164,12.417,4.314,2.63,2.52,3.973,5.991,3.993,10.315l-.926,63.053a1,1,0,0,1-1,.983" transform="translate(-1536.795 -838.683)" fill="#91b3fa"/>
      </g>
    </g>
    <g id="Group_39243" data-name="Group 39243" transform="translate(7.662 393.876)">
      <g id="Group_39242" data-name="Group 39242" clip-path="url(#clip-path-9)">
        <rect id="Rectangle_6384" data-name="Rectangle 6384" width="458.904" height="49.705" transform="matrix(0.998, -0.066, 0.066, 0.998, -1.287, 0.085)" fill="url(#linear-gradient-4)"/>
      </g>
    </g>
    <g id="Group_39245" data-name="Group 39245" transform="translate(298.699 81.685)">
      <g id="Group_39244" data-name="Group 39244" clip-path="url(#clip-path-10)">
        <rect id="Rectangle_6386" data-name="Rectangle 6386" width="357.216" height="308.913" transform="translate(-141.36 228.927) rotate(-58.305)" fill="url(#linear-gradient-5)"/>
      </g>
    </g>
    <g id="Group_39256" data-name="Group 39256">
      <g id="Group_39255" data-name="Group 39255" clip-path="url(#clip-path)">
        <g id="Group_39248" data-name="Group 39248" transform="translate(379.163 89.425)" opacity="0.49">
          <g id="Group_39247" data-name="Group 39247">
            <g id="Group_39246" data-name="Group 39246" clip-path="url(#clip-path-12)">
              <path id="Path_69242" data-name="Path 69242" d="M2338.7,651.905a.844.844,0,0,1-.668-1.358l75.361-97.921a3.156,3.156,0,0,1,5.638,2.28l-1.33,11.738a.843.843,0,0,1-1.676-.19l1.33-11.738a1.469,1.469,0,0,0-2.625-1.061l-75.361,97.922a.843.843,0,0,1-.669.329" transform="translate(-2337.861 -551.382)" fill="#fff"/>
            </g>
          </g>
        </g>
        <path id="Path_69243" data-name="Path 69243" d="M2188.852,1572.383c-22.424,9.942-81.99,44.345-107.707,137.08,0,0,34.692.581,60.72-55.054,22.259-47.579,35.06-66.8,48.691-79.457a1.563,1.563,0,0,0-1.7-2.569" transform="translate(-1743.617 -1317.246)" fill="#91b3fa"/>
        <g id="Group_39251" data-name="Group 39251" transform="translate(341.633 272.723)" opacity="0.51">
          <g id="Group_39250" data-name="Group 39250">
            <g id="Group_39249" data-name="Group 39249" clip-path="url(#clip-path-13)">
              <path id="Path_69244" data-name="Path 69244" d="M2106.477,1795.8l.119-.39c.078-.259.2-.64.361-1.133.318-.991.807-2.435,1.472-4.257.647-1.83,1.509-4.02,2.507-6.531,1.013-2.5,2.214-5.3,3.565-8.343,1.378-3.025,2.913-6.285,4.613-9.7,1.741-3.389,3.568-6.972,5.612-10.6l1.54-2.742,1.612-2.753c1.071-1.854,2.217-3.694,3.363-5.554s2.354-3.7,3.549-5.563c1.231-1.837,2.432-3.7,3.7-5.53s2.5-3.67,3.829-5.442l1.954-2.673c.653-.886,1.33-1.752,1.99-2.623l1.984-2.594,2.018-2.528c1.316-1.692,2.7-3.3,4.052-4.882,1.333-1.6,2.712-3.118,4.049-4.612s2.672-2.932,4-4.306c.664-.687,1.306-1.375,1.961-2.032l1.953-1.923,1.887-1.857c.619-.606,1.256-1.172,1.864-1.741,1.24-1.114,2.393-2.217,3.551-3.2l3.281-2.8c.508-.446,1.021-.853,1.523-1.237l1.44-1.123,2.534-1.976,4.974-3.522a.4.4,0,0,1,.491.623l-.014.012-4.574,3.961-2.343,2.158-1.329,1.224-.7.646-.7.692-3.048,2.975c-1.074,1.044-2.139,2.211-3.284,3.39-.569.593-1.166,1.181-1.744,1.812l-1.762,1.929-1.821,1.994c-.611.681-1.207,1.394-1.824,2.1-1.224,1.431-2.517,2.866-3.758,4.406-1.26,1.522-2.559,3.066-3.812,4.695l-1.918,2.44c-.644.819-1.265,1.667-1.91,2.5l-1.93,2.536-1.9,2.6c-.631.875-1.277,1.742-1.9,2.63l-1.865,2.681c-1.256,1.784-2.469,3.609-3.7,5.417s-2.406,3.663-3.607,5.485c-1.165,1.846-2.332,3.681-3.462,5.519-2.247,3.684-4.453,7.313-6.515,10.871-2.078,3.548-4.063,6.994-5.892,10.294s-3.579,6.412-5.109,9.33c-1.588,2.89-2.98,5.573-4.232,7.946s-2.31,4.458-3.2,6.168l-2.743,5.406,0,0a.4.4,0,0,1-.736-.3" transform="translate(-2106.46 -1681.572)" fill="#fff"/>
            </g>
          </g>
        </g>
        <path id="Path_69245" data-name="Path 69245" d="M2085.3,2118.339s9.9-38.826,64.066-44.047c36.144-3.484,47.632-12.323,51.007-16.213a.6.6,0,0,1,1.042.478c-1.124,7.329-7.221,29.979-40.044,43.209-39.558,15.945-59.375,3.407-76.072,16.573" transform="translate(-1747.099 -1724.117)" fill="#bdd0fb"/>
        <g id="Group_39254" data-name="Group 39254" transform="translate(340.918 349.996)" opacity="0.51">
          <g id="Group_39253" data-name="Group 39253">
            <g id="Group_39252" data-name="Group 39252" clip-path="url(#clip-path-14)">
              <path id="Path_69246" data-name="Path 69246" d="M2102.127,2194.68s.3-.332.882-.91,1.45-1.428,2.606-2.444,2.583-2.224,4.279-3.542,3.668-2.727,5.872-4.2,4.679-2.936,7.365-4.37a89.082,89.082,0,0,1,8.7-4.05,76.581,76.581,0,0,1,9.8-3.185,71.766,71.766,0,0,1,10.529-1.839c.9-.066,1.789-.171,2.687-.2l2.689-.1,2.683.037c.892.024,1.779.107,2.664.158l5.043.323c1.705.167,3.255.063,4.838.1l1.175.006.584,0,.583-.039,2.309-.163,1.138-.079.565-.039c.186-.021.369-.054.553-.08l2.18-.328a43.625,43.625,0,0,0,7.923-1.928,7.589,7.589,0,0,0,.875-.332l.849-.344c.555-.236,1.122-.427,1.634-.687l1.5-.767c.242-.127.487-.242.717-.374l.661-.417,1.269-.79c.392-.277.759-.559,1.12-.822a22.943,22.943,0,0,0,1.888-1.567c.527-.518,1.008-.981,1.39-1.413s.7-.807.93-1.134c.246-.316.412-.567.524-.739s.16-.255.16-.255a.293.293,0,0,1,.535.233l0,0s-.041.117-.133.313a9.376,9.376,0,0,1-.433.859,19.307,19.307,0,0,1-2.07,2.983,24.363,24.363,0,0,1-1.792,1.879c-.346.322-.7.666-1.084,1.007l-1.253.976-.663.511c-.231.163-.476.31-.719.469l-1.515.97c-.521.33-1.095.589-1.663.9-.577.288-1.151.634-1.777.88a45.939,45.939,0,0,1-8.266,2.684l-2.3.473c-.194.038-.388.083-.585.116l-.591.074-1.194.15-2.431.3-.616.074-.626.031-1.262.063c-1.679.071-3.449.207-5.1.113l-2.533-.068-2.6-.09a60.464,60.464,0,0,0-10.027.31,75.462,75.462,0,0,0-9.914,1.779,92.359,92.359,0,0,0-9.383,2.859,128.948,128.948,0,0,0-16,7.146c-2.292,1.188-4.331,2.4-6.156,3.446-1.815,1.067-3.371,2.046-4.657,2.854s-2.272,1.478-2.947,1.933l-1.029.705a.294.294,0,0,1-.386-.439" transform="translate(-2102.052 -2158.023)" fill="#fff"/>
            </g>
          </g>
        </g>
      </g>
    </g>
    <g id="Group_39258" data-name="Group 39258" transform="translate(227.902 227.366)">
      <g id="Group_39257" data-name="Group 39257" clip-path="url(#clip-path-15)">
        <rect id="Rectangle_6391" data-name="Rectangle 6391" width="186.442" height="207.578" transform="translate(-68.485 34.471) rotate(-26.718)" fill="url(#linear-gradient-6)"/>
      </g>
    </g>
    <g id="Group_39260" data-name="Group 39260" transform="translate(107.718 211.767)">
      <g id="Group_39259" data-name="Group 39259" clip-path="url(#clip-path-16)">
        <rect id="Rectangle_6392" data-name="Rectangle 6392" width="166.25" height="188.335" transform="matrix(1, -0.019, 0.019, 1, -3.55, 0.068)" fill="url(#linear-gradient-7)"/>
      </g>
    </g>
    <g id="Group_39262" data-name="Group 39262" transform="translate(14.456 267.349)">
      <g id="Group_39261" data-name="Group 39261" clip-path="url(#clip-path-17)">
        <rect id="Rectangle_6393" data-name="Rectangle 6393" width="198.098" height="196.864" transform="matrix(0.741, -0.671, 0.671, 0.741, -65.903, 59.027)" fill="url(#linear-gradient-8)"/>
      </g>
    </g>
    <g id="Group_39273" data-name="Group 39273">
      <g id="Group_39272" data-name="Group 39272" clip-path="url(#clip-path)">
        <g id="Group_39265" data-name="Group 39265" transform="translate(455.345 115.908)" opacity="0.49">
          <g id="Group_39264" data-name="Group 39264">
            <g id="Group_39263" data-name="Group 39263" clip-path="url(#clip-path-19)">
              <path id="Path_69250" data-name="Path 69250" d="M2808.438,721.664a.792.792,0,0,1-.1-.006.843.843,0,0,1-.743-.933l.6-5.311a.844.844,0,1,1,1.676.19l-.6,5.311a.844.844,0,0,1-.837.749" transform="translate(-2807.594 -714.666)" fill="#fff"/>
            </g>
          </g>
        </g>
        <g id="Group_39268" data-name="Group 39268" transform="translate(208.198 230.489)" opacity="0.49">
          <g id="Group_39267" data-name="Group 39267">
            <g id="Group_39266" data-name="Group 39266" clip-path="url(#clip-path-20)">
              <path id="Path_69251" data-name="Path 69251" d="M1284.559,1483.275a.843.843,0,0,1-.7-1.315l38.975-57.772a6.865,6.865,0,0,1,11.9.9.844.844,0,1,1-1.525.722,5.178,5.178,0,0,0-8.973-.681l-38.975,57.772a.842.842,0,0,1-.7.372" transform="translate(-1283.717 -1421.16)" fill="#fff"/>
            </g>
          </g>
        </g>
        <g id="Group_39271" data-name="Group 39271" transform="translate(198.07 302.225)" opacity="0.49">
          <g id="Group_39270" data-name="Group 39270">
            <g id="Group_39269" data-name="Group 39269" clip-path="url(#clip-path-21)">
              <path id="Path_69252" data-name="Path 69252" d="M1222.109,1868.864a.843.843,0,0,1-.7-1.315l2.5-3.7a.843.843,0,1,1,1.4.943l-2.5,3.7a.842.842,0,0,1-.7.372" transform="translate(-1221.266 -1863.473)" fill="#fff"/>
            </g>
          </g>
        </g>
      </g>
    </g>
    <g id="Group_39275" data-name="Group 39275" transform="translate(244.333 201.561)">
      <g id="Group_39274" data-name="Group 39274" clip-path="url(#clip-path-22)">
        <rect id="Rectangle_6398" data-name="Rectangle 6398" width="75.063" height="63.129" transform="matrix(0.37, -0.929, 0.929, 0.37, -22.868, 55.107)" fill="url(#linear-gradient-9)"/>
      </g>
    </g>
    <g id="Group_39277" data-name="Group 39277" transform="translate(289.925 193.268)">
      <g id="Group_39276" data-name="Group 39276" clip-path="url(#clip-path-23)">
        <rect id="Rectangle_6399" data-name="Rectangle 6399" width="77.715" height="76.449" transform="matrix(0.628, -0.778, 0.778, 0.628, -28.839, 35.76)" fill="url(#linear-gradient-10)"/>
      </g>
    </g>
    <g id="Group_39279" data-name="Group 39279" transform="translate(218.73 418.621)">
      <g id="Group_39278" data-name="Group 39278" clip-path="url(#clip-path-24)">
        <rect id="Rectangle_6400" data-name="Rectangle 6400" width="13.985" height="11.799" transform="translate(-1.06 0.053) rotate(-3.991)" fill="url(#linear-gradient-11)"/>
      </g>
    </g>
    <g id="Group_39281" data-name="Group 39281" transform="translate(270.794 350.684)">
      <g id="Group_39280" data-name="Group 39280" clip-path="url(#clip-path-25)">
        <rect id="Rectangle_6401" data-name="Rectangle 6401" width="24.52" height="78.562" transform="matrix(0.996, -0.085, 0.085, 0.996, -6.731, 0.562)" fill="url(#linear-gradient-12)"/>
      </g>
    </g>
    <g id="Group_39283" data-name="Group 39283" transform="translate(270.374 413.77)">
      <g id="Group_39282" data-name="Group 39282" clip-path="url(#clip-path-26)">
        <rect id="Rectangle_6402" data-name="Rectangle 6402" width="22.643" height="17.227" transform="matrix(0.998, -0.07, 0.07, 0.998, -1.415, 0.076)" fill="url(#linear-gradient-13)"/>
      </g>
    </g>
    <g id="Group_39285" data-name="Group 39285" transform="translate(221.059 351.076)">
      <g id="Group_39284" data-name="Group 39284" clip-path="url(#clip-path-27)">
        <rect id="Rectangle_6403" data-name="Rectangle 6403" width="46.138" height="77.743" transform="translate(-6.445 0.542) rotate(-4.89)" fill="url(#linear-gradient-14)"/>
      </g>
    </g>
    <g id="Group_39287" data-name="Group 39287">
      <g id="Group_39286" data-name="Group 39286" clip-path="url(#clip-path)">
        <path id="Path_69259" data-name="Path 69259" d="M1649.291,1499.354c5.681-24.072-8.71-37.687-8.71-37.687,9.081-8.716,25.625-12.683,25.625-12.683s15.787,11.542,13.914,20.576c-1.1,5.295-11.1,31.715-11.1,31.715a21.97,21.97,0,0,1-19.733-1.922" transform="translate(-1374.506 -1213.983)" fill="#91b3fa"/>
      </g>
    </g>
    <g id="Group_39289" data-name="Group 39289" transform="translate(248.842 285.371)">
      <g id="Group_39288" data-name="Group 39288" clip-path="url(#clip-path-29)">
        <rect id="Rectangle_6405" data-name="Rectangle 6405" width="87.635" height="85.34" transform="matrix(0.663, -0.748, 0.748, 0.663, -37.122, 41.874)" fill="url(#linear-gradient-15)"/>
      </g>
    </g>
    <g id="Group_39291" data-name="Group 39291" transform="translate(276.689 217.116)">
      <g id="Group_39290" data-name="Group 39290" clip-path="url(#clip-path-30)">
        <rect id="Rectangle_6406" data-name="Rectangle 6406" width="14.12" height="24.551" transform="translate(-0.37 0)" fill="url(#linear-gradient-16)"/>
      </g>
    </g>
    <g id="Group_39293" data-name="Group 39293" transform="translate(250.444 247.684)">
      <g id="Group_39292" data-name="Group 39292" clip-path="url(#clip-path-31)">
        <rect id="Rectangle_6407" data-name="Rectangle 6407" width="50.394" height="60.802" transform="translate(-27.855 2.482) rotate(-12.44)" fill="url(#linear-gradient-17)"/>
      </g>
    </g>
    <g id="Group_39295" data-name="Group 39295" transform="translate(278.179 199.443)">
      <g id="Group_39294" data-name="Group 39294" clip-path="url(#clip-path-32)">
        <rect id="Rectangle_6408" data-name="Rectangle 6408" width="28.807" height="28.951" transform="matrix(0.973, -0.233, 0.233, 0.973, -8.118, 1.301)" fill="url(#linear-gradient-18)"/>
      </g>
    </g>
    <g id="Group_39297" data-name="Group 39297" transform="translate(272.234 192.184)">
      <g id="Group_39296" data-name="Group 39296" clip-path="url(#clip-path-33)">
        <rect id="Rectangle_6409" data-name="Rectangle 6409" width="40.198" height="39.88" transform="translate(-15.017 20.769) rotate(-57.061)" fill="url(#linear-gradient-19)"/>
      </g>
    </g>
    <g id="Group_39299" data-name="Group 39299" transform="translate(277.231 208.799)">
      <g id="Group_39298" data-name="Group 39298" clip-path="url(#clip-path-34)">
        <rect id="Rectangle_6410" data-name="Rectangle 6410" width="8.826" height="9.022" transform="matrix(0.973, -0.233, 0.233, 0.973, -3.756, 0.408)" fill="url(#linear-gradient-20)"/>
      </g>
    </g>
    <g id="Group_39301" data-name="Group 39301" transform="translate(335.499 180.01)">
      <g id="Group_39300" data-name="Group 39300" clip-path="url(#clip-path-35)">
        <rect id="Rectangle_6411" data-name="Rectangle 6411" width="28.451" height="27.913" transform="matrix(0.628, -0.778, 0.778, 0.628, -10.666, 13.225)" fill="url(#linear-gradient-21)"/>
      </g>
    </g>
    <g id="Group_39303" data-name="Group 39303" transform="translate(338.499 188.004)">
      <g id="Group_39302" data-name="Group 39302" clip-path="url(#clip-path-36)">
        <rect id="Rectangle_6412" data-name="Rectangle 6412" width="11.22" height="9.048" transform="matrix(0.156, -0.988, 0.988, 0.156, -1.567, 9.918)" fill="url(#linear-gradient-22)"/>
      </g>
    </g>
  </g>
</svg>
