<svg id="Group_37338" data-name="Group 37338" xmlns="http://www.w3.org/2000/svg" xmlns:xlink="http://www.w3.org/1999/xlink" width="516" height="514.903" viewBox="0 0 516 514.903">
  <defs>
    <clipPath id="clip-path">
      <rect id="Rectangle_4950" data-name="Rectangle 4950" width="516" height="514.903" fill="none"/>
    </clipPath>
    <clipPath id="clip-path-2">
      <rect id="Rectangle_4939" data-name="Rectangle 4939" width="516.001" height="514.903" fill="none"/>
    </clipPath>
    <clipPath id="clip-path-3">
      <rect id="Rectangle_4913" data-name="Rectangle 4913" width="108.2" height="347.069" fill="#b6c2fc"/>
    </clipPath>
    <clipPath id="clip-path-4">
      <rect id="Rectangle_4914" data-name="Rectangle 4914" width="85.077" height="279.207" fill="none"/>
    </clipPath>
    <clipPath id="clip-path-5">
      <rect id="Rectangle_4933" data-name="Rectangle 4933" width="93.143" height="48.322" fill="none"/>
    </clipPath>
    <clipPath id="clip-path-6">
      <rect id="Rectangle_4934" data-name="Rectangle 4934" width="156.954" height="156.956" fill="none"/>
    </clipPath>
    <clipPath id="clip-path-7">
      <rect id="Rectangle_4935" data-name="Rectangle 4935" width="113.295" height="85.94" fill="#f3d33f"/>
    </clipPath>
    <clipPath id="clip-path-8">
      <rect id="Rectangle_4936" data-name="Rectangle 4936" width="118.916" height="89.232" fill="#f3d33f"/>
    </clipPath>
    <clipPath id="clip-path-9">
      <rect id="Rectangle_4937" data-name="Rectangle 4937" width="80.613" height="36.931" fill="#f3d33f"/>
    </clipPath>
    <clipPath id="clip-path-10">
      <rect id="Rectangle_4938" data-name="Rectangle 4938" width="49.712" height="59.519" fill="#f3d33f"/>
    </clipPath>
    <clipPath id="clip-path-11">
      <path id="Path_38895" data-name="Path 38895" d="M1253.759,1269.931c-5.549,6.768-46.617,78.687-46.693,78.716l-2.08,3.837a45.32,45.32,0,0,0,22.391-12.733l-3.946-4.13a2.27,2.27,0,0,1,.179-3.307c9.884-8.325,38.7-31.141,36.484-46.494l22.434,13.065-13.466-29.132-11.462-1.366a4.3,4.3,0,0,0-3.841,1.544" transform="translate(-1204.986 -1268.356)" fill="none"/>
    </clipPath>
    <linearGradient id="linear-gradient" x1="-2.821" y1="1.532" x2="-2.818" y2="1.532" gradientUnits="objectBoundingBox">
      <stop offset="0" stop-color="#fff"/>
      <stop offset="1" stop-color="#efeff4"/>
    </linearGradient>
    <clipPath id="clip-path-13">
      <path id="Path_38897" data-name="Path 38897" d="M1299.255,1298.246a4.3,4.3,0,0,0-3.448,2.289c-4.065,7.751-17.848,37.208-23.5,71.6-.069.044-6.23,14.889-6.3,14.933l-1.26,4.179a45.323,45.323,0,0,0,19.351-17l-4.7-3.246a2.27,2.27,0,0,1-.494-3.274c7.995-10.154,31.6-38.33,26.319-52.916l24.614,8.255-19.083-25.8Z" transform="translate(-1264.749 -1297.264)" fill="none"/>
    </clipPath>
    <linearGradient id="linear-gradient-2" x1="-3.472" y1="1.955" x2="-3.469" y2="1.955" xlink:href="#linear-gradient"/>
    <clipPath id="clip-path-15">
      <path id="Path_38902" data-name="Path 38902" d="M1483.461,1242.351l-7.016,1.9c-7.016,1.9-19.274,0-19.274,0l-10.515-2.831-9.1,9.905,10.6.779s46.009.625,48.1-.289a28.015,28.015,0,0,0,4-2.494,4.237,4.237,0,0,0,1.548-4.868l-2.49-7.037Z" transform="translate(-1437.552 -1237.415)" fill="none"/>
    </clipPath>
    <linearGradient id="linear-gradient-3" x1="-6.161" y1="4.48" x2="-6.156" y2="4.48" xlink:href="#linear-gradient"/>
    <clipPath id="clip-path-16">
      <path id="Path_38903" data-name="Path 38903" d="M1476.794,1005.348l-3.63,1.932a2.536,2.536,0,0,0-1.29,2.766l2.956,13.945a2.19,2.19,0,0,0,.286.749c1.442,2.214,10.777,2.109,11.38-1.6l-7.211-19.233c-.118-.37-.244-.516-.387-.516-.442,0-1.049,1.394-2.1,1.956" transform="translate(-1471.82 -1003.392)" fill="none"/>
    </clipPath>
    <linearGradient id="linear-gradient-4" x1="-18.668" y1="8.615" x2="-18.655" y2="8.615" xlink:href="#linear-gradient"/>
    <clipPath id="clip-path-17">
      <path id="Path_38904" data-name="Path 38904" d="M1433.444,970.523s-2.237,5.382.6,13.473,7.3,8.732,10.082,6.681,6.384-5.7,6.729-13.069c.243-5.185-6.944-9.951-12.3-9.952-2.26,0-4.195.847-5.111,2.867" transform="translate(-1432.607 -967.656)" fill="none"/>
    </clipPath>
    <linearGradient id="linear-gradient-5" x1="-14.412" y1="10.419" x2="-14.402" y2="10.419" xlink:href="#linear-gradient"/>
    <clipPath id="clip-path-19">
      <path id="Path_38906" data-name="Path 38906" d="M1482.476,981.147c-3.581.256-.939,5.861-.939,5.861l2.461,1.616c.669-2.024,2-7.486-1.292-7.485-.074,0-.151,0-.23.008" transform="translate(-1480.598 -981.139)" fill="none"/>
    </clipPath>
    <linearGradient id="linear-gradient-6" x1="-49.293" y1="29.607" x2="-49.259" y2="29.607" xlink:href="#linear-gradient"/>
  </defs>
  <g id="Group_37336" data-name="Group 37336" clip-path="url(#clip-path)">
    <g id="Group_37315" data-name="Group 37315">
      <g id="Group_37314" data-name="Group 37314" clip-path="url(#clip-path-2)">
        <g id="Group_37292" data-name="Group 37292" transform="translate(363.533 17.816)" opacity="0.69">
          <g id="Group_37291" data-name="Group 37291">
            <g id="Group_37290" data-name="Group 37290" clip-path="url(#clip-path-3)">
              <path id="Path_38821" data-name="Path 38821" d="M1325.956,64.519a2.633,2.633,0,0,0-4.823,1.682c2.49,26.346,6.856,95.633-10.428,139.953-28.144,72.164-27.158,171.356,21.35,204.239,0,0,157.358-96.419-6.1-345.874" transform="translate(-1292.019 -63.323)" fill="#b6c2fc"/>
              <path id="Path_38822" data-name="Path 38822" d="M1436.96,193.7c.24.8.374,1.481.55,2.205l.473,2.147.9,4.3c.578,2.869,1.112,5.746,1.645,8.624q1.57,8.637,2.943,17.308c1.822,11.563,3.33,23.173,4.663,34.8,1.35,11.63,2.374,23.3,3.15,34.982s1.366,23.385,1.581,35.1a561.843,561.843,0,0,1-2.779,70.212c-1.351,11.644-3.007,23.26-5.333,34.754a304.012,304.012,0,0,1-9.022,33.964.47.47,0,0,1-.9-.279l0-.006a340.449,340.449,0,0,0,8.008-34.045c2.124-11.466,3.58-23.045,4.733-34.645s1.827-23.251,2.244-34.906.341-23.327.206-34.993c-.37-23.337-1.988-46.645-4.24-69.885q-1.726-17.429-4.127-34.787-1.178-8.679-2.536-17.335l-1.433-8.641-.76-4.311-.4-2.149c-.144-.7-.286-1.459-.436-2.066l-.026-.1a.466.466,0,0,1,.9-.245" transform="translate(-1394.636 -156.779)" fill="#b6c2fc"/>
            </g>
          </g>
        </g>
        <path id="Path_38823" data-name="Path 38823" d="M1453.839,164.87a2.752,2.752,0,0,0-5.333.248c-5.356,27.135-21.631,97.848-52.155,137.1-49.7,63.906-78.273,163.571-39.477,210.969,0,0,186.375-49.7,96.965-348.314" transform="translate(-962.111 -117.073)" fill="#b6c2fc"/>
        <g id="Group_37295" data-name="Group 37295" transform="translate(404.398 85.615)" opacity="0.43">
          <g id="Group_37294" data-name="Group 37294">
            <g id="Group_37293" data-name="Group 37293" clip-path="url(#clip-path-4)">
              <path id="Path_38824" data-name="Path 38824" d="M1522.336,304.756c0,.873-.067,1.594-.107,2.372l-.167,2.291-.384,4.574c-.277,3.047-.6,6.088-.924,9.129q-1,9.12-2.213,18.216c-1.622,12.126-3.573,24.206-5.705,36.254-2.115,12.052-4.568,24.046-7.273,35.982s-5.6,23.833-8.877,35.631a587.638,587.638,0,0,1-23.7,69.509c-4.822,11.263-9.94,22.406-15.694,33.228a317.94,317.94,0,0,1-19.151,31.339.482.482,0,0,1-.8-.537l0-.005a355.393,355.393,0,0,0,18.177-31.717c5.547-10.853,10.458-22.02,15.072-33.3s8.761-22.749,12.653-34.3,7.3-23.268,10.636-35c6.583-23.49,11.909-47.323,16.576-71.277q3.462-17.976,6.228-36.081,1.4-9.047,2.623-18.123l1.137-9.084.522-4.546.235-2.273c.065-.746.147-1.547.177-2.2l.005-.108a.478.478,0,0,1,.956.021" transform="translate(-1437.26 -304.279)" fill="#fff"/>
            </g>
          </g>
        </g>
        <path id="Path_38825" data-name="Path 38825" d="M371.556,873.542H19.438a2.8,2.8,0,0,1-2.8-2.8V834.877a2.8,2.8,0,0,1,2.8-2.8H371.556a2.8,2.8,0,0,1,2.8,2.8v35.867a2.8,2.8,0,0,1-2.8,2.8" transform="translate(-11.957 -597.958)" fill="#b6c2fc"/>
        <path id="Path_38826" data-name="Path 38826" d="M361.675,954.676H4.7a4.7,4.7,0,0,1-4.7-4.7v-7.558a4.7,4.7,0,0,1,4.7-4.7H361.675a4.7,4.7,0,0,1,4.7,4.7v7.558a4.7,4.7,0,0,1-4.7,4.7" transform="translate(0 -673.874)" fill="#b6c2fc"/>
        <path id="Path_38827" data-name="Path 38827" d="M373.708,75.944H34.818a4.614,4.614,0,0,1-1.69-8.907L202.573.321a4.614,4.614,0,0,1,3.381,0L375.4,67.037a4.614,4.614,0,0,1-1.69,8.907" transform="translate(-21.702)" fill="#b6c2fc"/>
        <rect id="Rectangle_4915" data-name="Rectangle 4915" width="7.267" height="133.712" transform="translate(24.323 85.812)" fill="#b6c2fc"/>
        <rect id="Rectangle_4916" data-name="Rectangle 4916" width="7.267" height="133.712" transform="translate(35.223 85.812)" fill="#b6c2fc"/>
        <rect id="Rectangle_4917" data-name="Rectangle 4917" width="7.267" height="133.712" transform="translate(46.123 85.812)" fill="#b6c2fc"/>
        <path id="Path_38828" data-name="Path 38828" d="M103.09,279.154H58.035v1.957l6.54,3.13H96.549l6.54-3.13Z" transform="translate(-41.706 -200.609)" fill="#b6c2fc"/>
        <path id="Path_38829" data-name="Path 38829" d="M104.381,795.544H59.326V788.5l6.54-3.13H97.841l6.54,3.13Z" transform="translate(-42.634 -564.393)" fill="#b6c2fc"/>
        <rect id="Rectangle_4918" data-name="Rectangle 4918" width="7.267" height="133.712" transform="translate(81.732 85.812)" fill="#b6c2fc"/>
        <rect id="Rectangle_4919" data-name="Rectangle 4919" width="7.267" height="133.712" transform="translate(92.632 85.812)" fill="#b6c2fc"/>
        <rect id="Rectangle_4920" data-name="Rectangle 4920" width="7.267" height="133.712" transform="translate(103.533 85.812)" fill="#b6c2fc"/>
        <path id="Path_38830" data-name="Path 38830" d="M307.126,279.154H262.07v1.957l6.54,3.13h31.975l6.54-3.13Z" transform="translate(-188.332 -200.609)" fill="#b6c2fc"/>
        <path id="Path_38831" data-name="Path 38831" d="M308.417,795.544H263.362V788.5l6.54-3.13h31.975l6.54,3.13Z" transform="translate(-189.26 -564.393)" fill="#c6c9d3"/>
        <rect id="Rectangle_4921" data-name="Rectangle 4921" width="7.267" height="133.712" transform="translate(139.141 85.812)" fill="#b6c2fc"/>
        <rect id="Rectangle_4922" data-name="Rectangle 4922" width="7.267" height="133.712" transform="translate(150.041 85.812)" fill="#b6c2fc"/>
        <rect id="Rectangle_4923" data-name="Rectangle 4923" width="7.267" height="133.712" transform="translate(160.942 85.812)" fill="#b6c2fc"/>
        <path id="Path_38832" data-name="Path 38832" d="M511.162,279.154H466.107v1.957l6.54,3.13h31.975l6.54-3.13Z" transform="translate(-334.959 -200.609)" fill="#b6c2fc"/>
        <path id="Path_38833" data-name="Path 38833" d="M512.453,795.544H467.4V788.5l6.54-3.13h31.975l6.54,3.13Z" transform="translate(-335.887 -564.393)" fill="#c6c9d3"/>
        <rect id="Rectangle_4924" data-name="Rectangle 4924" width="7.267" height="133.712" transform="translate(196.55 85.812)" fill="#b6c2fc"/>
        <rect id="Rectangle_4925" data-name="Rectangle 4925" width="7.267" height="133.712" transform="translate(207.45 85.812)" fill="#b6c2fc"/>
        <rect id="Rectangle_4926" data-name="Rectangle 4926" width="7.267" height="133.712" transform="translate(218.351 85.812)" fill="#b6c2fc"/>
        <path id="Path_38834" data-name="Path 38834" d="M715.2,279.154H670.141v1.957l6.54,3.13h31.975l6.54-3.13Z" transform="translate(-481.585 -200.609)" fill="#b6c2fc"/>
        <path id="Path_38835" data-name="Path 38835" d="M716.488,795.544H671.433V788.5l6.54-3.13h31.975l6.54,3.13Z" transform="translate(-482.514 -564.393)" fill="#c6c9d3"/>
        <rect id="Rectangle_4927" data-name="Rectangle 4927" width="7.267" height="133.712" transform="translate(253.959 85.812)" fill="#b6c2fc"/>
        <rect id="Rectangle_4928" data-name="Rectangle 4928" width="7.267" height="133.712" transform="translate(264.859 85.812)" fill="#b6c2fc"/>
        <rect id="Rectangle_4929" data-name="Rectangle 4929" width="7.267" height="133.712" transform="translate(275.76 85.812)" fill="#b6c2fc"/>
        <path id="Path_38836" data-name="Path 38836" d="M919.233,279.154H874.178v1.957l6.54,3.13h31.975l6.54-3.13Z" transform="translate(-628.212 -200.609)" fill="#b6c2fc"/>
        <path id="Path_38837" data-name="Path 38837" d="M920.524,795.544H875.469V788.5l6.54-3.13h31.975l6.54,3.13Z" transform="translate(-629.14 -564.393)" fill="#c6c9d3"/>
        <rect id="Rectangle_4930" data-name="Rectangle 4930" width="7.267" height="133.712" transform="translate(311.368 85.812)" fill="#b6c2fc"/>
        <rect id="Rectangle_4931" data-name="Rectangle 4931" width="7.267" height="133.712" transform="translate(322.269 85.812)" fill="#b6c2fc"/>
        <rect id="Rectangle_4932" data-name="Rectangle 4932" width="7.267" height="133.712" transform="translate(333.169 85.812)" fill="#b6c2fc"/>
        <path id="Path_38838" data-name="Path 38838" d="M1123.269,279.154h-45.055v1.957l6.54,3.13h31.975l6.54-3.13Z" transform="translate(-774.839 -200.609)" fill="#b6c2fc"/>
        <path id="Path_38839" data-name="Path 38839" d="M1124.56,795.544H1079.5V788.5l6.54-3.13h31.975l6.54,3.13Z" transform="translate(-775.767 -564.393)" fill="#c6c9d3"/>
        <path id="Path_38840" data-name="Path 38840" d="M372.626,840.013H18.676a2.044,2.044,0,0,1-2.044-2.045v-3.713a2.044,2.044,0,0,1,2.044-2.045H372.626a2.045,2.045,0,0,1,2.045,2.045v3.713a2.045,2.045,0,0,1-2.045,2.045" transform="translate(-11.952 -598.054)" fill="#b6c2fc"/>
        <path id="Path_38841" data-name="Path 38841" d="M746.037,1387.764l-9.441,84.671H846.128l-14.267-84.671Z" transform="translate(-529.342 -997.292)" fill="#333435"/>
        <path id="Path_38842" data-name="Path 38842" d="M92.765,568.013V767.557a30.27,30.27,0,0,0,29.49,30.262c72.883,1.88,327.793,6.437,397.172,5.414a22.274,22.274,0,0,0,21.929-21.639c1.338-46.357,3.511-157.829-4.53-209.581a22.921,22.921,0,0,0-21.916-19.4c-61.067-1.953-331.288-8.157-400.635-6.6a22,22,0,0,0-21.51,22" transform="translate(-66.664 -392.204)" fill="#48494b"/>
        <path id="Path_38843" data-name="Path 38843" d="M137.265,586.842v189.58a17.539,17.539,0,0,0,17.276,17.537l386.884,4.78a17.069,17.069,0,0,0,17.324-17l.647-187.886a12.483,12.483,0,0,0-12.179-12.526l-396.1-8a13.526,13.526,0,0,0-13.855,13.521" transform="translate(-98.643 -412.004)" fill="#fff"/>
        <path id="Path_38844" data-name="Path 38844" d="M560.075,1380.755h-.011l-424.4-7.231a.622.622,0,0,1,.021-1.244l424.4,7.231a.622.622,0,0,1-.01,1.244" transform="translate(-97.055 -986.165)" fill="#74767b"/>
        <path id="Path_38845" data-name="Path 38845" d="M782.631,1689.639H622.324c-4.355,0-7.625-3.1-6.784-6.431l2.057-8.135c.619-2.446,3.31-4.243,6.507-4.342l154.542-4.822c3.34-.1,6.3,1.669,7.025,4.212l3.708,12.957c.963,3.366-2.323,6.562-6.748,6.562" transform="translate(-442.252 -1197.172)" fill="#48494b"/>
        <path id="Path_38846" data-name="Path 38846" d="M1442.154,1399.445H1332.46a2.633,2.633,0,0,1-2.634-2.633v-14.495a2.633,2.633,0,0,1,2.634-2.633h109.694a2.633,2.633,0,0,1,2.633,2.633v14.495a2.633,2.633,0,0,1-2.633,2.633" transform="translate(-955.656 -991.485)" fill="#f3d33f"/>
        <path id="Path_38847" data-name="Path 38847" d="M1442.154,1475.044H1332.46a2.633,2.633,0,0,1-2.634-2.633v-14.495a2.633,2.633,0,0,1,2.634-2.633h109.694a2.633,2.633,0,0,1,2.633,2.633v14.495a2.633,2.633,0,0,1-2.633,2.633" transform="translate(-955.656 -1045.813)" fill="#f3d33f"/>
        <path id="Path_38848" data-name="Path 38848" d="M1442.154,1550.644H1332.46a2.634,2.634,0,0,1-2.634-2.634v-14.495a2.633,2.633,0,0,1,2.634-2.633h109.694a2.633,2.633,0,0,1,2.633,2.633v14.495a2.633,2.633,0,0,1-2.633,2.634" transform="translate(-955.656 -1100.141)" fill="#f3d33f"/>
        <path id="Path_38849" data-name="Path 38849" d="M1442.154,1626.243H1332.46a2.633,2.633,0,0,1-2.634-2.633v-14.5a2.633,2.633,0,0,1,2.634-2.633h109.694a2.634,2.634,0,0,1,2.633,2.634v14.495a2.633,2.633,0,0,1-2.633,2.633" transform="translate(-955.656 -1154.469)" fill="#f3d33f"/>
        <path id="Path_38850" data-name="Path 38850" d="M1442.154,1701.842H1332.46a2.633,2.633,0,0,1-2.634-2.633v-14.5a2.634,2.634,0,0,1,2.634-2.633h109.694a2.634,2.634,0,0,1,2.633,2.634v14.495a2.633,2.633,0,0,1-2.633,2.633" transform="translate(-955.656 -1208.797)" fill="#f3d33f"/>
        <path id="Path_38851" data-name="Path 38851" d="M1442.154,1777.443H1332.46a2.633,2.633,0,0,1-2.634-2.633v-14.495a2.634,2.634,0,0,1,2.634-2.633h109.694a2.633,2.633,0,0,1,2.633,2.633v14.495a2.633,2.633,0,0,1-2.633,2.633" transform="translate(-955.656 -1263.127)" fill="#f3d33f"/>
        <path id="Path_38852" data-name="Path 38852" d="M1421.262,796.917a14.683,14.683,0,1,1,14.843,14.521,14.683,14.683,0,0,1-14.843-14.521" transform="translate(-1021.364 -562.022)" fill="#97a85e"/>
        <path id="Path_38853" data-name="Path 38853" d="M1419.108,601.049a14.683,14.683,0,1,1,14.844,14.521,14.683,14.683,0,0,1-14.844-14.521" transform="translate(-1019.816 -421.266)" fill="#97a85e"/>
        <path id="Path_38854" data-name="Path 38854" d="M283.474,991.961a14.683,14.683,0,1,1,14.844,14.521,14.683,14.683,0,0,1-14.844-14.521" transform="translate(-203.713 -702.188)" fill="#97a85e"/>
        <path id="Path_38855" data-name="Path 38855" d="M281.32,796.095a14.683,14.683,0,1,1,14.844,14.521,14.683,14.683,0,0,1-14.844-14.521" transform="translate(-202.165 -561.431)" fill="#97a85e"/>
        <path id="Path_38856" data-name="Path 38856" d="M279.166,600.227a14.683,14.683,0,1,1,14.844,14.521,14.683,14.683,0,0,1-14.844-14.521" transform="translate(-200.617 -420.674)" fill="#97a85e"/>
        <path id="Path_38857" data-name="Path 38857" d="M1053.051,1256.789a14.683,14.683,0,1,1,14.521-14.844,14.683,14.683,0,0,1-14.521,14.844" transform="translate(-746.089 -882.067)" fill="#97a85e"/>
        <path id="Path_38858" data-name="Path 38858" d="M857.184,1258.943A14.683,14.683,0,1,1,871.7,1244.1a14.683,14.683,0,0,1-14.521,14.844" transform="translate(-605.332 -883.615)" fill="#97a85e"/>
        <path id="Path_38859" data-name="Path 38859" d="M661.316,1261.1a14.683,14.683,0,1,1,14.521-14.844,14.683,14.683,0,0,1-14.521,14.844" transform="translate(-464.576 -885.162)" fill="#97a85e"/>
        <path id="Path_38860" data-name="Path 38860" d="M1075.973,176.363a14.683,14.683,0,1,1,14.521-14.844,14.684,14.684,0,0,1-14.521,14.844" transform="translate(-762.561 -105.637)" fill="#97a85e"/>
        <path id="Path_38861" data-name="Path 38861" d="M880.106,178.517a14.683,14.683,0,1,1,14.521-14.844,14.683,14.683,0,0,1-14.521,14.844" transform="translate(-621.804 -107.185)" fill="#97a85e"/>
        <path id="Path_38862" data-name="Path 38862" d="M684.238,180.671a14.683,14.683,0,1,1,14.521-14.844,14.683,14.683,0,0,1-14.521,14.844" transform="translate(-481.048 -108.733)" fill="#97a85e"/>
        <path id="Path_38863" data-name="Path 38863" d="M1010.923,965.3a3.919,3.919,0,0,1,3.584,2.234l19.678,41.321a3.918,3.918,0,0,1,.38,1.642l.475,43.195a3.919,3.919,0,0,1-7.837.086l-.466-42.332-19.307-40.542a3.92,3.92,0,0,1,3.492-5.6" transform="translate(-723.698 -693.699)" fill="#74767b"/>
        <path id="Path_38864" data-name="Path 38864" d="M815.936,967.45a3.919,3.919,0,0,1,3.962,3.876l.24,21.766,18.022,17.63a3.919,3.919,0,0,1,1.178,2.758l.466,42.364a3.919,3.919,0,0,1-7.837.087l-.448-40.741L813.5,997.56a3.922,3.922,0,0,1-1.178-2.758l-.257-23.39a3.919,3.919,0,0,1,3.876-3.962" transform="translate(-583.573 -695.241)" fill="#74767b"/>
        <path id="Path_38865" data-name="Path 38865" d="M701.261,968.38a3.919,3.919,0,0,1,3.962,3.876l.411,37.364a3.921,3.921,0,0,1-1.117,2.784l-11.089,11.335.367,33.38a3.919,3.919,0,0,1-7.838.086l-.385-35a3.92,3.92,0,0,1,1.117-2.784l11.089-11.336-.393-35.741a3.919,3.919,0,0,1,3.875-3.962" transform="translate(-492.674 -695.909)" fill="#74767b"/>
        <path id="Path_38866" data-name="Path 38866" d="M1171.778,905.22a3.905,3.905,0,0,1,2.546.9l39.275,32.636,40.835-.449a3.919,3.919,0,0,1,.086,7.837l-42.275.465a3.921,3.921,0,0,1-2.548-.9l-40.382-33.557a3.919,3.919,0,0,1,2.464-6.933" transform="translate(-839.291 -650.521)" fill="#74767b"/>
        <path id="Path_38867" data-name="Path 38867" d="M1177.773,753.789a3.907,3.907,0,0,1,2.784,1.117l20.546,20.1,57.034-.627a3.919,3.919,0,1,1,.086,7.837l-58.657.645a3.92,3.92,0,0,1-2.784-1.117l-21.707-21.234a3.919,3.919,0,0,1,2.7-6.72" transform="translate(-843.6 -541.697)" fill="#74767b"/>
        <path id="Path_38868" data-name="Path 38868" d="M1150.095,562.862l33.347-.367a3.92,3.92,0,0,1,2.784,1.117l18.955,18.543,32.46-.357a3.919,3.919,0,1,1,.086,7.838l-34.084.375a3.92,3.92,0,0,1-2.784-1.117L1181.9,570.351l-31.723.349a3.919,3.919,0,1,1-.086-7.837" transform="translate(-823.71 -404.227)" fill="#74767b"/>
        <path id="Path_38869" data-name="Path 38869" d="M1074.1,178.62a3.919,3.919,0,0,1,3.962,3.876l.375,34.1a3.921,3.921,0,0,1-1.117,2.784l-14.12,14.434.331,30.163a3.919,3.919,0,1,1-7.837.086l-.349-31.786a3.92,3.92,0,0,1,1.117-2.784l14.12-14.434-.357-32.479a3.919,3.919,0,0,1,3.875-3.962" transform="translate(-758.407 -128.362)" fill="#74767b"/>
        <path id="Path_38870" data-name="Path 38870" d="M864.973,180.774a3.919,3.919,0,0,1,2.845,6.659L848.88,206.792l.653,59.394a3.919,3.919,0,0,1-7.838.086l-.671-61.017a3.92,3.92,0,0,1,1.117-2.784l20.073-20.519a3.909,3.909,0,0,1,2.759-1.178" transform="translate(-604.387 -129.91)" fill="#74767b"/>
        <path id="Path_38871" data-name="Path 38871" d="M662.912,182.928a3.919,3.919,0,0,1,2.845,6.659l-21.364,21.839.161,14.661,31.763,31.072a3.919,3.919,0,0,1-5.481,5.6l-32.924-32.208a3.919,3.919,0,0,1-1.178-2.758l-.2-17.908a3.921,3.921,0,0,1,1.117-2.784l22.5-23a3.909,3.909,0,0,1,2.759-1.178" transform="translate(-457.436 -131.458)" fill="#74767b"/>
        <path id="Path_38872" data-name="Path 38872" d="M381.084,946.546l34.878-.383a3.919,3.919,0,1,1,.086,7.837l-33.254.366-20.217,20.666a3.919,3.919,0,0,1-2.758,1.178l-34.127.375a3.919,3.919,0,0,1-.086-7.837l32.5-.357,20.217-20.667a3.921,3.921,0,0,1,2.758-1.178" transform="translate(-231.205 -679.943)" fill="#74767b"/>
        <path id="Path_38873" data-name="Path 38873" d="M408.133,708.922a3.919,3.919,0,0,1,2.845,6.659l-32.925,33.657a3.921,3.921,0,0,1-2.759,1.178l-51.756.569a3.919,3.919,0,0,1-.086-7.837l50.133-.551,31.79-32.5a3.908,3.908,0,0,1,2.759-1.178" transform="translate(-229.658 -509.454)" fill="#74767b"/>
        <path id="Path_38874" data-name="Path 38874" d="M384.377,567.554l27.317-.3a3.919,3.919,0,0,1,.086,7.838l-25.693.282-16.648,17.018a3.92,3.92,0,0,1-2.758,1.178l-45.3.5a3.919,3.919,0,1,1-.086-7.837l43.674-.48,16.647-17.018a3.921,3.921,0,0,1,2.759-1.178" transform="translate(-228.109 -407.647)" fill="#74767b"/>
        <path id="Path_38875" data-name="Path 38875" d="M727.086,483.172a95.911,95.911,0,1,1-95.911-95.911,95.911,95.911,0,0,1,95.911,95.911" transform="translate(-384.658 -278.298)" fill="#4a63f8"/>
        <path id="Path_38876" data-name="Path 38876" d="M732.042,491.318A92.722,92.722,0,1,1,639.32,398.6a92.722,92.722,0,0,1,92.722,92.722" transform="translate(-392.803 -286.444)" fill="#b6c2fc"/>
        <g id="Group_37298" data-name="Group 37298" transform="translate(169.437 118.658)" opacity="0.7">
          <g id="Group_37297" data-name="Group 37297">
            <g id="Group_37296" data-name="Group 37296" clip-path="url(#clip-path-5)">
              <path id="Path_38877" data-name="Path 38877" d="M602.814,470.044a.614.614,0,0,1-.279-.067.622.622,0,0,1-.275-.835,86.367,86.367,0,0,1,92.566-46.018.622.622,0,0,1-.223,1.224,85.73,85.73,0,0,0-15.33-1.379,84.617,84.617,0,0,0-75.9,46.734.622.622,0,0,1-.556.342" transform="translate(-602.192 -421.723)" fill="#fff"/>
            </g>
          </g>
        </g>
        <g id="Group_37301" data-name="Group 37301" transform="translate(170.059 128.416)" opacity="0.78">
          <g id="Group_37300" data-name="Group 37300">
            <g id="Group_37299" data-name="Group 37299" clip-path="url(#clip-path-6)">
              <path id="Path_38878" data-name="Path 38878" d="M761.359,534.878A78.478,78.478,0,1,1,682.881,456.4a78.478,78.478,0,0,1,78.478,78.478" transform="translate(-604.403 -456.4)" fill="#fff"/>
            </g>
          </g>
        </g>
        <path id="Path_38879" data-name="Path 38879" d="M820.783,595.618c-3.98-3.7-9.455-5.933-16.19-6.69a.062.062,0,0,1-.055-.062v-.133a.061.061,0,0,1,.047-.06c5.378-1.345,8.321-3.732,11.736-7.159a16.647,16.647,0,0,0,5.26-12.029c0-6.32-2.945-11.219-8.571-14.7-4.751-2.935-10.207-4.631-18.082-5.088a.992.992,0,0,1-.935-.99V533.027a.993.993,0,0,0-.993-.993h-7.208a.993.993,0,0,0-.993.993v15.861a.993.993,0,0,1-.993.993h-8.29a.993.993,0,0,1-.993-.993V533.027a.993.993,0,0,0-.993-.993h-7.208a.993.993,0,0,0-.993.993v15.861a.993.993,0,0,1-.993.993h-21a.993.993,0,0,0-.993.993v8.019a.993.993,0,0,0,.993.993h11.8a.993.993,0,0,1,.993.993v61.83a.993.993,0,0,1-.993.993h-11.8a.993.993,0,0,0-.993.993v9.1a.993.993,0,0,0,.993.993h21a.993.993,0,0,1,.993.993v16.4a.993.993,0,0,0,.993.993h7.208a.993.993,0,0,0,.993-.993v-16.4a.993.993,0,0,1,.993-.993h8.29a.993.993,0,0,1,.993.993v16.4a.993.993,0,0,0,.993.993H793a.993.993,0,0,0,.993-.993v-16.7a.992.992,0,0,1,.954-.992c9.308-.363,17.04-2.625,22.653-6.789a21.833,21.833,0,0,0,9.2-18.518,17.866,17.866,0,0,0-6.013-13.57M785.6,563.942c10.293,0,15.44,2.989,15.44,9.231a9.4,9.4,0,0,1-3.762,7.908q-3.763,2.876-10.3,2.871H775.516a.993.993,0,0,1-.993-.993V564.935a.993.993,0,0,1,.993-.993Zm15.015,53.847c-2.77,2.054-6.6,3.209-11.482,3.209h-13.62a.993.993,0,0,1-.993-.993V599.277a.993.993,0,0,1,.993-.993h13.751c4.884,0,8.69.85,11.417,2.786a9.813,9.813,0,0,1,4.089,8.3,9.923,9.923,0,0,1-4.155,8.419" transform="translate(-533.473 -382.337)" fill="#4a63f8"/>
        <g id="Group_37304" data-name="Group 37304" transform="translate(1.275 393.413)" opacity="0.3">
          <g id="Group_37303" data-name="Group 37303">
            <g id="Group_37302" data-name="Group 37302" clip-path="url(#clip-path-7)">
              <path id="Path_38880" data-name="Path 38880" d="M117.639,1503.43a1.837,1.837,0,0,1-.674,2.363c-1.757,1.1-3.589,2.146-5.444,3.1a1.837,1.837,0,0,1-2.474-.793l-.016-.032a1.837,1.837,0,0,1,.809-2.442c1.762-.906,3.5-1.9,5.172-2.945a1.837,1.837,0,0,1,2.533.58,1.791,1.791,0,0,1,.094.169m-14.42,6.941a1.784,1.784,0,0,1,.084.2,1.837,1.837,0,0,1-1.123,2.343c-1.966.691-3.981,1.306-5.988,1.825a1.837,1.837,0,1,1-.921-3.556c1.908-.494,3.822-1.078,5.69-1.735a1.837,1.837,0,0,1,2.257.922m-15.589,3.594a1.839,1.839,0,0,1-1.441,2.635c-2.066.236-4.168.386-6.248.444a1.837,1.837,0,1,1-.1-3.673c1.975-.055,3.971-.2,5.933-.421a1.838,1.838,0,0,1,1.859,1.016m-16,.017a1.837,1.837,0,0,1-1.855,2.633c-2.068-.232-4.151-.556-6.19-.964a1.837,1.837,0,1,1,.72-3.6c1.937.387,3.915.7,5.88.915a1.836,1.836,0,0,1,1.445,1.018m-15.606-3.552a1.837,1.837,0,0,1-2.254,2.544c-1.96-.684-3.919-1.461-5.821-2.31a1.837,1.837,0,1,1,1.5-3.354c1.808.807,3.669,1.546,5.532,2.2a1.831,1.831,0,0,1,1.045.925m-14.431-6.915a1.837,1.837,0,0,1-2.622,2.368c-1.763-1.1-3.5-2.293-5.165-3.541a1.837,1.837,0,0,1,2.2-2.939c1.581,1.186,3.232,2.318,4.908,3.365a1.821,1.821,0,0,1,.675.747m-33.57-58.507a1.825,1.825,0,0,1,.187.754c.058,1.973.2,3.969.432,5.935a1.837,1.837,0,0,1-3.649.424c-.241-2.069-.394-4.173-.455-6.25a1.837,1.837,0,0,1,3.486-.863m21.039,48.572a1.837,1.837,0,0,1-2.946,2.112c-1.474-1.466-2.9-3.015-4.246-4.6a1.837,1.837,0,0,1,2.8-2.373c1.275,1.508,2.632,2.978,4.032,4.37a1.843,1.843,0,0,1,.355.493m-18.766-32.732a1.84,1.84,0,0,1,.129.346c.5,1.911,1.087,3.825,1.747,5.691a1.837,1.837,0,0,1-3.464,1.226c-.694-1.963-1.313-3.977-1.838-5.988a1.837,1.837,0,0,1,3.426-1.275m8.768,20.247a1.837,1.837,0,0,1-3.2,1.786c-1.107-1.757-2.154-3.586-3.11-5.436l-.018-.035a1.837,1.837,0,0,1,3.281-1.651c.908,1.757,1.9,3.494,2.955,5.163.035.056.067.114.1.173" transform="translate(-4.531 -1431.103)" fill="#f3d33f"/>
              <path id="Path_38881" data-name="Path 38881" d="M9.835,1399.247a1.828,1.828,0,0,1,.166,1.085c-.143.936-.269,1.891-.375,2.838a1.837,1.837,0,1,1-3.651-.407c.111-1,.243-2,.394-2.986a1.837,1.837,0,0,1,3.466-.53" transform="translate(-5.561 -1398.217)" fill="#f3d33f"/>
            </g>
          </g>
        </g>
        <g id="Group_37307" data-name="Group 37307" transform="translate(29.103 332.605)" opacity="0.3">
          <g id="Group_37306" data-name="Group 37306">
            <g id="Group_37305" data-name="Group 37305" clip-path="url(#clip-path-8)">
              <path id="Path_38882" data-name="Path 38882" d="M109.285,1229.848a1.838,1.838,0,0,1-.59,2.308c-.774.546-1.549,1.118-2.3,1.7a1.837,1.837,0,0,1-2.242-2.911c.795-.612,1.611-1.214,2.426-1.789a1.837,1.837,0,0,1,2.71.694" transform="translate(-103.432 -1215.674)" fill="#f3d33f"/>
              <path id="Path_38883" data-name="Path 38883" d="M242.12,1223.113q.558,1.139,1.082,2.3a1.837,1.837,0,0,1-3.351,1.506c-.806-1.793-1.683-3.55-2.618-5.24a1.837,1.837,0,1,1,3.215-1.777c.579,1.046,1.141,2.125,1.672,3.207m4.444,11.4a1.838,1.838,0,0,1,.113.291c.58,1.966,1.083,3.978,1.494,5.981a1.837,1.837,0,1,1-3.6.74c-.391-1.9-.869-3.814-1.42-5.682a1.837,1.837,0,0,1,3.41-1.33M235.2,1211.791a1.837,1.837,0,0,1-3.121,1.907c-1.162-1.554-2.407-3.08-3.7-4.534a1.837,1.837,0,1,1,2.746-2.441c1.362,1.532,2.673,3.139,3.9,4.775a1.847,1.847,0,0,1,.179.293m14.133,38.23a1.843,1.843,0,0,1,.183.689c.133,2.044.181,4.117.142,6.163a1.837,1.837,0,0,1-3.673-.071c.037-1.943-.008-3.912-.135-5.853a1.837,1.837,0,0,1,3.483-.929m-24.9-49.713a1.837,1.837,0,0,1-2.842,2.207c-1.475-1.26-3.025-2.474-4.606-3.609a1.837,1.837,0,1,1,2.142-2.984c1.665,1.2,3.3,2.474,4.85,3.8a1.83,1.83,0,0,1,.456.587m-13.023-8.843a1.837,1.837,0,0,1-2.507,2.434c-1.72-.909-3.5-1.757-5.285-2.519a1.837,1.837,0,1,1,1.441-3.379c1.881.8,3.752,1.694,5.562,2.651a1.828,1.828,0,0,1,.79.813m-14.641-5.794a1.838,1.838,0,0,1-2.134,2.581c-1.878-.514-3.8-.954-5.708-1.309a1.837,1.837,0,0,1,.671-3.612c2.009.373,4.031.836,6.007,1.377a1.835,1.835,0,0,1,1.165.963m-15.555-2.462a1.837,1.837,0,0,1-1.735,2.642c-1.944-.091-3.914-.1-5.855-.026a1.837,1.837,0,1,1-.14-3.671c2.045-.078,4.119-.069,6.166.027a1.836,1.836,0,0,1,1.564,1.027m-15.722,1.013a1.84,1.84,0,0,1-1.328,2.619c-1.911.339-3.834.764-5.714,1.265a1.837,1.837,0,1,1-.944-3.551c1.979-.527,4-.975,6.016-1.332a1.839,1.839,0,0,1,1.971,1m-15.1,4.439c.017.034.032.069.047.1a1.837,1.837,0,0,1-.988,2.4c-1.322.551-2.642,1.15-3.925,1.779q-.7.342-1.383.7a1.837,1.837,0,0,1-2.476-.787,1.816,1.816,0,0,1,.786-2.475q.722-.374,1.454-.734c1.35-.662,2.739-1.292,4.129-1.871a1.837,1.837,0,0,1,2.355.884" transform="translate(-130.75 -1182.103)" fill="#f3d33f"/>
              <path id="Path_38884" data-name="Path 38884" d="M512.056,1476.938a1.829,1.829,0,0,1,.165,1.094c-.155.983-.334,1.98-.531,2.965a1.837,1.837,0,1,1-3.6-.722c.187-.936.357-1.884.5-2.816a1.837,1.837,0,0,1,3.464-.521" transform="translate(-394.205 -1393.241)" fill="#f3d33f"/>
            </g>
          </g>
        </g>
        <path id="Path_38885" data-name="Path 38885" d="M178.509,1323.428a.858.858,0,0,0-.187-.979l-7.557-7.217a45.517,45.517,0,0,0,.56-14.737l8.073-6.624a.858.858,0,0,0,.261-.962l-4.358-11.752a.859.859,0,0,0-.825-.56l-10.44.24A45.516,45.516,0,0,0,154,1270.029l1.025-10.4a.858.858,0,0,0-.5-.864l-11.391-5.229a.858.858,0,0,0-.979.187l-7.217,7.557a45.524,45.524,0,0,0-14.737-.559l-6.624-8.073a.858.858,0,0,0-.962-.26l-11.752,4.358a.858.858,0,0,0-.56.825l.24,10.44a45.516,45.516,0,0,0-10.809,10.032l-10.4-1.025a.859.859,0,0,0-.864.5L73.25,1288.9a.859.859,0,0,0,.187.979l7.557,7.216a45.518,45.518,0,0,0-.56,14.737l-8.073,6.624a.859.859,0,0,0-.261.962l4.358,11.752a.859.859,0,0,0,.825.56l10.44-.24A45.515,45.515,0,0,0,97.755,1342.3l-1.025,10.4a.859.859,0,0,0,.5.865l11.391,5.228a.859.859,0,0,0,.979-.187l7.217-7.557a45.515,45.515,0,0,0,14.737.56l6.624,8.073a.857.857,0,0,0,.962.26l11.752-4.357a.859.859,0,0,0,.56-.825l-.24-10.44a45.521,45.521,0,0,0,10.809-10.032l10.4,1.025a.858.858,0,0,0,.865-.5Z" transform="translate(-51.775 -899.968)" fill="#6c63f8"/>
        <path id="Path_38886" data-name="Path 38886" d="M242.5,1405.948a12.6,12.6,0,1,1-.934-1.6,12.618,12.618,0,0,1,.934,1.6m-20,9.778a9.806,9.806,0,0,0,.723,1.237,9.63,9.63,0,1,0-.723-1.237" transform="translate(-157.078 -1005.291)" fill="#fff"/>
        <path id="Path_38887" data-name="Path 38887" d="M211.105,1350.474a31.609,31.609,0,0,1,1.256,2.925q.176.473.336.953a31.225,31.225,0,0,1,1.2,4.815l.011.067c.01.063.02.126.03.189.019.123.037.246.055.369a.735.735,0,0,1-1.454.209,29.544,29.544,0,0,0-23.045-24.678,29.329,29.329,0,0,0-16.434,1.18,29.877,29.877,0,0,0-2.791,1.2,29.511,29.511,0,0,0,23.31,54.139,29.526,29.526,0,0,0,12.753-9.189.735.735,0,1,1,1.146.919,30.883,30.883,0,0,1-10.5,8.406,30.985,30.985,0,0,1-42.708-17.034,30.987,30.987,0,0,1,15.346-38.559,31.775,31.775,0,0,1,2.929-1.257,30.985,30.985,0,0,1,38.561,15.351" transform="translate(-109.462 -958.062)" fill="#fff"/>
        <g id="Group_37310" data-name="Group 37310" transform="translate(104.953 477.972)" opacity="0.3">
          <g id="Group_37309" data-name="Group 37309">
            <g id="Group_37308" data-name="Group 37308" clip-path="url(#clip-path-9)">
              <path id="Path_38888" data-name="Path 38888" d="M648.118,1777.9a1.134,1.134,0,0,1-.253,1.336c-.71.65-1.45,1.289-2.2,1.9a1.135,1.135,0,1,1-1.43-1.762c.713-.579,1.418-1.187,2.1-1.807a1.135,1.135,0,0,1,1.6.07,1.149,1.149,0,0,1,.182.268" transform="translate(-567.621 -1755.174)" fill="#f3d33f"/>
              <path id="Path_38889" data-name="Path 38889" d="M446.558,1726.753a1.134,1.134,0,0,1-.419,1.461,49.26,49.26,0,0,1-4.363,2.423q-.47.23-.948.453a1.175,1.175,0,0,1-1.508-.551,1.135,1.135,0,0,1,.55-1.507q.457-.212.906-.432a47.2,47.2,0,0,0,4.162-2.311,1.135,1.135,0,0,1,1.563.361c.02.034.039.068.056.1m-10.684,4.963a1.181,1.181,0,0,1,.062.151,1.136,1.136,0,0,1-.73,1.43,49.18,49.18,0,0,1-5.849,1.5,1.135,1.135,0,0,1-.429-2.228,47.065,47.065,0,0,0,5.579-1.435,1.134,1.134,0,0,1,1.367.578m-11.568,2.224a1.149,1.149,0,0,1,.113.425,1.135,1.135,0,0,1-1.058,1.207,49,49,0,0,1-6.043.021,1.135,1.135,0,0,1,.133-2.265,46.582,46.582,0,0,0,5.762-.02,1.136,1.136,0,0,1,1.093.633m-11.761-.688a1.134,1.134,0,0,1-1.224,1.615,49.145,49.145,0,0,1-5.863-1.458,1.135,1.135,0,0,1,.683-2.164,46.8,46.8,0,0,0,5.59,1.391,1.132,1.132,0,0,1,.814.617m-11.236-3.54a1.135,1.135,0,0,1-1.489,1.533,49.712,49.712,0,0,1-5.329-2.837,1.135,1.135,0,0,1,1.186-1.934,47.234,47.234,0,0,0,5.085,2.706,1.132,1.132,0,0,1,.547.532m-10.035-6.159a1.135,1.135,0,0,1-1.726,1.387,48.912,48.912,0,0,1-4.476-4.05,1.135,1.135,0,0,1,1.624-1.585,46.525,46.525,0,0,0,4.267,3.862,1.124,1.124,0,0,1,.311.387m-8.223-8.423a1.134,1.134,0,0,1-1.923,1.184,49.123,49.123,0,0,1-3.347-5.027,1.135,1.135,0,0,1,1.963-1.14,46.683,46.683,0,0,0,3.191,4.8,1.141,1.141,0,0,1,.115.187m-7.887-15.752a1.156,1.156,0,0,1,.072.187,46.987,46.987,0,0,0,1.643,4.733c.094.236.19.466.288.694a1.135,1.135,0,0,1-2.087.893c-.1-.244-.206-.488-.3-.735a49.4,49.4,0,0,1-1.72-4.957,1.135,1.135,0,0,1,2.108-.815" transform="translate(-373.011 -1698.745)" fill="#f3d33f"/>
            </g>
          </g>
        </g>
        <g id="Group_37313" data-name="Group 37313" transform="translate(151.397 416.879)" opacity="0.3">
          <g id="Group_37312" data-name="Group 37312">
            <g id="Group_37311" data-name="Group 37311" clip-path="url(#clip-path-10)">
              <path id="Path_38890" data-name="Path 38890" d="M582.472,1508.45a1.135,1.135,0,0,1-2.031,1.012,46.95,46.95,0,0,0-2.861-4.889,1.135,1.135,0,0,1,1.886-1.263,49.408,49.408,0,0,1,3,5.126l.007.014m2.307,5.326a1.158,1.158,0,0,1,.048.113,49.6,49.6,0,0,1,1.694,5.694,1.135,1.135,0,0,1-2.21.516,47.452,47.452,0,0,0-1.616-5.434,1.135,1.135,0,0,1,2.084-.889m-8.756-14.95a1.134,1.134,0,0,1-1.876,1.241,47.048,47.048,0,0,0-3.961-4.054,1.135,1.135,0,0,1,1.525-1.681,49.276,49.276,0,0,1,4.151,4.25,1.14,1.14,0,0,1,.161.243m11.379,26.24a1.142,1.142,0,0,1,.11.379,48.7,48.7,0,0,1,.268,5.938,1.134,1.134,0,1,1-2.269-.036,46.584,46.584,0,0,0-.256-5.662,1.135,1.135,0,0,1,2.147-.62m-19.962-34.019a1.135,1.135,0,0,1-1.673,1.428,46.681,46.681,0,0,0-4.817-2.982,1.135,1.135,0,0,1,1.076-2,49.335,49.335,0,0,1,5.051,3.127,1.131,1.131,0,0,1,.363.426m-10.2-5.493a1.135,1.135,0,0,1-1.432,1.557,47.442,47.442,0,0,0-5.393-1.745,1.134,1.134,0,0,1,.566-2.2,49.6,49.6,0,0,1,5.653,1.828,1.132,1.132,0,0,1,.6.557m-11.222-2.892a1.135,1.135,0,0,1-1.168,1.624,46.4,46.4,0,0,0-5.653-.4,1.135,1.135,0,0,1,.022-2.269,49.1,49.1,0,0,1,5.929.419,1.135,1.135,0,0,1,.87.627" transform="translate(-538.075 -1481.617)" fill="#f3d33f"/>
              <path id="Path_38891" data-name="Path 38891" d="M706,1675.791a1.127,1.127,0,0,1,.1.656c-.134.962-.3,1.924-.485,2.86a1.135,1.135,0,0,1-2.226-.446c.18-.892.335-1.811.464-2.728a1.134,1.134,0,0,1,2.143-.341" transform="translate(-656.864 -1620.699)" fill="#f3d33f"/>
            </g>
          </g>
        </g>
        <path id="Path_38892" data-name="Path 38892" d="M482.521,1575.842a.575.575,0,0,0-.125-.655l-5.057-4.829a30.452,30.452,0,0,0,.375-9.861l5.4-4.433a.574.574,0,0,0,.174-.644l-2.916-7.864a.575.575,0,0,0-.552-.375l-6.986.161a30.446,30.446,0,0,0-6.713-7.233l.686-6.958a.575.575,0,0,0-.332-.579l-7.622-3.5a.575.575,0,0,0-.655.125l-4.829,5.057a30.454,30.454,0,0,0-9.861-.375l-4.433-5.4a.574.574,0,0,0-.644-.174l-7.864,2.916a.573.573,0,0,0-.374.552l.161,6.986a30.449,30.449,0,0,0-7.233,6.713l-6.958-.686a.575.575,0,0,0-.578.332l-3.5,7.623a.574.574,0,0,0,.125.655l5.057,4.829a30.445,30.445,0,0,0-.375,9.861l-5.4,4.433a.574.574,0,0,0-.174.644l2.916,7.864a.575.575,0,0,0,.552.375l6.986-.161a30.447,30.447,0,0,0,6.713,7.234l-.686,6.958a.574.574,0,0,0,.332.578l7.623,3.5a.574.574,0,0,0,.655-.125l4.829-5.057a30.454,30.454,0,0,0,9.861.375l4.433,5.4a.574.574,0,0,0,.644.174l7.864-2.916a.575.575,0,0,0,.375-.552l-.161-6.986a30.465,30.465,0,0,0,7.233-6.713l6.958.686a.574.574,0,0,0,.578-.332Z" transform="translate(-295.56 -1098.264)" fill="#6c63f8"/>
        <path id="Path_38893" data-name="Path 38893" d="M525.112,1630.6a8.607,8.607,0,1,1-.642-1.1,8.722,8.722,0,0,1,.642,1.1m-13.384,6.541a6.411,6.411,0,0,0,.468.8,6.313,6.313,0,1,0-.468-.8" transform="translate(-365.655 -1168.341)" fill="#fff"/>
        <path id="Path_38894" data-name="Path 38894" d="M503.276,1592.061a21.719,21.719,0,0,1,.857,2,21.482,21.482,0,0,1,1.094,4.215l.028.194a1.134,1.134,0,1,1-2.246.323,19.172,19.172,0,0,0-1-3.942h0c-.026-.07-.053-.14-.079-.209a18.914,18.914,0,0,0-5.383-7.651,19.2,19.2,0,0,0-4.323-2.787l-.038-.018-.118-.054a18.98,18.98,0,0,0-14.611-.55,19.422,19.422,0,0,0-1.807.775,19.1,19.1,0,1,0,23.346,29.1,1.12,1.12,0,0,1,.385-.309,1.134,1.134,0,0,1,1.385,1.728,21.374,21.374,0,1,1-26.119-32.555,21.9,21.9,0,0,1,2.021-.867,21.4,21.4,0,0,1,26.613,10.612" transform="translate(-332.519 -1135.522)" fill="#fff"/>
      </g>
    </g>
    <g id="Group_37317" data-name="Group 37317" transform="translate(339.044 356.874)">
      <g id="Group_37316" data-name="Group 37316" clip-path="url(#clip-path-11)">
        <rect id="Rectangle_4940" data-name="Rectangle 4940" width="113.774" height="112.416" transform="translate(-40.274 54.205) rotate(-53.388)" fill="url(#linear-gradient)"/>
      </g>
    </g>
    <g id="Group_37319" data-name="Group 37319">
      <g id="Group_37318" data-name="Group 37318" clip-path="url(#clip-path-2)">
        <path id="Path_38896" data-name="Path 38896" d="M1218.622,1514.175a5.81,5.81,0,0,1,3.371,3.057,2.566,2.566,0,0,1-.965,2.957c-4.147,2.971-17.825,12.563-24.138,14.441a.714.714,0,0,1-.893-.841c.324-1.466,1.372-4.395,4.747-8.682l-.3.613a.877.877,0,0,0,1.214,1.157c4.222-2.383,12.821-7.6,16.967-12.7" transform="translate(-859.47 -1088.135)" fill="#333435"/>
      </g>
    </g>
    <g id="Group_37321" data-name="Group 37321" transform="translate(355.859 365.008)">
      <g id="Group_37320" data-name="Group 37320" clip-path="url(#clip-path-13)">
        <rect id="Rectangle_4942" data-name="Rectangle 4942" width="97.796" height="70.724" transform="translate(-5.744 93.634) rotate(-86.489)" fill="url(#linear-gradient-2)"/>
      </g>
    </g>
    <g id="Group_37323" data-name="Group 37323">
      <g id="Group_37322" data-name="Group 37322" clip-path="url(#clip-path-2)">
        <path id="Path_38898" data-name="Path 38898" d="M1277.522,1564.759a5.811,5.811,0,0,1,3.92,2.311,2.566,2.566,0,0,1-.347,3.091c-3.46,3.749-14.915,15.91-20.716,19.027a.714.714,0,0,1-1.045-.643c.021-1.5.454-4.582,2.892-9.463l-.173.661a.877.877,0,0,0,1.423.888c3.652-3.188,11.018-10.037,14.045-15.873" transform="translate(-904.999 -1124.487)" fill="#333435"/>
        <path id="Path_38899" data-name="Path 38899" d="M1432.645,1276.784s10.405,15.476,11.259,22.535-2.877,9.5-13.768,10.4c-32.408,2.679-48.384-7.034-48.384-7.034-2.217-14.135-3.794-17.731-22.31-25.417,0,0,23.419,1.859,28.132.03s45.071-.516,45.071-.516" transform="translate(-976.939 -917.211)" fill="#74767b"/>
        <path id="Path_38900" data-name="Path 38900" d="M1477.847,965.983s5.474,1,7.114,3.441c1.315,1.962,6.721.75,8.436,4.852a5.063,5.063,0,0,0,5.279,3.145c5.676-.688,14.853-.207,18.837,8.866,3.041,6.926.129,10.689-3.464,12.714a5.675,5.675,0,0,0-2.379,7.472c1.317,2.591,1.384,5.992-2.668,9.83-9.082,8.6-25.018-7.363-25.018-7.363l-11.429-32.461Z" transform="translate(-1058.224 -694.187)" fill="#333435"/>
        <path id="Path_38901" data-name="Path 38901" d="M1464.688,1127.388s-12.117-11.537-18.081-19.179a16.212,16.212,0,0,1-2.746-14.592c2.723-9.174,7.562-18.676,8-20.155.677-2.267,14.263-2.172,14.263-2.172s26.734,17.351,37.238,46.742l-11.8,3.673s-6.98-11.711-13.877-19.156c0,0,11.934,15.766,12.355,22.22Z" transform="translate(-1037.121 -769.863)" fill="#97a85e"/>
      </g>
    </g>
    <g id="Group_37325" data-name="Group 37325" transform="translate(404.48 348.168)">
      <g id="Group_37324" data-name="Group 37324" clip-path="url(#clip-path-15)">
        <rect id="Rectangle_4944" data-name="Rectangle 4944" width="65.597" height="39.973" transform="translate(-5.611 2.447) rotate(-23.561)" fill="url(#linear-gradient-3)"/>
      </g>
    </g>
    <g id="Group_37327" data-name="Group 37327" transform="translate(414.122 282.322)">
      <g id="Group_37326" data-name="Group 37326" clip-path="url(#clip-path-16)">
        <rect id="Rectangle_4945" data-name="Rectangle 4945" width="21.983" height="27.208" transform="matrix(0.94, -0.34, 0.34, 0.94, -7.714, 2.725)" fill="url(#linear-gradient-4)"/>
      </g>
    </g>
    <g id="Group_37329" data-name="Group 37329" transform="translate(403.089 272.267)">
      <g id="Group_37328" data-name="Group 37328" clip-path="url(#clip-path-17)">
        <rect id="Rectangle_4946" data-name="Rectangle 4946" width="27.604" height="23.199" transform="translate(-4.865 24.584) rotate(-81.978)" fill="url(#linear-gradient-5)"/>
      </g>
    </g>
    <g id="Group_37331" data-name="Group 37331">
      <g id="Group_37330" data-name="Group 37330" clip-path="url(#clip-path-2)">
        <path id="Path_38905" data-name="Path 38905" d="M1431.609,958.766s-5.075-10.932-12.342-3.969l-.527,2.841s-7.046-1.9-4.834-8.288,9.009-9.6,16.575-5.588,11.714,7.6,11.4,13.392-4.081,3.622-4.081,3.622-1.5-3.988-3.551-4.715-1.958,2.495-1.958,2.495Z" transform="translate(-1015.77 -676.946)" fill="#333435"/>
      </g>
    </g>
    <g id="Group_37333" data-name="Group 37333" transform="translate(416.592 276.061)">
      <g id="Group_37332" data-name="Group 37332" clip-path="url(#clip-path-19)">
        <rect id="Rectangle_4948" data-name="Rectangle 4948" width="8.404" height="8.077" transform="translate(-2.738 7.339) rotate(-81.977)" fill="url(#linear-gradient-6)"/>
      </g>
    </g>
    <g id="Group_37335" data-name="Group 37335">
      <g id="Group_37334" data-name="Group 37334" clip-path="url(#clip-path-2)">
        <path id="Path_38907" data-name="Path 38907" d="M1432.677,1291.1c-.032,0-.064,0-.1,0l-41.876-.046a1.874,1.874,0,0,1,0-3.749l41.876.046a1.874,1.874,0,0,1,.092,3.746" transform="translate(-998.06 -925.099)" fill="#333435"/>
        <path id="Path_38908" data-name="Path 38908" d="M1254.574,1165.654h34.875a6.647,6.647,0,0,1,6.012,3.812l16.122,34.187h-43.34a4.039,4.039,0,0,1-3.757-2.555l-12.5-31.635a2.785,2.785,0,0,1,2.59-3.809" transform="translate(-899.574 -837.677)" fill="#333435"/>
        <path id="Path_38909" data-name="Path 38909" d="M1334.8,1219.031c.756,2.348.2,4.628-1.247,5.093s-3.228-1.061-3.984-3.41-.2-4.628,1.247-5.093,3.228,1.062,3.984,3.41" transform="translate(-955.226 -873.525)" fill="#5c5e61"/>
      </g>
    </g>
  </g>
</svg>
