<svg xmlns="http://www.w3.org/2000/svg" xmlns:xlink="http://www.w3.org/1999/xlink" width="371.551" height="340.1" viewBox="0 0 371.551 340.1">
  <defs>
    <clipPath id="clip-path">
      <rect id="Rectangle_7800" data-name="Rectangle 7800" width="371.551" height="340.1" fill="none"/>
    </clipPath>
  </defs>
  <g id="Group_41570" data-name="Group 41570" transform="translate(0 0)">
    <rect id="Rectangle_7783" data-name="Rectangle 7783" width="160.305" height="5.918" transform="translate(27.425 242.973) rotate(-0.153)" fill="#a9e8ef"/>
    <rect id="Rectangle_7784" data-name="Rectangle 7784" width="160.303" height="5.918" transform="translate(60.692 226.478) rotate(-0.153)" fill="#a9e8ef"/>
    <rect id="Rectangle_7785" data-name="Rectangle 7785" width="160.305" height="5.916" transform="translate(0 210.882) rotate(-0.115)" fill="#a9e8ef"/>
    <rect id="Rectangle_7786" data-name="Rectangle 7786" width="160.305" height="5.918" transform="matrix(1, -0.001, 0.001, 1, 82.614, 193.854)" fill="#a9e8ef"/>
    <g id="Group_41569" data-name="Group 41569" transform="translate(0 0)">
      <g id="Group_41568" data-name="Group 41568" clip-path="url(#clip-path)">
        <path id="Path_86465" data-name="Path 86465" d="M73.261,30.711c4.981-1,15.063-1.743,24.528-1.743,11.58,0,18.676,1.119,24.777,4.732a18.259,18.259,0,0,1,10.085,16.435c0,7.472-4.357,14.442-13.817,17.929v.253c9.587,2.617,16.684,9.836,16.684,20.669a22.361,22.361,0,0,1-8.717,17.807c-6.1,4.855-16.312,7.6-32.992,7.6a146.866,146.866,0,0,1-20.546-1.249Zm18.8,32.126h6.227c9.963,0,15.316-4.112,15.316-10.334,0-6.353-4.855-9.71-13.454-9.71a51.927,51.927,0,0,0-8.089.494Zm0,37.23a58.9,58.9,0,0,0,7.346.253c8.591,0,16.186-3.242,16.186-12.082,0-8.468-7.595-11.829-17.059-11.829H92.06Z" transform="translate(216.377 85.558)" fill="#80d2d6"/>
        <rect id="Rectangle_7787" data-name="Rectangle 7787" width="8.848" height="20.863" transform="translate(299.174 102.499)" fill="#80d2d6"/>
        <rect id="Rectangle_7788" data-name="Rectangle 7788" width="8.848" height="20.863" transform="translate(318.139 102.499)" fill="#80d2d6"/>
        <rect id="Rectangle_7789" data-name="Rectangle 7789" width="8.848" height="20.863" transform="translate(299.174 189.745)" fill="#80d2d6"/>
        <rect id="Rectangle_7790" data-name="Rectangle 7790" width="8.848" height="20.863" transform="translate(318.139 189.745)" fill="#80d2d6"/>
        <path id="Path_86466" data-name="Path 86466" d="M21.912,17.707a121.757,121.757,0,0,1,19.8-1.407c9.342,0,15.071.9,19.993,3.815a14.749,14.749,0,0,1,8.144,13.268c0,6.029-3.523,11.655-11.157,14.466v.2c7.737,2.115,13.466,7.939,13.466,16.684a18.048,18.048,0,0,1-7.033,14.371c-4.922,3.918-13.165,6.132-26.631,6.132a118.338,118.338,0,0,1-16.581-1.012ZM37.086,43.631H42.11c8.041,0,12.359-3.313,12.359-8.338,0-5.124-3.918-7.84-10.852-7.84a41.734,41.734,0,0,0-6.531.4Zm0,30.047a48.178,48.178,0,0,0,5.93.2c6.93,0,13.062-2.609,13.062-9.749,0-6.832-6.132-9.544-13.766-9.544H37.086Z" transform="translate(64.717 48.143)" fill="#a9e8ef"/>
        <rect id="Rectangle_7791" data-name="Rectangle 7791" width="7.14" height="16.838" transform="translate(94.331 54.732)" fill="#a9e8ef"/>
        <rect id="Rectangle_7792" data-name="Rectangle 7792" width="7.144" height="16.838" transform="translate(109.635 54.732)" fill="#a9e8ef"/>
        <rect id="Rectangle_7793" data-name="Rectangle 7793" width="7.14" height="16.834" transform="translate(94.331 125.14)" fill="#a9e8ef"/>
        <rect id="Rectangle_7794" data-name="Rectangle 7794" width="7.144" height="16.834" transform="translate(109.635 125.14)" fill="#a9e8ef"/>
        <path id="Path_86467" data-name="Path 86467" d="M287.969,94.283c0,9.224-61.742,16.7-137.91,16.7s-137.91-7.48-137.91-16.7,61.742-16.712,137.91-16.712,137.91,7.484,137.91,16.712" transform="translate(35.882 229.111)" fill="#d0cfd9"/>
        <path id="Path_86468" data-name="Path 86468" d="M244.084,137.982A109.216,109.216,0,1,1,134.873,28.766,109.211,109.211,0,0,1,244.084,137.982" transform="translate(75.766 84.962)" fill="#f3a43d"/>
        <path id="Path_86469" data-name="Path 86469" d="M234.383,133.835A103.663,103.663,0,1,1,130.722,30.17,103.664,103.664,0,0,1,234.383,133.835" transform="translate(79.913 89.108)" fill="#fed150"/>
        <path id="Path_86470" data-name="Path 86470" d="M195.99,117.419a81.687,81.687,0,1,1-81.683-81.691,81.686,81.686,0,0,1,81.683,81.691" transform="translate(96.329 105.524)" fill="#f3a43d"/>
        <path id="Path_86471" data-name="Path 86471" d="M189.978,115.717a78.246,78.246,0,1,1-78.244-78.248,78.246,78.246,0,0,1,78.244,78.248" transform="translate(98.901 110.666)" fill="#ffe984"/>
        <path id="Path_86472" data-name="Path 86472" d="M45.8,47.225c5.242-1.048,15.869-1.834,25.836-1.834,12.2,0,19.677,1.178,26.1,4.981a19.241,19.241,0,0,1,10.623,17.312c0,7.871-4.594,15.217-14.557,18.89v.265c10.1,2.756,17.573,10.362,17.573,21.772a23.547,23.547,0,0,1-9.18,18.755c-6.424,5.116-17.182,8.006-34.759,8.006A154.351,154.351,0,0,1,45.8,134.056ZM65.6,81.067h6.559c10.493,0,16.134-4.329,16.134-10.888,0-6.689-5.12-10.228-14.169-10.228a54.131,54.131,0,0,0-8.524.526Zm0,39.219a63.374,63.374,0,0,0,7.737.261c9.05,0,17.051-3.408,17.051-12.722,0-8.919-8-12.461-17.969-12.461H65.6Z" transform="translate(135.259 134.064)" fill="#f3a43d"/>
        <rect id="Rectangle_7795" data-name="Rectangle 7795" width="9.318" height="21.978" transform="translate(191.105 166.779)" fill="#f3a43d"/>
        <rect id="Rectangle_7796" data-name="Rectangle 7796" width="9.326" height="21.978" transform="translate(211.078 166.779)" fill="#f3a43d"/>
        <rect id="Rectangle_7797" data-name="Rectangle 7797" width="9.318" height="21.974" transform="translate(191.105 258.682)" fill="#f3a43d"/>
        <rect id="Rectangle_7798" data-name="Rectangle 7798" width="9.326" height="21.974" transform="translate(211.078 258.682)" fill="#f3a43d"/>
        <path id="Path_86473" data-name="Path 86473" d="M37.455,41.632c1.313-1.38,3.479-6.776,3.479-6.776s2.443,5.274,3.827,6.583,6.78,3.475,6.78,3.475-5.274,2.447-6.587,3.831-3.475,6.776-3.475,6.776-2.447-5.27-3.831-6.583-6.776-3.475-6.776-3.475,5.274-2.447,6.583-3.831" transform="translate(91.181 102.949)" fill="#f7f7fc"/>
        <path id="Path_86474" data-name="Path 86474" d="M44.85,32.929c1.309-1.384,3.471-6.776,3.471-6.776s2.451,5.27,3.835,6.583,6.772,3.475,6.772,3.475-5.266,2.451-6.579,3.831-3.475,6.776-3.475,6.776-2.451-5.274-3.831-6.583-6.776-3.475-6.776-3.475,5.274-2.451,6.583-3.831" transform="translate(113.022 77.244)" fill="#f7f7fc"/>
        <path id="Path_86475" data-name="Path 86475" d="M27.009,48.19c1.309-1.384,3.479-6.776,3.479-6.776S32.931,46.688,34.315,48s6.776,3.475,6.776,3.475-5.27,2.451-6.583,3.831-3.475,6.776-3.475,6.776S28.586,56.809,27.2,55.5s-6.776-3.475-6.776-3.475,5.274-2.447,6.583-3.831" transform="translate(60.328 122.318)" fill="#f7f7fc"/>
        <path id="Path_86476" data-name="Path 86476" d="M29.62,58.81c1.313-1.38,3.475-6.776,3.475-6.776s2.451,5.27,3.831,6.583S43.7,62.092,43.7,62.092s-5.274,2.451-6.583,3.831S33.644,72.7,33.644,72.7s-2.447-5.27-3.831-6.583-6.772-3.475-6.772-3.475,5.27-2.447,6.579-3.831" transform="translate(68.052 153.684)" fill="#f7f7fc"/>
        <path id="Path_86477" data-name="Path 86477" d="M32.474,77.293c0,6.48-4.1,9.864-8.583,9.864-4.717,0-8.437-3.527-8.437-9.342,0-5.527,3.384-9.726,8.678-9.726,5.337,0,8.342,3.91,8.342,9.2m-11.635.332c0,3.242,1.1,5.574,3.2,5.574,2.048,0,3.044-2.1,3.044-5.574,0-3.147-.854-5.578-3.1-5.578-2.143,0-3.147,2.479-3.147,5.578m3.432,22.5L42.053,68.089h3.906L28.133,100.12ZM54.78,90.161c0,6.48-4.1,9.864-8.583,9.864-4.669,0-8.389-3.527-8.437-9.342,0-5.527,3.38-9.722,8.678-9.722,5.337,0,8.342,3.906,8.342,9.2M43.2,90.493c-.047,3.242,1.048,5.574,3.147,5.574,2.048,0,3.052-2.1,3.052-5.574,0-3.147-.814-5.578-3.052-5.578-2.194,0-3.147,2.483-3.147,5.578" transform="translate(45.643 201.102)" fill="#80d2d6"/>
        <path id="Path_86478" data-name="Path 86478" d="M101.05,64.126c0,6.48-4.1,9.864-8.579,9.864-4.717,0-8.437-3.527-8.437-9.342,0-5.527,3.38-9.726,8.678-9.726,5.337,0,8.338,3.91,8.338,9.2m-11.631.332c0,3.242,1.1,5.574,3.194,5.574,2.048,0,3.048-2.1,3.048-5.574,0-3.147-.854-5.578-3.1-5.578-2.143,0-3.147,2.479-3.147,5.578m3.432,22.5,17.779-32.031h3.91L96.713,86.953Zm30.505-9.963c0,6.484-4.1,9.868-8.579,9.868-4.673,0-8.389-3.53-8.437-9.342,0-5.527,3.38-9.722,8.678-9.722,5.333,0,8.338,3.906,8.338,9.2m-11.58.336c-.051,3.242,1.048,5.574,3.143,5.574,2.052,0,3.052-2.1,3.052-5.574,0-3.147-.81-5.578-3.052-5.578-2.19,0-3.143,2.483-3.143,5.578" transform="translate(248.195 162.214)" fill="#a9e8ef"/>
        <path id="Path_86479" data-name="Path 86479" d="M63.375,46.96l3.183,6.247-6.1,1.989L56.749,46.96Z" transform="translate(167.608 138.699)" fill="#ffd9a7"/>
        <path id="Path_86480" data-name="Path 86480" d="M47.1,51.977l-3.266,6.2-4.8-4.491,4.562-7.729Z" transform="translate(115.281 135.72)" fill="#ffd9a7"/>
        <path id="Path_86481" data-name="Path 86481" d="M139.769,23.581S134.78,39.269,112.2,42.89L74.521,64.741S61.363,103.386,48.934,117.01c-4.764,5.219-10.161-1.245-9.587-3.981,4.029-19.273,12.62-57.607,28.868-72.638a76.047,76.047,0,0,1,29.671-16.81Z" transform="translate(116.086 69.648)" fill="#afae35"/>
        <path id="Path_86482" data-name="Path 86482" d="M116.047,23.581S124,50.271,99.616,55.952l-29.1,3.4S89.713,97.211,93.1,115.3c.494,2.629-6.772,6.393-9.809,3.333C69.7,104.9,40.705,71.039,48.711,49.7c4.4-11.722,42.417-22.144,42.417-22.144Z" transform="translate(139.808 69.648)" fill="#d8d844"/>
        <path id="Path_86483" data-name="Path 86483" d="M67.83,49.981s3.776,2.285,5.827-2.194c0,0,7.678,7.456,1.779,12.212s-18.087,9.362-20.744,7.1C50.878,63.834,60.54,55.231,67.83,49.981" transform="translate(158.99 141.14)" fill="#6b5a84"/>
        <path id="Path_86484" data-name="Path 86484" d="M54.8,51.168a4.773,4.773,0,0,0,5.491,3.942s-1.455,11.845-8.642,8.99-17.9-11.679-17.645-15.434c.372-5.408,12.406-1.372,20.8,2.5" transform="translate(100.425 135.996)" fill="#6b5a84"/>
        <path id="Path_86485" data-name="Path 86485" d="M89.628,9.2c1.8-1.309,5.543-3.262,6.915,1.53s-13.054,29.489-17.5,33.229-33.775,11.7-33.775,11.7-3.175-.348-.862-4.195L72.28,38.879S83.4,13.723,89.628,9.2" transform="translate(128.665 22.658)" fill="#9991e2"/>
        <path id="Path_86486" data-name="Path 86486" d="M85.885,11.477C92.82,17.261,98.371,30.8,99.525,74.5c.253,9.615-43.734,7.6-43.548-2.016.486-25.579-9.093-42.947,3.906-59.548,0,0,12.252-12.924,26-1.459" transform="translate(156.627 19.891)" fill="#b1a6f2"/>
        <path id="Path_86487" data-name="Path 86487" d="M66.691,3.784s-2.677,7.14,0,11.714C68.4,18.4,55.554,28.177,55.827,24.263c.356-5.053,2.76-8.152.02-13.829Z" transform="translate(164.873 11.177)" fill="#efc18f"/>
        <path id="Path_86488" data-name="Path 86488" d="M59.685,2.447c-4.076,4.238-7.8,22.207-3.111,25.888,2.04,1.6,10.01-.72,14.719-8.761,1.937-3.3,4.23-9.421.684-15.3-1.6-2.661-7.547-6.757-12.291-1.823" transform="translate(160.648 0.397)" fill="#ffd9a8"/>
        <path id="Path_86489" data-name="Path 86489" d="M53.97,4.914S56.152,7.97,62.9,8.658s7.864.186,7.263,1.819c-1.767,4.784,3.25,4.76,1.083,10.477s2.143.589,2.74-.281S80.122,12.7,75.9,4.784,59.667.126,53.97,4.914" transform="translate(159.401 0.001)" fill="#9b4d34"/>
        <rect id="Rectangle_7799" data-name="Rectangle 7799" width="63.462" height="4.804" transform="translate(177.552 98.474)" fill="#ffe9ba"/>
        <path id="Path_86490" data-name="Path 86490" d="M93.44,48.315h-45.2L41.6,18.608H84.521Z" transform="translate(122.86 54.961)" fill="#725559"/>
        <path id="Path_86491" data-name="Path 86491" d="M62.258,24.577s-12.513,4.1-8.544,5.175,7.365,1.823,11.77-2.973Z" transform="translate(156.348 72.59)" fill="#efc18f"/>
        <path id="Path_86492" data-name="Path 86492" d="M72.637,12.546c.763-2.091,3.25-6.282,6.59-2.578,5.29,5.887,5.563,31.762,3.957,37.345S58.539,75.067,58.539,75.067s-3.376-.138-3.376-3.463L75.018,44.518s-5.029-24.745-2.38-31.972" transform="translate(162.924 25.088)" fill="#9991e2"/>
        <path id="Path_86493" data-name="Path 86493" d="M60.63,5.782,56.2,14.037l4.432,6.571L65.809,13.2Z" transform="translate(165.983 17.079)" fill="#f7f7fc"/>
        <path id="Path_86494" data-name="Path 86494" d="M59.251,9.532,56.665,38.74l5.037,12.6,5.472-12.6Z" transform="translate(167.362 28.153)" fill="#f7f7fc"/>
      </g>
    </g>
  </g>
</svg>
