<svg xmlns="http://www.w3.org/2000/svg" width="37" height="37" viewBox="0 0 37 37">
  <g id="Group_25" data-name="Group 25" transform="translate(-1747 -5783)">
    <g id="Group_24" data-name="Group 24" transform="translate(1820 91)">
      <circle id="Ellipse_14" data-name="Ellipse 14" cx="18.5" cy="18.5" r="18.5" transform="translate(-73 5692)" fill="#f9b2b2"/>
    </g>
    <g id="briefcase" transform="translate(1741.225 6257.916)">
      <path id="Path_78" data-name="Path 78" d="M22.361-463.864a1.8,1.8,0,0,0-1.27,1.277,2.92,2.92,0,0,0-.055.609v.394H19.183a13.488,13.488,0,0,0-2.068.055,1.791,1.791,0,0,0-1.277,1.284c-.084.314-.084,9.85,0,10.164a1.806,1.806,0,0,0,1.339,1.3c.139.029,2.324.04,7.453.033l7.26-.011.212-.08a1.905,1.905,0,0,0,1.153-1.317c.055-.27.058-9.733,0-10.01a1.848,1.848,0,0,0-1.375-1.375c-.124-.026-.828-.04-2.014-.04H28.041v-.394a1.977,1.977,0,0,0-.223-1.032,1.844,1.844,0,0,0-1.2-.872c-.12-.022-.956-.036-2.134-.033A15.536,15.536,0,0,0,22.361-463.864Zm4.272,1.237c.193.146.241.285.241.7v.347H22.2v-.357c0-.46.073-.635.3-.737.15-.069.237-.073,2.076-.062l1.919.007Zm5.253,2.335c.233.179.244.23.233,1.342l-.011.992-3.079.868-3.075.872-.208-.2a1.7,1.7,0,0,0-2.178-.186,1.7,1.7,0,0,0-.314.285l-.124.161-1.364-.4c-.752-.222-2.138-.627-3.083-.9l-1.715-.5-.011-.963c-.011-1.018.007-1.167.146-1.3.223-.208-.332-.193,7.475-.182l7.172.007Zm-12.017,4.4c1.536.445,2.816.813,2.849.824s.069.091.1.233a1.742,1.742,0,0,0,1.306,1.368,1.754,1.754,0,0,0,2.138-1.357c.022-.117.044-.215.044-.219s1.31-.387,4.035-1.175c.912-.266,1.689-.489,1.726-.5.058-.018.062.15.062,3.141a29.077,29.077,0,0,1-.051,3.276.718.718,0,0,1-.361.35c-.146.055-14.206.055-14.352,0A.718.718,0,0,1,17-450.3a29.079,29.079,0,0,1-.051-3.276c0-2.991,0-3.159.066-3.141C17.049-456.706,18.333-456.338,19.869-455.893Zm4.863.2a.728.728,0,0,1,.233.179.511.511,0,0,1-.062.77.509.509,0,0,1-.781-.051.524.524,0,0,1-.033-.726A.524.524,0,0,1,24.732-455.7Z" transform="translate(0 0)"/>
    </g>
  </g>
</svg>
