<svg xmlns="http://www.w3.org/2000/svg" width="37" height="37" viewBox="0 0 37 37">
  <g id="Group_23" data-name="Group 23" transform="translate(73 -5692)">
    <circle id="Ellipse_14" data-name="Ellipse 14" cx="18.5" cy="18.5" r="18.5" transform="translate(-73 5692)" fill="#99e6b4"/>
    <g id="dollar" transform="translate(-171 6211.575)">
      <path id="Path_77" data-name="Path 77" d="M116.1-511.955a.881.881,0,0,0-.427.388,2.981,2.981,0,0,0-.1,1.063l-.022.937-.523.074a5.959,5.959,0,0,0-3.407,1.534,4.186,4.186,0,0,0-1.368,3.211,3.645,3.645,0,0,0,1.168,2.88,5.722,5.722,0,0,0,1.486.985,25.531,25.531,0,0,0,2.427.845l.218.065.013,2.8.009,2.806-.253-.031a7.391,7.391,0,0,1-3.338-1.477,1.131,1.131,0,0,0-1.124-.318,1.211,1.211,0,0,0-.863,1.15c0,.444.113.645.6,1.041a8.745,8.745,0,0,0,3.15,1.6,9.436,9.436,0,0,0,1.438.24c.418,0,.392-.061.392.915,0,.815,0,.867.1,1.05a.88.88,0,0,0,1.364.244c.283-.244.3-.3.314-1.3l.017-.9.248-.026c2.366-.248,4.031-1.316,4.732-3.037a5.553,5.553,0,0,0,.2-3.377c-.505-1.664-1.865-2.7-4.593-3.495l-.571-.17-.013-2.484-.009-2.484.292.065a6.786,6.786,0,0,1,2.24.954c.549.366.667.418.959.414a1.178,1.178,0,0,0,1.181-1.177c0-.5-.2-.754-1.007-1.29a7.527,7.527,0,0,0-3.412-1.224l-.3-.026v-.937c0-.828-.009-.95-.083-1.094A.888.888,0,0,0,116.1-511.955Zm-.523,6.924a10.318,10.318,0,0,1-.061,2.288,9.078,9.078,0,0,1-1.5-.549,2.129,2.129,0,0,1-1.059-1,1.529,1.529,0,0,1-.1-.671,1.972,1.972,0,0,1,.688-1.56,3.613,3.613,0,0,1,1.952-.789C115.573-507.318,115.577-507.183,115.577-505.031Zm2.492,5.821c1.4.492,2.009,1.124,2.07,2.139a2.422,2.422,0,0,1-1.512,2.4,5.708,5.708,0,0,1-1.181.336c-.078,0-.083-.087-.083-2.549v-2.549l.122.026C117.551-499.388,117.813-499.3,118.07-499.209Z"/>
    </g>
  </g>
</svg>
