<svg id="Group_39081" data-name="Group 39081" xmlns="http://www.w3.org/2000/svg" xmlns:xlink="http://www.w3.org/1999/xlink" width="556.587" height="376.871" viewBox="0 0 556.587 376.871">
  <defs>
    <clipPath id="clip-path">
      <rect id="Rectangle_6230" data-name="Rectangle 6230" width="556.587" height="376.871" fill="none"/>
    </clipPath>
    <clipPath id="clip-path-3">
      <path id="Path_68576" data-name="Path 68576" d="M268.371,64.362s3.394.514,3.194-2.238c-.158-2.183-3.832-3.053-3.832-3.053-2.567,2.661.638,5.291.638,5.291" transform="translate(-266.736 -59.071)" fill="none"/>
    </clipPath>
  </defs>
  <g id="Group_39074" data-name="Group 39074">
    <g id="Group_39073" data-name="Group 39073" clip-path="url(#clip-path)">
      <path id="Path_68526" data-name="Path 68526" d="M349.147,229.1a14.146,14.146,0,1,1-20.005,0,14.145,14.145,0,0,1,20.005,0" transform="translate(129.883 89.901)" fill="#eef2ff"/>
      <path id="Path_68527" data-name="Path 68527" d="M95.8,87.249A52.963,52.963,0,1,1,29.767,122.6,52.961,52.961,0,0,1,95.8,87.249" transform="translate(10.983 33.956)" fill="#eef2ff"/>
      <path id="Path_68528" data-name="Path 68528" d="M25.438,181.539a4.955,4.955,0,1,1-4.955-4.955,4.955,4.955,0,0,1,4.955,4.955" transform="translate(6.205 70.57)" fill="#6473f9"/>
      <path id="Path_68529" data-name="Path 68529" d="M391.98,148.846a5.806,5.806,0,1,1-5.806-5.806,5.806,5.806,0,0,1,5.806,5.806" transform="translate(152.011 57.165)" fill="#f5db4a"/>
      <path id="Path_68530" data-name="Path 68530" d="M211.007,5.482A5.481,5.481,0,1,1,205.526,0a5.481,5.481,0,0,1,5.481,5.481" transform="translate(79.946 0)" fill="#6473f9"/>
      <path id="Path_68531" data-name="Path 68531" d="M131.051,238.986a12.429,12.429,0,1,1-12.429-12.429,12.429,12.429,0,0,1,12.429,12.429" transform="translate(42.439 90.542)" fill="#eef2ff"/>
      <path id="Path_68532" data-name="Path 68532" d="M401.2,51.3A47.471,47.471,0,1,1,353.724,3.828,47.471,47.471,0,0,1,401.2,51.3" transform="translate(122.392 1.53)" fill="#eef2ff"/>
      <path id="Path_68533" data-name="Path 68533" d="M83.782,224.958l-42.643-6.339,15.8,41.736Z" transform="translate(16.441 87.37)" fill="#a1aeef"/>
      <path id="Path_68534" data-name="Path 68534" d="M450.129,249.93V57.438a31.917,31.917,0,0,0-31.916-31.917H89.165A31.917,31.917,0,0,0,57.249,57.438V249.93a31.916,31.916,0,0,0,31.916,31.916H418.213a31.916,31.916,0,0,0,31.916-31.916" transform="translate(22.879 10.199)" fill="#d8dcfd"/>
      <path id="Path_68535" data-name="Path 68535" d="M437.122,247.335V54.463a21.972,21.972,0,0,0-21.973-21.972H87.575A21.971,21.971,0,0,0,65.6,54.463V247.335a21.972,21.972,0,0,0,21.972,21.973H415.149a21.974,21.974,0,0,0,21.973-21.973" transform="translate(26.217 12.985)" fill="#fff"/>
      <rect id="Rectangle_6227" data-name="Rectangle 6227" width="161.408" height="171.637" rx="8.697" transform="translate(118.478 75.432)" fill="none" stroke="#d8dcfd" stroke-width="0.964"/>
      <path id="Rectangle_6228" data-name="Rectangle 6228" d="M8.7,0H142.749a8.7,8.7,0,0,1,8.7,8.7V89.864a8.7,8.7,0,0,1-8.7,8.7H8.7a8.7,8.7,0,0,1-8.7-8.7V8.7A8.7,8.7,0,0,1,8.7,0Z" transform="translate(293.53 75.432)" fill="none" stroke="#d8dcfd" stroke-width="0.964"/>
      <path id="Rectangle_6229" data-name="Rectangle 6229" d="M8.7,0H142.749a8.7,8.7,0,0,1,8.7,8.7v41.79a8.7,8.7,0,0,1-8.7,8.7H8.7a8.7,8.7,0,0,1-8.7-8.7V8.7A8.7,8.7,0,0,1,8.7,0Z" transform="translate(293.53 187.725)" fill="none" stroke="#d8dcfd" stroke-width="0.964"/>
      <path id="Path_68536" data-name="Path 68536" d="M214.381,166.6h-110a5.037,5.037,0,0,1-5.037-5.037v-22.1a5.037,5.037,0,0,1,5.037-5.037h110a5.037,5.037,0,0,1,5.037,5.037v22.1a5.037,5.037,0,0,1-5.037,5.037" transform="translate(39.703 53.719)" fill="#9a7ee8"/>
    </g>
  </g>
  <text id="Shop_now" data-name="Shop now" transform="translate(163.428 207.866)" fill="#fff" font-size="12" font-family="Montserrat-Black, Montserrat" font-weight="800"><tspan x="0" y="0">S</tspan><tspan y="0" letter-spacing="0.01em">h</tspan><tspan y="0">op </tspan><tspan y="0" letter-spacing="0.009em">n</tspan><tspan y="0" letter-spacing="-0.015em">o</tspan><tspan y="0">w</tspan></text>
  <g id="Group_39076" data-name="Group 39076">
    <g id="Group_39075" data-name="Group 39075" clip-path="url(#clip-path)">
      <path id="Path_68537" data-name="Path 68537" d="M212.841,149.779H105.925a6.576,6.576,0,0,1-6.578-6.576V71.3a6.579,6.579,0,0,1,6.578-6.578H212.841a6.578,6.578,0,0,1,6.577,6.578v71.9a6.576,6.576,0,0,1-6.577,6.576" transform="translate(39.703 25.865)" fill="#a1aeef"/>
      <path id="Path_68538" data-name="Path 68538" d="M166.128,92.1h-7.436v-5.61a11.936,11.936,0,0,0-9.925-11.933,11.7,11.7,0,0,0-13.449,11.555V92.1h-7.436a1.062,1.062,0,0,0-1.062,1.062v25.657a10.465,10.465,0,0,0,10.464,10.465h19.442a10.465,10.465,0,0,0,10.465-10.465V93.157a1.062,1.062,0,0,0-1.062-1.062m-28.684-5.988a9.579,9.579,0,0,1,11.7-9.326,9.743,9.743,0,0,1,7.418,9.621V92.1H137.444Zm27.622,32.707a8.35,8.35,0,0,1-8.34,8.34H137.284a8.341,8.341,0,0,1-8.34-8.34V94.22h6.374v7.632a3.188,3.188,0,1,0,2.126,0V94.22h19.123v7.632a3.187,3.187,0,1,0,2.125,0V94.22h6.375v24.595Z" transform="translate(50.682 29.742)" fill="#fff"/>
      <path id="Path_68539" data-name="Path 68539" d="M197.558,70.595a12.463,12.463,0,1,1-12.465-12.464,12.465,12.465,0,0,1,12.465,12.464" transform="translate(68.991 23.232)" fill="#f5db4a"/>
      <path id="Path_68540" data-name="Path 68540" d="M177.886,68.159l4.665,3.41,5.551-7.051" transform="translate(71.091 25.784)" fill="none" stroke="#fff" stroke-linecap="round" stroke-linejoin="round" stroke-width="0.993"/>
      <path id="Path_68541" data-name="Path 68541" d="M104.367,42.945a4.589,4.589,0,1,1-4.589-4.589,4.589,4.589,0,0,1,4.589,4.589" transform="translate(38.041 15.329)" fill="#dd5213"/>
      <path id="Path_68542" data-name="Path 68542" d="M117.11,42.945a4.589,4.589,0,1,1-4.589-4.589,4.589,4.589,0,0,1,4.589,4.589" transform="translate(43.134 15.329)" fill="#f5db4a"/>
      <path id="Path_68543" data-name="Path 68543" d="M129.853,42.945a4.589,4.589,0,1,1-4.589-4.589,4.589,4.589,0,0,1,4.589,4.589" transform="translate(48.226 15.329)" fill="#a1aeef"/>
      <path id="Path_68544" data-name="Path 68544" d="M93.16,50.181a29.5,29.5,0,1,1-29.5-29.5,29.5,29.5,0,0,1,29.5,29.5" transform="translate(13.649 8.264)" fill="#dd5213"/>
      <path id="Path_68545" data-name="Path 68545" d="M68.747,36.833a6.116,6.116,0,0,0-8.654.091l-1.559,1.591-1.6-1.579a6.119,6.119,0,1,0-8.587,8.72L54.3,51.52c.013.013.021.028.034.041a6.119,6.119,0,0,0,8.654-.091l5.856-5.981a6.121,6.121,0,0,0-.092-8.655" transform="translate(18.59 14.021)" fill="#fff"/>
      <path id="Path_68546" data-name="Path 68546" d="M383.425,110.564H355.31a6.8,6.8,0,0,1,0-13.591h28.115a6.8,6.8,0,0,1,0,13.591" transform="translate(139.282 38.755)" fill="#6473f9"/>
      <path id="Path_68547" data-name="Path 68547" d="M360.32,102.335a1.738,1.738,0,1,1-1.744-1.733,1.738,1.738,0,0,1,1.744,1.733" transform="translate(142.61 40.205)" fill="#fff"/>
      <path id="Path_68548" data-name="Path 68548" d="M365.649,102.319a1.738,1.738,0,1,1-1.744-1.733,1.738,1.738,0,0,1,1.744,1.733" transform="translate(144.739 40.198)" fill="#fff"/>
      <path id="Path_68549" data-name="Path 68549" d="M370.977,102.3a1.738,1.738,0,1,1-1.744-1.733,1.738,1.738,0,0,1,1.744,1.733" transform="translate(146.869 40.192)" fill="#fff"/>
      <path id="Path_68550" data-name="Path 68550" d="M212.48,264.4a10.518,10.518,0,1,1-10.518-10.518A10.519,10.519,0,0,1,212.48,264.4" transform="translate(76.509 101.464)" fill="#a1aeef"/>
      <path id="Path_68551" data-name="Path 68551" d="M168.107,264.4a10.518,10.518,0,1,1-10.518-10.518A10.519,10.519,0,0,1,168.107,264.4" transform="translate(58.775 101.464)" fill="#a1aeef"/>
      <path id="Path_68552" data-name="Path 68552" d="M324.83,139.463l-24.082,4.9a12.868,12.868,0,0,0-10.21,9.666l-21.382,89.343H149.441a16.776,16.776,0,0,1-16.064-11.94L121.43,179.251l166.206-13.1" transform="translate(48.529 55.735)" fill="none" stroke="#000" stroke-width="0.974"/>
      <path id="Path_68553" data-name="Path 68553" d="M126.885,194.21,276.4,185.472l-17.978,73.816a28.428,28.428,0,0,1-27.678,21.938H143.518" transform="translate(50.709 74.122)" fill="none" stroke="#000" stroke-width="0.974"/>
      <line id="Line_406" data-name="Line 406" x1="14.419" y2="74.402" transform="translate(285.954 224.707)" fill="none" stroke="#000" stroke-width="0.974"/>
      <line id="Line_407" data-name="Line 407" x2="8.02" y2="66.952" transform="translate(205.846 232.157)" fill="none" stroke="#000" stroke-width="0.974"/>
      <line id="Line_408" data-name="Line 408" y2="70.618" transform="translate(252.352 228.492)" fill="none" stroke="#000" stroke-width="0.974"/>
      <path id="Path_68554" data-name="Path 68554" d="M356.411,210.866l8.968-14.973,34.23,12.017-7.865,13.35Z" transform="translate(142.437 78.287)" fill="#e6a57d"/>
      <path id="Path_68555" data-name="Path 68555" d="M386.348,212.3l-.085.13a3.959,3.959,0,0,1-4.487,1.555,6.787,6.787,0,0,0-3.982-.5,3.016,3.016,0,0,0-2.51,3.2c.388,5.3,1.419,18.165-.663,29.149a7.793,7.793,0,0,0,2.1,6.96l.985.992,26.782-45.807L389.792,203.1a3.139,3.139,0,0,0-4.535,4.3l.943,1.16a3.205,3.205,0,0,1,.147,3.737" transform="translate(149.658 80.862)"/>
      <path id="Path_68556" data-name="Path 68556" d="M403.566,206.4a1.605,1.605,0,0,1,1.517.241,2.318,2.318,0,0,1,.585,3.076l-24.292,41.73a3.04,3.04,0,0,1-4.592.76Z" transform="translate(150.579 82.45)" fill="#d8dcfd"/>
      <path id="Path_68557" data-name="Path 68557" d="M375.474,218.053s.826-1.253,4.181-.656" transform="translate(150.055 86.817)" fill="none" stroke="#fff" stroke-linecap="round" stroke-linejoin="round" stroke-width="1.172"/>
      <path id="Path_68558" data-name="Path 68558" d="M375.4,220.478s.827-1.253,4.182-.656" transform="translate(150.026 87.786)" fill="none" stroke="#fff" stroke-linecap="round" stroke-linejoin="round" stroke-width="1.172"/>
      <path id="Path_68559" data-name="Path 68559" d="M375.391,223.271s.827-1.253,4.182-.656" transform="translate(150.022 88.902)" fill="none" stroke="#fff" stroke-linecap="round" stroke-linejoin="round" stroke-width="1.172"/>
      <path id="Path_68560" data-name="Path 68560" d="M394.3,204.555s-10.7,11.974-8.727,27.464L400.149,207.1a16.5,16.5,0,0,0-5.845-2.546" transform="translate(153.996 81.749)" fill="#dd5213"/>
      <path id="Path_68561" data-name="Path 68561" d="M294.223,164.77l17.623,51.093a19.51,19.51,0,0,0,10.825,11.789l.106.043,72.864,23.872L408.8,222.512l-68.756-26.551s-17.823-65.827-24.35-72.331Z" transform="translate(117.584 49.408)" fill="#8294dc"/>
      <path id="Path_68562" data-name="Path 68562" d="M287.917,232.309l17.453.127,7.018,35.592H296.894Z" transform="translate(115.064 92.84)" fill="#e6a57d"/>
      <path id="Path_68563" data-name="Path 68563" d="M310.384,258.877l-.155-.008a3.954,3.954,0,0,1-3.617-3.076,6.8,6.8,0,0,0-1.6-3.681,3.014,3.014,0,0,0-4.034-.537c-4.368,3.023-14.93,10.443-25.453,14.223a7.793,7.793,0,0,0-4.931,5.342l-.355,1.352,53.063-.174-3.25-15.14a3.139,3.139,0,0,0-6.006-1.726l-.522,1.4a3.206,3.206,0,0,1-3.145,2.024" transform="translate(108.001 100.323)"/>
      <path id="Path_68564" data-name="Path 68564" d="M323.32,266.24a1.6,1.6,0,0,1,.563,1.429,2.319,2.319,0,0,1-2.354,2.066l-48.285.251a3.04,3.04,0,0,1-2.985-3.572Z" transform="translate(107.988 106.401)" fill="#d8dcfd"/>
      <path id="Path_68565" data-name="Path 68565" d="M287.917,254.433s1.5.077,2.687,3.27" transform="translate(115.064 101.682)" fill="none" stroke="#fff" stroke-linecap="round" stroke-linejoin="round" stroke-width="1.172"/>
      <path id="Path_68566" data-name="Path 68566" d="M285.791,255.6s1.5.077,2.687,3.27" transform="translate(114.214 102.149)" fill="none" stroke="#fff" stroke-linecap="round" stroke-linejoin="round" stroke-width="1.172"/>
      <path id="Path_68567" data-name="Path 68567" d="M283.379,257.01s1.5.077,2.687,3.27" transform="translate(113.25 102.712)" fill="none" stroke="#fff" stroke-linecap="round" stroke-linejoin="round" stroke-width="1.172"/>
      <path id="Path_68568" data-name="Path 68568" d="M315.625,261.859s-15.747-3.141-28.092,6.422l28.865-.092a16.485,16.485,0,0,0-.773-6.329" transform="translate(114.91 104.453)" fill="#dd5213"/>
      <path id="Path_68569" data-name="Path 68569" d="M297.232,135.458,273.8,200.792a23.371,23.371,0,0,0-1.124,11.294L291.4,291.246l31.541-4.048-14.867-77.547s32.225-55.065,30.919-77.2Z" transform="translate(108.872 52.931)" fill="#a1aeef"/>
      <path id="Path_68570" data-name="Path 68570" d="M275.567,76.16l8.389,17.426,12.8-10.369L284.245,63.365Z" transform="translate(110.128 25.323)" fill="#e6a57d"/>
      <path id="Path_68571" data-name="Path 68571" d="M278.889,80.459l3.258-10.195-6.41,3.723Z" transform="translate(110.196 28.081)"/>
      <path id="Path_68572" data-name="Path 68572" d="M272.585,47.014s-8.192,1.975-7.9,12.434c0,0,.038,3.989.553,14.892.273,5.762,4.386,12.949,11.607,12,3.5-.459,7.12-2.708,10.335-5.578l4.48-4.834c10.3-13.322-1.394-32.624-17.879-29.192-.393.083-.794.172-1.2.273" transform="translate(105.777 18.519)" fill="#e6a57d"/>
      <path id="Path_68573" data-name="Path 68573" d="M266.383,61.346l-2.992,5.965a.8.8,0,0,0,.589,1.292l3.8.344Z" transform="translate(105.201 24.516)" fill="#e6a57d"/>
      <path id="Path_68574" data-name="Path 68574" d="M267.732,59.071s3.674.869,3.832,3.054c.2,2.75-3.194,2.237-3.194,2.237s-3.2-2.63-.638-5.291" transform="translate(106.599 23.607)" fill="#fff"/>
    </g>
  </g>
  <g id="Group_39078" data-name="Group 39078" transform="translate(373.336 82.678)">
    <g id="Group_39077" data-name="Group 39077" clip-path="url(#clip-path-3)">
      <path id="Path_68575" data-name="Path 68575" d="M268.449,58.551s2.256,3.922-.419,6.648h0l-1.548-.1-.2-4.388Z" transform="translate(-266.917 -59.279)"/>
    </g>
  </g>
  <g id="Group_39080" data-name="Group 39080">
    <g id="Group_39079" data-name="Group 39079" clip-path="url(#clip-path)">
      <path id="Path_68577" data-name="Path 68577" d="M267.184,58.593c2,.371,4.122,1.583,4.594,3.681a.16.16,0,0,1-.122.192.163.163,0,0,1-.188-.1,4.223,4.223,0,0,0-3.054-2.519,6.58,6.58,0,0,0-1.346-.228.515.515,0,1,1,.116-1.022" transform="translate(106.541 23.413)"/>
      <path id="Path_68578" data-name="Path 68578" d="M266.038,68.356l3.583-.062s-2.419,3.58-3.583.062" transform="translate(106.32 27.293)" fill="#fff"/>
      <path id="Path_68579" data-name="Path 68579" d="M275.013,58.734a1.377,1.377,0,0,1-1.146-.021,35.137,35.137,0,0,0-4.976-1.806c-4.006-1.144-2.116-3.631-.045-3.324a11.665,11.665,0,0,1,6.322,3.674c.621.871.276,1.282-.155,1.477" transform="translate(106.521 21.404)"/>
      <path id="Path_68580" data-name="Path 68580" d="M282.754,69.184s-2.4,6.918,5.911,10.42c0,0,18.51-25.384-8.688-33.961l-1.51,2.615Z" transform="translate(111.287 18.241)" fill="#dd5213"/>
      <path id="Path_68581" data-name="Path 68581" d="M291.8,48.923c-.039,1.2-1.268,10.273-1.268,10.273l-10.069,8.669s-5.72-8.111-3.639-16.234c0,0,15.125-7.215,14.976-2.708" transform="translate(110.45 18.96)" fill="#dd5213"/>
      <path id="Path_68582" data-name="Path 68582" d="M288.113,62.249a4.981,4.981,0,1,1-5.681-4.165,4.981,4.981,0,0,1,5.681,4.165" transform="translate(111.184 23.189)" fill="#e6a57d"/>
      <path id="Path_68583" data-name="Path 68583" d="M278.289,43.182s15.978-.757,19.606,7.123c5.389,11.705-1.58,20-9.159,30.291l1.033-19.689Z" transform="translate(111.216 17.249)" fill="#dd5213"/>
      <path id="Path_68584" data-name="Path 68584" d="M284.21,57.181s-5.023-3.908-10.451-2.829-11.49,1.684-12-4.682c-.656-8.107,24.851-17.791,41.249-.12l-12.983,6.82Z" transform="translate(104.603 15.832)" fill="#dd5213"/>
      <path id="Path_68585" data-name="Path 68585" d="M224.075,88.242c6.9,3.785,12.678,3.473,15.329-1.831a10.734,10.734,0,0,0-4.8-14.4c-5.3-2.651-9.856-1.491-13.292,3.341-2.694,3.789-3.11,9.667,2.766,12.891" transform="translate(87.688 28.223)" fill="#e6a57d"/>
      <path id="Path_68586" data-name="Path 68586" d="M223.5,72.5s.861-3.515,6.966-2.727c5.587.719,11.364,7.009,7.3,17.02Z" transform="translate(89.321 27.84)" fill="#e6a57d"/>
      <path id="Path_68587" data-name="Path 68587" d="M227.413,76.744,216.7,69.53a2.056,2.056,0,0,1-.784-2.727,1.771,1.771,0,0,1,2.276-.78l12.737,5.663Z" transform="translate(86.193 26.326)" fill="#e6a57d"/>
      <path id="Path_68588" data-name="Path 68588" d="M276.363,93.1,233.743,78.5l-5.482,7.685,40.163,23.836c5.755,3.34,11.715-.726,13.666-7.089,1.519-4.948-1.027-7.659-5.727-9.826" transform="translate(91.223 31.371)" fill="#e6a57d"/>
      <path id="Path_68589" data-name="Path 68589" d="M303.56,83.036l-43.789,9.989c-5.706,2.388-9.009,3.034-7.028,8.895a11.78,11.78,0,0,0,14.889,7.4l42.534-6.416c5.88-1.964,9.9-6.171,9.158-12.325-1.036-8.6-7.772-10.884-15.764-7.54" transform="translate(100.776 32.596)" fill="#e6a57d"/>
      <path id="Path_68590" data-name="Path 68590" d="M271.411,88.846l7.93,23.711,26.211-3.8-1.876-27.769Z" transform="translate(108.467 32.365)" fill="#e9cd44"/>
      <path id="Path_68591" data-name="Path 68591" d="M281.047,86.224l8.255,83.051c34.4,6.08,49.043-9.832,49.043-9.832s-9.511-28.379-16.589-48.512c-7.438-21.157-18.463-28.977-27.188-33.383Z" transform="translate(112.318 30.991)" fill="#f5db4a"/>
      <path id="Path_68592" data-name="Path 68592" d="M294.588,77.548S288.151,90.926,281.8,93.314l-.8-7.278,8.64-6.1Z" transform="translate(112.301 30.991)" fill="#e6a57d"/>
      <path id="Path_68593" data-name="Path 68593" d="M309.779,119.123l-42.156,15.848-.045,9.774,49.37-9.214Z" transform="translate(106.936 47.607)" fill="#e6a57d"/>
      <path id="Path_68594" data-name="Path 68594" d="M256.262,140.212c2.147-6.042,8.871-7.653,8.871-7.653l9.119-2.619,4.14,4.324-3.018,2.878c.854,4.032-.37,10.668-5.134,13.3-5.494,3.039-16.125-4.189-13.978-10.231" transform="translate(102.3 51.93)" fill="#e6a57d"/>
      <path id="Path_68595" data-name="Path 68595" d="M288.271,101.091l9.477,37.226c1.05,4.121,6.735,6.714,10.913,5.919a8.045,8.045,0,0,0,6.4-9.407l-7.131-37.48Z" transform="translate(115.205 38.905)" fill="#e6a57d"/>
      <path id="Path_68596" data-name="Path 68596" d="M296.537,81.493a8.425,8.425,0,0,0-6.924,2.645c-2.381,2.423-5.163,6.864-4.2,13.926a134.59,134.59,0,0,0,6.059,23.993l22-3.54s-2.294-35.3-16.931-37.025" transform="translate(113.985 32.548)" fill="#f5db4a"/>
      <path id="Path_68597" data-name="Path 68597" d="M292.259,116.251h0s-3.765-13.739-4.62-21.255" transform="translate(114.953 37.964)" fill="none" stroke="#000" stroke-linecap="round" stroke-linejoin="round" stroke-width="0.406"/>
      <line id="Line_409" data-name="Line 409" x2="551.617" transform="translate(0 376.354)" fill="none" stroke="#070c09" stroke-width="0.739"/>
    </g>
  </g>
</svg>
