<svg xmlns="http://www.w3.org/2000/svg" xmlns:xlink="http://www.w3.org/1999/xlink" width="558.346" height="413.994" viewBox="0 0 558.346 413.994">
  <defs>
    <clipPath id="clip-path">
      <rect id="Rectangle_5984" data-name="Rectangle 5984" width="558.346" height="413.994" fill="none"/>
    </clipPath>
  </defs>
  <g id="Group_38750" data-name="Group 38750" transform="translate(0)">
    <g id="Group_38749" data-name="Group 38749" transform="translate(0)" clip-path="url(#clip-path)">
      <path id="Rectangle_5971" data-name="Rectangle 5971" d="M3.756,0H359.2a3.756,3.756,0,0,1,3.756,3.756V205.269a3.757,3.757,0,0,1-3.757,3.757H3.757A3.757,3.757,0,0,1,0,205.269V3.756A3.756,3.756,0,0,1,3.756,0Z" transform="translate(53.912 90.803)" fill="none" stroke="#d6b1b1" stroke-width="0.456"/>
      <path id="Path_49496" data-name="Path 49496" d="M84.024,244.161H431.115a7.93,7.93,0,0,0,7.929-7.929V43.064a7.93,7.93,0,0,0-7.929-7.929H84.024A7.929,7.929,0,0,0,76.1,43.064V236.231a7.929,7.929,0,0,0,7.929,7.929" transform="translate(-41.342 39.038)" fill="#f6e5e0"/>
      <path id="Path_49497" data-name="Path 49497" d="M87.025,43.8a4.389,4.389,0,1,0,4.389-4.389A4.389,4.389,0,0,0,87.025,43.8" transform="translate(278.825 43.787)" fill="#3767e3"/>
      <path id="Path_49498" data-name="Path 49498" d="M93.941,43.8a4.389,4.389,0,1,0,4.389-4.389A4.389,4.389,0,0,0,93.941,43.8" transform="translate(257.309 43.787)" fill="#e1723e"/>
      <ellipse id="Ellipse_597" data-name="Ellipse 597" cx="4.389" cy="4.389" rx="4.389" ry="4.389" transform="translate(336.65 83.197)" fill="none" stroke="#d6b1b1" stroke-width="0.312"/>
      <path id="Rectangle_5972" data-name="Rectangle 5972" d="M1.688,0h135.4a1.689,1.689,0,0,1,1.689,1.689V150.75a1.688,1.688,0,0,1-1.688,1.688H1.688A1.688,1.688,0,0,1,0,150.75V1.688A1.688,1.688,0,0,1,1.688,0Z" transform="translate(67.817 93.253)" fill="none" stroke="#d6b1b1" stroke-width="0.437"/>
      <path id="Rectangle_5973" data-name="Rectangle 5973" d="M3.605,0H82.283a3.6,3.6,0,0,1,3.6,3.6V84.812a3.6,3.6,0,0,1-3.6,3.6H3.606A3.606,3.606,0,0,1,0,84.811V3.605A3.605,3.605,0,0,1,3.605,0Z" transform="translate(94.262 109.141)" fill="none" stroke="#fff" stroke-width="0.423"/>
      <path id="Rectangle_5974" data-name="Rectangle 5974" d="M3.606,0H73.938a3.6,3.6,0,0,1,3.6,3.6V39.033a3.6,3.6,0,0,1-3.6,3.6H3.605A3.605,3.605,0,0,1,0,39.033V3.606A3.606,3.606,0,0,1,3.606,0Z" transform="translate(304.355 127.503)" fill="none" stroke="#fff" stroke-width="0.423"/>
      <line id="Line_351" data-name="Line 351" x1="53.465" transform="translate(316.506 140.081)" fill="none" stroke="#fff" stroke-width="0.421"/>
      <line id="Line_352" data-name="Line 352" x1="17.767" transform="translate(352.205 148.734)" fill="none" stroke="#fff" stroke-width="0.421"/>
      <line id="Line_353" data-name="Line 353" x1="36.522" transform="translate(333.45 157.387)" fill="none" stroke="#fff" stroke-width="0.421"/>
      <path id="Path_49499" data-name="Path 49499" d="M44.1,21.713H67.412a2.176,2.176,0,0,1,2.16,2.191V37.016a2.176,2.176,0,0,1-2.16,2.193h-9.5l-7.986,8.909V39.533l-5.869-.118a2.179,2.179,0,0,1-2.12-2.191V23.9A2.178,2.178,0,0,1,44.1,21.713Z" transform="translate(400.246 24.125)" fill="none" stroke="#d4afaf" stroke-width="0.433"/>
      <ellipse id="Ellipse_598" data-name="Ellipse 598" cx="6.515" cy="6.608" rx="6.515" ry="6.608" transform="translate(0.506 315.79)" fill="none" stroke="#d4afaf" stroke-width="0.478"/>
      <path id="Path_49500" data-name="Path 49500" d="M22.147,128.76a4.747,4.747,0,1,0,4.746-4.813A4.781,4.781,0,0,0,22.147,128.76Z" transform="translate(479.951 137.717)" fill="none" stroke="#d4afaf" stroke-width="0.478"/>
      <rect id="Rectangle_5975" data-name="Rectangle 5975" width="9.855" height="9.992" transform="translate(187.891 14.554)" fill="none" stroke="#d4afaf" stroke-width="0.478"/>
      <path id="Path_49501" data-name="Path 49501" d="M201.532,120.39H324.543a3.511,3.511,0,0,0,3.511-3.511V88.395a3.511,3.511,0,0,0-3.511-3.511H201.532a3.512,3.512,0,0,0-3.511,3.511V116.88a3.512,3.512,0,0,0,3.511,3.511" transform="translate(-187.748 94.314)" fill="#ebc22f"/>
      <line id="Line_354" data-name="Line 354" x1="95.32" transform="translate(31.513 193.299)" fill="none" stroke="#fff" stroke-width="0.536"/>
      <line id="Line_355" data-name="Line 355" x1="17.545" transform="translate(109.288 201.815)" fill="none" stroke="#fff" stroke-width="0.536"/>
      <path id="Path_49502" data-name="Path 49502" d="M82.5,90.583H28.867V63.451a4.073,4.073,0,0,1,4.072-4.072H82.5a4.073,4.073,0,0,1,4.072,4.072V86.511A4.073,4.073,0,0,1,82.5,90.583" transform="translate(410.837 65.976)" fill="#71ca93"/>
      <path id="Path_49503" data-name="Path 49503" d="M50.684,71.1l-.042,13.788L62.413,71.137Z" transform="translate(389.024 79)" fill="#71ca93"/>
      <path id="Path_49504" data-name="Path 49504" d="M35.463,67.965a2.6,2.6,0,1,0,2.605-2.59,2.6,2.6,0,0,0-2.605,2.59" transform="translate(442.822 72.638)" fill="#fff"/>
      <path id="Path_49505" data-name="Path 49505" d="M40.741,67.948a2.6,2.6,0,1,0,2.605-2.59,2.6,2.6,0,0,0-2.605,2.59" transform="translate(426.401 72.619)" fill="#fff"/>
      <path id="Path_49506" data-name="Path 49506" d="M46.019,67.932a2.6,2.6,0,1,0,2.605-2.59,2.6,2.6,0,0,0-2.605,2.59" transform="translate(409.981 72.601)" fill="#fff"/>
      <path id="Path_49507" data-name="Path 49507" d="M192.331,117.225h96.526a5.281,5.281,0,0,0,5.282-5.282V27.174a5.281,5.281,0,0,0-5.282-5.282H192.331a5.281,5.281,0,0,0-5.282,5.282v84.769a5.281,5.281,0,0,0,5.282,5.282" transform="translate(-130.67 24.324)" fill="#71ca93"/>
      <line id="Line_356" data-name="Line 356" x1="23.716" transform="translate(105.333 95.436)" fill="none" stroke="#fff" stroke-width="0.484"/>
      <line id="Line_357" data-name="Line 357" x1="68.328" transform="translate(75.877 106.591)" fill="none" stroke="#fff" stroke-width="0.484"/>
      <line id="Line_358" data-name="Line 358" x1="57.472" transform="translate(86.732 81.04)" fill="none" stroke="#fff" stroke-width="0.484"/>
      <line id="Line_359" data-name="Line 359" x1="20.556" transform="translate(123.649 119.418)" fill="none" stroke="#fff" stroke-width="0.484"/>
      <line id="Line_360" data-name="Line 360" x1="14.55" transform="translate(103.851 119.418)" fill="none" stroke="#fff" stroke-width="0.484"/>
      <line id="Line_361" data-name="Line 361" x1="9.2" transform="translate(135.004 95.436)" fill="none" stroke="#fff" stroke-width="0.484"/>
      <line id="Line_362" data-name="Line 362" x1="9.2" transform="translate(135.004 69.132)" fill="none" stroke="#fff" stroke-width="0.484"/>
      <path id="Path_49508" data-name="Path 49508" d="M226.85,29.885A17.747,17.747,0,1,0,244.6,12.137,17.748,17.748,0,0,0,226.85,29.885" transform="translate(-182.899 13.485)" fill="#3767e3"/>
      <path id="Path_49509" data-name="Path 49509" d="M232.914,19a3.742,3.742,0,0,1,5.3.057l.954.973.984-.967a3.747,3.747,0,0,1,5.259,5.339L241.764,28l-.021.025a3.745,3.745,0,0,1-5.3-.057L232.857,24.3a3.748,3.748,0,0,1,.057-5.3" transform="translate(-177.506 19.924)" fill="#fff"/>
      <path id="Path_49510" data-name="Path 49510" d="M102.5,22.918A22.919,22.919,0,1,0,125.416,0,22.921,22.921,0,0,0,102.5,22.918" transform="translate(193.633)" fill="#3767e3"/>
      <g id="Group_38751" data-name="Group 38751" transform="translate(307.75 10.063)">
        <path id="Path_49511" data-name="Path 49511" d="M111.6,25.713c3.969.068,7.986.122,11.634-.131,1.155-.08,2.153-1.915.749-2.493a2.6,2.6,0,0,0,1.448-1.258,1.24,1.24,0,0,0-.7-1.638c1.376.34,1.919-1.843.844-2.548a3.2,3.2,0,0,0,1.161-1.86,1.863,1.863,0,0,0-.836-1.925,2.988,2.988,0,0,0-1.431-.247l-4.95-.038c.448-2.582.581-5.4-.73-7.663-.395-.684-1.457-1.5-2.3-.977-.79.494-.57,1.718-.53,2.491a8.724,8.724,0,0,1-4.5,7.957s.188,6.842.146,10.332" transform="translate(-104.162 -4.767)" fill="#fdfdfd"/>
        <rect id="Rectangle_5976" data-name="Rectangle 5976" width="5.998" height="10.323" transform="translate(0 10.615)" fill="#fdfdfd"/>
      </g>
      <line id="Line_363" data-name="Line 363" x1="224.181" transform="translate(139.756 413.71)" fill="none" stroke="#262127" stroke-width="0.269"/>
      <line id="Line_364" data-name="Line 364" x1="496.696" transform="translate(61.65 391.044)" fill="none" stroke="#262127" stroke-width="0.269"/>
      <path id="Path_49512" data-name="Path 49512" d="M124.114,152.9h57.249a6.039,6.039,0,1,0,0-12.078H124.114a6.039,6.039,0,0,0,0,12.078" transform="translate(121.674 156.47)"/>
      <rect id="Rectangle_5977" data-name="Rectangle 5977" width="76.814" height="6.977" transform="translate(206.847 377.782)"/>
      <path id="Path_49513" data-name="Path 49513" d="M127.056,184.519a6.649,6.649,0,1,0,7.646-5.472,6.648,6.648,0,0,0-7.646,5.472" transform="translate(150.046 198.838)" fill="#1f2326"/>
      <rect id="Rectangle_5978" data-name="Rectangle 5978" width="7.513" height="76.574" transform="translate(241.496 305.405)"/>
      <path id="Path_49514" data-name="Path 49514" d="M163.442,184.519a6.649,6.649,0,1,0,7.646-5.472,6.648,6.648,0,0,0-7.646,5.472" transform="translate(36.846 198.838)"/>
      <path id="Path_49515" data-name="Path 49515" d="M170.607,212.466h67.557a7,7,0,0,0,6.618-9.008L212.518,92.25a6.913,6.913,0,0,0-6.616-5.033H138.345a7,7,0,0,0-6.616,9.006l32.262,111.21a6.915,6.915,0,0,0,6.616,5.033" transform="translate(35.79 96.906)" fill="#1f2326"/>
      <path id="Path_49516" data-name="Path 49516" d="M170.331,212.466h58.845a7,7,0,0,0,6.616-9.008L203.53,92.25a6.913,6.913,0,0,0-6.616-5.033H138.069a7,7,0,0,0-6.616,9.006l32.262,111.21a6.915,6.915,0,0,0,6.616,5.033" transform="translate(45.364 96.906)" fill="#e5a6a8"/>
      <path id="Path_49517" data-name="Path 49517" d="M136.011,152.9h71.5a6.039,6.039,0,1,0,0-12.078h-71.5a6.039,6.039,0,0,0,0,12.078" transform="translate(70.405 156.47)" fill="#1f2326"/>
      <path id="Path_49518" data-name="Path 49518" d="M137.487,68.715l-3.553,28.633A9.66,9.66,0,0,0,153.25,97.2l4.558-24.045Z" transform="translate(117.79 76.349)" fill="#97614e"/>
      <path id="Path_49519" data-name="Path 49519" d="M126.345,58.955s14.434,0,3.12,19.243l-3.12-9.5Z" transform="translate(157.825 65.504)" fill="#262127"/>
      <path id="Path_49520" data-name="Path 49520" d="M145.015,102.189h0c9.523,0,17.315-5.742,17.315-15.265V67.935a7.561,7.561,0,0,0-7.537-7.539H135.239a7.561,7.561,0,0,0-7.539,7.539v16.31c0,9.523,9.285,17.944,17.315,17.944" transform="translate(126.429 67.106)" fill="#97614e"/>
      <path id="Path_49521" data-name="Path 49521" d="M150.045,77.83h0s10.5-5.7,4.7-17.4h-9.73a4.775,4.775,0,0,0-4.8,2.143c-2.122,2.831,3.067,15.253,3.067,15.253Z" transform="translate(106.921 67.067)" fill="#262127"/>
      <path id="Path_49522" data-name="Path 49522" d="M141.84,72.937a6.2,6.2,0,1,0,6.2-6.2,6.2,6.2,0,0,0-6.2,6.2" transform="translate(104.668 74.151)" fill="#97614e"/>
      <path id="Path_49523" data-name="Path 49523" d="M161.081,55.112a10.851,10.851,0,0,0-13.631.38,10.762,10.762,0,0,0-5.941-1.771c-5.09,0-9.253,5.649-9.918,10.032-3.222.329-6.405,2.075-6.405,5.592,0,3.741,3.5,5.626,7.013,5.626a6.332,6.332,0,0,0,5.738-3.906,10.78,10.78,0,0,0,7.186-.013c7.617.521,23.2,2.675,27.685-2.39,9.253-10.446-5.06-18.609-11.727-13.551" transform="translate(118.233 58.765)" fill="#262127"/>
      <path id="Path_49524" data-name="Path 49524" d="M136.476,70.97S135.249,83.6,137.9,87.41s4.079-.939,14.961-1.227c6.346-.167,9.513,1.2,11.022,2.236.836.572.667,1.611.412,2.59-.853,3.266-3.458,10.965-13.842,11.733-10.194.754-20.7-5.155-18.829-19.6,2.111-16.342-3.9-22.751-3.9-22.751Z" transform="translate(124.214 67.106)" fill="#262127"/>
      <path id="Path_49525" data-name="Path 49525" d="M138.232,69.539a1.37,1.37,0,1,1-1.269-1.465,1.369,1.369,0,0,1,1.269,1.465" transform="translate(134.069 75.632)" fill="#262127"/>
      <path id="Path_49526" data-name="Path 49526" d="M132.1,69.49a1.37,1.37,0,1,1-1.269-1.465A1.369,1.369,0,0,1,132.1,69.49" transform="translate(153.137 75.578)" fill="#262127"/>
      <path id="Path_49527" data-name="Path 49527" d="M134.373,69.369l.369,3.72s-.232,2.073-3.184,1.277" transform="translate(145.87 77.075)" fill="none" stroke="#7d463b" stroke-linecap="round" stroke-linejoin="round" stroke-width="0.535"/>
      <path id="Path_49528" data-name="Path 49528" d="M135.319,68.275a1.278,1.278,0,0,0,.255.015l6.2-.264a1.255,1.255,0,0,0-.108-2.508l-6.2.264a1.255,1.255,0,0,0-.148,2.493" transform="translate(131.924 72.795)" fill="#262127"/>
      <path id="Path_49529" data-name="Path 49529" d="M129.195,68.06a1.258,1.258,0,0,0,.253.015l3.792-.16a1.255,1.255,0,1,0-.106-2.508l-3.792.16a1.255,1.255,0,0,0-.148,2.493" transform="translate(153.387 72.672)" fill="#262127"/>
      <path id="Path_49530" data-name="Path 49530" d="M137.708,74.7a6.145,6.145,0,0,1-4.946-.629" transform="translate(140.365 82.304)" fill="none" stroke="#7d463b" stroke-linecap="round" stroke-linejoin="round" stroke-width="0.516"/>
      <rect id="Rectangle_5979" data-name="Rectangle 5979" width="23.412" height="17.318" transform="translate(344.307 378.15) rotate(-120.488)" fill="#97614e"/>
      <path id="Path_49531" data-name="Path 49531" d="M79.055,185.267l18.926-11.144,19.631-2.675a10.892,10.892,0,0,1,10.009,5.345l-42.315,23.83Z" transform="translate(263.833 190.474)" fill="#262127"/>
      <path id="Path_49532" data-name="Path 49532" d="M104.007,174.327l-7.657-3.262s-7.382,2.709-2.533,9.612Z" transform="translate(259.765 190.069)" fill="#262127"/>
      <path id="Path_49533" data-name="Path 49533" d="M139.521,123.045h23.412a27.782,27.782,0,0,1,25.135,15.945l30.493,74.682-30.146,12.753L159.4,160.359l-49.644.418L95.07,123.045Z" transform="translate(139.084 136.714)" fill="#d6642e"/>
      <rect id="Rectangle_5980" data-name="Rectangle 5980" width="12.462" height="36.965" transform="translate(325.744 363.876) rotate(-112.746)" fill="#c25225"/>
      <rect id="Rectangle_5981" data-name="Rectangle 5981" width="17.32" height="23.412" transform="translate(273.088 376.431) rotate(-179.756)" fill="#97614e"/>
      <path id="Path_49534" data-name="Path 49534" d="M123.719,176.951l21.964.093,18.24,7.733a10.888,10.888,0,0,1,5.871,9.709l-48.3-.194Z" transform="translate(132.063 196.609)" fill="#262127"/>
      <path id="Path_49535" data-name="Path 49535" d="M144.114,180.973l-4.915-6.718s-7.731-1.444-7.091,6.969Z" transform="translate(135.417 193.509)" fill="#262127"/>
      <path id="Path_49536" data-name="Path 49536" d="M132.1,122.976l-1.216,7.465a26.2,26.2,0,0,0,25.855,30.412h7.739V226.7l32.133.431,1.792-80.669A22.958,22.958,0,0,0,175.5,123.071Z" transform="translate(84.359 136.638)" fill="#e1723e"/>
      <rect id="Rectangle_5982" data-name="Rectangle 5982" width="36.965" height="12.462" transform="translate(246.803 351.305)" fill="#d6642e"/>
      <path id="Path_49537" data-name="Path 49537" d="M133.52,84.924a284.252,284.252,0,0,1,27.261,47.554,9.332,9.332,0,0,1-.745,8.879c-3.933,5.934-14.2,4.564-18.155-.954,0,0-30.21-41.527-28.922-43.208.306-.4,20.562-12.272,20.562-12.272" transform="translate(158.398 94.358)" fill="#ebc22f"/>
      <path id="Path_49538" data-name="Path 49538" d="M104.408,108.461l43.632-8.717,3.428,20.568-45.441,8.535a10.226,10.226,0,0,1-1.619-20.387" transform="translate(206.222 110.825)" fill="#ebc22f"/>
      <path id="Path_49539" data-name="Path 49539" d="M124.172,107.027l2.4-10.425s8.271,25.466,8.069,25.187-10.471-14.763-10.471-14.763" transform="translate(161.56 107.334)" fill="#dcb123"/>
      <path id="Path_49540" data-name="Path 49540" d="M170.29,82.309l27.4,3.521A5.2,5.2,0,0,1,202.2,91.5l-17.7,76.8-58.807-.146,9.268-76.641a5.2,5.2,0,0,1,4.59-5.793Z" transform="translate(90.768 91.453)" fill="#ebc22f"/>
      <path id="Path_49541" data-name="Path 49541" d="M158.216,84.142l6.627.851s1,8.586-11.2,10.129S135.521,90.7,133.151,84.64l14.664-2.877Z" transform="translate(112.39 90.846)" fill="#97614e"/>
      <path id="Path_49542" data-name="Path 49542" d="M170.137,83.764s1,13.79-16.8,13.792c-20.182,0-21.949-14.254-21.949-14.254" transform="translate(110.822 92.556)" fill="none" stroke="#dcb123" stroke-width="0.509"/>
      <path id="Path_49543" data-name="Path 49543" d="M157.429,95.706l-14.436,25.61,27.489.5-18.666-3.64Z" transform="translate(85.992 106.338)" fill="#dcb123"/>
      <path id="Path_49544" data-name="Path 49544" d="M149.816,110.518l-11.472.03.308,12.975,10.724-.072Z" transform="translate(116.472 122.795)" fill="#97614e"/>
      <path id="Path_49545" data-name="Path 49545" d="M130.331,116.086a11.071,11.071,0,1,0,13.437-8.039,11.07,11.07,0,0,0-13.437,8.039" transform="translate(131.773 119.676)" fill="#97614e"/>
      <path id="Path_49546" data-name="Path 49546" d="M154.467,107.913l44.493.424-.868,20.834-46.229-.973a10.226,10.226,0,0,1,2.6-20.285" transform="translate(57.514 119.817)" fill="#ebc22f"/>
      <path id="Path_49547" data-name="Path 49547" d="M194.94,98.027s-14.393,28.506-30.647,51.479c-1.82,2.576-6.12,3.855-9.272,3.72-7.112-.306-10.125-7.969-7.439-14.2,0,0,23.475-53.843,26.625-54.7.488-.133,20.733,13.707,20.733,13.707" transform="translate(53.896 93.686)" fill="#ebc22f"/>
      <path id="Path_49548" data-name="Path 49548" d="M112.377,118.775h50.89v-5.742h-50.89a2.871,2.871,0,1,0,0,5.742" transform="translate(163.901 125.59)" fill="#0c0006"/>
      <path id="Path_49549" data-name="Path 49549" d="M70.446,148.322h67.432a8.647,8.647,0,0,0,8.332-6.331l13.15-47.24a6.553,6.553,0,0,0-6.314-8.311H91.114A5.706,5.706,0,0,0,85.6,90.7Z" transform="translate(250.021 96.043)" fill="#2c3236"/>
      <path id="Path_49550" data-name="Path 49550" d="M87.188,105.707a6.38,6.38,0,1,0,6.38-6.38,6.38,6.38,0,0,0-6.38,6.38" transform="translate(274.336 110.361)" fill="#fff"/>
      <line id="Line_365" data-name="Line 365" x2="42.593" y2="144.173" transform="translate(440.579 246.921)" fill="none" stroke="#000" stroke-width="1.018"/>
      <line id="Line_366" data-name="Line 366" x2="42.593" y2="144.173" transform="translate(395.354 246.921)" fill="none" stroke="#000" stroke-width="1.018"/>
      <line id="Line_367" data-name="Line 367" x1="42.593" y2="144.173" transform="translate(142.04 246.921)" fill="none" stroke="#000" stroke-width="1.018"/>
      <line id="Line_368" data-name="Line 368" x1="42.593" y2="144.173" transform="translate(187.264 246.921)" fill="none" stroke="#000" stroke-width="1.018"/>
      <rect id="Rectangle_5983" data-name="Rectangle 5983" width="322.402" height="5.17" transform="translate(146.134 244.365)" fill="#1f2326"/>
    </g>
  </g>
</svg>
