<svg id="Group_39090" data-name="Group 39090" xmlns="http://www.w3.org/2000/svg" xmlns:xlink="http://www.w3.org/1999/xlink" width="437.098" height="432.808" viewBox="0 0 437.098 432.808">
  <defs>
    <clipPath id="clip-path">
      <rect id="Rectangle_6233" data-name="Rectangle 6233" width="437.098" height="432.808" fill="none"/>
    </clipPath>
    <clipPath id="clip-path-3">
      <path id="Path_68645" data-name="Path 68645" d="M285.913,95s3.1.194,3-2.647a3.789,3.789,0,0,0-2.944-3.458c-2.723,2.667-.052,6.105-.052,6.105" fill="none"/>
    </clipPath>
  </defs>
  <g id="Group_39083" data-name="Group 39083">
    <g id="Group_39082" data-name="Group 39082" clip-path="url(#clip-path)">
      <path id="Path_68598" data-name="Path 68598" d="M365.9,120.98s3.1-8.934,12.382-9.163,5.953,5.5,15.715,4.581,6.191-11.912,21.431-14.2S437.1,120.98,437.1,120.98Z" fill="#fff"/>
      <path id="Path_68599" data-name="Path 68599" d="M204.891,14.158s2.312-6.672,9.246-6.843,4.446,4.106,11.736,3.422,4.624-8.9,16-10.607,16.181,14.028,16.181,14.028Z" fill="#fff"/>
      <path id="Path_68600" data-name="Path 68600" d="M0,81.457S2.066,75.5,8.263,75.342s3.973,3.669,10.489,3.057,4.131-7.95,14.3-9.478S47.515,81.457,47.515,81.457Z" fill="#fff"/>
      <path id="Path_68601" data-name="Path 68601" d="M240.885,432.433H99.108A28.468,28.468,0,0,1,70.64,403.966V71.336A28.468,28.468,0,0,1,99.108,42.869H240.885a28.467,28.467,0,0,1,28.467,28.467v332.63a28.467,28.467,0,0,1-28.467,28.467" fill="#e5edfd"/>
      <path id="Path_68602" data-name="Path 68602" d="M240.885,52.617a18.741,18.741,0,0,1,18.72,18.719v332.63a18.742,18.742,0,0,1-18.72,18.72H99.108a18.742,18.742,0,0,1-18.72-18.72V71.336a18.741,18.741,0,0,1,18.72-18.719Zm0-9.748H99.108A28.468,28.468,0,0,0,70.64,71.336v332.63a28.468,28.468,0,0,0,28.468,28.467H240.885a28.467,28.467,0,0,0,28.467-28.467V71.336a28.467,28.467,0,0,0-28.467-28.467" fill="#060000"/>
      <path id="Path_68603" data-name="Path 68603" d="M214.352,43.853H125.641V54.172a8.28,8.28,0,0,0,8.28,8.28h72.151a8.28,8.28,0,0,0,8.28-8.28Z" fill="#060000"/>
      <line id="Line_410" data-name="Line 410" x2="34.017" transform="translate(153.483 51.584)" fill="none" stroke="#fff" stroke-linecap="round" stroke-linejoin="round" stroke-width="0.764"/>
      <path id="Path_68604" data-name="Path 68604" d="M205.423,389.63H104.1a7.927,7.927,0,0,1-7.926-7.926V297.079a7.927,7.927,0,0,1,7.926-7.926H205.423a7.927,7.927,0,0,1,7.926,7.926V381.7a7.927,7.927,0,0,1-7.926,7.926" fill="#9bbdf9"/>
      <path id="Path_68605" data-name="Path 68605" d="M139,332.8H115.72a3.152,3.152,0,0,1-3.152-3.152V306.366a3.152,3.152,0,0,1,3.152-3.152H139a3.152,3.152,0,0,1,3.152,3.152v23.283A3.152,3.152,0,0,1,139,332.8" fill="#fff"/>
      <line id="Line_411" data-name="Line 411" x2="26.743" transform="translate(152.254 312.548)" fill="none" stroke="#000" stroke-linecap="round" stroke-linejoin="round" stroke-width="1.3"/>
      <line id="Line_412" data-name="Line 412" x2="43.126" transform="translate(152.254 322.07)" fill="none" stroke="#000" stroke-linecap="round" stroke-linejoin="round" stroke-width="1.3"/>
      <line id="Line_413" data-name="Line 413" x2="29.587" transform="translate(112.567 345.118)" fill="none" stroke="#fff" stroke-linecap="round" stroke-linejoin="round" stroke-width="1.3"/>
      <line id="Line_414" data-name="Line 414" x2="82.812" transform="translate(112.567 354.95)" fill="none" stroke="#fff" stroke-linecap="round" stroke-linejoin="round" stroke-width="1.3"/>
      <line id="Line_415" data-name="Line 415" x2="82.812" transform="translate(112.567 365.782)" fill="none" stroke="#fff" stroke-linecap="round" stroke-linejoin="round" stroke-width="1.3"/>
      <path id="Path_68606" data-name="Path 68606" d="M52.929,139.232A23.731,23.731,0,1,1,29.2,115.5a23.731,23.731,0,0,1,23.731,23.731" fill="#dc761c"/>
      <path id="Path_68607" data-name="Path 68607" d="M19.639,140.362l7.448,5.517,12.761-13.241" fill="none" stroke="#fff" stroke-linecap="round" stroke-linejoin="round" stroke-width="2.136"/>
      <path id="Path_68608" data-name="Path 68608" d="M121.9,267.834H42.439a5.184,5.184,0,0,1-5.185-5.185V207.287a5.184,5.184,0,0,1,5.185-5.185H121.9a5.184,5.184,0,0,1,5.185,5.185v55.362a5.184,5.184,0,0,1-5.185,5.185" fill="#4479fa"/>
      <path id="Path_68609" data-name="Path 68609" d="M96.016,229.617a14.192,14.192,0,1,0-26.425,7.17h-.007l.04.053a14.175,14.175,0,0,0,1.915,2.536L81.825,253,92.1,239.388a14.3,14.3,0,0,0,1.935-2.562l.029-.039h-.006a14.107,14.107,0,0,0,1.959-7.17M81.825,235.8a6.246,6.246,0,1,1,6.244-6.245,6.246,6.246,0,0,1-6.244,6.245" fill="#fff"/>
      <path id="Path_68610" data-name="Path 68610" d="M238.48,192.422H101.451a7.927,7.927,0,0,1-7.926-7.926V99.871a7.927,7.927,0,0,1,7.926-7.926H238.48a7.927,7.927,0,0,1,7.926,7.926V184.5a7.927,7.927,0,0,1-7.926,7.926" fill="#fff"/>
      <path id="Path_68611" data-name="Path 68611" d="M129.275,141.846H108.859a2.764,2.764,0,0,1-2.764-2.764V118.666a2.765,2.765,0,0,1,2.764-2.764h20.416a2.765,2.765,0,0,1,2.764,2.764v20.416a2.764,2.764,0,0,1-2.764,2.764" fill="#9bbdf9"/>
      <path id="Path_68612" data-name="Path 68612" d="M162.325,141.846H141.909a2.764,2.764,0,0,1-2.764-2.764V118.666a2.765,2.765,0,0,1,2.764-2.764h20.416a2.765,2.765,0,0,1,2.764,2.764v20.416a2.764,2.764,0,0,1-2.764,2.764" fill="#9bbdf9"/>
      <path id="Path_68613" data-name="Path 68613" d="M195.376,141.846H174.96a2.764,2.764,0,0,1-2.764-2.764V118.666a2.765,2.765,0,0,1,2.764-2.764h20.416a2.765,2.765,0,0,1,2.764,2.764v20.416a2.764,2.764,0,0,1-2.764,2.764" fill="#9bbdf9"/>
      <path id="Path_68614" data-name="Path 68614" d="M228.426,141.846H208.01a2.764,2.764,0,0,1-2.764-2.764V118.666a2.765,2.765,0,0,1,2.764-2.764h20.416a2.765,2.765,0,0,1,2.764,2.764v20.416a2.764,2.764,0,0,1-2.764,2.764" fill="#dc761c"/>
      <path id="Path_68615" data-name="Path 68615" d="M129.275,176.842H108.859a2.764,2.764,0,0,1-2.764-2.764V153.662a2.764,2.764,0,0,1,2.764-2.763h20.416a2.764,2.764,0,0,1,2.764,2.763v20.416a2.764,2.764,0,0,1-2.764,2.764" fill="#9bbdf9"/>
      <path id="Path_68616" data-name="Path 68616" d="M162.325,176.842H141.909a2.764,2.764,0,0,1-2.764-2.764V153.662a2.764,2.764,0,0,1,2.764-2.763h20.416a2.764,2.764,0,0,1,2.764,2.763v20.416a2.764,2.764,0,0,1-2.764,2.764" fill="#9bbdf9"/>
      <path id="Path_68617" data-name="Path 68617" d="M195.376,176.842H174.96a2.764,2.764,0,0,1-2.764-2.764V153.662a2.764,2.764,0,0,1,2.764-2.763h20.416a2.764,2.764,0,0,1,2.764,2.763v20.416a2.764,2.764,0,0,1-2.764,2.764" fill="#9bbdf9"/>
      <path id="Path_68618" data-name="Path 68618" d="M228.426,176.842H208.01a2.764,2.764,0,0,1-2.764-2.764V153.662a2.764,2.764,0,0,1,2.764-2.763h20.416a2.764,2.764,0,0,1,2.764,2.763v20.416a2.764,2.764,0,0,1-2.764,2.764" fill="#9bbdf9"/>
    </g>
  </g>
  <text id="october" transform="translate(106.095 109.529)" fill="#dc761c" font-size="14.697" font-family="BuiltTitlingRg-Regular, Built Titling"><tspan x="0" y="0" letter-spacing="0.05em">o</tspan><tspan y="0" letter-spacing="0.035em">c</tspan><tspan y="0" letter-spacing="0.033em">t</tspan><tspan y="0" letter-spacing="0.05em">obe</tspan><tspan y="0">r</tspan></text>
  <g id="Group_39085" data-name="Group 39085">
    <g id="Group_39084" data-name="Group 39084" clip-path="url(#clip-path)">
      <path id="Path_68619" data-name="Path 68619" d="M241.221,267.834H151.576a5.185,5.185,0,0,1-5.186-5.185V207.287a5.185,5.185,0,0,1,5.186-5.185h89.645a5.184,5.184,0,0,1,5.185,5.185v55.362a5.185,5.185,0,0,1-5.185,5.185" fill="#fff"/>
      <path id="Path_68620" data-name="Path 68620" d="M232.808,224.5h-71.05a2.763,2.763,0,0,1-2.764-2.764v-9.416a2.763,2.763,0,0,1,2.764-2.763h71.05a2.764,2.764,0,0,1,2.764,2.763v9.416a2.764,2.764,0,0,1-2.764,2.764" fill="#9bbdf9"/>
      <line id="Line_416" data-name="Line 416" x2="34.899" transform="translate(159.994 234.289)" fill="none" stroke="#000" stroke-linecap="round" stroke-linejoin="round" stroke-width="1.3"/>
      <line id="Line_417" data-name="Line 417" x2="74.578" transform="translate(159.994 242.788)" fill="none" stroke="#000" stroke-linecap="round" stroke-linejoin="round" stroke-width="1.3"/>
      <line id="Line_418" data-name="Line 418" x2="74.578" transform="translate(159.994 252.161)" fill="none" stroke="#000" stroke-linecap="round" stroke-linejoin="round" stroke-width="1.3"/>
      <path id="Path_68621" data-name="Path 68621" d="M289.293,368.238H237.331a6.312,6.312,0,0,1-6.313-6.312V316.857a6.312,6.312,0,0,1,6.313-6.312h51.962a6.312,6.312,0,0,1,6.312,6.312v45.069a6.312,6.312,0,0,1-6.312,6.312" fill="#dc761c"/>
      <path id="Path_68622" data-name="Path 68622" d="M276.108,336.877l-2.122-.371a11.009,11.009,0,0,0-1.1-2.643l1.237-1.763a1.631,1.631,0,0,0-.183-2.089l-1.27-1.27a1.63,1.63,0,0,0-2.089-.149l-1.763,1.237a10.968,10.968,0,0,0-2.643-1.1l-.365-2.169a1.628,1.628,0,0,0-1.574-1.352h-1.832a1.628,1.628,0,0,0-1.608,1.352l-.372,2.115a10.947,10.947,0,0,0-2.642,1.1l-1.757-1.183a1.627,1.627,0,0,0-2.088.183l-1.271,1.27a1.628,1.628,0,0,0-.182,2.088l1.236,1.764a11.033,11.033,0,0,0-1.1,2.643l-2.115.371a1.629,1.629,0,0,0-1.351,1.609v1.8a1.629,1.629,0,0,0,1.351,1.609l2.115.371a11.05,11.05,0,0,0,1.1,2.643l-1.236,1.764a1.628,1.628,0,0,0,.182,2.088l1.271,1.27a1.627,1.627,0,0,0,2.088.183l1.764-1.237a10.944,10.944,0,0,0,2.642,1.1l.372,2.115a1.629,1.629,0,0,0,1.608,1.352h1.825a1.629,1.629,0,0,0,1.608-1.352l.372-2.115a10.945,10.945,0,0,0,2.642-1.1l1.723,1.21a1.63,1.63,0,0,0,2.089-.183l1.27-1.27a1.63,1.63,0,0,0,.183-2.088l-1.237-1.778a10.985,10.985,0,0,0,1.1-2.642l2.122-.372a1.628,1.628,0,0,0,1.351-1.608v-1.8a1.629,1.629,0,0,0-1.351-1.6m-12.8,8.137a5.636,5.636,0,1,1,5.636-5.636v.031a5.635,5.635,0,0,1-5.636,5.605" fill="#fff"/>
      <line id="Line_419" data-name="Line 419" x2="409.941" transform="translate(14.719 432.433)" fill="none" stroke="#000" stroke-width="0.75"/>
      <path id="Path_68623" data-name="Path 68623" d="M349.785,61.988h40.308a18.043,18.043,0,0,0,0-36.086H349.785a18.043,18.043,0,0,0,0,36.086" fill="#9bbdf9"/>
      <path id="Path_68624" data-name="Path 68624" d="M363.97,58.011,350.89,70.853,348.512,57.06Z" fill="#9bbdf9"/>
      <path id="Path_68625" data-name="Path 68625" d="M363.887,38.218a4.758,4.758,0,0,0-6.732.071l-1.212,1.238L354.694,38.3a4.76,4.76,0,1,0-6.68,6.784l4.631,4.56c.01.01.016.022.026.031a4.758,4.758,0,0,0,6.731-.07l4.556-4.652a4.762,4.762,0,0,0-.071-6.733" fill="#fff"/>
      <line id="Line_420" data-name="Line 420" x2="18.545" transform="translate(372.995 39.819)" fill="none" stroke="#fff" stroke-linecap="round" stroke-linejoin="round" stroke-width="1.019"/>
      <line id="Line_421" data-name="Line 421" x2="9.782" transform="translate(372.995 44.963)" fill="none" stroke="#fff" stroke-linecap="round" stroke-linejoin="round" stroke-width="1.019"/>
      <path id="Path_68626" data-name="Path 68626" d="M312.121,419.978l-11.86,6.529a3.419,3.419,0,0,0-1.628,3.778c.308,1.187,1.32,2.093,3.959,2.146,5.863.117,31.808-4.207,31.808-4.207v3.73l12.124.063s.759-17.635-2.908-19.883Z" fill="#200902"/>
      <path id="Path_68627" data-name="Path 68627" d="M328.009,407.009l-15.888,12.969s2.044,5.865,11.1,1.955,20.4-9.8,20.4-9.8l-1.654-6.786Z" fill="#ecc696"/>
      <path id="Path_68628" data-name="Path 68628" d="M341.962,405.348l1.654-47.081-15.748-1.28v55.147Z" fill="#ecc696"/>
      <path id="Path_68629" data-name="Path 68629" d="M313.92,216.912l6.587,183.338H351.05L352.61,202.1Z" fill="#3a2222"/>
      <path id="Path_68630" data-name="Path 68630" d="M317.345,213.7l15.368,89.327a18.125,18.125,0,0,0,35.95-4.312l-2.941-40.574c-1.483-13.773,1.933-31.583-13.112-56.038Z" fill="#523332"/>
      <path id="Path_68631" data-name="Path 68631" d="M398.123,415.478l-6.59,11.826a3.421,3.421,0,0,0,.624,4.067c.891.842,2.23,1.073,4.495-.282,5.032-3.011,24.731-20.44,24.731-20.44l1.979,3.161,10.311-6.378s-8.713-15.351-13.013-15.312Z" fill="#200902"/>
      <path id="Path_68632" data-name="Path 68632" d="M404.711,396.055l-6.588,19.423s4.844,3.886,10.445-4.231,12.091-19.127,12.091-19.127l-5-4.875Z" fill="#ecc696"/>
      <path id="Path_68633" data-name="Path 68633" d="M415.658,387.245l-23.575-40.787-14.027,7.269,29.255,46.747Z" fill="#ecc696"/>
      <path id="Path_68634" data-name="Path 68634" d="M335,309.267l56.771,84.664,26.456-16.961-54.868-92.117Z" fill="#523332"/>
      <path id="Path_68635" data-name="Path 68635" d="M292.648,68.62s-12.615-1.643-14.261,10.3c-1.225,8.887,2.866,13.264-.339,20.412s2.807,13.54,2.807,13.54,14.945,6.94,31.18-7.254Z" fill="#dc761c"/>
      <path id="Path_68636" data-name="Path 68636" d="M297.549,108.559l6.843,17.781,14.322-3.815-13.227-25.56Z" fill="#ecc696"/>
      <path id="Path_68637" data-name="Path 68637" d="M300.819,117.055l2.936-13.027-5.338,6.786Z"/>
      <path id="Path_68638" data-name="Path 68638" d="M291.049,71.294s-8.5,1.794-8.506,12.582c0,0-.408,4.123.132,15.364.383,7.961,4.139,13.474,11.609,12.712,3.624-.369,7.417-2.58,10.815-5.443l4.759-4.85c11-13.427-.476-33.663-17.566-30.611q-.612.11-1.243.246" fill="#ecc696"/>
      <path id="Path_68639" data-name="Path 68639" d="M283.219,92.966l-3.013,5.289a.912.912,0,0,0,.569,1.469l3.906.509Z" fill="#ecc696"/>
      <path id="Path_68640" data-name="Path 68640" d="M303.313,89.824c.3-2.442,1.963-19.429-10.763-17.236a1.826,1.826,0,0,1-1.275-3.35c4.547-2.839,11.77-4.8,22.211-.776,4.239,1.633,10.08,7.222,10.083,12.712.005,11.786-3.922,17.763-10.83,23.83a.734.734,0,0,1-1.131-.214l-4.451-8.6a.513.513,0,0,1-.038-.094c-.49-1.561-2.968-4.844-3.663-5.747a.705.705,0,0,1-.143-.524" fill="#dc761c"/>
      <path id="Path_68641" data-name="Path 68641" d="M294.793,68.417c-16,7.378,7.416,24.939,7.416,24.939L308.8,80.383s-11.334-13.2-14.008-11.966" fill="#dc761c"/>
      <path id="Path_68642" data-name="Path 68642" d="M284.185,83.111l8.463,2.869a11.02,11.02,0,0,0-4.474-4.18c-4.031-1.959-3.989,1.311-3.989,1.311"/>
      <path id="Path_68643" data-name="Path 68643" d="M285.965,88.892a3.789,3.789,0,0,1,2.944,3.458c.1,2.841-3,2.647-3,2.647s-2.671-3.438.052-6.105" fill="#fff"/>
    </g>
  </g>
  <g id="Group_39087" data-name="Group 39087">
    <g id="Group_39086" data-name="Group 39086" clip-path="url(#clip-path-3)">
      <path id="Path_68644" data-name="Path 68644" d="M286.54,88.157s2.21,4.108-.627,6.84h0l-1.592-.152-.075-4.528Z"/>
    </g>
  </g>
  <g id="Group_39089" data-name="Group 39089">
    <g id="Group_39088" data-name="Group 39088" clip-path="url(#clip-path)">
      <path id="Path_68646" data-name="Path 68646" d="M285.278,88.178a4.5,4.5,0,0,1,1.388.325,4.1,4.1,0,0,1,1.179.727,3.555,3.555,0,0,1,.839,1.072,4.583,4.583,0,0,1,.427,1.249.165.165,0,0,1-.316.094l-.005-.013a4.12,4.12,0,0,0-.543-1.061,2.958,2.958,0,0,0-.826-.791,3.307,3.307,0,0,0-1.032-.444,3.565,3.565,0,0,0-1.081-.1h-.022a.531.531,0,1,1-.09-1.059.451.451,0,0,1,.082,0"/>
      <path id="Path_68647" data-name="Path 68647" d="M283.2,101.742a.869.869,0,0,0-.162,1.708s-1.223,1.249.633,1.664,3.6-2.754,3.6-2.754c-2.263.5-2.734-.828-4.067-.618" fill="#c7181b"/>
      <path id="Path_68648" data-name="Path 68648" d="M304.5,97.037a71.537,71.537,0,0,1,.168,14.986s20.2,6.489,29.373-16.491c0,0-5.861-2.26-7.66-7.3s-.023-22.566-23.6-22.046c0,0,.594,22.827,1.716,30.85" fill="#dc761c"/>
      <path id="Path_68649" data-name="Path 68649" d="M312.259,93.212a5.441,5.441,0,1,1-6.074-4.725,5.442,5.442,0,0,1,6.074,4.725" fill="#ecc696"/>
      <path id="Path_68650" data-name="Path 68650" d="M304.5,96.188s.214-4.142,3.628-4.216" fill="none" stroke="#000" stroke-linecap="round" stroke-linejoin="round" stroke-width="0.511"/>
      <path id="Path_68651" data-name="Path 68651" d="M339.656,136.18l33.475,27.109a10.969,10.969,0,0,1-14.15,16.765l-36.33-28.781Z" fill="#ecc696"/>
      <path id="Path_68652" data-name="Path 68652" d="M359.739,146.133s-1.431,10.794-20.241,23.183L313.93,150.31a15.133,15.133,0,0,1,17.063-24.969Z" fill="#467ac9"/>
      <path id="Path_68653" data-name="Path 68653" d="M359.122,180.442l33.2,42.66,8.144-9.547-24.823-47.384a10.948,10.948,0,1,0-16.526,14.271" fill="#ecc696"/>
      <path id="Path_68654" data-name="Path 68654" d="M390.391,221.292l-.341,2.135A18.541,18.541,0,0,0,390.7,232l1.559,4.873a1.964,1.964,0,0,0,2.772,1.147,2.515,2.515,0,0,0,1.351-2.471l-.508-5.406,10.8,15.285a1.522,1.522,0,0,0,2.265.3l.464-.4a1.521,1.521,0,0,0,.322-1.9l-6.895-10.542,9.6,11.014a1.521,1.521,0,0,0,2.273.158l.323-.317a1.522,1.522,0,0,0,.141-2.011l-7.935-10.214,7.726,6.43a1.522,1.522,0,0,0,2.339-.4l.1-.172a1.523,1.523,0,0,0-.227-1.79l-7.551-7.252,4.742,2.834a1.522,1.522,0,0,0,2.021-2.271l-19.265-18.033-3.936,4.5a11.838,11.838,0,0,0-2.779,5.926" fill="#ecc696"/>
      <path id="Path_68655" data-name="Path 68655" d="M314.072,121.984s-13.158-1.275-13.33,22.493c-.173,23.829,7.347,35.061,13.179,72.435,0,0,22.313-2.735,38.69-14.81,0,0,1.017-87.537-38.539-80.118" fill="#4479fa"/>
      <path id="Path_68656" data-name="Path 68656" d="M311.412,153.826l-31.118,29.786a10.969,10.969,0,0,1-14.844-16.153l33.136-32.407Z" fill="#ecc696"/>
      <path id="Path_68657" data-name="Path 68657" d="M302.927,172.713s-10.854-.375-22.013-22.5L302.8,127.054a15.133,15.133,0,0,1,22.789,19.881Z" fill="#4479fa"/>
      <line id="Line_422" data-name="Line 422" y1="17.021" x2="14.96" transform="translate(305.933 152.273)" fill="none" stroke="#000" stroke-linecap="round" stroke-linejoin="round" stroke-width="0.511"/>
      <path id="Path_68658" data-name="Path 68658" d="M279.749,167.791l-44.34-33.553-5.823,9.131,35.041,39.348a10.653,10.653,0,1,0,15.122-14.926" fill="#ecc696"/>
      <path id="Path_68659" data-name="Path 68659" d="M241.283,143.505c-1.672,5.619-7.094,5.394-17.755,2.406-5.645-1.583-7.691-5.582-6.021-11.2a10.614,10.614,0,0,1,13.2-7.147c5.62,1.671,12.247,10.324,10.577,15.942" fill="#ecc696"/>
      <path id="Path_68660" data-name="Path 68660" d="M232.661,128.361l-13.549-7.877a2.03,2.03,0,0,0-2.761.476,1.751,1.751,0,0,0,.285,2.36l10.517,8.89Z" fill="#ecc696"/>
    </g>
  </g>
</svg>
