<svg xmlns="http://www.w3.org/2000/svg" xmlns:xlink="http://www.w3.org/1999/xlink" width="683" height="425.951" viewBox="0 0 683 425.951">
  <defs>
    <clipPath id="clip-path">
      <rect id="Rectangle_4912" data-name="Rectangle 4912" width="683" height="425.951" fill="none"/>
    </clipPath>
    <clipPath id="clip-path-2">
      <rect id="Rectangle_4814" data-name="Rectangle 4814" width="26.401" height="84.11" fill="none"/>
    </clipPath>
    <clipPath id="clip-path-3">
      <rect id="Rectangle_4815" data-name="Rectangle 4815" width="23.356" height="84.11" fill="none"/>
    </clipPath>
    <clipPath id="clip-path-8">
      <rect id="Rectangle_4820" data-name="Rectangle 4820" width="49.694" height="4.941" fill="none"/>
    </clipPath>
    <clipPath id="clip-path-9">
      <rect id="Rectangle_4821" data-name="Rectangle 4821" width="49.692" height="4.941" fill="none"/>
    </clipPath>
    <clipPath id="clip-path-12">
      <rect id="Rectangle_4824" data-name="Rectangle 4824" width="34.349" height="8.025" fill="none"/>
    </clipPath>
    <clipPath id="clip-path-13">
      <rect id="Rectangle_4827" data-name="Rectangle 4827" width="102.237" height="66.496" fill="#6c63f8"/>
    </clipPath>
    <clipPath id="clip-path-14">
      <rect id="Rectangle_4834" data-name="Rectangle 4834" width="83.227" height="110.645" fill="none"/>
    </clipPath>
    <clipPath id="clip-path-15">
      <rect id="Rectangle_4835" data-name="Rectangle 4835" width="66.057" height="51.557" fill="none"/>
    </clipPath>
    <clipPath id="clip-path-16">
      <rect id="Rectangle_4836" data-name="Rectangle 4836" width="412.501" height="285.744" fill="none"/>
    </clipPath>
    <clipPath id="clip-path-17">
      <rect id="Rectangle_4838" data-name="Rectangle 4838" width="142.954" height="8.179" fill="none"/>
    </clipPath>
    <clipPath id="clip-path-18">
      <rect id="Rectangle_4840" data-name="Rectangle 4840" width="386.078" height="38.183" fill="none"/>
    </clipPath>
    <clipPath id="clip-path-19">
      <rect id="Rectangle_4842" data-name="Rectangle 4842" width="165.445" height="217.292" fill="none"/>
    </clipPath>
    <clipPath id="clip-path-20">
      <rect id="Rectangle_4859" data-name="Rectangle 4859" width="41.093" height="15.203" fill="none"/>
    </clipPath>
    <clipPath id="clip-path-22">
      <rect id="Rectangle_4861" data-name="Rectangle 4861" width="41.093" height="15.204" fill="none"/>
    </clipPath>
    <clipPath id="clip-path-23">
      <rect id="Rectangle_4863" data-name="Rectangle 4863" width="129.499" height="129.501" fill="none"/>
    </clipPath>
    <clipPath id="clip-path-24">
      <rect id="Rectangle_4870" data-name="Rectangle 4870" width="61.856" height="22.656" fill="none"/>
    </clipPath>
    <clipPath id="clip-path-25">
      <rect id="Rectangle_4871" data-name="Rectangle 4871" width="126.057" height="4.951" fill="none"/>
    </clipPath>
    <clipPath id="clip-path-27">
      <rect id="Rectangle_4873" data-name="Rectangle 4873" width="80.379" height="4.953" fill="none"/>
    </clipPath>
    <clipPath id="clip-path-28">
      <rect id="Rectangle_4875" data-name="Rectangle 4875" width="8.555" height="8.555" fill="none"/>
    </clipPath>
    <clipPath id="clip-path-31">
      <rect id="Rectangle_4878" data-name="Rectangle 4878" width="20.984" height="20.985" fill="none"/>
    </clipPath>
    <clipPath id="clip-path-32">
      <rect id="Rectangle_4879" data-name="Rectangle 4879" width="16.444" height="16.444" fill="none"/>
    </clipPath>
    <clipPath id="clip-path-33">
      <rect id="Rectangle_4880" data-name="Rectangle 4880" width="13.811" height="13.812" fill="none"/>
    </clipPath>
    <clipPath id="clip-path-34">
      <rect id="Rectangle_4882" data-name="Rectangle 4882" width="17.263" height="17.264" fill="none"/>
    </clipPath>
    <clipPath id="clip-path-35">
      <rect id="Rectangle_4883" data-name="Rectangle 4883" width="18.65" height="18.65" fill="none"/>
    </clipPath>
    <clipPath id="clip-path-36">
      <rect id="Rectangle_4884" data-name="Rectangle 4884" width="253.691" height="256.173" fill="none"/>
    </clipPath>
    <clipPath id="clip-path-37">
      <rect id="Rectangle_4885" data-name="Rectangle 4885" width="51.821" height="76.616" fill="none"/>
    </clipPath>
    <clipPath id="clip-path-38">
      <rect id="Rectangle_4886" data-name="Rectangle 4886" width="46.164" height="62.791" fill="none"/>
    </clipPath>
    <clipPath id="clip-path-39">
      <rect id="Rectangle_4887" data-name="Rectangle 4887" width="92.324" height="120.925" fill="none"/>
    </clipPath>
    <clipPath id="clip-path-40">
      <rect id="Rectangle_4888" data-name="Rectangle 4888" width="91.618" height="117.606" fill="none"/>
    </clipPath>
    <clipPath id="clip-path-41">
      <rect id="Rectangle_4889" data-name="Rectangle 4889" width="110.805" height="104.823" fill="none"/>
    </clipPath>
    <clipPath id="clip-path-42">
      <rect id="Rectangle_4890" data-name="Rectangle 4890" width="110.493" height="100.187" fill="none"/>
    </clipPath>
    <clipPath id="clip-path-43">
      <rect id="Rectangle_4891" data-name="Rectangle 4891" width="29.644" height="20.844" fill="none"/>
    </clipPath>
    <clipPath id="clip-path-44">
      <rect id="Rectangle_4892" data-name="Rectangle 4892" width="26.889" height="29.781" fill="none"/>
    </clipPath>
    <clipPath id="clip-path-45">
      <rect id="Rectangle_4893" data-name="Rectangle 4893" width="18.968" height="4.607" fill="none"/>
    </clipPath>
    <clipPath id="clip-path-46">
      <rect id="Rectangle_4894" data-name="Rectangle 4894" width="14.691" height="54.554" fill="none"/>
    </clipPath>
    <clipPath id="clip-path-47">
      <rect id="Rectangle_4895" data-name="Rectangle 4895" width="71.145" height="82.321" fill="none"/>
    </clipPath>
    <clipPath id="clip-path-48">
      <rect id="Rectangle_4896" data-name="Rectangle 4896" width="13.668" height="24.498" fill="none"/>
    </clipPath>
    <clipPath id="clip-path-49">
      <rect id="Rectangle_4897" data-name="Rectangle 4897" width="76.663" height="60.897" fill="none"/>
    </clipPath>
    <clipPath id="clip-path-50">
      <rect id="Rectangle_4898" data-name="Rectangle 4898" width="40.471" height="36.234" fill="none"/>
    </clipPath>
    <clipPath id="clip-path-51">
      <rect id="Rectangle_4899" data-name="Rectangle 4899" width="11.775" height="13.468" fill="none"/>
    </clipPath>
    <clipPath id="clip-path-52">
      <rect id="Rectangle_4900" data-name="Rectangle 4900" width="12.772" height="14.173" fill="none"/>
    </clipPath>
    <clipPath id="clip-path-53">
      <rect id="Rectangle_4901" data-name="Rectangle 4901" width="6.953" height="47.183" fill="none"/>
    </clipPath>
    <clipPath id="clip-path-54">
      <rect id="Rectangle_4903" data-name="Rectangle 4903" width="12.06" height="23.708" fill="none"/>
    </clipPath>
    <clipPath id="clip-path-55">
      <rect id="Rectangle_4904" data-name="Rectangle 4904" width="100.05" height="120.517" fill="none"/>
    </clipPath>
    <clipPath id="clip-path-56">
      <rect id="Rectangle_4906" data-name="Rectangle 4906" width="8.68" height="17.826" fill="none"/>
    </clipPath>
    <clipPath id="clip-path-57">
      <rect id="Rectangle_4907" data-name="Rectangle 4907" width="14.636" height="23.58" fill="none"/>
    </clipPath>
    <clipPath id="clip-path-58">
      <rect id="Rectangle_4908" data-name="Rectangle 4908" width="16.353" height="34.908" fill="none"/>
    </clipPath>
    <clipPath id="clip-path-59">
      <rect id="Rectangle_4909" data-name="Rectangle 4909" width="25.725" height="35.557" fill="none"/>
    </clipPath>
  </defs>
  <g id="Group_37281" data-name="Group 37281" clip-path="url(#clip-path)">
    <g id="Group_37100" data-name="Group 37100" transform="translate(476.689 337.091)" opacity="0.2">
      <g id="Group_37099" data-name="Group 37099">
        <g id="Group_37098" data-name="Group 37098" clip-path="url(#clip-path-2)">
          <path id="Path_38681" data-name="Path 38681" d="M313.082,305.506h11.177l15.226-84.11H328.307Z" transform="translate(-313.082 -221.396)" fill="#fff"/>
        </g>
      </g>
    </g>
    <g id="Group_37103" data-name="Group 37103" transform="translate(476.689 337.091)" opacity="0.2">
      <g id="Group_37102" data-name="Group 37102">
        <g id="Group_37101" data-name="Group 37101" clip-path="url(#clip-path-3)">
          <path id="Path_38682" data-name="Path 38682" d="M313.082,305.506h8.132l15.226-84.11h-8.132Z" transform="translate(-313.082 -221.396)" fill="#fff"/>
        </g>
      </g>
    </g>
    <path id="Path_38683" data-name="Path 38683" d="M293.233,239.526h44.751a2.47,2.47,0,1,0,0-4.941H293.233a2.47,2.47,0,0,0,0,4.941" transform="translate(151.944 122.587)" fill="#263238"/>
    <path id="Path_38684" data-name="Path 38684" d="M289.97,258.021h44.751a2.47,2.47,0,1,0,0-4.941H289.97a2.47,2.47,0,0,0,0,4.941" transform="translate(150.239 132.252)" fill="#263238"/>
    <path id="Path_38685" data-name="Path 38685" d="M283.082,305.506h11.177l15.226-84.11H298.307Z" transform="translate(147.93 115.695)" fill="#263238"/>
    <g id="Group_37106" data-name="Group 37106" transform="translate(431.012 337.091)" opacity="0.2">
      <g id="Group_37105" data-name="Group 37105">
        <g id="Group_37104" data-name="Group 37104" clip-path="url(#clip-path-2)">
          <path id="Path_38686" data-name="Path 38686" d="M283.082,305.506h11.177l15.226-84.11H298.307Z" transform="translate(-283.082 -221.396)" fill="#fff"/>
        </g>
      </g>
    </g>
    <g id="Group_37109" data-name="Group 37109" transform="translate(431.012 337.091)" opacity="0.2">
      <g id="Group_37108" data-name="Group 37108">
        <g id="Group_37107" data-name="Group 37107" clip-path="url(#clip-path-3)">
          <path id="Path_38687" data-name="Path 38687" d="M283.082,305.506h8.132l15.226-84.11h-8.132Z" transform="translate(-283.082 -221.396)" fill="#fff"/>
        </g>
      </g>
    </g>
    <path id="Path_38688" data-name="Path 38688" d="M360.484,305.506H349.307L334.081,221.4h11.177Z" transform="translate(174.581 115.695)" fill="#263238"/>
    <g id="Group_37112" data-name="Group 37112" transform="translate(508.663 337.091)" opacity="0.4">
      <g id="Group_37111" data-name="Group 37111">
        <g id="Group_37110" data-name="Group 37110" clip-path="url(#clip-path-2)">
          <path id="Path_38689" data-name="Path 38689" d="M360.484,305.506H349.307L334.081,221.4h11.177Z" transform="translate(-334.082 -221.396)" fill="#fff"/>
        </g>
      </g>
    </g>
    <g id="Group_37115" data-name="Group 37115" transform="translate(508.663 337.091)" opacity="0.2">
      <g id="Group_37114" data-name="Group 37114">
        <g id="Group_37113" data-name="Group 37113" clip-path="url(#clip-path-3)">
          <path id="Path_38690" data-name="Path 38690" d="M357.439,305.506h-8.132L334.081,221.4h8.132Z" transform="translate(-334.082 -221.396)" fill="#fff"/>
        </g>
      </g>
    </g>
    <path id="Path_38691" data-name="Path 38691" d="M354.721,239.526H309.97a2.47,2.47,0,1,1,0-4.941h44.751a2.47,2.47,0,0,1,0,4.941" transform="translate(160.69 122.587)" fill="#263238"/>
    <path id="Path_38692" data-name="Path 38692" d="M357.986,258.021H313.234a2.47,2.47,0,1,1,0-4.941h44.751a2.47,2.47,0,0,1,0,4.941" transform="translate(162.395 132.252)" fill="#263238"/>
    <g id="Group_37118" data-name="Group 37118" transform="translate(468.189 357.172)" opacity="0.2">
      <g id="Group_37117" data-name="Group 37117">
        <g id="Group_37116" data-name="Group 37116" clip-path="url(#clip-path-8)">
          <path id="Path_38693" data-name="Path 38693" d="M354.721,239.526H309.97a2.47,2.47,0,1,1,0-4.941h44.751a2.47,2.47,0,0,1,0,4.941" transform="translate(-307.499 -234.585)" fill="#fff"/>
        </g>
      </g>
    </g>
    <g id="Group_37121" data-name="Group 37121" transform="translate(473.158 385.331)" opacity="0.2">
      <g id="Group_37120" data-name="Group 37120">
        <g id="Group_37119" data-name="Group 37119" clip-path="url(#clip-path-9)">
          <path id="Path_38694" data-name="Path 38694" d="M357.986,258.021H313.234a2.47,2.47,0,1,1,0-4.941h44.751a2.47,2.47,0,0,1,0,4.941" transform="translate(-310.763 -253.08)" fill="#fff"/>
        </g>
      </g>
    </g>
    <path id="Path_38695" data-name="Path 38695" d="M330.484,305.506H319.307L304.081,221.4h11.177Z" transform="translate(158.904 115.695)" fill="#263238"/>
    <g id="Group_37124" data-name="Group 37124" transform="translate(462.986 337.091)" opacity="0.4">
      <g id="Group_37123" data-name="Group 37123">
        <g id="Group_37122" data-name="Group 37122" clip-path="url(#clip-path-2)">
          <path id="Path_38696" data-name="Path 38696" d="M330.484,305.506H319.307L304.081,221.4h11.177Z" transform="translate(-304.082 -221.396)" fill="#fff"/>
        </g>
      </g>
    </g>
    <g id="Group_37127" data-name="Group 37127" transform="translate(462.986 337.091)" opacity="0.2">
      <g id="Group_37126" data-name="Group 37126">
        <g id="Group_37125" data-name="Group 37125" clip-path="url(#clip-path-3)">
          <path id="Path_38697" data-name="Path 38697" d="M327.439,305.506h-8.132L304.081,221.4h8.132Z" transform="translate(-304.082 -221.396)" fill="#fff"/>
        </g>
      </g>
    </g>
    <path id="Path_38698" data-name="Path 38698" d="M372.658,226.785H291.811A1.807,1.807,0,0,1,290,224.978v-4.409a1.807,1.807,0,0,1,1.807-1.807h80.847a1.807,1.807,0,0,1,1.807,1.807v4.409a1.807,1.807,0,0,1-1.807,1.807" transform="translate(151.547 114.318)" fill="#263238"/>
    <g id="Group_37130" data-name="Group 37130" transform="translate(441.553 333.079)" opacity="0.2">
      <g id="Group_37129" data-name="Group 37129">
        <g id="Group_37128" data-name="Group 37128" clip-path="url(#clip-path-12)">
          <path id="Path_38699" data-name="Path 38699" d="M322.547,226.785H291.812a1.806,1.806,0,0,1-1.807-1.807v-4.409a1.806,1.806,0,0,1,1.807-1.807h30.735a1.807,1.807,0,0,1,1.807,1.807v4.409a1.807,1.807,0,0,1-1.807,1.807" transform="translate(-290.005 -218.761)" fill="#fff"/>
        </g>
      </g>
    </g>
    <rect id="Rectangle_4825" data-name="Rectangle 4825" width="102.237" height="66.497" transform="translate(161.24 353.609)" fill="#407bff"/>
    <g id="Group_37133" data-name="Group 37133" transform="translate(161.24 353.61)" opacity="0.6" style="mix-blend-mode: normal;isolation: isolate">
      <g id="Group_37132" data-name="Group 37132">
        <g id="Group_37131" data-name="Group 37131" clip-path="url(#clip-path-13)">
          <rect id="Rectangle_4826" data-name="Rectangle 4826" width="102.237" height="66.497" transform="translate(0 -0.001)" fill="#6c63f8"/>
        </g>
      </g>
    </g>
    <rect id="Rectangle_4828" data-name="Rectangle 4828" width="94.757" height="50.703" transform="translate(164.981 366.079)" fill="#ffc732"/>
    <rect id="Rectangle_4829" data-name="Rectangle 4829" width="70.095" height="2.182" transform="translate(172.7 373.654)" fill="#fff"/>
    <rect id="Rectangle_4830" data-name="Rectangle 4830" width="33.631" height="2.18" transform="translate(172.702 380.335)" fill="#fff"/>
    <rect id="Rectangle_4831" data-name="Rectangle 4831" width="42.358" height="2.18" transform="translate(172.702 387.016)" fill="#fff"/>
    <rect id="Rectangle_4832" data-name="Rectangle 4832" width="14.929" height="2.18" transform="translate(172.702 393.695)" fill="#fff"/>
    <rect id="Rectangle_4833" data-name="Rectangle 4833" width="9.667" height="2.182" transform="translate(172.702 400.375)" fill="#fff"/>
    <path id="Path_38700" data-name="Path 38700" d="M284.6,314.611H201.364l14.093-110.644H270.5Z" transform="translate(105.227 106.587)" fill="#407bff"/>
    <g id="Group_37136" data-name="Group 37136" transform="translate(306.592 310.556)" opacity="0.6">
      <g id="Group_37135" data-name="Group 37135">
        <g id="Group_37134" data-name="Group 37134" clip-path="url(#clip-path-14)">
          <path id="Path_38701" data-name="Path 38701" d="M284.592,314.613H201.365l9.644-75.7,4.45-34.948H270.5l6.57,51.557Z" transform="translate(-201.365 -203.968)" fill="#fff"/>
        </g>
      </g>
    </g>
    <g id="Group_37139" data-name="Group 37139" transform="translate(316.238 310.556)" opacity="0.1" style="mix-blend-mode: normal;isolation: isolate">
      <g id="Group_37138" data-name="Group 37138">
        <g id="Group_37137" data-name="Group 37137" clip-path="url(#clip-path-15)">
          <path id="Path_38702" data-name="Path 38702" d="M273.757,255.525,207.7,238.917l4.449-34.949h55.038Z" transform="translate(-207.7 -203.969)"/>
        </g>
      </g>
    </g>
    <path id="Path_38703" data-name="Path 38703" d="M495.695,24.78H103.278A10.044,10.044,0,0,0,93.234,34.821V300.482a10.044,10.044,0,0,0,10.044,10.041H495.695a10.042,10.042,0,0,0,10.041-10.041V34.821A10.042,10.042,0,0,0,495.695,24.78" transform="translate(48.721 12.949)" fill="#407bff"/>
    <g id="Group_37142" data-name="Group 37142" transform="translate(141.956 37.729)" opacity="0.7">
      <g id="Group_37141" data-name="Group 37141">
        <g id="Group_37140" data-name="Group 37140" clip-path="url(#clip-path-16)">
          <path id="Path_38704" data-name="Path 38704" d="M495.695,24.78H103.278A10.044,10.044,0,0,0,93.234,34.821V300.482a10.044,10.044,0,0,0,10.044,10.041H495.695a10.042,10.042,0,0,0,10.041-10.041V34.821A10.042,10.042,0,0,0,495.695,24.78" transform="translate(-93.235 -24.78)" fill="#fff"/>
        </g>
      </g>
    </g>
    <rect id="Rectangle_4837" data-name="Rectangle 4837" width="386.078" height="256.172" transform="translate(155.171 47.564)" fill="#407bff"/>
    <path id="Path_38705" data-name="Path 38705" d="M323.128,271.176H183.33a1.579,1.579,0,0,0-1.579,1.579v5.023a1.579,1.579,0,0,0,1.579,1.577h139.8a1.579,1.579,0,0,0,1.579-1.577v-5.023a1.579,1.579,0,0,0-1.579-1.579" transform="translate(94.978 141.708)" fill="#407bff"/>
    <g id="Group_37145" data-name="Group 37145" transform="translate(276.73 412.885)" opacity="0.7">
      <g id="Group_37144" data-name="Group 37144">
        <g id="Group_37143" data-name="Group 37143" clip-path="url(#clip-path-17)">
          <path id="Path_38706" data-name="Path 38706" d="M323.128,271.176H183.33a1.579,1.579,0,0,0-1.579,1.579v5.023a1.579,1.579,0,0,0,1.579,1.577h139.8a1.579,1.579,0,0,0,1.579-1.577v-5.023a1.579,1.579,0,0,0-1.579-1.579" transform="translate(-181.753 -271.177)" fill="#fff"/>
        </g>
      </g>
    </g>
    <g id="Group_37148" data-name="Group 37148" transform="translate(155.171 47.807)" opacity="0.2" style="mix-blend-mode: normal;isolation: isolate">
      <g id="Group_37147" data-name="Group 37147">
        <g id="Group_37146" data-name="Group 37146" clip-path="url(#clip-path-18)">
          <rect id="Rectangle_4839" data-name="Rectangle 4839" width="386.078" height="38.183" transform="translate(0 0)"/>
        </g>
      </g>
    </g>
    <g id="Group_37151" data-name="Group 37151" transform="translate(155.171 86.444)" opacity="0.4">
      <g id="Group_37150" data-name="Group 37150">
        <g id="Group_37149" data-name="Group 37149" clip-path="url(#clip-path-19)">
          <rect id="Rectangle_4841" data-name="Rectangle 4841" width="165.447" height="217.293" transform="translate(0 -0.002)" fill="#fff"/>
        </g>
      </g>
    </g>
    <path id="Path_38707" data-name="Path 38707" d="M317.765,93.18v3.806h-3.806" transform="translate(164.065 48.693)" fill="none" stroke="#fff" stroke-width="1"/>
    <line id="Line_322" data-name="Line 322" x1="124.695" transform="translate(345.284 145.679)" fill="none" stroke="#fff" stroke-width="1" stroke-dasharray="5.284 5.284"/>
    <path id="Path_38708" data-name="Path 38708" d="M225.442,96.986h-3.806V93.18" transform="translate(115.82 48.693)" fill="none" stroke="#fff" stroke-width="1"/>
    <line id="Line_323" data-name="Line 323" y1="65.515" transform="translate(337.455 69.461)" fill="none" stroke="#fff" stroke-width="1" stroke-dasharray="4.529 4.529"/>
    <path id="Path_38709" data-name="Path 38709" d="M221.635,44.663V40.856h3.806" transform="translate(115.82 21.35)" fill="none" stroke="#fff" stroke-width="1"/>
    <line id="Line_324" data-name="Line 324" x2="124.695" transform="translate(349.307 62.206)" fill="none" stroke="#fff" stroke-width="1" stroke-dasharray="5.284 5.284"/>
    <path id="Path_38710" data-name="Path 38710" d="M313.959,40.856h3.806v3.806" transform="translate(164.065 21.35)" fill="none" stroke="#fff" stroke-width="1"/>
    <line id="Line_325" data-name="Line 325" y2="65.515" transform="translate(481.831 72.909)" fill="none" stroke="#fff" stroke-width="1" stroke-dasharray="4.529 4.529"/>
    <rect id="Rectangle_4843" data-name="Rectangle 4843" width="4.827" height="4.827" transform="translate(479.417 59.793)" fill="#407bff"/>
    <rect id="Rectangle_4844" data-name="Rectangle 4844" width="4.827" height="4.827" transform="translate(479.417 59.793)" fill="none" stroke="#fff" stroke-width="1"/>
    <rect id="Rectangle_4845" data-name="Rectangle 4845" width="4.827" height="4.827" transform="translate(479.417 143.266)" fill="#407bff"/>
    <rect id="Rectangle_4846" data-name="Rectangle 4846" width="4.827" height="4.827" transform="translate(479.417 143.266)" fill="none" stroke="#fff" stroke-width="1"/>
    <rect id="Rectangle_4847" data-name="Rectangle 4847" width="4.827" height="4.827" transform="translate(335.041 59.793)" fill="#407bff"/>
    <rect id="Rectangle_4848" data-name="Rectangle 4848" width="4.827" height="4.827" transform="translate(335.041 59.793)" fill="none" stroke="#fff" stroke-width="1"/>
    <rect id="Rectangle_4849" data-name="Rectangle 4849" width="4.827" height="4.827" transform="translate(335.041 143.266)" fill="#407bff"/>
    <rect id="Rectangle_4850" data-name="Rectangle 4850" width="4.827" height="4.827" transform="translate(335.041 143.266)" fill="none" stroke="#fff" stroke-width="1"/>
    <rect id="Rectangle_4851" data-name="Rectangle 4851" width="4.827" height="4.827" transform="translate(407.229 59.793)" fill="#407bff"/>
    <rect id="Rectangle_4852" data-name="Rectangle 4852" width="4.827" height="4.827" transform="translate(407.229 59.793)" fill="none" stroke="#fff" stroke-width="1"/>
    <rect id="Rectangle_4853" data-name="Rectangle 4853" width="4.827" height="4.827" transform="translate(407.229 143.266)" fill="#407bff"/>
    <rect id="Rectangle_4854" data-name="Rectangle 4854" width="4.827" height="4.827" transform="translate(407.229 143.266)" fill="none" stroke="#fff" stroke-width="1"/>
    <rect id="Rectangle_4855" data-name="Rectangle 4855" width="4.827" height="4.827" transform="translate(479.417 101.529)" fill="#407bff"/>
    <rect id="Rectangle_4856" data-name="Rectangle 4856" width="4.827" height="4.827" transform="translate(479.417 101.529)" fill="none" stroke="#fff" stroke-width="1"/>
    <rect id="Rectangle_4857" data-name="Rectangle 4857" width="4.827" height="4.827" transform="translate(335.041 101.529)" fill="#407bff"/>
    <rect id="Rectangle_4858" data-name="Rectangle 4858" width="4.827" height="4.827" transform="translate(335.041 101.529)" fill="none" stroke="#fff" stroke-width="1"/>
    <g id="Group_37154" data-name="Group 37154" transform="translate(430.51 90.244)" opacity="0.7">
      <g id="Group_37153" data-name="Group 37153">
        <g id="Group_37152" data-name="Group 37152" clip-path="url(#clip-path-20)">
          <path id="Path_38711" data-name="Path 38711" d="M320.961,74.475H285.635a2.883,2.883,0,0,1-2.884-2.882V62.155a2.884,2.884,0,0,1,2.884-2.884h35.327a2.884,2.884,0,0,1,2.884,2.884v9.438a2.883,2.883,0,0,1-2.884,2.882" transform="translate(-282.753 -59.271)" fill="#fff"/>
        </g>
      </g>
    </g>
    <g id="Group_37157" data-name="Group 37157" transform="translate(369.607 90.244)" opacity="0.7">
      <g id="Group_37156" data-name="Group 37156">
        <g id="Group_37155" data-name="Group 37155" clip-path="url(#clip-path-20)">
          <path id="Path_38712" data-name="Path 38712" d="M280.961,74.475H245.635a2.883,2.883,0,0,1-2.884-2.882V62.155a2.884,2.884,0,0,1,2.884-2.884h35.327a2.884,2.884,0,0,1,2.884,2.884v9.438a2.883,2.883,0,0,1-2.884,2.882" transform="translate(-242.753 -59.271)" fill="#fff"/>
        </g>
      </g>
    </g>
    <g id="Group_37160" data-name="Group 37160" transform="translate(291.197 275.371)" opacity="0.7">
      <g id="Group_37159" data-name="Group 37159">
        <g id="Group_37158" data-name="Group 37158" clip-path="url(#clip-path-22)">
          <path id="Path_38713" data-name="Path 38713" d="M229.463,196.063H194.137a2.884,2.884,0,0,1-2.884-2.884v-9.437a2.884,2.884,0,0,1,2.884-2.884h35.327a2.884,2.884,0,0,1,2.884,2.884v9.437a2.884,2.884,0,0,1-2.884,2.884" transform="translate(-191.255 -180.859)" fill="#fff"/>
        </g>
      </g>
    </g>
    <line id="Line_326" data-name="Line 326" x2="12.85" transform="translate(515.773 61.385)" fill="none" stroke="#fff" stroke-linecap="round" stroke-linejoin="round" stroke-width="1.5"/>
    <line id="Line_327" data-name="Line 327" x2="12.85" transform="translate(515.773 67.475)" fill="none" stroke="#fff" stroke-linecap="round" stroke-linejoin="round" stroke-width="1.5"/>
    <line id="Line_328" data-name="Line 328" x2="12.85" transform="translate(515.773 73.566)" fill="none" stroke="#fff" stroke-linecap="round" stroke-linejoin="round" stroke-width="1.5"/>
    <g id="Group_37163" data-name="Group 37163" transform="translate(181.344 120.125)" opacity="0.5">
      <g id="Group_37162" data-name="Group 37162">
        <g id="Group_37161" data-name="Group 37161" clip-path="url(#clip-path-23)">
          <rect id="Rectangle_4862" data-name="Rectangle 4862" width="129.499" height="129.499" transform="translate(0 0.002)" fill="#fff"/>
        </g>
      </g>
    </g>
    <line id="Line_329" data-name="Line 329" y2="111.696" transform="translate(235.554 130.717)" fill="none" stroke="#407bff" stroke-width="1"/>
    <path id="Path_38714" data-name="Path 38714" d="M210.556,197.548h0a55.847,55.847,0,1,1,0-111.694" transform="translate(80.846 44.865)" fill="none" stroke="#407bff" stroke-width="1"/>
    <rect id="Rectangle_4864" data-name="Rectangle 4864" width="4.827" height="4.827" transform="translate(288.988 128.304)" fill="#fff"/>
    <rect id="Rectangle_4865" data-name="Rectangle 4865" width="4.827" height="4.827" transform="translate(288.988 128.304)" fill="none" stroke="#407bff" stroke-width="1"/>
    <rect id="Rectangle_4866" data-name="Rectangle 4866" width="4.827" height="4.827" transform="translate(288.988 240.001)" fill="#fff"/>
    <rect id="Rectangle_4867" data-name="Rectangle 4867" width="4.827" height="4.827" transform="translate(288.988 240.001)" fill="none" stroke="#407bff" stroke-width="1"/>
    <rect id="Rectangle_4868" data-name="Rectangle 4868" width="4.827" height="4.827" transform="translate(233.14 184.152)" fill="#fff"/>
    <rect id="Rectangle_4869" data-name="Rectangle 4869" width="4.827" height="4.827" transform="translate(233.14 184.152)" fill="none" stroke="#407bff" stroke-width="1"/>
    <path id="Path_38715" data-name="Path 38715" d="M156.389,86.283a1.251,1.251,0,1,1-1.252-1.252,1.252,1.252,0,0,1,1.252,1.252" transform="translate(80.417 44.435)" fill="#fff"/>
    <path id="Path_38716" data-name="Path 38716" d="M156.389,86.283a1.251,1.251,0,1,1-1.252-1.252A1.252,1.252,0,0,1,156.389,86.283Z" transform="translate(80.417 44.435)" fill="none" stroke="#407bff" stroke-width="1"/>
    <path id="Path_38717" data-name="Path 38717" d="M156.389,159.643a1.251,1.251,0,1,1-1.252-1.252,1.251,1.251,0,0,1,1.252,1.252" transform="translate(80.417 82.77)" fill="#fff"/>
    <path id="Path_38718" data-name="Path 38718" d="M156.389,159.643a1.251,1.251,0,1,1-1.252-1.252A1.251,1.251,0,0,1,156.389,159.643Z" transform="translate(80.417 82.77)" fill="none" stroke="#407bff" stroke-width="1"/>
    <g id="Group_37166" data-name="Group 37166" transform="translate(399.582 254.554)" opacity="0.7">
      <g id="Group_37165" data-name="Group 37165">
        <g id="Group_37164" data-name="Group 37164" clip-path="url(#clip-path-24)">
          <path id="Path_38719" data-name="Path 38719" d="M312.967,189.843h-39.2a11.328,11.328,0,0,1,0-22.656h39.2a11.328,11.328,0,0,1,0,22.656" transform="translate(-262.439 -167.187)" fill="#fff"/>
        </g>
      </g>
    </g>
    <g id="Group_37169" data-name="Group 37169" transform="translate(360.974 175.65)" opacity="0.7">
      <g id="Group_37168" data-name="Group 37168">
        <g id="Group_37167" data-name="Group 37167" clip-path="url(#clip-path-25)">
          <path id="Path_38720" data-name="Path 38720" d="M360.663,120.316H239.558a2.476,2.476,0,0,1,0-4.951H360.663a2.476,2.476,0,1,1,0,4.951" transform="translate(-237.082 -115.363)" fill="#fff"/>
        </g>
      </g>
    </g>
    <g id="Group_37172" data-name="Group 37172" transform="translate(360.974 193.733)" opacity="0.7">
      <g id="Group_37171" data-name="Group 37171">
        <g id="Group_37170" data-name="Group 37170" clip-path="url(#clip-path-25)">
          <path id="Path_38721" data-name="Path 38721" d="M360.663,132.192H239.558a2.476,2.476,0,0,1,0-4.951H360.663a2.476,2.476,0,1,1,0,4.951" transform="translate(-237.082 -127.241)" fill="#fff"/>
        </g>
      </g>
    </g>
    <g id="Group_37175" data-name="Group 37175" transform="translate(406.651 211.815)" opacity="0.7">
      <g id="Group_37174" data-name="Group 37174">
        <g id="Group_37173" data-name="Group 37173" clip-path="url(#clip-path-27)">
          <path id="Path_38722" data-name="Path 38722" d="M344.986,144.069H269.558a2.476,2.476,0,1,1,0-4.951h75.428a2.476,2.476,0,1,1,0,4.951" transform="translate(-267.082 -139.116)" fill="#fff"/>
        </g>
      </g>
    </g>
    <g id="Group_37178" data-name="Group 37178" transform="translate(167.364 58.392)" opacity="0.4" style="mix-blend-mode: normal;isolation: isolate">
      <g id="Group_37177" data-name="Group 37177">
        <g id="Group_37176" data-name="Group 37176" clip-path="url(#clip-path-28)">
          <rect id="Rectangle_4874" data-name="Rectangle 4874" width="8.555" height="8.555"/>
        </g>
      </g>
    </g>
    <g id="Group_37181" data-name="Group 37181" transform="translate(183.999 58.392)" opacity="0.4" style="mix-blend-mode: normal;isolation: isolate">
      <g id="Group_37180" data-name="Group 37180">
        <g id="Group_37179" data-name="Group 37179" clip-path="url(#clip-path-28)">
          <path id="Path_38723" data-name="Path 38723" d="M127.211,46.906h-4.172a2.19,2.19,0,0,1-2.191-2.191V40.544a2.192,2.192,0,0,1,2.191-2.193h4.172a2.193,2.193,0,0,1,2.192,2.193v4.172a2.192,2.192,0,0,1-2.192,2.191" transform="translate(-120.848 -38.351)"/>
        </g>
      </g>
    </g>
    <g id="Group_37184" data-name="Group 37184" transform="translate(200.634 58.392)" opacity="0.4" style="mix-blend-mode: normal;isolation: isolate">
      <g id="Group_37183" data-name="Group 37183">
        <g id="Group_37182" data-name="Group 37182" clip-path="url(#clip-path-28)">
          <path id="Path_38724" data-name="Path 38724" d="M136.413,46.906h-.725a3.914,3.914,0,0,1-3.915-3.915v-.725a3.915,3.915,0,0,1,3.915-3.916h.725a3.916,3.916,0,0,1,3.916,3.916v.725a3.916,3.916,0,0,1-3.916,3.915" transform="translate(-131.772 -38.351)"/>
        </g>
      </g>
    </g>
    <g id="Group_37187" data-name="Group 37187" transform="translate(172.614 257.183)" opacity="0.9">
      <g id="Group_37186" data-name="Group 37186">
        <g id="Group_37185" data-name="Group 37185" clip-path="url(#clip-path-31)">
          <path id="Path_38725" data-name="Path 38725" d="M134.354,181.075V177.74l-1.716-.161a8.954,8.954,0,0,0-1.28-3.08l1.1-1.332L130.1,170.81l-1.332,1.1a8.9,8.9,0,0,0-3.08-1.28l-.161-1.717h-3.334l-.161,1.717a8.9,8.9,0,0,0-3.08,1.28l-1.332-1.1-2.357,2.357,1.1,1.332a8.954,8.954,0,0,0-1.281,3.08l-1.716.161v3.334l1.716.161a8.946,8.946,0,0,0,1.281,3.079l-1.1,1.332,2.357,2.358,1.332-1.1a8.9,8.9,0,0,0,3.08,1.28l.161,1.717h3.334l.161-1.717a8.9,8.9,0,0,0,3.08-1.28l1.332,1.1,2.357-2.358-1.1-1.332a8.947,8.947,0,0,0,1.28-3.079Zm-10.492,2.846a4.514,4.514,0,1,1,4.513-4.513,4.513,4.513,0,0,1-4.513,4.513" transform="translate(-113.37 -168.914)" fill="#fff"/>
        </g>
      </g>
    </g>
    <g id="Group_37190" data-name="Group 37190" transform="translate(190.667 269.225)" opacity="0.6">
      <g id="Group_37189" data-name="Group 37189">
        <g id="Group_37188" data-name="Group 37188" clip-path="url(#clip-path-32)">
          <path id="Path_38726" data-name="Path 38726" d="M141.671,186.351v-2.613l-1.346-.126a6.966,6.966,0,0,0-1-2.413l.865-1.044-1.847-1.847-1.044.865a6.966,6.966,0,0,0-2.413-1l-.126-1.346h-2.613l-.126,1.346a6.966,6.966,0,0,0-2.413,1l-1.044-.865-1.847,1.847.865,1.044a6.966,6.966,0,0,0-1,2.413l-1.346.126v2.613l1.346.126a6.966,6.966,0,0,0,1,2.413l-.865,1.044,1.847,1.847,1.044-.863a6.992,6.992,0,0,0,2.413,1l.126,1.346h2.613l.126-1.346a6.992,6.992,0,0,0,2.413-1l1.044.863,1.847-1.847-.865-1.044a6.965,6.965,0,0,0,1-2.413Zm-8.222,2.231a3.537,3.537,0,1,1,3.537-3.537,3.537,3.537,0,0,1-3.537,3.537" transform="translate(-125.227 -176.823)" fill="#fff"/>
        </g>
      </g>
    </g>
    <g id="Group_37193" data-name="Group 37193" transform="translate(179.786 278.168)" opacity="0.4">
      <g id="Group_37192" data-name="Group 37192">
        <g id="Group_37191" data-name="Group 37191" clip-path="url(#clip-path-33)">
          <path id="Path_38727" data-name="Path 38727" d="M131.893,190.7v-2.2l-1.131-.107a5.85,5.85,0,0,0-.842-2.027l.726-.877-1.553-1.551-.875.726a5.877,5.877,0,0,0-2.028-.843l-.105-1.13h-2.2l-.107,1.13a5.882,5.882,0,0,0-2.027.843l-.877-.726-1.551,1.551.726.877a5.882,5.882,0,0,0-.844,2.027l-1.13.107v2.2l1.13.105a5.878,5.878,0,0,0,.844,2.028l-.726.877,1.551,1.552.877-.726a5.85,5.85,0,0,0,2.027.842l.107,1.131h2.2l.105-1.131a5.845,5.845,0,0,0,2.028-.842l.875.726,1.553-1.552-.726-.877a5.845,5.845,0,0,0,.842-2.028Zm-6.906,1.873a2.971,2.971,0,1,1,2.971-2.971,2.971,2.971,0,0,1-2.971,2.971" transform="translate(-118.082 -182.696)" fill="#fff"/>
        </g>
      </g>
    </g>
    <path id="Path_38728" data-name="Path 38728" d="M315.874,40.29l6.46,17.263,10.8-10.8Z" transform="translate(165.066 21.054)" fill="#407bff"/>
    <rect id="Rectangle_4881" data-name="Rectangle 4881" width="3.404" height="7.564" transform="translate(488.923 71.736) rotate(-45)" fill="#407bff"/>
    <g id="Group_37196" data-name="Group 37196" transform="translate(480.94 61.344)" opacity="0.4">
      <g id="Group_37195" data-name="Group 37195">
        <g id="Group_37194" data-name="Group 37194" clip-path="url(#clip-path-34)">
          <path id="Path_38729" data-name="Path 38729" d="M333.137,46.75l-17.263-6.46,6.459,17.264,4.2-4.2,2.674,2.675,2.407-2.407-2.675-2.675Z" transform="translate(-315.874 -40.29)" fill="#fff"/>
        </g>
      </g>
    </g>
    <path id="Path_38730" data-name="Path 38730" d="M142.766,85.129l16.243,6.078-8.516-8.516a1.659,1.659,0,0,1-1.995-.256,1.682,1.682,0,0,1,2.378-2.378,1.659,1.659,0,0,1,.254,1.995l8.517,8.519L153.57,74.325l-5.381,1.194-.21-1.943-1.019-1.017L141,78.521l1.019,1.017,1.943.21Z" transform="translate(73.681 37.917)" fill="#263238"/>
    <g id="Group_37199" data-name="Group 37199" transform="translate(214.678 110.475)" opacity="0.2">
      <g id="Group_37198" data-name="Group 37198">
        <g id="Group_37197" data-name="Group 37197" clip-path="url(#clip-path-35)">
          <path id="Path_38731" data-name="Path 38731" d="M142.766,85.129l16.243,6.078-8.516-8.516a1.659,1.659,0,0,1-1.995-.256,1.682,1.682,0,0,1,2.378-2.378,1.659,1.659,0,0,1,.254,1.995l8.517,8.519L153.57,74.325l-5.381,1.194-.21-1.943-1.019-1.017L141,78.521l1.019,1.017,1.943.21Z" transform="translate(-140.996 -72.557)" fill="#fff"/>
        </g>
      </g>
    </g>
    <g id="Group_37202" data-name="Group 37202" transform="translate(154.414 47.564)" opacity="0.1">
      <g id="Group_37201" data-name="Group 37201">
        <g id="Group_37200" data-name="Group 37200" clip-path="url(#clip-path-36)">
          <path id="Path_38732" data-name="Path 38732" d="M158.636,31.239l-57.218,213.8V31.239Z" transform="translate(-101.417 -31.239)" fill="#fff"/>
          <path id="Path_38733" data-name="Path 38733" d="M221.149,31.239,152.587,287.411h-47.23L173.9,31.239Z" transform="translate(-99.358 -31.239)" fill="#fff"/>
          <path id="Path_38734" data-name="Path 38734" d="M257.37,31.239,188.809,287.411H167.447L236.009,31.239Z" transform="translate(-66.912 -31.239)" fill="#fff"/>
          <path id="Path_38735" data-name="Path 38735" d="M294.192,31.239,225.631,287.411h-7.643L286.549,31.239Z" transform="translate(-40.501 -31.239)" fill="#fff"/>
        </g>
      </g>
    </g>
    <path id="Path_38736" data-name="Path 38736" d="M428.685,68.356c5.4,6.238,32.9,59.207,27.583,71.573s-49.374-1.889-49.374-1.889l2.632-17.45s17.121.6,18.76-1.022-23.16-26.391-23.16-26.391Z" transform="translate(211.706 35.721)" fill="#263238"/>
    <g id="Group_37205" data-name="Group 37205" transform="translate(616.834 104.08)" opacity="0.2" style="mix-blend-mode: normal;isolation: isolate">
      <g id="Group_37204" data-name="Group 37204">
        <g id="Group_37203" data-name="Group 37203" clip-path="url(#clip-path-37)">
          <path id="Path_38737" data-name="Path 38737" d="M456.27,139.934a6.673,6.673,0,0,1-3.213,3.258c-.015,0-.03.015-.046.03-.274.137-.579.274-.883.4a1.052,1.052,0,0,1-.122.046,6.764,6.764,0,0,1-.837.289,18.469,18.469,0,0,1-3.806.792c-.365.046-.731.076-1.111.107-.548.046-1.1.076-1.66.091-.472.015-.959.03-1.446.03-14.769.015-36.252-6.928-36.252-6.928l2.634-17.464s17.114.609,18.758-1.02c.4-.4-.776-2.162-2.771-4.613l-.03-.03c-4.842-5.953-14.541-15.865-18.545-19.915-1.127-1.142-1.812-1.827-1.812-1.827l23.554-24.818c5.405,6.227,32.9,59.2,27.589,71.576" transform="translate(-405.127 -68.358)" fill="#fff"/>
        </g>
      </g>
    </g>
    <g id="Group_37208" data-name="Group 37208" transform="translate(618.6 117.905)" opacity="0.2" style="mix-blend-mode: normal;isolation: isolate">
      <g id="Group_37207" data-name="Group 37207">
        <g id="Group_37206" data-name="Group 37206" clip-path="url(#clip-path-38)">
          <path id="Path_38738" data-name="Path 38738" d="M452.451,138.447c-.015,0-.03.015-.046.03-.274.137-.579.274-.883.4a1.048,1.048,0,0,1-.122.046,6.766,6.766,0,0,1-.837.289,18.469,18.469,0,0,1-3.806.792c-.365.046-.731.076-1.111.107-.548.046-1.1.076-1.66.091-.472.015-.959.03-1.446.03-14.769.015-36.252-6.928-36.252-6.928l2.634-17.464s19.276,1.629,20.92,0a.2.2,0,0,0,.046-.076c.3-.639-1.827-2.8-4.979-5.557l-.03-.03c-4.842-5.953-14.541-15.865-18.545-19.915l11.145-11.906,8.481-.914s18.728,30.314,26.493,61.009" transform="translate(-406.287 -77.438)"/>
        </g>
      </g>
    </g>
    <path id="Path_38739" data-name="Path 38739" d="M385.4,67.905c-3.053,2.214-4.554,5.35-3.353,7l80.456,110.927c1.2,1.655,4.647,1.2,7.7-1.012s4.552-5.349,3.353-7L393.1,66.894c-1.2-1.655-4.648-1.2-7.7,1.011" transform="translate(199.432 34.436)" fill="#263238"/>
    <g id="Group_37211" data-name="Group 37211" transform="translate(581.076 100.336)" opacity="0.7">
      <g id="Group_37210" data-name="Group 37210">
        <g id="Group_37209" data-name="Group 37209" clip-path="url(#clip-path-39)">
          <path id="Path_38740" data-name="Path 38740" d="M393.1,66.893l80.456,110.925c1.2,1.652-.3,4.792-3.35,7s-6.5,2.661-7.694,1.009L382.054,74.9c-.661-.912-.5-2.272.294-3.692a8.917,8.917,0,0,1,1.527-1.993A12.17,12.17,0,0,1,385.4,67.9c3.044-2.208,6.5-2.661,7.693-1.009" transform="translate(-381.642 -65.899)" fill="#fff"/>
        </g>
      </g>
    </g>
    <g id="Group_37214" data-name="Group 37214" transform="translate(581.783 103.655)" opacity="0.3" style="mix-blend-mode: normal;isolation: isolate">
      <g id="Group_37213" data-name="Group 37213">
        <g id="Group_37212" data-name="Group 37212" clip-path="url(#clip-path-40)">
          <path id="Path_38741" data-name="Path 38741" d="M473.311,176.679c1.2,1.652-.3,4.792-3.35,7s-6.5,2.663-7.694,1.011c-.661-.912,1-2.29,1.963-4.291L382.106,70.072a8.884,8.884,0,0,1,1.527-1.993L464.1,179.018a12.035,12.035,0,0,1,1.519-1.329c3.044-2.208,6.5-2.661,7.694-1.009" transform="translate(-382.106 -68.079)"/>
        </g>
      </g>
    </g>
    <path id="Path_38742" data-name="Path 38742" d="M378.49,66.244c-2.576,2.753-3.456,6.116-1.964,7.514l100.034,93.653c1.492,1.4,4.79.3,7.368-2.454s3.455-6.116,1.963-7.512L385.858,63.791c-1.492-1.4-4.792-.3-7.368,2.453" transform="translate(196.381 33.018)" fill="#407bff"/>
    <g id="Group_37217" data-name="Group 37217" transform="translate(572.189 96.207)" opacity="0.7">
      <g id="Group_37216" data-name="Group 37216">
        <g id="Group_37215" data-name="Group 37215" clip-path="url(#clip-path-41)">
          <path id="Path_38743" data-name="Path 38743" d="M385.853,63.792l100.033,93.653c1.489,1.395.609,4.763-1.961,7.508s-5.873,3.846-7.362,2.451L376.528,73.751c-.822-.77-.921-2.135-.411-3.682a8.958,8.958,0,0,1,1.121-2.246,12.258,12.258,0,0,1,1.251-1.58c2.57-2.745,5.874-3.846,7.363-2.451" transform="translate(-375.805 -63.187)" fill="#fff"/>
        </g>
      </g>
    </g>
    <g id="Group_37220" data-name="Group 37220" transform="translate(572.501 100.843)" opacity="0.3" style="mix-blend-mode: normal;isolation: isolate">
      <g id="Group_37219" data-name="Group 37219">
        <g id="Group_37218" data-name="Group 37218" clip-path="url(#clip-path-42)">
          <path id="Path_38744" data-name="Path 38744" d="M485.779,155.853c1.489,1.395.609,4.763-1.961,7.508s-5.873,3.846-7.363,2.451c-.822-.77.548-2.438,1.115-4.586L376.009,68.477a8.986,8.986,0,0,1,1.122-2.244L477.176,159.9a12.145,12.145,0,0,1,1.239-1.591c2.57-2.745,5.874-3.846,7.363-2.451" transform="translate(-376.011 -66.231)"/>
        </g>
      </g>
    </g>
    <path id="Path_38745" data-name="Path 38745" d="M403.181,318.416l-7.628.122c-7.75-36.4-13.231-81.457-16.642-115.441-.533-5.329-1.02-10.369-1.446-15.073-.2-2.238-.4-4.385-.579-6.456-.914-10.216-1.538-18.316-1.919-23.326-.274-3.654-.411-5.664-.411-5.664h27.559l-.259,7.019L401,182.771l-.091,2.649-.579,15.3-.959,26.051c9.455,36.679,3.806,91.643,3.806,91.643" transform="translate(195.732 79.733)" fill="#ebb376"/>
    <path id="Path_38746" data-name="Path 38746" d="M453.323,316.248l-7.506,1.416C430.789,280.1,416.675,232,407.494,198.4c-1.416-5.207-2.725-10.079-3.9-14.495-.061-.228-.107-.442-.168-.655-2.314-8.77-4.1-15.759-5.207-20.189-.853-3.471-1.325-5.375-1.325-5.375L424.06,153l1.538,11.419,2.269,16.779.442,3.289,1.538,11.435,4.126,30.665c15.561,34.532,19.352,89.664,19.352,89.664" transform="translate(207.406 79.952)" fill="#ebb376"/>
    <g id="Group_37223" data-name="Group 37223" transform="translate(605.628 243.014)" opacity="0.2" style="mix-blend-mode: normal;isolation: isolate">
      <g id="Group_37222" data-name="Group 37222">
        <g id="Group_37221" data-name="Group 37221" clip-path="url(#clip-path-43)">
          <path id="Path_38747" data-name="Path 38747" d="M427.411,177.742l-24.27,2.71c-.061-.228-.107-.442-.168-.655-2.314-8.77-4.1-15.759-5.207-20.189l27.376,1.355Z" transform="translate(-397.767 -159.608)"/>
        </g>
      </g>
    </g>
    <g id="Group_37226" data-name="Group 37226" transform="translate(570.7 237.975)" opacity="0.2" style="mix-blend-mode: normal;isolation: isolate">
      <g id="Group_37225" data-name="Group 37225">
        <g id="Group_37224" data-name="Group 37224" clip-path="url(#clip-path-44)">
          <path id="Path_38748" data-name="Path 38748" d="M401.716,157.653l-.853,23.174-.091,2.649-23.448,2.6c-.2-2.238-.4-4.385-.579-6.456-.914-10.216-1.538-18.317-1.919-23.326Z" transform="translate(-374.827 -156.298)"/>
        </g>
      </g>
    </g>
    <path id="Path_38749" data-name="Path 38749" d="M378.8,286.763a14.955,14.955,0,0,1,4.773-2.6s5.192-5.149,7.69-20.657l6.8-1.772a5.794,5.794,0,0,1,6.183,2.415,3.257,3.257,0,0,1,.432.894,39.568,39.568,0,0,1,.726,5.038c.684,5.247.1,17.027.1,17.027h-1.229l-.489-10.69c-.181-3.63-2.958.627-3.753,4.536s-2.485,8.067-10.44,8.261c-9.282.181-13.134-.181-10.789-2.456" transform="translate(197.597 136.691)" fill="#263238"/>
    <path id="Path_38750" data-name="Path 38750" d="M400.415,266.762c.446-3.628.586-9.938.586-9.938L385.9,258.5s1.829,7.174.321,12.561c7.605-2,14.193-4.3,14.193-4.3" transform="translate(201.66 134.208)" fill="#263238"/>
    <path id="Path_38751" data-name="Path 38751" d="M419.155,286.763a14.955,14.955,0,0,1,4.773-2.6s5.192-5.149,7.691-20.657l6.8-1.772a5.794,5.794,0,0,1,6.183,2.415,3.256,3.256,0,0,1,.432.894,39.552,39.552,0,0,1,.726,5.038c.684,5.247.1,17.027.1,17.027h-1.229l-.489-10.69c-.181-3.63-2.958.627-3.753,4.536s-2.485,8.067-10.44,8.261c-9.282.181-13.134-.181-10.789-2.456" transform="translate(218.687 136.691)" fill="#263238"/>
    <path id="Path_38752" data-name="Path 38752" d="M440.774,266.762c.446-3.628.586-9.938.586-9.938l-15.1,1.675s1.829,7.174.32,12.561c7.607-2,14.195-4.3,14.195-4.3" transform="translate(222.75 134.208)" fill="#263238"/>
    <path id="Path_38753" data-name="Path 38753" d="M443.8,199.478l-28.731,3.669-1.111.137-5.908-21.651-1.553,23.2-30.786-1.614c-13.718-80.5,9.729-99.515,9.729-99.515l41.764,8.4c18.915,32.149,14.414,69.522,14.414,69.522Z" transform="translate(194.087 54.195)" fill="#97a85e"/>
    <ellipse id="Ellipse_582" data-name="Ellipse 582" cx="3.132" cy="5.722" rx="3.132" ry="5.722" transform="translate(592.077 51.889)" fill="none" stroke="#263238" stroke-linecap="round" stroke-linejoin="round" stroke-width="0.5"/>
    <path id="Path_38754" data-name="Path 38754" d="M414.679,63.708a2.234,2.234,0,0,1-.362.265,16.625,16.625,0,0,1-5.835,2.855c-6.169,1.424-10.384.579-13.134-2.212h-.014c-3.852-4.187-4.816-11.605-4.271-20.552a33.623,33.623,0,0,1,1.953-10.451c.015-.027.015-.131.029-.158.055-.111.1-.268.152-.379a12.218,12.218,0,0,1,8.976-7.455,24.763,24.763,0,0,1,5.289-.594c17.446-.181,20.585,28.716,7.216,38.681" transform="translate(204.285 13.078)" fill="#ebb376"/>
    <g id="Group_37229" data-name="Group 37229" transform="translate(599.633 75.687)" opacity="0.2" style="mix-blend-mode: normal;isolation: isolate">
      <g id="Group_37228" data-name="Group 37228">
        <g id="Group_37227" data-name="Group 37227" clip-path="url(#clip-path-45)">
          <path id="Path_38755" data-name="Path 38755" d="M412.8,51.074a16.211,16.211,0,0,1-5.835,2.61c-6.168,1.424-10.384.378-13.134-2.456a17.387,17.387,0,0,0,11.068-.907c2.5-1.145,5.277-.559,7.9.754" transform="translate(-393.83 -49.71)"/>
        </g>
      </g>
    </g>
    <path id="Path_38756" data-name="Path 38756" d="M413.574,68.035c1.075,4.968-5.359,6.992-5.359,6.992-10.524-4.493-12.478-10.09-12.478-10.09,8.779-4.578,6.239-17.529,6.239-17.529l1.786.879L416.3,50.738s-3.479,6.675-3.939,8.2c0,.015-.015.029-.015.043-2.358,7.955,1.229,9.058,1.229,9.058" transform="translate(206.8 24.773)" fill="#ebb376"/>
    <path id="Path_38757" data-name="Path 38757" d="M392.3,35.053s-.962,12.235,10.632,17.49c0,0,4.979,12.709,12.309,12.889,9.991.244,18.8-13.974,15.337-28.454C426.089,18.2,397.64,16.671,392.3,35.053" transform="translate(204.995 11.522)" fill="#263238"/>
    <path id="Path_38758" data-name="Path 38758" d="M395.422,41.39c0-1.908,1.538-5.114,4.505-4.679,3.069.451,4.772,8.019-2.774,9.711-1.083.242-1.74-1.051-1.731-5.032" transform="translate(206.635 19.163)" fill="#ebb376"/>
    <path id="Path_38759" data-name="Path 38759" d="M414.914,22.364s-11.672-2.952-18.123,1.742c-7.534,5.48-10.391,11.15-1.471,19.95,0,0,19.6-6.352,26.112-5.008a70.52,70.52,0,0,1,11.173,3.245c1.372-12.942-11.173-22.575-17.691-19.929" transform="translate(203.687 11.208)" fill="#263238"/>
    <path id="Path_38760" data-name="Path 38760" d="M396.018,46.249s3.118,14.108-1.737,26.126c0,0,27.706,9.614,37.344,4.393s.8-22.753.4-32.86-4.8-25.045-19.465-21.692-16.544,24.034-16.544,24.034" transform="translate(206.039 11.358)" fill="#263238"/>
    <line id="Line_330" data-name="Line 330" x2="11.707" transform="translate(592.077 56.707)" fill="none" stroke="#263238" stroke-linecap="round" stroke-linejoin="round" stroke-width="0.5"/>
    <g id="Group_37232" data-name="Group 37232" transform="translate(602.141 202.925)" opacity="0.2" style="mix-blend-mode: normal;isolation: isolate">
      <g id="Group_37231" data-name="Group 37231">
        <g id="Group_37230" data-name="Group 37230" clip-path="url(#clip-path-46)">
          <path id="Path_38761" data-name="Path 38761" d="M402.5,187.695l-1.111.137-5.908-21.651s12.668-21.636,8.709-32.9c.563.792,14.206,21.027-1.69,54.417" transform="translate(-395.477 -133.278)"/>
        </g>
      </g>
    </g>
    <path id="Path_38762" data-name="Path 38762" d="M389.462,60.9s13.932-4.97,34.935,1.092S446.172,77,446.172,77s-13.309,30.159-15.4,64.3l-54.726-2.045S369.52,91.066,389.462,60.9" transform="translate(195.976 30.82)" fill="#263238"/>
    <g id="Group_37235" data-name="Group 37235" transform="translate(571.009 89.803)" opacity="0.2" style="mix-blend-mode: normal;isolation: isolate">
      <g id="Group_37234" data-name="Group 37234">
        <g id="Group_37233" data-name="Group 37233" clip-path="url(#clip-path-47)">
          <path id="Path_38763" data-name="Path 38763" d="M446.175,76.988s-13.307,30.162-15.408,64.313l-54.721-2.04a146.832,146.832,0,0,1-1-16.687,163.251,163.251,0,0,1,1.523-24.5c1.827-12.637,5.588-26.127,12.9-37.181,0,0,13.932-4.964,34.928,1.1,21.011,6.06,21.788,15,21.788,15" transform="translate(-375.03 -58.981)" fill="#fff"/>
        </g>
      </g>
    </g>
    <g id="Group_37238" data-name="Group 37238" transform="translate(571.009 128.898)" opacity="0.2" style="mix-blend-mode: normal;isolation: isolate">
      <g id="Group_37237" data-name="Group 37237">
        <g id="Group_37236" data-name="Group 37236" clip-path="url(#clip-path-48)">
          <path id="Path_38764" data-name="Path 38764" d="M388.7,86.713s-2.269,13.886-13.657,22.443a163.251,163.251,0,0,1,1.523-24.5Z" transform="translate(-375.03 -84.658)"/>
        </g>
      </g>
    </g>
    <path id="Path_38765" data-name="Path 38765" d="M353.454,67.268l-6.9-10.235s-1.061-4.444-2.389-5.46-14.594-6.64-16.186-6.614-1.591,10.323,0,12.074,9.952,5.5,12.141,5.882,1.127,0,1.127,0l6.1,12.167Z" transform="translate(170.768 23.494)" fill="#ebb376"/>
    <path id="Path_38766" data-name="Path 38766" d="M409.615,63.108A300.747,300.747,0,0,0,366.948,85.12L344.685,54.745s-6.013,1.865-8.226,12.305c0,0,11.439,43.568,26.3,47.886s46.1-12.584,46.1-12.584,9.073-22.708.761-39.244" transform="translate(175.823 28.608)" fill="#263238"/>
    <g id="Group_37241" data-name="Group 37241" transform="translate(512.282 83.353)" opacity="0.2" style="mix-blend-mode: normal;isolation: isolate">
      <g id="Group_37240" data-name="Group 37240">
        <g id="Group_37239" data-name="Group 37239" clip-path="url(#clip-path-49)">
          <path id="Path_38767" data-name="Path 38767" d="M409.615,63.108A300.747,300.747,0,0,0,366.948,85.12L344.685,54.745s-6.013,1.865-8.226,12.305c0,0,11.439,43.568,26.3,47.886s46.1-12.584,46.1-12.584,9.073-22.708.761-39.244" transform="translate(-336.459 -54.745)" fill="#fff"/>
        </g>
      </g>
    </g>
    <path id="Path_38768" data-name="Path 38768" d="M393.757,58.983s4.859,34.768,20.253,36.173,22.287-24.28,19.678-27.4-22.438-9.006-39.931-8.773" transform="translate(205.765 30.819)" fill="#263238"/>
    <g id="Group_37244" data-name="Group 37244" transform="translate(599.522 89.797)" opacity="0.3" style="mix-blend-mode: normal;isolation: isolate">
      <g id="Group_37243" data-name="Group 37243">
        <g id="Group_37242" data-name="Group 37242" clip-path="url(#clip-path-50)">
          <path id="Path_38769" data-name="Path 38769" d="M393.757,58.983s4.859,34.768,20.253,36.173,22.287-24.28,19.678-27.4-22.438-9.006-39.931-8.773" transform="translate(-393.757 -58.977)" fill="#fff"/>
        </g>
      </g>
    </g>
    <path id="Path_38770" data-name="Path 38770" d="M34.059,278.029H45.333l.932-26.118H34.978Z" transform="translate(17.798 131.641)" fill="#b97964"/>
    <path id="Path_38771" data-name="Path 38771" d="M48.3,268.207H34.6a.991.991,0,0,0-.961.775l-2.223,10.04a1.663,1.663,0,0,0,1.284,1.972,1.548,1.548,0,0,0,.365.035c4.432-.072,7.659-.344,13.224-.344,3.429,0,13.77.359,18.5.359s5.35-4.676,3.414-5.107c-8.691-1.893-15.232-4.517-18.015-7.013a2.717,2.717,0,0,0-1.893-.717" transform="translate(16.398 140.157)" fill="#263238"/>
    <path id="Path_38772" data-name="Path 38772" d="M43.069,270.076a.276.276,0,0,1-.2-.23.245.245,0,0,1,.129-.257c.4-.259,4.045-2.5,5.292-1.851a.805.805,0,0,1,.46.746,1.579,1.579,0,0,1-.56,1.434,3.372,3.372,0,0,1-2.165.574,13.543,13.543,0,0,1-2.955-.416m.775-.373a5.477,5.477,0,0,0,4.017-.2,1.1,1.1,0,0,0,.358-.961c-.014-.215-.1-.315-.172-.315a.6.6,0,0,0-.344-.072,10.939,10.939,0,0,0-3.858,1.548" transform="translate(22.4 139.851)" fill="#407bff"/>
    <path id="Path_38773" data-name="Path 38773" d="M43,271.008a.284.284,0,0,1-.129-.244c.015-.157.288-3.4,1.593-4.46a1.43,1.43,0,0,1,1.133-.344.873.873,0,0,1,.86.7c.23,1.191-2.022,3.672-3.184,4.3H43.14a.237.237,0,0,1-.143.043M44.8,266.62a6.328,6.328,0,0,0-1.334,3.528c1.162-.874,2.6-2.753,2.453-3.485-.015-.072-.044-.272-.388-.272h-.128a.923.923,0,0,0-.6.23" transform="translate(22.401 138.976)" fill="#407bff"/>
    <g id="Group_37247" data-name="Group 37247" transform="translate(52.288 383.566)" opacity="0.2" style="mix-blend-mode: normal;isolation: isolate">
      <g id="Group_37246" data-name="Group 37246">
        <g id="Group_37245" data-name="Group 37245" clip-path="url(#clip-path-51)">
          <path id="Path_38774" data-name="Path 38774" d="M34.83,251.92H46.116l-.487,13.467H34.342Z" transform="translate(-34.342 -251.92)"/>
        </g>
      </g>
    </g>
    <path id="Path_38775" data-name="Path 38775" d="M72.191,278.235l11.635,1.229,2.183-25.095L74.374,253.14Z" transform="translate(37.725 132.283)" fill="#b97964"/>
    <path id="Path_38776" data-name="Path 38776" d="M86.447,267.972H72.75a.99.99,0,0,0-.961.775l-2.223,10.04a1.665,1.665,0,0,0,1.649,2.008c4.432-.073,7.659-.346,13.224-.346,3.427,0,13.769.359,18.5.359s5.349-4.676,3.414-5.107c-8.692-1.893-15.232-4.517-18.015-7.013a2.723,2.723,0,0,0-1.893-.717" transform="translate(36.334 140.034)" fill="#263238"/>
    <path id="Path_38777" data-name="Path 38777" d="M81.22,269.841a.274.274,0,0,1-.2-.23.245.245,0,0,1,.129-.257c.4-.259,4.045-2.5,5.292-1.85a.8.8,0,0,1,.46.745,1.577,1.577,0,0,1-.56,1.434,3.372,3.372,0,0,1-2.165.574,13.454,13.454,0,0,1-2.955-.416m.775-.373a5.478,5.478,0,0,0,4.017-.2,1.1,1.1,0,0,0,.358-.961c-.014-.215-.1-.315-.172-.315a.615.615,0,0,0-.344-.072A10.939,10.939,0,0,0,82,269.468" transform="translate(42.336 139.729)" fill="#407bff"/>
    <path id="Path_38778" data-name="Path 38778" d="M81.147,270.773a.284.284,0,0,1-.129-.244c.015-.157.288-3.4,1.593-4.46a1.43,1.43,0,0,1,1.133-.344.874.874,0,0,1,.86.7c.23,1.191-2.022,3.672-3.184,4.3h-.129a.237.237,0,0,1-.143.043m1.807-4.388a6.317,6.317,0,0,0-1.334,3.528c1.162-.874,2.6-2.753,2.453-3.485-.015-.072-.044-.273-.388-.273h-.128a.915.915,0,0,0-.6.23" transform="translate(42.338 138.853)" fill="#407bff"/>
    <g id="Group_37250" data-name="Group 37250" transform="translate(110.963 385.423)" opacity="0.2" style="mix-blend-mode: normal;isolation: isolate">
      <g id="Group_37249" data-name="Group 37249">
        <g id="Group_37248" data-name="Group 37248" clip-path="url(#clip-path-52)">
          <path id="Path_38779" data-name="Path 38779" d="M74.015,253.14l11.635,1.229-1.136,12.943-11.635-1.229Z" transform="translate(-72.879 -253.14)"/>
        </g>
      </g>
    </g>
    <path id="Path_38780" data-name="Path 38780" d="M40.912,101.448h59.843c5.69,31.071,23.5,141.022,10.722,238.989l-20.259-2.514s1.876-130.053-16.011-178.134c-2.057,25.731-4.5,53.11-6.622,67.68-5.206,35.857-16.349,114.219-16.349,114.219H31.611s4.216-75.008,6.166-110.246c2.132-38.259,3.053-122.136,3.135-129.992" transform="translate(16.519 53.014)" fill="#263238"/>
    <path id="Path_38781" data-name="Path 38781" d="M94.194,265.175l-25.075-3.73.767-6.944,26.083,3.424Z" transform="translate(36.119 132.994)" fill="#407bff"/>
    <path id="Path_38782" data-name="Path 38782" d="M55.134,262H30.81V254.73l25.243-.474Z" transform="translate(16.1 132.867)" fill="#407bff"/>
    <g id="Group_37253" data-name="Group 37253" transform="translate(91.73 191.513)" opacity="0.2" style="mix-blend-mode: normal;isolation: isolate">
      <g id="Group_37252" data-name="Group 37252">
        <g id="Group_37251" data-name="Group 37251" clip-path="url(#clip-path-53)">
          <path id="Path_38783" data-name="Path 38783" d="M60.247,147.078a160.406,160.406,0,0,1,6.684,25.888c1.673-22.9-5.02-47.183-5.02-47.183Z" transform="translate(-60.247 -125.783)"/>
        </g>
      </g>
    </g>
    <path id="Path_38784" data-name="Path 38784" d="M37.078,108.288l-1.367,7.229s41.874,5.422,67.925,5.27l-.9-4.968Z" transform="translate(18.661 56.588)" fill="#78854a"/>
    <path id="Path_38785" data-name="Path 38785" d="M92.434,68.968s14.489,45.663,24.392,48.649,35.091-34.7,35.091-34.7,22.575-.218,23.585-1.759-5.865-17.438-7.515-17.467-21.3,7.4-22.067,8.636S122.6,95.138,121.5,94.529s-9.627-27.779-9.627-27.779Z" transform="translate(48.303 33.285)" fill="#b97964"/>
    <path id="Path_38786" data-name="Path 38786" d="M133.394,74.854a5.2,5.2,0,0,0,.542-.139c-.1-.056-.181-.111-.265-.167a1.86,1.86,0,0,1-.277.306" transform="translate(69.708 38.956)" fill="#b97964"/>
    <path id="Path_38787" data-name="Path 38787" d="M87.035,72.61,88.8,75.865,97.047,91.1l1.71,3.144,23.125-8.038s-9.609-35.9-12.946-39.576Z" transform="translate(45.482 24.37)" fill="#97a85e"/>
    <g id="Group_37259" data-name="Group 37259" transform="translate(134.283 91.767)" opacity="0.2" style="mix-blend-mode: normal;isolation: isolate">
      <g id="Group_37258" data-name="Group 37258">
        <g id="Group_37257" data-name="Group 37257" clip-path="url(#clip-path-54)">
          <path id="Path_38789" data-name="Path 38789" d="M88.195,68.74,96.441,83.98c5.088-10.012,3.615-23.709,3.615-23.709Z" transform="translate(-88.195 -60.271)"/>
        </g>
      </g>
    </g>
    <path id="Path_38790" data-name="Path 38790" d="M135.753,52.521a49.056,49.056,0,0,0-34.829-16.905C78.253,34.551,71.137,36.806,62.849,44.2c-12.1,10.8-27.138,103.911-27.138,103.911s31.665,9.79,67.936,7.389c0,0,.273-25.843,8.449-43.264,15.9-33.883,23.658-59.717,23.658-59.717" transform="translate(18.661 18.481)" fill="#97a85e"/>
    <path id="Path_38794" data-name="Path 38794" d="M74.164,46.664c2.45,7.007,11.572,10.2,16.357,10.606,6.715.568,8.673-4.7,8.673-4.7s-5.457-2.715-4.918-5.784a14.364,14.364,0,0,1,2.252-5.206A29.768,29.768,0,0,1,98.4,39L89.644,20.243c-1.96,8.188-7.942,23.8-15.48,26.421" transform="translate(38.756 10.578)" fill="#b97964"/>
    <g id="Group_37268" data-name="Group 37268" transform="translate(126.604 39.538)" opacity="0.2" style="mix-blend-mode: normal;isolation: isolate">
      <g id="Group_37267" data-name="Group 37267">
        <g id="Group_37266" data-name="Group 37266" clip-path="url(#clip-path-56)">
          <path id="Path_38795" data-name="Path 38795" d="M84.594,25.968c-4.178,9.09,1.722,15.421,4.985,17.826a14.39,14.39,0,0,1,2.252-5.206Z" transform="translate(-83.151 -25.968)"/>
        </g>
      </g>
    </g>
    <path id="Path_38796" data-name="Path 38796" d="M108.244,10.312s2.8,15.465-5.274,21.672S94.078,9.278,94.078,9.278Z" transform="translate(49.162 4.848)" fill="#b97964"/>
    <g id="Group_37271" data-name="Group 37271" transform="translate(143.239 14.126)" opacity="0.4" style="mix-blend-mode: normal;isolation: isolate">
      <g id="Group_37270" data-name="Group 37270">
        <g id="Group_37269" data-name="Group 37269" clip-path="url(#clip-path-57)">
          <path id="Path_38797" data-name="Path 38797" d="M108.244,10.312s2.8,15.465-5.274,21.672S94.078,9.278,94.078,9.278Z" transform="translate(-94.077 -9.278)"/>
        </g>
      </g>
    </g>
    <path id="Path_38798" data-name="Path 38798" d="M85.668,45.19a14.1,14.1,0,0,0,16.34,5,15.937,15.937,0,0,0,9.458-9.064c3.788-9.606,4.644-33.058-5.6-32.183-8.394.717-16.625-1.882-20.911,5.384a15.2,15.2,0,0,0-2.1,6.789c-.918,11.132-1.982,17.633,2.82,24.069" transform="translate(42.881 4.664)" fill="#b97964"/>
    <path id="Path_38799" data-name="Path 38799" d="M93.327,21.04c-.189.883.239,1.693.837,1.777s1.166-.586,1.3-1.481-.253-1.7-.837-1.778-1.163.572-1.3,1.483" transform="translate(48.747 10.217)" fill="#263238"/>
    <path id="Path_38800" data-name="Path 38800" d="M100.012,21.988c-.189.883.253,1.7.837,1.777s1.166-.586,1.3-1.481-.253-1.7-.836-1.777-1.177.627-1.3,1.481" transform="translate(52.24 10.713)" fill="#263238"/>
    <path id="Path_38801" data-name="Path 38801" d="M98.254,21.466a32.4,32.4,0,0,0,3.21,8.313,5.261,5.261,0,0,1-4.441.193Z" transform="translate(50.701 11.217)" fill="#a24e3f"/>
    <path id="Path_38802" data-name="Path 38802" d="M91.673,18.935a.559.559,0,0,0,.542-.134,4.307,4.307,0,0,1,3.634-1.291.531.531,0,1,0,.225-1.037h0a5.287,5.287,0,0,0-4.6,1.568.528.528,0,0,0-.024.749l.008.009a.87.87,0,0,0,.221.136" transform="translate(47.711 8.578)" fill="#263238"/>
    <path id="Path_38803" data-name="Path 38803" d="M104.361,21a.519.519,0,0,0,.309.065.528.528,0,0,0,.352-.662l0-.011a5.292,5.292,0,0,0-3.385-3.511.531.531,0,0,0-.652.373v0a.542.542,0,0,0,.373.652,4.3,4.3,0,0,1,2.637,2.823.547.547,0,0,0,.368.269" transform="translate(52.762 8.811)" fill="#263238"/>
    <path id="Path_38804" data-name="Path 38804" d="M92.381,27.316s1.873,4.024,5.687,3.873" transform="translate(48.275 14.275)" fill="none" stroke="#263238" stroke-linecap="round" stroke-linejoin="round" stroke-width="0.5"/>
    <path id="Path_38805" data-name="Path 38805" d="M94.754,8.631l.14,4.957a3.67,3.67,0,0,0-2.266,4.429c1.2,4.271-1.739,10.446-5.14,12.7,0,0,.069-1.8-1.478-1.512s-2,9.623.525,14.333c0,0-5.39-4.953-6.989-14.952-1.477-9.248-1.223-15.107.09-19.528Z" transform="translate(41.044 4.51)" fill="#b97964"/>
    <g id="Group_37274" data-name="Group 37274" transform="translate(119.585 13.141)" opacity="0.4" style="mix-blend-mode: normal;isolation: isolate">
      <g id="Group_37273" data-name="Group 37273">
        <g id="Group_37272" data-name="Group 37272" clip-path="url(#clip-path-58)">
          <path id="Path_38806" data-name="Path 38806" d="M94.754,8.631l.14,4.957a3.67,3.67,0,0,0-2.266,4.429c1.2,4.271-1.739,10.446-5.14,12.7,0,0,.069-1.8-1.478-1.512s-2,9.623.525,14.333c0,0-5.39-4.953-6.989-14.952-1.477-9.248-1.223-15.107.09-19.528Z" transform="translate(-78.542 -8.631)"/>
        </g>
      </g>
    </g>
    <path id="Path_38807" data-name="Path 38807" d="M80.052,19.1s6.334.973,16.24-1c15.344-3.053,21.869,2.594,21.869,2.594s3.64-3.13,3.19-7.55-6.584-5.174-6.584-5.174-1.85-4.97-5.914-6.475-8.141,2.259-8.141,2.259-5.075-4.9-10.979-3.5A8.858,8.858,0,0,0,82.65,8.872s-6.928.71-6.777,4.271S80.052,19.1,80.052,19.1" transform="translate(39.648 0)" fill="#263238"/>
    <path id="Path_38808" data-name="Path 38808" d="M100.765,22.982c0,3.167-2.226,5.732-4.973,5.732s-4.974-2.566-4.974-5.732,2.228-5.732,4.974-5.732S100.765,19.816,100.765,22.982Z" transform="translate(47.459 9.014)" fill="none" stroke="#263238" stroke-linecap="round" stroke-linejoin="round" stroke-width="0.5"/>
    <path id="Path_38809" data-name="Path 38809" d="M108.986,23.541c0,3.167-2.226,5.734-4.973,5.734s-4.974-2.567-4.974-5.734,2.228-5.732,4.974-5.732S108.986,20.376,108.986,23.541Z" transform="translate(51.755 9.306)" fill="none" stroke="#263238" stroke-linecap="round" stroke-linejoin="round" stroke-width="0.5"/>
    <path id="Path_38810" data-name="Path 38810" d="M97.351,21.6s1.6-1.009,2.57.163" transform="translate(50.873 11.079)" fill="none" stroke="#263238" stroke-linecap="round" stroke-linejoin="round" stroke-width="0.5"/>
    <path id="Path_38811" data-name="Path 38811" d="M95.046,21.427l-8.733-1.163a4.289,4.289,0,0,0-3.2.866l-.381.3" transform="translate(43.232 10.57)" fill="none" stroke="#263238" stroke-linecap="round" stroke-linejoin="round" stroke-width="0.5"/>
    <path id="Path_38812" data-name="Path 38812" d="M78.652,24.678a10.636,10.636,0,0,0,5.276,6.176c3.331,1.669,5.707-1.143,5.384-4.661-.315-3.124-2.4-7.856-6.04-8.029s-5.649,3.216-4.619,6.514" transform="translate(40.961 9.489)" fill="#b97964"/>
    <g id="Group_37277" data-name="Group 37277" transform="translate(63.976 80.446)" opacity="0.2" style="mix-blend-mode: normal;isolation: isolate">
      <g id="Group_37276" data-name="Group 37276">
        <g id="Group_37275" data-name="Group 37275" clip-path="url(#clip-path-59)">
          <path id="Path_38813" data-name="Path 38813" d="M42.019,88.393c14.364-5.965,25.725-30.62,25.725-30.62l-8.162-4.936L48.5,61.749c-.333,1.21-.667,2.448-1,3.7-1.488,5.646-2.948,11.666-4.324,17.756-.388,1.725-.778,3.462-1.154,5.187" transform="translate(-42.018 -52.836)"/>
        </g>
      </g>
    </g>
    <path id="Path_38814" data-name="Path 38814" d="M94,81.031l24.8-9.1.7,2.107-24.8,8.834Z" transform="translate(49.124 37.587)" fill="#78854a"/>
    <rect id="Rectangle_4910" data-name="Rectangle 4910" width="44.871" height="72.75" transform="matrix(0.157, -0.988, 0.988, 0.157, 0, 214.204)" fill="#407bff"/>
    <path id="Path_38815" data-name="Path 38815" d="M26.331,122.659l-14.594,7.564,11.537,11.71" transform="translate(6.133 64.098)" fill="none" stroke="#fff" stroke-linecap="round" stroke-linejoin="round" stroke-width="2"/>
    <path id="Path_38816" data-name="Path 38816" d="M30.486,143.7l14.594-7.564L33.543,124.432" transform="translate(15.931 65.024)" fill="none" stroke="#fff" stroke-linecap="round" stroke-linejoin="round" stroke-width="2"/>
    <line id="Line_331" data-name="Line 331" y1="18.189" x2="9.898" transform="translate(34.491 188.649)" fill="none" stroke="#fff" stroke-linecap="round" stroke-linejoin="round" stroke-width="2"/>
    <path id="Path_38817" data-name="Path 38817" d="M62.759,43.774S35.684,70.956,31.985,76.244s-10.755,63.85-10.755,63.85-1.488.516-1.617,1.783-.238,17.714,0,18.475,12.707,8.452,14.541,6.625,4.4-20.456,4.4-20.456l-6.57-6.427S39.634,96.96,44.412,89.979,68.924,68.041,68.924,68.041Z" transform="translate(10.175 22.875)" fill="#b97964"/>
    <path id="Path_38818" data-name="Path 38818" d="M76.667,36.587c3.946,8.357.946,25.957-6.326,32.167A213.311,213.311,0,0,1,46,86.22l-13.3-17.392S46.823,55.03,55.38,47.084c10.407-9.667,21.287-10.5,21.287-10.5" transform="translate(17.085 19.119)" fill="#97a85e"/>
    <path id="Path_38820" data-name="Path 38820" d="M33.259,57.025l-1.644,2.241L45.494,77.4,47.455,76Z" transform="translate(16.521 29.799)" fill="#78854a"/>
  </g>
</svg>
