<svg id="Group_37427" data-name="Group 37427" xmlns="http://www.w3.org/2000/svg" xmlns:xlink="http://www.w3.org/1999/xlink" width="451.048" height="429.858" viewBox="0 0 451.048 429.858">
  <defs>
    <clipPath id="clip-path">
      <rect id="Rectangle_5026" data-name="Rectangle 5026" width="451.048" height="429.858" fill="none"/>
    </clipPath>
    <clipPath id="clip-path-3">
      <rect id="Rectangle_5002" data-name="Rectangle 5002" width="119.804" height="148.009" fill="none"/>
    </clipPath>
    <clipPath id="clip-path-4">
      <rect id="Rectangle_5003" data-name="Rectangle 5003" width="32.362" height="6.232" fill="none"/>
    </clipPath>
    <clipPath id="clip-path-5">
      <rect id="Rectangle_5004" data-name="Rectangle 5004" width="21.752" height="3.418" fill="none"/>
    </clipPath>
    <clipPath id="clip-path-8">
      <rect id="Rectangle_5007" data-name="Rectangle 5007" width="21.751" height="3.418" fill="none"/>
    </clipPath>
    <clipPath id="clip-path-9">
      <rect id="Rectangle_5008" data-name="Rectangle 5008" width="33.768" height="6.033" fill="none"/>
    </clipPath>
    <clipPath id="clip-path-10">
      <rect id="Rectangle_5009" data-name="Rectangle 5009" width="64.811" height="14.252" fill="none"/>
    </clipPath>
    <clipPath id="clip-path-11">
      <rect id="Rectangle_5010" data-name="Rectangle 5010" width="3.417" height="57.671" fill="none"/>
    </clipPath>
    <clipPath id="clip-path-12">
      <rect id="Rectangle_5011" data-name="Rectangle 5011" width="3.417" height="3.417" fill="none"/>
    </clipPath>
    <clipPath id="clip-path-15">
      <rect id="Rectangle_5014" data-name="Rectangle 5014" width="159.58" height="27.397" fill="none"/>
    </clipPath>
    <clipPath id="clip-path-16">
      <rect id="Rectangle_5015" data-name="Rectangle 5015" width="111.063" height="27.398" fill="none"/>
    </clipPath>
    <clipPath id="clip-path-17">
      <rect id="Rectangle_5016" data-name="Rectangle 5016" width="133.93" height="154.625" fill="none"/>
    </clipPath>
    <clipPath id="clip-path-18">
      <rect id="Rectangle_5017" data-name="Rectangle 5017" width="8.678" height="40.453" fill="none"/>
    </clipPath>
    <clipPath id="clip-path-19">
      <rect id="Rectangle_5018" data-name="Rectangle 5018" width="15.826" height="22.602" fill="none"/>
    </clipPath>
    <clipPath id="clip-path-20">
      <rect id="Rectangle_5019" data-name="Rectangle 5019" width="11.52" height="6.853" fill="none"/>
    </clipPath>
    <clipPath id="clip-path-21">
      <rect id="Rectangle_5020" data-name="Rectangle 5020" width="11.433" height="5.491" fill="none"/>
    </clipPath>
    <clipPath id="clip-path-22">
      <rect id="Rectangle_5021" data-name="Rectangle 5021" width="42.316" height="57.239" fill="none"/>
    </clipPath>
    <clipPath id="clip-path-23">
      <rect id="Rectangle_5022" data-name="Rectangle 5022" width="16.238" height="24.069" fill="none"/>
    </clipPath>
    <clipPath id="clip-path-24">
      <rect id="Rectangle_5023" data-name="Rectangle 5023" width="36.208" height="33.56" fill="none"/>
    </clipPath>
  </defs>
  <g id="Group_37426" data-name="Group 37426" clip-path="url(#clip-path)">
    <g id="Group_37425" data-name="Group 37425">
      <g id="Group_37424" data-name="Group 37424" clip-path="url(#clip-path)">
        <path id="Path_39068" data-name="Path 39068" d="M229.777,129.611l-.5-14.663,9-2.941a87.492,87.492,0,0,1,2.4-14.724l-7.63-5.626,5.183-13.773,9.439.761a86.43,86.43,0,0,1,7.855-12.666l-4.888-8.159L260.686,47.1l8.438,4.32a92.19,92.19,0,0,1,12.094-8.742l-1.367-9.366,13.388-6.076,6.134,7.189a90.555,90.555,0,0,1,14.525-3.4l2.281-9.181,14.7-.5,2.9,9a90.51,90.51,0,0,1,14.723,2.4l5.666-7.593,13.771,5.145-.761,9.44a89.751,89.751,0,0,1,12.666,7.893l8.121-4.887,10.762,10.01-4.319,8.476a86.328,86.328,0,0,1,8.7,12.1l9.364-1.4L418.595,85.3l-7.227,6.136a87.4,87.4,0,0,1,3.4,14.526l9.221,2.316.5,14.663-9.04,2.945a86.689,86.689,0,0,1-2.4,14.722l7.63,5.626L415.5,160.007l-9.439-.762a86.481,86.481,0,0,1-7.855,12.665l4.89,8.159-10.052,10.726-8.437-4.322a89.941,89.941,0,0,1-12.1,8.744l1.406,9.363-13.388,6.076-6.173-7.187a90.617,90.617,0,0,1-14.525,3.4l-2.28,9.181-14.7.5-2.9-9a90.642,90.642,0,0,1-14.722-2.4l-5.628,7.592L285.823,207.6l.723-9.436a92.072,92.072,0,0,1-12.666-7.9l-8.122,4.89L255,185.143l4.319-8.476a86.326,86.326,0,0,1-8.7-12.1l-9.364,1.406-6.114-13.386,7.227-6.136a86.575,86.575,0,0,1-3.4-14.523Zm99.08,47.5a58.2,58.2,0,1,0-60.14-56.157,58.187,58.187,0,0,0,60.14,56.157" transform="translate(26.554 2.471)" fill="#ebebeb"/>
        <path id="Path_39069" data-name="Path 39069" d="M71.794,279.182l-.227-6.611,4.059-1.327a39.335,39.335,0,0,1,1.082-6.639l-3.441-2.536,2.338-6.211,4.256.344a38.946,38.946,0,0,1,3.542-5.711l-2.2-3.68,4.532-4.835,3.8,1.948a41.448,41.448,0,0,1,5.454-3.942l-.616-4.223,6.037-2.739,2.765,3.241a40.817,40.817,0,0,1,6.549-1.534l1.029-4.14,6.629-.228,1.31,4.059a40.991,40.991,0,0,1,6.638,1.082l2.555-3.423,6.21,2.32-.343,4.257a40.495,40.495,0,0,1,5.711,3.559l3.662-2.2,4.853,4.515-1.948,3.822a38.879,38.879,0,0,1,3.925,5.454l4.222-.633,2.756,6.035-3.258,2.766a39.5,39.5,0,0,1,1.534,6.55l4.158,1.044.227,6.611-4.076,1.328a39.135,39.135,0,0,1-1.082,6.639l3.44,2.536-2.338,6.211-4.256-.344a38.944,38.944,0,0,1-3.542,5.711l2.2,3.68-4.534,4.836-3.8-1.948a40.556,40.556,0,0,1-5.453,3.942l.634,4.221-6.037,2.74-2.784-3.241a40.786,40.786,0,0,1-6.549,1.534l-1.029,4.14-6.629.228-1.309-4.059a40.851,40.851,0,0,1-6.639-1.082l-2.537,3.422-6.21-2.32.326-4.255a41.348,41.348,0,0,1-5.711-3.561l-3.662,2.2-4.853-4.515,1.947-3.822a38.879,38.879,0,0,1-3.925-5.454l-4.221.634-2.757-6.037,3.259-2.766a38.966,38.966,0,0,1-1.534-6.549ZM116.47,300.6A26.243,26.243,0,1,0,89.352,275.28,26.238,26.238,0,0,0,116.47,300.6" transform="translate(8.289 26.679)" fill="#f5f5f5"/>
        <path id="Path_39070" data-name="Path 39070" d="M71,59.943l-3.7-3.453,1.477-2.911a30.089,30.089,0,0,1-3-4.176l-3.233.489-2.094-4.622,2.487-2.117a29.743,29.743,0,0,1-1.173-5l-3.182-.8-.164-5.066,3.111-1a31.785,31.785,0,0,1,.818-5.08l-2.617-1.952L61.505,19.5l3.249.258a31.237,31.237,0,0,1,2.711-4.372l-1.683-2.8,3.462-3.708,2.9,1.487a31.325,31.325,0,0,1,4.175-3l-.47-3.233,4.613-2.1L82.584,4.52A30.93,30.93,0,0,1,87.6,3.356L88.385.184,93.451,0l1.013,3.12a29.845,29.845,0,0,1,5.073.827l1.94-2.626L106.232,3.1l-.266,3.258a30.3,30.3,0,0,1,4.372,2.713l2.813-1.684,3.7,3.453-1.486,2.922a29.871,29.871,0,0,1,3,4.175l3.233-.489,2.094,4.623-2.487,2.116a29.853,29.853,0,0,1,1.173,5l3.181.8.165,5.067-3.112,1a30.877,30.877,0,0,1-.817,5.081l2.626,1.94-1.783,4.746-3.257-.248a31.142,31.142,0,0,1-2.713,4.372l1.683,2.8-3.461,3.708-2.9-1.487a31.18,31.18,0,0,1-4.175,3l.48,3.222-4.613,2.1-2.126-2.477a31.773,31.773,0,0,1-5.013,1.163l-.788,3.172-5.066.183-1.014-3.12a29.832,29.832,0,0,1-5.071-.827l-1.94,2.626L77.9,64.24l.267-3.258A29.854,29.854,0,0,1,73.8,58.269ZM97.346,38.6a7.221,7.221,0,1,0-10.2.349,7.22,7.22,0,0,0,10.2-.349" transform="translate(6.765 0)" fill="#ebebeb"/>
        <path id="Path_39071" data-name="Path 39071" d="M161.376,273.693l8.438-5.827,0-.02a46.3,46.3,0,0,1,3.394-8.789l-2.162-8.485,12.239-13.109,8.615,1.578a46.414,46.414,0,0,1,8.53-3.983l.021-.007,5.239-8.821,17.922-.615,5.828,8.439.032.008a46.349,46.349,0,0,1,8.78,3.389l8.48-2.161,13.108,12.241-1.574,8.6.006.007a45.508,45.508,0,0,1,3.986,8.563l8.818,5.237.615,17.922-8.446,5.832a45.007,45.007,0,0,1-3.384,8.827v0l2.155,8.459L249.78,324.086l-8.562-1.567a46.735,46.735,0,0,1-8.605,3.992h-.008l-5.23,8.808-17.922.614-5.822-8.432a46.654,46.654,0,0,1-8.855-3.392l0,0-8.441,2.151-13.108-12.238,1.573-8.6a45.519,45.519,0,0,1-3.986-8.564v0l-8.822-5.239Zm55.854,27.245a20.166,20.166,0,1,0-20.845-19.463,20.172,20.172,0,0,0,20.845,19.463" transform="translate(18.69 26.13)" fill="#ebebeb"/>
        <path id="Path_39072" data-name="Path 39072" d="M29.118,85.528a1.266,1.266,0,0,1-1.041-.547l-3.113-4.508a28.438,28.438,0,0,1-4.489-1.719l-4.439,1.13a1.273,1.273,0,0,1-1.177-.3l-7.593-7.09a1.269,1.269,0,0,1-.382-1.154l.828-4.517a27.672,27.672,0,0,1-2.019-4.343l-4.718-2.8a1.265,1.265,0,0,1-.619-1.046L0,48.248a1.267,1.267,0,0,1,.546-1.085L5.06,44.047a27.761,27.761,0,0,1,1.721-4.466L5.644,35.122a1.265,1.265,0,0,1,.3-1.176l7.09-7.593a1.267,1.267,0,0,1,1.154-.382l4.529.829a28.22,28.22,0,0,1,4.333-2.022l2.8-4.717a1.269,1.269,0,0,1,1.046-.619l10.383-.356a1.285,1.285,0,0,1,1.086.547l3.116,4.512a28.184,28.184,0,0,1,4.466,1.721l4.458-1.138a1.279,1.279,0,0,1,1.177.3l7.593,7.091a1.269,1.269,0,0,1,.382,1.153l-.828,4.519a27.735,27.735,0,0,1,2.022,4.344l4.715,2.8a1.268,1.268,0,0,1,.619,1.044l.356,10.383a1.266,1.266,0,0,1-.547,1.087L61.38,60.57a27.456,27.456,0,0,1-1.713,4.478L60.8,69.492a1.27,1.27,0,0,1-.3,1.177l-7.091,7.593a1.27,1.27,0,0,1-1.154.382l-4.5-.823a28.609,28.609,0,0,1-4.367,2.025l-2.8,4.708a1.264,1.264,0,0,1-1.046.617l-10.383.356a.284.284,0,0,1-.044,0m-8.5-9.383a1.256,1.256,0,0,1,.569.135,25.816,25.816,0,0,0,4.89,1.873,1.276,1.276,0,0,1,.714.5l2.98,4.315,9-.308,2.676-4.507a1.277,1.277,0,0,1,.707-.561A25.934,25.934,0,0,0,46.877,75.4a1.263,1.263,0,0,1,.873-.157l4.279.783,6.146-6.58L57.1,65.218a1.268,1.268,0,0,1,.1-.89,24.938,24.938,0,0,0,1.866-4.869,1.273,1.273,0,0,1,.5-.712l4.323-2.986-.308-9-4.513-2.679a1.271,1.271,0,0,1-.55-.674,25.11,25.11,0,0,0-2.18-4.693,1.267,1.267,0,0,1-.181-.914l.788-4.3L50.36,27.354l-4.241,1.082a1.263,1.263,0,0,1-.886-.1,25.548,25.548,0,0,0-4.846-1.87,1.325,1.325,0,0,1-.729-.509l-2.983-4.318-9,.308L25,26.465a1.279,1.279,0,0,1-.493.47,1.323,1.323,0,0,1-.264.106A25.819,25.819,0,0,0,19.6,29.216a1.251,1.251,0,0,1-.877.158l-4.31-.789L8.269,35.168l1.081,4.245a1.259,1.259,0,0,1-.1.885A25.633,25.633,0,0,0,7.379,45.15a1.3,1.3,0,0,1-.5.721L2.555,48.854l.309,9,4.515,2.682a1.26,1.26,0,0,1,.55.673,25.158,25.158,0,0,0,2.2,4.725,1.265,1.265,0,0,1,.161.879l-.788,4.3,6.582,6.144,4.22-1.075a1.187,1.187,0,0,1,.312-.039M57.4,38.029h0ZM33.208,71.294a18.972,18.972,0,1,1,.666-.011c-.222.007-.445.011-.666.011m.032-35.432c-.193,0-.386,0-.579.01a16.436,16.436,0,1,0,.579-.01" transform="translate(0 2.211)" fill="#ebebeb"/>
        <path id="Path_39073" data-name="Path 39073" d="M440.8,375.229c0,6.978-96.861,12.634-216.345,12.634S8.107,382.208,8.107,375.229,104.968,362.6,224.452,362.6,440.8,368.252,440.8,375.229" transform="translate(0.939 41.995)" fill="#f5f5f5"/>
        <path id="Path_39074" data-name="Path 39074" d="M408.671,310.623H37.3A16.525,16.525,0,0,1,20.774,294.1V56.663A16.524,16.524,0,0,1,37.3,40.139H408.671A16.525,16.525,0,0,1,425.2,56.663V294.1a16.526,16.526,0,0,1-16.525,16.525" transform="translate(2.406 4.649)" fill="#fff"/>
        <path id="Path_39075" data-name="Path 39075" d="M387.375,209.355h-1.116V199.27h1.116Zm0-17.964h-1.116V170.568h1.116Z" transform="translate(44.735 19.755)" fill="#407bff"/>
        <path id="Path_39076" data-name="Path 39076" d="M408.732,311.288H37.361A17.147,17.147,0,0,1,20.233,294.16V56.726A17.147,17.147,0,0,1,37.361,39.6H408.732A17.147,17.147,0,0,1,425.86,56.726V294.16a17.147,17.147,0,0,1-17.128,17.128M37.361,40.8A15.94,15.94,0,0,0,21.439,56.726V294.16a15.94,15.94,0,0,0,15.922,15.922H408.732a15.94,15.94,0,0,0,15.922-15.922V56.726A15.94,15.94,0,0,0,408.732,40.8Z" transform="translate(2.343 4.586)" fill="#407bff"/>
        <g id="Group_37357" data-name="Group 37357" transform="translate(46.629 111.337)" opacity="0.5">
          <g id="Group_37356" data-name="Group 37356">
            <g id="Group_37355" data-name="Group 37355" clip-path="url(#clip-path-3)">
              <path id="Path_39077" data-name="Path 39077" d="M153.381,247.79h-5.626v-1.207h5.626l.1,1.206Zm-11.253,0H136.5v-1.206h5.627Zm-11.254,0h-5.627v-1.206h5.627Zm-11.253,0h-5.627v-1.206h5.627Zm-11.254,0h-5.627v-1.206h5.627Zm-11.253,0H91.486v-1.206h5.627Zm-11.254,0H80.232v-1.206h5.627Zm-11.253,0H68.979v-1.206h5.627Zm-11.254,0H57.725v-1.206h5.627Zm-11.253,0H50a8.127,8.127,0,0,1-3.673-.867l.54-1.078a6.931,6.931,0,0,0,3.133.738h2.1Zm106.885-2.209-.823-.882a6.977,6.977,0,0,0,2.2-4.557l1.2.095a8.187,8.187,0,0,1-2.583,5.344M42.337,242.532a8.177,8.177,0,0,1-.548-2.955v-2.826H43v2.826a6.969,6.969,0,0,0,.466,2.521Zm119.256-7.968h-1.206v-5.627h1.206ZM43,231.124H41.789V225.5H43Zm118.6-7.813h-1.206v-5.627h1.206ZM43,219.871H41.789v-5.626H43Zm118.6-7.814h-1.206V206.43h1.206ZM43,208.618H41.789v-5.627H43Zm118.6-7.815h-1.206v-5.627h1.206ZM43,197.364H41.789v-5.627H43Zm118.6-7.814h-1.206v-5.627h1.206ZM43,186.11H41.789v-5.626H43Zm118.6-7.814h-1.206v-5.627h1.206ZM43,174.856H41.789v-5.626H43Zm118.6-7.814h-1.206v-5.627h1.206ZM43,163.6H41.789v-5.627H43Zm118.6-7.814h-1.206v-5.626h1.206ZM43,152.349H41.789v-5.627H43Zm118.6-7.815h-1.206v-5.626h1.206ZM43,141.1H41.789v-5.627H43Zm118.6-7.814h-1.206v-5.627h1.206ZM43,129.841H41.789v-5.627H43Zm118.6-7.813h-1.206V116.4h1.206ZM43,118.588H41.789v-5.626H43Zm118.6-7.814h-1.206v-2.782a6.961,6.961,0,0,0-.482-2.559l1.123-.441a8.173,8.173,0,0,1,.566,3ZM43.021,107.386l-1.2-.1a8.177,8.177,0,0,1,2.613-5.327l.818.886a6.978,6.978,0,0,0-2.229,4.542m113.457-5.679a6.937,6.937,0,0,0-3.1-.72h-2.142V99.781h2.142a8.133,8.133,0,0,1,3.631.844Zm-10.867-.72h-5.627V99.781h5.627Zm-11.253,0h-5.627V99.781h5.627Zm-11.254,0h-5.627V99.781H123.1Zm-11.253,0h-5.627V99.781h5.627Zm-11.254,0H94.97V99.781H100.6Zm-11.253,0H83.717V99.781h5.627Zm-11.254,0H72.463V99.781H78.09Zm-11.254,0H61.209V99.781h5.627Zm-11.253,0H50l-.045-1.206h5.627Z" transform="translate(-41.789 -99.781)" fill="#407bff"/>
            </g>
          </g>
        </g>
        <path id="Path_39078" data-name="Path 39078" d="M50.522,56.29a5.327,5.327,0,1,1-5.327-5.327,5.326,5.326,0,0,1,5.327,5.327" transform="translate(4.617 5.902)" fill="#407bff"/>
        <g id="Group_37360" data-name="Group 37360" transform="translate(60.868 59.076)" opacity="0.2">
          <g id="Group_37359" data-name="Group 37359">
            <g id="Group_37358" data-name="Group 37358" clip-path="url(#clip-path-4)">
              <path id="Path_39079" data-name="Path 39079" d="M83.8,59.176H57.666a3.115,3.115,0,1,1,0-6.231H83.8a3.115,3.115,0,0,1,0,6.231" transform="translate(-54.55 -52.944)" fill="#407bff"/>
            </g>
          </g>
        </g>
        <g id="Group_37363" data-name="Group 37363" transform="translate(196.043 60.483)" opacity="0.2">
          <g id="Group_37362" data-name="Group 37362">
            <g id="Group_37361" data-name="Group 37361" clip-path="url(#clip-path-5)">
              <path id="Path_39080" data-name="Path 39080" d="M195.738,57.623H177.4a1.708,1.708,0,1,1,0-3.417h18.334a1.708,1.708,0,0,1,0,3.417" transform="translate(-175.695 -54.205)" fill="#407bff"/>
            </g>
          </g>
        </g>
        <g id="Group_37366" data-name="Group 37366" transform="translate(237.185 60.483)" opacity="0.2">
          <g id="Group_37365" data-name="Group 37365">
            <g id="Group_37364" data-name="Group 37364" clip-path="url(#clip-path-5)">
              <path id="Path_39081" data-name="Path 39081" d="M232.609,57.623H214.274a1.708,1.708,0,1,1,0-3.417h18.335a1.708,1.708,0,0,1,0,3.417" transform="translate(-212.566 -54.205)" fill="#407bff"/>
            </g>
          </g>
        </g>
        <g id="Group_37369" data-name="Group 37369" transform="translate(278.326 60.483)" opacity="0.2">
          <g id="Group_37368" data-name="Group 37368">
            <g id="Group_37367" data-name="Group 37367" clip-path="url(#clip-path-5)">
              <path id="Path_39082" data-name="Path 39082" d="M269.48,57.623H251.145a1.708,1.708,0,0,1,0-3.417H269.48a1.708,1.708,0,0,1,0,3.417" transform="translate(-249.437 -54.205)" fill="#407bff"/>
            </g>
          </g>
        </g>
        <g id="Group_37372" data-name="Group 37372" transform="translate(319.468 60.483)" opacity="0.2">
          <g id="Group_37371" data-name="Group 37371">
            <g id="Group_37370" data-name="Group 37370" clip-path="url(#clip-path-8)">
              <path id="Path_39083" data-name="Path 39083" d="M306.351,57.623H288.016a1.708,1.708,0,0,1,0-3.417h18.335a1.708,1.708,0,1,1,0,3.417" transform="translate(-286.309 -54.205)" fill="#407bff"/>
            </g>
          </g>
        </g>
        <g id="Group_37375" data-name="Group 37375" transform="translate(361.404 59.175)" opacity="0.7">
          <g id="Group_37374" data-name="Group 37374">
            <g id="Group_37373" data-name="Group 37373" clip-path="url(#clip-path-9)">
              <path id="Path_39084" data-name="Path 39084" d="M354.644,59.066H326.907a3.016,3.016,0,1,1,0-6.032h27.737a3.016,3.016,0,0,1,0,6.032" transform="translate(-323.892 -53.033)" fill="#407bff"/>
            </g>
          </g>
        </g>
        <g id="Group_37378" data-name="Group 37378" transform="translate(196.043 254.874)" opacity="0.7">
          <g id="Group_37377" data-name="Group 37377">
            <g id="Group_37376" data-name="Group 37376" clip-path="url(#clip-path-10)">
              <path id="Path_39085" data-name="Path 39085" d="M234.083,242.671H182.118a6.423,6.423,0,0,1-6.423-6.423v-1.407a6.423,6.423,0,0,1,6.423-6.423h51.966a6.423,6.423,0,0,1,6.423,6.423v1.407a6.423,6.423,0,0,1-6.423,6.423" transform="translate(-175.695 -228.419)" fill="#407bff"/>
            </g>
          </g>
        </g>
        <g id="Group_37381" data-name="Group 37381" transform="translate(391.755 135.257)" opacity="0.2">
          <g id="Group_37380" data-name="Group 37380">
            <g id="Group_37379" data-name="Group 37379" clip-path="url(#clip-path-11)">
              <path id="Path_39086" data-name="Path 39086" d="M351.093,177.181V122.926a1.708,1.708,0,1,1,3.417,0v54.254a1.708,1.708,0,1,1-3.417,0" transform="translate(-351.093 -121.218)" fill="#407bff"/>
            </g>
          </g>
        </g>
        <g id="Group_37384" data-name="Group 37384" transform="translate(391.755 204.989)" opacity="0.2">
          <g id="Group_37383" data-name="Group 37383">
            <g id="Group_37382" data-name="Group 37382" clip-path="url(#clip-path-12)">
              <path id="Path_39087" data-name="Path 39087" d="M354.51,185.42a1.708,1.708,0,1,1-1.708-1.708,1.708,1.708,0,0,1,1.708,1.708" transform="translate(-351.093 -183.712)" fill="#407bff"/>
            </g>
          </g>
        </g>
        <g id="Group_37387" data-name="Group 37387" transform="translate(391.755 229.11)" opacity="0.2">
          <g id="Group_37386" data-name="Group 37386">
            <g id="Group_37385" data-name="Group 37385" clip-path="url(#clip-path-12)">
              <path id="Path_39088" data-name="Path 39088" d="M354.51,207.037a1.708,1.708,0,1,1-1.708-1.708,1.708,1.708,0,0,1,1.708,1.708" transform="translate(-351.093 -205.329)" fill="#407bff"/>
            </g>
          </g>
        </g>
        <g id="Group_37390" data-name="Group 37390" transform="translate(391.755 253.23)" opacity="0.2">
          <g id="Group_37389" data-name="Group 37389">
            <g id="Group_37388" data-name="Group 37388" clip-path="url(#clip-path-12)">
              <path id="Path_39089" data-name="Path 39089" d="M354.51,228.654a1.708,1.708,0,1,1-1.708-1.708,1.708,1.708,0,0,1,1.708,1.708" transform="translate(-351.093 -226.946)" fill="#407bff"/>
            </g>
          </g>
        </g>
        <g id="Group_37393" data-name="Group 37393" transform="translate(196.043 111.941)" opacity="0.2">
          <g id="Group_37392" data-name="Group 37392">
            <g id="Group_37391" data-name="Group 37391" clip-path="url(#clip-path-15)">
              <path id="Path_39090" data-name="Path 39090" d="M321.576,127.719H189.394a13.7,13.7,0,0,1,0-27.4H321.576a13.7,13.7,0,0,1,0,27.4" transform="translate(-175.695 -100.322)" fill="#407bff"/>
            </g>
          </g>
        </g>
        <g id="Group_37396" data-name="Group 37396" transform="translate(196.043 151.711)" opacity="0.2">
          <g id="Group_37395" data-name="Group 37395">
            <g id="Group_37394" data-name="Group 37394" clip-path="url(#clip-path-16)">
              <path id="Path_39091" data-name="Path 39091" d="M273.06,163.362H189.395a13.7,13.7,0,1,1,0-27.4H273.06a13.7,13.7,0,0,1,0,27.4" transform="translate(-175.695 -135.964)" fill="#407bff"/>
            </g>
          </g>
        </g>
        <path id="Path_39092" data-name="Path 39092" d="M297.7,189.9H178.9a3.2,3.2,0,0,1,0-6.407H297.7a3.2,3.2,0,0,1,0,6.407" transform="translate(20.348 21.251)" fill="#ebebeb"/>
        <path id="Path_39093" data-name="Path 39093" d="M311.642,189.9H299.49a3.2,3.2,0,0,1,0-6.407h12.152a3.2,3.2,0,1,1,0,6.407" transform="translate(34.315 21.251)" fill="#ebebeb"/>
        <path id="Path_39094" data-name="Path 39094" d="M225.8,195.368h51.075a3.2,3.2,0,1,1,0,6.407H225.8a3.2,3.2,0,0,1,0-6.407" transform="translate(25.78 22.627)" fill="#ebebeb"/>
        <path id="Path_39095" data-name="Path 39095" d="M178.9,195.368h36.566a3.2,3.2,0,1,1,0,6.407H178.9a3.2,3.2,0,1,1,0-6.407" transform="translate(20.349 22.627)" fill="#ebebeb"/>
        <path id="Path_39096" data-name="Path 39096" d="M250.854,213.657H178.9a3.2,3.2,0,0,1,0-6.407h71.956a3.2,3.2,0,1,1,0,6.407" transform="translate(20.348 24.003)" fill="#ebebeb"/>
        <path id="Path_39097" data-name="Path 39097" d="M294.077,213.657H257.511a3.2,3.2,0,1,1,0-6.407h36.566a3.2,3.2,0,1,1,0,6.407" transform="translate(29.453 24.003)" fill="#ebebeb"/>
        <path id="Path_39098" data-name="Path 39098" d="M185.9,228.785,84.085,248.17a7.476,7.476,0,0,1-8.742-5.946L50.683,112.7a7.476,7.476,0,0,1,5.946-8.742L158.446,84.574a7.476,7.476,0,0,1,8.742,5.946l24.66,129.523a7.476,7.476,0,0,1-5.946,8.742" transform="translate(5.854 9.78)" fill="#407bff"/>
        <g id="Group_37399" data-name="Group 37399" transform="translate(60.155 98.839)" opacity="0.2">
          <g id="Group_37398" data-name="Group 37398">
            <g id="Group_37397" data-name="Group 37397" clip-path="url(#clip-path-17)">
              <path id="Path_39099" data-name="Path 39099" d="M77.17,243.205a.558.558,0,0,1-.491-.821l82.154-153.51a.558.558,0,1,1,.984.527L77.662,242.911a.558.558,0,0,1-.492.295" transform="translate(-51.282 -88.58)" fill="#fff"/>
              <path id="Path_39100" data-name="Path 39100" d="M187.283,220.617a.555.555,0,0,1-.36-.133L54.108,107.9a.557.557,0,1,1,.721-.85L187.645,219.634a.558.558,0,0,1-.362.983" transform="translate(-53.911 -86.456)" fill="#fff"/>
            </g>
          </g>
        </g>
        <path id="Path_39101" data-name="Path 39101" d="M161.762,221.746s14.56,50.584,20.466,75.424c6.2,26.087,24.655,65.521,26.189,82.813,1.594.635,6.764-.079,9.522-1.413,0,0-2.53-55.133-17.523-80.246,3.385-61.8-13.386-76.577-13.386-76.577Z" transform="translate(18.735 25.682)" fill="#407bff"/>
        <g id="Group_37402" data-name="Group 37402" transform="translate(191.171 272.837)" opacity="0.1">
          <g id="Group_37401" data-name="Group 37401">
            <g id="Group_37400" data-name="Group 37400" clip-path="url(#clip-path-18)">
              <path id="Path_39102" data-name="Path 39102" d="M179.515,244.518l-8.188,12.576c2.6,9.484,5.25,19.371,7.421,27.878,2.276-14.724.767-40.454.767-40.454" transform="translate(-171.328 -244.518)"/>
            </g>
          </g>
        </g>
        <path id="Path_39103" data-name="Path 39103" d="M190.909,183.111c.238.694.4,1.189.57,1.761.171.555.315,1.106.464,1.656.3,1.1.537,2.2.774,3.307a64.232,64.232,0,0,1,1.005,6.707,56.231,56.231,0,0,1,.289,6.844,51.93,51.93,0,0,1-.558,6.945l-.051.378a3.659,3.659,0,0,1-.189.754,11.4,11.4,0,0,1-2.218,3.67,15.035,15.035,0,0,1-2.7,2.347,21.283,21.283,0,0,1-5.384,2.528,31.824,31.824,0,0,1-5.218,1.156,32.609,32.609,0,0,1-5.226.3,3.042,3.042,0,0,1-1.191-5.8l.254-.116c1.275-.585,2.716-1.2,4.008-1.841a38.318,38.318,0,0,0,3.707-2.031,14.681,14.681,0,0,0,2.819-2.187c.69-.712.876-1.352.764-1.4l-.24,1.133c.035-1.843.027-3.689-.117-5.568s-.346-3.757-.64-5.645-.632-3.774-1.051-5.647c-.2-.937-.431-1.868-.654-2.791l-.353-1.369-.333-1.237-.087-.321a6.046,6.046,0,0,1,11.559-3.529" transform="translate(19.631 20.734)" fill="#ff8b7b"/>
        <path id="Path_39104" data-name="Path 39104" d="M177.1,212.157l-7.287-2.078a4.561,4.561,0,0,0-3.147.238l-2.723,1.246a2.622,2.622,0,0,0-1.27,3.525l1.275,2.637a2.621,2.621,0,0,0,2.917,1.422l4.886-1.061s5.489.359,7.428-2.9Z" transform="translate(18.81 24.31)" fill="#ff8b7b"/>
        <path id="Path_39105" data-name="Path 39105" d="M181.944,173.515c-3.91,4.059-6,10.158-2.832,21.819,4.173,2.069,14.286-.616,14.286-.616s.142-17.522-11.454-21.2" transform="translate(20.566 20.096)" fill="#407bff"/>
        <g id="Group_37405" data-name="Group 37405" transform="translate(198.137 193.611)" opacity="0.7">
          <g id="Group_37404" data-name="Group 37404">
            <g id="Group_37403" data-name="Group 37403" clip-path="url(#clip-path-19)">
              <path id="Path_39106" data-name="Path 39106" d="M181.944,173.515c-3.91,4.059-6,10.158-2.832,21.819,4.173,2.069,14.286-.616,14.286-.616s.142-17.522-11.454-21.2" transform="translate(-177.571 -173.515)" fill="#fff"/>
            </g>
          </g>
        </g>
        <path id="Path_39107" data-name="Path 39107" d="M173.937,157.868c-.732,5.126-1.261,14.419,2.371,17.332,0,0-4.786-.127-14,7.271-3.4-3.788-1.416-5.373-1.416-5.373,5.467-2.014,5.126-6.138,3.975-9.91Z" transform="translate(18.567 18.284)" fill="#ff8b7b"/>
        <path id="Path_39108" data-name="Path 39108" d="M159.722,152.4c-.168.669-.655,1.149-1.086,1.071s-.645-.682-.478-1.351.655-1.148,1.087-1.071.645.683.476,1.351" transform="translate(18.311 17.494)" fill="#263238"/>
        <path id="Path_39109" data-name="Path 39109" d="M159.443,151.194l-1.47-.748s.5,1.4,1.47.748" transform="translate(18.296 17.424)" fill="#263238"/>
        <path id="Path_39110" data-name="Path 39110" d="M159.655,153.4a20.273,20.273,0,0,1-3.427,3.848,2.746,2.746,0,0,0,2.241.869Z" transform="translate(18.094 17.766)" fill="#ff5652"/>
        <path id="Path_39111" data-name="Path 39111" d="M159.048,147.365a.371.371,0,0,1-.016-.289.4.4,0,0,1,.521-.215A4.217,4.217,0,0,1,162.2,149.5a.367.367,0,0,1-.3.456.435.435,0,0,1-.5-.307,3.37,3.37,0,0,0-2.117-2.071.434.434,0,0,1-.239-.218" transform="translate(18.416 17.006)" fill="#263238"/>
        <path id="Path_39112" data-name="Path 39112" d="M182.21,155.009c-2.344,7.87-3.169,11.242-8.151,14.615-7.493,5.074-16.64,1.023-16.693-7.255-.047-7.45,3.795-19.069,12.343-20.858a10.519,10.519,0,0,1,12.5,13.5" transform="translate(18.226 16.359)" fill="#ff8b7b"/>
        <path id="Path_39113" data-name="Path 39113" d="M163.573,156.127c-4.662-3.313-2.391-9.4,1.887-9.586-5.579-3.905-2.669-10.973,4.151-10.694s7.787,4.463,7.787,4.463,11,.558,12.542,8.555c1.818,9.409-3.931,15.435-11,18.225,4.8,3.942-6.533,6.709-12.172,3.534-5.78-3.255-7.779-10.3-3.2-14.5" transform="translate(18.645 15.732)" fill="#263238"/>
        <path id="Path_39114" data-name="Path 39114" d="M187.21,144.558c-6-1.109-9.006,7.184-5.1,12.029a9.23,9.23,0,0,0,2.008,1.9,3.9,3.9,0,0,0,6.009-2.978c.325-3.983.321-10.349-2.916-10.947" transform="translate(20.888 16.731)" fill="#fff"/>
        <path id="Path_39115" data-name="Path 39115" d="M203.158,149.256a1.835,1.835,0,0,0,.793-1.275c.254-2.343-1.521-3.863-3.657-4.2-1.282-4.081-6.695-4.156-9.741-1.233-2.493-1.273-5.267,1.528-4.927,4.451-2.628,1.178-3.307,5.536-.918,8.057a6.226,6.226,0,0,0,1.451,1.166,2.373,2.373,0,0,0,.359.141,4.532,4.532,0,0,0,3.528,3.785,4.993,4.993,0,0,0,1.5.088,2.046,2.046,0,0,0,1.675-1.245c1.746,1.434,3.607,2.367,4.936,1.442a4.29,4.29,0,0,0,1.9-3.8,2.564,2.564,0,0,0,2.5-.094c2.559-1.782,2.343-4.973.6-7.284" transform="translate(21.222 16.274)" fill="#263238"/>
        <path id="Path_39116" data-name="Path 39116" d="M166.2,155.6a5.643,5.643,0,0,1-3.69,2.684c-1.916.326-2.532-1.892-1.714-3.977.736-1.877,2.62-4.308,4.405-3.676,1.759.623,2.111,3.17,1,4.969" transform="translate(18.582 17.434)" fill="#ff8b7b"/>
        <path id="Path_39117" data-name="Path 39117" d="M163.3,151.028c1.638-3.131,10.627-11.693,16.609-11.376a16.958,16.958,0,0,1,3.53,1.409.225.225,0,0,1-.083.423c-2.347.274-9.963,2.033-17.1,13.263a11.444,11.444,0,0,1-2.956-3.719" transform="translate(18.913 16.173)" fill="#407bff"/>
        <path id="Path_39118" data-name="Path 39118" d="M167.4,156.365c-1.442,3.207-4.336,5.03-6.464,4.074s-2.687-4.333-1.245-7.538,4.336-5.031,6.465-4.074,2.686,4.332,1.244,7.538" transform="translate(18.402 17.207)" fill="#fff"/>
        <path id="Path_39119" data-name="Path 39119" d="M165.685,155.561c-1.3,2.9-3.8,4.6-5.571,3.8s-2.159-3.792-.857-6.688,3.8-4.6,5.571-3.8,2.159,3.793.857,6.688" transform="translate(18.355 17.219)" fill="#407bff"/>
        <path id="Path_39120" data-name="Path 39120" d="M199.612,375.23c6.269-.929,6.389-1.972,9.751-3.15,2.878-1.015,3.688-.869,6.01-1.654,1.94-.654,1.282-2.5.006-4.464a23.007,23.007,0,0,1-1.43-3.67l-9.522,1.413c-.927,2.658-1.254,6.06-6.689,8.006-3.238,1.159-.624,3.89,1.876,3.519" transform="translate(22.727 41.96)" fill="#263238"/>
        <path id="Path_39121" data-name="Path 39121" d="M147.527,374.8c6.229-.011,7.427-.41,10.927-.529,3-.109,3.494.529,6.536.529,2.015,0,2.293-2.27,1.554-3.971a31.134,31.134,0,0,1-1.079-4.632h-8.59c-1.55,2.723-5.773,4.737-10.5,5.075-3.374.25-1.348,3.528,1.146,3.528" transform="translate(16.748 42.412)" fill="#263238"/>
        <path id="Path_39122" data-name="Path 39122" d="M153.78,221.746s-1.242,44.817,1.413,73.277c-.166,26.718.656,87.905.656,87.905.208,1.365,7.373.82,8.588,0,0,0,13.42-44.567,7.463-87.905,14.914-45.2,11.7-73.277,11.7-73.277Z" transform="translate(17.777 25.682)" fill="#407bff"/>
        <path id="Path_39123" data-name="Path 39123" d="M202.456,360.714a24.892,24.892,0,0,1,.192,3.57.742.742,0,0,0,.744.775c3.567.04,8.491-1.515,10.05-2.042a.734.734,0,0,0,.5-.693l.03-3.371a.739.739,0,0,0-.863-.736L203.069,359.9a.735.735,0,0,0-.614.81" transform="translate(23.447 41.486)" fill="#407bff"/>
        <g id="Group_37408" data-name="Group 37408" transform="translate(225.898 399.693)" opacity="0.5">
          <g id="Group_37407" data-name="Group 37407">
            <g id="Group_37406" data-name="Group 37406" clip-path="url(#clip-path-20)">
              <path id="Path_39124" data-name="Path 39124" d="M202.456,360.714a24.892,24.892,0,0,1,.192,3.57.742.742,0,0,0,.744.775c3.567.04,8.491-1.515,10.05-2.042a.734.734,0,0,0,.5-.693l.03-3.371a.739.739,0,0,0-.863-.736L203.069,359.9a.735.735,0,0,0-.614.81" transform="translate(-202.451 -358.206)" fill="#fff"/>
            </g>
          </g>
        </g>
        <path id="Path_39125" data-name="Path 39125" d="M154.739,362.894c-.026.928-.08,2.582-.165,3.8a.779.779,0,0,0,.678.817,51.2,51.2,0,0,0,9.477-.1.7.7,0,0,0,.624-.566l.638-3.327a.781.781,0,0,0-.733-.913l-9.782-.389a.7.7,0,0,0-.736.68" transform="translate(17.902 41.95)" fill="#407bff"/>
        <g id="Group_37411" data-name="Group 37411" transform="translate(172.474 404.165)" opacity="0.5">
          <g id="Group_37410" data-name="Group 37410">
            <g id="Group_37409" data-name="Group 37409" clip-path="url(#clip-path-21)">
              <path id="Path_39126" data-name="Path 39126" d="M154.739,362.894c-.026.928-.08,2.582-.165,3.8a.779.779,0,0,0,.678.817,51.2,51.2,0,0,0,9.477-.1.7.7,0,0,0,.624-.566l.638-3.327a.781.781,0,0,0-.733-.913l-9.782-.389a.7.7,0,0,0-.736.68" transform="translate(-154.572 -362.214)" fill="#fff"/>
            </g>
          </g>
        </g>
        <path id="Path_39127" data-name="Path 39127" d="M148.667,189.82a154.249,154.249,0,0,0,2.135,15.505c1.093,6.712,1.9,13.26,3.487,24.331,15.377,1.613,33.472.312,34.266-2.28-1.214-9.585-1.177-22.518,2.271-44.79a7.977,7.977,0,0,0-8.039-9.459c-1.361.029-2.8.09-4.276.2a108.888,108.888,0,0,0-15.417,1.9c-1.657.358-3.368.782-5,1.217a12.877,12.877,0,0,0-9.425,13.375" transform="translate(17.212 20.051)" fill="#407bff"/>
        <g id="Group_37414" data-name="Group 37414" transform="translate(165.829 193.177)" opacity="0.8">
          <g id="Group_37413" data-name="Group 37413">
            <g id="Group_37412" data-name="Group 37412" clip-path="url(#clip-path-22)">
              <path id="Path_39128" data-name="Path 39128" d="M148.667,189.82a154.249,154.249,0,0,0,2.135,15.505c1.093,6.712,1.9,13.26,3.487,24.331,15.377,1.613,33.472.312,34.266-2.28-1.214-9.585-1.177-22.518,2.271-44.79a7.977,7.977,0,0,0-8.039-9.459c-1.361.029-2.8.09-4.276.2a108.888,108.888,0,0,0-15.417,1.9c-1.657.358-3.368.782-5,1.217a12.877,12.877,0,0,0-9.425,13.375" transform="translate(-148.617 -173.126)" fill="#fff"/>
            </g>
          </g>
        </g>
        <path id="Path_39129" data-name="Path 39129" d="M161.667,188.984c-.085.729-.155,1.243-.244,1.834-.085.574-.2,1.133-.3,1.693-.216,1.117-.462,2.219-.721,3.318a62.662,62.662,0,0,1-1.979,6.487,56.1,56.1,0,0,1-2.689,6.3,51.551,51.551,0,0,1-3.495,6.027L152,215a3.231,3.231,0,0,1-.473.566,47.5,47.5,0,0,1-5.806,4.569c-1.892,1.32-3.818,2.528-5.74,3.716-1.935,1.166-3.88,2.3-5.852,3.379-1.994,1.054-3.957,2.118-6.022,3.083a3.034,3.034,0,0,1-3.373-4.949l.026-.023c1.6-1.515,3.275-2.973,4.9-4.461l4.93-4.366c1.647-1.429,3.249-2.894,4.829-4.316q1.185-1.073,2.274-2.145L142.733,209c.334-.34.58-.647.877-.965l-.7.918c.825-1.649,1.613-3.317,2.294-5.076s1.307-3.539,1.853-5.369,1.052-3.679,1.489-5.548c.222-.933.435-1.868.618-2.8l.5-2.65.064-.339a6.046,6.046,0,0,1,11.948,1.809" transform="translate(14.337 21.106)" fill="#ff8b7b"/>
        <path id="Path_39130" data-name="Path 39130" d="M128.695,220.863l-6.259-1.852a4.555,4.555,0,0,0-3.148.208l-2.735,1.218a2.621,2.621,0,0,0-1.3,3.513L116.5,226.6a2.621,2.621,0,0,0,2.9,1.449l4.9-1.012a12.314,12.314,0,0,0,4.637-.649,2.923,2.923,0,0,0-.239-5.523" transform="translate(13.319 25.343)" fill="#ff8b7b"/>
        <path id="Path_39131" data-name="Path 39131" d="M156.434,176.906c-5.276,1.979-9.787,6.584-11.956,18.469,2.874,3.665,13.155,5.6,13.155,5.6s7.678-15.749-1.2-24.069" transform="translate(16.733 20.489)" fill="#407bff"/>
        <g id="Group_37417" data-name="Group 37417" transform="translate(161.211 197.395)" opacity="0.8">
          <g id="Group_37416" data-name="Group 37416">
            <g id="Group_37415" data-name="Group 37415" clip-path="url(#clip-path-23)">
              <path id="Path_39132" data-name="Path 39132" d="M156.434,176.906c-5.276,1.979-9.787,6.584-11.956,18.469,2.874,3.665,13.155,5.6,13.155,5.6s7.678-15.749-1.2-24.069" transform="translate(-144.478 -176.906)" fill="#fff"/>
            </g>
          </g>
        </g>
        <path id="Path_39133" data-name="Path 39133" d="M286.067,287.289c-1.557-6.046.32-8.349,2.523-10.761s1.945-6.443,1.945-6.443a28.665,28.665,0,0,1,2.419,14.858c-1,8.051-5.75,6.76-6.887,2.345" transform="translate(33.065 31.28)" fill="#263238"/>
        <path id="Path_39134" data-name="Path 39134" d="M296.617,330.2c-2.31-3.872-12.142-12.04-19.608-8.832,5.97,2.48,12.554,17.571,21.388,16.938-1.52-6.924-1.78-8.106-1.78-8.106" transform="translate(32.082 37.135)" fill="#263238"/>
        <path id="Path_39135" data-name="Path 39135" d="M302.909,369.45a1.052,1.052,0,0,1-1.019-.8c-1.438-5.908-14.194-58.8-19.19-96.35a1.049,1.049,0,1,1,2.08-.277c4.982,37.44,17.714,90.233,19.15,96.129a1.05,1.05,0,0,1-.771,1.269,1.069,1.069,0,0,1-.25.03" transform="translate(32.74 31.399)" fill="#407bff"/>
        <path id="Path_39136" data-name="Path 39136" d="M286.568,275.5c.136-4.43-1.933-7.157-7.123-7.633s-6.832-2.64-7.8-4.661c1.751,10.2,13.98,12.749,15.171,17.785-.245-3.773-.245-5.491-.245-5.491" transform="translate(31.461 30.483)" fill="#407bff"/>
        <path id="Path_39137" data-name="Path 39137" d="M288.61,290.25c-.427-4.644-4.175-5.282-8.445-5.842s-5.686-3.3-5.686-3.3a10.877,10.877,0,0,0,3.093,10.77c5.035,4.775,11.35,1.762,11.038-1.629" transform="translate(31.747 32.557)" fill="#407bff"/>
        <path id="Path_39138" data-name="Path 39138" d="M293.48,327.579c-.736-5.186,2.821-7.333,2.27-14.946,10.191,17.418-1.115,23.085-2.27,14.946" transform="translate(33.978 36.208)" fill="#407bff"/>
        <path id="Path_39139" data-name="Path 39139" d="M290.4,308.074c-2.875-4.378-6.964-3.638-11.582-9.715,3.866,19.806,16.095,16.585,11.582,9.715" transform="translate(32.292 34.555)" fill="#407bff"/>
        <path id="Path_39140" data-name="Path 39140" d="M309.611,309.833c.253-7-6.24-10.7-11.21-17.7,3.022,13.929,10.812,28.684,11.21,17.7" transform="translate(34.56 33.834)" fill="#263238"/>
        <path id="Path_39141" data-name="Path 39141" d="M305.712,366.273c-.032,0-.065,0-.1,0a1.236,1.236,0,0,1-1.133-1.327c1.163-14.712,5.267-78.125,4.118-119.588a1.233,1.233,0,0,1,1.2-1.266,1.215,1.215,0,0,1,1.266,1.2c1.151,41.572-2.96,105.11-4.124,119.85a1.234,1.234,0,0,1-1.228,1.136" transform="translate(35.264 28.27)" fill="#407bff"/>
        <path id="Path_39142" data-name="Path 39142" d="M308.474,251.114c-1.559-8.482,1.625-14.336,11.474-16.772s12.373-7.079,13.648-11.25c-.385,20.135-23.169,28.621-23.987,38.657-.632-7.329-1.135-10.636-1.135-10.636" transform="translate(35.683 25.838)" fill="#407bff"/>
        <path id="Path_39143" data-name="Path 39143" d="M312.058,266.393c1.577-10.168-6.1-13.544-14.936-17.032s-10.4-10.109-10.4-10.109a24,24,0,0,0,.841,24.706c8.211,12.919,23.342,9.858,24.493,2.435" transform="translate(32.855 27.709)" fill="#407bff"/>
        <path id="Path_39144" data-name="Path 39144" d="M309.082,288.228c1.695-8.068,8.405-8.427,16.015-8.542s10.654-4.636,10.654-4.636a19.223,19.223,0,0,1-7.62,18.282c-9.81,7.362-20.287.787-19.049-5.1" transform="translate(35.785 31.855)" fill="#407bff"/>
        <path id="Path_39145" data-name="Path 39145" d="M307.836,323.5c1.846-4.964,11.472-16.488,20.779-14.367-6.37,4.133-10.773,22.966-21.115,24.111.287-8.322.336-9.743.336-9.743" transform="translate(35.614 35.773)" fill="#407bff"/>
        <path id="Path_39146" data-name="Path 39146" d="M319.267,343.832H288.216a2.577,2.577,0,0,0-2.472,3.307l8.4,28.408a2.578,2.578,0,0,0,2.47,1.846h14.243a2.574,2.574,0,0,0,2.47-1.846l8.405-28.408a2.577,2.577,0,0,0-2.47-3.307" transform="translate(33.082 39.822)" fill="#407bff"/>
        <g id="Group_37420" data-name="Group 37420" transform="translate(318.717 383.653)" opacity="0.2">
          <g id="Group_37419" data-name="Group 37419">
            <g id="Group_37418" data-name="Group 37418" clip-path="url(#clip-path-24)">
              <path id="Path_39147" data-name="Path 39147" d="M319.267,343.832H288.216a2.577,2.577,0,0,0-2.472,3.307l8.4,28.408a2.578,2.578,0,0,0,2.47,1.846h14.243a2.574,2.574,0,0,0,2.47-1.846l8.405-28.408a2.577,2.577,0,0,0-2.47-3.307" transform="translate(-285.636 -343.832)" fill="#407bff"/>
            </g>
          </g>
        </g>
        <g id="Group_37423" data-name="Group 37423" transform="translate(318.717 383.653)" opacity="0.7">
          <g id="Group_37422" data-name="Group 37422">
            <g id="Group_37421" data-name="Group 37421" clip-path="url(#clip-path-24)">
              <path id="Path_39148" data-name="Path 39148" d="M319.267,343.832H288.216a2.577,2.577,0,0,0-2.472,3.307l8.4,28.408a2.578,2.578,0,0,0,2.47,1.846h14.243a2.574,2.574,0,0,0,2.47-1.846l8.405-28.408a2.577,2.577,0,0,0-2.47-3.307" transform="translate(-285.636 -343.832)" fill="#fff"/>
            </g>
          </g>
        </g>
      </g>
    </g>
  </g>
</svg>
